<svg xmlns="http://www.w3.org/2000/svg" xmlns:xlink="http://www.w3.org/1999/xlink" viewBox="0 0 409.52 304.39"><defs><style>.cls-1{fill:url(#linear-gradient);}.cls-12,.cls-2{isolation:isolate;}.cls-13,.cls-14,.cls-3,.cls-6{fill:none;}.cls-3{stroke:#000;}.cls-14,.cls-3,.cls-6{stroke-width:0.75px;}.cls-4{fill:#d31818;}.cls-5{fill:#1c1c1c;}.cls-6{stroke:#757575;}.cls-13,.cls-6{stroke-linecap:round;stroke-linejoin:round;}.cls-7{fill:#4c4c4c;opacity:0.78;mix-blend-mode:multiply;}.cls-8{fill:#506389;}.cls-9{fill:#bcc9dd;}.cls-10{fill:#fff;opacity:0.41;mix-blend-mode:lighten;}.cls-11{fill:#231f20;}.cls-12{fill:#838384;opacity:0.3;}.cls-13{stroke:#333;stroke-width:1.5px;}.cls-14{stroke:#314668;stroke-miterlimit:10;}.cls-15{mask:url(#mask);}.cls-16{opacity:0.6;}.cls-17{fill:#d0edbe;}.cls-18{fill:#fab1d5;}.cls-19{fill:#97d1ff;}.cls-20{filter:url(#luminosity-invert);}</style><linearGradient id="linear-gradient" x1="-1865.23" y1="-1656.08" x2="-1865.23" y2="-1465.4" gradientTransform="translate(2068.38 1658.55)" gradientUnits="userSpaceOnUse"><stop offset="0" stop-color="#fff"/><stop offset="0.02" stop-color="#f0f0f0"/><stop offset="0.09" stop-color="#bfbfbf"/><stop offset="0.17" stop-color="#919191"/><stop offset="0.25" stop-color="#6a6a6a"/><stop offset="0.34" stop-color="#494949"/><stop offset="0.43" stop-color="#2e2e2e"/><stop offset="0.53" stop-color="#1a1a1a"/><stop offset="0.65" stop-color="#0b0b0b"/><stop offset="0.78" stop-color="#030303"/><stop offset="1"/></linearGradient><filter id="luminosity-invert" filterUnits="userSpaceOnUse" color-interpolation-filters="sRGB"><feColorMatrix values="-1 0 0 0 1 0 -1 0 0 1 0 0 -1 0 1 0 0 0 1 0"/></filter><mask id="mask" x="-1.58" y="-7.63" width="409.45" height="202.1" maskUnits="userSpaceOnUse"><g class="cls-20"><rect class="cls-1" x="-1.58" y="1.21" width="409.45" height="193.07" transform="translate(406.3 195.5) rotate(180)"/></g></mask></defs><title>depmapmodel</title><g class="cls-2"><g id="Layer_1" data-name="Layer 1"><g id="New_Symbol" data-name="New Symbol"><polygon points="183.41 241.96 184.09 251.35 182.44 251.35 183.18 241.96 183.41 241.96"/><line class="cls-3" x1="200.94" y1="242.93" x2="207.32" y2="239.28"/><line class="cls-3" x1="200.94" y1="250.27" x2="207.32" y2="253.97"/><polyline class="cls-3" points="199.29 241.96 199.29 251.24 207.32 255.85 215.34 251.24"/><polyline class="cls-3" points="199.29 241.96 207.32 237.35 215.34 241.96 215.34 251.24"/><line class="cls-3" x1="213.69" y1="242.93" x2="213.69" y2="250.27"/><line class="cls-3" x1="192.12" y1="237.86" x2="192.12" y2="231.03"/><line class="cls-3" x1="190.47" y1="237.86" x2="190.47" y2="231.03"/><polyline class="cls-3" points="175.27 237.35 183.3 241.96 191.32 237.35 199.29 241.96"/><line class="cls-3" x1="220.58" y1="254.25" x2="215.34" y2="251.24"/><line class="cls-3" x1="231.34" y1="251.24" x2="226.04" y2="254.31"/><line class="cls-3" x1="223.31" y1="265.07" x2="223.31" y2="258.75"/><path class="cls-4" d="M222,255.85a1.54,1.54,0,1,0,1.54-1.54h0a1.5,1.5,0,0,0-1.54,1.46v.08"/><path class="cls-4" d="M189.79,228.07a1.54,1.54,0,1,0,1.56-1.54,1.53,1.53,0,0,0-1.56,1.54h0"/></g><path class="cls-5" d="M104.72,276.06v3.85a5.5,5.5,0,0,1-1.62.82,6.19,6.19,0,0,1-1.88.27,6,6,0,0,1-2.18-.38,4.8,4.8,0,0,1-1.66-1.05A4.47,4.47,0,0,1,96.32,278a5.58,5.58,0,0,1-.37-2.08,5.84,5.84,0,0,1,.36-2.09A4.47,4.47,0,0,1,99,271.11a5.94,5.94,0,0,1,2.13-.37,6.36,6.36,0,0,1,1.1.09,5.27,5.27,0,0,1,.95.25,4.6,4.6,0,0,1,.8.4,5.15,5.15,0,0,1,.7.53l-.39.62a.36.36,0,0,1-.55.11l-.39-.24a3.69,3.69,0,0,0-.53-.27A3.73,3.73,0,0,0,102,272a4.88,4.88,0,0,0-1-.09,4,4,0,0,0-1.54.28,3.23,3.23,0,0,0-1.17.79,3.5,3.5,0,0,0-.74,1.24,5.39,5.39,0,0,0,0,3.34,3.65,3.65,0,0,0,.77,1.26,3.41,3.41,0,0,0,1.22.8,4.47,4.47,0,0,0,1.6.27,4.24,4.24,0,0,0,1.24-.16,4.85,4.85,0,0,0,1.06-.44v-2.2h-1.56a.29.29,0,0,1-.21-.08.22.22,0,0,1-.08-.19v-.77Z"/><path class="cls-5" d="M112.17,279.89a2.36,2.36,0,0,1-.55.49,3.68,3.68,0,0,1-.69.34,4.71,4.71,0,0,1-.76.2,5.12,5.12,0,0,1-.78.06,3.68,3.68,0,0,1-1.35-.24A3,3,0,0,1,107,280a3.43,3.43,0,0,1-.71-1.19,5,5,0,0,1-.25-1.62,4.18,4.18,0,0,1,.23-1.39,3.22,3.22,0,0,1,.65-1.11,3.06,3.06,0,0,1,1-.75,3.4,3.4,0,0,1,1.38-.27,3,3,0,0,1,1.18.22,2.59,2.59,0,0,1,.94.61,2.88,2.88,0,0,1,.62,1,3.73,3.73,0,0,1,.22,1.34.89.89,0,0,1-.06.4.27.27,0,0,1-.24.09h-4.74a4.34,4.34,0,0,0,.19,1.17,2.29,2.29,0,0,0,.46.83,1.84,1.84,0,0,0,.7.5,2.38,2.38,0,0,0,.91.16,2.8,2.8,0,0,0,.81-.1,4.07,4.07,0,0,0,.58-.24l.41-.23a.48.48,0,0,1,.28-.11.26.26,0,0,1,.24.12Zm-1-3.32a2.53,2.53,0,0,0-.12-.8,1.88,1.88,0,0,0-.35-.62,1.74,1.74,0,0,0-.58-.41,2,2,0,0,0-.76-.14,1.91,1.91,0,0,0-1.42.52,2.47,2.47,0,0,0-.64,1.45Z"/><path class="cls-5" d="M115,274.83a3.11,3.11,0,0,1,.49-.47A3.53,3.53,0,0,1,116,274a3.19,3.19,0,0,1,.61-.23,3.15,3.15,0,0,1,.71-.08,2.54,2.54,0,0,1,1,.2,1.92,1.92,0,0,1,.74.54,2.39,2.39,0,0,1,.45.85,3.48,3.48,0,0,1,.16,1.1v4.52h-1.25v-4.52a1.94,1.94,0,0,0-.37-1.25,1.4,1.4,0,0,0-1.12-.44,2.16,2.16,0,0,0-1,.26,3.52,3.52,0,0,0-.89.72v5.23h-1.25V273.8h.75a.3.3,0,0,1,.33.25Z"/><path class="cls-5" d="M127.38,279.89a2.41,2.41,0,0,1-.56.49,3.17,3.17,0,0,1-.69.34,4.45,4.45,0,0,1-.76.2,5.09,5.09,0,0,1-.77.06,3.78,3.78,0,0,1-1.36-.24,3,3,0,0,1-1.07-.73,3.41,3.41,0,0,1-.7-1.19,4.75,4.75,0,0,1-.25-1.62,4.18,4.18,0,0,1,.22-1.39,3.24,3.24,0,0,1,.66-1.11,2.93,2.93,0,0,1,1-.75,3.41,3.41,0,0,1,1.39-.27,3.06,3.06,0,0,1,1.18.22,2.68,2.68,0,0,1,.94.61,2.86,2.86,0,0,1,.61,1,3.73,3.73,0,0,1,.23,1.34.89.89,0,0,1-.06.4.3.3,0,0,1-.24.09h-4.74a4,4,0,0,0,.18,1.17,2.45,2.45,0,0,0,.46.83,1.92,1.92,0,0,0,.7.5,2.42,2.42,0,0,0,.91.16,2.76,2.76,0,0,0,.81-.1,4.23,4.23,0,0,0,.59-.24,3.32,3.32,0,0,0,.4-.23.5.5,0,0,1,.29-.11.29.29,0,0,1,.24.12Zm-1-3.32a2.53,2.53,0,0,0-.12-.8,1.91,1.91,0,0,0-.36-.62,1.81,1.81,0,0,0-.57-.41,2.06,2.06,0,0,0-.76-.14,1.9,1.9,0,0,0-1.42.52,2.42,2.42,0,0,0-.65,1.45Z"/><path class="cls-5" d="M135.55,280.89H134.3v-6.05h-3.65v4.25a.93.93,0,0,0,.21.67.79.79,0,0,0,.56.22.86.86,0,0,0,.34-.06,1.17,1.17,0,0,0,.25-.11l.18-.12a.27.27,0,0,1,.13-.05.21.21,0,0,1,.17.12l.37.59a2.38,2.38,0,0,1-.78.48,2.7,2.7,0,0,1-.94.17,1.71,1.71,0,0,1-1.29-.47,1.87,1.87,0,0,1-.45-1.35v-4.34h-.85a.26.26,0,0,1-.27-.27v-.5l1.16-.16.29-2.18a.26.26,0,0,1,.09-.17.27.27,0,0,1,.2-.07h.63v2.45h4.9Zm.3-9.37a.8.8,0,0,1-.07.34.9.9,0,0,1-.2.28.92.92,0,0,1-.28.19,1,1,0,0,1-.34.07.94.94,0,0,1-.34-.07.92.92,0,0,1-.28-.19,1.07,1.07,0,0,1-.19-.28,1,1,0,0,1-.07-.34,1,1,0,0,1,.07-.35.92.92,0,0,1,.19-.28,1,1,0,0,1,.28-.2.94.94,0,0,1,.34-.07,1,1,0,0,1,.34.07,1,1,0,0,1,.28.2.8.8,0,0,1,.2.28A.84.84,0,0,1,135.85,271.52Z"/><path class="cls-5" d="M142.52,275.06a.29.29,0,0,1-.11.11.23.23,0,0,1-.15.05.4.4,0,0,1-.23-.09l-.31-.19a2.88,2.88,0,0,0-.46-.2,2.48,2.48,0,0,0-.66-.08,2.19,2.19,0,0,0-.92.18,1.76,1.76,0,0,0-.67.54,2.35,2.35,0,0,0-.41.84,4.36,4.36,0,0,0-.13,1.12,4,4,0,0,0,.14,1.14,2.36,2.36,0,0,0,.42.84,1.81,1.81,0,0,0,.65.52,2,2,0,0,0,.86.18,2.28,2.28,0,0,0,.75-.11,2.15,2.15,0,0,0,.48-.24l.32-.24a.39.39,0,0,1,.26-.11.29.29,0,0,1,.24.12l.35.45a2.45,2.45,0,0,1-.53.49,2.72,2.72,0,0,1-.63.34,3.4,3.4,0,0,1-.71.2,4.77,4.77,0,0,1-.76.06,3.14,3.14,0,0,1-1.23-.24,2.78,2.78,0,0,1-1-.71,3.31,3.31,0,0,1-.66-1.15,4.57,4.57,0,0,1-.24-1.54,4.62,4.62,0,0,1,.22-1.47,3.25,3.25,0,0,1,.65-1.15,2.83,2.83,0,0,1,1-.76,3.75,3.75,0,0,1,2.74,0,3.18,3.18,0,0,1,1,.69Z"/><path class="cls-5" d="M101.2,296a1.71,1.71,0,0,1-1.29-.47,1.87,1.87,0,0,1-.45-1.35v-4.34H98.6a.28.28,0,0,1-.19-.07.24.24,0,0,1-.07-.2v-.5l1.16-.15.29-2.19a.26.26,0,0,1,.09-.17.25.25,0,0,1,.19-.07h.63v2.45h2v.9h-2v4.25a.89.89,0,0,0,.22.67.77.77,0,0,0,.56.22.9.9,0,0,0,.34-.06l.25-.11.18-.12a.27.27,0,0,1,.13-.05.21.21,0,0,1,.17.12l.36.59a2.24,2.24,0,0,1-.77.48A2.79,2.79,0,0,1,101.2,296Z"/><path class="cls-5" d="M103.86,289.8a4,4,0,0,1,1.27-.85,3.82,3.82,0,0,1,1.5-.28,2.71,2.71,0,0,1,1.06.2,2.18,2.18,0,0,1,.78.54,2.42,2.42,0,0,1,.47.85,3.42,3.42,0,0,1,.16,1.09v4.54h-.55a.53.53,0,0,1-.28-.06.41.41,0,0,1-.16-.24l-.13-.67a7.06,7.06,0,0,1-.55.46,3.57,3.57,0,0,1-.56.33,2.34,2.34,0,0,1-.63.21,3.36,3.36,0,0,1-.74.08,2.43,2.43,0,0,1-.77-.12,1.71,1.71,0,0,1-.64-.34,1.59,1.59,0,0,1-.42-.59,1.92,1.92,0,0,1-.16-.83,1.61,1.61,0,0,1,.23-.81,2,2,0,0,1,.75-.69,4.85,4.85,0,0,1,1.35-.5,11.16,11.16,0,0,1,2-.22v-.55a1.88,1.88,0,0,0-.35-1.25,1.31,1.31,0,0,0-1-.42,2.46,2.46,0,0,0-.77.11,3.41,3.41,0,0,0-.54.26l-.39.26a.56.56,0,0,1-.33.12.38.38,0,0,1-.21-.07.81.81,0,0,1-.16-.16Zm4,2.89a10.8,10.8,0,0,0-1.46.14,4.42,4.42,0,0,0-1,.28,1.38,1.38,0,0,0-.55.42.84.84,0,0,0-.17.53,1.14,1.14,0,0,0,.09.48.76.76,0,0,0,.25.33.87.87,0,0,0,.37.19,1.65,1.65,0,0,0,.46.06,2.84,2.84,0,0,0,.6-.06,2.69,2.69,0,0,0,1-.5,3.19,3.19,0,0,0,.43-.4Z"/><path class="cls-5" d="M112.18,290.22a3.18,3.18,0,0,1,.83-1.14,1.8,1.8,0,0,1,1.2-.41,2.1,2.1,0,0,1,.43.05,1.05,1.05,0,0,1,.36.15l-.09.93a.2.2,0,0,1-.21.18l-.28,0a1.88,1.88,0,0,0-.43-.05,1.79,1.79,0,0,0-.6.1,1.61,1.61,0,0,0-.47.29,2,2,0,0,0-.37.48,3.94,3.94,0,0,0-.3.65v4.48H111V288.8h.71a.39.39,0,0,1,.28.07.49.49,0,0,1,.11.27Z"/><path class="cls-5" d="M121.92,289.08v.46c0,.15-.1.25-.29.29l-.81.11a2.13,2.13,0,0,1,.24,1,2.23,2.23,0,0,1-.2.94,2.16,2.16,0,0,1-.55.72,2.29,2.29,0,0,1-.84.47,3.62,3.62,0,0,1-1.06.16,3.51,3.51,0,0,1-.94-.12,1.17,1.17,0,0,0-.35.3.56.56,0,0,0-.11.31.43.43,0,0,0,.2.39,1.71,1.71,0,0,0,.54.18,5.63,5.63,0,0,0,.77.07l.88.05a6.56,6.56,0,0,1,.89.11,2.52,2.52,0,0,1,.76.25,1.33,1.33,0,0,1,.54.48,1.4,1.4,0,0,1,.21.8,1.75,1.75,0,0,1-.23.88,2.34,2.34,0,0,1-.65.76,3.34,3.34,0,0,1-1,.53,4.62,4.62,0,0,1-1.39.2,5.49,5.49,0,0,1-1.36-.15,3.22,3.22,0,0,1-1-.42,1.91,1.91,0,0,1-.58-.59,1.54,1.54,0,0,1-.19-.71,1.27,1.27,0,0,1,.33-.89,2.16,2.16,0,0,1,.9-.58,1.38,1.38,0,0,1-.5-.38,1,1,0,0,1-.18-.63,1.25,1.25,0,0,1,0-.32,1.73,1.73,0,0,1,.17-.33,2.09,2.09,0,0,1,.29-.31,1.56,1.56,0,0,1,.39-.26,2.28,2.28,0,0,1-.82-.78,2.21,2.21,0,0,1-.29-1.13,2.13,2.13,0,0,1,.75-1.66,2.68,2.68,0,0,1,.85-.46,3.77,3.77,0,0,1,2-.06,2.88,2.88,0,0,1,.72.3Zm-1.27,7.19a.64.64,0,0,0-.14-.42,1,1,0,0,0-.4-.25,2.93,2.93,0,0,0-.58-.13q-.33,0-.69-.06l-.75,0-.73-.07a1.91,1.91,0,0,0-.64.46,1,1,0,0,0-.25.64.81.81,0,0,0,.13.45,1,1,0,0,0,.37.36,2,2,0,0,0,.63.23,4,4,0,0,0,.9.09,4.19,4.19,0,0,0,.91-.09,2.29,2.29,0,0,0,.67-.26,1.19,1.19,0,0,0,.43-.4A1,1,0,0,0,120.65,296.27Zm-2.24-3.85a1.91,1.91,0,0,0,.66-.1,1.31,1.31,0,0,0,.48-.3,1.19,1.19,0,0,0,.3-.45,1.76,1.76,0,0,0,.1-.58,1.38,1.38,0,0,0-.4-1,1.56,1.56,0,0,0-1.14-.39,1.6,1.6,0,0,0-1.16.39,1.37,1.37,0,0,0-.39,1,1.54,1.54,0,0,0,.1.58,1.19,1.19,0,0,0,.3.45,1.31,1.31,0,0,0,.48.3A1.93,1.93,0,0,0,118.41,292.42Z"/><path class="cls-5" d="M128.86,294.89a2.41,2.41,0,0,1-.56.49,3.17,3.17,0,0,1-.69.34,4.45,4.45,0,0,1-.76.2,5.09,5.09,0,0,1-.77.06,3.78,3.78,0,0,1-1.36-.24,3,3,0,0,1-1.07-.73,3.41,3.41,0,0,1-.7-1.19,4.75,4.75,0,0,1-.25-1.62,4.18,4.18,0,0,1,.22-1.39,3.24,3.24,0,0,1,.66-1.11,2.93,2.93,0,0,1,1-.75,3.41,3.41,0,0,1,1.39-.27,3.06,3.06,0,0,1,1.18.22,2.68,2.68,0,0,1,.94.61,2.72,2.72,0,0,1,.61,1,3.73,3.73,0,0,1,.23,1.34.89.89,0,0,1-.06.4.3.3,0,0,1-.24.09h-4.74a4,4,0,0,0,.18,1.17,2.45,2.45,0,0,0,.46.83,1.92,1.92,0,0,0,.7.5,2.42,2.42,0,0,0,.91.16,2.71,2.71,0,0,0,.81-.1,4.23,4.23,0,0,0,.59-.24,3.32,3.32,0,0,0,.4-.23.53.53,0,0,1,.29-.11.29.29,0,0,1,.24.12Zm-1-3.32a2.53,2.53,0,0,0-.12-.8,1.91,1.91,0,0,0-.36-.62,1.81,1.81,0,0,0-.57-.41,2.06,2.06,0,0,0-.76-.14,1.91,1.91,0,0,0-1.42.52,2.48,2.48,0,0,0-.65,1.45Z"/><path class="cls-5" d="M132.62,296a1.71,1.71,0,0,1-1.29-.47,1.87,1.87,0,0,1-.45-1.35v-4.34H130a.25.25,0,0,1-.19-.07.22.22,0,0,1-.08-.2v-.5l1.16-.15.29-2.19a.26.26,0,0,1,.09-.17.27.27,0,0,1,.2-.07h.63v2.45h2.05v.9h-2.05v4.25a.93.93,0,0,0,.21.67.79.79,0,0,0,.56.22.86.86,0,0,0,.34-.06,1.17,1.17,0,0,0,.25-.11l.18-.12a.27.27,0,0,1,.13-.05.21.21,0,0,1,.17.12l.37.59a2.38,2.38,0,0,1-.78.48A2.74,2.74,0,0,1,132.62,296Z"/><path class="cls-5" d="M139.59,290a.26.26,0,0,1-.25.16.52.52,0,0,1-.24-.08l-.33-.17a3,3,0,0,0-.46-.17,1.91,1.91,0,0,0-.63-.09,1.6,1.6,0,0,0-.56.09,1.09,1.09,0,0,0-.43.22,1.06,1.06,0,0,0-.28.32.93.93,0,0,0-.09.4.65.65,0,0,0,.16.46,1.2,1.2,0,0,0,.41.31,3.62,3.62,0,0,0,.59.24l.68.22c.23.07.45.16.67.25a2.3,2.3,0,0,1,.59.35,1.66,1.66,0,0,1,.42.52,1.61,1.61,0,0,1,.15.73,2.22,2.22,0,0,1-.17.9,2,2,0,0,1-.52.72,2.31,2.31,0,0,1-.84.48,3.35,3.35,0,0,1-1.15.18,3.59,3.59,0,0,1-1.34-.24,3.43,3.43,0,0,1-1-.62l.29-.48a.44.44,0,0,1,.13-.14.39.39,0,0,1,.2,0,.56.56,0,0,1,.27.1l.33.22a2.49,2.49,0,0,0,.49.21,2.12,2.12,0,0,0,.72.1A2,2,0,0,0,138,295a1.29,1.29,0,0,0,.46-.26,1,1,0,0,0,.27-.37,1.33,1.33,0,0,0,.08-.45.76.76,0,0,0-.15-.48,1.4,1.4,0,0,0-.42-.33,3.62,3.62,0,0,0-.59-.24l-.68-.21c-.23-.08-.46-.16-.68-.26a2.08,2.08,0,0,1-.59-.36,1.7,1.7,0,0,1-.42-.53,1.87,1.87,0,0,1-.15-.78,1.91,1.91,0,0,1,.16-.78,2.11,2.11,0,0,1,.49-.66,2.43,2.43,0,0,1,.79-.45,3.25,3.25,0,0,1,1.07-.17,3.54,3.54,0,0,1,1.26.22,3,3,0,0,1,1,.61Z"/><path class="cls-5" d="M174.19,272H171v8.89H169.6V272h-3.26v-1.14h7.85Z"/><path class="cls-5" d="M176.52,274.74a3.71,3.71,0,0,1,1-.77,2.73,2.73,0,0,1,1.27-.29,2.56,2.56,0,0,1,1,.2,2,2,0,0,1,.74.54,2.39,2.39,0,0,1,.45.85,3.8,3.8,0,0,1,.15,1.1v4.52h-1.25v-4.52a1.88,1.88,0,0,0-.37-1.25,1.36,1.36,0,0,0-1.11-.44,2.2,2.2,0,0,0-1,.26,3.48,3.48,0,0,0-.88.72v5.23h-1.25V270.58h1.25Z"/><path class="cls-5" d="M188.83,279.89a2.36,2.36,0,0,1-.55.49,3.68,3.68,0,0,1-.69.34,5,5,0,0,1-.76.2,5.12,5.12,0,0,1-.78.06,3.68,3.68,0,0,1-1.35-.24,3,3,0,0,1-1.07-.73,3.43,3.43,0,0,1-.71-1.19,5,5,0,0,1-.25-1.62,4.18,4.18,0,0,1,.23-1.39,3.22,3.22,0,0,1,.65-1.11,3.06,3.06,0,0,1,1-.75,3.4,3.4,0,0,1,1.38-.27,3,3,0,0,1,1.18.22,2.59,2.59,0,0,1,.94.61,2.88,2.88,0,0,1,.62,1,3.73,3.73,0,0,1,.22,1.34.89.89,0,0,1-.06.4.27.27,0,0,1-.24.09H183.9a4.34,4.34,0,0,0,.19,1.17,2.29,2.29,0,0,0,.46.83,1.84,1.84,0,0,0,.7.5,2.38,2.38,0,0,0,.91.16,2.8,2.8,0,0,0,.81-.1,4.07,4.07,0,0,0,.58-.24l.41-.23a.48.48,0,0,1,.28-.11.26.26,0,0,1,.24.12Zm-1-3.32a2.53,2.53,0,0,0-.12-.8,1.74,1.74,0,0,0-.36-.62,1.61,1.61,0,0,0-.57-.41,2,2,0,0,0-.76-.14,1.91,1.91,0,0,0-1.42.52,2.47,2.47,0,0,0-.64,1.45Z"/><path class="cls-5" d="M191.65,275.22a3.18,3.18,0,0,1,.83-1.14,1.8,1.8,0,0,1,1.2-.41,1.93,1.93,0,0,1,.42.05,1,1,0,0,1,.37.15l-.09.93a.2.2,0,0,1-.21.18l-.28,0a1.88,1.88,0,0,0-.43-.05,1.79,1.79,0,0,0-.6.1,1.61,1.61,0,0,0-.47.29,2,2,0,0,0-.37.48,3.94,3.94,0,0,0-.3.65v4.48h-1.25V273.8h.71a.39.39,0,0,1,.28.07.49.49,0,0,1,.11.27Z"/><path class="cls-5" d="M195.27,274.8a4.1,4.1,0,0,1,1.27-.85,3.82,3.82,0,0,1,1.5-.28,2.71,2.71,0,0,1,1.06.2,2.18,2.18,0,0,1,.78.54,2.27,2.27,0,0,1,.47.85,3.42,3.42,0,0,1,.16,1.09v4.54H200a.55.55,0,0,1-.28-.06.4.4,0,0,1-.15-.24l-.14-.67a7.06,7.06,0,0,1-.55.46,3.16,3.16,0,0,1-.56.33,2.13,2.13,0,0,1-.63.21,3.26,3.26,0,0,1-.73.08,2.45,2.45,0,0,1-.78-.12,1.75,1.75,0,0,1-.63-.34,1.61,1.61,0,0,1-.43-.59,1.92,1.92,0,0,1-.16-.83,1.61,1.61,0,0,1,.23-.81,2.11,2.11,0,0,1,.75-.69,5.1,5.1,0,0,1,1.35-.5,11.18,11.18,0,0,1,2.05-.22v-.55a1.88,1.88,0,0,0-.36-1.25,1.3,1.3,0,0,0-1-.42,2.48,2.48,0,0,0-.78.11,4.54,4.54,0,0,0-.54.26l-.39.26a.56.56,0,0,1-.32.12.38.38,0,0,1-.22-.07.57.57,0,0,1-.15-.16Zm4,2.89a10.8,10.8,0,0,0-1.47.14,4.58,4.58,0,0,0-1,.28,1.38,1.38,0,0,0-.55.42.9.9,0,0,0-.17.53,1.14,1.14,0,0,0,.09.48.76.76,0,0,0,.25.33.93.93,0,0,0,.37.19,1.65,1.65,0,0,0,.46.06,2.77,2.77,0,0,0,.6-.06,2.25,2.25,0,0,0,.51-.2,2.66,2.66,0,0,0,.47-.3,3.93,3.93,0,0,0,.43-.4Z"/><path class="cls-5" d="M203.6,274.89a3.78,3.78,0,0,1,1-.88,2.59,2.59,0,0,1,1.34-.34,2.65,2.65,0,0,1,1.11.23,2.21,2.21,0,0,1,.85.7,3.39,3.39,0,0,1,.54,1.13,5.77,5.77,0,0,1,.19,1.57,4.84,4.84,0,0,1-.21,1.45,3.25,3.25,0,0,1-.61,1.17,2.8,2.8,0,0,1-1,.78,2.84,2.84,0,0,1-1.29.28,2.53,2.53,0,0,1-1.11-.22,2.59,2.59,0,0,1-.83-.61v3.14h-1.25V273.8h.75a.3.3,0,0,1,.33.25Zm.06,4.29a2,2,0,0,0,.75.65,2.09,2.09,0,0,0,.91.19,1.81,1.81,0,0,0,1.53-.71,3.32,3.32,0,0,0,.53-2,5.08,5.08,0,0,0-.12-1.19,2.3,2.3,0,0,0-.35-.82,1.39,1.39,0,0,0-.57-.46,1.87,1.87,0,0,0-.76-.15,2,2,0,0,0-1.07.28,3,3,0,0,0-.85.79Z"/><path class="cls-5" d="M216,279.89a2.36,2.36,0,0,1-.55.49,3.68,3.68,0,0,1-.69.34,5,5,0,0,1-.76.2,5.12,5.12,0,0,1-.78.06,3.68,3.68,0,0,1-1.35-.24,3,3,0,0,1-1.07-.73,3.43,3.43,0,0,1-.71-1.19,5,5,0,0,1-.25-1.62,4.18,4.18,0,0,1,.23-1.39,3.22,3.22,0,0,1,.65-1.11,3.06,3.06,0,0,1,1.05-.75,3.4,3.4,0,0,1,1.38-.27,3,3,0,0,1,1.18.22,2.59,2.59,0,0,1,.94.61,2.88,2.88,0,0,1,.62,1,3.73,3.73,0,0,1,.22,1.34.89.89,0,0,1-.06.4.27.27,0,0,1-.24.09h-4.74a4.34,4.34,0,0,0,.19,1.17,2.29,2.29,0,0,0,.46.83,1.84,1.84,0,0,0,.7.5,2.38,2.38,0,0,0,.91.16,2.8,2.8,0,0,0,.81-.1,4.07,4.07,0,0,0,.58-.24l.41-.23a.48.48,0,0,1,.28-.11.26.26,0,0,1,.24.12Zm-1-3.32a2.53,2.53,0,0,0-.12-.8,1.74,1.74,0,0,0-.36-.62,1.61,1.61,0,0,0-.57-.41,2,2,0,0,0-.76-.14,1.91,1.91,0,0,0-1.42.52,2.47,2.47,0,0,0-.64,1.45Z"/><path class="cls-5" d="M223.48,273.8v7.09h-.74a.33.33,0,0,1-.34-.26l-.09-.77a4.09,4.09,0,0,1-1,.83A2.8,2.8,0,0,1,220,281a2.69,2.69,0,0,1-1-.19,2,2,0,0,1-.75-.55,2.26,2.26,0,0,1-.45-.84,3.85,3.85,0,0,1-.15-1.1V273.8h1.25v4.52a1.91,1.91,0,0,0,.36,1.24,1.37,1.37,0,0,0,1.13.44,2,2,0,0,0,1-.26,3.14,3.14,0,0,0,.89-.72V273.8Z"/><path class="cls-5" d="M232,280.89h-1.25v-6.05h-3.65v4.25a.93.93,0,0,0,.21.67.79.79,0,0,0,.56.22.86.86,0,0,0,.34-.06,1.17,1.17,0,0,0,.25-.11l.18-.12a.27.27,0,0,1,.13-.05.21.21,0,0,1,.17.12l.37.59a2.38,2.38,0,0,1-.78.48,2.74,2.74,0,0,1-.94.17,1.71,1.71,0,0,1-1.29-.47,1.87,1.87,0,0,1-.45-1.35v-4.34H225a.25.25,0,0,1-.19-.07.22.22,0,0,1-.08-.2v-.5l1.16-.16.29-2.18a.26.26,0,0,1,.09-.17.27.27,0,0,1,.2-.07h.63v2.45H232Zm.3-9.37a.8.8,0,0,1-.07.34.9.9,0,0,1-.2.28.92.92,0,0,1-.28.19,1,1,0,0,1-.34.07.94.94,0,0,1-.34-.07.92.92,0,0,1-.28-.19,1.07,1.07,0,0,1-.19-.28,1,1,0,0,1-.07-.34,1,1,0,0,1,.07-.35.92.92,0,0,1,.19-.28,1,1,0,0,1,.28-.2.94.94,0,0,1,.34-.07,1,1,0,0,1,.34.07,1,1,0,0,1,.28.2.8.8,0,0,1,.2.28A.84.84,0,0,1,232.34,271.52Z"/><path class="cls-5" d="M239,275.06a.29.29,0,0,1-.11.11.25.25,0,0,1-.15.05.4.4,0,0,1-.23-.09l-.31-.19a2.88,2.88,0,0,0-.46-.2,2.48,2.48,0,0,0-.66-.08,2.19,2.19,0,0,0-.92.18,1.76,1.76,0,0,0-.67.54,2.35,2.35,0,0,0-.41.84,4.35,4.35,0,0,0-.14,1.12,3.94,3.94,0,0,0,.15,1.14,2.36,2.36,0,0,0,.42.84,1.73,1.73,0,0,0,.65.52,2,2,0,0,0,.86.18,2.18,2.18,0,0,0,.74-.11,2,2,0,0,0,.49-.24l.32-.24a.39.39,0,0,1,.26-.11.29.29,0,0,1,.24.12l.35.45a2.45,2.45,0,0,1-.53.49,2.94,2.94,0,0,1-.63.34,3.4,3.4,0,0,1-.71.2,4.77,4.77,0,0,1-.76.06,3.14,3.14,0,0,1-1.23-.24,2.78,2.78,0,0,1-1-.71,3.31,3.31,0,0,1-.66-1.15,4.57,4.57,0,0,1-.24-1.54,4.62,4.62,0,0,1,.22-1.47,3.39,3.39,0,0,1,.64-1.15,2.87,2.87,0,0,1,1.05-.76,3.75,3.75,0,0,1,2.74,0,3.18,3.18,0,0,1,1,.69Z"/><path class="cls-5" d="M189.45,285.58v10.31H188.2V285.58Z"/><path class="cls-5" d="M197.22,294.89a2.36,2.36,0,0,1-.55.49,3.68,3.68,0,0,1-.69.34,5,5,0,0,1-.76.2,5.12,5.12,0,0,1-.78.06,3.68,3.68,0,0,1-1.35-.24A3,3,0,0,1,192,295a3.28,3.28,0,0,1-.71-1.19,4.75,4.75,0,0,1-.25-1.62,4.18,4.18,0,0,1,.23-1.39,3.22,3.22,0,0,1,.65-1.11,3,3,0,0,1,1-.75,3.48,3.48,0,0,1,1.39-.27,3,3,0,0,1,1.18.22,2.59,2.59,0,0,1,.94.61,2.88,2.88,0,0,1,.62,1,3.73,3.73,0,0,1,.22,1.34.89.89,0,0,1-.06.4.27.27,0,0,1-.24.09h-4.74a4.34,4.34,0,0,0,.19,1.17,2.29,2.29,0,0,0,.46.83,1.84,1.84,0,0,0,.7.5,2.38,2.38,0,0,0,.91.16,2.69,2.69,0,0,0,.8-.1,3.78,3.78,0,0,0,.59-.24l.41-.23a.48.48,0,0,1,.28-.11.29.29,0,0,1,.24.12Zm-1-3.32a2.53,2.53,0,0,0-.12-.8,1.74,1.74,0,0,0-.36-.62,1.61,1.61,0,0,0-.57-.41,2,2,0,0,0-.76-.14,1.91,1.91,0,0,0-1.42.52,2.48,2.48,0,0,0-.65,1.45Z"/><path class="cls-5" d="M198.68,289.8a4.06,4.06,0,0,1,1.26-.85,3.9,3.9,0,0,1,1.51-.28,2.71,2.71,0,0,1,1.06.2,2.23,2.23,0,0,1,.77.54,2.44,2.44,0,0,1,.48.85,3.42,3.42,0,0,1,.16,1.09v4.54h-.55a.53.53,0,0,1-.28-.06.41.41,0,0,1-.16-.24l-.14-.67a7,7,0,0,1-.54.46,3.57,3.57,0,0,1-.56.33,2.34,2.34,0,0,1-.63.21,3.36,3.36,0,0,1-.74.08,2.54,2.54,0,0,1-.78-.12,1.63,1.63,0,0,1-1.06-.93,2.09,2.09,0,0,1-.15-.83,1.51,1.51,0,0,1,.23-.81,2,2,0,0,1,.75-.69,4.85,4.85,0,0,1,1.35-.5,11,11,0,0,1,2-.22v-.55a1.88,1.88,0,0,0-.36-1.25,1.27,1.27,0,0,0-1-.42,2.41,2.41,0,0,0-.77.11,3.41,3.41,0,0,0-.54.26l-.39.26a.56.56,0,0,1-.33.12.41.41,0,0,1-.22-.07.57.57,0,0,1-.15-.16Zm4,2.89a11.14,11.14,0,0,0-1.47.14,4.32,4.32,0,0,0-1,.28,1.42,1.42,0,0,0-.56.42.9.9,0,0,0-.17.53,1.14,1.14,0,0,0,.09.48,1,1,0,0,0,.25.33,1,1,0,0,0,.37.19,1.76,1.76,0,0,0,.46.06,2.77,2.77,0,0,0,.6-.06,2.16,2.16,0,0,0,.52-.2,2.59,2.59,0,0,0,.46-.3,3.19,3.19,0,0,0,.43-.4Z"/><path class="cls-5" d="M211.68,285.58v10.31h-.74a.33.33,0,0,1-.34-.26l-.11-.86a4.08,4.08,0,0,1-1,.88,2.7,2.7,0,0,1-1.35.33,2.49,2.49,0,0,1-1.1-.23,2.28,2.28,0,0,1-.85-.69,3.39,3.39,0,0,1-.54-1.13,5.75,5.75,0,0,1-.19-1.56,4.86,4.86,0,0,1,.21-1.46,3.75,3.75,0,0,1,.6-1.18,2.75,2.75,0,0,1,1-.78,2.8,2.8,0,0,1,1.28-.28,2.57,2.57,0,0,1,1.12.22,2.87,2.87,0,0,1,.83.61v-3.92Zm-1.24,4.9a1.94,1.94,0,0,0-1.67-.84,1.79,1.79,0,0,0-1.52.71,3.33,3.33,0,0,0-.53,2,5,5,0,0,0,.12,1.18,2.16,2.16,0,0,0,.35.81,1.33,1.33,0,0,0,.56.47,1.89,1.89,0,0,0,.77.15,2.05,2.05,0,0,0,1.07-.28,3.14,3.14,0,0,0,.85-.79Z"/><path class="cls-5" d="M217.79,290a.28.28,0,0,1-.26.16.52.52,0,0,1-.24-.08l-.33-.17a2.85,2.85,0,0,0-.45-.17,2,2,0,0,0-.63-.09,1.7,1.7,0,0,0-.57.09,1.17,1.17,0,0,0-.43.22,1.06,1.06,0,0,0-.28.32.93.93,0,0,0-.09.4.65.65,0,0,0,.16.46,1.2,1.2,0,0,0,.41.31,4,4,0,0,0,.59.24l.68.22c.23.07.45.16.67.25a2.3,2.3,0,0,1,.59.35,1.66,1.66,0,0,1,.42.52,1.61,1.61,0,0,1,.16.73,2.23,2.23,0,0,1-.18.9,2,2,0,0,1-.52.72,2.31,2.31,0,0,1-.84.48,3.35,3.35,0,0,1-1.15.18,3.59,3.59,0,0,1-1.34-.24,3.43,3.43,0,0,1-1-.62l.29-.48a.38.38,0,0,1,.14-.14.36.36,0,0,1,.19,0,.53.53,0,0,1,.27.1,2.89,2.89,0,0,0,.34.22,2.16,2.16,0,0,0,.48.21,2.12,2.12,0,0,0,.72.1,2,2,0,0,0,.63-.09,1.21,1.21,0,0,0,.46-.26,1,1,0,0,0,.27-.37,1.13,1.13,0,0,0,.09-.45.77.77,0,0,0-.16-.48,1.4,1.4,0,0,0-.42-.33,3.62,3.62,0,0,0-.59-.24l-.68-.21c-.23-.08-.46-.16-.68-.26a2.08,2.08,0,0,1-.59-.36,1.7,1.7,0,0,1-.42-.53,1.87,1.87,0,0,1-.15-.78,1.77,1.77,0,0,1,.17-.78,1.84,1.84,0,0,1,.49-.66,2.24,2.24,0,0,1,.79-.45,3.2,3.2,0,0,1,1.07-.17,3.52,3.52,0,0,1,1.25.22,2.91,2.91,0,0,1,1,.61Z"/><path class="cls-5" d="M86.12,212.16a.54.54,0,0,1,.4.17l1.13,1.21a5.27,5.27,0,0,1-2.07,1.61,7.19,7.19,0,0,1-3,.56,7.12,7.12,0,0,1-2.79-.53,6,6,0,0,1-2.1-1.47,6.82,6.82,0,0,1-1.33-2.23,8.86,8.86,0,0,1-.24-4.78,7.22,7.22,0,0,1,.65-1.7,6.9,6.9,0,0,1,1-1.41,6.36,6.36,0,0,1,3-1.74,7.89,7.89,0,0,1,1.92-.23,7.42,7.42,0,0,1,1.44.13,7.2,7.2,0,0,1,1.27.37,5.58,5.58,0,0,1,1.08.58,5.51,5.51,0,0,1,.9.73l-1,1.31a.66.66,0,0,1-.22.22.59.59,0,0,1-.36.1.82.82,0,0,1-.46-.17l-.57-.36a4.22,4.22,0,0,0-.84-.36,4.62,4.62,0,0,0-1.29-.16,3.93,3.93,0,0,0-1.59.32,3.44,3.44,0,0,0-1.24.9,4.27,4.27,0,0,0-.8,1.46,6.29,6.29,0,0,0-.28,2,6.06,6.06,0,0,0,.3,2,4.41,4.41,0,0,0,.85,1.47,3.66,3.66,0,0,0,1.25.9,3.78,3.78,0,0,0,1.54.31,6.05,6.05,0,0,0,.88,0,3.38,3.38,0,0,0,.73-.16,3.32,3.32,0,0,0,.64-.29,3.85,3.85,0,0,0,.6-.46,1,1,0,0,1,.22-.14A.48.48,0,0,1,86.12,212.16Z"/><path class="cls-5" d="M101.32,215.55H99.11a1,1,0,0,1-.6-.17,1.1,1.1,0,0,1-.35-.45l-.93-2.64H91.74l-.93,2.64a1.22,1.22,0,0,1-.34.43.87.87,0,0,1-.59.19H87.64L93,201.77H96Zm-4.79-5.23L95,206.1c-.09-.22-.18-.48-.28-.78s-.19-.62-.28-1c-.09.36-.18.69-.28,1s-.19.56-.28.78l-1.48,4.2Z"/><path class="cls-5" d="M114.4,201.77v13.78h-1.47a1.19,1.19,0,0,1-.56-.11,1.22,1.22,0,0,1-.44-.37l-6.87-8.74c0,.22,0,.44,0,.65s0,.42,0,.6v8H102.6V201.77h1.81a.88.88,0,0,1,.23.07.81.81,0,0,1,.2.14,1.69,1.69,0,0,1,.21.23L112,211c0-.24,0-.47,0-.69s0-.44,0-.65v-7.88Z"/><path class="cls-5" d="M126.68,212.16a.54.54,0,0,1,.4.17l1.13,1.21a5.3,5.3,0,0,1-2.08,1.61,7.15,7.15,0,0,1-2.95.56,7,7,0,0,1-2.78-.53,6,6,0,0,1-2.1-1.47,6.49,6.49,0,0,1-1.33-2.23,8.6,8.6,0,0,1-.24-4.78,6.81,6.81,0,0,1,.65-1.7,6.55,6.55,0,0,1,1-1.41,6.42,6.42,0,0,1,1.36-1.07,6.56,6.56,0,0,1,1.66-.67,7.87,7.87,0,0,1,1.91-.23,7.35,7.35,0,0,1,1.44.13,6.73,6.73,0,0,1,1.27.37,5.66,5.66,0,0,1,1.09.58,6.51,6.51,0,0,1,.9.73l-1,1.31a.77.77,0,0,1-.22.22.64.64,0,0,1-.36.1.79.79,0,0,1-.46-.17l-.57-.36a4,4,0,0,0-2.13-.52,3.93,3.93,0,0,0-1.59.32,3.36,3.36,0,0,0-1.24.9,4.11,4.11,0,0,0-.8,1.46,6.28,6.28,0,0,0-.29,2,5.8,5.8,0,0,0,.31,2,4.41,4.41,0,0,0,.85,1.47,3.48,3.48,0,0,0,1.25.9,3.77,3.77,0,0,0,1.53.31,5.89,5.89,0,0,0,.88,0,3.13,3.13,0,0,0,.73-.16,2.85,2.85,0,0,0,.64-.29,3.43,3.43,0,0,0,.6-.46,1.35,1.35,0,0,1,.22-.14A.54.54,0,0,1,126.68,212.16Z"/><path class="cls-5" d="M132.68,204v3.54h4.6v2.16h-4.6v3.62h5.91v2.23h-8.78V201.77h8.78V204Z"/><path class="cls-5" d="M151.71,215.55h-2.57a1.13,1.13,0,0,1-1-.55l-2.62-4.22a1.16,1.16,0,0,0-.36-.37,1.22,1.22,0,0,0-.57-.11h-1v5.25h-2.85V201.77h4.33a8.88,8.88,0,0,1,2.47.3,4.56,4.56,0,0,1,1.68.83,3.11,3.11,0,0,1,1,1.27,4.07,4.07,0,0,1,.31,1.62,4.2,4.2,0,0,1-.2,1.29,3.76,3.76,0,0,1-1.48,2,4.75,4.75,0,0,1-1.23.63,2.54,2.54,0,0,1,.51.37,2.63,2.63,0,0,1,.43.5ZM145,208.3a3.61,3.61,0,0,0,1.2-.18,2.39,2.39,0,0,0,.83-.48,2,2,0,0,0,.47-.73,2.67,2.67,0,0,0,.15-.91,1.84,1.84,0,0,0-.65-1.52,3,3,0,0,0-2-.54h-1.48v4.36Z"/><path class="cls-5" d="M169.93,208.66a7.43,7.43,0,0,1-.51,2.78,6.36,6.36,0,0,1-1.43,2.18,6.65,6.65,0,0,1-2.23,1.42,7.86,7.86,0,0,1-2.89.51h-5.3V201.77h5.3a7.86,7.86,0,0,1,2.89.51,6.52,6.52,0,0,1,2.23,1.43,6.36,6.36,0,0,1,1.43,2.18A7.34,7.34,0,0,1,169.93,208.66Zm-2.92,0a6.15,6.15,0,0,0-.29-1.95,4,4,0,0,0-.82-1.46,3.43,3.43,0,0,0-1.29-.92,4.35,4.35,0,0,0-1.74-.33h-2.43v9.32h2.43a4.54,4.54,0,0,0,1.74-.32,3.43,3.43,0,0,0,1.29-.92,4,4,0,0,0,.82-1.47A6.2,6.2,0,0,0,167,208.66Z"/><path class="cls-5" d="M174.9,204v3.54h4.6v2.16h-4.6v3.62h5.91v2.23H172V201.77h8.78V204Z"/><path class="cls-5" d="M187.59,201.77a8.07,8.07,0,0,1,2.45.33,4.5,4.5,0,0,1,1.69.93,3.58,3.58,0,0,1,1,1.41,4.88,4.88,0,0,1,.32,1.77,5.14,5.14,0,0,1-.34,1.87,3.82,3.82,0,0,1-1,1.45,4.74,4.74,0,0,1-1.7.95,7.93,7.93,0,0,1-2.41.33h-1.8v4.74h-2.85V201.77Zm0,6.86a2.61,2.61,0,0,0,2-.65,2.42,2.42,0,0,0,.63-1.77,2.75,2.75,0,0,0-.16-.93,1.86,1.86,0,0,0-.48-.72,2,2,0,0,0-.8-.46,3.59,3.59,0,0,0-1.15-.16h-1.8v4.69Z"/><path class="cls-5" d="M197.72,204v3.54h4.6v2.16h-4.6v3.62h5.91v2.23h-8.78V201.77h8.78V204Z"/><path class="cls-5" d="M217.56,201.77v13.78h-1.47a1.19,1.19,0,0,1-.56-.11,1.34,1.34,0,0,1-.45-.37l-6.86-8.74c0,.22,0,.44,0,.65s0,.42,0,.6v8h-2.51V201.77h1.8a.84.84,0,0,1,.24.07.81.81,0,0,1,.2.14,1.69,1.69,0,0,1,.21.23l6.91,8.77q0-.36-.06-.69c0-.23,0-.44,0-.65v-7.88Z"/><path class="cls-5" d="M232.81,208.66a7.43,7.43,0,0,1-.51,2.78,6.36,6.36,0,0,1-1.43,2.18,6.65,6.65,0,0,1-2.23,1.42,7.86,7.86,0,0,1-2.89.51h-5.3V201.77h5.3a7.86,7.86,0,0,1,2.89.51,6.52,6.52,0,0,1,2.23,1.43,6.36,6.36,0,0,1,1.43,2.18A7.34,7.34,0,0,1,232.81,208.66Zm-2.92,0a6.15,6.15,0,0,0-.29-1.95,4,4,0,0,0-.82-1.46,3.43,3.43,0,0,0-1.29-.92,4.35,4.35,0,0,0-1.74-.33h-2.43v9.32h2.43a4.54,4.54,0,0,0,1.74-.32,3.43,3.43,0,0,0,1.29-.92,4,4,0,0,0,.82-1.47A6.2,6.2,0,0,0,229.89,208.66Z"/><path class="cls-5" d="M237.78,204v3.54h4.6v2.16h-4.6v3.62h5.91v2.23h-8.78V201.77h8.78V204Z"/><path class="cls-5" d="M257.63,201.77v13.78h-1.48a1.19,1.19,0,0,1-.56-.11,1.22,1.22,0,0,1-.44-.37l-6.87-8.74c0,.22,0,.44,0,.65s0,.42,0,.6v8h-2.51V201.77h1.81a.88.88,0,0,1,.23.07.66.66,0,0,1,.2.14,1.69,1.69,0,0,1,.21.23l6.91,8.77c0-.24,0-.47-.05-.69s0-.44,0-.65v-7.88Z"/><path class="cls-5" d="M269.9,212.16a.54.54,0,0,1,.4.17l1.13,1.21a5.3,5.3,0,0,1-2.08,1.61,7.15,7.15,0,0,1-3,.56,7,7,0,0,1-2.78-.53,6,6,0,0,1-2.1-1.47,6.49,6.49,0,0,1-1.33-2.23,8.6,8.6,0,0,1-.24-4.78,6.81,6.81,0,0,1,.65-1.7,6.55,6.55,0,0,1,1-1.41,6.42,6.42,0,0,1,1.36-1.07,6.56,6.56,0,0,1,1.66-.67,7.87,7.87,0,0,1,1.91-.23,7.35,7.35,0,0,1,1.44.13,6.73,6.73,0,0,1,1.27.37,5.66,5.66,0,0,1,1.09.58,6.51,6.51,0,0,1,.9.73l-1,1.31a.77.77,0,0,1-.22.22.64.64,0,0,1-.36.1.79.79,0,0,1-.46-.17l-.57-.36a4,4,0,0,0-2.13-.52,3.93,3.93,0,0,0-1.59.32,3.36,3.36,0,0,0-1.24.9,4.11,4.11,0,0,0-.8,1.46,6.28,6.28,0,0,0-.29,2,5.8,5.8,0,0,0,.31,2,4.41,4.41,0,0,0,.85,1.47,3.48,3.48,0,0,0,1.25.9,3.77,3.77,0,0,0,1.53.31,5.89,5.89,0,0,0,.88,0,3.13,3.13,0,0,0,.73-.16,2.85,2.85,0,0,0,.64-.29,3.43,3.43,0,0,0,.6-.46,1.35,1.35,0,0,1,.22-.14A.54.54,0,0,1,269.9,212.16Z"/><path class="cls-5" d="M279.27,210.25v5.3h-2.85v-5.3l-5-8.48h2.51a.92.92,0,0,1,.59.18,1.16,1.16,0,0,1,.36.45l2.26,4.34c.15.29.29.56.41.81s.23.51.33.76c.09-.25.19-.5.31-.76s.25-.53.39-.81l2.24-4.34a1.28,1.28,0,0,1,.35-.43.88.88,0,0,1,.59-.2h2.52Z"/><path class="cls-5" d="M304.46,201.77v13.78h-2.52v-8.46c0-.18,0-.37,0-.57s0-.41.05-.62l-3.94,7.48a1.07,1.07,0,0,1-1,.62h-.4a1.08,1.08,0,0,1-1-.62l-4-7.51c0,.22,0,.44.05.64s0,.4,0,.58v8.46h-2.52V201.77h2.49a.66.66,0,0,1,.25.05.63.63,0,0,1,.2.13,1.17,1.17,0,0,1,.18.26l3.85,7.35c.12.22.24.45.34.68l.3.72c.09-.25.19-.5.3-.74a7.37,7.37,0,0,1,.34-.69l3.82-7.32a.92.92,0,0,1,.19-.26.63.63,0,0,1,.2-.13.62.62,0,0,1,.25-.05h2.49Z"/><path class="cls-5" d="M319.4,215.55h-2.21a1,1,0,0,1-.6-.17,1.1,1.1,0,0,1-.35-.45l-.93-2.64h-5.49l-.93,2.64a1.22,1.22,0,0,1-.34.43.87.87,0,0,1-.59.19h-2.24l5.39-13.78H314Zm-4.79-5.23-1.49-4.22c-.09-.22-.18-.48-.28-.78s-.19-.62-.28-1c-.09.36-.18.69-.28,1s-.19.56-.28.78l-1.48,4.2Z"/><path class="cls-5" d="M325.33,201.77a8.12,8.12,0,0,1,2.45.33,4.58,4.58,0,0,1,1.69.93,3.58,3.58,0,0,1,1,1.41,4.88,4.88,0,0,1,.31,1.77,5.14,5.14,0,0,1-.33,1.87,3.93,3.93,0,0,1-1,1.45,4.78,4.78,0,0,1-1.71.95,7.82,7.82,0,0,1-2.4.33h-1.8v4.74h-2.85V201.77Zm0,6.86a2.61,2.61,0,0,0,2-.65,2.42,2.42,0,0,0,.62-1.77,2.75,2.75,0,0,0-.15-.93,1.86,1.86,0,0,0-.48-.72,2,2,0,0,0-.8-.46,3.59,3.59,0,0,0-1.15-.16h-1.8v4.69Z"/><path class="cls-5" d="M273.25,270.86a5.47,5.47,0,0,1,1.66.22,3.14,3.14,0,0,1,1.16.62,2.5,2.5,0,0,1,.69,1A3.51,3.51,0,0,1,277,274a3.11,3.11,0,0,1-.25,1.28,2.77,2.77,0,0,1-.71,1,3.48,3.48,0,0,1-1.17.65,5,5,0,0,1-1.61.23h-1.61v3.76h-1.35v-10Zm0,5.2a3,3,0,0,0,1-.16,2,2,0,0,0,.74-.43,1.61,1.61,0,0,0,.46-.66,2.15,2.15,0,0,0,.16-.85,1.92,1.92,0,0,0-.59-1.49,2.62,2.62,0,0,0-1.8-.54h-1.61v4.13Z"/><path class="cls-5" d="M278,274.8a4.06,4.06,0,0,1,1.26-.85,3.9,3.9,0,0,1,1.51-.28,2.66,2.66,0,0,1,1.05.2,2.18,2.18,0,0,1,.78.54,2.44,2.44,0,0,1,.48.85,3.42,3.42,0,0,1,.16,1.09v4.54h-.55a.51.51,0,0,1-.28-.06.41.41,0,0,1-.16-.24l-.14-.67a7,7,0,0,1-.54.46,3.57,3.57,0,0,1-.56.33,2.34,2.34,0,0,1-.63.21,3.36,3.36,0,0,1-.74.08,2.54,2.54,0,0,1-.78-.12,1.63,1.63,0,0,1-1.06-.93,2.09,2.09,0,0,1-.15-.83,1.51,1.51,0,0,1,.23-.81,2,2,0,0,1,.75-.69,4.85,4.85,0,0,1,1.35-.5,11,11,0,0,1,2-.22v-.55a1.88,1.88,0,0,0-.36-1.25,1.27,1.27,0,0,0-1-.42,2.41,2.41,0,0,0-.77.11,3.41,3.41,0,0,0-.54.26l-.39.26a.56.56,0,0,1-.33.12.41.41,0,0,1-.22-.07.57.57,0,0,1-.15-.16Zm4,2.89a11.14,11.14,0,0,0-1.47.14,4.32,4.32,0,0,0-1,.28,1.42,1.42,0,0,0-.56.42.9.9,0,0,0-.17.53,1.14,1.14,0,0,0,.09.48.85.85,0,0,0,.25.33,1,1,0,0,0,.37.19,1.76,1.76,0,0,0,.46.06,2.77,2.77,0,0,0,.6-.06,2.16,2.16,0,0,0,.52-.2,2.59,2.59,0,0,0,.46-.3,3.19,3.19,0,0,0,.43-.4Z"/><path class="cls-5" d="M291.72,280.89h-1.25v-6.05h-3.65v4.25a.93.93,0,0,0,.21.67.79.79,0,0,0,.56.22.86.86,0,0,0,.34-.06,1.17,1.17,0,0,0,.25-.11l.18-.12a.27.27,0,0,1,.13-.05.21.21,0,0,1,.17.12l.37.59a2.38,2.38,0,0,1-.78.48,2.7,2.7,0,0,1-.94.17,1.71,1.71,0,0,1-1.29-.47,1.87,1.87,0,0,1-.45-1.35v-4.34h-.85a.26.26,0,0,1-.27-.27v-.5l1.16-.16.29-2.18a.26.26,0,0,1,.09-.17.27.27,0,0,1,.2-.07h.63v2.45h4.9Zm.3-9.37a.8.8,0,0,1-.07.34.9.9,0,0,1-.2.28.92.92,0,0,1-.28.19,1,1,0,0,1-.34.07.94.94,0,0,1-.34-.07.92.92,0,0,1-.28-.19,1.07,1.07,0,0,1-.19-.28,1,1,0,0,1-.07-.34,1,1,0,0,1,.07-.35.92.92,0,0,1,.19-.28,1,1,0,0,1,.28-.2.94.94,0,0,1,.34-.07,1,1,0,0,1,.34.07,1,1,0,0,1,.28.2.8.8,0,0,1,.2.28A.84.84,0,0,1,292,271.52Z"/><path class="cls-5" d="M299.51,279.89a2.17,2.17,0,0,1-.55.49,3.17,3.17,0,0,1-.69.34,4.71,4.71,0,0,1-.76.2,5.12,5.12,0,0,1-.78.06,3.68,3.68,0,0,1-1.35-.24,3,3,0,0,1-1.07-.73,3.26,3.26,0,0,1-.7-1.19,4.75,4.75,0,0,1-.26-1.62,4.18,4.18,0,0,1,.23-1.39,3.09,3.09,0,0,1,.66-1.11,2.93,2.93,0,0,1,1-.75,3.4,3.4,0,0,1,1.38-.27,3,3,0,0,1,1.18.22,2.51,2.51,0,0,1,.94.61,2.74,2.74,0,0,1,.62,1,3.73,3.73,0,0,1,.23,1.34.86.86,0,0,1-.07.4.27.27,0,0,1-.24.09h-4.73a4,4,0,0,0,.18,1.17,2.29,2.29,0,0,0,.46.83,1.92,1.92,0,0,0,.7.5,2.38,2.38,0,0,0,.91.16,2.8,2.8,0,0,0,.81-.1,4.07,4.07,0,0,0,.58-.24,3.54,3.54,0,0,0,.41-.23.5.5,0,0,1,.29-.11.26.26,0,0,1,.23.12Zm-1-3.32a2.28,2.28,0,0,0-.13-.8,1.88,1.88,0,0,0-.35-.62,1.81,1.81,0,0,0-.57-.41,2.07,2.07,0,0,0-.77-.14,1.89,1.89,0,0,0-1.41.52,2.42,2.42,0,0,0-.65,1.45Z"/><path class="cls-5" d="M302.33,274.83a3.61,3.61,0,0,1,.49-.47,3.53,3.53,0,0,1,.55-.37,2.76,2.76,0,0,1,1.32-.31,2.51,2.51,0,0,1,1,.2,1.85,1.85,0,0,1,.74.54,2.57,2.57,0,0,1,.46.85,3.8,3.8,0,0,1,.15,1.1v4.52h-1.25v-4.52a1.88,1.88,0,0,0-.37-1.25,1.4,1.4,0,0,0-1.12-.44,2.16,2.16,0,0,0-1,.26,3.48,3.48,0,0,0-.88.72v5.23h-1.26V273.8h.75a.3.3,0,0,1,.33.25Z"/><path class="cls-5" d="M311,281a1.71,1.71,0,0,1-1.29-.47,1.87,1.87,0,0,1-.45-1.35v-4.34h-.85a.26.26,0,0,1-.27-.27v-.5l1.16-.15.29-2.19a.31.31,0,0,1,.09-.17.27.27,0,0,1,.2-.07h.63v2.45h2.05v.9h-2.05v4.25a.93.93,0,0,0,.21.67.79.79,0,0,0,.56.22.86.86,0,0,0,.34-.06,1.17,1.17,0,0,0,.25-.11l.18-.12a.27.27,0,0,1,.13-.05.21.21,0,0,1,.17.12l.37.59a2.38,2.38,0,0,1-.78.48A2.7,2.7,0,0,1,311,281Z"/><path class="cls-5" d="M257.23,290a.26.26,0,0,1-.26.16.52.52,0,0,1-.24-.08l-.32-.17a3,3,0,0,0-.46-.17,2,2,0,0,0-.63-.09,1.7,1.7,0,0,0-.57.09,1.25,1.25,0,0,0-.43.22.91.91,0,0,0-.27.32.93.93,0,0,0-.09.4.69.69,0,0,0,.15.46,1.35,1.35,0,0,0,.42.31,3.62,3.62,0,0,0,.59.24l.67.22c.23.07.46.16.68.25a2.49,2.49,0,0,1,.59.35,1.5,1.5,0,0,1,.41.52,1.49,1.49,0,0,1,.16.73,2.4,2.4,0,0,1-.17.9,2,2,0,0,1-.52.72,2.31,2.31,0,0,1-.84.48A3.39,3.39,0,0,1,255,296a3.56,3.56,0,0,1-1.34-.24,3.36,3.36,0,0,1-1-.62l.3-.48a.44.44,0,0,1,.13-.14.39.39,0,0,1,.2,0,.5.5,0,0,1,.26.1l.34.22a2.25,2.25,0,0,0,.49.21,2.09,2.09,0,0,0,.71.1,2,2,0,0,0,.64-.09,1.24,1.24,0,0,0,.45-.26.81.81,0,0,0,.27-.37,1.13,1.13,0,0,0,.09-.45.71.71,0,0,0-.16-.48,1.24,1.24,0,0,0-.41-.33,3.62,3.62,0,0,0-.59-.24l-.68-.21c-.23-.08-.46-.16-.68-.26a2.08,2.08,0,0,1-.59-.36,1.57,1.57,0,0,1-.42-.53,1.87,1.87,0,0,1-.16-.78,1.92,1.92,0,0,1,.17-.78,2,2,0,0,1,.49-.66,2.43,2.43,0,0,1,.79-.45,3.2,3.2,0,0,1,1.07-.17,3.54,3.54,0,0,1,1.26.22,3,3,0,0,1,1,.61Z"/><path class="cls-5" d="M261.34,296a1.71,1.71,0,0,1-1.29-.47,1.87,1.87,0,0,1-.45-1.35v-4.34h-.86a.28.28,0,0,1-.19-.07.24.24,0,0,1-.07-.2v-.5l1.16-.15.29-2.19a.26.26,0,0,1,.09-.17.25.25,0,0,1,.19-.07h.63v2.45h2.05v.9h-2.05v4.25a.93.93,0,0,0,.22.67.77.77,0,0,0,.56.22.9.9,0,0,0,.34-.06,1.17,1.17,0,0,0,.25-.11l.18-.12a.27.27,0,0,1,.13-.05.21.21,0,0,1,.17.12l.37.59a2.38,2.38,0,0,1-.78.48A2.74,2.74,0,0,1,261.34,296Z"/><path class="cls-5" d="M265.37,290.22a3,3,0,0,1,.82-1.14,1.84,1.84,0,0,1,1.2-.41,2,2,0,0,1,.43.05,1.11,1.11,0,0,1,.37.15l-.09.93a.2.2,0,0,1-.21.18l-.29,0a1.86,1.86,0,0,0-1,.05,1.75,1.75,0,0,0-.47.29,2.34,2.34,0,0,0-.37.48,3.26,3.26,0,0,0-.29.65v4.48h-1.26V288.8h.72a.41.41,0,0,1,.28.07.49.49,0,0,1,.1.27Z"/><path class="cls-5" d="M269,289.8a4.22,4.22,0,0,1,1.27-.85,3.87,3.87,0,0,1,1.51-.28,2.66,2.66,0,0,1,1.05.2,2.18,2.18,0,0,1,.78.54,2.44,2.44,0,0,1,.48.85,3.72,3.72,0,0,1,.16,1.09v4.54h-.56a.55.55,0,0,1-.28-.06.45.45,0,0,1-.15-.24l-.14-.67a7.06,7.06,0,0,1-.55.46,2.84,2.84,0,0,1-.56.33,2.16,2.16,0,0,1-.62.21,3.36,3.36,0,0,1-.74.08,2.5,2.5,0,0,1-.78-.12,1.63,1.63,0,0,1-1.06-.93,2.08,2.08,0,0,1-.16-.83,1.61,1.61,0,0,1,.23-.81,2.11,2.11,0,0,1,.75-.69,5.05,5.05,0,0,1,1.36-.5,11,11,0,0,1,2-.22v-.55a1.88,1.88,0,0,0-.36-1.25,1.29,1.29,0,0,0-1-.42,2.37,2.37,0,0,0-.77.11,3.41,3.41,0,0,0-.54.26l-.4.26a.51.51,0,0,1-.32.12.41.41,0,0,1-.22-.07.57.57,0,0,1-.15-.16Zm4,2.89a11.14,11.14,0,0,0-1.47.14,4.32,4.32,0,0,0-1,.28,1.42,1.42,0,0,0-.56.42.9.9,0,0,0-.17.53,1.14,1.14,0,0,0,.09.48.85.85,0,0,0,.25.33,1,1,0,0,0,.37.19,1.7,1.7,0,0,0,.46.06,2.77,2.77,0,0,0,.6-.06,2.33,2.33,0,0,0,.52-.2,2.59,2.59,0,0,0,.46-.3,3.19,3.19,0,0,0,.43-.4Z"/><path class="cls-5" d="M282.7,295.89h-1.24v-6.05H277.8v4.25a.93.93,0,0,0,.22.67.79.79,0,0,0,.56.22.9.9,0,0,0,.34-.06,1.17,1.17,0,0,0,.25-.11l.18-.12a.27.27,0,0,1,.13-.05.21.21,0,0,1,.17.12l.37.59a2.38,2.38,0,0,1-.78.48,2.74,2.74,0,0,1-.94.17,1.71,1.71,0,0,1-1.29-.47,1.87,1.87,0,0,1-.45-1.35v-4.34h-.86a.24.24,0,0,1-.18-.07.22.22,0,0,1-.08-.2v-.5l1.16-.16.29-2.18a.26.26,0,0,1,.09-.17.26.26,0,0,1,.19-.07h.63v2.45h4.9Zm.31-9.37a.8.8,0,0,1-.07.34,1.1,1.1,0,0,1-.2.28.92.92,0,0,1-.28.19,1,1,0,0,1-.34.07.89.89,0,0,1-.34-.07.92.92,0,0,1-.28-.19,1.07,1.07,0,0,1-.19-.28.8.8,0,0,1-.07-.34.84.84,0,0,1,.07-.35.92.92,0,0,1,.19-.28,1,1,0,0,1,.28-.2.89.89,0,0,1,.34-.07,1,1,0,0,1,.34.07,1,1,0,0,1,.48.48A.84.84,0,0,1,283,286.52Z"/><path class="cls-5" d="M285.22,295.89v-6l-.78-.09a.82.82,0,0,1-.25-.11.26.26,0,0,1-.09-.21v-.51h1.12v-.4a3.27,3.27,0,0,1,.21-1.19,2.43,2.43,0,0,1,.61-.93,2.56,2.56,0,0,1,1-.61,4,4,0,0,1,1.4-.22l.55,0a2.63,2.63,0,0,1,.48.11l-.05.65a.11.11,0,0,1-.05.1.21.21,0,0,1-.12,0h-.46a2.61,2.61,0,0,0-1.8.52,2,2,0,0,0-.56,1.55v.36h4.28v6.95h-1.25v-6.05h-3v6.05Z"/><path class="cls-5" d="M297.7,290.06a.56.56,0,0,1-.11.11.25.25,0,0,1-.16.05.42.42,0,0,1-.23-.09,3.54,3.54,0,0,0-.31-.19,2.74,2.74,0,0,0-.45-.2,2.56,2.56,0,0,0-.67-.08,2.22,2.22,0,0,0-.92.18,1.76,1.76,0,0,0-.67.54,2.53,2.53,0,0,0-.41.84,4.36,4.36,0,0,0-.13,1.12,3.94,3.94,0,0,0,.15,1.14,2.2,2.2,0,0,0,.41.84,1.81,1.81,0,0,0,.65.52,2,2,0,0,0,.86.18,2.28,2.28,0,0,0,.75-.11,2,2,0,0,0,.49-.24l.32-.24a.35.35,0,0,1,.25-.11.26.26,0,0,1,.24.12l.35.45a2.41,2.41,0,0,1-.52.49,3,3,0,0,1-.64.34,3.23,3.23,0,0,1-.71.2,4.65,4.65,0,0,1-.75.06,3.15,3.15,0,0,1-1.24-.24,2.78,2.78,0,0,1-1-.71,3.31,3.31,0,0,1-.66-1.15,4.57,4.57,0,0,1-.24-1.54,4.62,4.62,0,0,1,.23-1.47,3.23,3.23,0,0,1,.64-1.15,2.83,2.83,0,0,1,1-.76,3.77,3.77,0,0,1,2.75,0,3.3,3.3,0,0,1,1,.69Z"/><path class="cls-5" d="M299.27,289.8a4.06,4.06,0,0,1,1.26-.85,3.9,3.9,0,0,1,1.51-.28,2.71,2.71,0,0,1,1.06.2,2.23,2.23,0,0,1,.77.54,2.44,2.44,0,0,1,.48.85,3.42,3.42,0,0,1,.16,1.09v4.54H304a.53.53,0,0,1-.28-.06.41.41,0,0,1-.16-.24l-.14-.67a7,7,0,0,1-.54.46,3.57,3.57,0,0,1-.56.33,2.34,2.34,0,0,1-.63.21,3.36,3.36,0,0,1-.74.08,2.54,2.54,0,0,1-.78-.12,1.63,1.63,0,0,1-1.06-.93,2.09,2.09,0,0,1-.15-.83,1.51,1.51,0,0,1,.23-.81,2,2,0,0,1,.75-.69,4.85,4.85,0,0,1,1.35-.5,11,11,0,0,1,2-.22v-.55a1.88,1.88,0,0,0-.36-1.25,1.27,1.27,0,0,0-1-.42,2.41,2.41,0,0,0-.77.11,3.41,3.41,0,0,0-.54.26l-.39.26a.56.56,0,0,1-.33.12.41.41,0,0,1-.22-.07.57.57,0,0,1-.15-.16Zm4,2.89a11.14,11.14,0,0,0-1.47.14,4.32,4.32,0,0,0-1,.28,1.42,1.42,0,0,0-.56.42.9.9,0,0,0-.17.53,1.14,1.14,0,0,0,.09.48,1,1,0,0,0,.25.33,1,1,0,0,0,.37.19,1.76,1.76,0,0,0,.46.06,2.77,2.77,0,0,0,.6-.06,2.16,2.16,0,0,0,.52-.2,2.59,2.59,0,0,0,.46-.3,3.19,3.19,0,0,0,.43-.4Z"/><path class="cls-5" d="M313,295.89h-1.25v-6.05h-3.65v4.25a.93.93,0,0,0,.21.67.79.79,0,0,0,.56.22.86.86,0,0,0,.34-.06,1.17,1.17,0,0,0,.25-.11l.18-.12a.27.27,0,0,1,.13-.05.21.21,0,0,1,.17.12l.37.59a2.38,2.38,0,0,1-.78.48,2.7,2.7,0,0,1-.94.17,1.71,1.71,0,0,1-1.29-.47,1.87,1.87,0,0,1-.45-1.35v-4.34H306a.26.26,0,0,1-.27-.27v-.5l1.16-.16.29-2.18a.31.31,0,0,1,.09-.17.27.27,0,0,1,.2-.07h.63v2.45H313Zm.3-9.37a.8.8,0,0,1-.07.34.9.9,0,0,1-.2.28.92.92,0,0,1-.28.19,1,1,0,0,1-.34.07.94.94,0,0,1-.34-.07.92.92,0,0,1-.28-.19,1.07,1.07,0,0,1-.19-.28,1,1,0,0,1-.07-.34,1,1,0,0,1,.07-.35.92.92,0,0,1,.19-.28,1,1,0,0,1,.28-.2.94.94,0,0,1,.34-.07,1,1,0,0,1,.34.07,1,1,0,0,1,.28.2.8.8,0,0,1,.2.28A.84.84,0,0,1,313.29,286.52Z"/><path class="cls-5" d="M318,288.68a3.68,3.68,0,0,1,1.4.26,3.07,3.07,0,0,1,1.06.74,3.14,3.14,0,0,1,.68,1.15,5.07,5.07,0,0,1,0,3,3.22,3.22,0,0,1-.68,1.15,2.92,2.92,0,0,1-1.06.73,3.68,3.68,0,0,1-1.4.25,3.73,3.73,0,0,1-1.41-.25,3,3,0,0,1-1.07-.73,3.2,3.2,0,0,1-.67-1.15,4.87,4.87,0,0,1,0-3,3,3,0,0,1,1.74-1.89A3.73,3.73,0,0,1,318,288.68Zm0,6.33a1.83,1.83,0,0,0,1.57-.7,4.06,4.06,0,0,0,0-3.94,1.83,1.83,0,0,0-1.57-.71,2.09,2.09,0,0,0-.93.19,1.76,1.76,0,0,0-.66.52,2.51,2.51,0,0,0-.39.84,4.87,4.87,0,0,0-.13,1.13,3.32,3.32,0,0,0,.52,2A1.85,1.85,0,0,0,318,295Z"/><path class="cls-5" d="M324.14,289.83a4.3,4.3,0,0,1,.49-.47,4.81,4.81,0,0,1,.55-.37,3.29,3.29,0,0,1,.62-.23,3.13,3.13,0,0,1,.7-.08,2.56,2.56,0,0,1,1,.2,2,2,0,0,1,.74.54,2.39,2.39,0,0,1,.45.85,3.79,3.79,0,0,1,.16,1.1v4.52h-1.26v-4.52a1.94,1.94,0,0,0-.36-1.25,1.4,1.4,0,0,0-1.12-.44,2.16,2.16,0,0,0-1,.26,3.52,3.52,0,0,0-.89.72v5.23H323V288.8h.75a.31.31,0,0,1,.33.25Z"/><path class="cls-6" d="M269.3,262.13c0-21.44,1.19-32.86,1.4-32.86s.74,7.4,1,7.4.63-4.12.84-4.12.22,12.25.43,12.25.64-2.79.85-2.79.21,5,.42,5,.21-3.23.43-3.23.63-7.74.85-7.74.21,21.57.42,21.57.64,2.66.85,2.66.21-3,.42-3,.22-12.7.43-12.7.21,5.92.42,5.92,1.06-2.28,1.28-2.28.21,7.93.42,7.93.21-14.58.42-14.58.22,18.5.43,18.5.64,1.56.85,1.56.43-11.28.64-11.28.63,11,.85,11,.21.17.42.17.21-19.45.43-19.45.63-3.41.85-3.41.21-4.84.42-4.84.64,25.37.85,25.37.74-17.43.95-17.43,1,15.43,1.17,15.43.64-19.37.85-19.37,1.91,22,2.12,22,.21-25.47.42-25.47.64,16.28.85,16.28.22-.45.43-.45.21,6.27.42,6.27.21,5.45.43,5.45,1.06-22.53,1.27-22.53S295,258,295.21,258s.22,1.44.43,1.44.21.16.42.16.22-.57.43-.57.21-8.54.42-8.54,1.7,11.29,1.92,11.29.63-19.52.84-19.52.22,16.06.43,16.06.21-8.61.42-8.61.22,2.14.43,2.14.21-15.46.42-15.46.21,25.26.43,25.26.63-3.78.85-3.78.21,1.4.42,1.4.21,4,.42,4,.22-3.06.43-3.06.21-11.58.42-11.58.22,13.78.43,13.78.85.35,1.06.35.21-11.18.43-11.18.21,8,.42,8,.21.55.43.55.21-16.14.42-16.14.21,15.13.43,15.13.21-.79.42-.79.21,3.33.42,3.33.22-2,.43-2,.37-1.12.42-1.33c.56-2.21.1-6.77.43-7.78.46-1.44.64,7.21.65,7.43a19.06,19.06,0,0,0,1.15,3.24"/><path class="cls-7" d="M291.18,239.09c.87-.83,12.29,4.63,11.65,5.9-1.44,2.88-6.93,10-8.92,10.95-3.94,1.91-9.3.24-10.27-4.43C283.06,248.67,282.08,247.8,291.18,239.09Z"/><rect class="cls-8" x="282.23" y="236.55" width="28.84" height="11.96" rx="5.21" ry="5.21" transform="translate(-82.62 297.06) rotate(-47.45)"/><path class="cls-9" d="M307.12,240c0,.61-2.17,2.37-2.57,2.8-.74.8-1.65,2.29-2.59,2.82s-1.74.16-2.82,0a5.33,5.33,0,0,1-2.12-.67,5.16,5.16,0,0,1-1-.9,25.72,25.72,0,0,1-1.78-2.24c-.65-.91-1.72-2.47-1.45-3.67.23-1,1.6-2,2.29-2.71l3.2-3.48a5.47,5.47,0,0,1,7.72-.33l.76.7A5.47,5.47,0,0,1,307.12,240Z"/><path class="cls-10" d="M304.15,231.89a5.83,5.83,0,0,0-4.32,2c-.27.34-1.9,2.15-2.2,1.07-.14-.53.84-1.39,1.18-1.71a7.21,7.21,0,0,1,1.75-1.26,4.67,4.67,0,0,1,1.93-.52,2.93,2.93,0,0,1,1,.1C303.72,231.68,303.92,231.89,304.15,231.89Z"/><path class="cls-5" d="M292.58,238.5a6.38,6.38,0,0,0,1.26,2.76,12.19,12.19,0,0,0,2.05,2.25,15.12,15.12,0,0,0,2.5,1.6,9.44,9.44,0,0,0,2.82,1v.1A4.74,4.74,0,0,1,298,246a7.67,7.67,0,0,1-2.63-1.93,12.79,12.79,0,0,1-1.92-2.56,6.68,6.68,0,0,1-.94-3Z"/><path class="cls-11" d="M307.32,239.82c-4.07,4.48-7.89,9.19-11.94,13.68a5.72,5.72,0,0,1-6.77,1.53,6.79,6.79,0,0,1-1.95-1.43,8,8,0,0,1-1.59-1.77,5.52,5.52,0,0,1-.81-2.31,5.67,5.67,0,0,1,1.47-4.52l12.39-13.28a5.46,5.46,0,0,1,6.42-1.36,6.49,6.49,0,0,1,1.84,1.38,7.76,7.76,0,0,1,1.53,1.7,5.35,5.35,0,0,1-.59,6.38Zm-.07-.06a5.24,5.24,0,0,0,1.31-4.16,5,5,0,0,0-.78-2.08,7.62,7.62,0,0,0-1.54-1.62,5.31,5.31,0,0,0-4-1.7,5,5,0,0,0-3.79,1.86l-12.17,13.48a4.79,4.79,0,0,0-1.17,3.86,4.74,4.74,0,0,0,.71,1.93,7.84,7.84,0,0,0,1.47,1.54A5.73,5.73,0,0,0,289,254.1a4.81,4.81,0,0,0,2,.41,4.74,4.74,0,0,0,3.62-1.68C298.77,248.4,303.14,244.19,307.25,239.76Z"/><path class="cls-12" d="M128.69,231.88c-2.62-3.4-8.58-3.26-13.28.36-3.92,3-9.06,12.43-2.52,20.95,3.62,4.7,9.65,6.13,13.47,3.19,3.29-2.53,3.86-7.45,1.68-11.76a3.65,3.65,0,0,1,.24-3.6C130.26,237.86,130.55,234.3,128.69,231.88Z"/><path class="cls-13" d="M130.31,236.37s-4.13,1.52-5.67,1c-2.41-.79-9.42-4.34-12-5.55s-4.12-1-5.54.56c-3.19,3.49,3.89,1.6,7.2,3,1.66.72,7.68,3,6.68,5.31-.3.68-1.56,1.15-1.56,1.15s-9.21,2.41-13.28,9.85"/><path class="cls-14" d="M105.42,263.86s.14.19,3.22-4.48c.45-.69-.78-5.59-.78-5.59,4.61-7.1,9.24-9,13.28-9.85,0,0,4.65,2.61,5.64,2.29a26.76,26.76,0,0,0,6-2.66"/><path class="cls-14" d="M106.83,265.76s.19.25,4.8-6.88,9.25-9,13.29-9.85a30,30,0,0,0,9.26-3.55"/><g class="cls-15"><g class="cls-16"><path class="cls-17" d="M398.73-7.44a198.4,198.4,0,0,1-2.41,20.19,174.32,174.32,0,0,1-4.76,19.92,169.4,169.4,0,0,1-16.14,36.89,193.32,193.32,0,0,1-22.36,30.67,276.53,276.53,0,0,1-24.95,24.65c-8.44,7.4-16.88,14.12-25,20.48s-16,12.37-23,18.25-13.25,11.62-17.62,16.91a45.39,45.39,0,0,0-5.08,7.35,23,23,0,0,0-2.44,6.51H204.83a73.2,73.2,0,0,1,2.67-23.45,93.32,93.32,0,0,1,8.32-20,142.25,142.25,0,0,1,10.47-16.17c3.62-4.9,7.31-9.43,11-13.71,7.31-8.56,14.52-16.27,21.32-23.75s13.23-14.67,19-21.82c11.59-14.27,20.58-28.41,25.46-42.14A85.74,85.74,0,0,0,307.77,13a88,88,0,0,0,.46-10.14c-.07-3.41-.32-6.83-.72-10.28Z"/></g><g class="cls-16"><polygon class="cls-18" points="255.56 -7.25 229.92 194.47 177.14 194.28 152.99 -7.63 255.56 -7.25"/></g><g class="cls-16"><path class="cls-19" d="M99.89-7.44C99.5-4,99.25-.57,99.18,2.84A88,88,0,0,0,99.64,13a84.78,84.78,0,0,0,4.72,20.35c4.88,13.73,13.87,27.87,25.46,42.14,5.79,7.15,12.22,14.35,19,21.82s14,15.19,21.32,23.75c3.65,4.28,7.34,8.81,11,13.71a142.25,142.25,0,0,1,10.47,16.17,93.3,93.3,0,0,1,8.31,20,72.92,72.92,0,0,1,2.68,23.45H152.46a23,23,0,0,0-2.44-6.51,45.51,45.51,0,0,0-5.09-7.35c-4.36-5.29-10.59-11.07-17.61-16.91s-14.89-11.89-23-18.25-16.57-13.08-25-20.48a273.94,273.94,0,0,1-24.95-24.65A193.32,193.32,0,0,1,32,69.56,169.4,169.4,0,0,1,15.85,32.67a172.23,172.23,0,0,1-4.76-19.92A195.61,195.61,0,0,1,8.68-7.44Z"/></g></g><path class="cls-5" d="M7.17,23.24h4V28a6.39,6.39,0,0,1-1.9.95,7.29,7.29,0,0,1-2.12.3,7.33,7.33,0,0,1-2.59-.44,5.84,5.84,0,0,1-2-1.24,5.58,5.58,0,0,1-1.27-1.88,6.14,6.14,0,0,1-.45-2.37A6.65,6.65,0,0,1,1.27,21a5.41,5.41,0,0,1,1.22-1.87,5.58,5.58,0,0,1,1.92-1.22,6.72,6.72,0,0,1,2.51-.44,8.2,8.2,0,0,1,1.35.11,7.4,7.4,0,0,1,1.15.32,5.5,5.5,0,0,1,1,.49,5.44,5.44,0,0,1,.8.61L10.49,20a.63.63,0,0,1-.41.31.81.81,0,0,1-.56-.13L9,19.89a4.54,4.54,0,0,0-.59-.24,4,4,0,0,0-.68-.16,5.17,5.17,0,0,0-.84-.06,3.85,3.85,0,0,0-1.47.28,3.17,3.17,0,0,0-1.11.79,3.53,3.53,0,0,0-.71,1.24,4.77,4.77,0,0,0-.25,1.61,5,5,0,0,0,.27,1.71,3.56,3.56,0,0,0,.77,1.28,3.35,3.35,0,0,0,1.19.79,4.18,4.18,0,0,0,1.54.27,4.1,4.1,0,0,0,1-.12A4.85,4.85,0,0,0,9,27V25H7.67a.49.49,0,0,1-.37-.13.44.44,0,0,1-.13-.31Z"/><path class="cls-5" d="M14.48,25.37a2.64,2.64,0,0,0,.66,1.7,2,2,0,0,0,1.45.53,2.4,2.4,0,0,0,.79-.11,3.49,3.49,0,0,0,.58-.24l.46-.24a.85.85,0,0,1,.4-.1.47.47,0,0,1,.4.19l.64.8a3.3,3.3,0,0,1-.78.67,4.22,4.22,0,0,1-.88.43,4.9,4.9,0,0,1-.92.21,6.77,6.77,0,0,1-.89.06A4.43,4.43,0,0,1,14.78,29a3.68,3.68,0,0,1-1.31-.84,3.87,3.87,0,0,1-.87-1.38,5.13,5.13,0,0,1-.32-1.91,4.66,4.66,0,0,1,.27-1.59,3.89,3.89,0,0,1,.8-1.29,3.81,3.81,0,0,1,1.26-.88,4.3,4.3,0,0,1,1.68-.32,4,4,0,0,1,1.46.25,3.22,3.22,0,0,1,1.91,1.91,4.67,4.67,0,0,1,.26,1.6,2.49,2.49,0,0,1,0,.41.73.73,0,0,1-.08.25.27.27,0,0,1-.15.13.62.62,0,0,1-.25,0ZM18,24.06a2.39,2.39,0,0,0-.09-.66,1.55,1.55,0,0,0-.3-.55,1.36,1.36,0,0,0-.5-.38,1.79,1.79,0,0,0-.73-.14,1.67,1.67,0,0,0-1.24.45,2.25,2.25,0,0,0-.58,1.28Z"/><path class="cls-5" d="M23.34,21.87a4.11,4.11,0,0,1,.51-.44,3.36,3.36,0,0,1,.57-.35,3.31,3.31,0,0,1,.65-.22,3.06,3.06,0,0,1,.76-.08A2.81,2.81,0,0,1,27,21a2.38,2.38,0,0,1,.88.65,2.85,2.85,0,0,1,.53,1,4.17,4.17,0,0,1,.18,1.26v5.24h-2.2V23.91a1.6,1.6,0,0,0-.32-1.06,1.15,1.15,0,0,0-.94-.39,2,2,0,0,0-.87.2,3,3,0,0,0-.78.57v5.92H21.29V20.91h1.36a.52.52,0,0,1,.55.38Z"/><path class="cls-5" d="M32.12,25.37a2.64,2.64,0,0,0,.66,1.7,2,2,0,0,0,1.46.53,2.3,2.3,0,0,0,.78-.11,3.62,3.62,0,0,0,.59-.24l.45-.24a.88.88,0,0,1,.41-.1.47.47,0,0,1,.4.19l.64.8a3.75,3.75,0,0,1-.78.67,4.22,4.22,0,0,1-.88.43,4.9,4.9,0,0,1-.92.21,7,7,0,0,1-.89.06A4.52,4.52,0,0,1,32.42,29a3.73,3.73,0,0,1-1.3-.84,4,4,0,0,1-.88-1.38,5.35,5.35,0,0,1-.32-1.91,4.66,4.66,0,0,1,.28-1.59,3.79,3.79,0,0,1,2.06-2.17,4.3,4.3,0,0,1,1.68-.32A4.07,4.07,0,0,1,35.4,21a3.19,3.19,0,0,1,1.15.73,3.32,3.32,0,0,1,.75,1.18,4.44,4.44,0,0,1,.27,1.6c0,.16,0,.3,0,.41a.73.73,0,0,1-.08.25.27.27,0,0,1-.15.13.62.62,0,0,1-.25,0Zm3.48-1.31a2.39,2.39,0,0,0-.1-.66,1.39,1.39,0,0,0-.29-.55,1.36,1.36,0,0,0-.5-.38,1.79,1.79,0,0,0-.73-.14,1.67,1.67,0,0,0-1.24.45,2.25,2.25,0,0,0-.58,1.28Z"/><path class="cls-5" d="M47.44,29.15h-2.2V22.49H41.59v4.3a.86.86,0,0,0,.16.55.59.59,0,0,0,.47.2.7.7,0,0,0,.27,0,.68.68,0,0,0,.19-.08l.15-.08a.35.35,0,0,1,.14,0,.25.25,0,0,1,.16,0,.5.5,0,0,1,.13.15l.66,1.05a3.28,3.28,0,0,1-1,.55,3.94,3.94,0,0,1-1.19.18,2.78,2.78,0,0,1-1-.16,2,2,0,0,1-.73-.47,1.92,1.92,0,0,1-.45-.74,3,3,0,0,1-.15-1V22.49H38.6a.48.48,0,0,1-.3-.11.45.45,0,0,1-.12-.34v-.86l1.32-.24L40,18.8a.45.45,0,0,1,.49-.36h1.15V21h5.85Zm.35-10.61a1.27,1.27,0,0,1-.11.52,1.66,1.66,0,0,1-.3.43,1.57,1.57,0,0,1-.44.28,1.24,1.24,0,0,1-.54.11,1.13,1.13,0,0,1-.52-.11,1.39,1.39,0,0,1-.43-.28,1.42,1.42,0,0,1-.29-.43,1.27,1.27,0,0,1-.11-.52,1.31,1.31,0,0,1,.11-.52,1.55,1.55,0,0,1,.29-.43,1.42,1.42,0,0,1,.43-.29,1.27,1.27,0,0,1,.52-.11,1.41,1.41,0,0,1,.54.11,1.6,1.6,0,0,1,.44.29,1.84,1.84,0,0,1,.3.43A1.31,1.31,0,0,1,47.79,18.54Z"/><path class="cls-5" d="M55.32,22.74a.75.75,0,0,1-.2.2.41.41,0,0,1-.27.07.59.59,0,0,1-.31-.09l-.34-.2a2.74,2.74,0,0,0-.45-.2,2.1,2.1,0,0,0-.66-.09,1.91,1.91,0,0,0-.86.18,1.64,1.64,0,0,0-.6.51,2.46,2.46,0,0,0-.36.82A4.49,4.49,0,0,0,51.16,25a3.15,3.15,0,0,0,.5,1.93,1.64,1.64,0,0,0,1.39.67,2.12,2.12,0,0,0,.53-.05,1.88,1.88,0,0,0,.38-.13,1.48,1.48,0,0,0,.28-.17l.23-.18a1.27,1.27,0,0,1,.22-.13.47.47,0,0,1,.24-.05.46.46,0,0,1,.4.19l.63.8a3.61,3.61,0,0,1-.75.67,4.09,4.09,0,0,1-.83.43,4.32,4.32,0,0,1-.86.21,6.62,6.62,0,0,1-.88.06A3.73,3.73,0,0,1,51.2,29,3.51,3.51,0,0,1,50,28.16a4,4,0,0,1-.81-1.33A5.13,5.13,0,0,1,48.9,25a5.28,5.28,0,0,1,.26-1.68A3.92,3.92,0,0,1,49.94,22a3.55,3.55,0,0,1,1.27-.89A4.48,4.48,0,0,1,53,20.78a4.22,4.22,0,0,1,1.65.3,4,4,0,0,1,1.28.88Z"/><path class="cls-5" d="M66,22.6a.72.72,0,0,1-.18.2.44.44,0,0,1-.25.06.8.8,0,0,1-.33-.08l-.37-.17a3.74,3.74,0,0,0-.48-.18,2.28,2.28,0,0,0-.62-.08,1.41,1.41,0,0,0-.83.22.69.69,0,0,0-.3.58.57.57,0,0,0,.17.42,1.4,1.4,0,0,0,.45.29,5.44,5.44,0,0,0,.62.23l.73.24a6.37,6.37,0,0,1,.72.29A3.14,3.14,0,0,1,66,25a2.07,2.07,0,0,1,.44.61,1.91,1.91,0,0,1,.17.86,2.72,2.72,0,0,1-.22,1.11,2.53,2.53,0,0,1-.64.88,3.25,3.25,0,0,1-1.06.57,4.61,4.61,0,0,1-1.45.21,4,4,0,0,1-.85-.08,5.09,5.09,0,0,1-.79-.21,4.09,4.09,0,0,1-.7-.33,3.16,3.16,0,0,1-.57-.39l.51-.83a.77.77,0,0,1,.22-.22.61.61,0,0,1,.34-.08.66.66,0,0,1,.37.1l.38.21a3.24,3.24,0,0,0,.49.22,2.06,2.06,0,0,0,.71.1,2.23,2.23,0,0,0,.55-.07,1.24,1.24,0,0,0,.38-.2.83.83,0,0,0,.21-.28.88.88,0,0,0,.07-.32.61.61,0,0,0-.18-.45,1.69,1.69,0,0,0-.44-.3,5.85,5.85,0,0,0-.64-.23l-.73-.23c-.25-.09-.49-.19-.73-.3a2.4,2.4,0,0,1-.63-.45,1.93,1.93,0,0,1-.45-.66,2.43,2.43,0,0,1,.63-2.74,2.86,2.86,0,0,1,1-.55,4.17,4.17,0,0,1,1.38-.21,4.11,4.11,0,0,1,1.6.29,3.46,3.46,0,0,1,1.19.75Z"/><path class="cls-5" d="M73.94,22.74a.74.74,0,0,1-.19.2.45.45,0,0,1-.27.07.59.59,0,0,1-.31-.09l-.34-.2a2.88,2.88,0,0,0-.46-.2,2,2,0,0,0-.65-.09,2,2,0,0,0-.87.18,1.64,1.64,0,0,0-.6.51,2.26,2.26,0,0,0-.35.82A4.46,4.46,0,0,0,69.78,25,3.15,3.15,0,0,0,70.29,27a1.64,1.64,0,0,0,1.39.67,2,2,0,0,0,.52-.05,1.69,1.69,0,0,0,.38-.13,1.58,1.58,0,0,0,.29-.17,1.81,1.81,0,0,1,.23-.18,1.2,1.2,0,0,1,.21-.13.49.49,0,0,1,.25-.05.47.47,0,0,1,.4.19l.63.8a4.2,4.2,0,0,1-.75.67A4.37,4.37,0,0,1,73,29a4.59,4.59,0,0,1-.87.21,6.36,6.36,0,0,1-.87.06A3.66,3.66,0,0,1,69.83,29a3.41,3.41,0,0,1-1.19-.83,3.88,3.88,0,0,1-.82-1.33,5.13,5.13,0,0,1-.3-1.81,5,5,0,0,1,.27-1.68A3.75,3.75,0,0,1,68.56,22a3.64,3.64,0,0,1,1.27-.89,4.55,4.55,0,0,1,1.75-.32,4.28,4.28,0,0,1,1.66.3,4.07,4.07,0,0,1,1.28.88Z"/><path class="cls-5" d="M77.77,22.27a3.69,3.69,0,0,1,.91-1.12,1.88,1.88,0,0,1,1.2-.41,1.47,1.47,0,0,1,.91.27l-.15,1.63a.31.31,0,0,1-.12.22.39.39,0,0,1-.23.06l-.37,0a2.39,2.39,0,0,0-.44,0,1.45,1.45,0,0,0-.54.09,1.27,1.27,0,0,0-.42.25,1.45,1.45,0,0,0-.34.39,2.91,2.91,0,0,0-.27.53v5H75.7V20.91H77a.7.7,0,0,1,.47.12.78.78,0,0,1,.18.41Z"/><path class="cls-5" d="M83.3,25.37a2.64,2.64,0,0,0,.66,1.7,2,2,0,0,0,1.45.53,2.32,2.32,0,0,0,.79-.11,3.17,3.17,0,0,0,.58-.24l.46-.24a.88.88,0,0,1,.4-.1.46.46,0,0,1,.4.19l.64.8a3.47,3.47,0,0,1-.77.67A4.76,4.76,0,0,1,87,29a5.08,5.08,0,0,1-.92.21,7,7,0,0,1-.9.06A4.51,4.51,0,0,1,83.6,29a3.64,3.64,0,0,1-1.3-.84,3.76,3.76,0,0,1-.88-1.38,5.35,5.35,0,0,1-.32-1.91,4.43,4.43,0,0,1,.28-1.59A3.71,3.71,0,0,1,82.17,22a3.85,3.85,0,0,1,1.27-.88,4.23,4.23,0,0,1,1.68-.32,4.11,4.11,0,0,1,1.46.25,3.37,3.37,0,0,1,1.15.73,3.32,3.32,0,0,1,.75,1.18,4.44,4.44,0,0,1,.27,1.6,2.37,2.37,0,0,1,0,.41.57.57,0,0,1-.08.25.22.22,0,0,1-.15.13.6.6,0,0,1-.25,0Zm3.47-1.31a2.39,2.39,0,0,0-.09-.66,1.53,1.53,0,0,0-.29-.55,1.39,1.39,0,0,0-.51-.38,1.74,1.74,0,0,0-.72-.14,1.66,1.66,0,0,0-1.24.45,2.25,2.25,0,0,0-.59,1.28Z"/><path class="cls-5" d="M91.88,25.37a2.54,2.54,0,0,0,.66,1.7A2,2,0,0,0,94,27.6a2.4,2.4,0,0,0,.79-.11,3.49,3.49,0,0,0,.58-.24l.46-.24a.85.85,0,0,1,.4-.1.47.47,0,0,1,.4.19l.64.8a3.51,3.51,0,0,1-.78.67,4.22,4.22,0,0,1-.88.43,4.9,4.9,0,0,1-.92.21,6.88,6.88,0,0,1-.89.06A4.43,4.43,0,0,1,92.18,29a3.68,3.68,0,0,1-1.31-.84A3.87,3.87,0,0,1,90,26.77a5.13,5.13,0,0,1-.32-1.91A4.66,4.66,0,0,1,90,23.27a3.89,3.89,0,0,1,.8-1.29A3.81,3.81,0,0,1,92,21.1a4.3,4.3,0,0,1,1.68-.32,4,4,0,0,1,1.46.25,3.22,3.22,0,0,1,1.91,1.91,4.67,4.67,0,0,1,.26,1.6,2.49,2.49,0,0,1,0,.41.73.73,0,0,1-.08.25.27.27,0,0,1-.15.13.62.62,0,0,1-.25,0Zm3.47-1.31a2.39,2.39,0,0,0-.09-.66,1.55,1.55,0,0,0-.3-.55,1.36,1.36,0,0,0-.5-.38,1.79,1.79,0,0,0-.73-.14,1.67,1.67,0,0,0-1.24.45,2.25,2.25,0,0,0-.58,1.28Z"/><path class="cls-5" d="M100.74,21.87a4.11,4.11,0,0,1,.51-.44,3.36,3.36,0,0,1,.57-.35,3.31,3.31,0,0,1,.65-.22,3,3,0,0,1,.76-.08,2.81,2.81,0,0,1,1.19.23,2.27,2.27,0,0,1,.87.65,2.71,2.71,0,0,1,.54,1,4.17,4.17,0,0,1,.18,1.26v5.24h-2.2V23.91a1.6,1.6,0,0,0-.32-1.06,1.15,1.15,0,0,0-.94-.39,2,2,0,0,0-.87.2,3,3,0,0,0-.78.57v5.92H98.69V20.91h1.36a.52.52,0,0,1,.55.38Z"/><path class="cls-5" d="M112.89,22.6a.72.72,0,0,1-.18.2.44.44,0,0,1-.25.06.8.8,0,0,1-.33-.08l-.37-.17a3.74,3.74,0,0,0-.48-.18,2.33,2.33,0,0,0-.62-.08,1.39,1.39,0,0,0-.83.22.69.69,0,0,0-.3.58.57.57,0,0,0,.17.42,1.46,1.46,0,0,0,.44.29,6.48,6.48,0,0,0,.63.23q.36.11.72.24a6.52,6.52,0,0,1,.73.29,3.46,3.46,0,0,1,.63.42,1.91,1.91,0,0,1,.61,1.47,2.72,2.72,0,0,1-.22,1.11,2.53,2.53,0,0,1-.64.88,3.25,3.25,0,0,1-1.06.57,4.63,4.63,0,0,1-1.46.21,4,4,0,0,1-.84-.08,5.09,5.09,0,0,1-.79-.21,4.09,4.09,0,0,1-.7-.33,3.16,3.16,0,0,1-.57-.39l.51-.83a.66.66,0,0,1,.22-.22.59.59,0,0,1,.34-.08.69.69,0,0,1,.37.1l.37.21a3.39,3.39,0,0,0,.5.22,2,2,0,0,0,.7.1,2.25,2.25,0,0,0,.56-.07,1.08,1.08,0,0,0,.37-.2.74.74,0,0,0,.22-.28.87.87,0,0,0,.06-.32.6.6,0,0,0-.17-.45,1.6,1.6,0,0,0-.45-.3,5,5,0,0,0-.63-.23l-.73-.23c-.25-.09-.5-.19-.73-.3a2.4,2.4,0,0,1-.63-.45,1.93,1.93,0,0,1-.45-.66,2.59,2.59,0,0,1,0-1.92,2.35,2.35,0,0,1,.59-.82,2.91,2.91,0,0,1,1-.55,4.17,4.17,0,0,1,1.38-.21,4.11,4.11,0,0,1,1.6.29,3.46,3.46,0,0,1,1.19.75Z"/><path class="cls-5" d="M158,26.3a.45.45,0,0,1,.33.14l.95,1a4.63,4.63,0,0,1-1.74,1.36,6.12,6.12,0,0,1-2.49.46,6,6,0,0,1-2.34-.44,5,5,0,0,1-1.77-1.24,5.38,5.38,0,0,1-1.12-1.88,7,7,0,0,1-.39-2.37,6.78,6.78,0,0,1,.19-1.65A5.57,5.57,0,0,1,151,19.08a5.32,5.32,0,0,1,1.15-.9,5.42,5.42,0,0,1,1.4-.57,6.4,6.4,0,0,1,1.61-.19,5.92,5.92,0,0,1,1.21.11,5.79,5.79,0,0,1,1.07.31,4.67,4.67,0,0,1,.91.49,4.2,4.2,0,0,1,.76.62l-.81,1.1a.77.77,0,0,1-.18.18.49.49,0,0,1-.31.08.67.67,0,0,1-.38-.13l-.48-.31a3.53,3.53,0,0,0-1.8-.44,3.27,3.27,0,0,0-1.34.27,2.89,2.89,0,0,0-1,.76,3.47,3.47,0,0,0-.68,1.23,5.28,5.28,0,0,0-.24,1.66,5,5,0,0,0,.26,1.66,3.68,3.68,0,0,0,.72,1.24,3,3,0,0,0,1,.76,3.1,3.1,0,0,0,1.29.26,5.5,5.5,0,0,0,.74,0,3,3,0,0,0,.62-.13,3.32,3.32,0,0,0,.54-.25,3.26,3.26,0,0,0,.5-.39,1.18,1.18,0,0,1,.19-.11A.36.36,0,0,1,158,26.3Z"/><path class="cls-5" d="M161.92,25.37a2.54,2.54,0,0,0,.66,1.7,2,2,0,0,0,1.45.53,2.4,2.4,0,0,0,.79-.11,3.49,3.49,0,0,0,.58-.24l.46-.24a.85.85,0,0,1,.4-.1.47.47,0,0,1,.4.19l.64.8a3.51,3.51,0,0,1-.78.67,4.22,4.22,0,0,1-.88.43,4.9,4.9,0,0,1-.92.21,6.88,6.88,0,0,1-.89.06,4.43,4.43,0,0,1-1.61-.28,3.68,3.68,0,0,1-1.31-.84,3.87,3.87,0,0,1-.87-1.38,5.13,5.13,0,0,1-.32-1.91,4.66,4.66,0,0,1,.27-1.59,3.89,3.89,0,0,1,.8-1.29,3.81,3.81,0,0,1,1.26-.88,4.3,4.3,0,0,1,1.68-.32,4,4,0,0,1,1.46.25,3.22,3.22,0,0,1,1.91,1.91,4.67,4.67,0,0,1,.26,1.6,2.49,2.49,0,0,1,0,.41.73.73,0,0,1-.08.25.27.27,0,0,1-.15.13.62.62,0,0,1-.25,0Zm3.47-1.31a2.39,2.39,0,0,0-.09-.66,1.55,1.55,0,0,0-.3-.55,1.36,1.36,0,0,0-.5-.38,1.79,1.79,0,0,0-.73-.14,1.67,1.67,0,0,0-1.24.45,2.25,2.25,0,0,0-.58,1.28Z"/><path class="cls-5" d="M171,17.23V29.15h-2.21V17.23Z"/><path class="cls-5" d="M175,17.23V29.15h-2.21V17.23Z"/><path class="cls-5" d="M184.1,20.91v8.24h-1.36a.5.5,0,0,1-.54-.38l-.15-.58a4.23,4.23,0,0,1-.51.44A3.27,3.27,0,0,1,181,29a3.31,3.31,0,0,1-.65.22,3.62,3.62,0,0,1-.76.08,3,3,0,0,1-1.19-.23,2.41,2.41,0,0,1-.88-.65,3.15,3.15,0,0,1-.54-1,4.22,4.22,0,0,1-.18-1.26V20.91H179v5.24a1.61,1.61,0,0,0,.31,1.06,1.14,1.14,0,0,0,.94.38,1.92,1.92,0,0,0,.88-.2,3.08,3.08,0,0,0,.77-.56V20.91Z"/><path class="cls-5" d="M188.15,17.23V29.15h-2.21V17.23Z"/><path class="cls-5" d="M189.8,22.05a4.81,4.81,0,0,1,1.61-1,5.4,5.4,0,0,1,1.91-.33,3.4,3.4,0,0,1,1.31.25,2.87,2.87,0,0,1,1,.66,3.1,3.1,0,0,1,.62,1,3.9,3.9,0,0,1,.21,1.3v5.18h-1a1.17,1.17,0,0,1-.47-.08.69.69,0,0,1-.27-.37l-.18-.53c-.2.18-.41.34-.6.48a4.07,4.07,0,0,1-.6.35,3.49,3.49,0,0,1-.67.21,3.91,3.91,0,0,1-.8.07,3.43,3.43,0,0,1-1-.14,2.14,2.14,0,0,1-.77-.43,1.8,1.8,0,0,1-.5-.71,2.47,2.47,0,0,1-.18-1,2.09,2.09,0,0,1,.23-.92,2.32,2.32,0,0,1,.8-.83,5.3,5.3,0,0,1,1.5-.61,10.67,10.67,0,0,1,2.36-.28V24a1.65,1.65,0,0,0-.33-1.14,1.21,1.21,0,0,0-.94-.37,2.31,2.31,0,0,0-.76.11,3.32,3.32,0,0,0-.53.24c-.16.08-.3.15-.43.23a1,1,0,0,1-.47.11.6.6,0,0,1-.38-.12,1,1,0,0,1-.26-.28Zm4.5,3.65a9.86,9.86,0,0,0-1.34.15,2.93,2.93,0,0,0-.86.26,1,1,0,0,0-.44.36.89.89,0,0,0,.13,1.12,1.19,1.19,0,0,0,.75.2,2.19,2.19,0,0,0,1-.19,3,3,0,0,0,.8-.61Z"/><path class="cls-5" d="M200.25,22.27a3.82,3.82,0,0,1,.9-1.12,1.92,1.92,0,0,1,1.2-.41,1.48,1.48,0,0,1,.92.27l-.15,1.63a.31.31,0,0,1-.12.22.39.39,0,0,1-.23.06l-.37,0a2.39,2.39,0,0,0-.44,0,1.45,1.45,0,0,0-.54.09,1.43,1.43,0,0,0-.43.25,1.62,1.62,0,0,0-.33.39,2.91,2.91,0,0,0-.27.53v5h-2.21V20.91h1.3A.7.7,0,0,1,200,21a.78.78,0,0,1,.18.41Z"/><path class="cls-5" d="M207.68,29.15V20.91H209a.54.54,0,0,1,.56.38l.12.54.45-.42a2.68,2.68,0,0,1,1.06-.55,2.41,2.41,0,0,1,.67-.08,1.89,1.89,0,0,1,1.25.4,2.44,2.44,0,0,1,.76,1.08,2.41,2.41,0,0,1,.49-.68,2.6,2.6,0,0,1,.64-.46,3.18,3.18,0,0,1,.73-.26,4.15,4.15,0,0,1,.79-.08,3.37,3.37,0,0,1,1.23.21,2.32,2.32,0,0,1,.9.61,2.84,2.84,0,0,1,.55,1,4.22,4.22,0,0,1,.2,1.33v5.24h-2.21V23.91c0-1-.42-1.45-1.24-1.45a1.46,1.46,0,0,0-.52.1,1.13,1.13,0,0,0-.41.27,1.44,1.44,0,0,0-.29.46,2,2,0,0,0-.09.62v5.24h-2.21V23.91a1.64,1.64,0,0,0-.31-1.11,1.2,1.2,0,0,0-.91-.34,1.49,1.49,0,0,0-.72.19,2.28,2.28,0,0,0-.64.5v6Z"/><path class="cls-5" d="M224.9,20.78a4.79,4.79,0,0,1,1.69.29,3.71,3.71,0,0,1,1.3.85,3.78,3.78,0,0,1,.84,1.33A4.9,4.9,0,0,1,229,25a5,5,0,0,1-.3,1.77,3.91,3.91,0,0,1-.84,1.34,3.71,3.71,0,0,1-1.3.85,5.1,5.1,0,0,1-3.39,0,3.67,3.67,0,0,1-1.31-.85,3.91,3.91,0,0,1-.84-1.34,5,5,0,0,1-.3-1.77,4.9,4.9,0,0,1,.3-1.77,3.78,3.78,0,0,1,.84-1.33,3.67,3.67,0,0,1,1.31-.85A4.81,4.81,0,0,1,224.9,20.78Zm0,6.84a1.59,1.59,0,0,0,1.4-.66,3.39,3.39,0,0,0,.46-1.93,3.43,3.43,0,0,0-.46-1.94,1.85,1.85,0,0,0-2.82,0A3.35,3.35,0,0,0,223,25a3.31,3.31,0,0,0,.46,1.93A1.59,1.59,0,0,0,224.9,27.62Z"/><path class="cls-5" d="M237.72,17.23V29.15h-1.36a.5.5,0,0,1-.54-.38l-.18-.72a4.05,4.05,0,0,1-.53.49,3.24,3.24,0,0,1-1.28.65,4.09,4.09,0,0,1-.8.08,2.61,2.61,0,0,1-1.22-.28,2.67,2.67,0,0,1-1-.82,4.25,4.25,0,0,1-.62-1.32,6.48,6.48,0,0,1-.23-1.79,5.48,5.48,0,0,1,.26-1.71A4,4,0,0,1,231,22a3.29,3.29,0,0,1,1.12-.91,3.2,3.2,0,0,1,1.46-.33,2.71,2.71,0,0,1,1.13.21,3,3,0,0,1,.84.54V17.23Zm-2.2,5.82a1.87,1.87,0,0,0-.68-.51,2.19,2.19,0,0,0-.77-.14,1.73,1.73,0,0,0-.73.15,1.44,1.44,0,0,0-.57.48,2.56,2.56,0,0,0-.36.83,5.12,5.12,0,0,0-.13,1.2,5.54,5.54,0,0,0,.11,1.17,2.38,2.38,0,0,0,.3.77,1.2,1.2,0,0,0,.47.43,1.45,1.45,0,0,0,.63.13,2,2,0,0,0,1-.23,3,3,0,0,0,.75-.66Z"/><path class="cls-5" d="M241.31,25.37a2.59,2.59,0,0,0,.67,1.7,2,2,0,0,0,1.45.53,2.4,2.4,0,0,0,.79-.11,3.49,3.49,0,0,0,.58-.24l.46-.24a.85.85,0,0,1,.4-.1.47.47,0,0,1,.4.19l.64.8a3.51,3.51,0,0,1-.78.67A4.22,4.22,0,0,1,245,29a4.9,4.9,0,0,1-.92.21,6.88,6.88,0,0,1-.89.06,4.52,4.52,0,0,1-1.62-.28,3.73,3.73,0,0,1-1.3-.84,3.87,3.87,0,0,1-.87-1.38,5.13,5.13,0,0,1-.33-1.91,4.66,4.66,0,0,1,.28-1.59,3.79,3.79,0,0,1,2.06-2.17,4.3,4.3,0,0,1,1.68-.32,4,4,0,0,1,1.46.25,3.19,3.19,0,0,1,1.15.73,3.06,3.06,0,0,1,.75,1.18,4.44,4.44,0,0,1,.27,1.6,2.49,2.49,0,0,1,0,.41.73.73,0,0,1-.08.25.27.27,0,0,1-.15.13.62.62,0,0,1-.25,0Zm3.48-1.31a2.07,2.07,0,0,0-.1-.66,1.39,1.39,0,0,0-.29-.55,1.36,1.36,0,0,0-.5-.38,1.79,1.79,0,0,0-.73-.14,1.67,1.67,0,0,0-1.24.45,2.25,2.25,0,0,0-.58,1.28Z"/><path class="cls-5" d="M250.35,17.23V29.15h-2.2V17.23Z"/><path class="cls-5" d="M257.32,22.6a.72.72,0,0,1-.18.2.44.44,0,0,1-.25.06.8.8,0,0,1-.33-.08l-.37-.17a3.74,3.74,0,0,0-.48-.18,2.28,2.28,0,0,0-.62-.08,1.41,1.41,0,0,0-.83.22.69.69,0,0,0-.3.58.57.57,0,0,0,.17.42,1.46,1.46,0,0,0,.44.29,6.48,6.48,0,0,0,.63.23l.73.24a6.37,6.37,0,0,1,.72.29,3.14,3.14,0,0,1,.63.42,1.91,1.91,0,0,1,.61,1.47,2.72,2.72,0,0,1-.22,1.11,2.53,2.53,0,0,1-.64.88,3.25,3.25,0,0,1-1.06.57,4.61,4.61,0,0,1-1.45.21,4,4,0,0,1-.85-.08,5.09,5.09,0,0,1-.79-.21,4.09,4.09,0,0,1-.7-.33,3.16,3.16,0,0,1-.57-.39l.51-.83a.66.66,0,0,1,.22-.22.59.59,0,0,1,.34-.08.66.66,0,0,1,.37.1l.38.21a2.85,2.85,0,0,0,.49.22,2.06,2.06,0,0,0,.71.1,2.23,2.23,0,0,0,.55-.07,1.24,1.24,0,0,0,.38-.2.83.83,0,0,0,.21-.28.87.87,0,0,0,.06-.32.6.6,0,0,0-.17-.45,1.6,1.6,0,0,0-.45-.3,5,5,0,0,0-.63-.23l-.73-.23c-.25-.09-.49-.19-.73-.3a2.4,2.4,0,0,1-.63-.45,1.93,1.93,0,0,1-.45-.66,2.43,2.43,0,0,1,.63-2.74,2.86,2.86,0,0,1,1-.55,4.17,4.17,0,0,1,1.38-.21,4.11,4.11,0,0,1,1.6.29,3.46,3.46,0,0,1,1.19.75Z"/><path class="cls-5" d="M307.21,23.35a6.2,6.2,0,0,1-.43,2.34,5.22,5.22,0,0,1-1.21,1.83,5.57,5.57,0,0,1-1.87,1.2,6.53,6.53,0,0,1-2.43.43H296.8V17.54h4.47a6.53,6.53,0,0,1,2.43.44,5.57,5.57,0,0,1,1.87,1.2A5.36,5.36,0,0,1,306.78,21,6.08,6.08,0,0,1,307.21,23.35Zm-2.46,0a5.3,5.3,0,0,0-.24-1.65,3.51,3.51,0,0,0-.69-1.23,3,3,0,0,0-1.09-.77,3.76,3.76,0,0,0-1.46-.27h-2v7.84h2a3.76,3.76,0,0,0,1.46-.27,2.82,2.82,0,0,0,1.09-.77,3.47,3.47,0,0,0,.69-1.24A5.19,5.19,0,0,0,304.75,23.35Z"/><path class="cls-5" d="M310.62,22.27a3.82,3.82,0,0,1,.9-1.12,1.88,1.88,0,0,1,1.2-.41,1.43,1.43,0,0,1,.91.27l-.14,1.63a.41.41,0,0,1-.12.22.41.41,0,0,1-.23.06l-.37,0a2.42,2.42,0,0,0-.45,0,1.53,1.53,0,0,0-.54.09,1.27,1.27,0,0,0-.42.25,1.62,1.62,0,0,0-.33.39,3.72,3.72,0,0,0-.28.53v5h-2.2V20.91h1.3a.67.67,0,0,1,.46.12.71.71,0,0,1,.19.41Z"/><path class="cls-5" d="M321.82,20.91v8.24h-1.36a.52.52,0,0,1-.55-.38l-.14-.58a6.66,6.66,0,0,1-.51.44,3.36,3.36,0,0,1-.57.35,3.22,3.22,0,0,1-.64.22,3.69,3.69,0,0,1-.76.08,3,3,0,0,1-1.2-.23,2.46,2.46,0,0,1-.87-.65,3,3,0,0,1-.54-1,4.22,4.22,0,0,1-.18-1.26V20.91h2.21v5.24a1.61,1.61,0,0,0,.31,1.06,1.14,1.14,0,0,0,.94.38,1.85,1.85,0,0,0,.87-.2,3.13,3.13,0,0,0,.78-.56V20.91Z"/><path class="cls-5" d="M331,21.18V22a.44.44,0,0,1-.1.3.86.86,0,0,1-.36.17l-.67.13a2.55,2.55,0,0,1,.13.84,2.39,2.39,0,0,1-.25,1.11,2.55,2.55,0,0,1-.69.84,3.31,3.31,0,0,1-1,.54,4.49,4.49,0,0,1-1.3.19,4.3,4.3,0,0,1-.82-.08c-.22.14-.34.29-.34.46a.36.36,0,0,0,.23.34,2.42,2.42,0,0,0,.6.14c.25,0,.53.05.85.06s.64,0,1,0a7.81,7.81,0,0,1,1,.14,2.73,2.73,0,0,1,.84.33,1.72,1.72,0,0,1,.6.6,1.79,1.79,0,0,1,.23,1,2.27,2.27,0,0,1-.27,1.07,2.77,2.77,0,0,1-.79.93,4.1,4.1,0,0,1-1.27.66,5.59,5.59,0,0,1-1.71.25,7.24,7.24,0,0,1-1.65-.18,3.9,3.9,0,0,1-1.16-.48,2.14,2.14,0,0,1-.68-.7,1.61,1.61,0,0,1-.23-.81,1.36,1.36,0,0,1,.34-.94,2.19,2.19,0,0,1,.93-.61,1.48,1.48,0,0,1-.5-.46,1.29,1.29,0,0,1-.19-.74,1.41,1.41,0,0,1,.27-.78,2,2,0,0,1,.82-.68,2.72,2.72,0,0,1-1-.9,2.42,2.42,0,0,1-.36-1.32,2.39,2.39,0,0,1,.25-1.11,2.46,2.46,0,0,1,.7-.84,3.06,3.06,0,0,1,1.05-.53,4.34,4.34,0,0,1,1.32-.19,4,4,0,0,1,1.87.42Zm-2.19,8.31a.48.48,0,0,0-.13-.35,1,1,0,0,0-.37-.22,2.44,2.44,0,0,0-.54-.11q-.31,0-.66-.06l-.73,0-.74-.05a1.76,1.76,0,0,0-.46.39.82.82,0,0,0-.18.52.69.69,0,0,0,.1.37.76.76,0,0,0,.3.29,1.91,1.91,0,0,0,.57.18,4.41,4.41,0,0,0,.88.07,4.85,4.85,0,0,0,.92-.07,2,2,0,0,0,.61-.21.77.77,0,0,0,.33-.31A.79.79,0,0,0,328.8,29.49Zm-2.09-4.77a1.33,1.33,0,0,0,1-.34,1.28,1.28,0,0,0,.32-.89,1.21,1.21,0,0,0-.32-.89,1.7,1.7,0,0,0-2,0,1.37,1.37,0,0,0,0,1.77A1.26,1.26,0,0,0,326.71,24.72Z"/><path class="cls-5" d="M341.07,22.6a.59.59,0,0,1-.18.2.44.44,0,0,1-.25.06.84.84,0,0,1-.33-.08l-.37-.17a3.74,3.74,0,0,0-.48-.18,2.28,2.28,0,0,0-.62-.08,1.41,1.41,0,0,0-.83.22.69.69,0,0,0-.3.58.57.57,0,0,0,.17.42,1.4,1.4,0,0,0,.45.29,5.44,5.44,0,0,0,.62.23l.73.24a5.7,5.7,0,0,1,.72.29A2.88,2.88,0,0,1,341,25a2.07,2.07,0,0,1,.44.61,1.91,1.91,0,0,1,.17.86,2.72,2.72,0,0,1-.22,1.11,2.53,2.53,0,0,1-.64.88,3.25,3.25,0,0,1-1.06.57,4.61,4.61,0,0,1-1.45.21,3.86,3.86,0,0,1-.84-.08,4.93,4.93,0,0,1-.8-.21,4.09,4.09,0,0,1-.7-.33,3.16,3.16,0,0,1-.57-.39l.51-.83a.77.77,0,0,1,.22-.22.61.61,0,0,1,.34-.08.66.66,0,0,1,.37.1l.38.21a3.24,3.24,0,0,0,.49.22,2.09,2.09,0,0,0,.71.1,2.23,2.23,0,0,0,.55-.07,1.24,1.24,0,0,0,.38-.2.83.83,0,0,0,.21-.28.88.88,0,0,0,.07-.32.61.61,0,0,0-.18-.45,1.69,1.69,0,0,0-.44-.3,5.85,5.85,0,0,0-.64-.23l-.73-.23c-.25-.09-.49-.19-.73-.3a2.4,2.4,0,0,1-.63-.45,1.93,1.93,0,0,1-.45-.66,2.44,2.44,0,0,1-.17-1,2.36,2.36,0,0,1,.8-1.79,2.86,2.86,0,0,1,1-.55,4.17,4.17,0,0,1,1.38-.21,4.11,4.11,0,0,1,1.6.29,3.46,3.46,0,0,1,1.19.75Z"/><path class="cls-5" d="M344.79,25.37a2.54,2.54,0,0,0,.66,1.7,2,2,0,0,0,1.45.53,2.4,2.4,0,0,0,.79-.11,3.49,3.49,0,0,0,.58-.24l.46-.24a.85.85,0,0,1,.4-.1.47.47,0,0,1,.4.19l.64.8a3.3,3.3,0,0,1-.78.67,4.22,4.22,0,0,1-.88.43,4.9,4.9,0,0,1-.92.21,6.88,6.88,0,0,1-.89.06,4.43,4.43,0,0,1-1.61-.28,3.68,3.68,0,0,1-1.31-.84,3.87,3.87,0,0,1-.87-1.38,5.13,5.13,0,0,1-.32-1.91,4.66,4.66,0,0,1,.27-1.59,3.89,3.89,0,0,1,.8-1.29,3.81,3.81,0,0,1,1.26-.88,4.3,4.3,0,0,1,1.68-.32,4,4,0,0,1,1.46.25A3.22,3.22,0,0,1,350,22.94a4.67,4.67,0,0,1,.26,1.6,2.49,2.49,0,0,1,0,.41.73.73,0,0,1-.08.25.27.27,0,0,1-.15.13.62.62,0,0,1-.25,0Zm3.47-1.31a2.39,2.39,0,0,0-.09-.66,1.55,1.55,0,0,0-.3-.55,1.36,1.36,0,0,0-.5-.38,1.79,1.79,0,0,0-.73-.14,1.67,1.67,0,0,0-1.24.45,2.25,2.25,0,0,0-.58,1.28Z"/><path class="cls-5" d="M353.65,21.87a3.57,3.57,0,0,1,.52-.44,2.93,2.93,0,0,1,.56-.35,3.31,3.31,0,0,1,.65-.22,3.06,3.06,0,0,1,.76-.08,2.81,2.81,0,0,1,1.19.23,2.38,2.38,0,0,1,.88.65,2.85,2.85,0,0,1,.53,1,4.17,4.17,0,0,1,.18,1.26v5.24h-2.2V23.91a1.6,1.6,0,0,0-.32-1.06,1.15,1.15,0,0,0-.94-.39,2,2,0,0,0-.87.2,3.18,3.18,0,0,0-.78.57v5.92H351.6V20.91H353a.52.52,0,0,1,.55.38Z"/><path class="cls-5" d="M365.8,22.6a.72.72,0,0,1-.18.2.44.44,0,0,1-.25.06.8.8,0,0,1-.33-.08l-.37-.17a3.74,3.74,0,0,0-.48-.18,2.33,2.33,0,0,0-.62-.08,1.39,1.39,0,0,0-.83.22.69.69,0,0,0-.3.58.57.57,0,0,0,.17.42,1.46,1.46,0,0,0,.44.29,6.48,6.48,0,0,0,.63.23q.36.11.72.24a6.52,6.52,0,0,1,.73.29,3.46,3.46,0,0,1,.63.42,1.91,1.91,0,0,1,.61,1.47,2.72,2.72,0,0,1-.22,1.11,2.53,2.53,0,0,1-.64.88,3.25,3.25,0,0,1-1.06.57,4.63,4.63,0,0,1-1.46.21,4,4,0,0,1-.84-.08,5.09,5.09,0,0,1-.79-.21,4.09,4.09,0,0,1-.7-.33,3.16,3.16,0,0,1-.57-.39l.51-.83a.66.66,0,0,1,.22-.22.59.59,0,0,1,.34-.08.69.69,0,0,1,.37.1l.37.21a3.39,3.39,0,0,0,.5.22,2,2,0,0,0,.7.1,2.25,2.25,0,0,0,.56-.07,1.08,1.08,0,0,0,.37-.2.74.74,0,0,0,.22-.28.87.87,0,0,0,.06-.32.6.6,0,0,0-.17-.45,1.6,1.6,0,0,0-.45-.3,5,5,0,0,0-.63-.23l-.73-.23c-.25-.09-.5-.19-.73-.3a2.4,2.4,0,0,1-.63-.45,1.93,1.93,0,0,1-.45-.66,2.43,2.43,0,0,1,.63-2.74,2.77,2.77,0,0,1,1-.55,4.17,4.17,0,0,1,1.38-.21,4.11,4.11,0,0,1,1.6.29,3.46,3.46,0,0,1,1.19.75Z"/><path class="cls-5" d="M370.29,18.56a1.27,1.27,0,0,1-.11.52,1.6,1.6,0,0,1-.3.42,1.42,1.42,0,0,1-1,.4,1.31,1.31,0,0,1-.52-.11,1.39,1.39,0,0,1-.72-.71,1.28,1.28,0,0,1,0-1,1.3,1.3,0,0,1,.29-.43,1.55,1.55,0,0,1,.43-.29,1.3,1.3,0,0,1,.52-.1,1.4,1.4,0,0,1,.54.1,1.6,1.6,0,0,1,.44.29,1.5,1.5,0,0,1,.3.43A1.27,1.27,0,0,1,370.29,18.56ZM370,20.91v8.24h-2.2V20.91Z"/><path class="cls-5" d="M380.51,29.15h-2.2V22.49h-3.66v4.3a.86.86,0,0,0,.16.55.59.59,0,0,0,.47.2.7.7,0,0,0,.27,0,.93.93,0,0,0,.2-.08l.14-.08.14,0a.25.25,0,0,1,.16,0,.39.39,0,0,1,.13.15l.67,1.05a3.45,3.45,0,0,1-1,.55,3.94,3.94,0,0,1-1.19.18,2.78,2.78,0,0,1-1-.16,2,2,0,0,1-.73-.47,1.92,1.92,0,0,1-.45-.74,3,3,0,0,1-.15-1V22.49h-.77a.44.44,0,0,1-.3-.11.42.42,0,0,1-.13-.34v-.86l1.32-.24L373,18.8a.45.45,0,0,1,.49-.36h1.15V21h5.86Zm.34-10.61a1.27,1.27,0,0,1-.11.52,1.66,1.66,0,0,1-.3.43,1.44,1.44,0,0,1-.44.28,1.24,1.24,0,0,1-.54.11,1.16,1.16,0,0,1-.52-.11,1.52,1.52,0,0,1-.43-.28,1.42,1.42,0,0,1-.29-.43,1.27,1.27,0,0,1-.11-.52,1.31,1.31,0,0,1,.11-.52,1.36,1.36,0,0,1,.72-.72,1.31,1.31,0,0,1,.52-.11,1.41,1.41,0,0,1,.54.11,1.46,1.46,0,0,1,.44.29,1.84,1.84,0,0,1,.3.43A1.31,1.31,0,0,1,380.85,18.54Z"/><path class="cls-5" d="M390,20.91l-3.24,8.24h-2l-3.23-8.24h1.83a.65.65,0,0,1,.4.11.58.58,0,0,1,.22.29l1.39,4.08a8.19,8.19,0,0,1,.23.81c.07.26.14.53.19.79.06-.26.12-.53.2-.79a8.36,8.36,0,0,1,.25-.81l1.43-4.08a.56.56,0,0,1,.21-.29.63.63,0,0,1,.38-.11Z"/><path class="cls-5" d="M393.46,18.56a1.27,1.27,0,0,1-.11.52,1.6,1.6,0,0,1-.3.42,1.47,1.47,0,0,1-1,.4,1.37,1.37,0,0,1-.94-.4,1.37,1.37,0,0,1-.29-.42,1.28,1.28,0,0,1,0-1,1.3,1.3,0,0,1,.29-.43,1.42,1.42,0,0,1,.43-.29,1.25,1.25,0,0,1,.51-.1,1.33,1.33,0,0,1,.54.1,1.37,1.37,0,0,1,.75.72A1.27,1.27,0,0,1,393.46,18.56Zm-.27,2.35v8.24H391V20.91Z"/><path class="cls-5" d="M397.93,29.28a2.74,2.74,0,0,1-1-.16,2,2,0,0,1-.73-.47,1.92,1.92,0,0,1-.45-.74,3,3,0,0,1-.15-1V22.49h-.78a.46.46,0,0,1-.3-.11.45.45,0,0,1-.12-.34v-.86l1.32-.24.45-2.14a.44.44,0,0,1,.48-.36h1.16V21h2.12v1.54h-2.12v4.3a.86.86,0,0,0,.16.55.59.59,0,0,0,.47.2.7.7,0,0,0,.27,0,.68.68,0,0,0,.19-.08l.15-.08a.35.35,0,0,1,.14,0,.27.27,0,0,1,.16,0,.5.5,0,0,1,.13.15l.66,1.05a3.4,3.4,0,0,1-1,.55A3.94,3.94,0,0,1,397.93,29.28Z"/><path class="cls-5" d="M408.77,20.91l-4.45,10.46a.8.8,0,0,1-.25.33.76.76,0,0,1-.47.12H402l1.56-3.33-3.31-7.58h1.93a.61.61,0,0,1,.41.12.63.63,0,0,1,.21.28l1.57,3.94a3.68,3.68,0,0,1,.15.47c0,.15.09.31.14.47.09-.32.2-.63.32-1l1.46-3.93a.55.55,0,0,1,.23-.29.62.62,0,0,1,.37-.11Z"/><path class="cls-5" d="M136.38,146.28a6.58,6.58,0,0,1,2.06.28,3.84,3.84,0,0,1,1.43.78,3,3,0,0,1,.83,1.19A4,4,0,0,1,141,150a4.18,4.18,0,0,1-.28,1.57,3.17,3.17,0,0,1-.85,1.22,3.89,3.89,0,0,1-1.43.8,6.51,6.51,0,0,1-2,.28h-1.52v4h-2.4V146.28Zm0,5.77a2.22,2.22,0,0,0,1.66-.54,2,2,0,0,0,.52-1.49,2.22,2.22,0,0,0-.13-.79,1.55,1.55,0,0,0-.4-.6,1.81,1.81,0,0,0-.68-.39,3.06,3.06,0,0,0-1-.14h-1.52v4Z"/><path class="cls-5" d="M144.15,151a3.66,3.66,0,0,1,.91-1.11,1.82,1.82,0,0,1,1.2-.41,1.53,1.53,0,0,1,.91.26l-.15,1.63a.31.31,0,0,1-.12.22.39.39,0,0,1-.23.06l-.37,0a2.39,2.39,0,0,0-.44,0,1.45,1.45,0,0,0-.54.09,1.27,1.27,0,0,0-.42.25,1.83,1.83,0,0,0-.34.39,4.36,4.36,0,0,0-.27.53v5h-2.21v-8.25h1.3a.7.7,0,0,1,.47.12.83.83,0,0,1,.18.41Z"/><path class="cls-5" d="M149.68,154.1a2.62,2.62,0,0,0,.66,1.7,2,2,0,0,0,1.45.53,2.62,2.62,0,0,0,.79-.1,4.07,4.07,0,0,0,.58-.24l.46-.24a.78.78,0,0,1,.4-.11.46.46,0,0,1,.4.19l.64.8a3.52,3.52,0,0,1-.77.68,3.94,3.94,0,0,1-.88.42,5.12,5.12,0,0,1-.92.22,7,7,0,0,1-.9.06,4.51,4.51,0,0,1-1.61-.29,3.64,3.64,0,0,1-1.3-.84,3.89,3.89,0,0,1-.88-1.38,5.31,5.31,0,0,1-.32-1.91,4.34,4.34,0,0,1,.28-1.58,3.69,3.69,0,0,1,2.06-2.18,4.23,4.23,0,0,1,1.68-.32,4.11,4.11,0,0,1,1.46.25,3.27,3.27,0,0,1,1.15.73,3.41,3.41,0,0,1,.75,1.18,4.44,4.44,0,0,1,.27,1.6,2.29,2.29,0,0,1,0,.41.57.57,0,0,1-.08.25.26.26,0,0,1-.15.14.81.81,0,0,1-.25,0Zm3.47-1.31a2.39,2.39,0,0,0-.09-.66,1.61,1.61,0,0,0-.29-.55,1.42,1.42,0,0,0-.51-.38,1.74,1.74,0,0,0-.72-.14,1.67,1.67,0,0,0-1.24.45,2.29,2.29,0,0,0-.59,1.28Z"/><path class="cls-5" d="M163.8,146v11.93h-1.36a.51.51,0,0,1-.54-.39l-.19-.72a4.89,4.89,0,0,1-.52.5,3.43,3.43,0,0,1-.6.39,3,3,0,0,1-.69.25,3.32,3.32,0,0,1-.8.09,2.73,2.73,0,0,1-1.21-.28,2.77,2.77,0,0,1-1-.82,4,4,0,0,1-.63-1.33,6.5,6.5,0,0,1-.22-1.79,5.57,5.57,0,0,1,.25-1.71,4.15,4.15,0,0,1,.72-1.37,3.38,3.38,0,0,1,1.12-.9,3.19,3.19,0,0,1,1.45-.33,2.68,2.68,0,0,1,2,.74V146Zm-2.21,5.82a1.71,1.71,0,0,0-.67-.5,2,2,0,0,0-.78-.15,1.73,1.73,0,0,0-.72.16,1.5,1.5,0,0,0-.57.47,2.27,2.27,0,0,0-.36.83,4.74,4.74,0,0,0-.13,1.2,6.38,6.38,0,0,0,.1,1.17,2.21,2.21,0,0,0,.3.77,1.15,1.15,0,0,0,.48.43,1.44,1.44,0,0,0,.62.13,1.85,1.85,0,0,0,1-.23,2.66,2.66,0,0,0,.75-.65Z"/><path class="cls-5" d="M168.17,147.29a1.27,1.27,0,0,1-.11.52,1.66,1.66,0,0,1-.3.43,1.6,1.6,0,0,1-.44.29,1.4,1.4,0,0,1-.54.1,1.3,1.3,0,0,1-.52-.1,1.55,1.55,0,0,1-.43-.29,1.42,1.42,0,0,1-.29-.43,1.27,1.27,0,0,1-.11-.52,1.31,1.31,0,0,1,.11-.52,1.36,1.36,0,0,1,.72-.72,1.5,1.5,0,0,1,.52-.1,1.62,1.62,0,0,1,.54.1,1.6,1.6,0,0,1,.44.29,1.84,1.84,0,0,1,.3.43A1.31,1.31,0,0,1,168.17,147.29Zm-.27,2.35v8.25h-2.2v-8.25Z"/><path class="cls-5" d="M175.78,151.48a.88.88,0,0,1-.2.19.41.41,0,0,1-.27.07.61.61,0,0,1-.31-.09l-.34-.2a2.74,2.74,0,0,0-.45-.2,2.1,2.1,0,0,0-.66-.09,1.94,1.94,0,0,0-.86.18,1.64,1.64,0,0,0-.6.51,2.46,2.46,0,0,0-.36.82,4.49,4.49,0,0,0-.11,1.08,3.25,3.25,0,0,0,.5,1.94,1.68,1.68,0,0,0,1.39.67,2.65,2.65,0,0,0,.53-.05,1.88,1.88,0,0,0,.38-.14,1.48,1.48,0,0,0,.28-.17l.23-.18.22-.13a.6.6,0,0,1,.24-.05.46.46,0,0,1,.4.19l.63.8a3.67,3.67,0,0,1-.75.68,3.41,3.41,0,0,1-.83.42,4.35,4.35,0,0,1-.86.22,6.62,6.62,0,0,1-.88.06,3.74,3.74,0,0,1-1.44-.29,3.37,3.37,0,0,1-1.19-.83,3.92,3.92,0,0,1-.81-1.33,5.09,5.09,0,0,1-.3-1.81,5.38,5.38,0,0,1,.26-1.68,3.88,3.88,0,0,1,.78-1.34,3.57,3.57,0,0,1,1.27-.9,4.52,4.52,0,0,1,1.75-.32,4.19,4.19,0,0,1,1.65.3,4.12,4.12,0,0,1,1.28.88Z"/><path class="cls-5" d="M186.13,157.89h-2.2v-6.67h-3.66v4.31a.81.81,0,0,0,.17.54.57.57,0,0,0,.46.2.79.79,0,0,0,.28,0l.19-.08.15-.07a.23.23,0,0,1,.14,0,.29.29,0,0,1,.16,0,.49.49,0,0,1,.12.15l.67,1.06a3.27,3.27,0,0,1-1,.54,4,4,0,0,1-1.2.18,2.78,2.78,0,0,1-1-.16,1.92,1.92,0,0,1-.73-.47,2.07,2.07,0,0,1-.44-.73,2.76,2.76,0,0,1-.16-1v-4.45h-.77a.4.4,0,0,1-.3-.11.44.44,0,0,1-.13-.34v-.86l1.32-.24.45-2.14a.45.45,0,0,1,.49-.36h1.15v2.52h5.86Zm.34-10.61a1.12,1.12,0,0,1-.11.51,1.19,1.19,0,0,1-.3.43,1.53,1.53,0,0,1-.44.29,1.4,1.4,0,0,1-.54.1,1.34,1.34,0,0,1-.52-.1,1.57,1.57,0,0,1-.42-.29,1.33,1.33,0,0,1-.3-.43,1.25,1.25,0,0,1-.1-.51,1.35,1.35,0,0,1,.1-.53,1.57,1.57,0,0,1,.72-.72,1.34,1.34,0,0,1,.52-.1,1.4,1.4,0,0,1,.54.1,1.37,1.37,0,0,1,.44.3,1.25,1.25,0,0,1,.3.42A1.2,1.2,0,0,1,186.47,147.28Z"/><path class="cls-5" d="M195.61,149.64l-3.24,8.25h-2l-3.24-8.25H189a.72.72,0,0,1,.4.11.57.57,0,0,1,.22.29l1.39,4.08q.14.42.24.81c.07.26.13.53.18.8.06-.27.13-.54.2-.8s.15-.53.25-.81l1.43-4.08a.57.57,0,0,1,.22-.29.65.65,0,0,1,.37-.11Z"/><path class="cls-5" d="M198,154.1a2.62,2.62,0,0,0,.66,1.7,2,2,0,0,0,1.45.53,2.62,2.62,0,0,0,.79-.1,4.07,4.07,0,0,0,.58-.24l.46-.24a.78.78,0,0,1,.4-.11.45.45,0,0,1,.4.19l.64.8a3.52,3.52,0,0,1-.77.68,3.94,3.94,0,0,1-.88.42,5.12,5.12,0,0,1-.92.22,7,7,0,0,1-.9.06,4.51,4.51,0,0,1-1.61-.29,3.64,3.64,0,0,1-1.3-.84,3.89,3.89,0,0,1-.88-1.38,5.31,5.31,0,0,1-.32-1.91,4.34,4.34,0,0,1,.28-1.58,3.69,3.69,0,0,1,2.06-2.18,4.23,4.23,0,0,1,1.68-.32,4.11,4.11,0,0,1,1.46.25,3.27,3.27,0,0,1,1.15.73,3.41,3.41,0,0,1,.75,1.18,4.44,4.44,0,0,1,.27,1.6,2.29,2.29,0,0,1,0,.41.57.57,0,0,1-.08.25.26.26,0,0,1-.15.14.81.81,0,0,1-.25,0Zm3.47-1.31a2.39,2.39,0,0,0-.09-.66,1.61,1.61,0,0,0-.29-.55,1.42,1.42,0,0,0-.51-.38,1.74,1.74,0,0,0-.72-.14,1.67,1.67,0,0,0-1.24.45,2.29,2.29,0,0,0-.59,1.28Z"/><path class="cls-5" d="M208.66,157.89v-8.25H210a.54.54,0,0,1,.55.38l.13.54a5.77,5.77,0,0,1,.44-.42,2.63,2.63,0,0,1,.49-.33,2.8,2.8,0,0,1,.57-.22,2.86,2.86,0,0,1,.67-.08,2,2,0,0,1,1.26.4,2.5,2.5,0,0,1,.75,1.08,2.63,2.63,0,0,1,.49-.68,2.8,2.8,0,0,1,.64-.46,3.6,3.6,0,0,1,.74-.26,4.13,4.13,0,0,1,.78-.08,3.37,3.37,0,0,1,1.23.21,2.28,2.28,0,0,1,.9.61,2.81,2.81,0,0,1,.56,1,4.49,4.49,0,0,1,.19,1.33v5.24H218.2v-5.24c0-1-.41-1.45-1.24-1.45a1.46,1.46,0,0,0-.52.09,1.11,1.11,0,0,0-.41.28,1.15,1.15,0,0,0-.28.45,1.74,1.74,0,0,0-.1.63v5.24h-2.21v-5.24a1.6,1.6,0,0,0-.31-1.12,1.17,1.17,0,0,0-.9-.33,1.55,1.55,0,0,0-.73.18,2.28,2.28,0,0,0-.64.5v6Z"/><path class="cls-5" d="M225.87,149.51a4.58,4.58,0,0,1,1.69.3,3.48,3.48,0,0,1,1.3.84,3.59,3.59,0,0,1,.84,1.33,5.37,5.37,0,0,1,0,3.54,3.55,3.55,0,0,1-.84,1.34,3.63,3.63,0,0,1-1.3.85,4.58,4.58,0,0,1-1.69.3,4.63,4.63,0,0,1-1.7-.3,3.76,3.76,0,0,1-1.31-.85,3.82,3.82,0,0,1-.84-1.34,5.37,5.37,0,0,1,0-3.54,3.87,3.87,0,0,1,.84-1.33,3.6,3.6,0,0,1,1.31-.84A4.63,4.63,0,0,1,225.87,149.51Zm0,6.84a1.6,1.6,0,0,0,1.4-.65,3.35,3.35,0,0,0,.46-1.94,3.31,3.31,0,0,0-.46-1.93,1.58,1.58,0,0,0-1.4-.66,1.6,1.6,0,0,0-1.42.66,3.31,3.31,0,0,0-.46,1.93,3.35,3.35,0,0,0,.46,1.94A1.62,1.62,0,0,0,225.87,156.35Z"/><path class="cls-5" d="M238.7,146v11.93h-1.36a.52.52,0,0,1-.55-.39l-.18-.72a5,5,0,0,1-.53.5,3.35,3.35,0,0,1-.59.39,3.15,3.15,0,0,1-.69.25,3.38,3.38,0,0,1-.8.09,2.77,2.77,0,0,1-1.22-.28,2.83,2.83,0,0,1-.95-.82,4,4,0,0,1-.63-1.33,6.5,6.5,0,0,1-.22-1.79,5.57,5.57,0,0,1,.25-1.71,4.14,4.14,0,0,1,.71-1.37,3.48,3.48,0,0,1,1.12-.9,3.23,3.23,0,0,1,1.46-.33,2.73,2.73,0,0,1,2,.74V146Zm-2.21,5.82a1.73,1.73,0,0,0-.68-.5,2,2,0,0,0-.77-.15,1.74,1.74,0,0,0-.73.16,1.4,1.4,0,0,0-.56.47,2.45,2.45,0,0,0-.37.83,5.29,5.29,0,0,0-.12,1.2,5.6,5.6,0,0,0,.1,1.17,2.21,2.21,0,0,0,.3.77,1.09,1.09,0,0,0,.48.43,1.38,1.38,0,0,0,.62.13,1.85,1.85,0,0,0,1-.23,3,3,0,0,0,.75-.65Z"/><path class="cls-5" d="M242.29,154.1a2.62,2.62,0,0,0,.66,1.7,2,2,0,0,0,1.45.53,2.66,2.66,0,0,0,.79-.1,4.62,4.62,0,0,0,.58-.24l.46-.24a.76.76,0,0,1,.4-.11.46.46,0,0,1,.4.19l.64.8a3.52,3.52,0,0,1-.77.68,4.16,4.16,0,0,1-.88.42,5.33,5.33,0,0,1-.92.22,7,7,0,0,1-.9.06,4.47,4.47,0,0,1-1.61-.29,3.68,3.68,0,0,1-1.31-.84,3.87,3.87,0,0,1-.87-1.38,5.1,5.1,0,0,1-.32-1.91,4.56,4.56,0,0,1,.27-1.58,3.84,3.84,0,0,1,.8-1.3,3.91,3.91,0,0,1,1.26-.88,4.3,4.3,0,0,1,1.68-.32,4,4,0,0,1,1.46.25,3.32,3.32,0,0,1,1.16.73,3.41,3.41,0,0,1,.75,1.18,4.44,4.44,0,0,1,.27,1.6,2.29,2.29,0,0,1,0,.41.57.57,0,0,1-.08.25.33.33,0,0,1-.15.14.85.85,0,0,1-.25,0Zm3.47-1.31a2.39,2.39,0,0,0-.09-.66,1.42,1.42,0,0,0-.8-.93,1.76,1.76,0,0,0-.73-.14,1.69,1.69,0,0,0-1.24.45,2.28,2.28,0,0,0-.58,1.28Z"/><path class="cls-5" d="M251.33,146v11.93h-2.21V146Z"/><path class="cls-5" d="M255.7,147.29a1.13,1.13,0,0,1-.11.52,1.28,1.28,0,0,1-.3.43,1.35,1.35,0,0,1-.44.29,1.4,1.4,0,0,1-.54.1,1.25,1.25,0,0,1-.51-.1,1.3,1.3,0,0,1-.43-.29,1.42,1.42,0,0,1-.29-.43,1.13,1.13,0,0,1-.11-.52,1.16,1.16,0,0,1,.11-.52,1.55,1.55,0,0,1,.29-.43,1.3,1.3,0,0,1,.43-.29,1.45,1.45,0,0,1,.51-.1,1.62,1.62,0,0,1,.54.1,1.35,1.35,0,0,1,.44.29,1.39,1.39,0,0,1,.3.43A1.16,1.16,0,0,1,255.7,147.29Zm-.26,2.35v8.25h-2.21v-8.25Z"/><path class="cls-5" d="M259.38,150.6a4.23,4.23,0,0,1,.51-.44,4.15,4.15,0,0,1,.57-.35,3.31,3.31,0,0,1,.65-.22,3.52,3.52,0,0,1,.75-.08,3,3,0,0,1,1.2.23,2.55,2.55,0,0,1,.87.65,2.79,2.79,0,0,1,.54,1,4.28,4.28,0,0,1,.18,1.27v5.24h-2.2v-5.24a1.63,1.63,0,0,0-.32-1.07,1.19,1.19,0,0,0-.95-.38,2,2,0,0,0-.87.2,2.85,2.85,0,0,0-.77.56v5.93h-2.21v-8.25h1.36a.54.54,0,0,1,.55.38Z"/><path class="cls-5" d="M273.75,149.91v.81a.37.37,0,0,1-.11.3.67.67,0,0,1-.35.17l-.67.14a2.55,2.55,0,0,1,.13.84,2.32,2.32,0,0,1-.25,1.1,2.55,2.55,0,0,1-.69.84,3,3,0,0,1-1,.54,4.17,4.17,0,0,1-1.3.19,5.22,5.22,0,0,1-.82-.07c-.23.14-.34.29-.34.45a.35.35,0,0,0,.23.34,2,2,0,0,0,.6.15c.25,0,.53,0,.85,0l1,.05c.32,0,.65.08,1,.14a2.79,2.79,0,0,1,.85.33,1.75,1.75,0,0,1,.6.61,1.84,1.84,0,0,1,.23,1,2.33,2.33,0,0,1-.27,1.08,3,3,0,0,1-.79.92,3.81,3.81,0,0,1-1.27.66,5.3,5.3,0,0,1-1.71.25,6.66,6.66,0,0,1-1.65-.18,3.79,3.79,0,0,1-1.16-.48,2.06,2.06,0,0,1-.69-.69,1.63,1.63,0,0,1-.22-.82,1.36,1.36,0,0,1,.34-.94,2.32,2.32,0,0,1,.92-.61,1.57,1.57,0,0,1-.5-.46,1.37,1.37,0,0,1-.18-.74,1.48,1.48,0,0,1,.26-.78,2,2,0,0,1,.83-.68,2.64,2.64,0,0,1-1-.9,2.37,2.37,0,0,1-.37-1.31,2.46,2.46,0,0,1,.26-1.12,2.35,2.35,0,0,1,.7-.84,3.15,3.15,0,0,1,1-.53,4.68,4.68,0,0,1,1.32-.19,4,4,0,0,1,1.87.42Zm-2.19,8.31a.48.48,0,0,0-.14-.35,1,1,0,0,0-.36-.22,2.44,2.44,0,0,0-.54-.11c-.21,0-.43,0-.66-.06l-.73,0c-.25,0-.5,0-.74-.06a1.5,1.5,0,0,0-.46.4.79.79,0,0,0-.18.51.75.75,0,0,0,.09.37.8.8,0,0,0,.31.29,2.11,2.11,0,0,0,.57.19,5.35,5.35,0,0,0,.88.06,4.85,4.85,0,0,0,.92-.07,2.08,2.08,0,0,0,.61-.2.92.92,0,0,0,.33-.32A.77.77,0,0,0,271.56,158.22Zm-2.09-4.77a1.33,1.33,0,0,0,1-.34,1.26,1.26,0,0,0,.32-.89,1.23,1.23,0,0,0-.32-.89,1.74,1.74,0,0,0-2,0,1.23,1.23,0,0,0-.32.89,1.26,1.26,0,0,0,.33.89A1.28,1.28,0,0,0,269.47,153.45Z"/></g></g></svg>