<svg xmlns="http://www.w3.org/2000/svg" xmlns:xlink="http://www.w3.org/1999/xlink" viewBox="0 0 1440 160"><defs><style>.cls-1,.cls-10,.cls-11,.cls-12,.cls-16,.cls-8{fill:none;}.cls-2{isolation:isolate;}.cls-3{fill:url(#linear-gradient);}.cls-4,.cls-5,.cls-6,.cls-7{fill:#fff;mix-blend-mode:luminosity;}.cls-4{opacity:0.1;}.cls-5{opacity:0.09;}.cls-6{opacity:0.07;}.cls-7{opacity:0.05;}.cls-10,.cls-11,.cls-12,.cls-16,.cls-8{stroke:#fff;}.cls-10,.cls-12,.cls-8{stroke-miterlimit:10;}.cls-11,.cls-8{stroke-width:0.75px;}.cls-9{fill:#bf418e;}.cls-14,.cls-15,.cls-18,.cls-19,.cls-20,.cls-9{opacity:0.35;}.cls-10,.cls-12,.cls-16{stroke-width:0.5px;}.cls-10,.cls-16{stroke-dasharray:3 1;}.cls-13,.cls-14{fill:#8e4f9e;}.cls-15{fill:#b5499a;}.cls-17{opacity:0.7;}.cls-18{fill:#d1d1d1;}.cls-19{fill:#a364a0;}.cls-20{fill:#e5d06c;}.cls-21{clip-path:url(#clip-path);}.cls-22{clip-path:url(#clip-path-2);}</style><linearGradient id="linear-gradient" y1="74.9" x2="1440" y2="74.9" gradientUnits="userSpaceOnUse"><stop offset="0" stop-color="#86a3b4"/><stop offset="0.02" stop-color="#7e9aad"/><stop offset="0.13" stop-color="#607892"/><stop offset="0.24" stop-color="#495d7c"/><stop offset="0.35" stop-color="#384a6d"/><stop offset="0.46" stop-color="#2e3f64"/><stop offset="0.58" stop-color="#2b3b61"/></linearGradient><clipPath id="clip-path"><rect class="cls-1" x="92.24" y="-1" width="198.41" height="12.97"/></clipPath><clipPath id="clip-path-2"><rect class="cls-1" x="76.61" y="143.84" width="724.37" height="16.86"/></clipPath></defs><title>homepage_bg_180h_4</title><g class="cls-2"><g id="Layer_2" data-name="Layer 2"><rect class="cls-3" y="-10.19" width="1440" height="170.19"/><rect class="cls-4" x="387.04" width="2.82" height="160"/><rect class="cls-5" x="174.41" width="2.82" height="160"/><rect class="cls-6" x="97.58" width="2.82" height="160"/><rect class="cls-4" x="276.13" width="2.82" height="160"/><rect class="cls-7" x="51.59" width="2.82" height="160"/><rect class="cls-4" x="530.42" width="2.82" height="160"/><rect class="cls-4" x="672.72" width="2.82" height="160"/><rect class="cls-4" x="784.72" width="2.82" height="160"/><path class="cls-8" d="M1304.83,51.76V65M1196.76,51.76V65h135.39V51.76Zm0,6.61H1116m216.2,0h115.47M1116,55.06v6.62m331.67-6.62v6.62"/><path class="cls-9" d="M1063,62a3.6,3.6,0,1,1,4-3.59A3.81,3.81,0,0,1,1063,62Z"/><path class="cls-9" d="M1065.41,62a3.6,3.6,0,1,1,4-3.59A3.8,3.8,0,0,1,1065.41,62Z"/><path class="cls-10" d="M1290,51.76V65"/><path class="cls-11" d="M1277.14,94.13v13.25m-10.71-13.25v13.25h14.44V94.13Zm0,6.62h-5.61m20,0h3.61m-23.66-3.31v6.62m23.66-6.62v6.62"/><path class="cls-10" d="M1274.44,94.13v13.25"/><path class="cls-12" d="M1176.45,30.56V43.8M1082,30.56V43.8h215.64V30.56Zm0,6.62h-70.74m286.38,0h76.72m-363.1-3.31v6.62m363.1-6.62v6.62"/><path class="cls-10" d="M1180.44,30.56V43.8"/><path class="cls-13" d="M931.11,40.41a3.43,3.43,0,0,1-3.59-3.23,3.61,3.61,0,0,1,7.18,0A3.43,3.43,0,0,1,931.11,40.41Z"/><path class="cls-14" d="M747.15,40.76a3.79,3.79,0,0,1-4-3.58,4,4,0,0,1,8,0A3.8,3.8,0,0,1,747.15,40.76Z"/><path class="cls-14" d="M750.79,40.76a3.79,3.79,0,0,1-4-3.58,4,4,0,0,1,8,0A3.79,3.79,0,0,1,750.79,40.76Z"/><path class="cls-14" d="M751.21,40.76a3.8,3.8,0,0,1-4-3.58,4,4,0,0,1,8,0A3.79,3.79,0,0,1,751.21,40.76Z"/><path class="cls-14" d="M777.9,40.76a3.79,3.79,0,0,1-4-3.58,4,4,0,0,1,8,0A3.79,3.79,0,0,1,777.9,40.76Z"/><path class="cls-14" d="M843,40.76a3.79,3.79,0,0,1-4-3.58,4,4,0,0,1,8,0A3.8,3.8,0,0,1,843,40.76Z"/><path class="cls-8" d="M1131.93,73V86.18M1101,73V86.18h74V73Zm0,6.62H977.25m197.7,0h59.33m-257-3.31v6.61m257-6.61v6.61"/><path class="cls-15" d="M870.53,83.15a3.61,3.61,0,1,1,4-3.57A3.82,3.82,0,0,1,870.53,83.15Z"/><path class="cls-15" d="M1272.89,83.15a3.61,3.61,0,1,1,4-3.57A3.82,3.82,0,0,1,1272.89,83.15Z"/><path class="cls-15" d="M1282.83,83.15a3.6,3.6,0,1,1,4-3.57A3.81,3.81,0,0,1,1282.83,83.15Z"/><path class="cls-10" d="M1128.76,73V86.18"/><path class="cls-14" d="M776.23,83.15a3.61,3.61,0,1,1,4-3.58A3.8,3.8,0,0,1,776.23,83.15Z"/><path class="cls-14" d="M779.87,83.15a3.6,3.6,0,1,1,4-3.58A3.81,3.81,0,0,1,779.87,83.15Z"/><path class="cls-14" d="M780.29,83.15a3.6,3.6,0,1,1,4-3.58A3.81,3.81,0,0,1,780.29,83.15Z"/><path class="cls-14" d="M851.13,83.15a3.6,3.6,0,1,1,4-3.58A3.81,3.81,0,0,1,851.13,83.15Z"/><path class="cls-14" d="M944.88,83.15a3.6,3.6,0,1,1,4-3.58A3.81,3.81,0,0,1,944.88,83.15Z"/><path class="cls-11" d="M1273.22,115.33v13.24m-71.58-13.24v13.24h93.64V115.33Zm0,6.61H1151.3m144,0h64m-208-3.31v6.62m208-6.62v6.62"/><path class="cls-14" d="M886.49,125.53a3.6,3.6,0,1,1,4-3.58A3.8,3.8,0,0,1,886.49,125.53Z"/><path class="cls-14" d="M891.35,125.53a3.6,3.6,0,1,1,4-3.58A3.79,3.79,0,0,1,891.35,125.53Z"/><path class="cls-14" d="M907,125.53a3.6,3.6,0,1,1,4-3.58A3.79,3.79,0,0,1,907,125.53Z"/><path class="cls-14" d="M947.84,125.53a3.6,3.6,0,1,1,4-3.58A3.79,3.79,0,0,1,947.84,125.53Z"/><path class="cls-14" d="M981.43,125.53a3.6,3.6,0,1,1,4-3.58A3.79,3.79,0,0,1,981.43,125.53Z"/><path class="cls-14" d="M1051.05,125.53a3.6,3.6,0,1,1,4-3.58A3.8,3.8,0,0,1,1051.05,125.53Z"/><path class="cls-14" d="M1084.1,125.53a3.6,3.6,0,1,1,4-3.58A3.79,3.79,0,0,1,1084.1,125.53Z"/><path class="cls-14" d="M1113.19,125.53a3.6,3.6,0,1,1,4-3.58A3.79,3.79,0,0,1,1113.19,125.53Z"/><path class="cls-14" d="M1123.86,125.53a3.6,3.6,0,1,1,4-3.58A3.79,3.79,0,0,1,1123.86,125.53Z"/><path class="cls-14" d="M1374,125.53a3.6,3.6,0,1,1,4-3.58A3.8,3.8,0,0,1,1374,125.53Z"/><path class="cls-14" d="M1381.8,125.53a3.6,3.6,0,1,1,4-3.58A3.79,3.79,0,0,1,1381.8,125.53Z"/><path class="cls-14" d="M1394.87,125.53a3.6,3.6,0,1,1,4-3.58A3.8,3.8,0,0,1,1394.87,125.53Z"/><path class="cls-14" d="M1395.5,125.53a3.6,3.6,0,1,1,4-3.58A3.8,3.8,0,0,1,1395.5,125.53Z"/><path class="cls-10" d="M1275,115.33v13.24"/><path class="cls-11" d="M1191,136.52v13.25m-29.38-13.25v13.25h82.48V136.52Zm0,6.62h-91.1m173.58,0H1336m-265.52-3.31v6.63M1336,139.83v6.63"/><path class="cls-14" d="M839.56,146.72a3.6,3.6,0,1,1,4-3.58A3.79,3.79,0,0,1,839.56,146.72Z"/><path class="cls-14" d="M951.19,146.72a3.6,3.6,0,1,1,4-3.58A3.79,3.79,0,0,1,951.19,146.72Z"/><path class="cls-14" d="M850.52,146.72a3.6,3.6,0,1,1,4-3.58A3.79,3.79,0,0,1,850.52,146.72Z"/><path class="cls-14" d="M992.05,146.72a3.6,3.6,0,1,1,4-3.58A3.8,3.8,0,0,1,992.05,146.72Z"/><path class="cls-10" d="M1188.22,136.52v13.25"/><path class="cls-14" d="M640.66,19.57a3.79,3.79,0,0,1-4-3.58,4,4,0,0,1,8,0A3.79,3.79,0,0,1,640.66,19.57Z"/><path class="cls-14" d="M644.29,19.57a3.79,3.79,0,0,1-4-3.58,4,4,0,0,1,8,0A3.8,3.8,0,0,1,644.29,19.57Z"/><path class="cls-14" d="M674.16,19.57a3.8,3.8,0,0,1-4-3.58,4,4,0,0,1,8,0A3.79,3.79,0,0,1,674.16,19.57Z"/><path class="cls-11" d="M1214.14,9.37V22.61M911.78,9.37V22.61h408.86V9.37Zm0,6.62H696m624.64,0h30.84M696,12.68V19.3m655.48-6.62V19.3"/><path class="cls-16" d="M1061.9,9.37V22.61"/><g class="cls-17"><path class="cls-18" d="M590.85,131.39a7.62,7.62,0,1,1-7.63-7.6h0A7.62,7.62,0,0,1,590.85,131.39Z"/><path class="cls-18" d="M619.37,131.39a7.56,7.56,0,1,1-7.57-7.55h0A7.56,7.56,0,0,1,619.37,131.39Z"/><path class="cls-18" d="M605.49,131.39A7.44,7.44,0,1,1,598,124h0A7.44,7.44,0,0,1,605.49,131.39Z"/><path class="cls-18" d="M617.69,131.39a7.62,7.62,0,1,1-7.63-7.6h0A7.61,7.61,0,0,1,617.69,131.39Z"/><path class="cls-18" d="M585.57,131.39a7.57,7.57,0,1,1-7.58-7.55h0A7.58,7.58,0,0,1,585.57,131.39Z"/><path class="cls-18" d="M591,131.39a8.16,8.16,0,1,1-8.18-8.15h0A8.18,8.18,0,0,1,591,131.39Z"/><path class="cls-19" d="M591.59,131.39a7.66,7.66,0,1,1-7.67-7.65,7.67,7.67,0,0,1,7.67,7.65Z"/><path class="cls-18" d="M627.08,131.39a7.31,7.31,0,1,1-7.32-7.29,7.31,7.31,0,0,1,7.32,7.29Z"/><path class="cls-18" d="M611.58,131.39a7.58,7.58,0,1,1-7.58-7.56h0A7.56,7.56,0,0,1,611.58,131.39Z"/><path class="cls-18" d="M621.3,131.39a7.72,7.72,0,1,1-7.73-7.7,7.72,7.72,0,0,1,7.73,7.7Z"/><path class="cls-18" d="M623.63,131.39a7.56,7.56,0,1,1-7.57-7.55h0A7.56,7.56,0,0,1,623.63,131.39Z"/><path class="cls-19" d="M592.46,131.39a7.62,7.62,0,1,1-7.63-7.6h0A7.62,7.62,0,0,1,592.46,131.39Z"/><path class="cls-18" d="M628,131.39a7.85,7.85,0,1,1-7.85-7.83,7.84,7.84,0,0,1,7.85,7.83Z"/><path class="cls-18" d="M620.81,131.39a7.75,7.75,0,1,1-7.76-7.73h0A7.74,7.74,0,0,1,620.81,131.39Z"/><path class="cls-18" d="M639.75,131.39a7.53,7.53,0,1,1-7.54-7.52h0A7.52,7.52,0,0,1,639.75,131.39Z"/><path class="cls-18" d="M623.72,131.39A7.71,7.71,0,1,1,616,123.7h0A7.71,7.71,0,0,1,623.72,131.39Z"/><path class="cls-18" d="M613.45,131.39a7.85,7.85,0,1,1-7.86-7.83,7.84,7.84,0,0,1,7.86,7.83Z"/><path class="cls-18" d="M618.63,131.39a7.48,7.48,0,1,1-7.48-7.46A7.47,7.47,0,0,1,618.63,131.39Z"/><path class="cls-18" d="M610.09,131.39a7.62,7.62,0,1,1-7.63-7.6h0A7.62,7.62,0,0,1,610.09,131.39Z"/><path class="cls-18" d="M611.54,131.39a7.65,7.65,0,1,1-7.66-7.63h0A7.64,7.64,0,0,1,611.54,131.39Z"/><path class="cls-18" d="M623.78,131.39a7.55,7.55,0,1,1-7.56-7.53h0A7.55,7.55,0,0,1,623.78,131.39Z"/><path class="cls-18" d="M606.53,131.39a7.47,7.47,0,1,1-7.47-7.45h0A7.47,7.47,0,0,1,606.53,131.39Z"/><path class="cls-18" d="M607.14,131.39a7.66,7.66,0,1,1-7.67-7.65,7.67,7.67,0,0,1,7.67,7.65Z"/><path class="cls-18" d="M632.26,131.39a7.85,7.85,0,1,1-7.86-7.83,7.84,7.84,0,0,1,7.86,7.83Z"/><path class="cls-18" d="M601.83,131.39a7.85,7.85,0,1,1-7.86-7.83,7.84,7.84,0,0,1,7.86,7.83Z"/><path class="cls-18" d="M592.13,131.39a7.83,7.83,0,1,1-7.84-7.82A7.83,7.83,0,0,1,592.13,131.39Z"/><path class="cls-18" d="M476.69,131.4a8,8,0,1,1-8-8h0A8,8,0,0,1,476.69,131.4Z"/><path class="cls-18" d="M456.41,131.4a8.15,8.15,0,1,1-8.14-8.14h0A8.14,8.14,0,0,1,456.41,131.4Z"/><path class="cls-18" d="M450,131.4a7.86,7.86,0,1,1-7.86-7.86h0A7.86,7.86,0,0,1,450,131.4Z"/><path class="cls-18" d="M479.63,131.4a7.74,7.74,0,1,1-7.74-7.73,7.74,7.74,0,0,1,7.74,7.73Z"/><path class="cls-18" d="M384.63,131.4a7.75,7.75,0,1,1-7.75-7.74h0A7.75,7.75,0,0,1,384.63,131.4Z"/><path class="cls-18" d="M483.34,131.4a7.75,7.75,0,1,1-7.74-7.74h0A7.75,7.75,0,0,1,483.34,131.4Z"/><path class="cls-19" d="M491.37,131.4a7.56,7.56,0,1,1-7.56-7.56h0A7.56,7.56,0,0,1,491.37,131.4Z"/><path class="cls-19" d="M345.83,131.4a7.56,7.56,0,1,1-7.56-7.56h0A7.57,7.57,0,0,1,345.83,131.4Z"/><path class="cls-18" d="M442.56,131.4a8.66,8.66,0,1,1-8.66-8.65h0A8.66,8.66,0,0,1,442.56,131.4Z"/><path class="cls-18" d="M406.27,131.4a7.76,7.76,0,1,1-7.76-7.76,7.76,7.76,0,0,1,7.76,7.76Z"/><path class="cls-18" d="M470.3,131.4a8.29,8.29,0,1,1-8.29-8.28h0A8.29,8.29,0,0,1,470.3,131.4Z"/><path class="cls-18" d="M455.59,131.4a7.79,7.79,0,1,1-7.79-7.79h0A7.79,7.79,0,0,1,455.59,131.4Z"/><path class="cls-18" d="M437.63,131.4a7.94,7.94,0,1,1-7.93-7.93h0A7.93,7.93,0,0,1,437.63,131.4Z"/></g><g class="cls-17"><path class="cls-19" d="M149.32,78.86a7.75,7.75,0,1,1-7.75-7.74h0A7.74,7.74,0,0,1,149.32,78.86Z"/><path class="cls-18" d="M261.15,78.83a7.72,7.72,0,1,1-7.71-7.71,7.71,7.71,0,0,1,7.71,7.71Z"/><path class="cls-19" d="M320.76,79a7.89,7.89,0,1,1-7.89-7.89A7.89,7.89,0,0,1,320.76,79Z"/><path class="cls-18" d="M288.16,79a7.85,7.85,0,1,1-7.85-7.84A7.85,7.85,0,0,1,288.16,79Z"/><path class="cls-19" d="M64,78.89a7.78,7.78,0,1,1-7.77-7.77A7.77,7.77,0,0,1,64,78.89Z"/><path class="cls-18" d="M328.46,78.65a7.53,7.53,0,1,1-7.53-7.53h0A7.53,7.53,0,0,1,328.46,78.65Z"/><path class="cls-18" d="M324.75,79a7.86,7.86,0,1,1-7.86-7.86h0A7.86,7.86,0,0,1,324.75,79Z"/><path class="cls-18" d="M314.79,78.64a7.52,7.52,0,1,1-7.52-7.52h0A7.52,7.52,0,0,1,314.79,78.64Z"/><path class="cls-18" d="M209.33,78.81a7.7,7.7,0,1,1-7.69-7.69h0A7.69,7.69,0,0,1,209.33,78.81Z"/><path class="cls-18" d="M295.11,79.22a8.11,8.11,0,1,1-8.11-8.1h0A8.1,8.1,0,0,1,295.11,79.22Z"/><path class="cls-18" d="M323.81,78.85a7.74,7.74,0,1,1-7.74-7.73,7.73,7.73,0,0,1,7.74,7.73Z"/><path class="cls-18" d="M295.93,78.78a7.66,7.66,0,1,1-7.66-7.66,7.66,7.66,0,0,1,7.66,7.66Z"/><path class="cls-18" d="M258.63,78.83a7.72,7.72,0,1,1-7.71-7.71,7.71,7.71,0,0,1,7.71,7.71Z"/><path class="cls-18" d="M302.14,78.86a7.75,7.75,0,1,1-7.75-7.74h0A7.74,7.74,0,0,1,302.14,78.86Z"/><path class="cls-18" d="M336.15,78.38a7.26,7.26,0,1,1-7.26-7.26,7.26,7.26,0,0,1,7.26,7.26Z"/><path class="cls-18" d="M313.72,79.11a8,8,0,1,1-8-8,8,8,0,0,1,8,8Z"/><path class="cls-18" d="M313.48,78.89a7.78,7.78,0,1,1-7.78-7.77,7.78,7.78,0,0,1,7.78,7.77Z"/><path class="cls-18" d="M300.35,78.85a7.74,7.74,0,1,1-7.74-7.73,7.74,7.74,0,0,1,7.74,7.73Z"/><path class="cls-18" d="M284.7,79a7.84,7.84,0,1,1-7.84-7.83A7.84,7.84,0,0,1,284.7,79Z"/><path class="cls-18" d="M296.1,78.79a7.68,7.68,0,1,1-7.67-7.67h0A7.66,7.66,0,0,1,296.1,78.79Z"/><path class="cls-18" d="M277.93,78.91a7.79,7.79,0,1,1-7.79-7.79h0A7.79,7.79,0,0,1,277.93,78.91Z"/><path class="cls-18" d="M339.39,78.82a7.71,7.71,0,1,1-7.71-7.7h0A7.71,7.71,0,0,1,339.39,78.82Z"/><path class="cls-18" d="M336.07,78.68a7.56,7.56,0,1,1-7.56-7.56h0A7.56,7.56,0,0,1,336.07,78.68Z"/><path class="cls-18" d="M296.8,79.39a8.28,8.28,0,1,1-8.27-8.27h0A8.27,8.27,0,0,1,296.8,79.39Z"/><path class="cls-18" d="M307.74,78.86A7.75,7.75,0,1,1,300,71.12h0A7.74,7.74,0,0,1,307.74,78.86Z"/><path class="cls-18" d="M251.57,78.86a7.75,7.75,0,1,1-7.75-7.74h0A7.74,7.74,0,0,1,251.57,78.86Z"/><path class="cls-18" d="M308.59,78.68A7.56,7.56,0,1,1,301,71.12h0A7.55,7.55,0,0,1,308.59,78.68Z"/><path class="cls-18" d="M325.73,78.92a7.81,7.81,0,1,1-7.8-7.8,7.8,7.8,0,0,1,7.8,7.8Z"/><path class="cls-18" d="M291,78.75a7.63,7.63,0,1,1-7.63-7.63A7.62,7.62,0,0,1,291,78.75Z"/><path class="cls-18" d="M300.8,79A7.83,7.83,0,1,1,293,71.12,7.83,7.83,0,0,1,300.8,79Z"/><path class="cls-18" d="M255.07,79a7.9,7.9,0,1,1-7.9-7.9,7.89,7.89,0,0,1,7.9,7.9Z"/><path class="cls-18" d="M277.53,79a7.85,7.85,0,1,1-7.84-7.84A7.84,7.84,0,0,1,277.53,79Z"/><path class="cls-18" d="M331.75,78.92a7.8,7.8,0,1,1-7.8-7.8,7.8,7.8,0,0,1,7.8,7.8Z"/><path class="cls-18" d="M328.31,78.68a7.57,7.57,0,1,1-7.56-7.56h0A7.56,7.56,0,0,1,328.31,78.68Z"/><path class="cls-18" d="M254.9,78.85a7.73,7.73,0,1,1-7.73-7.73,7.73,7.73,0,0,1,7.73,7.73Z"/><path class="cls-18" d="M289,78.61a7.5,7.5,0,1,1-7.49-7.49h0A7.49,7.49,0,0,1,289,78.61Z"/><path class="cls-18" d="M290.65,78.51a7.39,7.39,0,1,1-7.39-7.39,7.39,7.39,0,0,1,7.39,7.39Z"/><path class="cls-18" d="M309.35,78.49A7.38,7.38,0,1,1,302,71.12a7.38,7.38,0,0,1,7.38,7.37Z"/><path class="cls-18" d="M298.94,78.81a7.69,7.69,0,1,1-7.69-7.69h0A7.69,7.69,0,0,1,298.94,78.81Z"/></g><g class="cls-17"><path class="cls-18" d="M215,53.38a8.26,8.26,0,1,1-8.26-8.26h0A8.26,8.26,0,0,1,215,53.38Z"/><path class="cls-18" d="M165.22,53.38a7.86,7.86,0,1,1-7.86-7.86h0A7.86,7.86,0,0,1,165.22,53.38Z"/><path class="cls-18" d="M186.82,53.38a7.61,7.61,0,1,1-7.61-7.6h0A7.61,7.61,0,0,1,186.82,53.38Z"/><path class="cls-18" d="M245.09,53.38a8.32,8.32,0,1,1-8.31-8.31h0A8.31,8.31,0,0,1,245.09,53.38Z"/><path class="cls-18" d="M219.57,53.38a8.09,8.09,0,1,1-8.08-8.09,8.09,8.09,0,0,1,8.08,8.09Z"/><path class="cls-18" d="M180.78,53.38A7.82,7.82,0,1,1,173,45.56a7.82,7.82,0,0,1,7.82,7.82Z"/><path class="cls-18" d="M297.89,53.38a8.28,8.28,0,1,1-8.27-8.27h0A8.27,8.27,0,0,1,297.89,53.38Z"/><path class="cls-18" d="M225.77,53.38a8.18,8.18,0,1,1-8.18-8.17h0A8.17,8.17,0,0,1,225.77,53.38Z"/><path class="cls-18" d="M270.09,53.38a8.19,8.19,0,1,1-8.19-8.19A8.18,8.18,0,0,1,270.09,53.38Z"/><path class="cls-19" d="M204.49,53.38a8.08,8.08,0,1,1-8.07-8.07,8.07,8.07,0,0,1,8.07,8.07Z"/><path class="cls-18" d="M277.5,53.38a7.86,7.86,0,1,1-7.86-7.86h0A7.86,7.86,0,0,1,277.5,53.38Z"/><path class="cls-18" d="M515.1,53.38a7.46,7.46,0,1,1-7.46-7.46h0A7.46,7.46,0,0,1,515.1,53.38Z"/><path class="cls-19" d="M399.29,53.38a7.58,7.58,0,1,1-7.57-7.57h0A7.57,7.57,0,0,1,399.29,53.38Z"/></g><g class="cls-17"><path class="cls-19" d="M256.77,27.38a7.64,7.64,0,1,1-7.63-7.64,7.64,7.64,0,0,1,7.63,7.64Z"/><path class="cls-19" d="M96.84,27.38a7.71,7.71,0,1,1-7.7-7.71h0A7.71,7.71,0,0,1,96.84,27.38Z"/><path class="cls-18" d="M245.11,27.38a7.53,7.53,0,1,1-7.53-7.54h0A7.54,7.54,0,0,1,245.11,27.38Z"/><path class="cls-18" d="M213.88,27.38a7.75,7.75,0,1,1-7.74-7.75h0A7.75,7.75,0,0,1,213.88,27.38Z"/><path class="cls-19" d="M76.61,27.38a7.54,7.54,0,1,1-7.54-7.54h0A7.55,7.55,0,0,1,76.61,27.38Z"/><path class="cls-19" d="M304.18,27.38a7.75,7.75,0,1,1-7.75-7.75h0A7.75,7.75,0,0,1,304.18,27.38Z"/><path class="cls-19" d="M45.27,27.38a7.86,7.86,0,1,1-7.86-7.86h0A7.85,7.85,0,0,1,45.27,27.38Z"/><path class="cls-18" d="M242.81,27.38a7.64,7.64,0,1,1-7.64-7.64,7.64,7.64,0,0,1,7.64,7.64Z"/><path class="cls-20" d="M155.74,27.38a7.55,7.55,0,1,1-7.54-7.55h0A7.55,7.55,0,0,1,155.74,27.38Z"/><path class="cls-20" d="M242.88,27.38a7.58,7.58,0,1,1-7.58-7.58h0A7.58,7.58,0,0,1,242.88,27.38Z"/><path class="cls-18" d="M243.52,27.38a7.71,7.71,0,1,1-7.71-7.71h0A7.71,7.71,0,0,1,243.52,27.38Z"/><path class="cls-18" d="M309.08,27.38a8,8,0,1,1-8-8h0A8,8,0,0,1,309.08,27.38Z"/><path class="cls-20" d="M176.92,27.38a7.82,7.82,0,1,1-7.82-7.82,7.82,7.82,0,0,1,7.82,7.82Z"/><path class="cls-20" d="M264.7,27.38A7.42,7.42,0,1,1,257.28,20a7.42,7.42,0,0,1,7.42,7.42Z"/><path class="cls-18" d="M256.81,27.38a8,8,0,1,1-8-8h0A8,8,0,0,1,256.81,27.38Z"/><path class="cls-20" d="M236.18,27.38a8.3,8.3,0,1,1-8.3-8.31h0A8.3,8.3,0,0,1,236.18,27.38Z"/><path class="cls-18" d="M211.75,27.38a7.22,7.22,0,1,1-7.22-7.22h0A7.22,7.22,0,0,1,211.75,27.38Z"/><path class="cls-19" d="M224.48,27.38A7.42,7.42,0,1,1,217.06,20a7.42,7.42,0,0,1,7.42,7.42Z"/><path class="cls-18" d="M256.46,27.38a7.87,7.87,0,1,1-7.87-7.86h0A7.86,7.86,0,0,1,256.46,27.38Z"/><path class="cls-18" d="M186.9,27.38A7.35,7.35,0,1,1,179.55,20h0A7.35,7.35,0,0,1,186.9,27.38Z"/><path class="cls-18" d="M281.35,27.38a7.92,7.92,0,1,1-7.92-7.92,7.92,7.92,0,0,1,7.92,7.92Z"/><path class="cls-18" d="M209.48,27.38A7.49,7.49,0,1,1,202,19.89h0A7.49,7.49,0,0,1,209.48,27.38Z"/><path class="cls-18" d="M107.85,27.38A7.81,7.81,0,1,1,100,19.57a7.81,7.81,0,0,1,7.81,7.81Z"/><path class="cls-19" d="M263.9,27.38a7.63,7.63,0,1,1-7.63-7.64,7.63,7.63,0,0,1,7.63,7.64Z"/><path class="cls-18" d="M308.14,27.38a7.72,7.72,0,1,1-7.72-7.72,7.72,7.72,0,0,1,7.72,7.72Z"/><path class="cls-19" d="M366.62,27.38a7.76,7.76,0,1,1-7.76-7.77,7.76,7.76,0,0,1,7.76,7.77Z"/><path class="cls-19" d="M370,27.38a7.86,7.86,0,1,1-7.86-7.86h0A7.85,7.85,0,0,1,370,27.38Z"/><path class="cls-19" d="M394.13,27.38a7.93,7.93,0,1,1-7.93-7.94h0A7.94,7.94,0,0,1,394.13,27.38Z"/><path class="cls-19" d="M416.11,27.38a7.49,7.49,0,1,1-7.49-7.49h0A7.49,7.49,0,0,1,416.11,27.38Z"/><path class="cls-19" d="M361.52,27.38a7.71,7.71,0,1,1-7.7-7.71h0A7.71,7.71,0,0,1,361.52,27.38Z"/><path class="cls-18" d="M476.71,27.38a7.58,7.58,0,1,1-7.57-7.58h0A7.57,7.57,0,0,1,476.71,27.38Z"/><path class="cls-18" d="M506.16,27.38a7.65,7.65,0,1,1-7.64-7.65h0A7.64,7.64,0,0,1,506.16,27.38Z"/><path class="cls-18" d="M546.11,27.38a7.85,7.85,0,1,1-7.85-7.85,7.84,7.84,0,0,1,7.85,7.85Z"/><path class="cls-20" d="M359.3,27.38a7.48,7.48,0,1,1-7.48-7.48A7.47,7.47,0,0,1,359.3,27.38Z"/><path class="cls-18" d="M475.35,27.38a7.58,7.58,0,1,1-7.58-7.58h0A7.58,7.58,0,0,1,475.35,27.38Z"/><path class="cls-18" d="M534.59,27.38a7.75,7.75,0,1,1-7.75-7.75h0A7.75,7.75,0,0,1,534.59,27.38Z"/><path class="cls-19" d="M421.06,27.38a8.2,8.2,0,1,1-8.2-8.21,8.2,8.2,0,0,1,8.2,8.21Z"/><path class="cls-19" d="M405,27.38a7.65,7.65,0,1,1-7.65-7.65h0A7.65,7.65,0,0,1,405,27.38Z"/><path class="cls-19" d="M335.63,27.38a7.72,7.72,0,1,1-7.72-7.72,7.72,7.72,0,0,1,7.72,7.72Z"/><path class="cls-19" d="M431.37,27.38a7.78,7.78,0,1,1-7.77-7.78,7.77,7.77,0,0,1,7.77,7.78Z"/><path class="cls-19" d="M338.66,27.38a8,8,0,1,1-8-8,8,8,0,0,1,8,8Z"/><path class="cls-19" d="M372.09,27.38a7.84,7.84,0,1,1-7.83-7.84A7.84,7.84,0,0,1,372.09,27.38Z"/><path class="cls-19" d="M360.78,27.38a7.93,7.93,0,1,1-7.93-7.94h0A7.94,7.94,0,0,1,360.78,27.38Z"/><path class="cls-18" d="M535,27.38a7.47,7.47,0,1,1-7.47-7.47h0A7.46,7.46,0,0,1,535,27.38Z"/><path class="cls-19" d="M436.34,27.38a7.84,7.84,0,1,1-7.83-7.84A7.84,7.84,0,0,1,436.34,27.38Z"/><path class="cls-19" d="M358.52,27.38A7.42,7.42,0,1,1,351.1,20a7.42,7.42,0,0,1,7.42,7.42Z"/></g><g class="cls-17"><path class="cls-18" d="M337.08,105.72a8,8,0,1,1-8-8h0A8,8,0,0,1,337.08,105.72Z"/><path class="cls-18" d="M335.17,105.4a8.35,8.35,0,1,1-8.35-8.35h0A8.35,8.35,0,0,1,335.17,105.4Z"/><path class="cls-18" d="M262.56,105.92a7.82,7.82,0,1,1-7.82-7.81,7.82,7.82,0,0,1,7.82,7.81Z"/><path class="cls-18" d="M352.28,105.85A7.89,7.89,0,1,1,344.39,98a7.89,7.89,0,0,1,7.89,7.89Z"/><path class="cls-18" d="M354.1,105.87A7.88,7.88,0,1,1,346.22,98a7.87,7.87,0,0,1,7.88,7.88Z"/><path class="cls-18" d="M309,105.85A7.89,7.89,0,1,1,301.07,98a7.89,7.89,0,0,1,7.89,7.89Z"/><path class="cls-20" d="M361.74,106.19a7.55,7.55,0,1,1-7.54-7.54h0A7.55,7.55,0,0,1,361.74,106.19Z"/><path class="cls-18" d="M523.75,106.21a7.52,7.52,0,1,1-7.53-7.51h0A7.53,7.53,0,0,1,523.75,106.21Z"/><path class="cls-19" d="M488,106.14a7.59,7.59,0,1,1-7.6-7.58h0A7.59,7.59,0,0,1,488,106.14Z"/><path class="cls-18" d="M546.91,106.08a7.65,7.65,0,1,1-7.66-7.63h0A7.65,7.65,0,0,1,546.91,106.08Z"/><path class="cls-18" d="M569.35,106.28a7.45,7.45,0,1,1-7.46-7.43,7.44,7.44,0,0,1,7.46,7.43Z"/><path class="cls-18" d="M554.34,105.84a7.89,7.89,0,1,1-7.9-7.88,7.88,7.88,0,0,1,7.9,7.88Z"/><path class="cls-18" d="M519.18,106.17a7.57,7.57,0,1,1-7.57-7.55h0A7.56,7.56,0,0,1,519.18,106.17Z"/><path class="cls-18" d="M568.78,106.23a7.51,7.51,0,1,1-7.52-7.5,7.5,7.5,0,0,1,7.52,7.5Z"/><path class="cls-18" d="M513.43,105.73a8,8,0,1,1-8-8,8,8,0,0,1,8,8Z"/><path class="cls-18" d="M551.08,105.7a8,8,0,1,1-8.05-8h0A8,8,0,0,1,551.08,105.7Z"/><path class="cls-18" d="M559,106.21a7.52,7.52,0,1,1-7.53-7.51h0A7.53,7.53,0,0,1,559,106.21Z"/><path class="cls-18" d="M532.14,106.06a7.68,7.68,0,1,1-7.69-7.67h0A7.68,7.68,0,0,1,532.14,106.06Z"/><path class="cls-18" d="M550.89,106.53a7.21,7.21,0,1,1-7.21-7.2h0A7.2,7.2,0,0,1,550.89,106.53Z"/><path class="cls-18" d="M527.81,106.08a7.65,7.65,0,1,1-7.66-7.63h0A7.65,7.65,0,0,1,527.81,106.08Z"/><path class="cls-18" d="M565.88,106.11a7.62,7.62,0,1,1-7.63-7.61h0A7.63,7.63,0,0,1,565.88,106.11Z"/><path class="cls-18" d="M538.36,105.71a8,8,0,1,1-8-8h0A8,8,0,0,1,538.36,105.71Z"/><path class="cls-18" d="M560.42,105.83a7.91,7.91,0,1,1-7.91-7.9,7.9,7.9,0,0,1,7.91,7.9Z"/><path class="cls-18" d="M548.29,106.08a7.65,7.65,0,1,1-7.66-7.63h0A7.65,7.65,0,0,1,548.29,106.08Z"/><path class="cls-18" d="M535.43,106a7.72,7.72,0,1,1-7.73-7.7,7.72,7.72,0,0,1,7.73,7.7Z"/><path class="cls-18" d="M616.09,106.24a7.49,7.49,0,1,1-7.5-7.48h0A7.49,7.49,0,0,1,616.09,106.24Z"/><path class="cls-18" d="M385.7,106.61a7.14,7.14,0,1,1-7.13-7.14,7.13,7.13,0,0,1,7.13,7.14Z"/><path class="cls-18" d="M402.59,105.92a7.82,7.82,0,1,1-7.82-7.81,7.82,7.82,0,0,1,7.82,7.81Z"/><path class="cls-18" d="M416.05,106.1a7.65,7.65,0,1,1-7.65-7.65h0A7.65,7.65,0,0,1,416.05,106.1Z"/><path class="cls-18" d="M417.81,106a7.75,7.75,0,1,1-7.74-7.75h0A7.75,7.75,0,0,1,417.81,106Z"/><path class="cls-18" d="M370.45,106a7.75,7.75,0,1,1-7.75-7.75h0A7.75,7.75,0,0,1,370.45,106Z"/><path class="cls-18" d="M406.44,106.15a7.59,7.59,0,1,1-7.59-7.59h0A7.59,7.59,0,0,1,406.44,106.15Z"/><path class="cls-18" d="M402.22,106a7.72,7.72,0,1,1-7.72-7.71,7.71,7.71,0,0,1,7.72,7.71Z"/><path class="cls-20" d="M418.74,106.19a7.55,7.55,0,1,1-7.54-7.54h0A7.55,7.55,0,0,1,418.74,106.19Z"/><path class="cls-18" d="M453.42,105.88A7.87,7.87,0,1,1,445.55,98h0A7.86,7.86,0,0,1,453.42,105.88Z"/><path class="cls-18" d="M425.28,106.11a7.64,7.64,0,1,1-7.64-7.63,7.64,7.64,0,0,1,7.64,7.63Z"/><path class="cls-18" d="M446.4,106.52a7.23,7.23,0,1,1-7.23-7.22h0A7.23,7.23,0,0,1,446.4,106.52Z"/><path class="cls-18" d="M431.5,106.37A7.38,7.38,0,1,1,424.12,99a7.37,7.37,0,0,1,7.38,7.38Z"/><path class="cls-18" d="M458.56,105.67a8.08,8.08,0,1,1-8.08-8.08,8.07,8.07,0,0,1,8.08,8.08Z"/><path class="cls-18" d="M439.13,106a7.73,7.73,0,1,1-7.73-7.73,7.73,7.73,0,0,1,7.73,7.73Z"/><path class="cls-18" d="M442.74,105.47a8.28,8.28,0,1,1-8.28-8.28h0A8.28,8.28,0,0,1,442.74,105.47Z"/><path class="cls-18" d="M457.46,105.63a8.12,8.12,0,1,1-8.12-8.12h0A8.11,8.11,0,0,1,457.46,105.63Z"/></g><g class="cls-17"><g class="cls-21"><path class="cls-18" d="M266.91,2.53a7.83,7.83,0,1,1-7.84-7.82A7.83,7.83,0,0,1,266.91,2.53Z"/><path class="cls-18" d="M188,2.72a8,8,0,1,1-8-8h0A8,8,0,0,1,188,2.72Z"/><path class="cls-18" d="M216.29,2.6a7.91,7.91,0,1,1-7.91-7.89,7.9,7.9,0,0,1,7.91,7.89Z"/><path class="cls-18" d="M206.12,2.45a7.75,7.75,0,1,1-7.75-7.74h0A7.74,7.74,0,0,1,206.12,2.45Z"/><path class="cls-18" d="M156.4,2.18a7.48,7.48,0,1,1-7.49-7.47A7.46,7.46,0,0,1,156.4,2.18Z"/><path class="cls-18" d="M160.53,2.63a7.93,7.93,0,1,1-7.94-7.92h0A7.92,7.92,0,0,1,160.53,2.63Z"/><path class="cls-18" d="M141.61,2a7.31,7.31,0,1,1-7.31-7.3A7.3,7.3,0,0,1,141.61,2Z"/><path class="cls-18" d="M214.17,2.08a7.38,7.38,0,1,1-7.39-7.37,7.37,7.37,0,0,1,7.39,7.37Z"/><path class="cls-18" d="M230,3.33a8.63,8.63,0,1,1-8.64-8.62A8.63,8.63,0,0,1,230,3.33Z"/><path class="cls-18" d="M254.48,2.22A7.52,7.52,0,1,1,247-5.29h0A7.52,7.52,0,0,1,254.48,2.22Z"/><path class="cls-18" d="M216.38,2.19a7.49,7.49,0,1,1-7.5-7.48h0A7.49,7.49,0,0,1,216.38,2.19Z"/><path class="cls-18" d="M214.2,2.13a7.44,7.44,0,1,1-7.45-7.42h0A7.44,7.44,0,0,1,214.2,2.13Z"/><path class="cls-18" d="M227.73,2.69a8,8,0,1,1-8-8,8,8,0,0,1,8,8Z"/><path class="cls-18" d="M204.87,2.25a7.55,7.55,0,1,1-7.56-7.54h0A7.55,7.55,0,0,1,204.87,2.25Z"/><path class="cls-18" d="M237.8,3.26a8.56,8.56,0,1,1-8.58-8.55,8.57,8.57,0,0,1,8.58,8.55Z"/><path class="cls-18" d="M223.68,2.59a7.89,7.89,0,1,1-7.9-7.88,7.88,7.88,0,0,1,7.9,7.88Z"/><path class="cls-19" d="M199.73,2.59a7.89,7.89,0,1,1-7.9-7.88,7.89,7.89,0,0,1,7.9,7.88Z"/><path class="cls-19" d="M113.85,2.4a7.69,7.69,0,1,1-7.69-7.69h0A7.69,7.69,0,0,1,113.85,2.4Z"/><path class="cls-18" d="M278.76,2.54a7.83,7.83,0,1,1-7.83-7.83A7.83,7.83,0,0,1,278.76,2.54Z"/><path class="cls-18" d="M234.17,2.32a7.61,7.61,0,1,1-7.61-7.61h0A7.61,7.61,0,0,1,234.17,2.32Z"/></g></g><g class="cls-17"><g class="cls-22"><path class="cls-18" d="M632.81,156.68a7.49,7.49,0,1,1-7.5-7.48h0A7.48,7.48,0,0,1,632.81,156.68Z"/><path class="cls-18" d="M657.16,156.68a7.42,7.42,0,1,1-7.43-7.41,7.42,7.42,0,0,1,7.43,7.41Z"/><path class="cls-18" d="M626.87,156.68a7.46,7.46,0,1,1-7.47-7.45h0A7.45,7.45,0,0,1,626.87,156.68Z"/><path class="cls-18" d="M611.05,156.68a7.52,7.52,0,1,1-7.53-7.51h0A7.53,7.53,0,0,1,611.05,156.68Z"/><path class="cls-18" d="M647.28,156.68a7.58,7.58,0,1,1-7.59-7.57h0A7.59,7.59,0,0,1,647.28,156.68Z"/><path class="cls-18" d="M654.39,156.68a7.89,7.89,0,1,1-7.9-7.88,7.89,7.89,0,0,1,7.9,7.88Z"/><path class="cls-19" d="M135.41,156.68a7.91,7.91,0,1,1-7.92-7.89,7.91,7.91,0,0,1,7.92,7.89Z"/><path class="cls-19" d="M662.08,156.68a7.91,7.91,0,1,1-7.92-7.89,7.92,7.92,0,0,1,7.92,7.89Z"/><path class="cls-19" d="M383.16,156.69a7.75,7.75,0,1,1-7.75-7.75h0A7.75,7.75,0,0,1,383.16,156.69Z"/><path class="cls-18" d="M358,156.69a7.12,7.12,0,1,1-7.12-7.12A7.12,7.12,0,0,1,358,156.69Z"/><path class="cls-18" d="M392.76,156.69a7.82,7.82,0,1,1-7.82-7.82,7.82,7.82,0,0,1,7.82,7.82Z"/><path class="cls-18" d="M126.22,156.69a7.44,7.44,0,1,1-7.43-7.43h0A7.43,7.43,0,0,1,126.22,156.69Z"/><path class="cls-18" d="M402.65,156.69a7.61,7.61,0,1,1-7.6-7.6h0A7.6,7.6,0,0,1,402.65,156.69Z"/><path class="cls-18" d="M414.63,156.69a8,8,0,1,1-8-8h0A8,8,0,0,1,414.63,156.69Z"/><path class="cls-18" d="M404.53,156.69a7.35,7.35,0,1,1-7.34-7.35h0A7.35,7.35,0,0,1,404.53,156.69Z"/><path class="cls-18" d="M383.67,156.69a7.44,7.44,0,1,1-7.43-7.43h0A7.43,7.43,0,0,1,383.67,156.69Z"/><path class="cls-18" d="M371.88,156.69a7.47,7.47,0,1,1-7.46-7.46h0A7.46,7.46,0,0,1,371.88,156.69Z"/><path class="cls-19" d="M243.19,156.69a7.72,7.72,0,1,1-7.72-7.72,7.72,7.72,0,0,1,7.72,7.72Z"/><path class="cls-19" d="M304.34,156.69a7.35,7.35,0,1,1-7.35-7.35h0A7.35,7.35,0,0,1,304.34,156.69Z"/><path class="cls-18" d="M416,156.69a7.58,7.58,0,1,1-7.57-7.58h0A7.58,7.58,0,0,1,416,156.69Z"/><path class="cls-18" d="M380.68,156.69A7.66,7.66,0,1,1,373,149a7.66,7.66,0,0,1,7.66,7.66Z"/><path class="cls-18" d="M391.72,156.69a7.52,7.52,0,1,1-7.52-7.52h0A7.52,7.52,0,0,1,391.72,156.69Z"/><path class="cls-18" d="M387.32,156.69A7.72,7.72,0,1,1,379.6,149a7.72,7.72,0,0,1,7.72,7.72Z"/><path class="cls-19" d="M414.9,156.69a7.63,7.63,0,1,1-7.63-7.63,7.62,7.62,0,0,1,7.63,7.63Z"/><path class="cls-18" d="M429.58,156.69a7.65,7.65,0,1,1-7.64-7.65h0A7.65,7.65,0,0,1,429.58,156.69Z"/><path class="cls-18" d="M433.41,156.69a7.62,7.62,0,1,1-7.62-7.62h0A7.62,7.62,0,0,1,433.41,156.69Z"/><path class="cls-18" d="M444.51,156.69a7.25,7.25,0,1,1-7.25-7.25h0A7.26,7.26,0,0,1,444.51,156.69Z"/><path class="cls-18" d="M441.83,156.69a7.51,7.51,0,1,1-7.51-7.5,7.51,7.51,0,0,1,7.51,7.5Z"/><path class="cls-18" d="M468.5,156.69a7.51,7.51,0,1,1-7.5-7.5,7.5,7.5,0,0,1,7.5,7.5Z"/><path class="cls-18" d="M432.79,156.69a8,8,0,1,1-8-8,8,8,0,0,1,8,8Z"/><path class="cls-18" d="M424.38,156.69a7.82,7.82,0,1,1-7.81-7.82,7.82,7.82,0,0,1,7.81,7.82Z"/><path class="cls-18" d="M431.79,156.69a7.91,7.91,0,1,1-7.9-7.9,7.91,7.91,0,0,1,7.9,7.9Z"/><path class="cls-18" d="M459.93,156.69a6.92,6.92,0,1,1-6.92-6.92h0A6.92,6.92,0,0,1,459.93,156.69Z"/><path class="cls-18" d="M434.34,156.69a7.49,7.49,0,1,1-7.49-7.49h0A7.49,7.49,0,0,1,434.34,156.69Z"/><path class="cls-18" d="M421.55,156.69a7.69,7.69,0,1,1-7.69-7.69h0A7.69,7.69,0,0,1,421.55,156.69Z"/><path class="cls-18" d="M420.61,156.69a7.79,7.79,0,1,1-7.79-7.79h0A7.79,7.79,0,0,1,420.61,156.69Z"/><path class="cls-18" d="M477,156.69a8.14,8.14,0,1,1-8.13-8.13,8.13,8.13,0,0,1,8.13,8.13Z"/><path class="cls-18" d="M439.67,156.69a7.4,7.4,0,1,1-7.4-7.39,7.39,7.39,0,0,1,7.4,7.39Z"/><path class="cls-18" d="M440.12,156.69a6.91,6.91,0,1,1-6.91-6.91h0A6.91,6.91,0,0,1,440.12,156.69Z"/><path class="cls-18" d="M433.26,156.69a7.49,7.49,0,1,1-7.49-7.49h0A7.49,7.49,0,0,1,433.26,156.69Z"/><path class="cls-18" d="M681.29,156.68a7.72,7.72,0,1,1-7.73-7.71,7.73,7.73,0,0,1,7.73,7.71Z"/><path class="cls-18" d="M680.48,156.68A7.5,7.5,0,1,1,673,149.2h0A7.49,7.49,0,0,1,680.48,156.68Z"/><path class="cls-18" d="M670.79,156.68a7.59,7.59,0,1,1-7.6-7.58h0A7.59,7.59,0,0,1,670.79,156.68Z"/><path class="cls-18" d="M668.36,156.68a7.64,7.64,0,1,1-7.65-7.62,7.63,7.63,0,0,1,7.65,7.62Z"/><path class="cls-18" d="M689.46,156.68a8,8,0,1,1-8-8h0A8,8,0,0,1,689.46,156.68Z"/><path class="cls-19" d="M695.41,156.68a7.91,7.91,0,1,1-7.92-7.89,7.91,7.91,0,0,1,7.92,7.89Z"/><path class="cls-18" d="M737.41,156.68a7.68,7.68,0,1,1-7.69-7.66h0A7.67,7.67,0,0,1,737.41,156.68Z"/><path class="cls-18" d="M734.89,156.68a8,8,0,1,1-8-8h0A8,8,0,0,1,734.89,156.68Z"/><path class="cls-19" d="M718.6,156.68a7.88,7.88,0,1,1-7.89-7.86,7.87,7.87,0,0,1,7.89,7.86Z"/><path class="cls-18" d="M729.35,156.68a7.46,7.46,0,1,1-7.47-7.45h0A7.45,7.45,0,0,1,729.35,156.68Z"/><path class="cls-20" d="M727.36,156.68a7.49,7.49,0,1,1-7.5-7.48h0A7.49,7.49,0,0,1,727.36,156.68Z"/><path class="cls-18" d="M711.35,156.68a7.66,7.66,0,1,1-7.67-7.65,7.65,7.65,0,0,1,7.67,7.65Z"/><path class="cls-18" d="M723.57,156.68a7.48,7.48,0,1,1-7.49-7.47A7.48,7.48,0,0,1,723.57,156.68Z"/><path class="cls-18" d="M752.11,156.68a7.54,7.54,0,1,1-7.55-7.52h0A7.54,7.54,0,0,1,752.11,156.68Z"/><path class="cls-18" d="M733.57,156.68a7.59,7.59,0,1,1-7.6-7.58h0A7.59,7.59,0,0,1,733.57,156.68Z"/><path class="cls-18" d="M758.12,156.68a7.59,7.59,0,1,1-7.6-7.58h0A7.59,7.59,0,0,1,758.12,156.68Z"/><path class="cls-18" d="M713.71,156.68a7.52,7.52,0,1,1-7.53-7.51h0A7.52,7.52,0,0,1,713.71,156.68Z"/><path class="cls-19" d="M770.08,156.68a7.91,7.91,0,1,1-7.92-7.89,7.92,7.92,0,0,1,7.92,7.89Z"/></g></g></g></g></svg>