<?xml version="1.0" encoding="utf-8"?>
<!-- Generator: Adobe Illustrator 22.0.1, SVG Export Plug-In . SVG Version: 6.00 Build 0)  -->
<svg version="1.1" id="Layer_1" xmlns="http://www.w3.org/2000/svg" xmlns:xlink="http://www.w3.org/1999/xlink" x="0px" y="0px"
	 viewBox="0 0 1440 300" style="enable-background:new 0 0 1440 300;" xml:space="preserve">
<style type="text/css">
	.st0{fill:url(#SVGID_1_);}
	.st1{opacity:0.35;fill:#D1D1D1;enable-background:new    ;}
	.st2{opacity:0.35;fill:#A364A0;enable-background:new    ;}
	.st3{opacity:0.35;fill:#E5D06C;enable-background:new    ;}
	.st4{fill:none;stroke:#FFFFFF;stroke-width:0.75;stroke-miterlimit:10;}
	.st5{opacity:0.35;fill:#BF418E;enable-background:new    ;}
	.st6{fill:none;stroke:#FFFFFF;stroke-width:0.5;stroke-miterlimit:10;}
	.st7{fill:none;stroke:#FFFFFF;stroke-width:0.75;}
	.st8{fill:none;stroke:#FFFFFF;stroke-width:0.75;stroke-dasharray:4,2;}
	.st9{fill:#8E4F9E;}
	.st10{opacity:0.35;fill:#8E4F9E;enable-background:new    ;}
	.st11{opacity:0.35;fill:#B5499A;enable-background:new    ;}
	.st12{fill:none;stroke:#FFFFFF;stroke-width:0.5;stroke-dasharray:4,2;}
	.st13{opacity:0.35;fill:#554FA0;enable-background:new    ;}
	.st14{opacity:0.35;fill:#4853A3;enable-background:new    ;}
	.st15{opacity:0.25;fill:#FFFFFF;enable-background:new    ;}
	.st16{opacity:0.15;fill:#FFFFFF;enable-background:new    ;}
</style>
<linearGradient id="SVGID_1_" gradientUnits="userSpaceOnUse" x1="-0.1" y1="151.7143" x2="1439.9" y2="151.7143" gradientTransform="matrix(1 0 0 -1 0 302)">
	<stop  offset="0" style="stop-color:#B6D9DF"/>
	<stop  offset="0.1285" style="stop-color:#9CBBC7"/>
	<stop  offset="0.3908" style="stop-color:#6C859C"/>
	<stop  offset="0.617" style="stop-color:#495D7C"/>
	<stop  offset="0.796" style="stop-color:#334468"/>
	<stop  offset="0.9053" style="stop-color:#2B3B61"/>
</linearGradient>
<rect x="-0.1" y="0.8" class="st0" width="1440" height="299"/>
<g>
	<path class="st1" d="M524,280.9c0,4.1-3.3,7.5-7.5,7.5c-4.1,0-7.5-3.3-7.5-7.5c0-4.1,3.3-7.5,7.5-7.5
		C520.7,273.6,524,276.9,524,280.9z"/>
	<path class="st1" d="M450.9,281.1c0,4.2-3.4,7.6-7.6,7.6c-4.2,0-7.6-3.4-7.6-7.6c0-4.2,3.4-7.6,7.6-7.6l0,0
		C447.5,273.5,450.9,276.9,450.9,281.1z"/>
	<path class="st1" d="M477.8,281c0,4.2-3.4,7.6-7.5,7.6c-4.2,0-7.6-3.4-7.6-7.5c0-4.2,3.4-7.6,7.5-7.6
		C474.4,273.6,477.8,276.9,477.8,281L477.8,281z"/>
	<path class="st1" d="M468.1,281c0,4.1-3.3,7.4-7.4,7.4s-7.4-3.3-7.4-7.4s3.3-7.4,7.4-7.4l0,0C464.8,273.7,468.1,277,468.1,281z"/>
	<path class="st1" d="M422.7,281.1c0,3.9-3.2,7.1-7.1,7.1c-3.9,0-7.1-3.2-7.1-7.1c0-3.9,3.2-7.1,7.1-7.1
		C419.5,274,422.7,277.2,422.7,281.1z"/>
	<path class="st1" d="M426.6,281.1c0,4.2-3.4,7.6-7.6,7.6s-7.6-3.4-7.6-7.6s3.4-7.6,7.6-7.6l0,0
		C423.2,273.6,426.6,276.9,426.6,281.1z"/>
	<path class="st1" d="M410.5,281.1c0,3.8-3.1,6.9-6.9,6.9c-3.8,0-6.9-3.1-6.9-6.9c0-3.8,3.1-6.9,6.9-6.9
		C407.4,274.2,410.5,277.3,410.5,281.1L410.5,281.1z"/>
	<path class="st1" d="M475.7,281c0,3.9-3.1,7-7,7s-7-3.1-7-7s3.1-7,7-7S475.7,277.2,475.7,281L475.7,281z"/>
	<path class="st1" d="M490.8,281c0,4.5-3.6,8.2-8.2,8.3c-4.5,0-8.2-3.6-8.3-8.2c0-4.5,3.6-8.2,8.2-8.3
		C487.1,272.9,490.8,276.5,490.8,281L490.8,281z"/>
	<path class="st1" d="M512.2,281c0,3.9-3.2,7.2-7.1,7.2c-3.9,0-7.2-3.2-7.2-7.1c0-3.9,3.2-7.2,7.1-7.2l0,0
		C509,273.8,512.2,277,512.2,281z"/>
	<path class="st1" d="M477.9,281c0,3.9-3.2,7.1-7.1,7.1s-7.1-3.2-7.1-7.1s3.2-7.1,7.1-7.1l0,0C474.7,273.9,477.9,277.1,477.9,281z"
		/>
	<path class="st1" d="M475.8,281c0,3.9-3.2,7.1-7,7.1c-3.8,0-7.1-3.2-7.1-7c0-3.9,3.2-7.1,7-7.1l0,0
		C472.6,274,475.8,277.1,475.8,281z"/>
	<path class="st1" d="M488.6,281c0,4.2-3.4,7.6-7.6,7.6s-7.6-3.4-7.6-7.6s3.4-7.6,7.6-7.6S488.6,276.9,488.6,281L488.6,281z"/>
	<path class="st1" d="M466.9,281c0,4-3.2,7.2-7.2,7.2c-4,0-7.2-3.2-7.2-7.2s3.2-7.2,7.2-7.2l0,0C463.7,273.9,466.9,277.1,466.9,281z
		"/>
	<path class="st1" d="M498.2,281c0,4.5-3.6,8.2-8.1,8.2s-8.2-3.6-8.2-8.1s3.6-8.2,8.1-8.2S498.2,276.5,498.2,281L498.2,281z"/>
	<path class="st1" d="M484.8,281c0,4.2-3.4,7.6-7.5,7.6c-4.2,0-7.6-3.4-7.6-7.5c0-4.1,3.4-7.6,7.5-7.6
		C481.4,273.6,484.8,276.9,484.8,281L484.8,281z"/>
	<path class="st2" d="M462.1,281c0,4.2-3.4,7.6-7.5,7.6c-4.2,0-7.6-3.4-7.6-7.5c0-4.1,3.4-7.6,7.5-7.6
		C458.6,273.6,462.1,276.9,462.1,281L462.1,281z"/>
	<path class="st1" d="M459.2,261c0,4-3.3,7.3-7.3,7.3s-7.3-3.3-7.3-7.3s3.3-7.3,7.3-7.3l0,0C455.9,253.6,459.2,256.9,459.2,261z"/>
	<path class="st1" d="M359.7,261c0,3.9-3.2,7.1-7.1,7.1s-7.1-3.2-7.1-7.1s3.2-7.1,7.1-7.1l0,0C356.5,253.9,359.7,257.1,359.7,261z"
		/>
	<path class="st1" d="M405.8,261c0,4.1-3.3,7.4-7.4,7.4S391,265,391,261c0-4.1,3.3-7.4,7.4-7.4C402.5,253.7,405.8,257,405.8,261
		L405.8,261z"/>
	<path class="st1" d="M456.8,261c0,4.2-3.4,7.6-7.6,7.6s-7.6-3.4-7.6-7.6s3.4-7.6,7.6-7.6l0,0C453.4,253.3,456.8,256.7,456.8,261z"
		/>
	<path class="st2" d="M441.3,261c0,4.2-3.4,7.5-7.5,7.5c-4.2,0-7.5-3.4-7.5-7.5c0-4.2,3.4-7.5,7.5-7.5
		C438,253.5,441.3,256.8,441.3,261L441.3,261z"/>
	<path class="st1" d="M451.6,261c0,3.9-3.2,7.1-7.1,7.1s-7.1-3.2-7.1-7.1s3.2-7.1,7.1-7.1l0,0C448.4,253.8,451.6,257,451.6,261z"/>
	<path class="st1" d="M405,261c0,3.9-3.2,7.1-7.1,7.1s-7.1-3.2-7.1-7.1s3.2-7.1,7.1-7.1l0,0C401.8,253.8,405,257,405,261z"/>
	<path class="st3" d="M449.6,261c0,3.9-3.2,7.1-7.1,7.1s-7.1-3.2-7.1-7.1s3.2-7.1,7.1-7.1l0,0C446.4,253.8,449.6,257,449.6,261z"/>
	<path class="st1" d="M434.4,261c0,4-3.3,7.3-7.3,7.3s-7.3-3.3-7.3-7.3s3.3-7.3,7.3-7.3C431.1,253.7,434.4,257,434.4,261L434.4,261z
		"/>
	<path class="st1" d="M446.1,261c0,3.9-3.2,7.1-7.1,7.1c-3.9,0-7.1-3.2-7.1-7.1s3.2-7.1,7.1-7.1C442.9,253.8,446.1,257,446.1,261z"
		/>
	<path class="st1" d="M382.9,261c0,3.9-3.1,7-7,7.1c-3.9,0-7-3.1-7.1-7c0-3.9,3.1-7,7-7.1C379.7,253.9,382.9,257.1,382.9,261
		L382.9,261z"/>
	<path class="st1" d="M354.1,261c0,3.9-3.2,7.1-7.1,7.1s-7.1-3.2-7.1-7.1s3.2-7.1,7.1-7.1l0,0C350.9,253.9,354.1,257.1,354.1,261z"
		/>
	<path class="st1" d="M395.8,261c0,4-3.2,7.2-7.2,7.2c-4,0-7.2-3.2-7.2-7.2s3.2-7.2,7.2-7.2l0,0C392.5,253.8,395.8,257,395.8,261z"
		/>
	<path class="st1" d="M393.5,261c0,4-3.2,7.3-7.3,7.3c-4,0-7.3-3.2-7.3-7.3c0-4,3.2-7.3,7.3-7.3C390.2,253.8,393.5,257,393.5,261
		L393.5,261z"/>
	<path class="st1" d="M473.2,260.9c0,4-3.2,7.2-7.2,7.2s-7.2-3.2-7.2-7.2c0-4,3.2-7.2,7.2-7.2l0,0C470,253.8,473.2,257,473.2,260.9z
		"/>
	<path class="st1" d="M455.6,261c0,4-3.2,7.2-7.2,7.2s-7.2-3.2-7.2-7.2s3.2-7.2,7.2-7.2l0,0C452.3,253.7,455.6,257,455.6,261z"/>
	<path class="st1" d="M339,261c0,3.9-3.2,7.2-7.1,7.2s-7.2-3.2-7.2-7.1c0-3.9,3.2-7.2,7.1-7.2l0,0C335.8,253.9,339,257.1,339,261z"
		/>
	<path class="st1" d="M413.6,261c0,4.2-3.4,7.6-7.6,7.6c-4.2,0-7.6-3.4-7.6-7.6c0-4.2,3.4-7.6,7.6-7.6l0,0
		C410.1,253.3,413.6,256.8,413.6,261z"/>
	<path class="st1" d="M478.9,260.9c0,4-3.2,7.2-7.2,7.2s-7.2-3.2-7.2-7.2c0-4,3.2-7.2,7.2-7.2l0,0
		C475.6,253.7,478.9,256.9,478.9,260.9z"/>
	<path class="st1" d="M436.6,261c0,3.9-3.2,7.2-7.1,7.2c-3.9,0-7.2-3.2-7.2-7.1s3.2-7.2,7.1-7.2l0,0
		C433.4,253.8,436.6,257,436.6,261z"/>
	<path class="st1" d="M373.4,261c0,4-3.2,7.2-7.2,7.2S359,265,359,261s3.2-7.2,7.2-7.2l0,0C370.2,253.8,373.4,257,373.4,261z"/>
	<path class="st1" d="M380.2,261c0,4.2-3.4,7.6-7.5,7.6c-4.2,0-7.6-3.4-7.6-7.5c0-4.1,3.4-7.6,7.5-7.6
		C376.8,253.5,380.2,256.9,380.2,261L380.2,261z"/>
	<path class="st1" d="M334.4,240.8c0,4-3.2,7.3-7.2,7.3s-7.3-3.2-7.3-7.2c0-4,3.2-7.3,7.2-7.3l0,0
		C331.2,233.6,334.4,236.8,334.4,240.8z"/>
	<path class="st1" d="M361.6,240.8c0,4-3.2,7.2-7.2,7.2c-4,0-7.2-3.2-7.2-7.2s3.2-7.2,7.2-7.2l0,0
		C358.3,233.6,361.6,236.8,361.6,240.8z"/>
	<path class="st1" d="M348.4,240.8c0,3.9-3.2,7.1-7,7.1c-3.9,0-7.1-3.2-7.1-7c0-3.8,3.2-7.1,7-7.1l0,0
		C345.2,233.8,348.4,236.9,348.4,240.8z"/>
	<path class="st1" d="M360,240.8c0,4-3.2,7.3-7.2,7.3s-7.3-3.2-7.3-7.2c0-4,3.2-7.3,7.2-7.3l0,0C356.7,233.5,360,236.8,360,240.8z"
		/>
	<path class="st1" d="M329.4,240.8c0,4-3.2,7.2-7.2,7.2c-4,0-7.2-3.2-7.2-7.2s3.2-7.2,7.2-7.2l0,0
		C326.2,233.6,329.4,236.9,329.4,240.8z"/>
	<path class="st1" d="M334.6,240.8c0,4.3-3.5,7.7-7.7,7.7c-4.3,0-7.7-3.5-7.7-7.7c0-4.3,3.5-7.7,7.7-7.7l0,0
		C331.1,233,334.6,236.5,334.6,240.8z"/>
	<path class="st2" d="M278.9,240.9c0,4-3.3,7.3-7.3,7.3s-7.3-3.3-7.3-7.3c0-4,3.3-7.3,7.3-7.3S278.9,236.9,278.9,240.9L278.9,240.9z
		"/>
	<path class="st1" d="M368.9,240.8c0,3.8-3.1,6.9-6.9,6.9s-6.9-3.1-6.9-6.9s3.1-6.9,6.9-6.9S368.9,237,368.9,240.8L368.9,240.8z"/>
	<path class="st1" d="M354.1,240.8c0,4-3.2,7.2-7.2,7.2s-7.2-3.2-7.2-7.2s3.2-7.2,7.2-7.2l0,0C350.9,233.6,354.1,236.8,354.1,240.8z
		"/>
	<path class="st1" d="M363.4,240.8c0,4.1-3.3,7.4-7.4,7.4s-7.4-3.3-7.4-7.4c0-4.1,3.3-7.4,7.4-7.4
		C360.1,233.4,363.4,236.7,363.4,240.8L363.4,240.8z"/>
	<path class="st1" d="M365.6,240.8c0,4-3.2,7.2-7.2,7.2c-4,0-7.2-3.2-7.2-7.2s3.2-7.2,7.2-7.2l0,0
		C362.4,233.6,365.6,236.8,365.6,240.8z"/>
	<path class="st2" d="M336,240.8c0,4-3.2,7.3-7.2,7.3s-7.3-3.2-7.3-7.2c0-4,3.2-7.3,7.2-7.3l0,0C332.7,233.6,336,236.8,336,240.8z"
		/>
	<path class="st1" d="M369.8,240.8c0,4.1-3.3,7.5-7.5,7.5c-4.1,0-7.5-3.3-7.5-7.5c0-4.1,3.3-7.5,7.5-7.5
		C366.4,233.3,369.8,236.6,369.8,240.8L369.8,240.8z"/>
	<path class="st1" d="M362.9,240.8c0,4.1-3.3,7.4-7.4,7.4c-4.1,0-7.4-3.3-7.4-7.4c0-4.1,3.3-7.4,7.4-7.4l0,0
		C359.7,233.4,362.9,236.7,362.9,240.8z"/>
	<path class="st1" d="M381,240.8c0,4-3.2,7.2-7.2,7.2s-7.2-3.2-7.2-7.2s3.2-7.2,7.2-7.2l0,0C377.8,233.6,381,236.8,381,240.8z"/>
	<path class="st1" d="M365.7,240.8c0,4.1-3.3,7.4-7.3,7.4c-4.1,0-7.4-3.3-7.4-7.3c0-4.1,3.3-7.4,7.3-7.4l0,0
		C362.4,233.4,365.7,236.7,365.7,240.8z"/>
	<path class="st1" d="M355.9,240.8c0,4.1-3.3,7.5-7.5,7.5c-4.1,0-7.5-3.3-7.5-7.5c0-4.1,3.3-7.5,7.5-7.5
		C352.6,233.3,355.9,236.7,355.9,240.8L355.9,240.8z"/>
	<path class="st2" d="M56.7,241.2c0,4.2-3.4,7.6-7.5,7.6c-4.2,0-7.6-3.4-7.6-7.5c0-4.2,3.4-7.6,7.5-7.6
		C53.3,233.8,56.7,237,56.7,241.2L56.7,241.2z"/>
	<path class="st1" d="M360.9,240.8c0,3.9-3.2,7.1-7.1,7.1s-7.1-3.2-7.1-7.1c0-3.9,3.2-7.1,7.1-7.1S360.9,236.9,360.9,240.8z"/>
	<path class="st1" d="M352.7,240.8c0,4-3.2,7.3-7.2,7.3c-4,0-7.3-3.2-7.3-7.2c0-4,3.2-7.3,7.2-7.3l0,0
		C349.5,233.5,352.7,236.8,352.7,240.8z"/>
	<path class="st1" d="M354.1,240.8c0,4-3.3,7.3-7.3,7.3s-7.3-3.3-7.3-7.3s3.3-7.3,7.3-7.3l0,0C350.9,233.5,354.1,236.8,354.1,240.8z
		"/>
	<path class="st1" d="M365.8,240.8c0,4-3.2,7.2-7.2,7.2s-7.2-3.2-7.2-7.2s3.2-7.2,7.2-7.2l0,0C362.6,233.6,365.8,236.8,365.8,240.8z
		"/>
	<path class="st1" d="M349.3,240.8c0,3.9-3.2,7.1-7.1,7.1c-3.9,0-7.1-3.2-7.1-7.1c0-3.9,3.2-7.1,7.1-7.1l0,0
		C346.1,233.7,349.3,236.9,349.3,240.8z"/>
	<path class="st1" d="M350,240.8c0,4-3.3,7.3-7.3,7.3s-7.3-3.3-7.3-7.3s3.3-7.3,7.3-7.3S350,236.8,350,240.8L350,240.8z"/>
	<path class="st1" d="M373.9,240.8c0,4.1-3.3,7.5-7.5,7.5c-4.1,0-7.5-3.3-7.5-7.5s3.3-7.5,7.5-7.5S373.9,236.6,373.9,240.8
		L373.9,240.8z"/>
	<path class="st1" d="M344.9,240.8c0,4.1-3.3,7.5-7.5,7.5c-4.1,0-7.5-3.3-7.5-7.5c0-4.1,3.3-7.5,7.5-7.5
		C341.5,233.3,344.9,236.7,344.9,240.8L344.9,240.8z"/>
	<path class="st1" d="M335.7,240.8c0,4.1-3.3,7.5-7.5,7.5c-4.1,0-7.5-3.3-7.5-7.5c0-4.1,3.3-7.5,7.5-7.5
		C332.3,233.3,335.7,236.7,335.7,240.8z"/>
	<path class="st1" d="M311.1,220.7c0,3.9-3.2,7.2-7.1,7.2s-7.2-3.2-7.2-7.1c0-3.9,3.2-7.2,7.1-7.2l0,0
		C307.9,213.5,311.1,216.7,311.1,220.7z"/>
	<path class="st2" d="M244.8,220.8c0,4-3.2,7.2-7.2,7.2s-7.2-3.2-7.2-7.2c0-4,3.2-7.2,7.2-7.2l0,0
		C241.5,213.5,244.8,216.8,244.8,220.8z"/>
	<path class="st1" d="M333.2,220.6c0,4-3.3,7.3-7.3,7.3s-7.3-3.3-7.3-7.3c0-4,3.3-7.3,7.3-7.3l0,0
		C329.9,213.3,333.2,216.6,333.2,220.6z"/>
	<path class="st1" d="M354.5,220.6c0,3.9-3.2,7.1-7.1,7.1s-7.1-3.2-7.1-7.1c0-3.9,3.2-7.1,7.1-7.1
		C351.4,213.5,354.5,216.7,354.5,220.6L354.5,220.6z"/>
	<path class="st1" d="M340.3,220.6c0,4.2-3.4,7.6-7.5,7.6c-4.2,0-7.6-3.4-7.6-7.5c0-4.2,3.4-7.6,7.5-7.6
		C336.9,213.1,340.3,216.4,340.3,220.6L340.3,220.6z"/>
	<path class="st1" d="M306.8,220.7c0,4-3.2,7.2-7.2,7.2s-7.2-3.2-7.2-7.2c0-4,3.2-7.2,7.2-7.2l0,0
		C303.6,213.5,306.8,216.7,306.8,220.7z"/>
	<path class="st1" d="M354,220.6c0,3.9-3.2,7.1-7.1,7.1s-7.1-3.2-7.1-7.1c0-3.9,3.2-7.1,7.1-7.1S354,216.6,354,220.6L354,220.6z"/>
	<path class="st1" d="M301.4,220.7c0,4.2-3.4,7.6-7.6,7.6c-4.3,0-7.6-3.4-7.6-7.6c0-4.2,3.4-7.6,7.6-7.6
		C297.9,213,301.4,216.4,301.4,220.7L301.4,220.7z"/>
	<path class="st1" d="M337.2,220.6c0,4.2-3.4,7.6-7.6,7.6s-7.6-3.4-7.6-7.6c0-4.2,3.4-7.6,7.6-7.6l0,0
		C333.7,213,337.2,216.4,337.2,220.6z"/>
	<path class="st1" d="M344.6,220.6c0,3.9-3.2,7.2-7.1,7.2c-3.9,0-7.2-3.2-7.2-7.1c0-3.9,3.2-7.2,7.1-7.2l0,0
		C341.4,213.5,344.6,216.7,344.6,220.6z"/>
	<path class="st1" d="M319.1,220.6c0,4-3.3,7.3-7.3,7.3s-7.3-3.3-7.3-7.3c0-4,3.3-7.3,7.3-7.3l0,0
		C315.8,213.3,319.1,216.6,319.1,220.6z"/>
	<path class="st1" d="M337,220.6c0,3.8-3,6.8-6.8,6.8c-3.8,0-6.8-3-6.8-6.8s3-6.8,6.8-6.8l0,0C333.9,213.8,337,216.9,337,220.6z"/>
	<path class="st1" d="M315,220.6c0,4-3.3,7.3-7.3,7.3s-7.3-3.3-7.3-7.3s3.3-7.3,7.3-7.3l0,0C311.8,213.4,315,216.6,315,220.6z"/>
	<path class="st1" d="M351.2,220.6c0,4-3.2,7.3-7.2,7.3c-4,0-7.3-3.2-7.3-7.2c0-4,3.2-7.3,7.2-7.3l0,0
		C348,213.3,351.2,216.6,351.2,220.6z"/>
	<path class="st1" d="M325.1,220.6c0,4.2-3.4,7.6-7.6,7.6c-4.3,0-7.6-3.4-7.6-7.6c0-4.2,3.4-7.6,7.6-7.6l0,0
		C321.6,213,325.1,216.4,325.1,220.6z"/>
	<path class="st1" d="M346.1,220.6c0,4.2-3.4,7.6-7.5,7.6c-4.1,0-7.6-3.4-7.6-7.5c0-4.2,3.4-7.6,7.5-7.6
		C342.7,213,346.1,216.4,346.1,220.6L346.1,220.6z"/>
	<path class="st1" d="M334.5,220.6c0,4-3.3,7.3-7.3,7.3s-7.3-3.3-7.3-7.3c0-4,3.3-7.3,7.3-7.3l0,0
		C331.2,213.3,334.5,216.6,334.5,220.6z"/>
	<path class="st1" d="M322.2,220.6c0,4.1-3.3,7.4-7.4,7.4s-7.4-3.3-7.4-7.4c0-4.1,3.3-7.4,7.4-7.4S322.2,216.6,322.2,220.6
		L322.2,220.6z"/>
	<path class="st1" d="M399,220.5c0,3.9-3.2,7.1-7.1,7.1s-7.1-3.2-7.1-7.1c0-3.9,3.2-7.1,7.1-7.1l0,0
		C395.8,213.4,399,216.6,399,220.5z"/>
	<path class="st1" d="M333.8,200.4c0,4.1-3.3,7.5-7.5,7.5c-4.1,0-7.5-3.3-7.5-7.5c0-4.1,3.3-7.5,7.5-7.5
		C330.4,193,333.8,196.3,333.8,200.4L333.8,200.4z"/>
	<path class="st1" d="M327.9,200.4c0,4.1-3.3,7.4-7.4,7.4s-7.4-3.3-7.4-7.4s3.3-7.4,7.4-7.4C324.6,193,327.9,196.3,327.9,200.4
		L327.9,200.4z"/>
	<path class="st1" d="M313.4,200.4c0,3.8-3.1,6.9-6.9,6.9c-3.8,0-6.9-3.1-6.9-6.9s3.1-6.9,6.9-6.9l0,0
		C310.3,193.5,313.4,196.6,313.4,200.4z"/>
	<path class="st1" d="M325,180.4c0,4-3.3,7.3-7.3,7.3c-4,0-7.3-3.3-7.3-7.3c0-4,3.3-7.3,7.3-7.3l0,0
		C321.7,173.1,325,176.4,325,180.4z"/>
	<path class="st2" d="M284.6,180.4c0,4.1-3.3,7.4-7.4,7.4c-4.1,0-7.4-3.3-7.4-7.4s3.3-7.4,7.4-7.4l0,0
		C281.4,173,284.6,176.3,284.6,180.4z"/>
	<path class="st1" d="M328.6,180.4c0,4-3.3,7.3-7.3,7.3s-7.3-3.3-7.3-7.3c0-4,3.3-7.3,7.3-7.3l0,0
		C325.4,173.1,328.6,176.4,328.6,180.4z"/>
	<path class="st1" d="M260.6,180.4c0,3.7-3,6.8-6.8,6.8c-3.7,0-6.8-3-6.8-6.8c0-3.7,3-6.8,6.8-6.8
		C257.6,173.7,260.6,176.7,260.6,180.4z"/>
	<path class="st1" d="M339.2,180.4c0,3.8-3.1,6.9-6.9,6.9c-3.8,0-6.9-3.1-6.9-6.9s3.1-6.9,6.9-6.9l0,0
		C336.1,173.5,339.2,176.6,339.2,180.4z"/>
	<path class="st1" d="M293.8,180.4c0,4.1-3.3,7.5-7.5,7.5c-4.1,0-7.5-3.3-7.5-7.5c0-4.2,3.3-7.5,7.5-7.5
		C290.4,173,293.8,176.3,293.8,180.4L293.8,180.4z"/>
	<path class="st1" d="M108.8,180.4c0,3.9-3.2,7.1-7.1,7.1s-7.1-3.2-7.1-7.1c0-3.9,3.2-7.1,7.1-7.1l0,0
		C105.6,173.3,108.8,176.5,108.8,180.4z"/>
	<path class="st1" d="M303.1,180.4c0,4-3.2,7.2-7.2,7.2c-4,0-7.2-3.2-7.2-7.2c0-4,3.2-7.2,7.2-7.2l0,0
		C299.9,173.1,303.1,176.4,303.1,180.4z"/>
	<path class="st1" d="M336.6,180.4c0,3.9-3.2,7.1-7.1,7.1s-7.1-3.2-7.1-7.1c0-3.9,3.2-7.1,7.1-7.1S336.6,176.4,336.6,180.4
		L336.6,180.4z"/>
	<path class="st1" d="M310.8,180.4c0,4.2-3.4,7.6-7.6,7.6s-7.6-3.4-7.6-7.6c0-4.2,3.4-7.6,7.6-7.6l0,0
		C307.4,172.9,310.8,176.2,310.8,180.4z"/>
	<path class="st1" d="M362.1,180.4c0,3.9-3.2,7.1-7.1,7.1c-3.9,0-7.1-3.2-7.1-7.1c0-3.9,3.2-7.1,7.1-7.1
		C358.9,173.3,362.1,176.4,362.1,180.4L362.1,180.4z"/>
	<path class="st1" d="M305,180.4c0,3.8-3.1,7-7,7s-7-3.1-7-7c0-3.8,3.1-7,7-7l0,0C301.8,173.4,305,176.5,305,180.4z"/>
	<path class="st1" d="M285.1,180.4c0,3.9-3.2,7.1-7.1,7.1s-7.1-3.2-7.1-7.1c0-3.9,3.2-7.1,7.1-7.1l0,0
		C282,173.3,285.1,176.5,285.1,180.4z"/>
	<path class="st1" d="M273.9,180.4c0,3.9-3.2,7.1-7.1,7.1s-7.1-3.2-7.1-7.1c0-3.9,3.2-7.1,7.1-7.1l0,0
		C270.7,173.3,273.9,176.5,273.9,180.4z"/>
	<path class="st2" d="M157.2,180.4c0,4.1-3.3,7.4-7.4,7.4s-7.4-3.3-7.4-7.4s3.3-7.4,7.4-7.4S157.2,176.3,157.2,180.4L157.2,180.4z"
		/>
	<path class="st2" d="M213.5,180.4c0,3.8-3.1,7-7,7c-3.8,0-7-3.1-7-7c0-3.8,3.1-7,7-7l0,0C210.3,173.4,213.5,176.5,213.5,180.4z"/>
	<path class="st1" d="M328,180.4c0,4.2-3.4,7.6-7.6,7.6c-4.2,0-7.6-3.4-7.6-7.6c0-4.2,3.4-7.6,7.6-7.6
		C324.6,172.8,328,176.2,328,180.4L328,180.4z"/>
	<path class="st1" d="M320,180.4c0,4.1-3.3,7.5-7.5,7.5c-4.1,0-7.5-3.3-7.5-7.5c0-4.2,3.3-7.5,7.5-7.5
		C316.7,173,320,176.3,320,180.4L320,180.4z"/>
	<path class="st1" d="M327.1,180.4c0,4.2-3.4,7.6-7.6,7.6s-7.6-3.4-7.6-7.6c0-4.2,3.4-7.6,7.6-7.6S327.1,176.2,327.1,180.4
		L327.1,180.4z"/>
	<path class="st1" d="M353.9,180.4c0,3.6-2.9,6.6-6.6,6.6s-6.6-2.9-6.6-6.6s2.9-6.6,6.6-6.6l0,0
		C350.9,173.8,353.9,176.8,353.9,180.4z"/>
	<path class="st1" d="M312,180.4c0,4-3.2,7.2-7.2,7.2c-4,0-7.2-3.2-7.2-7.2c0-4,3.2-7.2,7.2-7.2l0,0
		C308.8,173.2,312,176.4,312,180.4z"/>
	<path class="st1" d="M329.5,180.4c0,3.9-3.2,7.1-7.1,7.1c-3.9,0-7.1-3.2-7.1-7.1c0-3.9,3.2-7.1,7.1-7.1l0,0
		C326.3,173.3,329.5,176.5,329.5,180.4z"/>
	<path class="st1" d="M317.4,180.4c0,4-3.3,7.3-7.3,7.3c-4,0-7.3-3.3-7.3-7.3c0-4,3.3-7.3,7.3-7.3l0,0
		C314.1,173.1,317.4,176.3,317.4,180.4z"/>
	<path class="st1" d="M282.2,180.4c0,4-3.3,7.3-7.3,7.3s-7.3-3.3-7.3-7.3c0-4,3.3-7.3,7.3-7.3S282.2,176.4,282.2,180.4L282.2,180.4z
		"/>
	<path class="st1" d="M292.7,180.4c0,3.9-3.2,7.1-7.1,7.1s-7.1-3.2-7.1-7.1c0-3.9,3.2-7.1,7.1-7.1l0,0
		C289.5,173.2,292.7,176.4,292.7,180.4z"/>
	<path class="st1" d="M316.5,180.4c0,4.1-3.3,7.4-7.4,7.4s-7.4-3.3-7.4-7.4s3.3-7.4,7.4-7.4l0,0C313.2,173,316.5,176.3,316.5,180.4z
		"/>
	<path class="st1" d="M288.6,180.4c0,4.1-3.3,7.4-7.4,7.4s-7.4-3.3-7.4-7.4s3.3-7.4,7.4-7.4S288.6,176.3,288.6,180.4L288.6,180.4z"
		/>
	<path class="st1" d="M370.1,180.4c0,4.3-3.5,7.7-7.7,7.7s-7.7-3.5-7.7-7.7c0-4.3,3.5-7.7,7.7-7.7
		C366.6,172.7,370.1,176.2,370.1,180.4L370.1,180.4z"/>
	<path class="st1" d="M334.6,180.4c0,3.9-3.1,7-7,7s-7-3.1-7-7c0-3.9,3.1-7,7-7C331.4,173.4,334.6,176.5,334.6,180.4L334.6,180.4z"
		/>
	<path class="st1" d="M335,180.4c0,3.6-2.9,6.6-6.6,6.6s-6.6-2.9-6.6-6.6c0-3.6,2.9-6.6,6.6-6.6l0,0
		C332.1,173.8,335,176.8,335,180.4z"/>
	<path class="st1" d="M328.5,180.4c0,3.9-3.2,7.1-7.1,7.1s-7.1-3.2-7.1-7.1c0-3.9,3.2-7.1,7.1-7.1l0,0
		C325.3,173.3,328.5,176.5,328.5,180.4z"/>
	<path class="st1" d="M289,160.2c0,4.2-3.4,7.6-7.6,7.6c-4.3,0-7.6-3.4-7.6-7.6c0-4.2,3.4-7.6,7.6-7.6l0,0
		C285.6,152.6,289,156,289,160.2z"/>
	<path class="st1" d="M269.7,160.2c0,4.3-3.5,7.7-7.7,7.7c-4.3,0-7.7-3.5-7.7-7.7c0-4.3,3.5-7.7,7.7-7.7l0,0
		C266.2,152.5,269.7,156,269.7,160.2z"/>
	<path class="st1" d="M263.7,160.2c0,4.1-3.4,7.5-7.5,7.5c-4.1,0-7.5-3.4-7.5-7.5c0-4.1,3.4-7.5,7.5-7.5l0,0
		C260.3,152.8,263.7,156.1,263.7,160.2z"/>
	<path class="st1" d="M291.8,160.2c0,4.1-3.3,7.4-7.4,7.4s-7.4-3.3-7.4-7.4s3.3-7.4,7.4-7.4S291.8,156.2,291.8,160.2L291.8,160.2z"
		/>
	<path class="st1" d="M205.2,160.2c0,4.1-3.3,7.4-7.4,7.4s-7.4-3.3-7.4-7.4s3.3-7.4,7.4-7.4l0,0
		C201.9,152.9,205.2,156.2,205.2,160.2z"/>
	<path class="st1" d="M295.3,160.2c0,4.1-3.3,7.4-7.4,7.4c-4.1,0-7.4-3.3-7.4-7.4s3.3-7.4,7.4-7.4l0,0
		C292,152.9,295.3,156.2,295.3,160.2z"/>
	<path class="st2" d="M303,160.2c0,4-3.2,7.2-7.2,7.2s-7.2-3.2-7.2-7.2c0-4,3.2-7.2,7.2-7.2l0,0C299.8,153,303,156.2,303,160.2z"/>
	<path class="st1" d="M256.6,160.2c0,4.5-3.6,8.3-8.3,8.3c-4.5,0-8.3-3.6-8.3-8.3c0-4.5,3.6-8.3,8.3-8.3l0,0
		C252.8,152,256.6,155.7,256.6,160.2z"/>
	<path class="st1" d="M225.8,160.2c0,4.1-3.3,7.4-7.4,7.4s-7.4-3.3-7.4-7.4s3.3-7.4,7.4-7.4S225.8,156.2,225.8,160.2L225.8,160.2z"
		/>
	<path class="st1" d="M283,160.2c0,4.4-3.6,7.9-7.9,7.9c-4.4,0-7.9-3.6-7.9-7.9s3.6-7.9,7.9-7.9l0,0
		C279.4,152.3,283,155.9,283,160.2z"/>
	<path class="st1" d="M268.9,160.2c0,4.1-3.3,7.4-7.4,7.4s-7.4-3.3-7.4-7.4s3.3-7.4,7.4-7.4l0,0
		C265.6,152.8,268.9,156.2,268.9,160.2z"/>
	<path class="st1" d="M251.8,160.2c0,4.2-3.4,7.6-7.6,7.6s-7.6-3.4-7.6-7.6c0-4.2,3.4-7.6,7.6-7.6l0,0
		C248.5,152.7,251.8,156.1,251.8,160.2z"/>
	<path class="st1" d="M230.3,140.1c0,4.2-3.4,7.6-7.6,7.6c-4.2,0-7.6-3.4-7.6-7.6c0-4.2,3.4-7.6,7.6-7.6l0,0
		C227,132.4,230.3,135.8,230.3,140.1z"/>
	<path class="st1" d="M228.6,140.1c0,4.4-3.6,7.9-7.9,7.9s-7.9-3.6-7.9-7.9s3.6-7.9,7.9-7.9l0,0C225,132.1,228.6,135.6,228.6,140.1z
		"/>
	<path class="st1" d="M335.4,140.1c0,4.1-3.4,7.5-7.5,7.5c-4.1,0-7.5-3.4-7.5-7.5c0-4.1,3.4-7.5,7.5-7.5l0,0
		C332,132.6,335.4,135.9,335.4,140.1z"/>
	<path class="st1" d="M274.8,140.1c0,3.7-3,6.8-6.8,6.8s-6.8-3-6.8-6.8c0-3.7,3-6.8,6.8-6.8S274.8,136.3,274.8,140.1L274.8,140.1z"
		/>
	<path class="st1" d="M290.8,140.1c0,4.1-3.3,7.5-7.5,7.5c-4.1,0-7.5-3.3-7.5-7.5s3.3-7.5,7.5-7.5
		C287.5,132.6,290.8,135.9,290.8,140.1L290.8,140.1z"/>
	<path class="st1" d="M308.6,140.1c0,4-3.3,7.3-7.3,7.3s-7.3-3.3-7.3-7.3s3.3-7.3,7.3-7.3S308.6,136.1,308.6,140.1L308.6,140.1z"/>
	<path class="st1" d="M299.8,140.1c0,4-3.3,7.3-7.3,7.3s-7.3-3.3-7.3-7.3s3.3-7.3,7.3-7.3l0,0C296.6,132.8,299.8,136,299.8,140.1z"
		/>
	<path class="st1" d="M161.4,140.1c0,4.1-3.3,7.5-7.5,7.5c-4.2,0-7.5-3.3-7.5-7.5s3.3-7.5,7.5-7.5
		C158.1,132.6,161.4,135.9,161.4,140.1L161.4,140.1z"/>
	<path class="st1" d="M243,140.1c0,4.2-3.4,7.5-7.5,7.5s-7.5-3.4-7.5-7.5s3.4-7.5,7.5-7.5S243,135.9,243,140.1L243,140.1z"/>
	<path class="st1" d="M328.6,140.1c0,3.8-3.1,6.8-6.8,6.8c-3.8,0-6.8-3.1-6.8-6.8c0-3.8,3.1-6.8,6.8-6.8l0,0
		C325.6,133.1,328.6,136.3,328.6,140.1z"/>
	<path class="st1" d="M301.4,140.1c0,4.1-3.3,7.4-7.4,7.4s-7.4-3.3-7.4-7.4s3.3-7.4,7.4-7.4l0,0C298.2,132.7,301.4,136,301.4,140.1z
		"/>
	<path class="st1" d="M244.6,140.1c0,4.2-3.4,7.5-7.5,7.5c-4.2,0-7.5-3.4-7.5-7.5c0-4.2,3.4-7.5,7.5-7.5
		C241.3,132.5,244.6,135.9,244.6,140.1L244.6,140.1z"/>
	<path class="st1" d="M314.5,140.1c0,3.9-3.1,7-7,7s-7-3.1-7-7c0-3.9,3.1-7,7-7S314.5,136.2,314.5,140.1L314.5,140.1z"/>
	<path class="st1" d="M340.3,140.1c0,4.3-3.5,7.6-7.6,7.6c-4.3,0-7.6-3.5-7.6-7.6c0-4.3,3.5-7.6,7.6-7.6
		C336.8,132.3,340.3,135.8,340.3,140.1L340.3,140.1z"/>
	<path class="st1" d="M260.2,140.1c0,4.1-3.3,7.4-7.4,7.4c-4.1,0-7.4-3.3-7.4-7.4s3.3-7.4,7.4-7.4l0,0
		C256.9,132.7,260.2,136,260.2,140.1z"/>
	<path class="st1" d="M294.5,140.1c0,4-3.2,7.2-7.2,7.2c-4,0-7.2-3.2-7.2-7.2s3.2-7.2,7.2-7.2l0,0
		C291.2,132.8,294.5,136.1,294.5,140.1z"/>
	<path class="st1" d="M290.4,140.1c0,4.1-3.3,7.4-7.4,7.4s-7.4-3.3-7.4-7.4s3.3-7.4,7.4-7.4C287.1,132.7,290.4,136,290.4,140.1
		L290.4,140.1z"/>
	<path class="st1" d="M205.5,140.1c0,4.2-3.4,7.5-7.5,7.5s-7.5-3.4-7.5-7.5s3.4-7.5,7.5-7.5S205.5,135.9,205.5,140.1L205.5,140.1z"
		/>
	<path class="st1" d="M321.8,140.1c0,4.1-3.3,7.4-7.4,7.4c-4.1,0-7.4-3.3-7.4-7.4s3.3-7.4,7.4-7.4
		C318.5,132.7,321.8,136,321.8,140.1L321.8,140.1z"/>
	<path class="st1" d="M325.2,140.1c0,4.4-3.6,7.9-7.9,7.9c-4.4,0-7.9-3.6-7.9-7.9s3.6-7.9,7.9-7.9l0,0
		C321.7,132.2,325.2,135.7,325.2,140.1z"/>
	<path class="st1" d="M339.2,140.1c0,4.3-3.5,7.7-7.7,7.7c-4.3,0-7.7-3.5-7.7-7.7c0-4.3,3.5-7.7,7.7-7.7l0,0
		C335.8,132.3,339.2,135.8,339.2,140.1z"/>
	<path class="st2" d="M146,119.9c0,4.1-3.3,7.4-7.4,7.4c-4.1,0-7.4-3.3-7.4-7.4s3.3-7.4,7.4-7.4l0,0
		C142.7,112.5,146,115.8,146,119.9z"/>
	<path class="st1" d="M246.7,119.9c0,4.1-3.3,7.4-7.4,7.4s-7.4-3.3-7.4-7.4s3.3-7.4,7.4-7.4C243.4,112.5,246.7,115.8,246.7,119.9
		L246.7,119.9z"/>
	<path class="st2" d="M301.5,119.9c0,4.2-3.4,7.5-7.5,7.5c-4.1,0-7.5-3.4-7.5-7.5s3.4-7.5,7.5-7.5
		C298.1,112.4,301.5,115.7,301.5,119.9L301.5,119.9z"/>
	<path class="st1" d="M272.4,119.9c0,4.1-3.4,7.5-7.5,7.5c-4.1,0-7.5-3.4-7.5-7.5s3.4-7.5,7.5-7.5
		C269,112.4,272.4,115.7,272.4,119.9L272.4,119.9z"/>
	<path class="st2" d="M70.5,119.9c0,4.1-3.3,7.4-7.4,7.4s-7.4-3.3-7.4-7.4s3.3-7.4,7.4-7.4S70.5,115.8,70.5,119.9L70.5,119.9z"/>
	<path class="st1" d="M308.8,119.9c0,4-3.2,7.2-7.2,7.2c-4,0-7.2-3.2-7.2-7.2c0-4,3.2-7.2,7.2-7.2l0,0
		C305.6,112.7,308.8,115.9,308.8,119.9z"/>
	<path class="st1" d="M305.2,119.9c0,4.1-3.4,7.5-7.5,7.5s-7.5-3.4-7.5-7.5c0-4.1,3.4-7.5,7.5-7.5l0,0
		C302,112.4,305.2,115.7,305.2,119.9z"/>
	<path class="st1" d="M297.7,119.9c0,3.9-3.2,7.1-7.1,7.1s-7.1-3.2-7.1-7.1s3.2-7.1,7.1-7.1l0,0
		C294.5,112.7,297.7,115.9,297.7,119.9z"/>
	<path class="st1" d="M199.3,119.9c0,4-3.3,7.3-7.3,7.3s-7.3-3.3-7.3-7.3c0-4,3.3-7.3,7.3-7.3l0,0
		C196,112.5,199.3,115.8,199.3,119.9z"/>
	<path class="st1" d="M278.9,119.9c0,4.3-3.5,7.7-7.7,7.7c-4.3,0-7.7-3.5-7.7-7.7s3.5-7.7,7.7-7.7l0,0
		C275.6,112.2,278.9,115.6,278.9,119.9z"/>
	<path class="st1" d="M304.4,119.9c0,4.1-3.3,7.4-7.4,7.4s-7.4-3.3-7.4-7.4s3.3-7.4,7.4-7.4C301.1,112.5,304.4,115.8,304.4,119.9
		L304.4,119.9z"/>
	<path class="st1" d="M279.7,119.9c0,4-3.3,7.3-7.3,7.3c-4,0-7.3-3.3-7.3-7.3c0-4,3.3-7.3,7.3-7.3
		C276.4,112.6,279.7,115.8,279.7,119.9L279.7,119.9z"/>
	<path class="st1" d="M244.3,119.9c0,4.1-3.3,7.4-7.4,7.4s-7.4-3.3-7.4-7.4s3.3-7.4,7.4-7.4S244.3,115.8,244.3,119.9L244.3,119.9z"
		/>
	<path class="st1" d="M285.7,119.9c0,4.1-3.3,7.4-7.4,7.4c-4.1,0-7.4-3.3-7.4-7.4s3.3-7.4,7.4-7.4l0,0
		C282.4,112.5,285.7,115.8,285.7,119.9z"/>
	<path class="st1" d="M316.1,119.9c0,3.8-3.1,6.9-6.9,6.9s-6.9-3.1-6.9-6.9s3.1-6.9,6.9-6.9S316.1,116.1,316.1,119.9L316.1,119.9z"
		/>
	<path class="st1" d="M296.7,119.9c0,4.2-3.4,7.6-7.6,7.6c-4.2,0-7.6-3.4-7.6-7.6s3.4-7.6,7.6-7.6
		C293.2,112.3,296.7,115.6,296.7,119.9L296.7,119.9z"/>
	<path class="st1" d="M296.4,119.9c0,4.1-3.3,7.4-7.4,7.4c-4.1,0-7.4-3.3-7.4-7.4s3.3-7.4,7.4-7.4
		C293.2,112.5,296.4,115.8,296.4,119.9L296.4,119.9z"/>
	<path class="st1" d="M284,119.9c0,4.1-3.3,7.4-7.4,7.4c-4.1,0-7.4-3.3-7.4-7.4s3.3-7.4,7.4-7.4C280.7,112.5,284,115.8,284,119.9
		L284,119.9z"/>
	<path class="st1" d="M269.1,119.9c0,4.1-3.4,7.5-7.5,7.5c-4.1,0-7.5-3.4-7.5-7.5s3.4-7.5,7.5-7.5
		C265.7,112.4,269.1,115.7,269.1,119.9z"/>
	<path class="st1" d="M279.9,119.9c0,4-3.3,7.3-7.3,7.3c-4,0-7.3-3.3-7.3-7.3c0-4,3.3-7.3,7.3-7.3l0,0
		C276.6,112.6,279.9,115.8,279.9,119.9z"/>
	<path class="st1" d="M262.7,119.9c0,4.1-3.3,7.4-7.4,7.4s-7.4-3.3-7.4-7.4s3.3-7.4,7.4-7.4l0,0
		C259.3,112.4,262.7,115.8,262.7,119.9z"/>
	<path class="st1" d="M319.2,119.9c0,4.1-3.3,7.3-7.3,7.3c-4.1,0-7.3-3.3-7.3-7.3c0-4,3.3-7.3,7.3-7.3l0,0
		C315.9,112.5,319.2,115.8,319.2,119.9z"/>
	<path class="st1" d="M316.1,119.9c0,4-3.2,7.2-7.2,7.2s-7.2-3.2-7.2-7.2c0-4,3.2-7.2,7.2-7.2l0,0
		C312.8,112.7,316.1,115.9,316.1,119.9z"/>
	<path class="st1" d="M280.6,119.9c0,4.4-3.6,7.9-7.9,7.9c-4.4,0-7.9-3.6-7.9-7.9s3.6-7.9,7.9-7.9l0,0
		C277.1,112,280.6,115.5,280.6,119.9z"/>
	<path class="st1" d="M291,119.9c0,4.1-3.3,7.4-7.4,7.4s-7.4-3.3-7.4-7.4s3.3-7.4,7.4-7.4l0,0C287.7,112.5,291,115.8,291,119.9z"/>
	<path class="st1" d="M237.5,119.9c0,4.1-3.3,7.4-7.4,7.4s-7.4-3.3-7.4-7.4s3.3-7.4,7.4-7.4l0,0
		C234.2,112.5,237.5,115.8,237.5,119.9z"/>
	<path class="st1" d="M291.8,119.9c0,4-3.2,7.2-7.2,7.2s-7.2-3.2-7.2-7.2c0-4,3.2-7.2,7.2-7.2l0,0
		C288.6,112.7,291.8,115.9,291.8,119.9z"/>
	<path class="st1" d="M306.2,119.9c0,4.1-3.3,7.5-7.5,7.5c-4.1,0-7.5-3.3-7.5-7.5c0-4.2,3.3-7.5,7.5-7.5
		C302.8,112.4,306.2,115.8,306.2,119.9L306.2,119.9z"/>
	<path class="st1" d="M275.1,119.9c0,4-3.3,7.3-7.3,7.3s-7.3-3.3-7.3-7.3c0-4,3.3-7.3,7.3-7.3C271.8,112.6,275.1,115.9,275.1,119.9
		L275.1,119.9z"/>
	<path class="st1" d="M284.4,119.9c0,4.1-3.4,7.5-7.5,7.5c-4.1,0-7.5-3.4-7.5-7.5s3.4-7.5,7.5-7.5
		C281.1,112.4,284.4,115.7,284.4,119.9z"/>
	<path class="st1" d="M240.9,119.9c0,4.2-3.4,7.6-7.6,7.6c-4.2,0-7.6-3.4-7.6-7.6c0-4.2,3.4-7.6,7.6-7.6
		C237.5,112.3,240.9,115.7,240.9,119.9L240.9,119.9z"/>
	<path class="st1" d="M262.2,119.9c0,4.1-3.4,7.5-7.5,7.5s-7.5-3.4-7.5-7.5s3.4-7.5,7.5-7.5C258.8,112.4,262.2,115.7,262.2,119.9
		L262.2,119.9z"/>
	<path class="st1" d="M311.9,119.9c0,4.1-3.3,7.5-7.5,7.5c-4.1,0-7.5-3.3-7.5-7.5c0-4.2,3.3-7.5,7.5-7.5
		C308.6,112.4,311.9,115.8,311.9,119.9L311.9,119.9z"/>
	<path class="st1" d="M308.6,119.9c0,4-3.2,7.2-7.2,7.2c-4,0-7.2-3.2-7.2-7.2c0-4,3.2-7.2,7.2-7.2l0,0
		C305.4,112.7,308.6,115.9,308.6,119.9z"/>
	<path class="st1" d="M240.7,119.9c0,4.1-3.3,7.4-7.4,7.4s-7.4-3.3-7.4-7.4s3.3-7.4,7.4-7.4S240.7,115.8,240.7,119.9L240.7,119.9z"
		/>
	<path class="st1" d="M273.2,119.9c0,3.9-3.2,7.1-7.1,7.1s-7.1-3.2-7.1-7.1s3.2-7.1,7.1-7.1l0,0C270,112.8,273.2,115.9,273.2,119.9z
		"/>
	<path class="st1" d="M274.8,119.9c0,3.9-3.1,7-7,7s-7-3.1-7-7s3.1-7,7-7C271.6,112.9,274.8,116,274.8,119.9L274.8,119.9z"/>
	<path class="st1" d="M292.5,119.9c0,3.9-3.1,7-7,7c-3.9,0-7-3.1-7-7s3.1-7,7-7C289.4,112.9,292.5,116,292.5,119.9L292.5,119.9z"/>
	<path class="st1" d="M282.6,119.9c0,4-3.3,7.3-7.3,7.3s-7.3-3.3-7.3-7.3c0-4,3.3-7.3,7.3-7.3l0,0
		C279.4,112.5,282.6,115.8,282.6,119.9z"/>
	<path class="st1" d="M203.5,99.7c0,4.4-3.6,7.8-7.8,7.8c-4.3,0-7.8-3.6-7.8-7.8s3.6-7.8,7.8-7.8l0,0
		C199.9,91.8,203.5,95.4,203.5,99.7z"/>
	<path class="st1" d="M158,99.7c0,4.1-3.4,7.5-7.5,7.5s-7.5-3.4-7.5-7.5s3.4-7.5,7.5-7.5l0,0C154.7,92.3,158,95.5,158,99.7z"/>
	<path class="st1" d="M176.6,99.7c0,4-3.2,7.2-7.2,7.2s-7.2-3.2-7.2-7.2c0-4,3.2-7.2,7.2-7.2l0,0C173.4,92.4,176.6,95.7,176.6,99.7z
		"/>
	<path class="st1" d="M234.1,99.7c0,4.4-3.6,7.9-7.9,7.9s-7.9-3.6-7.9-7.9c0-4.4,3.6-7.9,7.9-7.9l0,0
		C230.5,91.8,234.1,95.4,234.1,99.7z"/>
	<path class="st1" d="M207.8,99.7c0,4.3-3.5,7.7-7.7,7.7c-4.3,0-7.7-3.5-7.7-7.7s3.5-7.7,7.7-7.7C204.3,92,207.8,95.5,207.8,99.7
		L207.8,99.7z"/>
	<path class="st1" d="M172.8,99.7c0,4.1-3.3,7.5-7.5,7.5c-4.1,0-7.5-3.3-7.5-7.5c0-4.2,3.3-7.5,7.5-7.5
		C169.5,92.3,172.8,95.5,172.8,99.7L172.8,99.7z"/>
	<path class="st1" d="M282.4,99.7c0,4.4-3.6,7.9-7.9,7.9c-4.4,0-7.9-3.6-7.9-7.9c0-4.4,3.6-7.9,7.9-7.9l0,0
		C278.9,91.8,282.4,95.4,282.4,99.7z"/>
	<path class="st1" d="M213.7,99.7c0,4.3-3.5,7.8-7.8,7.8s-7.8-3.5-7.8-7.8c0-4.3,3.5-7.8,7.8-7.8l0,0
		C210.2,91.9,213.7,95.4,213.7,99.7z"/>
	<path class="st1" d="M256,99.7c0,4.3-3.5,7.8-7.8,7.8s-7.8-3.5-7.8-7.8c0-4.4,3.5-7.8,7.8-7.8S256,95.4,256,99.7z"/>
	<path class="st2" d="M193.5,99.7c0,4.3-3.5,7.6-7.6,7.6c-4.3,0-7.6-3.5-7.6-7.6c0-4.2,3.5-7.6,7.6-7.6
		C190,92,193.5,95.5,193.5,99.7L193.5,99.7z"/>
	<path class="st1" d="M263,99.7c0,4.1-3.4,7.5-7.5,7.5c-4.1,0-7.5-3.4-7.5-7.5s3.4-7.5,7.5-7.5l0,0C259.7,92.3,263,95.5,263,99.7z"
		/>
	<path class="st2" d="M277.5,79.5c0,4-3.3,7.3-7.3,7.3s-7.3-3.3-7.3-7.3c0-4,3.3-7.3,7.3-7.3S277.5,75.5,277.5,79.5L277.5,79.5z"/>
	<path class="st2" d="M131.9,79.5c0,4.1-3.3,7.3-7.3,7.3c-4.1,0-7.3-3.3-7.3-7.3c0-4.1,3.3-7.3,7.3-7.3l0,0
		C128.6,72.2,131.9,75.5,131.9,79.5z"/>
	<path class="st1" d="M268.4,79.5c0,4-3.2,7.2-7.2,7.2s-7.2-3.2-7.2-7.2c0-4,3.2-7.2,7.2-7.2l0,0C265.1,72.3,268.4,75.5,268.4,79.5z
		"/>
	<path class="st1" d="M238.6,79.5c0,4.1-3.3,7.4-7.4,7.4s-7.4-3.3-7.4-7.4s3.3-7.4,7.4-7.4l0,0C235.3,72.2,238.6,75.5,238.6,79.5z"
		/>
	<path class="st2" d="M112.7,79.5c0,4-3.2,7.2-7.2,7.2c-4,0-7.2-3.2-7.2-7.2c0-4,3.2-7.2,7.2-7.2l0,0
		C109.5,72.3,112.7,75.5,112.7,79.5z"/>
	<path class="st2" d="M322.6,79.5c0,4.1-3.3,7.4-7.4,7.4c-4.1,0-7.4-3.3-7.4-7.4s3.3-7.4,7.4-7.4l0,0
		C319.3,72.2,322.6,75.5,322.6,79.5z"/>
	<path class="st2" d="M82.8,79.5c0,4.1-3.4,7.5-7.5,7.5c-4.1,0-7.5-3.4-7.5-7.5s3.4-7.5,7.5-7.5l0,0C79.5,72.1,82.8,75.4,82.8,79.5z
		"/>
	<path class="st1" d="M266.1,79.5c0,4-3.3,7.3-7.3,7.3s-7.3-3.3-7.3-7.3c0-4,3.3-7.3,7.3-7.3S266.1,75.5,266.1,79.5L266.1,79.5z"/>
	<path class="st3" d="M183.2,79.5c0,4-3.2,7.2-7.2,7.2s-7.2-3.2-7.2-7.2c0-4,3.2-7.2,7.2-7.2l0,0C180,72.3,183.2,75.5,183.2,79.5z"
		/>
	<path class="st3" d="M266.2,79.5c0,4-3.2,7.2-7.2,7.2c-4,0-7.2-3.2-7.2-7.2c0-4,3.2-7.2,7.2-7.2l0,0
		C262.9,72.3,266.2,75.5,266.2,79.5z"/>
	<path class="st1" d="M266.8,79.5c0,4.1-3.3,7.3-7.3,7.3c-4.1,0-7.3-3.3-7.3-7.3c0-4.1,3.3-7.3,7.3-7.3l0,0
		C263.6,72.2,266.8,75.5,266.8,79.5z"/>
	<path class="st1" d="M327.3,79.5c0,4.2-3.4,7.6-7.6,7.6c-4.2,0-7.6-3.4-7.6-7.6c0-4.2,3.4-7.6,7.6-7.6l0,0
		C323.9,71.9,327.3,75.3,327.3,79.5z"/>
	<path class="st3" d="M203.3,79.5c0,4.1-3.3,7.5-7.5,7.5c-4.1,0-7.5-3.3-7.5-7.5c0-4.1,3.3-7.5,7.5-7.5
		C200.1,72.1,203.3,75.4,203.3,79.5L203.3,79.5z"/>
	<path class="st3" d="M285.1,79.5c0,3.9-3.2,7-7,7c-3.9,0-7-3.2-7-7c0-3.9,3.2-7,7-7C281.9,72.4,285.1,75.6,285.1,79.5L285.1,79.5z"
		/>
	<path class="st1" d="M277.5,79.5c0,4.2-3.4,7.6-7.6,7.6s-7.6-3.4-7.6-7.6c0-4.2,3.4-7.6,7.6-7.6l0,0
		C274.1,71.9,277.5,75.4,277.5,79.5z"/>
	<path class="st3" d="M259.8,79.5c0,4.4-3.6,7.9-7.9,7.9c-4.4,0-7.9-3.6-7.9-7.9c0-4.4,3.6-7.9,7.9-7.9l0,0
		C256.3,71.6,259.8,75.2,259.8,79.5z"/>
	<path class="st1" d="M236.5,79.5c0,3.8-3.1,6.8-6.8,6.8c-3.8,0-6.8-3.1-6.8-6.8c0-3.7,3.1-6.8,6.8-6.8l0,0
		C233.5,72.6,236.5,75.7,236.5,79.5z"/>
	<path class="st2" d="M248.7,79.5c0,3.9-3.2,7-7,7c-3.8,0-7-3.2-7-7c0-3.9,3.2-7,7-7C245.5,72.5,248.7,75.6,248.7,79.5L248.7,79.5z"
		/>
	<path class="st1" d="M277.2,79.5c0,4.1-3.4,7.5-7.5,7.5c-4.1,0-7.5-3.4-7.5-7.5s3.4-7.5,7.5-7.5l0,0
		C273.9,72.1,277.2,75.4,277.2,79.5z"/>
	<path class="st1" d="M210.9,79.5c0,3.8-3.1,7-7,7c-3.9,0-7-3.1-7-7c0-3.8,3.1-7,7-7l0,0C207.8,72.5,210.9,75.6,210.9,79.5z"/>
	<path class="st1" d="M300.9,79.5c0,4.2-3.4,7.6-7.6,7.6s-7.6-3.4-7.6-7.6c0-4.2,3.4-7.6,7.6-7.6C297.5,72,300.9,75.4,300.9,79.5
		L300.9,79.5z"/>
	<path class="st1" d="M234.4,79.5c0,3.9-3.2,7.1-7.1,7.1c-3.9,0-7.1-3.2-7.1-7.1c0-3.9,3.2-7.1,7.1-7.1l0,0
		C231.2,72.3,234.4,75.5,234.4,79.5z"/>
	<path class="st1" d="M139.5,79.5c0,4.1-3.3,7.5-7.5,7.5c-4.2,0-7.5-3.3-7.5-7.5c0-4.1,3.3-7.5,7.5-7.5
		C136.2,72.1,139.5,75.5,139.5,79.5L139.5,79.5z"/>
	<path class="st2" d="M284.3,79.5c0,4-3.3,7.3-7.3,7.3s-7.3-3.3-7.3-7.3c0-4,3.3-7.3,7.3-7.3S284.3,75.5,284.3,79.5L284.3,79.5z"/>
	<path class="st1" d="M326.4,79.5c0,4.1-3.3,7.4-7.4,7.4s-7.4-3.3-7.4-7.4c0-4.1,3.3-7.4,7.4-7.4C323.1,72.2,326.4,75.5,326.4,79.5
		L326.4,79.5z"/>
	<path class="st2" d="M129.5,59.4c0,4-3.3,7.3-7.3,7.3c-4,0-7.3-3.3-7.3-7.3s3.3-7.3,7.3-7.3l0,0C126.2,52,129.5,55.3,129.5,59.4z"
		/>
	<path class="st1" d="M282.7,59.4c0,4.1-3.4,7.5-7.5,7.5c-4.1,0-7.5-3.4-7.5-7.5s3.4-7.5,7.5-7.5C279.3,51.9,282.7,55.2,282.7,59.4z
		"/>
	<path class="st1" d="M242.2,59.4c0,4-3.2,7.2-7.2,7.2s-7.2-3.2-7.2-7.2s3.2-7.2,7.2-7.2l0,0C238.9,52.1,242.2,55.4,242.2,59.4z"/>
	<path class="st1" d="M275,39.2c0,3.9-3.2,7.1-7.1,7.1c-3.9,0-7.1-3.2-7.1-7.1s3.2-7.1,7.1-7.1l0,0C271.8,32.1,275,35.3,275,39.2z"
		/>
	<path class="st2" d="M52.6,39.2c0,4-3.2,7.2-7.2,7.2s-7.2-3.2-7.2-7.2s3.2-7.2,7.2-7.2l0,0C49.4,32,52.6,35.2,52.6,39.2z"/>
	<path class="st2" d="M56.7,19c0,4.1-3.3,7.4-7.4,7.4S42,23.1,42,19s3.3-7.4,7.4-7.4S56.7,14.9,56.7,19L56.7,19z"/>
	<path class="st2" d="M59.9,19c0,4.1-3.4,7.5-7.5,7.5S45,23.1,45,19s3.4-7.5,7.5-7.5l0,0C56.6,11.6,59.9,14.8,59.9,19z"/>
	<path class="st2" d="M90.9,19c0,4.2-3.4,7.6-7.6,7.6c-4.2,0-7.6-3.4-7.6-7.6s3.4-7.6,7.6-7.6l0,0C87.5,11.5,90.9,14.8,90.9,19z"/>
	<path class="st2" d="M108,19c0,3.9-3.2,7.1-7.1,7.1s-7.1-3.2-7.1-7.1s3.2-7.1,7.1-7.1l0,0C104.8,11.8,108,15,108,19z"/>
	<path class="st2" d="M51.9,19c0,4.1-3.3,7.3-7.3,7.3S37.3,23,37.3,19s3.3-7.3,7.3-7.3l0,0C48.6,11.6,51.9,14.9,51.9,19z"/>
	<path class="st1" d="M242,19c0,4-3.2,7.2-7.2,7.2c-4,0-7.2-3.2-7.2-7.2s3.2-7.2,7.2-7.2l0,0C238.8,11.8,242,15,242,19z"/>
	<path class="st1" d="M270,19c0,4-3.3,7.3-7.3,7.3c-4,0-7.3-3.3-7.3-7.3s3.3-7.3,7.3-7.3l0,0C266.7,11.7,270,14.9,270,19z"/>
	<path class="st1" d="M308,19c0,4.1-3.4,7.5-7.5,7.5c-4.1,0-7.5-3.4-7.5-7.5s3.4-7.5,7.5-7.5C304.7,11.6,308,14.8,308,19L308,19z"/>
	<path class="st3" d="M49.8,19c0,3.9-3.2,7.1-7.1,7.1s-7.1-3.2-7.1-7.1s3.2-7.1,7.1-7.1S49.8,15,49.8,19z"/>
	<path class="st2" d="M141.1,19c0,4-3.3,7.3-7.3,7.3s-7.3-3.3-7.3-7.3s3.3-7.3,7.3-7.3l0,0C137.9,11.6,141.1,14.9,141.1,19z"/>
	<path class="st1" d="M240.7,19c0,4-3.2,7.2-7.2,7.2c-4,0-7.2-3.2-7.2-7.2s3.2-7.2,7.2-7.2l0,0C237.5,11.8,240.7,15,240.7,19z"/>
	<path class="st1" d="M297,19c0,4.1-3.3,7.4-7.4,7.4c-4.1,0-7.4-3.3-7.4-7.4s3.3-7.4,7.4-7.4l0,0C293.7,11.6,297,14.9,297,19z"/>
	<path class="st2" d="M112.7,19c0,4.3-3.5,7.8-7.8,7.8c-4.3,0-7.8-3.5-7.8-7.8s3.5-7.8,7.8-7.8C109.2,11.2,112.7,14.7,112.7,19
		L112.7,19z"/>
	<path class="st2" d="M101.2,19c0,4-3.3,7.3-7.3,7.3c-4,0-7.3-3.3-7.3-7.3s3.3-7.3,7.3-7.3l0,0C97.9,11.7,101.2,14.9,101.2,19z"/>
	<path class="st2" d="M152.2,19c0,4-3.3,7.3-7.3,7.3c-4,0-7.3-3.3-7.3-7.3s3.3-7.3,7.3-7.3l0,0C148.9,11.6,152.2,14.9,152.2,19z"/>
	<path class="st2" d="M29.2,19c0,4.1-3.3,7.4-7.4,7.4s-7.4-3.3-7.4-7.4s3.3-7.4,7.4-7.4S29.2,14.9,29.2,19L29.2,19z"/>
	<path class="st2" d="M122.6,19c0,4.1-3.3,7.4-7.4,7.4c-4.1,0-7.4-3.3-7.4-7.4s3.3-7.4,7.4-7.4C119.2,11.6,122.6,14.9,122.6,19
		L122.6,19z"/>
	<path class="st2" d="M147.9,19c0,4.1-3.3,7.3-7.3,7.3c-4,0-7.3-3.3-7.3-7.3s3.3-7.3,7.3-7.3l0,0C144.6,11.6,147.9,14.9,147.9,19z"
		/>
	<path class="st2" d="M153.1,19c0,4-3.2,7.2-7.2,7.2c-4,0-7.2-3.2-7.2-7.2s3.2-7.2,7.2-7.2l0,0C149.9,11.8,153.1,15,153.1,19z"/>
	<path class="st2" d="M32,19c0,4.2-3.4,7.6-7.6,7.6s-7.6-3.4-7.6-7.6s3.6-7.6,7.7-7.6S32,14.8,32,19L32,19z"/>
	<path class="st2" d="M62,19c0,4.1-3.4,7.5-7.5,7.5S47,23.1,47,19s3.4-7.5,7.5-7.5S62,14.8,62,19z"/>
	<path class="st2" d="M51.2,19c0,4.2-3.4,7.6-7.6,7.6s-7.6-3.4-7.6-7.6s3.4-7.6,7.6-7.6l0,0C47.8,11.5,51.2,14.8,51.2,19z"/>
	<path class="st1" d="M297.5,19c0,3.9-3.2,7.1-7.1,7.1s-7.1-3.2-7.1-7.1s3.2-7.1,7.1-7.1l0,0C294.3,11.9,297.5,15.1,297.5,19z"/>
	<path class="st2" d="M201.6,19c0,4.1-3.4,7.5-7.5,7.5s-7.5-3.4-7.5-7.5s3.4-7.5,7.5-7.5S201.6,14.8,201.6,19z"/>
	<path class="st2" d="M49,19c0,3.9-3.2,7-7,7s-7-3.2-7-7s3.2-7,7-7S49,15.1,49,19L49,19z"/>
</g>
<path class="st4" d="M1273.5,70v14.4 M1111.7,70v14.4h191.6V70H1111.7z M1111.7,77.2h-87.9 M1303.3,77.2H1429 M1023.7,73.6v7.2
	 M1429,73.6v7.2"/>
<path class="st5" d="M958.1,81.1c-2.4,0-4.3-1.7-4.3-3.9s2-3.9,4.3-3.9s4.3,1.7,4.3,3.9S960.5,81.1,958.1,81.1z"/>
<path class="st5" d="M960.7,81.1c-2.4,0-4.3-1.7-4.3-3.9s2-3.9,4.3-3.9c2.4,0,4.3,1.7,4.3,3.9S963.1,81.1,960.7,81.1z"/>
<path class="st6" d="M1257.4,70v14.4"/>
<g>
	<path class="st7" d="M1226.4,128.6V143 M1220.2,128.6V143h10.3v-14.4H1220.2z M1220.2,135.8h-6.1 M1230.4,135.8h4 M1214.1,132.2
		v7.2 M1234.4,132.2v7.2"/>
	<path class="st8" d="M1225.3,128.6V143"/>
</g>
<path class="st4" d="M1154.9,40.7v14.4 M1048.8,40.7v14.4h213.9V40.7H1048.8z M1048.8,47.9h-77 M1262.7,47.9h83.5 M971.8,44.3v7.2
	 M1346.2,44.3v7.2"/>
<path class="st6" d="M1156,40.7v14.4"/>
<path class="st9" d="M879.5,53c-2.2,0-3.9-1.5-3.9-3.5s1.7-3.5,3.9-3.5c2.2,0,3.9,1.5,3.9,3.5C883.5,51.5,881.7,53,879.5,53z"/>
<path class="st10" d="M677.3,52c-2.4,0-4.3-1.7-4.3-3.9c0-2.2,2-3.9,4.3-3.9s4.3,1.7,4.3,3.9C681.7,50.3,679.7,52,677.3,52z"/>
<path class="st10" d="M681.3,52c-2.4,0-4.3-1.7-4.3-3.9c0-2.2,2-3.9,4.3-3.9s4.3,1.7,4.3,3.9C685.6,50.3,683.6,52,681.3,52z"/>
<path class="st10" d="M681.7,52c-2.4,0-4.3-1.7-4.3-3.9c0-2.2,2-3.9,4.3-3.9s4.3,1.7,4.3,3.9C686.1,50.3,684.1,52,681.7,52z"/>
<path class="st10" d="M710.8,52c-2.4,0-4.3-1.7-4.3-3.9c0-2.2,2-3.9,4.3-3.9s4.3,1.7,4.3,3.9C715.1,50.3,713.2,52,710.8,52z"/>
<path class="st10" d="M781.7,52c-2.4,0-4.3-1.7-4.3-3.9c0-2.2,2-3.9,4.3-3.9c2.4,0,4.3,1.7,4.3,3.9C786,50.3,784,52,781.7,52z"/>
<path class="st4" d="M1198.2,99.3v14.4 M1141.5,99.3v14.4H1245V99.3H1141.5z M1141.5,106.5h-134.8 M1245,106.5h64.5 M1006.7,102.9
	v7.2 M1309.7,102.9v7.2"/>
<path class="st11" d="M925.9,110.6c-2.4,0-4.3-1.8-4.3-4s2-3.9,4.3-3.9c2.4,0,4.3,1.8,4.3,4C930.2,108.9,928.3,110.6,925.9,110.6z"
	/>
<path class="st11" d="M1357.7,110.7c-2.4,0-4.3-1.8-4.3-4s2-3.9,4.3-3.9c2.4,0,4.3,1.8,4.3,4C1362,109,1360,110.8,1357.7,110.7z"/>
<path class="st11" d="M1368.5,110.8c-2.4,0-4.3-1.8-4.3-4s2-3.9,4.3-3.9c2.4,0,4.3,1.8,4.3,4C1372.8,109,1370.8,110.8,1368.5,110.8z
	"/>
<path class="st6" d="M1194.8,99.3v14.4"/>
<path class="st10" d="M871.3,110.6c-2.4,0-4.3-1.7-4.3-3.9s2-3.9,4.3-3.9s4.3,1.7,4.3,3.9C875.6,108.9,873.7,110.6,871.3,110.6z"/>
<path class="st10" d="M875.2,110.6c-2.4,0-4.3-1.7-4.3-3.9s2-3.9,4.3-3.9s4.3,1.7,4.3,3.9C879.6,108.9,877.7,110.6,875.2,110.6z"/>
<path class="st10" d="M875.7,110.6c-2.4,0-4.3-1.7-4.3-3.9s2-3.9,4.3-3.9s4.3,1.7,4.3,3.9C880,108.9,878.1,110.6,875.7,110.6z"/>
<path class="st10" d="M904.8,110.6c-2.4,0-4.3-1.7-4.3-3.9s2-3.9,4.3-3.9s4.3,1.7,4.3,3.9C909.1,108.9,907.2,110.6,904.8,110.6z"/>
<path class="st10" d="M963.5,110.6c-2.4,0-4.3-1.7-4.3-3.9s2-3.9,4.3-3.9s4.3,1.7,4.3,3.9C967.8,108.9,965.9,110.6,963.5,110.6z"/>
<path class="st7" d="M1247.6,158v14.4 M1219,158v14.4h52.7V158H1219z M1219,165.2h-54.8 M1271.6,165.2h69.7 M1164.2,161.6v7.2
	 M1341.3,161.6v7.2"/>
<path class="st10" d="M902,169c-2.4,0-4.3-1.7-4.3-3.9c0-2.2,2-3.9,4.3-3.9s4.3,1.7,4.3,3.9S904.4,169,902,169z"/>
<path class="st10" d="M907.3,169c-2.4,0-4.3-1.7-4.3-3.9c0-2.2,2-3.9,4.3-3.9s4.3,1.7,4.3,3.9S909.6,169,907.3,169z"/>
<path class="st10" d="M924.3,169c-2.4,0-4.3-1.7-4.3-3.9c0-2.2,2-3.9,4.3-3.9s4.3,1.7,4.3,3.9C928.6,167.3,926.6,169,924.3,169z"/>
<path class="st10" d="M968.7,169c-2.4,0-4.3-1.7-4.3-3.9c0-2.2,2-3.9,4.3-3.9s4.3,1.7,4.3,3.9S971.1,169,968.7,169z"/>
<path class="st10" d="M1005.3,169c-2.4,0-4.3-1.7-4.3-3.9c0-2.2,2-3.9,4.3-3.9s4.3,1.7,4.3,3.9C1009.6,167.3,1007.7,169,1005.3,169z
	"/>
<path class="st10" d="M1052,169c-2.4,0-4.3-1.7-4.3-3.9c0-2.2,2-3.9,4.3-3.9c2.4,0,4.3,1.7,4.3,3.9
	C1056.4,167.3,1054.4,169,1052,169z"/>
<path class="st10" d="M1088,169c-2.4,0-4.3-1.7-4.3-3.9c0-2.2,2-3.9,4.3-3.9c2.4,0,4.3,1.7,4.3,3.9S1090.4,169,1088,169z"/>
<path class="st10" d="M1119.7,169c-2.4,0-4.3-1.7-4.3-3.9c0-2.2,2-3.9,4.3-3.9c2.4,0,4.3,1.7,4.3,3.9S1122.1,169,1119.7,169z"/>
<path class="st10" d="M1131.3,169c-2.4,0-4.3-1.7-4.3-3.9c0-2.2,2-3.9,4.3-3.9c2.4,0,4.3,1.7,4.3,3.9S1133.7,169,1131.3,169z"/>
<path class="st10" d="M1371.4,169c-2.4,0-4.3-1.7-4.3-3.9c0-2.2,2-3.9,4.3-3.9c2.4,0,4.3,1.7,4.3,3.9
	C1375.7,167.3,1373.8,169,1371.4,169z"/>
<path class="st10" d="M1379.9,169c-2.4,0-4.3-1.7-4.3-3.9c0-2.2,2-3.9,4.3-3.9c2.4,0,4.3,1.7,4.3,3.9
	C1384.2,167.3,1382.3,169,1379.9,169z"/>
<path class="st10" d="M1394.1,169c-2.4,0-4.3-1.7-4.3-3.9c0-2.2,2-3.9,4.3-3.9c2.4,0,4.3,1.7,4.3,3.9S1396.5,169,1394.1,169z"/>
<path class="st10" d="M1394.8,169c-2.4,0-4.3-1.7-4.3-3.9c0-2.2,2-3.9,4.3-3.9c2.4,0,4.3,1.7,4.3,3.9
	C1399.1,167.3,1397.2,169,1394.8,169z"/>
<path class="st12" d="M1248.1,158v14.4"/>
<path class="st7" d="M1200.4,187.2v14.4 M1168.4,187.2v14.4h89.7v-14.4H1168.4z M1168.4,194.5h-99.2 M1258.2,194.5h110.1
	 M1069.2,190.9v7.2 M1368.3,190.9v7.2"/>
<path class="st10" d="M987.7,198.3c-2.4,0-4.3-1.7-4.3-3.9c0-2.2,2-3.9,4.3-3.9c2.3,0,4.3,1.7,4.3,3.9S990,198.3,987.7,198.3z"/>
<path class="st10" d="M1004.7,198.3c-2.4,0-4.3-1.7-4.3-3.9c0-2.2,2-3.9,4.3-3.9s4.3,1.7,4.3,3.9
	C1009,196.6,1007,198.3,1004.7,198.3z"/>
<path class="st10" d="M1049.2,198.3c-2.4,0-4.3-1.7-4.3-3.9c0-2.2,2-3.9,4.3-3.9c2.4,0,4.3,1.7,4.3,3.9S1051.5,198.3,1049.2,198.3z"
	/>
<path class="st12" d="M1199.6,187.2v14.4"/>
<path class="st10" d="M1232.4,227.5c-2.4,0-4.3-1.7-4.3-3.9s2-3.9,4.3-3.9s4.3,1.7,4.3,3.9C1236.8,225.7,1234.9,227.5,1232.4,227.5z
	"/>
<path class="st10" d="M1249.4,227.5c-2.4,0-4.3-1.7-4.3-3.9s2-3.9,4.3-3.9c2.4,0,4.3,1.7,4.3,3.9
	C1253.8,225.7,1251.9,227.5,1249.4,227.5z"/>
<path class="st7" d="M1263.1,216.6V231 M1262.1,216.6V231h1.9v-14.4L1262.1,216.6L1262.1,216.6z M1262.1,223.8L1262.1,223.8
	 M1264,223.8L1264,223.8 M1262.1,220.2v7.2 M1264,220.2v7.2"/>
<path class="st7" d="M1263.1,216.6V231"/>
<path class="st7" d="M1277.1,245.9v14.4 M1275.4,245.9v14.4h4.1v-14.4H1275.4z M1275.4,253.1h-3.5 M1279.6,253.1h2.8 M1271.9,249.5
	v7.2 M1282.3,249.5v7.2"/>
<path class="st13" d="M1287.4,257c-2.4,0-4.3-1.7-4.3-3.9c0-2.2,2-3.9,4.3-3.9c2.4,0,4.3,1.7,4.3,3.9
	C1291.7,255.3,1289.7,257,1287.4,257z"/>
<path class="st13" d="M1288.5,257c-2.4,0-4.3-1.7-4.3-3.9c0-2.2,2-3.9,4.3-3.9s4.3,1.7,4.3,3.9C1292.8,255.3,1290.8,257,1288.5,257z
	"/>
<path class="st13" d="M1318.5,257c-2.4,0-4.3-1.7-4.3-3.9c0-2.2,2-3.9,4.3-3.9s4.3,1.7,4.3,3.9C1322.9,255.3,1321,257,1318.5,257z"
	/>
<path class="st8" d="M1278.7,245.9v14.4"/>
<path class="st7" d="M1280,275.3v14.4 M1255,275.3v14.4h88.7v-14.4H1255z M1255,282.5h-69 M1343.6,282.5h59.8 M1186,278.9v7.2
	 M1403.4,278.9v7.2"/>
<path class="st14" d="M1172.1,286.3c-2.4,0-4.3-1.7-4.3-3.9s2-3.9,4.3-3.9c2.4,0,4.3,1.7,4.3,3.9S1174.5,286.3,1172.1,286.3z"/>
<path class="st8" d="M1275.2,275.3v14.4"/>
<rect x="95.8" y="0.9" class="st15" width="1.9" height="299.9"/>
<rect x="82.6" y="0.9" class="st15" width="1.9" height="299.9"/>
<rect x="18.4" y="0.9" class="st15" width="1.9" height="299.9"/>
<rect x="252.5" y="0.9" class="st15" width="1.9" height="299.9"/>
<rect x="409.2" y="0.9" class="st15" width="1.9" height="299.9"/>
<rect x="566" y="0.9" class="st16" width="1.9" height="299.9"/>
<g>
	<path class="st7" d="M1235.1,11.3v14.4 M905.9,11.3v14.4H1377V11.3H905.9z M905.9,18.5H671.1 M1377,18.5h33.6 M671.1,14.9v7.2
		 M1410.6,14.9v7.2"/>
	<path class="st8" d="M1069.4,11.3v14.4"/>
</g>
<g id="Layer_1_1_">
</g>
</svg>
