<svg xmlns="http://www.w3.org/2000/svg" xmlns:xlink="http://www.w3.org/1999/xlink" viewBox="0 0 1440 160"><defs><style>.cls-1,.cls-10,.cls-11,.cls-12,.cls-16,.cls-8{fill:none;}.cls-2{isolation:isolate;}.cls-3{fill:url(#linear-gradient);}.cls-4,.cls-5,.cls-6,.cls-7{fill:#fff;mix-blend-mode:luminosity;}.cls-4{opacity:0.1;}.cls-5{opacity:0.09;}.cls-6{opacity:0.07;}.cls-7{opacity:0.05;}.cls-10,.cls-11,.cls-12,.cls-16,.cls-8{stroke:#fff;}.cls-10,.cls-12,.cls-8{stroke-miterlimit:10;}.cls-11,.cls-8{stroke-width:0.75px;}.cls-9{fill:#bf418e;}.cls-14,.cls-15,.cls-17,.cls-18,.cls-19,.cls-9{opacity:0.35;}.cls-10,.cls-12,.cls-16{stroke-width:0.5px;}.cls-10,.cls-16{stroke-dasharray:3 1;}.cls-13,.cls-14{fill:#8e4f9e;}.cls-15{fill:#b5499a;}.cls-17{fill:#d1d1d1;}.cls-18{fill:#a364a0;}.cls-19{fill:#e5d06c;}.cls-20{clip-path:url(#clip-path);}.cls-21{clip-path:url(#clip-path-2);}</style><linearGradient id="linear-gradient" y1="74.9" x2="1440" y2="74.9" gradientUnits="userSpaceOnUse"><stop offset="0" stop-color="#b6d9df"/><stop offset="0.07" stop-color="#91afbe"/><stop offset="0.13" stop-color="#728ca1"/><stop offset="0.21" stop-color="#586e8a"/><stop offset="0.28" stop-color="#445878"/><stop offset="0.37" stop-color="#36486b"/><stop offset="0.46" stop-color="#2e3e63"/><stop offset="0.58" stop-color="#2b3b61"/></linearGradient><clipPath id="clip-path"><rect class="cls-1" x="92.24" y="-1" width="198.41" height="12.97"/></clipPath><clipPath id="clip-path-2"><rect class="cls-1" x="76.61" y="142.14" width="724.37" height="16.86"/></clipPath></defs><title>homepage_bg_180h_3</title><g class="cls-2"><g id="Layer_2" data-name="Layer 2"><rect class="cls-3" y="-10.19" width="1440" height="170.19"/><rect class="cls-4" x="387.04" width="2.82" height="160"/><rect class="cls-5" x="174.41" width="2.82" height="160"/><rect class="cls-6" x="97.58" width="2.82" height="160"/><rect class="cls-4" x="276.13" width="2.82" height="160"/><rect class="cls-7" x="51.59" width="2.82" height="160"/><rect class="cls-4" x="530.42" width="2.82" height="160"/><rect class="cls-4" x="672.72" width="2.82" height="160"/><rect class="cls-4" x="784.72" width="2.82" height="160"/><path class="cls-8" d="M1304.83,51.76V65M1196.76,51.76V65h135.39V51.76Zm0,6.61H1116m216.2,0h115.47M1116,55.06v6.62m331.67-6.62v6.62"/><path class="cls-9" d="M1063,62a3.6,3.6,0,1,1,4-3.59A3.81,3.81,0,0,1,1063,62Z"/><path class="cls-9" d="M1065.41,62a3.6,3.6,0,1,1,4-3.59A3.8,3.8,0,0,1,1065.41,62Z"/><path class="cls-10" d="M1290,51.76V65"/><path class="cls-11" d="M1277.14,94.13v13.25m-10.71-13.25v13.25h14.44V94.13Zm0,6.62h-5.61m20,0h3.61m-23.66-3.31v6.62m23.66-6.62v6.62"/><path class="cls-10" d="M1274.44,94.13v13.25"/><path class="cls-12" d="M1176.45,30.56V43.8M1082,30.56V43.8h215.64V30.56Zm0,6.62h-70.74m286.38,0h76.72m-363.1-3.31v6.62m363.1-6.62v6.62"/><path class="cls-10" d="M1180.44,30.56V43.8"/><path class="cls-13" d="M931.11,40.41a3.43,3.43,0,0,1-3.59-3.23,3.61,3.61,0,0,1,7.18,0A3.43,3.43,0,0,1,931.11,40.41Z"/><path class="cls-14" d="M747.15,40.76a3.79,3.79,0,0,1-4-3.58,4,4,0,0,1,8,0A3.8,3.8,0,0,1,747.15,40.76Z"/><path class="cls-14" d="M750.79,40.76a3.79,3.79,0,0,1-4-3.58,4,4,0,0,1,8,0A3.79,3.79,0,0,1,750.79,40.76Z"/><path class="cls-14" d="M751.21,40.76a3.8,3.8,0,0,1-4-3.58,4,4,0,0,1,8,0A3.79,3.79,0,0,1,751.21,40.76Z"/><path class="cls-14" d="M777.9,40.76a3.79,3.79,0,0,1-4-3.58,4,4,0,0,1,8,0A3.79,3.79,0,0,1,777.9,40.76Z"/><path class="cls-14" d="M843,40.76a3.79,3.79,0,0,1-4-3.58,4,4,0,0,1,8,0A3.8,3.8,0,0,1,843,40.76Z"/><path class="cls-8" d="M1131.93,73V86.18M1101,73V86.18h74V73Zm0,6.62H977.25m197.7,0h59.33m-257-3.31v6.61m257-6.61v6.61"/><path class="cls-15" d="M870.53,83.15a3.61,3.61,0,1,1,4-3.57A3.82,3.82,0,0,1,870.53,83.15Z"/><path class="cls-15" d="M1272.89,83.15a3.61,3.61,0,1,1,4-3.57A3.82,3.82,0,0,1,1272.89,83.15Z"/><path class="cls-15" d="M1282.83,83.15a3.6,3.6,0,1,1,4-3.57A3.81,3.81,0,0,1,1282.83,83.15Z"/><path class="cls-10" d="M1128.76,73V86.18"/><path class="cls-14" d="M776.23,83.15a3.61,3.61,0,1,1,4-3.58A3.8,3.8,0,0,1,776.23,83.15Z"/><path class="cls-14" d="M779.87,83.15a3.6,3.6,0,1,1,4-3.58A3.81,3.81,0,0,1,779.87,83.15Z"/><path class="cls-14" d="M780.29,83.15a3.6,3.6,0,1,1,4-3.58A3.81,3.81,0,0,1,780.29,83.15Z"/><path class="cls-14" d="M851.13,83.15a3.6,3.6,0,1,1,4-3.58A3.81,3.81,0,0,1,851.13,83.15Z"/><path class="cls-14" d="M944.88,83.15a3.6,3.6,0,1,1,4-3.58A3.81,3.81,0,0,1,944.88,83.15Z"/><path class="cls-11" d="M1273.22,115.33v13.24m-71.58-13.24v13.24h93.64V115.33Zm0,6.61H1151.3m144,0h64m-208-3.31v6.62m208-6.62v6.62"/><path class="cls-14" d="M886.49,125.53a3.6,3.6,0,1,1,4-3.58A3.8,3.8,0,0,1,886.49,125.53Z"/><path class="cls-14" d="M891.35,125.53a3.6,3.6,0,1,1,4-3.58A3.79,3.79,0,0,1,891.35,125.53Z"/><path class="cls-14" d="M907,125.53a3.6,3.6,0,1,1,4-3.58A3.79,3.79,0,0,1,907,125.53Z"/><path class="cls-14" d="M947.84,125.53a3.6,3.6,0,1,1,4-3.58A3.79,3.79,0,0,1,947.84,125.53Z"/><path class="cls-14" d="M981.43,125.53a3.6,3.6,0,1,1,4-3.58A3.79,3.79,0,0,1,981.43,125.53Z"/><path class="cls-14" d="M1051.05,125.53a3.6,3.6,0,1,1,4-3.58A3.8,3.8,0,0,1,1051.05,125.53Z"/><path class="cls-14" d="M1084.1,125.53a3.6,3.6,0,1,1,4-3.58A3.79,3.79,0,0,1,1084.1,125.53Z"/><path class="cls-14" d="M1113.19,125.53a3.6,3.6,0,1,1,4-3.58A3.79,3.79,0,0,1,1113.19,125.53Z"/><path class="cls-14" d="M1123.86,125.53a3.6,3.6,0,1,1,4-3.58A3.79,3.79,0,0,1,1123.86,125.53Z"/><path class="cls-14" d="M1374,125.53a3.6,3.6,0,1,1,4-3.58A3.8,3.8,0,0,1,1374,125.53Z"/><path class="cls-14" d="M1381.8,125.53a3.6,3.6,0,1,1,4-3.58A3.79,3.79,0,0,1,1381.8,125.53Z"/><path class="cls-14" d="M1394.87,125.53a3.6,3.6,0,1,1,4-3.58A3.8,3.8,0,0,1,1394.87,125.53Z"/><path class="cls-14" d="M1395.5,125.53a3.6,3.6,0,1,1,4-3.58A3.8,3.8,0,0,1,1395.5,125.53Z"/><path class="cls-10" d="M1275,115.33v13.24"/><path class="cls-11" d="M1191,136.52v13.25m-29.38-13.25v13.25h82.48V136.52Zm0,6.62h-91.1m173.58,0H1336m-265.52-3.31v6.63M1336,139.83v6.63"/><path class="cls-14" d="M839.56,146.72a3.6,3.6,0,1,1,4-3.58A3.79,3.79,0,0,1,839.56,146.72Z"/><path class="cls-14" d="M951.19,146.72a3.6,3.6,0,1,1,4-3.58A3.79,3.79,0,0,1,951.19,146.72Z"/><path class="cls-14" d="M850.52,146.72a3.6,3.6,0,1,1,4-3.58A3.79,3.79,0,0,1,850.52,146.72Z"/><path class="cls-14" d="M992.05,146.72a3.6,3.6,0,1,1,4-3.58A3.8,3.8,0,0,1,992.05,146.72Z"/><path class="cls-10" d="M1188.22,136.52v13.25"/><path class="cls-14" d="M640.66,19.57a3.79,3.79,0,0,1-4-3.58,4,4,0,0,1,8,0A3.79,3.79,0,0,1,640.66,19.57Z"/><path class="cls-14" d="M644.29,19.57a3.79,3.79,0,0,1-4-3.58,4,4,0,0,1,8,0A3.8,3.8,0,0,1,644.29,19.57Z"/><path class="cls-14" d="M674.16,19.57a3.8,3.8,0,0,1-4-3.58,4,4,0,0,1,8,0A3.79,3.79,0,0,1,674.16,19.57Z"/><path class="cls-11" d="M1214.14,9.37V22.61M911.78,9.37V22.61h408.86V9.37Zm0,6.62H696m624.64,0h30.84M696,12.68V19.3m655.48-6.62V19.3"/><path class="cls-16" d="M1061.9,9.37V22.61"/><path class="cls-17" d="M590.85,129.21a7.62,7.62,0,1,1-7.63-7.6h0A7.62,7.62,0,0,1,590.85,129.21Z"/><path class="cls-17" d="M619.37,129.27a7.56,7.56,0,1,1-7.57-7.55h0A7.55,7.55,0,0,1,619.37,129.27Z"/><path class="cls-17" d="M605.49,129.4A7.44,7.44,0,1,1,598,122h0A7.43,7.43,0,0,1,605.49,129.4Z"/><path class="cls-17" d="M617.69,129.21a7.62,7.62,0,1,1-7.63-7.6h0A7.61,7.61,0,0,1,617.69,129.21Z"/><path class="cls-17" d="M585.57,129.27a7.57,7.57,0,1,1-7.58-7.55h0A7.56,7.56,0,0,1,585.57,129.27Z"/><path class="cls-17" d="M591,128.67a8.16,8.16,0,1,1-8.18-8.15h0A8.17,8.17,0,0,1,591,128.67Z"/><path class="cls-18" d="M591.59,129.17a7.66,7.66,0,1,1-7.67-7.65,7.65,7.65,0,0,1,7.67,7.65Z"/><path class="cls-17" d="M627.08,129.53a7.31,7.31,0,1,1-7.32-7.3,7.3,7.3,0,0,1,7.32,7.3Z"/><path class="cls-17" d="M611.58,129.26a7.58,7.58,0,1,1-7.58-7.57h0A7.57,7.57,0,0,1,611.58,129.26Z"/><path class="cls-17" d="M621.3,129.11a7.72,7.72,0,1,1-7.73-7.7,7.72,7.72,0,0,1,7.73,7.7Z"/><path class="cls-17" d="M623.63,129.27a7.56,7.56,0,1,1-7.57-7.55h0A7.55,7.55,0,0,1,623.63,129.27Z"/><path class="cls-18" d="M592.46,129.21a7.62,7.62,0,1,1-7.63-7.6h0A7.62,7.62,0,0,1,592.46,129.21Z"/><path class="cls-17" d="M628,129a7.85,7.85,0,1,1-7.85-7.84A7.83,7.83,0,0,1,628,129Z"/><path class="cls-17" d="M620.81,129.09a7.75,7.75,0,1,1-7.76-7.74h0A7.74,7.74,0,0,1,620.81,129.09Z"/><path class="cls-17" d="M639.75,129.3a7.53,7.53,0,1,1-7.54-7.52h0A7.52,7.52,0,0,1,639.75,129.3Z"/><path class="cls-17" d="M623.72,129.13a7.71,7.71,0,1,1-7.72-7.7h0A7.71,7.71,0,0,1,623.72,129.13Z"/><path class="cls-17" d="M613.45,129a7.85,7.85,0,1,1-7.86-7.84,7.83,7.83,0,0,1,7.86,7.84Z"/><path class="cls-17" d="M618.63,129.36a7.48,7.48,0,1,1-7.48-7.47A7.46,7.46,0,0,1,618.63,129.36Z"/><path class="cls-17" d="M610.09,129.21a7.62,7.62,0,1,1-7.63-7.6h0A7.62,7.62,0,0,1,610.09,129.21Z"/><path class="cls-17" d="M611.54,129.19a7.65,7.65,0,1,1-7.66-7.64h0A7.64,7.64,0,0,1,611.54,129.19Z"/><path class="cls-17" d="M623.78,129.28a7.55,7.55,0,1,1-7.56-7.53h0A7.55,7.55,0,0,1,623.78,129.28Z"/><path class="cls-17" d="M606.53,129.37a7.47,7.47,0,1,1-7.47-7.45h0A7.46,7.46,0,0,1,606.53,129.37Z"/><path class="cls-17" d="M607.14,129.17a7.66,7.66,0,1,1-7.67-7.65,7.65,7.65,0,0,1,7.67,7.65Z"/><path class="cls-17" d="M632.26,129a7.85,7.85,0,1,1-7.86-7.84,7.83,7.83,0,0,1,7.86,7.84Z"/><path class="cls-17" d="M601.83,129a7.85,7.85,0,1,1-7.86-7.84,7.84,7.84,0,0,1,7.86,7.84Z"/><path class="cls-17" d="M592.13,129a7.83,7.83,0,1,1-7.84-7.82A7.82,7.82,0,0,1,592.13,129Z"/><path class="cls-17" d="M476.69,128.81a8,8,0,1,1-8-8h0A8,8,0,0,1,476.69,128.81Z"/><path class="cls-17" d="M456.41,128.7a8.15,8.15,0,1,1-8.14-8.15h0A8.14,8.14,0,0,1,456.41,128.7Z"/><path class="cls-17" d="M450,129a7.86,7.86,0,1,1-7.86-7.86h0A7.86,7.86,0,0,1,450,129Z"/><path class="cls-17" d="M479.63,129.11a7.74,7.74,0,1,1-7.74-7.73,7.74,7.74,0,0,1,7.74,7.73Z"/><path class="cls-17" d="M384.63,129.1a7.75,7.75,0,1,1-7.75-7.75h0A7.75,7.75,0,0,1,384.63,129.1Z"/><path class="cls-17" d="M483.34,129.1a7.75,7.75,0,1,1-7.74-7.75h0A7.75,7.75,0,0,1,483.34,129.1Z"/><path class="cls-18" d="M491.37,129.28a7.56,7.56,0,1,1-7.56-7.56h0A7.56,7.56,0,0,1,491.37,129.28Z"/><path class="cls-18" d="M345.83,129.28a7.56,7.56,0,1,1-7.56-7.56h0A7.57,7.57,0,0,1,345.83,129.28Z"/><path class="cls-17" d="M442.56,128.19a8.66,8.66,0,1,1-8.66-8.66h0A8.66,8.66,0,0,1,442.56,128.19Z"/><path class="cls-17" d="M406.27,129.08a7.76,7.76,0,1,1-7.76-7.76,7.75,7.75,0,0,1,7.76,7.76Z"/><path class="cls-17" d="M470.3,128.56a8.29,8.29,0,1,1-8.29-8.29h0A8.29,8.29,0,0,1,470.3,128.56Z"/><path class="cls-17" d="M455.59,129.05a7.79,7.79,0,1,1-7.79-7.79h0A7.79,7.79,0,0,1,455.59,129.05Z"/><path class="cls-17" d="M437.63,128.91A7.94,7.94,0,1,1,429.7,121h0A7.93,7.93,0,0,1,437.63,128.91Z"/><path class="cls-17" d="M337.08,103.89a8,8,0,1,1-8-8h0A8,8,0,0,1,337.08,103.89Z"/><path class="cls-17" d="M335.17,103.57a8.35,8.35,0,1,1-8.35-8.35h0A8.35,8.35,0,0,1,335.17,103.57Z"/><path class="cls-17" d="M262.56,104.09a7.82,7.82,0,1,1-7.82-7.81,7.82,7.82,0,0,1,7.82,7.81Z"/><path class="cls-17" d="M352.28,104a7.89,7.89,0,1,1-7.89-7.89,7.89,7.89,0,0,1,7.89,7.89Z"/><path class="cls-17" d="M354.1,104a7.88,7.88,0,1,1-7.88-7.88A7.87,7.87,0,0,1,354.1,104Z"/><path class="cls-17" d="M309,104a7.89,7.89,0,1,1-7.89-7.89A7.89,7.89,0,0,1,309,104Z"/><path class="cls-18" d="M149.32,78.88a7.75,7.75,0,1,1-7.75-7.75h0A7.75,7.75,0,0,1,149.32,78.88Z"/><path class="cls-17" d="M261.15,78.85a7.72,7.72,0,1,1-7.71-7.72,7.72,7.72,0,0,1,7.71,7.72Z"/><path class="cls-18" d="M320.76,79a7.89,7.89,0,1,1-7.89-7.89A7.89,7.89,0,0,1,320.76,79Z"/><path class="cls-17" d="M288.16,79a7.85,7.85,0,1,1-7.85-7.85A7.85,7.85,0,0,1,288.16,79Z"/><path class="cls-18" d="M64,78.91a7.78,7.78,0,1,1-7.77-7.78A7.77,7.77,0,0,1,64,78.91Z"/><path class="cls-17" d="M328.46,78.66a7.53,7.53,0,1,1-7.53-7.53h0A7.53,7.53,0,0,1,328.46,78.66Z"/><path class="cls-17" d="M324.75,79a7.86,7.86,0,1,1-7.86-7.86h0A7.86,7.86,0,0,1,324.75,79Z"/><path class="cls-17" d="M314.79,78.65a7.52,7.52,0,1,1-7.52-7.52h0A7.52,7.52,0,0,1,314.79,78.65Z"/><path class="cls-17" d="M209.33,78.82a7.7,7.7,0,1,1-7.69-7.69h0A7.69,7.69,0,0,1,209.33,78.82Z"/><path class="cls-17" d="M295.11,79.23a8.11,8.11,0,1,1-8.11-8.1h0A8.11,8.11,0,0,1,295.11,79.23Z"/><path class="cls-17" d="M323.81,78.86a7.74,7.74,0,1,1-7.74-7.73,7.74,7.74,0,0,1,7.74,7.73Z"/><path class="cls-17" d="M295.93,78.79a7.66,7.66,0,1,1-7.66-7.66,7.66,7.66,0,0,1,7.66,7.66Z"/><path class="cls-17" d="M258.63,78.85a7.72,7.72,0,1,1-7.71-7.72,7.72,7.72,0,0,1,7.71,7.72Z"/><path class="cls-17" d="M302.14,78.88a7.75,7.75,0,1,1-7.75-7.75h0A7.75,7.75,0,0,1,302.14,78.88Z"/><path class="cls-17" d="M336.15,78.39a7.26,7.26,0,1,1-7.26-7.26,7.27,7.27,0,0,1,7.26,7.26Z"/><path class="cls-17" d="M313.72,79.12a8,8,0,1,1-8-8,8,8,0,0,1,8,8Z"/><path class="cls-17" d="M313.48,78.91a7.78,7.78,0,1,1-7.78-7.78,7.77,7.77,0,0,1,7.78,7.78Z"/><path class="cls-17" d="M300.35,78.86a7.74,7.74,0,1,1-7.74-7.73,7.75,7.75,0,0,1,7.74,7.73Z"/><path class="cls-17" d="M284.7,79a7.84,7.84,0,1,1-7.84-7.83A7.83,7.83,0,0,1,284.7,79Z"/><path class="cls-17" d="M296.1,78.81a7.68,7.68,0,1,1-7.67-7.68h0A7.67,7.67,0,0,1,296.1,78.81Z"/><path class="cls-17" d="M277.93,78.92a7.79,7.79,0,1,1-7.79-7.79h0A7.79,7.79,0,0,1,277.93,78.92Z"/><path class="cls-17" d="M339.39,78.83a7.71,7.71,0,1,1-7.71-7.7h0A7.71,7.71,0,0,1,339.39,78.83Z"/><path class="cls-17" d="M336.07,78.69a7.56,7.56,0,1,1-7.56-7.56h0A7.57,7.57,0,0,1,336.07,78.69Z"/><path class="cls-17" d="M296.8,79.4a8.28,8.28,0,1,1-8.27-8.27h0A8.27,8.27,0,0,1,296.8,79.4Z"/><path class="cls-17" d="M307.74,78.88A7.75,7.75,0,1,1,300,71.13h0A7.75,7.75,0,0,1,307.74,78.88Z"/><path class="cls-17" d="M251.57,78.88a7.75,7.75,0,1,1-7.75-7.75h0A7.75,7.75,0,0,1,251.57,78.88Z"/><path class="cls-17" d="M308.59,78.69A7.56,7.56,0,1,1,301,71.13h0A7.56,7.56,0,0,1,308.59,78.69Z"/><path class="cls-17" d="M325.73,78.93a7.81,7.81,0,1,1-7.8-7.8,7.81,7.81,0,0,1,7.8,7.8Z"/><path class="cls-17" d="M291,78.76a7.63,7.63,0,1,1-7.63-7.63A7.63,7.63,0,0,1,291,78.76Z"/><path class="cls-17" d="M300.8,79A7.83,7.83,0,1,1,293,71.13,7.82,7.82,0,0,1,300.8,79Z"/><path class="cls-17" d="M255.07,79a7.9,7.9,0,1,1-7.9-7.9,7.9,7.9,0,0,1,7.9,7.9Z"/><path class="cls-17" d="M277.53,79a7.85,7.85,0,1,1-7.84-7.85A7.84,7.84,0,0,1,277.53,79Z"/><path class="cls-17" d="M331.75,78.93a7.8,7.8,0,1,1-7.8-7.8,7.81,7.81,0,0,1,7.8,7.8Z"/><path class="cls-17" d="M328.31,78.69a7.57,7.57,0,1,1-7.56-7.56h0A7.57,7.57,0,0,1,328.31,78.69Z"/><path class="cls-17" d="M254.9,78.86a7.73,7.73,0,1,1-7.73-7.73,7.74,7.74,0,0,1,7.73,7.73Z"/><path class="cls-17" d="M289,78.62a7.5,7.5,0,1,1-7.49-7.49h0A7.49,7.49,0,0,1,289,78.62Z"/><path class="cls-17" d="M290.65,78.52a7.39,7.39,0,1,1-7.39-7.39,7.39,7.39,0,0,1,7.39,7.39Z"/><path class="cls-17" d="M309.35,78.51A7.38,7.38,0,1,1,302,71.13a7.38,7.38,0,0,1,7.38,7.38Z"/><path class="cls-17" d="M298.94,78.82a7.69,7.69,0,1,1-7.69-7.69h0A7.69,7.69,0,0,1,298.94,78.82Z"/><path class="cls-17" d="M215,54.12a8.26,8.26,0,1,1-8.26-8.26h0A8.26,8.26,0,0,1,215,54.12Z"/><path class="cls-17" d="M165.22,53.72a7.86,7.86,0,1,1-7.86-7.86h0A7.86,7.86,0,0,1,165.22,53.72Z"/><path class="cls-17" d="M186.82,53.46a7.61,7.61,0,1,1-7.61-7.6h0A7.61,7.61,0,0,1,186.82,53.46Z"/><path class="cls-17" d="M245.09,54.17a8.32,8.32,0,1,1-8.31-8.31h0A8.31,8.31,0,0,1,245.09,54.17Z"/><path class="cls-17" d="M219.57,53.94a8.09,8.09,0,1,1-8.08-8.08,8.09,8.09,0,0,1,8.08,8.08Z"/><path class="cls-17" d="M180.78,53.67A7.82,7.82,0,1,1,173,45.86a7.82,7.82,0,0,1,7.82,7.81Z"/><path class="cls-17" d="M297.89,54.13a8.28,8.28,0,1,1-8.27-8.27h0A8.27,8.27,0,0,1,297.89,54.13Z"/><path class="cls-17" d="M225.77,54a8.18,8.18,0,1,1-8.18-8.17h0A8.17,8.17,0,0,1,225.77,54Z"/><path class="cls-17" d="M270.09,54a8.19,8.19,0,1,1-8.19-8.18A8.18,8.18,0,0,1,270.09,54Z"/><path class="cls-18" d="M204.49,53.93a8.08,8.08,0,1,1-8.07-8.07,8.07,8.07,0,0,1,8.07,8.07Z"/><path class="cls-17" d="M277.5,53.72a7.86,7.86,0,1,1-7.86-7.86h0A7.86,7.86,0,0,1,277.5,53.72Z"/><path class="cls-18" d="M256.77,28.3a7.64,7.64,0,1,1-7.63-7.63,7.63,7.63,0,0,1,7.63,7.63Z"/><path class="cls-18" d="M96.84,28.37a7.71,7.71,0,1,1-7.7-7.7h0A7.7,7.7,0,0,1,96.84,28.37Z"/><path class="cls-17" d="M245.11,28.2a7.53,7.53,0,1,1-7.53-7.53h0A7.53,7.53,0,0,1,245.11,28.2Z"/><path class="cls-17" d="M213.88,28.41a7.75,7.75,0,1,1-7.74-7.74h0A7.75,7.75,0,0,1,213.88,28.41Z"/><path class="cls-18" d="M76.61,28.2a7.54,7.54,0,1,1-7.54-7.53h0A7.54,7.54,0,0,1,76.61,28.2Z"/><path class="cls-18" d="M304.18,28.41a7.75,7.75,0,1,1-7.75-7.74h0A7.75,7.75,0,0,1,304.18,28.41Z"/><path class="cls-18" d="M45.27,28.53a7.86,7.86,0,1,1-7.86-7.86h0A7.85,7.85,0,0,1,45.27,28.53Z"/><path class="cls-17" d="M242.81,28.3a7.64,7.64,0,1,1-7.64-7.63,7.63,7.63,0,0,1,7.64,7.63Z"/><path class="cls-19" d="M155.74,28.22a7.55,7.55,0,1,1-7.54-7.55h0A7.55,7.55,0,0,1,155.74,28.22Z"/><path class="cls-19" d="M361.74,104.36a7.55,7.55,0,1,1-7.54-7.54h0A7.55,7.55,0,0,1,361.74,104.36Z"/><path class="cls-19" d="M242.88,28.24a7.58,7.58,0,1,1-7.58-7.57h0A7.57,7.57,0,0,1,242.88,28.24Z"/><path class="cls-17" d="M243.52,28.37a7.71,7.71,0,1,1-7.71-7.7h0A7.71,7.71,0,0,1,243.52,28.37Z"/><path class="cls-17" d="M309.08,28.69a8,8,0,1,1-8-8h0A8,8,0,0,1,309.08,28.69Z"/><path class="cls-19" d="M176.92,28.49a7.82,7.82,0,1,1-7.82-7.82,7.82,7.82,0,0,1,7.82,7.82Z"/><path class="cls-19" d="M264.7,28.09a7.42,7.42,0,1,1-7.42-7.42,7.42,7.42,0,0,1,7.42,7.42Z"/><path class="cls-17" d="M256.81,28.63a8,8,0,1,1-8-8h0A8,8,0,0,1,256.81,28.63Z"/><path class="cls-19" d="M236.18,29a8.3,8.3,0,1,1-8.3-8.3h0A8.29,8.29,0,0,1,236.18,29Z"/><path class="cls-17" d="M211.75,27.89a7.22,7.22,0,1,1-7.22-7.22h0A7.22,7.22,0,0,1,211.75,27.89Z"/><path class="cls-18" d="M224.48,28.09a7.42,7.42,0,1,1-7.42-7.42,7.42,7.42,0,0,1,7.42,7.42Z"/><path class="cls-17" d="M256.46,28.53a7.87,7.87,0,1,1-7.87-7.86h0A7.86,7.86,0,0,1,256.46,28.53Z"/><path class="cls-17" d="M186.9,28a7.35,7.35,0,1,1-7.35-7.35h0A7.35,7.35,0,0,1,186.9,28Z"/><path class="cls-17" d="M281.35,28.59a7.92,7.92,0,1,1-7.92-7.92,7.92,7.92,0,0,1,7.92,7.92Z"/><path class="cls-17" d="M209.48,28.16A7.49,7.49,0,1,1,202,20.67h0A7.49,7.49,0,0,1,209.48,28.16Z"/><path class="cls-17" d="M107.85,28.47a7.81,7.81,0,1,1-7.81-7.8,7.81,7.81,0,0,1,7.81,7.8Z"/><path class="cls-18" d="M263.9,28.3a7.63,7.63,0,1,1-7.63-7.63,7.62,7.62,0,0,1,7.63,7.63Z"/><path class="cls-17" d="M308.14,28.39a7.72,7.72,0,1,1-7.72-7.72,7.72,7.72,0,0,1,7.72,7.72Z"/><path class="cls-17" d="M515.1,53.32a7.46,7.46,0,1,1-7.46-7.46h0A7.46,7.46,0,0,1,515.1,53.32Z"/><path class="cls-18" d="M399.29,53.43a7.58,7.58,0,1,1-7.57-7.57h0A7.57,7.57,0,0,1,399.29,53.43Z"/><path class="cls-18" d="M366.62,28.43a7.76,7.76,0,1,1-7.76-7.76,7.75,7.75,0,0,1,7.76,7.76Z"/><path class="cls-18" d="M370,28.53a7.86,7.86,0,1,1-7.86-7.86h0A7.86,7.86,0,0,1,370,28.53Z"/><path class="cls-18" d="M394.13,28.6a7.93,7.93,0,1,1-7.93-7.93h0A7.93,7.93,0,0,1,394.13,28.6Z"/><path class="cls-18" d="M416.11,28.16a7.49,7.49,0,1,1-7.49-7.49h0A7.49,7.49,0,0,1,416.11,28.16Z"/><path class="cls-18" d="M361.52,28.37a7.71,7.71,0,1,1-7.7-7.7h0A7.7,7.7,0,0,1,361.52,28.37Z"/><path class="cls-17" d="M476.71,28.24a7.58,7.58,0,1,1-7.57-7.57h0A7.57,7.57,0,0,1,476.71,28.24Z"/><path class="cls-17" d="M506.16,28.32a7.65,7.65,0,1,1-7.64-7.65h0A7.64,7.64,0,0,1,506.16,28.32Z"/><path class="cls-17" d="M546.11,28.51a7.85,7.85,0,1,1-7.85-7.84,7.84,7.84,0,0,1,7.85,7.84Z"/><path class="cls-19" d="M359.3,28.14a7.48,7.48,0,1,1-7.48-7.47A7.48,7.48,0,0,1,359.3,28.14Z"/><path class="cls-17" d="M475.35,28.24a7.58,7.58,0,1,1-7.58-7.57h0A7.58,7.58,0,0,1,475.35,28.24Z"/><path class="cls-17" d="M534.59,28.41a7.75,7.75,0,1,1-7.75-7.74h0A7.75,7.75,0,0,1,534.59,28.41Z"/><path class="cls-18" d="M421.06,28.87a8.2,8.2,0,1,1-8.2-8.2,8.2,8.2,0,0,1,8.2,8.2Z"/><path class="cls-18" d="M405,28.32a7.65,7.65,0,1,1-7.65-7.65h0A7.65,7.65,0,0,1,405,28.32Z"/><path class="cls-18" d="M335.63,28.39a7.72,7.72,0,1,1-7.72-7.72,7.72,7.72,0,0,1,7.72,7.72Z"/><path class="cls-18" d="M431.37,28.44a7.78,7.78,0,1,1-7.77-7.77,7.77,7.77,0,0,1,7.77,7.77Z"/><path class="cls-18" d="M338.66,28.66a8,8,0,1,1-8-8,8,8,0,0,1,8,8Z"/><path class="cls-18" d="M372.09,28.5a7.84,7.84,0,1,1-7.83-7.83A7.83,7.83,0,0,1,372.09,28.5Z"/><path class="cls-18" d="M360.78,28.6a7.93,7.93,0,1,1-7.93-7.93h0A7.93,7.93,0,0,1,360.78,28.6Z"/><path class="cls-17" d="M535,28.13a7.47,7.47,0,1,1-7.47-7.46h0A7.46,7.46,0,0,1,535,28.13Z"/><path class="cls-18" d="M436.34,28.5a7.84,7.84,0,1,1-7.83-7.83A7.83,7.83,0,0,1,436.34,28.5Z"/><path class="cls-18" d="M358.52,28.09a7.42,7.42,0,1,1-7.42-7.42,7.42,7.42,0,0,1,7.42,7.42Z"/><path class="cls-17" d="M523.75,104.38a7.52,7.52,0,1,1-7.53-7.51h0A7.53,7.53,0,0,1,523.75,104.38Z"/><path class="cls-18" d="M488,104.31a7.59,7.59,0,1,1-7.6-7.58h0A7.59,7.59,0,0,1,488,104.31Z"/><path class="cls-17" d="M546.91,104.25a7.65,7.65,0,1,1-7.66-7.63h0A7.65,7.65,0,0,1,546.91,104.25Z"/><path class="cls-17" d="M569.35,104.45A7.45,7.45,0,1,1,561.89,97a7.44,7.44,0,0,1,7.46,7.43Z"/><path class="cls-17" d="M554.34,104a7.89,7.89,0,1,1-7.9-7.88,7.88,7.88,0,0,1,7.9,7.88Z"/><path class="cls-17" d="M519.18,104.34a7.57,7.57,0,1,1-7.57-7.55h0A7.56,7.56,0,0,1,519.18,104.34Z"/><path class="cls-17" d="M568.78,104.4a7.51,7.51,0,1,1-7.52-7.5,7.5,7.5,0,0,1,7.52,7.5Z"/><path class="cls-17" d="M513.43,103.9a8,8,0,1,1-8-8,8,8,0,0,1,8,8Z"/><path class="cls-17" d="M551.08,103.87a8,8,0,1,1-8.05-8h0A8,8,0,0,1,551.08,103.87Z"/><path class="cls-17" d="M559,104.38a7.52,7.52,0,1,1-7.53-7.51h0A7.53,7.53,0,0,1,559,104.38Z"/><path class="cls-17" d="M532.14,104.22a7.68,7.68,0,1,1-7.69-7.66h0A7.68,7.68,0,0,1,532.14,104.22Z"/><path class="cls-17" d="M550.89,104.7a7.21,7.21,0,1,1-7.21-7.2h0A7.2,7.2,0,0,1,550.89,104.7Z"/><path class="cls-17" d="M527.81,104.25a7.65,7.65,0,1,1-7.66-7.63h0A7.65,7.65,0,0,1,527.81,104.25Z"/><path class="cls-17" d="M565.88,104.28a7.62,7.62,0,1,1-7.63-7.61h0A7.63,7.63,0,0,1,565.88,104.28Z"/><path class="cls-17" d="M538.36,103.88a8,8,0,1,1-8-8h0A8,8,0,0,1,538.36,103.88Z"/><path class="cls-17" d="M560.42,104a7.91,7.91,0,1,1-7.91-7.9,7.9,7.9,0,0,1,7.91,7.9Z"/><path class="cls-17" d="M548.29,104.25a7.65,7.65,0,1,1-7.66-7.63h0A7.65,7.65,0,0,1,548.29,104.25Z"/><path class="cls-17" d="M535.43,104.18a7.72,7.72,0,1,1-7.73-7.71,7.72,7.72,0,0,1,7.73,7.71Z"/><path class="cls-17" d="M616.09,104.41a7.49,7.49,0,1,1-7.5-7.48h0A7.49,7.49,0,0,1,616.09,104.41Z"/><path class="cls-17" d="M385.7,104.78a7.14,7.14,0,1,1-7.13-7.14,7.13,7.13,0,0,1,7.13,7.14Z"/><path class="cls-17" d="M402.59,104.09a7.82,7.82,0,1,1-7.82-7.81,7.82,7.82,0,0,1,7.82,7.81Z"/><path class="cls-17" d="M416.05,104.26a7.65,7.65,0,1,1-7.65-7.64h0A7.65,7.65,0,0,1,416.05,104.26Z"/><path class="cls-17" d="M417.81,104.16a7.75,7.75,0,1,1-7.74-7.74h0A7.75,7.75,0,0,1,417.81,104.16Z"/><path class="cls-17" d="M370.45,104.16a7.75,7.75,0,1,1-7.75-7.74h0A7.75,7.75,0,0,1,370.45,104.16Z"/><path class="cls-17" d="M406.44,104.32a7.59,7.59,0,1,1-7.59-7.59h0A7.59,7.59,0,0,1,406.44,104.32Z"/><path class="cls-17" d="M402.22,104.19a7.72,7.72,0,1,1-7.72-7.72,7.71,7.71,0,0,1,7.72,7.72Z"/><path class="cls-19" d="M418.74,104.36a7.55,7.55,0,1,1-7.54-7.54h0A7.55,7.55,0,0,1,418.74,104.36Z"/><path class="cls-17" d="M453.42,104.05a7.87,7.87,0,1,1-7.87-7.86h0A7.86,7.86,0,0,1,453.42,104.05Z"/><path class="cls-17" d="M425.28,104.28a7.64,7.64,0,1,1-7.64-7.63,7.64,7.64,0,0,1,7.64,7.63Z"/><path class="cls-17" d="M446.4,104.69a7.23,7.23,0,1,1-7.23-7.22h0A7.23,7.23,0,0,1,446.4,104.69Z"/><path class="cls-17" d="M431.5,104.53a7.38,7.38,0,1,1-7.38-7.37,7.37,7.37,0,0,1,7.38,7.37Z"/><path class="cls-17" d="M458.56,103.84a8.08,8.08,0,1,1-8.08-8.08,8.07,8.07,0,0,1,8.08,8.08Z"/><path class="cls-17" d="M439.13,104.18a7.73,7.73,0,1,1-7.73-7.73,7.73,7.73,0,0,1,7.73,7.73Z"/><path class="cls-17" d="M442.74,103.64a8.28,8.28,0,1,1-8.28-8.28h0A8.28,8.28,0,0,1,442.74,103.64Z"/><path class="cls-17" d="M457.46,103.79a8.12,8.12,0,1,1-8.12-8.11h0A8.11,8.11,0,0,1,457.46,103.79Z"/><g class="cls-20"><path class="cls-17" d="M266.91,2.53a7.83,7.83,0,1,1-7.84-7.82A7.83,7.83,0,0,1,266.91,2.53Z"/><path class="cls-17" d="M188,2.72a8,8,0,1,1-8-8h0A8,8,0,0,1,188,2.72Z"/><path class="cls-17" d="M216.29,2.6a7.91,7.91,0,1,1-7.91-7.89,7.9,7.9,0,0,1,7.91,7.89Z"/><path class="cls-17" d="M206.12,2.45a7.75,7.75,0,1,1-7.75-7.74h0A7.74,7.74,0,0,1,206.12,2.45Z"/><path class="cls-17" d="M156.4,2.18a7.48,7.48,0,1,1-7.49-7.47A7.46,7.46,0,0,1,156.4,2.18Z"/><path class="cls-17" d="M160.53,2.63a7.93,7.93,0,1,1-7.94-7.92h0A7.92,7.92,0,0,1,160.53,2.63Z"/><path class="cls-17" d="M141.61,2a7.31,7.31,0,1,1-7.31-7.3A7.3,7.3,0,0,1,141.61,2Z"/><path class="cls-17" d="M214.17,2.08a7.38,7.38,0,1,1-7.39-7.37,7.37,7.37,0,0,1,7.39,7.37Z"/><path class="cls-17" d="M230,3.33a8.63,8.63,0,1,1-8.64-8.62A8.63,8.63,0,0,1,230,3.33Z"/><path class="cls-17" d="M254.48,2.22A7.52,7.52,0,1,1,247-5.29h0A7.52,7.52,0,0,1,254.48,2.22Z"/><path class="cls-17" d="M216.38,2.19a7.49,7.49,0,1,1-7.5-7.48h0A7.49,7.49,0,0,1,216.38,2.19Z"/><path class="cls-17" d="M214.2,2.13a7.44,7.44,0,1,1-7.45-7.42h0A7.44,7.44,0,0,1,214.2,2.13Z"/><path class="cls-17" d="M227.73,2.69a8,8,0,1,1-8-8,8,8,0,0,1,8,8Z"/><path class="cls-17" d="M204.87,2.25a7.55,7.55,0,1,1-7.56-7.54h0A7.55,7.55,0,0,1,204.87,2.25Z"/><path class="cls-17" d="M237.8,3.26a8.56,8.56,0,1,1-8.58-8.55,8.57,8.57,0,0,1,8.58,8.55Z"/><path class="cls-17" d="M223.68,2.59a7.89,7.89,0,1,1-7.9-7.88,7.88,7.88,0,0,1,7.9,7.88Z"/><path class="cls-18" d="M199.73,2.59a7.89,7.89,0,1,1-7.9-7.88,7.89,7.89,0,0,1,7.9,7.88Z"/><path class="cls-18" d="M113.85,2.4a7.69,7.69,0,1,1-7.69-7.69h0A7.69,7.69,0,0,1,113.85,2.4Z"/><path class="cls-17" d="M278.76,2.54a7.83,7.83,0,1,1-7.83-7.83A7.83,7.83,0,0,1,278.76,2.54Z"/><path class="cls-17" d="M234.17,2.32a7.61,7.61,0,1,1-7.61-7.61h0A7.61,7.61,0,0,1,234.17,2.32Z"/></g><g class="cls-21"><path class="cls-17" d="M632.81,155a7.49,7.49,0,1,1-7.5-7.48h0A7.48,7.48,0,0,1,632.81,155Z"/><path class="cls-17" d="M657.16,155a7.42,7.42,0,1,1-7.43-7.41,7.42,7.42,0,0,1,7.43,7.41Z"/><path class="cls-17" d="M626.87,155a7.46,7.46,0,1,1-7.47-7.45h0A7.45,7.45,0,0,1,626.87,155Z"/><path class="cls-17" d="M611.05,155a7.52,7.52,0,1,1-7.53-7.51h0A7.53,7.53,0,0,1,611.05,155Z"/><path class="cls-17" d="M647.28,155a7.58,7.58,0,1,1-7.59-7.57h0A7.59,7.59,0,0,1,647.28,155Z"/><path class="cls-17" d="M654.39,155a7.89,7.89,0,1,1-7.9-7.88,7.89,7.89,0,0,1,7.9,7.88Z"/><path class="cls-18" d="M135.41,155a7.91,7.91,0,1,1-7.92-7.89,7.91,7.91,0,0,1,7.92,7.89Z"/><path class="cls-18" d="M662.08,155a7.91,7.91,0,1,1-7.92-7.89,7.92,7.92,0,0,1,7.92,7.89Z"/><path class="cls-18" d="M383.16,155a7.75,7.75,0,1,1-7.75-7.75h0A7.75,7.75,0,0,1,383.16,155Z"/><path class="cls-17" d="M358,155a7.12,7.12,0,1,1-7.12-7.12A7.12,7.12,0,0,1,358,155Z"/><path class="cls-17" d="M392.76,155a7.82,7.82,0,1,1-7.82-7.82,7.82,7.82,0,0,1,7.82,7.82Z"/><path class="cls-17" d="M126.22,155a7.44,7.44,0,1,1-7.43-7.43h0A7.43,7.43,0,0,1,126.22,155Z"/><path class="cls-17" d="M402.65,155a7.61,7.61,0,1,1-7.6-7.6h0A7.6,7.6,0,0,1,402.65,155Z"/><path class="cls-17" d="M414.63,155a8,8,0,1,1-8-8h0A8,8,0,0,1,414.63,155Z"/><path class="cls-17" d="M404.53,155a7.35,7.35,0,1,1-7.34-7.35h0A7.35,7.35,0,0,1,404.53,155Z"/><path class="cls-17" d="M383.67,155a7.44,7.44,0,1,1-7.43-7.43h0A7.43,7.43,0,0,1,383.67,155Z"/><path class="cls-17" d="M371.88,155a7.47,7.47,0,1,1-7.46-7.46h0A7.46,7.46,0,0,1,371.88,155Z"/><path class="cls-18" d="M243.19,155a7.72,7.72,0,1,1-7.72-7.72,7.72,7.72,0,0,1,7.72,7.72Z"/><path class="cls-18" d="M304.34,155a7.35,7.35,0,1,1-7.35-7.35h0A7.35,7.35,0,0,1,304.34,155Z"/><path class="cls-17" d="M416,155a7.58,7.58,0,1,1-7.57-7.58h0A7.58,7.58,0,0,1,416,155Z"/><path class="cls-17" d="M380.68,155a7.66,7.66,0,1,1-7.66-7.66,7.66,7.66,0,0,1,7.66,7.66Z"/><path class="cls-17" d="M391.72,155a7.52,7.52,0,1,1-7.52-7.52h0A7.52,7.52,0,0,1,391.72,155Z"/><path class="cls-17" d="M387.32,155a7.72,7.72,0,1,1-7.72-7.72,7.72,7.72,0,0,1,7.72,7.72Z"/><path class="cls-18" d="M414.9,155a7.63,7.63,0,1,1-7.63-7.63A7.62,7.62,0,0,1,414.9,155Z"/><path class="cls-17" d="M429.58,155a7.65,7.65,0,1,1-7.64-7.65h0A7.65,7.65,0,0,1,429.58,155Z"/><path class="cls-17" d="M433.41,155a7.62,7.62,0,1,1-7.62-7.62h0A7.62,7.62,0,0,1,433.41,155Z"/><path class="cls-17" d="M444.51,155a7.25,7.25,0,1,1-7.25-7.25h0A7.26,7.26,0,0,1,444.51,155Z"/><path class="cls-17" d="M441.83,155a7.51,7.51,0,1,1-7.51-7.5,7.51,7.51,0,0,1,7.51,7.5Z"/><path class="cls-17" d="M468.5,155a7.51,7.51,0,1,1-7.5-7.5,7.5,7.5,0,0,1,7.5,7.5Z"/><path class="cls-17" d="M432.79,155a8,8,0,1,1-8-8,8,8,0,0,1,8,8Z"/><path class="cls-17" d="M424.38,155a7.82,7.82,0,1,1-7.81-7.82,7.82,7.82,0,0,1,7.81,7.82Z"/><path class="cls-17" d="M431.79,155a7.91,7.91,0,1,1-7.9-7.9,7.91,7.91,0,0,1,7.9,7.9Z"/><path class="cls-17" d="M459.93,155a6.92,6.92,0,1,1-6.92-6.92h0A6.92,6.92,0,0,1,459.93,155Z"/><path class="cls-17" d="M434.34,155a7.49,7.49,0,1,1-7.49-7.49h0A7.49,7.49,0,0,1,434.34,155Z"/><path class="cls-17" d="M421.55,155a7.69,7.69,0,1,1-7.69-7.69h0A7.69,7.69,0,0,1,421.55,155Z"/><path class="cls-17" d="M420.61,155a7.79,7.79,0,1,1-7.79-7.79h0A7.79,7.79,0,0,1,420.61,155Z"/><path class="cls-17" d="M477,155a8.14,8.14,0,1,1-8.13-8.13A8.13,8.13,0,0,1,477,155Z"/><path class="cls-17" d="M439.67,155a7.4,7.4,0,1,1-7.4-7.39,7.39,7.39,0,0,1,7.4,7.39Z"/><path class="cls-17" d="M440.12,155a6.91,6.91,0,1,1-6.91-6.91h0A6.91,6.91,0,0,1,440.12,155Z"/><path class="cls-17" d="M433.26,155a7.49,7.49,0,1,1-7.49-7.49h0A7.49,7.49,0,0,1,433.26,155Z"/><path class="cls-17" d="M681.29,155a7.72,7.72,0,1,1-7.73-7.71,7.73,7.73,0,0,1,7.73,7.71Z"/><path class="cls-17" d="M680.48,155A7.5,7.5,0,1,1,673,147.5h0A7.49,7.49,0,0,1,680.48,155Z"/><path class="cls-17" d="M670.79,155a7.59,7.59,0,1,1-7.6-7.58h0A7.59,7.59,0,0,1,670.79,155Z"/><path class="cls-17" d="M668.36,155a7.64,7.64,0,1,1-7.65-7.62,7.63,7.63,0,0,1,7.65,7.62Z"/><path class="cls-17" d="M689.46,155a8,8,0,1,1-8-8h0A8,8,0,0,1,689.46,155Z"/><path class="cls-18" d="M695.41,155a7.91,7.91,0,1,1-7.92-7.89,7.91,7.91,0,0,1,7.92,7.89Z"/><path class="cls-17" d="M737.41,155a7.68,7.68,0,1,1-7.69-7.66h0A7.67,7.67,0,0,1,737.41,155Z"/><path class="cls-17" d="M734.89,155a8,8,0,1,1-8-7.95h0A8,8,0,0,1,734.89,155Z"/><path class="cls-18" d="M718.6,155a7.88,7.88,0,1,1-7.89-7.86A7.87,7.87,0,0,1,718.6,155Z"/><path class="cls-17" d="M729.35,155a7.46,7.46,0,1,1-7.47-7.45h0A7.45,7.45,0,0,1,729.35,155Z"/><path class="cls-19" d="M727.36,155a7.49,7.49,0,1,1-7.5-7.48h0A7.49,7.49,0,0,1,727.36,155Z"/><path class="cls-17" d="M711.35,155a7.66,7.66,0,1,1-7.67-7.65,7.65,7.65,0,0,1,7.67,7.65Z"/><path class="cls-17" d="M723.57,155a7.48,7.48,0,1,1-7.49-7.47A7.48,7.48,0,0,1,723.57,155Z"/><path class="cls-17" d="M752.11,155a7.54,7.54,0,1,1-7.55-7.52h0A7.54,7.54,0,0,1,752.11,155Z"/><path class="cls-17" d="M733.57,155a7.59,7.59,0,1,1-7.6-7.58h0A7.59,7.59,0,0,1,733.57,155Z"/><path class="cls-17" d="M758.12,155a7.59,7.59,0,1,1-7.6-7.58h0A7.59,7.59,0,0,1,758.12,155Z"/><path class="cls-17" d="M713.71,155a7.52,7.52,0,1,1-7.53-7.51h0A7.52,7.52,0,0,1,713.71,155Z"/><path class="cls-18" d="M770.08,155a7.91,7.91,0,1,1-7.92-7.89,7.92,7.92,0,0,1,7.92,7.89Z"/></g></g></g></svg>