<svg xmlns="http://www.w3.org/2000/svg" xmlns:xlink="http://www.w3.org/1999/xlink" viewBox="0 0 1440 160"><defs><style>.cls-1,.cls-10,.cls-14,.cls-6,.cls-8,.cls-9{fill:none;}.cls-2{isolation:isolate;}.cls-3{fill:url(#linear-gradient);}.cls-4,.cls-5{fill:#fff;mix-blend-mode:luminosity;}.cls-4{opacity:0.25;}.cls-5{opacity:0.15;}.cls-10,.cls-14,.cls-6,.cls-8,.cls-9{stroke:#fff;}.cls-10,.cls-6,.cls-8{stroke-miterlimit:10;}.cls-6,.cls-9{stroke-width:0.75px;}.cls-7{fill:#bf418e;}.cls-12,.cls-13,.cls-15,.cls-16,.cls-17,.cls-7{opacity:0.35;}.cls-10,.cls-14,.cls-8{stroke-width:0.5px;}.cls-14,.cls-8{stroke-dasharray:3 1;}.cls-11,.cls-12{fill:#8e4f9e;}.cls-13{fill:#b5499a;}.cls-15{fill:#d1d1d1;}.cls-16{fill:#a364a0;}.cls-17{fill:#e5d06c;}.cls-18{clip-path:url(#clip-path);}.cls-19{clip-path:url(#clip-path-2);}</style><linearGradient id="linear-gradient" y1="74.6" x2="1440" y2="74.6" gradientUnits="userSpaceOnUse"><stop offset="0" stop-color="#b6d9df"/><stop offset="0.03" stop-color="#adcfd7"/><stop offset="0.19" stop-color="#7f9aad"/><stop offset="0.34" stop-color="#5b718c"/><stop offset="0.48" stop-color="#405374"/><stop offset="0.6" stop-color="#314166"/><stop offset="0.68" stop-color="#2b3b61"/></linearGradient><clipPath id="clip-path"><rect class="cls-1" x="92.24" width="198.41" height="12.97"/></clipPath><clipPath id="clip-path-2"><rect class="cls-1" x="76.61" y="143.14" width="724.37" height="16.86"/></clipPath></defs><title>homepage_bg_180h_2</title><g class="cls-2"><g id="Layer_2" data-name="Layer 2"><rect class="cls-3" y="-10.8" width="1440" height="170.8"/><rect class="cls-4" x="387.04" width="2.82" height="160"/><rect class="cls-4" x="174.41" width="2.82" height="160"/><rect class="cls-4" x="97.58" width="2.82" height="160"/><rect class="cls-4" x="276.13" width="2.82" height="160"/><rect class="cls-4" x="51.59" width="2.82" height="160"/><rect class="cls-4" x="530.42" width="2.82" height="160"/><rect class="cls-4" x="672.72" width="2.82" height="160"/><rect class="cls-5" x="784.72" width="2.82" height="160"/><path class="cls-6" d="M1304.83,51.76V65M1196.76,51.76V65h135.39V51.76Zm0,6.61H1116m216.2,0h115.47M1116,55.06v6.62m331.67-6.62v6.62"/><path class="cls-7" d="M1063,62a3.6,3.6,0,1,1,4-3.59A3.81,3.81,0,0,1,1063,62Z"/><path class="cls-7" d="M1065.41,62a3.6,3.6,0,1,1,4-3.59A3.8,3.8,0,0,1,1065.41,62Z"/><path class="cls-8" d="M1290,51.76V65"/><path class="cls-9" d="M1277.14,94.13v13.25m-10.71-13.25v13.25h14.44V94.13Zm0,6.62h-5.61m20,0h3.61m-23.66-3.31v6.62m23.66-6.62v6.62"/><path class="cls-8" d="M1274.44,94.13v13.25"/><path class="cls-10" d="M1176.45,30.56V43.8M1082,30.56V43.8h215.64V30.56Zm0,6.62h-70.74m286.38,0h76.72m-363.1-3.31v6.62m363.1-6.62v6.62"/><path class="cls-8" d="M1180.44,30.56V43.8"/><path class="cls-11" d="M931.11,40.41a3.43,3.43,0,0,1-3.59-3.23,3.61,3.61,0,0,1,7.18,0A3.43,3.43,0,0,1,931.11,40.41Z"/><path class="cls-12" d="M747.15,40.76a3.79,3.79,0,0,1-4-3.58,4,4,0,0,1,8,0A3.8,3.8,0,0,1,747.15,40.76Z"/><path class="cls-12" d="M750.79,40.76a3.79,3.79,0,0,1-4-3.58,4,4,0,0,1,8,0A3.79,3.79,0,0,1,750.79,40.76Z"/><path class="cls-12" d="M751.21,40.76a3.8,3.8,0,0,1-4-3.58,4,4,0,0,1,8,0A3.79,3.79,0,0,1,751.21,40.76Z"/><path class="cls-12" d="M777.9,40.76a3.79,3.79,0,0,1-4-3.58,4,4,0,0,1,8,0A3.79,3.79,0,0,1,777.9,40.76Z"/><path class="cls-12" d="M843,40.76a3.79,3.79,0,0,1-4-3.58,4,4,0,0,1,8,0A3.8,3.8,0,0,1,843,40.76Z"/><path class="cls-6" d="M1131.93,73V86.18M1101,73V86.18h74V73Zm0,6.62H977.25m197.7,0h59.33m-257-3.31v6.61m257-6.61v6.61"/><path class="cls-13" d="M870.53,83.15a3.61,3.61,0,1,1,4-3.57A3.82,3.82,0,0,1,870.53,83.15Z"/><path class="cls-13" d="M1272.89,83.15a3.61,3.61,0,1,1,4-3.57A3.82,3.82,0,0,1,1272.89,83.15Z"/><path class="cls-13" d="M1282.83,83.15a3.6,3.6,0,1,1,4-3.57A3.81,3.81,0,0,1,1282.83,83.15Z"/><path class="cls-8" d="M1128.76,73V86.18"/><path class="cls-12" d="M776.23,83.15a3.61,3.61,0,1,1,4-3.58A3.8,3.8,0,0,1,776.23,83.15Z"/><path class="cls-12" d="M779.87,83.15a3.6,3.6,0,1,1,4-3.58A3.81,3.81,0,0,1,779.87,83.15Z"/><path class="cls-12" d="M780.29,83.15a3.6,3.6,0,1,1,4-3.58A3.81,3.81,0,0,1,780.29,83.15Z"/><path class="cls-12" d="M851.13,83.15a3.6,3.6,0,1,1,4-3.58A3.81,3.81,0,0,1,851.13,83.15Z"/><path class="cls-12" d="M944.88,83.15a3.6,3.6,0,1,1,4-3.58A3.81,3.81,0,0,1,944.88,83.15Z"/><path class="cls-9" d="M1273.22,115.33v13.24m-71.58-13.24v13.24h93.64V115.33Zm0,6.61H1151.3m144,0h64m-208-3.31v6.62m208-6.62v6.62"/><path class="cls-12" d="M886.49,125.53a3.6,3.6,0,1,1,4-3.58A3.8,3.8,0,0,1,886.49,125.53Z"/><path class="cls-12" d="M891.35,125.53a3.6,3.6,0,1,1,4-3.58A3.79,3.79,0,0,1,891.35,125.53Z"/><path class="cls-12" d="M907,125.53a3.6,3.6,0,1,1,4-3.58A3.79,3.79,0,0,1,907,125.53Z"/><path class="cls-12" d="M947.84,125.53a3.6,3.6,0,1,1,4-3.58A3.79,3.79,0,0,1,947.84,125.53Z"/><path class="cls-12" d="M981.43,125.53a3.6,3.6,0,1,1,4-3.58A3.79,3.79,0,0,1,981.43,125.53Z"/><path class="cls-12" d="M1051.05,125.53a3.6,3.6,0,1,1,4-3.58A3.8,3.8,0,0,1,1051.05,125.53Z"/><path class="cls-12" d="M1084.1,125.53a3.6,3.6,0,1,1,4-3.58A3.79,3.79,0,0,1,1084.1,125.53Z"/><path class="cls-12" d="M1113.19,125.53a3.6,3.6,0,1,1,4-3.58A3.79,3.79,0,0,1,1113.19,125.53Z"/><path class="cls-12" d="M1123.86,125.53a3.6,3.6,0,1,1,4-3.58A3.79,3.79,0,0,1,1123.86,125.53Z"/><path class="cls-12" d="M1374,125.53a3.6,3.6,0,1,1,4-3.58A3.8,3.8,0,0,1,1374,125.53Z"/><path class="cls-12" d="M1381.8,125.53a3.6,3.6,0,1,1,4-3.58A3.79,3.79,0,0,1,1381.8,125.53Z"/><path class="cls-12" d="M1394.87,125.53a3.6,3.6,0,1,1,4-3.58A3.8,3.8,0,0,1,1394.87,125.53Z"/><path class="cls-12" d="M1395.5,125.53a3.6,3.6,0,1,1,4-3.58A3.8,3.8,0,0,1,1395.5,125.53Z"/><path class="cls-8" d="M1275,115.33v13.24"/><path class="cls-9" d="M1191,136.52v13.25m-29.38-13.25v13.25h82.48V136.52Zm0,6.62h-91.1m173.58,0H1336m-265.52-3.31v6.63M1336,139.83v6.63"/><path class="cls-12" d="M839.56,146.72a3.6,3.6,0,1,1,4-3.58A3.79,3.79,0,0,1,839.56,146.72Z"/><path class="cls-12" d="M951.19,146.72a3.6,3.6,0,1,1,4-3.58A3.79,3.79,0,0,1,951.19,146.72Z"/><path class="cls-12" d="M850.52,146.72a3.6,3.6,0,1,1,4-3.58A3.79,3.79,0,0,1,850.52,146.72Z"/><path class="cls-12" d="M992.05,146.72a3.6,3.6,0,1,1,4-3.58A3.8,3.8,0,0,1,992.05,146.72Z"/><path class="cls-8" d="M1188.22,136.52v13.25"/><path class="cls-12" d="M640.66,19.57a3.79,3.79,0,0,1-4-3.58,4,4,0,0,1,8,0A3.79,3.79,0,0,1,640.66,19.57Z"/><path class="cls-12" d="M644.29,19.57a3.79,3.79,0,0,1-4-3.58,4,4,0,0,1,8,0A3.8,3.8,0,0,1,644.29,19.57Z"/><path class="cls-12" d="M674.16,19.57a3.8,3.8,0,0,1-4-3.58,4,4,0,0,1,8,0A3.79,3.79,0,0,1,674.16,19.57Z"/><path class="cls-9" d="M1214.14,9.37V22.61M911.78,9.37V22.61h408.86V9.37Zm0,6.62H696m624.64,0h30.84M696,12.68V19.3m655.48-6.62V19.3"/><path class="cls-14" d="M1061.9,9.37V22.61"/><path class="cls-15" d="M590.85,130.21a7.62,7.62,0,1,1-7.63-7.6h0A7.62,7.62,0,0,1,590.85,130.21Z"/><path class="cls-15" d="M619.37,130.27a7.56,7.56,0,1,1-7.57-7.55h0A7.55,7.55,0,0,1,619.37,130.27Z"/><path class="cls-15" d="M605.49,130.4A7.44,7.44,0,1,1,598,123h0A7.43,7.43,0,0,1,605.49,130.4Z"/><path class="cls-15" d="M617.69,130.21a7.62,7.62,0,1,1-7.63-7.6h0A7.61,7.61,0,0,1,617.69,130.21Z"/><path class="cls-15" d="M585.57,130.27a7.57,7.57,0,1,1-7.58-7.55h0A7.56,7.56,0,0,1,585.57,130.27Z"/><path class="cls-15" d="M591,129.67a8.16,8.16,0,1,1-8.18-8.15h0A8.17,8.17,0,0,1,591,129.67Z"/><path class="cls-16" d="M591.59,130.17a7.66,7.66,0,1,1-7.67-7.65,7.65,7.65,0,0,1,7.67,7.65Z"/><path class="cls-15" d="M627.08,130.53a7.31,7.31,0,1,1-7.32-7.3,7.3,7.3,0,0,1,7.32,7.3Z"/><path class="cls-15" d="M611.58,130.26a7.58,7.58,0,1,1-7.58-7.57h0A7.57,7.57,0,0,1,611.58,130.26Z"/><path class="cls-15" d="M621.3,130.11a7.72,7.72,0,1,1-7.73-7.7,7.72,7.72,0,0,1,7.73,7.7Z"/><path class="cls-15" d="M623.63,130.27a7.56,7.56,0,1,1-7.57-7.55h0A7.55,7.55,0,0,1,623.63,130.27Z"/><path class="cls-16" d="M592.46,130.21a7.62,7.62,0,1,1-7.63-7.6h0A7.62,7.62,0,0,1,592.46,130.21Z"/><path class="cls-15" d="M628,130a7.85,7.85,0,1,1-7.85-7.84A7.83,7.83,0,0,1,628,130Z"/><path class="cls-15" d="M620.81,130.09a7.75,7.75,0,1,1-7.76-7.74h0A7.74,7.74,0,0,1,620.81,130.09Z"/><path class="cls-15" d="M639.75,130.3a7.53,7.53,0,1,1-7.54-7.52h0A7.52,7.52,0,0,1,639.75,130.3Z"/><path class="cls-15" d="M623.72,130.13a7.71,7.71,0,1,1-7.72-7.7h0A7.71,7.71,0,0,1,623.72,130.13Z"/><path class="cls-15" d="M613.45,130a7.85,7.85,0,1,1-7.86-7.84,7.83,7.83,0,0,1,7.86,7.84Z"/><path class="cls-15" d="M618.63,130.36a7.48,7.48,0,1,1-7.48-7.47A7.46,7.46,0,0,1,618.63,130.36Z"/><path class="cls-15" d="M610.09,130.21a7.62,7.62,0,1,1-7.63-7.6h0A7.62,7.62,0,0,1,610.09,130.21Z"/><path class="cls-15" d="M611.54,130.19a7.65,7.65,0,1,1-7.66-7.64h0A7.64,7.64,0,0,1,611.54,130.19Z"/><path class="cls-15" d="M623.78,130.28a7.55,7.55,0,1,1-7.56-7.53h0A7.55,7.55,0,0,1,623.78,130.28Z"/><path class="cls-15" d="M606.53,130.37a7.47,7.47,0,1,1-7.47-7.45h0A7.46,7.46,0,0,1,606.53,130.37Z"/><path class="cls-15" d="M607.14,130.17a7.66,7.66,0,1,1-7.67-7.65,7.65,7.65,0,0,1,7.67,7.65Z"/><path class="cls-15" d="M632.26,130a7.85,7.85,0,1,1-7.86-7.84,7.83,7.83,0,0,1,7.86,7.84Z"/><path class="cls-15" d="M601.83,130a7.85,7.85,0,1,1-7.86-7.84,7.84,7.84,0,0,1,7.86,7.84Z"/><path class="cls-15" d="M592.13,130a7.83,7.83,0,1,1-7.84-7.82A7.82,7.82,0,0,1,592.13,130Z"/><path class="cls-15" d="M476.69,129.81a8,8,0,1,1-8-8h0A8,8,0,0,1,476.69,129.81Z"/><path class="cls-15" d="M456.41,129.7a8.15,8.15,0,1,1-8.14-8.15h0A8.14,8.14,0,0,1,456.41,129.7Z"/><path class="cls-15" d="M450,130a7.86,7.86,0,1,1-7.86-7.86h0A7.86,7.86,0,0,1,450,130Z"/><path class="cls-15" d="M479.63,130.11a7.74,7.74,0,1,1-7.74-7.73,7.74,7.74,0,0,1,7.74,7.73Z"/><path class="cls-15" d="M384.63,130.1a7.75,7.75,0,1,1-7.75-7.75h0A7.75,7.75,0,0,1,384.63,130.1Z"/><path class="cls-15" d="M483.34,130.1a7.75,7.75,0,1,1-7.74-7.75h0A7.75,7.75,0,0,1,483.34,130.1Z"/><path class="cls-16" d="M491.37,130.28a7.56,7.56,0,1,1-7.56-7.56h0A7.56,7.56,0,0,1,491.37,130.28Z"/><path class="cls-16" d="M345.83,130.28a7.56,7.56,0,1,1-7.56-7.56h0A7.57,7.57,0,0,1,345.83,130.28Z"/><path class="cls-15" d="M442.56,129.19a8.66,8.66,0,1,1-8.66-8.66h0A8.66,8.66,0,0,1,442.56,129.19Z"/><path class="cls-15" d="M406.27,130.08a7.76,7.76,0,1,1-7.76-7.76,7.75,7.75,0,0,1,7.76,7.76Z"/><path class="cls-15" d="M470.3,129.56a8.29,8.29,0,1,1-8.29-8.29h0A8.29,8.29,0,0,1,470.3,129.56Z"/><path class="cls-15" d="M455.59,130.05a7.79,7.79,0,1,1-7.79-7.79h0A7.79,7.79,0,0,1,455.59,130.05Z"/><path class="cls-15" d="M437.63,129.91A7.94,7.94,0,1,1,429.7,122h0A7.93,7.93,0,0,1,437.63,129.91Z"/><path class="cls-15" d="M337.08,104.89a8,8,0,1,1-8-8h0A8,8,0,0,1,337.08,104.89Z"/><path class="cls-15" d="M335.17,104.57a8.35,8.35,0,1,1-8.35-8.35h0A8.35,8.35,0,0,1,335.17,104.57Z"/><path class="cls-15" d="M262.56,105.09a7.82,7.82,0,1,1-7.82-7.81,7.82,7.82,0,0,1,7.82,7.81Z"/><path class="cls-15" d="M352.28,105a7.89,7.89,0,1,1-7.89-7.89,7.89,7.89,0,0,1,7.89,7.89Z"/><path class="cls-15" d="M354.1,105a7.88,7.88,0,1,1-7.88-7.88A7.87,7.87,0,0,1,354.1,105Z"/><path class="cls-15" d="M309,105a7.89,7.89,0,1,1-7.89-7.89A7.89,7.89,0,0,1,309,105Z"/><path class="cls-16" d="M149.32,79.88a7.75,7.75,0,1,1-7.75-7.75h0A7.75,7.75,0,0,1,149.32,79.88Z"/><path class="cls-15" d="M261.15,79.85a7.72,7.72,0,1,1-7.71-7.72,7.72,7.72,0,0,1,7.71,7.72Z"/><path class="cls-16" d="M320.76,80a7.89,7.89,0,1,1-7.89-7.89A7.89,7.89,0,0,1,320.76,80Z"/><path class="cls-15" d="M288.16,80a7.85,7.85,0,1,1-7.85-7.85A7.85,7.85,0,0,1,288.16,80Z"/><path class="cls-16" d="M64,79.91a7.78,7.78,0,1,1-7.77-7.78A7.77,7.77,0,0,1,64,79.91Z"/><path class="cls-15" d="M328.46,79.66a7.53,7.53,0,1,1-7.53-7.53h0A7.53,7.53,0,0,1,328.46,79.66Z"/><path class="cls-15" d="M324.75,80a7.86,7.86,0,1,1-7.86-7.86h0A7.86,7.86,0,0,1,324.75,80Z"/><path class="cls-15" d="M314.79,79.65a7.52,7.52,0,1,1-7.52-7.52h0A7.52,7.52,0,0,1,314.79,79.65Z"/><path class="cls-15" d="M209.33,79.82a7.7,7.7,0,1,1-7.69-7.69h0A7.69,7.69,0,0,1,209.33,79.82Z"/><path class="cls-15" d="M295.11,80.23a8.11,8.11,0,1,1-8.11-8.1h0A8.11,8.11,0,0,1,295.11,80.23Z"/><path class="cls-15" d="M323.81,79.86a7.74,7.74,0,1,1-7.74-7.73,7.74,7.74,0,0,1,7.74,7.73Z"/><path class="cls-15" d="M295.93,79.79a7.66,7.66,0,1,1-7.66-7.66,7.66,7.66,0,0,1,7.66,7.66Z"/><path class="cls-15" d="M258.63,79.85a7.72,7.72,0,1,1-7.71-7.72,7.72,7.72,0,0,1,7.71,7.72Z"/><path class="cls-15" d="M302.14,79.88a7.75,7.75,0,1,1-7.75-7.75h0A7.75,7.75,0,0,1,302.14,79.88Z"/><path class="cls-15" d="M336.15,79.39a7.26,7.26,0,1,1-7.26-7.26,7.27,7.27,0,0,1,7.26,7.26Z"/><path class="cls-15" d="M313.72,80.12a8,8,0,1,1-8-8,8,8,0,0,1,8,8Z"/><path class="cls-15" d="M313.48,79.91a7.78,7.78,0,1,1-7.78-7.78,7.77,7.77,0,0,1,7.78,7.78Z"/><path class="cls-15" d="M300.35,79.86a7.74,7.74,0,1,1-7.74-7.73,7.75,7.75,0,0,1,7.74,7.73Z"/><path class="cls-15" d="M284.7,80a7.84,7.84,0,1,1-7.84-7.83A7.83,7.83,0,0,1,284.7,80Z"/><path class="cls-15" d="M296.1,79.81a7.68,7.68,0,1,1-7.67-7.68h0A7.67,7.67,0,0,1,296.1,79.81Z"/><path class="cls-15" d="M277.93,79.92a7.79,7.79,0,1,1-7.79-7.79h0A7.79,7.79,0,0,1,277.93,79.92Z"/><path class="cls-15" d="M339.39,79.83a7.71,7.71,0,1,1-7.71-7.7h0A7.71,7.71,0,0,1,339.39,79.83Z"/><path class="cls-15" d="M336.07,79.69a7.56,7.56,0,1,1-7.56-7.56h0A7.57,7.57,0,0,1,336.07,79.69Z"/><path class="cls-15" d="M296.8,80.4a8.28,8.28,0,1,1-8.27-8.27h0A8.27,8.27,0,0,1,296.8,80.4Z"/><path class="cls-15" d="M307.74,79.88A7.75,7.75,0,1,1,300,72.13h0A7.75,7.75,0,0,1,307.74,79.88Z"/><path class="cls-15" d="M251.57,79.88a7.75,7.75,0,1,1-7.75-7.75h0A7.75,7.75,0,0,1,251.57,79.88Z"/><path class="cls-15" d="M308.59,79.69A7.56,7.56,0,1,1,301,72.13h0A7.56,7.56,0,0,1,308.59,79.69Z"/><path class="cls-15" d="M325.73,79.93a7.81,7.81,0,1,1-7.8-7.8,7.81,7.81,0,0,1,7.8,7.8Z"/><path class="cls-15" d="M291,79.76a7.63,7.63,0,1,1-7.63-7.63A7.63,7.63,0,0,1,291,79.76Z"/><path class="cls-15" d="M300.8,80A7.83,7.83,0,1,1,293,72.13,7.82,7.82,0,0,1,300.8,80Z"/><path class="cls-15" d="M255.07,80a7.9,7.9,0,1,1-7.9-7.9,7.9,7.9,0,0,1,7.9,7.9Z"/><path class="cls-15" d="M277.53,80a7.85,7.85,0,1,1-7.84-7.85A7.84,7.84,0,0,1,277.53,80Z"/><path class="cls-15" d="M331.75,79.93a7.8,7.8,0,1,1-7.8-7.8,7.81,7.81,0,0,1,7.8,7.8Z"/><path class="cls-15" d="M328.31,79.69a7.57,7.57,0,1,1-7.56-7.56h0A7.57,7.57,0,0,1,328.31,79.69Z"/><path class="cls-15" d="M254.9,79.86a7.73,7.73,0,1,1-7.73-7.73,7.74,7.74,0,0,1,7.73,7.73Z"/><path class="cls-15" d="M289,79.62a7.5,7.5,0,1,1-7.49-7.49h0A7.49,7.49,0,0,1,289,79.62Z"/><path class="cls-15" d="M290.65,79.52a7.39,7.39,0,1,1-7.39-7.39,7.39,7.39,0,0,1,7.39,7.39Z"/><path class="cls-15" d="M309.35,79.51A7.38,7.38,0,1,1,302,72.13a7.38,7.38,0,0,1,7.38,7.38Z"/><path class="cls-15" d="M298.94,79.82a7.69,7.69,0,1,1-7.69-7.69h0A7.69,7.69,0,0,1,298.94,79.82Z"/><path class="cls-15" d="M215,55.12a8.26,8.26,0,1,1-8.26-8.26h0A8.26,8.26,0,0,1,215,55.12Z"/><path class="cls-15" d="M165.22,54.72a7.86,7.86,0,1,1-7.86-7.86h0A7.86,7.86,0,0,1,165.22,54.72Z"/><path class="cls-15" d="M186.82,54.46a7.61,7.61,0,1,1-7.61-7.6h0A7.61,7.61,0,0,1,186.82,54.46Z"/><path class="cls-15" d="M245.09,55.17a8.32,8.32,0,1,1-8.31-8.31h0A8.31,8.31,0,0,1,245.09,55.17Z"/><path class="cls-15" d="M219.57,54.94a8.09,8.09,0,1,1-8.08-8.08,8.09,8.09,0,0,1,8.08,8.08Z"/><path class="cls-15" d="M180.78,54.67A7.82,7.82,0,1,1,173,46.86a7.82,7.82,0,0,1,7.82,7.81Z"/><path class="cls-15" d="M297.89,55.13a8.28,8.28,0,1,1-8.27-8.27h0A8.27,8.27,0,0,1,297.89,55.13Z"/><path class="cls-15" d="M225.77,55a8.18,8.18,0,1,1-8.18-8.17h0A8.17,8.17,0,0,1,225.77,55Z"/><path class="cls-15" d="M270.09,55a8.19,8.19,0,1,1-8.19-8.18A8.18,8.18,0,0,1,270.09,55Z"/><path class="cls-16" d="M204.49,54.93a8.08,8.08,0,1,1-8.07-8.07,8.07,8.07,0,0,1,8.07,8.07Z"/><path class="cls-15" d="M277.5,54.72a7.86,7.86,0,1,1-7.86-7.86h0A7.86,7.86,0,0,1,277.5,54.72Z"/><path class="cls-16" d="M256.77,29.3a7.64,7.64,0,1,1-7.63-7.63,7.63,7.63,0,0,1,7.63,7.63Z"/><path class="cls-16" d="M96.84,29.37a7.71,7.71,0,1,1-7.7-7.7h0A7.7,7.7,0,0,1,96.84,29.37Z"/><path class="cls-15" d="M245.11,29.2a7.53,7.53,0,1,1-7.53-7.53h0A7.53,7.53,0,0,1,245.11,29.2Z"/><path class="cls-15" d="M213.88,29.41a7.75,7.75,0,1,1-7.74-7.74h0A7.75,7.75,0,0,1,213.88,29.41Z"/><path class="cls-16" d="M76.61,29.2a7.54,7.54,0,1,1-7.54-7.53h0A7.54,7.54,0,0,1,76.61,29.2Z"/><path class="cls-16" d="M304.18,29.41a7.75,7.75,0,1,1-7.75-7.74h0A7.75,7.75,0,0,1,304.18,29.41Z"/><path class="cls-16" d="M45.27,29.53a7.86,7.86,0,1,1-7.86-7.86h0A7.85,7.85,0,0,1,45.27,29.53Z"/><path class="cls-15" d="M242.81,29.3a7.64,7.64,0,1,1-7.64-7.63,7.63,7.63,0,0,1,7.64,7.63Z"/><path class="cls-17" d="M155.74,29.22a7.55,7.55,0,1,1-7.54-7.55h0A7.55,7.55,0,0,1,155.74,29.22Z"/><path class="cls-17" d="M361.74,105.36a7.55,7.55,0,1,1-7.54-7.54h0A7.55,7.55,0,0,1,361.74,105.36Z"/><path class="cls-17" d="M242.88,29.24a7.58,7.58,0,1,1-7.58-7.57h0A7.57,7.57,0,0,1,242.88,29.24Z"/><path class="cls-15" d="M243.52,29.37a7.71,7.71,0,1,1-7.71-7.7h0A7.71,7.71,0,0,1,243.52,29.37Z"/><path class="cls-15" d="M309.08,29.69a8,8,0,1,1-8-8h0A8,8,0,0,1,309.08,29.69Z"/><path class="cls-17" d="M176.92,29.49a7.82,7.82,0,1,1-7.82-7.82,7.82,7.82,0,0,1,7.82,7.82Z"/><path class="cls-17" d="M264.7,29.09a7.42,7.42,0,1,1-7.42-7.42,7.42,7.42,0,0,1,7.42,7.42Z"/><path class="cls-15" d="M256.81,29.63a8,8,0,1,1-8-8h0A8,8,0,0,1,256.81,29.63Z"/><path class="cls-17" d="M236.18,30a8.3,8.3,0,1,1-8.3-8.3h0A8.29,8.29,0,0,1,236.18,30Z"/><path class="cls-15" d="M211.75,28.89a7.22,7.22,0,1,1-7.22-7.22h0A7.22,7.22,0,0,1,211.75,28.89Z"/><path class="cls-16" d="M224.48,29.09a7.42,7.42,0,1,1-7.42-7.42,7.42,7.42,0,0,1,7.42,7.42Z"/><path class="cls-15" d="M256.46,29.53a7.87,7.87,0,1,1-7.87-7.86h0A7.86,7.86,0,0,1,256.46,29.53Z"/><path class="cls-15" d="M186.9,29a7.35,7.35,0,1,1-7.35-7.35h0A7.35,7.35,0,0,1,186.9,29Z"/><path class="cls-15" d="M281.35,29.59a7.92,7.92,0,1,1-7.92-7.92,7.92,7.92,0,0,1,7.92,7.92Z"/><path class="cls-15" d="M209.48,29.16A7.49,7.49,0,1,1,202,21.67h0A7.49,7.49,0,0,1,209.48,29.16Z"/><path class="cls-15" d="M107.85,29.47a7.81,7.81,0,1,1-7.81-7.8,7.81,7.81,0,0,1,7.81,7.8Z"/><path class="cls-16" d="M263.9,29.3a7.63,7.63,0,1,1-7.63-7.63,7.62,7.62,0,0,1,7.63,7.63Z"/><path class="cls-15" d="M308.14,29.39a7.72,7.72,0,1,1-7.72-7.72,7.72,7.72,0,0,1,7.72,7.72Z"/><path class="cls-15" d="M515.1,54.32a7.46,7.46,0,1,1-7.46-7.46h0A7.46,7.46,0,0,1,515.1,54.32Z"/><path class="cls-16" d="M399.29,54.43a7.58,7.58,0,1,1-7.57-7.57h0A7.57,7.57,0,0,1,399.29,54.43Z"/><path class="cls-16" d="M366.62,29.43a7.76,7.76,0,1,1-7.76-7.76,7.75,7.75,0,0,1,7.76,7.76Z"/><path class="cls-16" d="M370,29.53a7.86,7.86,0,1,1-7.86-7.86h0A7.86,7.86,0,0,1,370,29.53Z"/><path class="cls-16" d="M394.13,29.6a7.93,7.93,0,1,1-7.93-7.93h0A7.93,7.93,0,0,1,394.13,29.6Z"/><path class="cls-16" d="M416.11,29.16a7.49,7.49,0,1,1-7.49-7.49h0A7.49,7.49,0,0,1,416.11,29.16Z"/><path class="cls-16" d="M361.52,29.37a7.71,7.71,0,1,1-7.7-7.7h0A7.7,7.7,0,0,1,361.52,29.37Z"/><path class="cls-15" d="M476.71,29.24a7.58,7.58,0,1,1-7.57-7.57h0A7.57,7.57,0,0,1,476.71,29.24Z"/><path class="cls-15" d="M506.16,29.32a7.65,7.65,0,1,1-7.64-7.65h0A7.64,7.64,0,0,1,506.16,29.32Z"/><path class="cls-15" d="M546.11,29.51a7.85,7.85,0,1,1-7.85-7.84,7.84,7.84,0,0,1,7.85,7.84Z"/><path class="cls-17" d="M359.3,29.14a7.48,7.48,0,1,1-7.48-7.47A7.48,7.48,0,0,1,359.3,29.14Z"/><path class="cls-15" d="M475.35,29.24a7.58,7.58,0,1,1-7.58-7.57h0A7.58,7.58,0,0,1,475.35,29.24Z"/><path class="cls-15" d="M534.59,29.41a7.75,7.75,0,1,1-7.75-7.74h0A7.75,7.75,0,0,1,534.59,29.41Z"/><path class="cls-16" d="M421.06,29.87a8.2,8.2,0,1,1-8.2-8.2,8.2,8.2,0,0,1,8.2,8.2Z"/><path class="cls-16" d="M405,29.32a7.65,7.65,0,1,1-7.65-7.65h0A7.65,7.65,0,0,1,405,29.32Z"/><path class="cls-16" d="M335.63,29.39a7.72,7.72,0,1,1-7.72-7.72,7.72,7.72,0,0,1,7.72,7.72Z"/><path class="cls-16" d="M431.37,29.44a7.78,7.78,0,1,1-7.77-7.77,7.77,7.77,0,0,1,7.77,7.77Z"/><path class="cls-16" d="M338.66,29.66a8,8,0,1,1-8-8,8,8,0,0,1,8,8Z"/><path class="cls-16" d="M372.09,29.5a7.84,7.84,0,1,1-7.83-7.83A7.83,7.83,0,0,1,372.09,29.5Z"/><path class="cls-16" d="M360.78,29.6a7.93,7.93,0,1,1-7.93-7.93h0A7.93,7.93,0,0,1,360.78,29.6Z"/><path class="cls-15" d="M535,29.13a7.47,7.47,0,1,1-7.47-7.46h0A7.46,7.46,0,0,1,535,29.13Z"/><path class="cls-16" d="M436.34,29.5a7.84,7.84,0,1,1-7.83-7.83A7.83,7.83,0,0,1,436.34,29.5Z"/><path class="cls-16" d="M358.52,29.09a7.42,7.42,0,1,1-7.42-7.42,7.42,7.42,0,0,1,7.42,7.42Z"/><path class="cls-15" d="M523.75,105.38a7.52,7.52,0,1,1-7.53-7.51h0A7.53,7.53,0,0,1,523.75,105.38Z"/><path class="cls-16" d="M488,105.31a7.59,7.59,0,1,1-7.6-7.58h0A7.59,7.59,0,0,1,488,105.31Z"/><path class="cls-15" d="M546.91,105.25a7.65,7.65,0,1,1-7.66-7.63h0A7.65,7.65,0,0,1,546.91,105.25Z"/><path class="cls-15" d="M569.35,105.45A7.45,7.45,0,1,1,561.89,98a7.44,7.44,0,0,1,7.46,7.43Z"/><path class="cls-15" d="M554.34,105a7.89,7.89,0,1,1-7.9-7.88,7.88,7.88,0,0,1,7.9,7.88Z"/><path class="cls-15" d="M519.18,105.34a7.57,7.57,0,1,1-7.57-7.55h0A7.56,7.56,0,0,1,519.18,105.34Z"/><path class="cls-15" d="M568.78,105.4a7.51,7.51,0,1,1-7.52-7.5,7.5,7.5,0,0,1,7.52,7.5Z"/><path class="cls-15" d="M513.43,104.9a8,8,0,1,1-8-8,8,8,0,0,1,8,8Z"/><path class="cls-15" d="M551.08,104.87a8,8,0,1,1-8.05-8h0A8,8,0,0,1,551.08,104.87Z"/><path class="cls-15" d="M559,105.38a7.52,7.52,0,1,1-7.53-7.51h0A7.53,7.53,0,0,1,559,105.38Z"/><path class="cls-15" d="M532.14,105.22a7.68,7.68,0,1,1-7.69-7.66h0A7.68,7.68,0,0,1,532.14,105.22Z"/><path class="cls-15" d="M550.89,105.7a7.21,7.21,0,1,1-7.21-7.2h0A7.2,7.2,0,0,1,550.89,105.7Z"/><path class="cls-15" d="M527.81,105.25a7.65,7.65,0,1,1-7.66-7.63h0A7.65,7.65,0,0,1,527.81,105.25Z"/><path class="cls-15" d="M565.88,105.28a7.62,7.62,0,1,1-7.63-7.61h0A7.63,7.63,0,0,1,565.88,105.28Z"/><path class="cls-15" d="M538.36,104.88a8,8,0,1,1-8-8h0A8,8,0,0,1,538.36,104.88Z"/><path class="cls-15" d="M560.42,105a7.91,7.91,0,1,1-7.91-7.9,7.9,7.9,0,0,1,7.91,7.9Z"/><path class="cls-15" d="M548.29,105.25a7.65,7.65,0,1,1-7.66-7.63h0A7.65,7.65,0,0,1,548.29,105.25Z"/><path class="cls-15" d="M535.43,105.18a7.72,7.72,0,1,1-7.73-7.71,7.72,7.72,0,0,1,7.73,7.71Z"/><path class="cls-15" d="M616.09,105.41a7.49,7.49,0,1,1-7.5-7.48h0A7.49,7.49,0,0,1,616.09,105.41Z"/><path class="cls-15" d="M385.7,105.78a7.14,7.14,0,1,1-7.13-7.14,7.13,7.13,0,0,1,7.13,7.14Z"/><path class="cls-15" d="M402.59,105.09a7.82,7.82,0,1,1-7.82-7.81,7.82,7.82,0,0,1,7.82,7.81Z"/><path class="cls-15" d="M416.05,105.26a7.65,7.65,0,1,1-7.65-7.64h0A7.65,7.65,0,0,1,416.05,105.26Z"/><path class="cls-15" d="M417.81,105.16a7.75,7.75,0,1,1-7.74-7.74h0A7.75,7.75,0,0,1,417.81,105.16Z"/><path class="cls-15" d="M370.45,105.16a7.75,7.75,0,1,1-7.75-7.74h0A7.75,7.75,0,0,1,370.45,105.16Z"/><path class="cls-15" d="M406.44,105.32a7.59,7.59,0,1,1-7.59-7.59h0A7.59,7.59,0,0,1,406.44,105.32Z"/><path class="cls-15" d="M402.22,105.19a7.72,7.72,0,1,1-7.72-7.72,7.71,7.71,0,0,1,7.72,7.72Z"/><path class="cls-17" d="M418.74,105.36a7.55,7.55,0,1,1-7.54-7.54h0A7.55,7.55,0,0,1,418.74,105.36Z"/><path class="cls-15" d="M453.42,105.05a7.87,7.87,0,1,1-7.87-7.86h0A7.86,7.86,0,0,1,453.42,105.05Z"/><path class="cls-15" d="M425.28,105.28a7.64,7.64,0,1,1-7.64-7.63,7.64,7.64,0,0,1,7.64,7.63Z"/><path class="cls-15" d="M446.4,105.69a7.23,7.23,0,1,1-7.23-7.22h0A7.23,7.23,0,0,1,446.4,105.69Z"/><path class="cls-15" d="M431.5,105.53a7.38,7.38,0,1,1-7.38-7.37,7.37,7.37,0,0,1,7.38,7.37Z"/><path class="cls-15" d="M458.56,104.84a8.08,8.08,0,1,1-8.08-8.08,8.07,8.07,0,0,1,8.08,8.08Z"/><path class="cls-15" d="M439.13,105.18a7.73,7.73,0,1,1-7.73-7.73,7.73,7.73,0,0,1,7.73,7.73Z"/><path class="cls-15" d="M442.74,104.64a8.28,8.28,0,1,1-8.28-8.28h0A8.28,8.28,0,0,1,442.74,104.64Z"/><path class="cls-15" d="M457.46,104.79a8.12,8.12,0,1,1-8.12-8.11h0A8.11,8.11,0,0,1,457.46,104.79Z"/><g class="cls-18"><path class="cls-15" d="M266.91,3.53a7.83,7.83,0,1,1-7.84-7.82A7.83,7.83,0,0,1,266.91,3.53Z"/><path class="cls-15" d="M188,3.72a8,8,0,1,1-8-8h0A8,8,0,0,1,188,3.72Z"/><path class="cls-15" d="M216.29,3.6a7.91,7.91,0,1,1-7.91-7.89,7.9,7.9,0,0,1,7.91,7.89Z"/><path class="cls-15" d="M206.12,3.45a7.75,7.75,0,1,1-7.75-7.74h0A7.74,7.74,0,0,1,206.12,3.45Z"/><path class="cls-15" d="M156.4,3.18a7.48,7.48,0,1,1-7.49-7.47A7.46,7.46,0,0,1,156.4,3.18Z"/><path class="cls-15" d="M160.53,3.63a7.93,7.93,0,1,1-7.94-7.92h0A7.92,7.92,0,0,1,160.53,3.63Z"/><path class="cls-15" d="M141.61,3a7.31,7.31,0,1,1-7.31-7.3A7.3,7.3,0,0,1,141.61,3Z"/><path class="cls-15" d="M214.17,3.08a7.38,7.38,0,1,1-7.39-7.37,7.37,7.37,0,0,1,7.39,7.37Z"/><path class="cls-15" d="M230,4.33a8.63,8.63,0,1,1-8.64-8.62A8.63,8.63,0,0,1,230,4.33Z"/><path class="cls-15" d="M254.48,3.22A7.52,7.52,0,1,1,247-4.29h0A7.52,7.52,0,0,1,254.48,3.22Z"/><path class="cls-15" d="M216.38,3.19a7.49,7.49,0,1,1-7.5-7.48h0A7.49,7.49,0,0,1,216.38,3.19Z"/><path class="cls-15" d="M214.2,3.13a7.44,7.44,0,1,1-7.45-7.42h0A7.44,7.44,0,0,1,214.2,3.13Z"/><path class="cls-15" d="M227.73,3.69a8,8,0,1,1-8-8,8,8,0,0,1,8,8Z"/><path class="cls-15" d="M204.87,3.25a7.55,7.55,0,1,1-7.56-7.54h0A7.55,7.55,0,0,1,204.87,3.25Z"/><path class="cls-15" d="M237.8,4.26a8.56,8.56,0,1,1-8.58-8.55,8.57,8.57,0,0,1,8.58,8.55Z"/><path class="cls-15" d="M223.68,3.59a7.89,7.89,0,1,1-7.9-7.88,7.88,7.88,0,0,1,7.9,7.88Z"/><path class="cls-16" d="M199.73,3.59a7.89,7.89,0,1,1-7.9-7.88,7.89,7.89,0,0,1,7.9,7.88Z"/><path class="cls-16" d="M113.85,3.4a7.69,7.69,0,1,1-7.69-7.69h0A7.69,7.69,0,0,1,113.85,3.4Z"/><path class="cls-15" d="M278.76,3.54a7.83,7.83,0,1,1-7.83-7.83A7.83,7.83,0,0,1,278.76,3.54Z"/><path class="cls-15" d="M234.17,3.32a7.61,7.61,0,1,1-7.61-7.61h0A7.61,7.61,0,0,1,234.17,3.32Z"/></g><g class="cls-19"><path class="cls-15" d="M632.81,156a7.49,7.49,0,1,1-7.5-7.48h0A7.48,7.48,0,0,1,632.81,156Z"/><path class="cls-15" d="M657.16,156a7.42,7.42,0,1,1-7.43-7.41,7.42,7.42,0,0,1,7.43,7.41Z"/><path class="cls-15" d="M626.87,156a7.46,7.46,0,1,1-7.47-7.45h0A7.45,7.45,0,0,1,626.87,156Z"/><path class="cls-15" d="M611.05,156a7.52,7.52,0,1,1-7.53-7.51h0A7.53,7.53,0,0,1,611.05,156Z"/><path class="cls-15" d="M647.28,156a7.58,7.58,0,1,1-7.59-7.57h0A7.59,7.59,0,0,1,647.28,156Z"/><path class="cls-15" d="M654.39,156a7.89,7.89,0,1,1-7.9-7.88,7.89,7.89,0,0,1,7.9,7.88Z"/><path class="cls-16" d="M135.41,156a7.91,7.91,0,1,1-7.92-7.89,7.91,7.91,0,0,1,7.92,7.89Z"/><path class="cls-16" d="M662.08,156a7.91,7.91,0,1,1-7.92-7.89,7.92,7.92,0,0,1,7.92,7.89Z"/><path class="cls-16" d="M383.16,156a7.75,7.75,0,1,1-7.75-7.75h0A7.75,7.75,0,0,1,383.16,156Z"/><path class="cls-15" d="M358,156a7.12,7.12,0,1,1-7.12-7.12A7.12,7.12,0,0,1,358,156Z"/><path class="cls-15" d="M392.76,156a7.82,7.82,0,1,1-7.82-7.82,7.82,7.82,0,0,1,7.82,7.82Z"/><path class="cls-15" d="M126.22,156a7.44,7.44,0,1,1-7.43-7.43h0A7.43,7.43,0,0,1,126.22,156Z"/><path class="cls-15" d="M402.65,156a7.61,7.61,0,1,1-7.6-7.6h0A7.6,7.6,0,0,1,402.65,156Z"/><path class="cls-15" d="M414.63,156a8,8,0,1,1-8-8h0A8,8,0,0,1,414.63,156Z"/><path class="cls-15" d="M404.53,156a7.35,7.35,0,1,1-7.34-7.35h0A7.35,7.35,0,0,1,404.53,156Z"/><path class="cls-15" d="M383.67,156a7.44,7.44,0,1,1-7.43-7.43h0A7.43,7.43,0,0,1,383.67,156Z"/><path class="cls-15" d="M371.88,156a7.47,7.47,0,1,1-7.46-7.46h0A7.46,7.46,0,0,1,371.88,156Z"/><path class="cls-16" d="M243.19,156a7.72,7.72,0,1,1-7.72-7.72,7.72,7.72,0,0,1,7.72,7.72Z"/><path class="cls-16" d="M304.34,156a7.35,7.35,0,1,1-7.35-7.35h0A7.35,7.35,0,0,1,304.34,156Z"/><path class="cls-15" d="M416,156a7.58,7.58,0,1,1-7.57-7.58h0A7.58,7.58,0,0,1,416,156Z"/><path class="cls-15" d="M380.68,156a7.66,7.66,0,1,1-7.66-7.66,7.66,7.66,0,0,1,7.66,7.66Z"/><path class="cls-15" d="M391.72,156a7.52,7.52,0,1,1-7.52-7.52h0A7.52,7.52,0,0,1,391.72,156Z"/><path class="cls-15" d="M387.32,156a7.72,7.72,0,1,1-7.72-7.72,7.72,7.72,0,0,1,7.72,7.72Z"/><path class="cls-16" d="M414.9,156a7.63,7.63,0,1,1-7.63-7.63A7.62,7.62,0,0,1,414.9,156Z"/><path class="cls-15" d="M429.58,156a7.65,7.65,0,1,1-7.64-7.65h0A7.65,7.65,0,0,1,429.58,156Z"/><path class="cls-15" d="M433.41,156a7.62,7.62,0,1,1-7.62-7.62h0A7.62,7.62,0,0,1,433.41,156Z"/><path class="cls-15" d="M444.51,156a7.25,7.25,0,1,1-7.25-7.25h0A7.26,7.26,0,0,1,444.51,156Z"/><path class="cls-15" d="M441.83,156a7.51,7.51,0,1,1-7.51-7.5,7.51,7.51,0,0,1,7.51,7.5Z"/><path class="cls-15" d="M468.5,156a7.51,7.51,0,1,1-7.5-7.5,7.5,7.5,0,0,1,7.5,7.5Z"/><path class="cls-15" d="M432.79,156a8,8,0,1,1-8-8,8,8,0,0,1,8,8Z"/><path class="cls-15" d="M424.38,156a7.82,7.82,0,1,1-7.81-7.82,7.82,7.82,0,0,1,7.81,7.82Z"/><path class="cls-15" d="M431.79,156a7.91,7.91,0,1,1-7.9-7.9,7.91,7.91,0,0,1,7.9,7.9Z"/><path class="cls-15" d="M459.93,156a6.92,6.92,0,1,1-6.92-6.92h0A6.92,6.92,0,0,1,459.93,156Z"/><path class="cls-15" d="M434.34,156a7.49,7.49,0,1,1-7.49-7.49h0A7.49,7.49,0,0,1,434.34,156Z"/><path class="cls-15" d="M421.55,156a7.69,7.69,0,1,1-7.69-7.69h0A7.69,7.69,0,0,1,421.55,156Z"/><path class="cls-15" d="M420.61,156a7.79,7.79,0,1,1-7.79-7.79h0A7.79,7.79,0,0,1,420.61,156Z"/><path class="cls-15" d="M477,156a8.14,8.14,0,1,1-8.13-8.13A8.13,8.13,0,0,1,477,156Z"/><path class="cls-15" d="M439.67,156a7.4,7.4,0,1,1-7.4-7.39,7.39,7.39,0,0,1,7.4,7.39Z"/><path class="cls-15" d="M440.12,156a6.91,6.91,0,1,1-6.91-6.91h0A6.91,6.91,0,0,1,440.12,156Z"/><path class="cls-15" d="M433.26,156a7.49,7.49,0,1,1-7.49-7.49h0A7.49,7.49,0,0,1,433.26,156Z"/><path class="cls-15" d="M681.29,156a7.72,7.72,0,1,1-7.73-7.71,7.73,7.73,0,0,1,7.73,7.71Z"/><path class="cls-15" d="M680.48,156A7.5,7.5,0,1,1,673,148.5h0A7.49,7.49,0,0,1,680.48,156Z"/><path class="cls-15" d="M670.79,156a7.59,7.59,0,1,1-7.6-7.58h0A7.59,7.59,0,0,1,670.79,156Z"/><path class="cls-15" d="M668.36,156a7.64,7.64,0,1,1-7.65-7.62,7.63,7.63,0,0,1,7.65,7.62Z"/><path class="cls-15" d="M689.46,156a8,8,0,1,1-8-8h0A8,8,0,0,1,689.46,156Z"/><path class="cls-16" d="M695.41,156a7.91,7.91,0,1,1-7.92-7.89,7.91,7.91,0,0,1,7.92,7.89Z"/><path class="cls-15" d="M737.41,156a7.68,7.68,0,1,1-7.69-7.66h0A7.67,7.67,0,0,1,737.41,156Z"/><path class="cls-15" d="M734.89,156a8,8,0,1,1-8-7.95h0A8,8,0,0,1,734.89,156Z"/><path class="cls-16" d="M718.6,156a7.88,7.88,0,1,1-7.89-7.86A7.87,7.87,0,0,1,718.6,156Z"/><path class="cls-15" d="M729.35,156a7.46,7.46,0,1,1-7.47-7.45h0A7.45,7.45,0,0,1,729.35,156Z"/><path class="cls-17" d="M727.36,156a7.49,7.49,0,1,1-7.5-7.48h0A7.49,7.49,0,0,1,727.36,156Z"/><path class="cls-15" d="M711.35,156a7.66,7.66,0,1,1-7.67-7.65,7.65,7.65,0,0,1,7.67,7.65Z"/><path class="cls-15" d="M723.57,156a7.48,7.48,0,1,1-7.49-7.47A7.48,7.48,0,0,1,723.57,156Z"/><path class="cls-15" d="M752.11,156a7.54,7.54,0,1,1-7.55-7.52h0A7.54,7.54,0,0,1,752.11,156Z"/><path class="cls-15" d="M733.57,156a7.59,7.59,0,1,1-7.6-7.58h0A7.59,7.59,0,0,1,733.57,156Z"/><path class="cls-15" d="M758.12,156a7.59,7.59,0,1,1-7.6-7.58h0A7.59,7.59,0,0,1,758.12,156Z"/><path class="cls-15" d="M713.71,156a7.52,7.52,0,1,1-7.53-7.51h0A7.52,7.52,0,0,1,713.71,156Z"/><path class="cls-16" d="M770.08,156a7.91,7.91,0,1,1-7.92-7.89,7.92,7.92,0,0,1,7.92,7.89Z"/></g></g></g></svg>