<?xml version="1.0" encoding="utf-8"?>
<!-- Generator: Adobe Illustrator 22.0.1, SVG Export Plug-In . SVG Version: 6.00 Build 0)  -->
<svg version="1.1" id="Layer_1" xmlns="http://www.w3.org/2000/svg" xmlns:xlink="http://www.w3.org/1999/xlink" x="0px" y="0px"
	 viewBox="0 0 471.9 212.3" style="enable-background:new 0 0 471.9 212.3;" xml:space="preserve">
<style type="text/css">
	.st0{fill:#63676B;}
	.st1{fill:#AA539E;}
	.st2{fill:#AE9F9E;}
	.st3{fill:#FFFFFF;}
	.st4{fill:#AEADAE;}
</style>
<g>
	<path class="st0" d="M53.7,150.5c0.3-0.7,1.2-0.8,1.6-1.7c-0.8,0.3-1.5,0.5-1.8-0.4c0-0.1-0.3,0-0.5-0.1c-0.4,0-0.8,0.8-1,0.1
		c-0.2-0.5,0.5-0.6,0.8-0.8c0.2-0.1,0.5-0.2,0.6-0.8c-1.1,0.3-2.3-0.5-3.3,0.5c-0.3,0.1-0.6,0.1-1,0c-0.8,0-1.4,0.2-1.8,1
		c-0.1,0.1-0.2,0.3-0.4,0.3c-0.2,0,0,0.1,0.1-0.1c-1-0.3-1.7,0.4-2.2,0.9c-0.9,0.8-1.9,1.3-2.9,1.9c-0.3-0.1-0.4-0.3-0.5-0.6
		c3.2-2.2,6.3-4.5,9.9-7c-1.1-0.1-1.8,0.1-1.7-1.1c0-0.8-1-1.7-1.7-2.6c-0.3-0.4-0.7-0.2-1,0c-0.6-0.5-1.1,0.4-1.7,0
		c-0.3,0.1-0.6,0.3-0.9,0.4c-0.3,0.2-0.5,0.3-0.6-0.2c0.8-0.4,1.4-1,2.3-1.4c0.5-0.2,1.3-0.4,1.2-1c-0.1-0.7-0.9-0.9-1.6-0.9
		c-0.3-0.1-0.5-0.5-0.3-0.6c0.8-0.6-0.2-0.5-0.2-0.8c-0.7-1,0.2-1.5,0.7-2c0.2-0.3,0.6-0.5,0.9-0.8c0-0.1,0-0.2-0.1-0.1
		c-0.6,0.1-1.1,0.4-1.7,0.2l0-0.1c0-0.6-0.1-0.7-0.6-0.5c-1.6,0.5-3.2,1.1-4.8,1.7c-1.3,0.5-2.7,0.8-4,1.4c-0.5,0.2-1,0.3-1.4-0.2
		c1.8-0.9,3.7-1.5,5.5-2.3c1.6-0.7,3.2-1.3,4.7-2c0.7-0.3,1.4-0.5,2.4-0.9c-1.3-0.2-2.1-0.7-3-0.4c-0.2-0.1-0.2-0.3-0.1-0.4
		c0.8-0.3,1.6-0.7,2.4-1c0.7-0.3,1.3-0.2,1.4,0.8c0.1,0.8,0.4,1,1.1,0.6c0.3-0.2,0.9-0.3,1,0.1c0.2,0.5-0.5,0.4-0.8,0.6
		c-0.3,0.1-0.5,0.2-0.6,0.6c0.6,0.7,1.1-0.4,1.7-0.1c0.1,0.5-0.3,0.4-0.5,0.5c-1.1,0.7-1.6,1.6-0.8,2.8c0.1,0.1,0,0.3,0,0.4
		c-0.1,2-0.1,2,2.1,1.7c-1.6,1.1-1.3,1.9-0.2,2.9c0.3,0.3,1,0.8,0.8,1.7c-0.1,0.4,0.4,0.4,0.7,0.3c0.4-0.1,0.8-0.4,1.1-0.5
		c0.3-0.2,0.5-0.3,0.9-0.1c-0.1,0.1-0.2,0.3-0.4,0.4c-1.5,0.6-0.9,1.6-0.5,2.6c0.2,0.6,0.5,0.6,0.9,0.1c0.4-0.4,0.7-0.9,1.5-0.8
		c-1.3,1.8-0.4,3.3,0.8,4.7c1.5,1.8,2.5-0.7,4-0.5c-1.8,1.2-2.7,3.2-4.6,4.2c-0.1,0.1-0.2,0.1-0.2,0.2c-0.1,0.1-0.3,0.2-0.4,0.2
		C54.3,151.6,53.8,151.4,53.7,150.5z"/>
	<path class="st0" d="M71.8,174.6c0.3-1.2,1.1-2.2,1.6-3.3c0.3-0.7,0.8-1.4,0.3-2.2c-0.1-0.2-0.2-0.4,0.1-0.6c1-0.7,1.5-1.8,2.3-2.7
		c0.3,0.2,0.3,0.4,0.1,0.6c0.2,0.4-0.8,0.8,0.1,1.1c0.3,0.1,0.3,0.3,0.3,0.5c-0.1,0.9,1.1,1.2,1,2.1c0.1-0.1,0.1-0.1,0.2-0.1
		c0.9-0.6,1.2-1.6,1.6-2.5c0.1-0.4,0.3-1.2,0.8-1c0.7,0.3,0.1,1-0.1,1.3c-0.5,0.7-0.3,1.5-0.6,2.4c0.5-0.2,0.8-0.4,1-0.5
		c0.2-0.1,0.3-0.1,0.5,0.1c0.8,1.5,0,2.9-0.3,4.3c0.9-1.2,2.6,0.2,3.2-1.3c0.1,0.1,0.2,0.2,0.2,0.2c0.1,0.5-0.8,1.3,0.1,1.6
		c0.6,0.2,1.5,0.2,2.2-0.5c0.3-0.3,0.3-0.9,1-0.8c0,1-0.7,1.8-0.5,2.8c-0.5,0.4-1.1,0.7-1.4,1.3c-0.8,2-1.3,4.1-1.9,6.3
		c-0.1,0.5-0.2,0.9-0.6,1.2c-0.2,0-0.3-0.1-0.4-0.3c0.5-2.5,1.5-4.8,2.2-7.2c0.2-0.8,0.1-1.1-0.6-1.4c-0.2-0.1-0.4-0.2-0.6-0.3
		c-0.5-0.1-0.7-1.1-1.2-0.8c-0.6,0.3-1,1-1.4,1.5c-0.6,0.8-0.6,1.9-1.3,2.7c-0.1-0.1-0.2-0.2-0.2-0.4c-0.2-0.4-0.1-0.8,0.2-1.1
		c0.3-0.3,0.4-0.5-0.1-0.7c-0.1,0-0.2-0.1-0.2-0.1c-0.1,0.2-0.2,0.2-0.4,0.2c-0.2,0-0.3-0.1-0.4-0.3c0.1,0.5-0.2,0.5-0.5,0.4
		c0,0-0.1,0.1-0.1,0.1c-1,1-1.1,2.5-1.7,3.6c-0.4,0-0.4-0.3-0.4-0.5c1.1-2.8,2.3-5.6,3.4-8.4c0.1-0.3,0.7-0.9,0.1-1.2
		c-0.4-0.2-0.6,0.5-0.9,0.8c-0.2,0.1-0.3,0.4-0.4,0.6c-0.4,0.5-1,0.6-1.6,0.3c-0.2-0.6,0.8-1.4,0.1-1.6c-0.7-0.2-0.6,0.9-1,1.4
		c-0.2,0.3-0.4,0.5-0.6,0.8c-0.1,0.3-0.3,0.3-0.5,0.1c0.3-0.7,0.5-1.4,0.8-2.1c0.2-0.4,0.4-0.7-0.1-0.9c-0.5-0.2-0.7,0.2-0.8,0.5
		c-0.2,0.7-0.8,1.3-1,2.1c-0.1,0.7-0.7,1.3-1.1,2C72.2,174.9,72,175,71.8,174.6z"/>
	<path class="st1" d="M105,31c-0.6,0.4-0.6,1.1-0.7,1.7c-0.6,0.1-0.4-0.4-0.6-0.5c-0.3-0.2,0.2-1.1-0.6-0.8
		c-0.6,0.2-1.4-0.6-1.7,0.6c-0.1,0.4-0.4,0.4-0.4,0.2c-0.1-1.1-1.3-1.3-1.9-1.5c-1.1-0.4-1-1.1-1.1-1.8c-0.3-3.4-0.7-6.8-1.1-10.3
		c-0.1-0.9-0.6-2,0.1-3.1c0.6,1.4,0.5,2.8,0.7,4.1c0.4,3,0.7,6,0.9,9c0.1,1.2,1.2,1.1,1.7,2.1c0.7-1.8,0.2-3.3,0.1-4.9
		c-0.1-3.1-0.5-6.2-0.7-9.2c0-0.5,0-1.1,0.7-1.1c0.6,0,0.7,0.5,0.8,1c0.1,3.5,0.4,7,0.6,10.5c0,1,0.1,2.1,0.3,3.1
		c0,0.2,0.1,0.5,0.4,0.4c0.3-0.1,0.2-0.3,0.2-0.6c0-3.6,0.1-7.2,0.1-10.8c0-1.2-0.2-2.4,0.1-3.5c0.7,0.9,0.4,2,0.5,3
		c0.3,2.9,0.7,5.8,0.6,8.7c0,0.9,0.1,1.8,0.1,2.6c0,0.5,0.1,0.8,0.7,0.8c0.1,0.1,0.1,0.1,0.1,0.2C104.9,30.9,104.9,30.9,105,31z"/>
	<path class="st0" d="M43.8,81.4c-0.6,0.2-1-0.4-1.6-0.4c-0.4,0-0.9-0.6-1.2-0.2c-0.5,0.5-0.9,1.2-1.2,1.9c-0.2,0.4,0.5,0.5,0.5,1
		c-0.1,0.4-1-0.3-1,0.4c-0.1,0.6,0.7,0.5,0.8,1c-0.1,0.7-1.2-0.2-1,0.7c0.1,1.1,1,1.3,1.8,1.5c0,0.2-0.1,0.3-0.2,0.5
		c-0.1,0.2-0.6,0.1-0.4,0.5c0,0.2,0,0.4-0.2,0.5c-0.3-0.1-0.6-0.1-1-0.2c-0.2-0.1-0.5-0.1-0.6,0.2c-0.2,0.5-1.6,2.4-2,2.6
		c-0.1,0-0.3,0.1-0.4,0c-0.2-0.1-0.3-0.3-0.2-0.5c0.2-0.3,0.3-0.8,0.6-0.9c1.7-0.9,1.2-2.7,1.7-4.1c0.6-1.7,0.6-3.6,1.9-5
		c0.4-0.4,0.1-0.7-0.2-1c-0.6-0.6-1.1-1.2-1.4-2.1c0,0,0.1-0.1,0.1-0.1c0.1,0,0.2,0,0.2,0.1c0.4-0.1,0.7,0.2,1,0.3
		c0.6,0.3,1.1,0.4,1.1-0.7c0-0.6,1-1.1,0.4-2c-0.1-0.2,0.3-0.3,0.5-0.3c0.3,0,0.7,0.2,0.8-0.3c0.1-0.6-0.4-0.5-0.7-0.7
		c-0.6-0.5-1.5-0.6-2-1.3c0-0.2,0.1-0.3,0.3-0.4c0.5,0.2,1.1,0.4,1.5,0.7c1.2,0.8,1.5,0,1.9-0.8c0.6-1.3,0.2-2-1.1-2.6
		c-2-1.1-4-2.2-5.9-3.6c-0.1-0.1,0-0.2,0-0.4c2.3,1.3,4.7,2.5,7,3.9c0.9,0.5,1.3,0.2,1.4-0.5c0.1-0.6,0.2-1,0.9-1.1
		c0.5-0.1,0.4-0.7,0.6-0.9c1.5-1.8,2.4-4,4.3-5.4c0.1,0,0.2,0,0.5,0c-0.8,1-1.4,2-2.2,2.9c-0.4,0.5-0.9,1-0.2,1.5
		c0.9,0.8,0.2,1.4-0.3,1.6c-1.2,0.5-2.1,1.6-2.6,2.5c-0.7,1.3-2.1,2-2.5,3.5c-0.2,0.9,0.7,1.1,0.6,1.7c-1,0.1-2,0.2-1.3,1.6
		c0.1,0.3-0.1,0.4-0.3,0.5c-1.5,1-1.4,1.2,0,2.3c0.4,0.3,0.6,0.7,1.1,0.8C43.9,81,43.9,81.2,43.8,81.4z"/>
	<path class="st1" d="M137.2,39.1c0.1-0.3,0.2-0.7,0.3-1c-1.4-0.6-2,0.1-2.5,1.3c-0.5,1.4-1.2,2.8-1.8,4.2c-0.1,0.4-0.3,0.3-0.5,0
		c0.6-1.7,1.3-3.3,2-5c0.3-0.7,0.5-1.1-0.6-1.1c-0.3,0.1-0.5,0-0.6-0.3c-0.7-1.4-2.1-1.2-3.3-1.3c-0.4,0-0.5,0.4-0.6,0.8
		c-0.1,0.6-0.4,1.1-0.6,1.7c-0.3,0.2-0.4-0.1-0.5-0.2c-0.1-0.8,0.8-1.3,0.8-2.1c0-0.3,0.3-0.6-0.1-0.7c-0.4-0.1-0.4,0.3-0.6,0.5
		c-0.3,0.6-0.5,1.2-0.7,1.8c-0.1,0.3-0.2,0.2-0.4,0c0.5-1.2-0.5-2.1-0.5-3.1c0-0.2-0.3-0.5-0.6-0.6c-0.4-0.1-0.5,0.3-0.7,0.6
		c-0.2,0.4-0.1,0.9-0.6,1.2c-0.1,0-0.2-0.1-0.2-0.2c0-0.1,0-0.1,0-0.1c0.7-4.1,2-8.1,3.3-12c-0.4,2.7-0.3,5.4-1.2,7.9
		c-0.5,1.4,0.5,2.2,1.8,1.8c0.5,0.2-0.5,1,0.4,1.1c0.1-0.1,0.2,0,0.2,0.1c0.1,0.3,0.2,0.5,0.5,0.2c0.4-0.4,0-0.9,0.5-1.3
		c0.6-0.1,0.3,0.5,0.5,0.7c0.1,0.1,0.3,0.2,0.3,0.2c0.7-0.6,1.5-1.2,1,0.5c-0.1,0.4,0.2,0.6,0.6,0.7c0.5,0.2,0.6-0.3,0.7-0.5
		c0.8-2.1,1.5-4.2,2.4-6.2c1-2.6,2.1-5.1,3.4-7.6c-0.6,2.8-1.6,5.4-2.7,8.1c-0.7,1.7-1.4,3.3-2.1,5c-0.5,1.2,0.1,1.9,1.1,2
		c1,0,1.9,0.9,3,0.4c0.3-0.1,0.6,0.3,0.4,0.5c-0.5,0.6-0.4,1.5-1.1,1.9C137.6,39.3,137.4,39.3,137.2,39.1z"/>
	<path class="st0" d="M73.4,40.9c0.1-0.1,0.2-0.1,0.3,0c0.8,1.8,1.1,2,2.8,1c0.8-0.5,1.6-0.7,2.5-0.9c0.4,0.1,0.6,0.6,1,0.7
		c0.2-0.4-0.2-0.7-0.1-1.1c1.5-0.8,1.5-0.9,0.9-2.6c-0.9-2.6-2-5-2.7-7.7c0.1-0.2,0.3-0.2,0.5,0c0.8,1.6,1.3,3.4,1.9,5.1
		c0.4,1.2,0.9,2.4,1.4,3.7c0.1,0.3,0.2,0.6,0.6,0.4c0.7-0.3,1.7-0.2,2.1-0.6c0.7-0.6,1.6-0.2,2.2-0.7c0.3-0.1,0.6-0.2,0.9,0
		c0.2,0.3,0.6,0.7,0.3,1.1c-0.3,0.4-0.7,0-1,0c-0.3,0-0.6-0.5-1,0c-0.3,0.4-0.3,0.8-0.2,1.2c0,0.1,0.2,0.2,0.2,0.4
		c0.1,0.4,0.4,0.9-0.1,1.1c-0.6,0.2-0.7-0.5-0.7-0.8c-0.1-1.4-1.1-1.2-1.9-1.2c-0.5,0-0.8,0.1-0.5,0.9c0.5,1.2,0.8,2.4,1.1,3.6
		c-0.1,0.2-0.3,0.2-0.4,0.1c-0.7-0.8-0.6-1.9-1.2-2.8c-0.2-0.2-0.2-0.5-0.6-0.4c-0.3,0.1-0.1,0.4-0.2,0.5c-0.6,1.1,0,2.2,0.3,3.2
		c-0.2,0.5,0.4,1-0.1,1.4c-0.3-0.2-0.4-0.5-0.5-0.8c-0.2-2-1.7-2.7-3.2-3.4c-0.9-0.4-1.7,0.5-2.4,0.9c-0.6,0.4-0.1,0.9,0.1,1.4
		c0.2,0.5,0.5,1,0.8,1.5c-0.1,0.3-0.2,0.5-0.5,0.4c-0.5-0.8-0.9-1.6-1.4-2.5c0-0.1-0.1-0.2-0.1-0.2c-2,1.2-1.3-1.2-2.1-1.6
		c-0.1-0.1-0.3,0-0.4,0c-0.1,0-0.1-0.1-0.2-0.1c-0.1-0.1-0.3-0.3-0.4-0.4c-0.1-0.1-0.1-0.2-0.2-0.3c-0.1-0.4-1.1-1.7-0.9-2.1
		c0.2-0.2,1.4,0.6,1.6,0.7c0.4,0.2,0.7-0.3,1.1-0.2c0.2,0.3,0.3,0.6,0.3,0.9c0,0.3-0.2,0.5-0.2,0.8"/>
	<path class="st0" d="M169.9,145.1c-0.7-0.4-1.4-0.9-2.2-1.3c-0.4-0.2-0.8-0.3-1.1,0.1c-0.3,0.4-0.2,0.7,0.2,0.9
		c0.3,0.2,0.5,0.4,0.1,0.6c-0.7,0.5-0.4,1,0.1,1.7c-0.7-0.2-1-0.4-1.4-0.5c-0.3-0.1-0.6,0.1-0.8,0.3c-0.2,0.2,0,0.4,0.2,0.6
		c0.8,0.6-0.1,1.1-0.3,1.1c-1.6-0.3-1.6,1.2-2.2,1.9c-0.2,0.2-0.2,0.6-0.4,0.7c-1.3,0.7-1.1,1.2-0.2,2.2c0.9,0.9-0.5,0.5-0.8,0.9
		c-0.7,1.1-1.3,0.6-1.8-0.3c0.3-0.3,0.6,0,0.8,0c0.5,0.2,0.7-0.2,0.4-0.4c-0.5-0.4-0.5-1.1-0.7-1.6c-0.5-1-0.1-1.6,1-1.5
		c0.9,0.1,1.3,0,0.9-1c-0.2-0.4,0-0.7,0.3-0.8c1.3-0.3,0.6-0.9,0.1-1.4c2-0.3,2.2-0.5,2.4-3.6c1.2,0.5,1.4,0,1.7-1.1
		c0.3-1.1,0.9-1.9-0.2-2.8c0,0,0.2-0.3,0.3-0.5c0.2-0.3,0.5-0.4,0.6-0.7c0-0.3-0.2-0.6-0.2-0.9c0-0.1,0.1-0.2,0.2-0.3
		c1.6,0.6,3.3,1.3,4.8,2.1c0.2,0.2,0.2,0.4,0,0.6c-0.4-0.2-0.9-0.4-1.3-0.5c-0.4-0.1-1.1-0.3-0.7,0.6c0.1,0.3,0,0.5-0.3,0.4
		c-1-0.4-1,0.9-1.8,1.1c-0.4,0.1,0.1,0.5,0.3,0.7c0.7,0.5,1.5,1,2.2,1.5C170.2,144.5,170.2,144.8,169.9,145.1z"/>
	<path class="st1" d="M172.4,80.3c0.4-0.5,1-0.6,1.6-0.8c0.5-0.1,1.2-0.8,0.9-0.9c-1.5-0.8-0.4-3.4-2.6-3.4
		c-0.2-0.8,1.4-0.4,0.7-1.6c-0.6-1.1-1.2-1.1-2.3-0.7c0.7-1,0.6-2,0.4-3c-0.2-0.2-0.3-0.5-0.1-0.8c1-1.1,2.6-1.3,3.7-2.2
		c0.3-0.2,0.7-0.5,1,0c0.3,0.5-0.3,0.6-0.6,0.7c-1.3,0.4-2.1,1.7-3.7,1.8c1.1,1.6,1.5,1.7,3.1,0.8c1.9-1,3.9-2,5.8-3
		c1.7-0.9,3.5-1.8,5.1-2.8c0.2-0.1,0.5-0.3,0.8-0.4c0.2-0.1,0.5-0.2,0.6,0.1c0.2,0.3-0.1,0.6-0.4,0.7c-2.5,0.9-4.6,2.5-7,3.5
		c-1.8,0.8-3.5,2-5.3,2.8c-1,0.4-0.9,1,0,1.5c0.1,0.1,0.3,0.1,0.4,0.2c0.9,0.5,1.7,1,0.2,1.9c-0.3,0.2-0.7,0.6-0.5,1.1
		c0.2,0.5,0.6,0.2,1,0.2c0.2,0,0.5-0.1,0.6,0.2c0.2,0.3-0.1,0.6-0.3,0.7c-0.8,0.5-0.7,0.8,0.2,1.2c0.8,0.4,0.8,0.9,0.1,1.5
		c-0.6,0.5-1.5,0.3-2,0.9C172.8,80.8,172.8,80.8,172.4,80.3z"/>
	<path class="st0" d="M36,106.7c-2.7,0.2-5.5,0.3-8.2,0.1c-0.2-0.8,0.7-0.8,1-1.3c1.8,0,3.6-0.2,5.4,0.2c0.6,0.1,0.7-0.2,0.7-0.6
		c0.1-0.5-0.3-0.6-0.7-0.7c-1.3-0.1-2.5-0.1-3.8-0.2c-1.6-0.1-3.2-0.1-4.8-0.2c-0.2-0.1-0.1-0.3-0.1-0.4c2.4-0.2,4.8,0.1,7.3,0.2
		c2,0.1,1.9,0.1,2.2-1.8c0.3-1.8-0.1-3.7,0.4-5.5c0.2-0.7,0.1-1.3-1-1.4c-1.5-0.1-3-0.6-4.6-0.9c0-0.2,0.2-0.3,0.3-0.4
		c1.4-0.1,2.7,0.4,4,0.6c1.3,0.2,2,0,2-1.5c0-0.4,0.1-0.7,0.7-0.8c0,1.1-0.3,2.2-0.6,3.2c-0.1,0.3-0.3,0.5-0.3,0.8
		c-0.6,2.7-0.3,3,3.1,3.3c0.5,0,0.9-0.1,1.3,0.2c0.1,0.2,0,0.3-0.2,0.4c-0.1,0-0.2,0-0.3,0c-1.4,0-2.7-0.5-4.1-0.2
		c-0.1,1.8-0.8,3.7,0.4,5.5c0.1,0.1,0,0.3-0.1,0.5C36.3,106.2,36.3,106.5,36,106.7z"/>
	<path class="st1" d="M163.4,63.8c1.1-0.6,0.4-1.2,0.1-1.9l0,0c1.6-0.5,3-1.4,4.4-2.3c2.3-1.6,4.4-3.4,6.7-5.1
		c0.4,0.4,0.2,0.7-0.2,1c-1.9,1.4-3.7,2.7-5.5,4.1c-0.4,0.3-1.1,0.6-0.8,1.1c0.3,0.5,0.9,0,1.3-0.3c2.1-1.6,4.2-3.1,6.3-4.7
		c1.4-1,2.8-2,4.4-3.1c-0.1,1.1-0.9,1.4-1.4,1.8c-3,2.2-6,4.3-9.1,6.4c-0.7,0.5-1.1,1.2-1.8,1.5c-0.1,0-0.2,0.2-0.2,0.2
		c0.6,2-1.3,1.7-2.1,2.4c-0.2,0.1-0.4,0.1-0.7,0c-0.3-0.1-0.6-0.2-0.8-0.3c-0.2-0.1-0.3-0.2-0.4-0.3C163.5,64.2,163.4,64,163.4,63.8
		z"/>
	<path class="st1" d="M38.8,77.8c0.3,0.7,0.7,1.4,1,2.1c-0.2,0-0.4,0-0.6,0c0,0-0.1-0.1-0.1-0.1c-5.2-2.1-10.4-4.2-15.7-6.3
		c-0.3-0.1-0.6-0.3-0.9-0.4c-0.6-0.2-1.1-0.5-0.7-1.2c0.3-0.6,0.9-0.5,1.5-0.2c3.8,1.5,7.6,3.1,11.4,4.6c1,0.4,2.1,0.3,3.1,0.7
		C38.2,77.2,38.5,77.4,38.8,77.8z"/>
	<path class="st0" d="M178.5,124.1c-1-0.2-2.1-0.3-3.1-0.6c-0.8-0.3-1.1-0.1-1.3,0.6c-0.1,0.5-0.3,0.9-0.4,1.3c-0.3,1-0.2,1.6,1.1,2
		c2.2,0.6,4.4,1.5,6.6,2.2c0.1,0.1,0.1,0.3,0,0.4c-1.9-0.2-3.6-0.9-5.4-1.4c-0.8-0.2-1.1-0.4-1.5,0.8c-0.4,1.2,0,2.3-0.3,3.4
		c-0.1,0.6,0.3,0.4,0.5,0.5c1.2,0.6,2.6,0.8,3.6,1.7c-0.2,0.2-0.5,0.3-0.7,0.2c-1.4-0.2-2.6-1-3.9-1.4c-0.4-0.1-0.9-0.6-1.2-0.1
		c-0.3,0.4-0.6,0.7-0.1,1.3c0.3,0.4,0.1,1.1-0.6,1.2c-0.3,0.1-0.6,0.3-0.7-0.2c0.3-0.1,0.8-0.3,0.7-0.6c-0.8-1.8,0.9-2.8,1.2-4.2
		c0.1-0.4,0.3-0.7,0.4-1c0.4-1.2,0.6-2.2-1.1-2.4c-0.3,0-0.7-0.3-1-0.5c-0.4-0.4,0-0.6,0.2-0.9c0.4-0.3,1,0.7,1.4-0.1
		c0.3-0.6,0.5-1.3-0.2-1.8c-0.1,0-0.1-0.2-0.1-0.2c0.1-0.1,0.2-0.3,0.3-0.3c1.1,0.2,0.6-1.9,2-1.4c1.1,0.4,2.2,0.4,3.3,0.6
		C178.5,123.4,178.8,123.6,178.5,124.1z"/>
	<path class="st0" d="M66,50.8c-0.4-0.2-0.6-0.6-0.8-1c-0.2-0.3-0.5-0.7-0.9-0.5c-0.6,0.4,0.1,0.6,0.2,0.9c0.1,0.2,0.2,0.3,0,0.6
		c-0.7-0.8-2-0.5-2.7-1.5c-0.3-0.5-0.6,0.1-0.7,0.3c-0.6,0.6-0.8,1.3-0.4,2.1c0.4,0.7,1.3,1,1.4,1.9c0,0.2-0.1,0.4-0.3,0.6
		c-0.7-0.9-1.2-1.9-2-2.7c-0.9-0.9-0.2-1.8,0.4-2.5c0.3-0.5,0.6-1,1.3-1c0.2,0.2,0.3,0.5,0.5,0.7c0.3,0.2,0.3,1,1,0.7
		c0.5-0.2,0.6-0.7,0.3-1.2c-0.1-0.2,0-0.5,0.2-0.4c1.3,0.7,1.9-1.3,3.3-0.9c0.6,0.2,2-0.7,2.1-2c0-0.4,0.1-0.4,0.4-0.2
		c0.9,0.5,1.3-0.3,1.7-0.8c0.5-0.6-0.1-0.9-0.3-1.3c-0.4-0.9-0.7-1.8-1.3-2.6c0.1-0.4,0-1,0.5-1.2c1.2,0.5,0.9,1.9,1.7,2.7l0,0
		c0.2,0.1,0.2,0.4,0.4,0.5l0,0c-0.1,1.2,0.8,2.2,1,3.4c-0.1,0.1-0.1,0.1-0.2,0c-0.8-0.9-1.6-0.1-2.3,0.1c-0.3,0.1,0.3,0.5,0.1,0.8
		c-0.1,0.1-0.3,0.2-0.5,0.1c-0.3-0.4-0.6-0.2-0.9,0c-0.3,0.3-0.1,0.5,0,0.7c0.2,0.4,0.3,0.8,0.5,1.3c-0.1,0.1-0.2,0.1-0.3,0
		c-0.6-0.3-0.8-1-1.3-1.5c-0.5,0.7,0.5,0.9,0.3,1.6c-0.6-0.4-1.2-0.9-1.5,0.3c-0.1,0.6-0.9,0.2-1.4,0.2c-0.3,0.8,0.6,0.8,0.7,1.3
		C66.2,50.5,66.2,50.7,66,50.8z"/>
	<path class="st0" d="M183.5,99.9c-1,0.1-2.1,0.3-3.1,0.4l-0.1,0l-0.1,0l0,0.1l-0.1,0l-0.1-0.1c-0.7,0-1.4-0.1-2.1,0
		c-1.5,0.2-2.6-0.6-3.7-1.5c0.3-0.5,0.6-0.3,0.8-0.4c0.4-0.1,0.8,0,0.7-0.6c-0.1-0.4-0.3-0.7-0.8-0.5c-0.2,0.1-0.5,0.2-0.6-0.1
		c-0.2-0.5,0.3-0.4,0.5-0.5c0.9-0.3,0.9-0.8,0.2-1.3c-0.2-0.2-0.6-0.3-0.3-0.6c0.7-1-0.4-0.6-0.6-0.9c-0.2-0.1-0.2-0.3-0.1-0.5
		c1.6-0.1,1-1,0.6-1.8c-0.3-0.4-0.8-0.8-0.7-1.4c1.4-0.3,2.8-0.7,4.2-1c0.4,0.5,1.3-0.3,1.5,0.6c-0.8,0.2-1.5,0.6-2.4,0.6
		c-0.4,0-1.7,0.3-0.4,1.3c0.3,0.2,0.5,0.7,0,0.9c-0.5,0.2-0.9,0.3-0.7,0.9c0.2,0.9,0.9,0,1.3,0.4c0.1,0.6-0.5,0.4-0.7,0.6
		c-0.4,0.5-0.1,1.1,0,1.6c0.2,0.6,0.6-0.1,0.9,0c0.3,0.1,0.5,0.1,0.8,0.2c0.1,0.1,0.1,0.3,0,0.4c-0.7,0.2-0.5,0.6-0.2,0.9
		c0.1,0.3,0,0.6-0.2,0.8c-0.4,0.4-1.4,0.4-1.2,1c0.3,0.8,1.2,0.2,1.8,0.2c1.7,0.1,3.4-0.6,5.2-0.3C183.8,99.7,183.7,99.8,183.5,99.9
		z"/>
	<path class="st1" d="M99.1,180.5c-0.3,3.5-0.7,6.9-1.3,10.4c-0.3,1.6-0.2,3.3-0.4,4.9c-0.1,0.5,0,1.2-0.9,1.1
		c-0.8-0.1-0.9-0.6-0.8-1.3c0.3-2.4,0.8-4.9,0.8-7.4c0-1.9,0.2-3.7,0.4-5.6c0-0.5,0.1-0.9,0.4-1.3c0.1-0.2,0.3-0.2,0.5-0.2
		c0.2,0.2,0.4,0.4,0.3,0.7c0.1-0.2,0-0.4,0-0.6c0-0.1,0-0.3,0.1-0.4c0.1-0.2,0.2-0.3,0.4-0.4C98.7,180.3,98.9,180.3,99.1,180.5z"/>
	<path class="st1" d="M69.9,168.7c-0.2,1-0.3,1.9-1.8,1.9c-0.8,0-1.1,1.3-1.6,2.1c-2,3.2-4,6.4-6,9.6c-0.2,0.4-0.5,0.8-0.7,1.2
		c-0.2,0.4-0.5,0.8-1,0.5c-0.6-0.3-0.3-0.6-0.1-1c1.4-2.2,2.6-4.5,4.1-6.7c1.6-2.5,3.2-5,4.6-7.6c0.3-0.6,0.6-1.3,1.2-1.7
		c0.4,0.3,0.5,0.7,0.5,1.2c0,0.1,0,0.3-0.1,0.4c0,0.1-0.1,0.1-0.1,0.2c-0.1,0.1-0.2,0.2-0.1,0.3c0-0.1,0.1-0.2,0.1-0.4
		c0.1-0.2,0.3-0.3,0.5-0.3C69.5,168.5,69.7,168.5,69.9,168.7z"/>
	<path class="st0" d="M118.3,177.3c-0.3-1-0.9-2,1-2.1c1.5-0.1,1-1.2,0.6-2.1c0.2-0.2,0.4-0.3,0.6-0.1c0.4,0.9,1.4,0.9,2.1,1.2
		c0.2,0.1,0.6-0.1,0.8,0.2c0.4,0.4,0.8,0.2,0.9-0.2c0.1-1,0.6-1.2,1.5-1c0.7,0.1,0.9-0.4,0.9-1c0.5-0.4,1.2-0.4,1.7-0.8
		c0.8,1.1,1.2,2.4,1.4,3.8c-0.2,0.2-0.4,0.2-0.6,0.1c-0.4-0.4-0.4-1.4-1.2-1.3c-0.9,0.1-1.7,0.7-2,1.6c-0.2,0.7-0.8,0.2-1.1,0.6
		c-0.5,0.8-0.6,0.3-0.9-0.2c-0.6-0.8-1,0.1-1.5,0.2c-0.2,0.2-0.4,0.3-0.6,0.4c-0.7,0.7,0.4,1.8,0,2.4c-0.5,0.4-0.8-0.3-1-0.5
		c-0.1-0.3-0.1-0.7-0.2-1c-0.2-0.6-0.1-1.5-1-1.6c-0.9,0-0.9,0.8-1.1,1.4C118.5,177.4,118.4,177.4,118.3,177.3z"/>
	<path class="st1" d="M115.7,179.1c0.1,1.4,1.5,2.8-0.2,4.2c-0.1,0-0.1,0.2-0.1,0.3c-0.2,0.4,0.4,1.3-0.4,1.3c-0.7,0-0.4-1-0.6-1.5
		c-0.2-0.5,0.2-1.2-0.7-1.9c0.3,5.3,0.7,10.4,1,15.8c-1.2-1.2-0.8-2.4-1-3.5c-0.3-3-0.5-6-0.7-9.1c0-0.1-0.2-0.2-0.3-0.3
		c0-0.1-0.1-0.1-0.1-0.2c-0.1-0.3,0-0.6,0-1c-0.3-1-0.2-2.1-0.5-3.1c0-0.1,0-0.2,0.1-0.4c0.1-0.7,0.3-1.3,1.2-1.1
		c0.6,0.4,0.4,1.2,1,1.6c0.4-0.1,0.1-0.5,0.3-0.7c0.1-0.2,0.3-0.4,0.4-0.6C115.4,179,115.5,178.9,115.7,179.1z"/>
	<path class="st1" d="M62.4,164.3c-1.4,2.2-3.1,4.1-4.5,6.3c-1.6,2.5-3.8,4.6-5.3,7.1c-0.2,0.3-0.4,0.6-0.7,0.9
		c-0.2,0.2-0.5,0.4-0.9,0.1c-0.3-0.3-0.1-0.6,0.1-0.9c1.6-2.9,3.7-5.4,5.7-8c1.1-1.4,2.2-2.8,3.2-4.3c0.4-0.6,0.9-1.1,1.5-1.4
		C61.8,163.8,62.2,163.8,62.4,164.3z"/>
	<path class="st1" d="M33.7,121.2c-1.3,0.3-2.6,0.7-3.9,1c-0.3,0.1-0.8,0-0.7,0.5c0.1,0.3,0.4,0.5,0.8,0.5c0.7,0,1.5-0.1,2.2-0.2
		l0,0c-1.4,1-3.1,1.1-4.7,1.4c-0.3,0.1-0.6,0-0.8,0.1c-0.4,0.2-1,0.6-1.2,0c-0.2-0.6-0.6-1.4,0.1-2.1c1-1,2.3-1,3.5-1.3
		c0.3-0.1,0.7,0.1,0.8-0.1c1.2-2.2,3.5-1.5,5.4-2.1c0.3-0.1,0.5-0.2,0.8-0.4c0.1,0.1,0.2,0.2,0.2,0.3c0,0.3-0.2,0.6-0.3,0.9
		c-0.1,0.1-0.1,0.2-0.2,0.3C35.1,120.7,34.3,120.8,33.7,121.2z"/>
	<path class="st1" d="M183.3,106.5c2.8-0.3,5.5-0.2,8.3-0.3c1.7,0,3.2,0.7,4.9,0.5c0.4,0,0.8,0.2,1,0.6c-0.5,0.7-1.3,0.3-1.9,0.3
		c-2.8,0.1-5.6,0-8.4-0.1c-1.1,0-1.9,0.9-3.1,0.6c-1.5-0.3-3.1,0.2-4.7-0.3c0.4-1.2,1.6-0.8,2.4-1.2
		C182.3,106.5,182.8,106.7,183.3,106.5z"/>
	<path class="st1" d="M86.2,34c-0.5-1.7-1-3.4-1.5-5.1c-0.1-0.3-0.4-0.6,0.1-0.8c0.5-0.2,0.6,0.2,0.7,0.6c0.3,1.1,0.7,2.2,1.1,3.3
		c0.2,0.5,0.3,1.2,1.1,0.9c0.8-0.3,0.5,0.8,1.3,1c-1.1-4.9-2.2-9.6-3.3-14.3c0.1,0,0.2-0.1,0.4-0.1c1.4,2.4,1.2,5.3,2.3,7.9
		c1,2.4,1.3,5.1,1.7,7.7c-0.1,0.4,0,0.6-0.3,0.6c-0.4-0.2-0.5,0.7-0.6,0.3c0,0.3-0.2-0.5-0.4-0.2c-0.2,0.1-0.4-0.2-0.5-0.4
		c-0.3-0.3-0.5-0.6-0.5-1c0.1-1.4-0.7-0.7-1.3-0.5C86.4,34.1,86.3,34.1,86.2,34z"/>
	<path class="st1" d="M100.9,179.7c-0.1,3.2-0.2,6.4-0.4,9.6c-0.1,2.2-0.6,4.4-0.5,6.6c0,0.2,0,0.4-0.1,0.5c-0.2,0.3,0.1,1-0.6,0.9
		c-0.7-0.1-0.9-0.8-0.8-1.2c0.3-1.1,0.1-2.2,0.2-3.3c0.3-3.3,0.7-6.5,0.9-9.8c0.1-1.2,0.1-2.4,0.4-3.6
		C100.5,179.1,100.7,179.4,100.9,179.7z"/>
	<path class="st1" d="M28.7,105.5c0.3,0.9-0.8,0.8-1,1.3c-1.2,0.5-2.5,0.2-3.7,0.2c-2.6,0.1-5.2,0-7.8,0c-0.6,0-1.4,0.1-1.3-0.9
		c0.1-0.8,0.7-0.8,1.4-0.8c3.9,0,7.8,0,11.7,0C28.3,105.4,28.5,105.5,28.7,105.5z"/>
	<path class="st0" d="M36,118.5l-0.1,0c-0.1-1.3-0.3-2.6-0.4-3.8c0-0.7-0.2-0.8-0.9-0.7c-2.9,0.4-5.9,0.6-8.9,0.9
		c-0.3-0.2-0.4-0.4,0-0.7c3-0.3,6-0.6,9-0.9c0.6-0.1,0.8-0.3,0.8-0.9c0-0.4-0.1-0.7-0.1-1.1c0-1-0.4-1.4-1.5-1.3
		c-2.7,0.2-5.4,0.3-8.1,0.4c-0.3-0.2,0-0.4,0-0.7c2.4-0.1,4.7-0.3,7.1-0.3c1.3,0,2.6-0.5,3.8-0.1c0.2,0.1,0.2,0.2,0.1,0.4
		c-0.7,0.1-1.2,0.2-0.9,1.2c0.2,0.7,0.3,1.6,0.1,2.3c-0.1,0.9,0.3,1.5,0.9,2c-0.8,0.5-0.7,1.3-0.6,2.1c0,0.3,0.2,0.5,0.3,0.8
		C36.4,118.4,36.3,118.6,36,118.5z"/>
	<path class="st0" d="M150.3,53.3c1.5,0.8,1.8-0.6,2.5-1.4c0.5-0.6,0.8-1.3,1.6-1.7c0.1,0,0.2,0,0.2,0.1c0,0.1,0.1,0.2,0.1,0.3
		c0,0.1,0.5,0,0.4,0.1c0,0.1-0.5,0.6-0.5,0.6c-0.5,0.8-0.8,1.4-1.4,2c-0.9,1-2,1.9-2.8,3.1c-0.4,0.6-0.3,1.3,0.2,1.4
		c0.8,0.2,1.2,0.8,1.8,1.1c0.7,0.3,1.2,0.3,1.9-0.2c0.7-0.5,1-1.8,2.3-1.4c0.1,0.1,0.1,0.1,0.1,0.2c0,0.1,0,0.1,0,0.1
		c-0.1,0.2-0.2,0.4-0.4,0.6c-0.2,0.6-1,0.7-1,1.4c-0.5,0.6-0.7,1.7-2,1.1c-0.2-0.1-0.8,0.6-1.4,0.9c1.1-1.5,0.2-2.6-0.9-2.9
		c-0.7-0.2-1.1-0.6-1.6-0.8c-1.3-0.5-0.4-1.3-0.2-1.4c0.9-0.6,0.7-1.3,0.4-2.1c0-0.1,0-0.1,0-0.2c0-0.1,0-0.2,0.1-0.4
		C150,53.6,150.1,53.4,150.3,53.3z"/>
	<path class="st0" d="M105,31L105,31c0.3-0.6,0.4-1.3,0.8-1.9c0.5,2,0.2,4,0.3,6c0,1.3,0,2.7,0,4c0,0.5,0,1,0.8,1.1
		c2.6,0.2,5.2,0.1,7.8,0.6c0.3,0.1,0.7,0,0.8-0.4c0.1,0,0.2,0.1,0.3,0.2c-0.1,1.7-1.7,0.7-1.9,0.7c-1.7-0.5-2.3,0.1-2.1,1.8
		c0,0.3-0.1,0.6-0.2,1c-0.1,0.5-0.5,0.4-0.8,0.4c-0.5,0-0.2-0.4-0.3-0.6c-0.2-0.7,0.3-1.3,0.1-1.9c-0.1-0.4,0.4-1.1-0.5-1
		c-0.5,0.1-1.1,0-1.3,0.8c-0.1,0.5,0.5,1.5-0.4,1.5c-0.5,0-0.3-1-0.3-1.5c0.1-1.1-0.6-1.1-1.2-1c-0.9,0.1-1.1-0.2-1.1-1.1
		c0-2.6-0.1-5.2-0.1-7.9C105.5,31.4,105.5,31,105,31z"/>
	<path class="st0" d="M100.9,179.7c-0.3-0.1-0.6-0.2-0.8-0.2c-0.1-0.7,0.2-1.3,0-2c-0.1-0.2-0.1-0.5-0.4-0.5c-0.4,0-0.2,0.3-0.3,0.5
		c-0.2,1-0.4,2-0.4,3.1c-0.2,0-0.4,0-0.6,0c-0.4-0.8,0.2-1.7,0-2.5c0-0.1,0.1-0.2,0.2-0.3c0,0-0.1-0.1-0.1-0.1c0,0.1,0,0.2-0.1,0.3
		c0,1-0.2,2-0.3,2.9l0,0c-0.1,0.2-0.3,0.4-0.5,0.4c-0.1,0-0.3,0-0.4,0c-0.3-1.2,0.5-2.3,0.3-3.5c-0.1-0.4,0.5-1.1-0.2-1.3
		c-0.8-0.2-0.8,0.6-0.9,1.2c-0.1,0.1-0.2,0.1-0.3,0c-0.2,0.1,0-0.7-0.4-0.2c-0.2,0.1-0.3,0.1-0.5,0c0.1-0.7-0.3-0.9-0.8-1
		c-1.7-0.6-1.7-0.7-1.1-2.4c0.2,0,0.4,0,0.5,0.1c1.3,1.2,2.9,1.3,4.5,1.4c0.2,0,0.5-0.1,0.7-0.1c0.1-0.2,0.3-0.2,0.4-0.1
		c0.4,0.6,0.7,1.1,1.4,0.3c0.4-0.5,1,0.6,1.6,0c0.1,0.1,0.1,0.2,0.1,0.4C101.3,177.1,101.2,178.4,100.9,179.7z"/>
	<path class="st0" d="M183.3,106.5c-0.9,0.5-1.9,0.7-2.9,1c-0.4,0.1-0.8,0-1,0.5c-0.6,0.4-1.4-0.4-1.9,0.2c-0.1,0.1-0.2,0.1-0.3,0.1
		c-0.1,0.2-0.3,0.4-0.4,0.6c-0.2,0.2-0.4,0.2-0.7,0.1c-0.3-0.1-0.5-0.2-0.8-0.3c-0.1-0.1-0.2-0.2-0.2-0.3c-0.1-0.4,0-0.8,0.3-1.1
		c0.3-0.1,0.8,0,0.9-0.2c0.3-0.4-0.3-0.5-0.4-0.7c-0.8-0.9-1.2-2.2-2.7-2.3c-0.1-0.1-0.1-0.2,0-0.3c0.5-0.4,1.2-0.4,1.2-1.4
		c0.1-1.2,1.3-1.4,2.3-1.5c0.6,0,1.1,0,1.7,0c0.1,0.2,0.1,0.3,0,0.5c-0.5,0.2-1.1,0.3-1.6,0.2c-0.6-0.1-1.3,0.1-1.2,0.7
		c0,0.5,0.8,0.5,1.3,0.4c0.6,0,1.3-0.2,1.9,0c0,0.1-0.2,0.2-0.1,0.4c-0.2,0.3-0.4,0.3-0.7,0.2c-1-0.2-1.7,0-2.2,1
		c-0.1,0-0.2,0.1-0.2,0.2c0.7,0.4,1.6,0.6,1.4,1.7c0.2,0.4,0.5,0.7,1,0.2C179.7,106.2,181.5,106.3,183.3,106.5z"/>
	<path class="st1" d="M179.6,90c-0.4-0.5-1.2,0.1-1.5-0.6c4.4-1,8.6-2.3,13.1-3.2c1-0.2,2-0.3,3-0.7c0.4-0.2,0.9-0.2,1,0.4
		c0.1,0.6-0.3,0.7-0.8,0.8c-2.7,0.3-5.3,1.2-7.9,1.8C184.2,89,182,89.8,179.6,90z"/>
	<path class="st1" d="M180.1,121c-0.8-0.8-1.9-0.5-2.8-1.1c0.7-0.7,1.4-0.2,2.1-0.1c0.8,0.1-0.1-0.3,0.1-0.4
		c0.1-0.3,0.4-0.3,0.6-0.4c2.2-0.2,4.3,0.4,6.3,0.8c2.9,0.6,5.7,1.1,8.6,1.6c0.4,0.1,0.9,0,0.8,0.5c-0.1,0.6-0.6,0.2-0.9,0.1
		c-2.4-0.4-4.7-0.9-7.1-1.3c-0.6-0.1-0.8,0.1-0.6,0.7c0,0.1-0.1,0.2-0.2,0.3c-0.1,0-0.2,0.1-0.4,0.1l-0.1,0.1l-0.1,0l-0.1,0
		c-0.5-0.5-1.1-0.3-1.7-0.3C183.3,121.4,181.7,120.7,180.1,121L180.1,121z"/>
	<path class="st1" d="M76.1,175.5c-1.5,4.2-3.7,8.2-5.3,12.3c-0.1,0.3-0.3,0.7-0.4,1c-0.2,0.5-0.6,1-1.1,0.8
		c-0.7-0.2-0.4-0.8-0.2-1.3c1.3-2.8,2.5-5.5,3.7-8.3c0.7-1.6,1.5-3.1,2.4-4.6C75.4,175.1,75.7,175,76.1,175.5z"/>
	<path class="st1" d="M89.7,177.5c-0.5,2.3-0.9,4.7-1.6,6.9c-0.9,2.8-1.6,5.7-2.6,8.5c-0.7-0.1-0.4-0.6-0.4-1c0.5-2.3,1-4.7,1.6-7
		c0.7-2.7,1.4-5.4,1.7-8.1c0.3-0.4,0.7-0.5,1.1-0.3C89.9,176.8,90,177.1,89.7,177.5z"/>
	<path class="st0" d="M55.5,153.4c0.2-0.6,0.6-1,1-1.3c0.5-0.5,1.4-0.8,1.8-0.2c1,1.3,1.5,0.3,2.2-0.2c0.9-0.7,1.5-1.7,2.9-2.3
		c-2.9,4-5.4,7.7-9.2,10.4c0.1-1,0.8-1.6,1.5-2.1c1-0.8,1.8-1.8,2.7-2.7c0.3-0.3,0.4-0.6,0-1c-0.4-0.4-0.7-0.2-1,0.1
		c-0.4,0.3-0.8,0.7-1.2,1c-0.5,0.3-0.8-0.1-1-0.4c0-0.8,1-0.8,1.1-1.2c0.3-0.2,0.1-0.3,0.2-0.2c-0.3,0.2-0.6,0.6-1,0.6
		c-0.1-0.1-0.1-0.1-0.1-0.2C55.5,153.5,55.5,153.4,55.5,153.4z"/>
	<path class="st0" d="M180.2,119.1c-0.2,0.1-0.3,0.2-0.5,0.3c-1,0.7-2.1-0.1-3.1,0.4c-0.7,0.2-1.2,0.1-1.3-0.7
		c-0.1-0.8-0.7-1-1.3-1.1c-0.1-0.1-0.2-0.3-0.1-0.4c0.5-0.1,1.1,0.4,1.2-0.9c0.1-1,0.4-2.2,0.6-3.2c0.2-0.9-0.1-1-0.8-1
		c-0.1-0.1-0.1-0.3,0-0.4c0.4-0.1,0.9,0,1.3-0.3c-0.1-0.6-0.8-0.6-1-1.1c-0.1-0.2-0.1-0.3,0.1-0.5c0.3,0,0.6,0,0.9,0
		c0.3,0,0.5,0.1,0.7,0.4c0.8,0.3,0.9,1.2,1.6,1.8c-1.4,0.2-1.8,0.7-1.2,2c0.3,0.6-0.1,1.9-0.6,2.4c-1,1.1,0,1.3,0.6,1.5
		C178.1,118.7,179.2,118.9,180.2,119.1z"/>
	<path class="st1" d="M34,135.1c1.3,0.2,2.4-0.7,3.6-0.9c0.6-0.1,1.2-0.3,1.8-0.3c-2.4,1.1-4.9,2.1-7.3,3.1
		c-1.2,0.5-2.4,0.9-3.5,1.5c-1.4,0.7-3.1,0.4-4.5,1.1c-0.7,0.4-1.4,1-2.5,0.5c0.9-1.1,2.2-1.1,3.2-1.6c2.4-1.1,4.8-1.9,7.2-2.9
		C32.7,135.4,33.5,135.6,34,135.1z"/>
	<path class="st0" d="M155.5,59.6c-0.2-0.2-1.2-0.3-0.2-0.8c0.4-0.2,0.7-0.6,1-0.8c0-0.3,0.5-0.3,0.5-0.7l0,0
		c0.2-0.2,0.4-0.4,0.4-0.7l0.1,0c0.6,0.5,1.6,0.7,1.8,1.7c0.5-0.4,0.9-0.7,1.2-1c0.2,0.1,0.4,0.2,0.3,0.5c-0.4,0.5-1.2,0.9-0.6,1.7
		c0.4,0.5,0.6,1.5,1.7,1c0,0,0.1,0.1,0.1,0.1c0.6,0.1,0.9-0.3,1.3-0.8c0.2-0.2,0.4-0.3,0.7-0.2c1.4-0.7,2.3-2.1,3.7-2.8
		c0.2,0.1,0.3,0.3,0.1,0.6c-0.9,1-2.1,1.5-3,2.5c-0.6,0.7-1.7,0.9-1,2.1l0,0c-0.7,0.7-1.8,0.3-2.6,0.7c-0.3,0.2-0.6-0.2-0.5-0.4
		c0.8-1.7-1.4-1.8-1.5-2.9c0-0.2-0.4,0.1-0.6,0.2c-0.3,0.3-0.7,0.7-1.2,0.8c-0.2-0.1-0.2-0.3-0.1-0.5c0.3-0.6,0.8-1.1,0.8-1.9
		C156.9,58.2,156.4,59.2,155.5,59.6z"/>
	<path class="st1" d="M178.5,124.1c0-0.3-0.2-0.5-0.4-0.7c-0.1-0.2-0.1-0.4-0.2-0.6c0-0.4,0-0.7-0.3-1c-0.2-0.2-0.3-0.6,0.2-0.7
		c0.8,0.3,1.5,0.1,2.3,0l0,0c1,0.9,2.3,0.7,3.5,1c2.4,0.6,4.9,1,7.3,1.8c-3.8-0.2-7.5-1.4-11.4-1.9c0.7,1.8,1.6,2.8,3.5,2.7
		c0.3,0,0.8,0.1,1.1,0.9C182,125.5,180.2,124.8,178.5,124.1z"/>
	<path class="st1" d="M111.4,180.3c0.5,0.8,0.2,1.7,0.5,2.5c0.9,1.1,0.2,2.3,0.4,3.4c0.1,0.4,0,0.7,0.3,1c0.2,2.4,0.1,4.7,0,7.1
		c0,0.9,0.4,1.8-0.1,2.8c-1.2-0.5-0.6-1.6-0.7-2.3c-0.2-4.4-0.6-8.8-0.9-13.3c0-0.5,0-0.8,0.2-1.2
		C111.1,180.2,111.2,180.2,111.4,180.3z"/>
	<path class="st1" d="M121.8,176.2c0.2,0,0.5,0,0.7,0c1.3,5.1,1.9,10.3,3.3,15.3c-0.2,0-0.4,0.1-0.6,0.1c-0.9-3.7-1.8-7.4-2.7-11.1
		c-0.2,0.8-0.6,1.6-0.1,2.3c0.2,0.4,0.2,0.8-0.3,0.9c-0.5,0.1-0.4-0.4-0.5-0.7c-0.5-1.5-0.6-3-0.8-4.6c0.2,0.1,0.4,0.3,0.6,0.4
		c0.5-0.2,0.4,0.3,0.6,0.4c0,0,0,0,0,0c-0.1-0.1-0.1-0.2-0.1-0.3C121.9,178.1,120.9,177.2,121.8,176.2z"/>
	<path class="st1" d="M64.3,29.7c0-0.5-0.1-1-0.3-1.5c-0.2-0.3-0.5-0.6,0-0.8c0.5-0.2,0.5,0.3,0.6,0.6c1.1,2.1,2.2,4.2,3.3,6.3
		c0.2,0.4,0.4,1,1.1,1.1c-0.2-1.6-1.3-2.7-1.8-4.1c-0.5-1.1-1.1-2.3-1.6-3.4c-0.1-0.3-0.2-0.6,0.1-0.7c0.3-0.1,0.5,0.2,0.6,0.4
		c0.5,1.1,1.2,2.2,1.6,3.4c0.7,1.9,2.2,3.3,2.6,5.3c-0.2,0.3-0.5,0.2-0.8,0.1c-0.5-0.1-0.5,0.4-0.8,0.6c-0.1,0.1-0.3,0.1-0.4,0.1
		c-1.2-0.8-1.5-2.2-2.2-3.4c-0.8-1.2-1-2.6-2-3.7C64.4,29.8,64.4,29.7,64.3,29.7z"/>
	<path class="st1" d="M79.9,40.6c0.6,0.4,0.7,1,0.6,1.8c-0.7-0.3-1.3-0.6-1.5-1.4c-0.6-2.5-1.7-4.7-2.7-7c-0.7-1.7-1.4-3.5-2.1-5.3
		c-0.7-1.6-1.4-3.3-2-4.9c-0.1-0.3-0.3-0.7-0.4-1c-0.1-0.2-0.1-0.5,0.2-0.6c0.4-0.1,0.5,0.1,0.6,0.4c1,3.2,2.5,6.2,3.7,9.4
		c0.8,2.1,1.5,4.2,2.6,6.2C79.2,39,79.1,40,79.9,40.6z"/>
	<path class="st1" d="M41.5,150.6c0.2,0.2,0.3,0.4,0.5,0.6c-0.6,1.5-2.2,1.8-3.4,2.6c-1.9,1.4-3.8,2.8-5.8,4.1
		c-0.2,0.1-0.5,0.3-0.7,0.4c-0.3,0.3-0.7,0.4-0.9-0.1c-0.3-0.4,0-0.7,0.3-1c3.2-2.2,6.5-4.5,9.8-6.7
		C41.3,150.5,41.4,150.6,41.5,150.6z"/>
	<path class="st0" d="M40.5,122.5c0,0,0.1-0.1,0.1-0.1c0.4-0.4,1.6,0.1,1.4-0.8c-0.3-1-1.1,0.1-1.6-0.1c-0.2-0.1-0.4-0.3-0.3-0.6
		c0.5-0.2,1.1-0.2,1.6-0.4c0.5-0.2,1.4-0.5,1.2,0.8c-0.1,0.6,0.4,1.1,1.3,1c-0.3,0.6-1,0.8-0.7,1.6c0.2,0.6-0.6,0.6-1,0.8
		c-3,1-6,2-9.1,2.6c-0.2-0.2-0.2-0.3-0.1-0.5c1.5-0.8,3.2-1,4.8-1.5c1.2-0.4,2.3-0.7,3.5-1c0.5-0.1,1-0.2,0.8-0.9
		c-0.2-0.9-0.8-0.2-1.1-0.3c-0.1,0-0.3,0-0.4,0C40.6,122.9,40.5,122.8,40.5,122.5z"/>
	<path class="st0" d="M163.8,64.2c0.1,0.1,0.3,0.2,0.4,0.4c0.3,0.2,0.6,0.2,0.9,0.1c0.2,0.1,0.3,0.2,0.5,0.2c-0.2,0.5-0.8,0.6-1.2,1
		c-0.7,0.7-0.4,1.1,0.4,1.6c0.9,0.5,4.3-1.2,5.2-1.6c0,1-4.6,2.5-3.8,3.8c0.4,0.6,1-0.1,1.6,0c0.1,0,0.2,0,0.2,0.1
		c-0.2,0.7-1.3,0.4-1.3,1.2c0.1,0.3,0.7,0,0.6,0.5c-0.5,0.4-0.9,1.4-1.3-0.1c-0.2-0.6-0.9-1.4-1.8-0.9c-0.7,0.3-1.3,0.6-2,1
		c-0.4,0.1-0.5-0.1-0.4-0.5c0.6-0.5,1.2-0.9,1.8-1.3c0.6-0.4,0.9-0.7,0.5-1.5c-0.5-1-1-0.5-1.8-0.2c0.3-0.9,1.1-1.4,0.7-2.3
		C162.6,64.8,162.7,64.6,163.8,64.2z"/>
	<path class="st1" d="M129.2,175.2c0.2,0,0.4,0,0.6-0.1c1.7,3.9,2.8,8.1,4.4,12.1c0.3,0.7,0.4,1.6-0.2,2.4c-0.7-1.8-1.3-3.7-2-5.5
		c-0.9-2.6-1.8-5.1-2.7-7.7C129.2,176,129.1,175.6,129.2,175.2z"/>
	<path class="st0" d="M115.7,40.6c-0.1-0.1-0.2-0.1-0.3-0.2c0.6-3.6,1.1-7.2,1.7-10.9c0.2-0.1,0.3-0.1,0.5,0
		c-0.3,0.6-0.2,1.3-0.2,1.9c-0.7,1.3,0-2.8,0.2-1.7c0.6-0.3,0.3,3,0,1.8c0.1-0.1,0.3-0.3,0.4-0.4c0.4,0,0.3,0.2,0.3,0.5
		c-0.2,1.1-0.3,2.1-0.5,3.2c-0.2,0.7,0.1,1.3,0.6,1.3c1.2,0.2,2.3,1,3.7,0.8c0.9-0.1,1.1,0.6,1.1,1.5c-0.7-0.3-1.2-0.9-2-0.4
		c-0.3,0.2-0.5-0.2-0.5-0.5c-0.1-0.5-0.4-0.5-0.8-0.6c-3-0.5-3.6-0.8-3.8,2.5C116,39.9,116,40.3,115.7,40.6z"/>
	<path class="st0" d="M61.8,54.2c0-0.2,0-0.5,0.3-0.6c0.6,0.8,1.5,1.4,1.8,2.3c0.4,1.3-1.3,1-1.8,1.7c-1.1,1.5-2.8,2.4-3.8,4.1
		c-0.5,0.7-1.5,1.3-2.1,2.1c-0.4,0.5-0.8,0.4-1.2,0c-0.5-0.4-1.2-0.6-1.5-1.3c0.2-0.2,0.4-0.2,0.6-0.1c0.3,0.2,0.6,0.3,0.8,0.5
		c0.8,1,1.2,0.7,1.4-0.4c0.1-0.6,0.7-0.6,1.1-1c1.3-1.2,2.6-2.5,3.9-3.8c0.5-0.5,0.1-0.9-0.1-1.2c-0.7-0.9-1.5-1.7-2.2-2.5
		c0-0.2,0.1-0.3,0.3-0.4c0.8,0.9,1.7,1.7,2.5,2.6c0.3,0.3,0.4,0.7,0.9,0.3c0.3-0.3,0.6-0.5,0.3-1C62.6,55.1,62.3,54.6,61.8,54.2z"/>
	<path class="st1" d="M158.4,45.7c1.1-2,2.7-3.6,4.2-5.3c0.4-0.5,0.8-1.2,1.5-1.4c0.2,0.2,0.3,0.4,0.1,0.6c0,0,0.1,0,0.1,0
		c0.3-0.6,0.7-1.1,1.2-1.4c0.3-0.2,0.7-0.5,0.8,0.2c-2.2,2.7-4.6,5.4-7,8C158.7,46.6,158.8,45.8,158.4,45.7z"/>
	<path class="st1" d="M154.5,161.8c3.2,3.2,6,6.7,8.9,10.2c-0.5,0.3-0.8,0.1-0.9-0.1c-1.8-2.5-4-4.6-6-6.8c-0.4-0.4-0.5-1.1-1.4-0.7
		c-0.4,0.2-0.7-0.6-1-0.9c-0.4-0.4-0.7-0.9-1.1-1.4c0-0.2,0.2-0.3,0.4-0.3c0.1,0,0.2,0,0.3,0c0.2,0,0-0.2,0.5-0.1
		C154.2,161.7,154.4,161.7,154.5,161.8z"/>
	<path class="st1" d="M70.4,39c0.1,0.4-0.5,0.7-0.9,1c-2.3-4.3-4.6-8.6-7-12.9c-0.1-0.2-0.3-0.4-0.1-0.6c0.3-0.2,0.5-0.1,0.7,0.2
		c0.3,0.5,0.4,1.2,1.2,1.2l0,0c1.7,2.4,3.2,4.8,4.7,7.4c0.2,0.4,0,1.2,0.3,1.5c0.1,0.1,0.2,0.2,0.2,0.4C69.7,37.7,70.6,38.4,70.4,39
		z"/>
	<path class="st0" d="M36,118.5c0.2-0.1,0.4-0.2,0.5-0.3c0.2,0,0.3,0.1,0.5,0.1c0.1,0,0.2-0.1,0.3,0c1.2-0.4,2.4-0.7,3.7-0.8
		c0.4,0,1-0.2,0.9,0.5c-0.1,0.4,0.2,1.2-0.7,1.3c-0.9,0.1-1.7,0.4-2.6,0.5c-1.7,0.2-3,1.5-4.8,1.4c0.2-1,1.3-0.7,1.7-1.3
		c0.3,0.1,0.6,0,0.9,0c-0.2-0.1-0.6,0.2-0.8-0.1C35.8,119.3,36.1,119,36,118.5z"/>
	<path class="st1" d="M40.2,72.6C40.1,72.7,40,72.8,40,73c-1.6-0.2-2.9-1.2-4.3-1.9c-2.8-1.6-5.7-2.9-8.6-4.4
		c-0.5-0.2-0.8-0.8-1.4-0.8c-0.4,0-0.8-0.1-0.6-0.5c0.2-0.4,0.6-0.1,0.9,0c1.3,0.6,2.5,1.3,3.8,1.9C33.2,69,36.8,70.6,40.2,72.6z"/>
	<path class="st0" d="M115.7,179.1c-0.2,0-0.4-0.1-0.8,0.7c-0.3,0,0.1,1-0.6,0.5c-1-0.7-0.8-0.3-0.8-1.4c-0.7,0-0.9,0.6-1.3,1
		c0-1-0.1-1.9-0.1-2.9c0-0.9,1.2-1.7,2.5-1.4c1.9,0.5,1.3-0.7,1.4-1.6c0.2-0.3,0.4-0.3,0.7-0.1c0.1,0.4,0.1,0.9,0.3,1.3
		c0.2,0.4,0.2,0.8-0.2,0.9c-1.3,0.4-1.4,1.3-1.1,2.4C115.7,178.6,115.7,178.8,115.7,179.1z"/>
	<path class="st1" d="M90.8,179.6c-0.3,5.4-2,10.6-3,15.8c-0.4-0.9-0.3-1.6,0.2-3.8c0.6-2.8,1.2-5.7,1.8-8.6
		c0.2-1.2-0.2-2.6,0.5-3.7C90.6,179.3,90.8,179.4,90.8,179.6z"/>
	<path class="st1" d="M97.2,31.8c-0.6-5.3-1.6-10.6-1.8-16.3c1,1.2,0.9,2.3,1,3.3c0.6,4.1,1,8.1,1.5,12.2c0,0.3,0,0.7-0.1,1
		C97.5,32.1,97.4,31.8,97.2,31.8z"/>
	<path class="st0" d="M147.2,47c-0.2,0.2-0.3,0.4-0.5,0.7c-0.1,0.1-0.2,0-0.2-0.1c0-0.2,0.1-0.5-0.1-0.7c-0.3-0.3-0.5,0.1-0.6,0.3
		c-0.7,0.8-1.3,0.7-1.8-0.2c-0.4-0.9-1.7-0.8-2.1-1.8l0,0c0.5,0,0.7-0.6,1.2-0.7c0,0.2,0.1,0.3,0,0.4c-0.4,0.8,0.4,1,0.8,1.2
		c0.5,0.3,0.5-0.4,0.7-0.6c1.7-2.5,3.1-5.1,5.1-7.5l0.1,0l0,0.1c-0.3,1.5-1.6,2.5-1.9,4c0,0.1,0,0.1,0,0.2c-0.1,0.2-0.2,0.4-0.2,0.7
		c0,0.1-0.1,0.2-0.2,0.3c-0.2,0.2-0.3,0.3-0.5,0.5c-0.1,0.1-0.1,0.2-0.2,0.3c-0.3,0.5-0.6,0.3-0.6,0.5c0,0-0.6,1.2-0.1,1
		c0.1,0-0.1,0,0,0c0.2,0,0.4,0.1,0.5,0.2c0.2,0.2,0.3,0.4,0.4,0.7C147.3,46.6,147.3,46.8,147.2,47z"/>
	<path class="st1" d="M136.3,173.4c0.2,0.5,0.2,0.7-0.5,0.8c-1.3,0.2-1.5,0.8-1,2c1.2,2.6,2.1,5.3,3,8.3c-1.1-0.9-1.2-2-1.6-2.9
		c-1-2.3-1.8-4.5-2.7-6.8c-0.1-0.2,0-0.5,0-0.7c0-0.4,0.1-0.7,0.5-0.8c0.6,0.3,0.6-1.1,1.3-0.6c0.1,0.1,0.2,0.1,0.3,0.2
		C135.8,173.1,136.1,173.1,136.3,173.4z"/>
	<path class="st1" d="M36.7,127.3c-0.8,1.3-2.1,1.2-3.2,1.5c-4.4,1.4-8.9,2.4-13.2,4.1c-0.4,0.1-1,0.4-1.1-0.1
		c-0.2-0.6,0.5-0.5,0.9-0.6c2.9-0.9,5.7-1.9,8.7-2.7C31.4,128.8,33.9,127.7,36.7,127.3z"/>
	<path class="st0" d="M89.4,35.3c0.2-0.1,0.5-0.1,0.7-0.2c0,1.5,1,1.5,2,1.5c0.7,0,1-0.6,1.7-0.6c1.1-0.1-0.1-1,0.6-1.4
		c0.5,0.4,0.6,1.3,1.4,1.5c0.7,0.1,1.3,0.5,2,0.2c-0.5,0.7-1,0.9-1.8,0.6c-0.8-0.3-1.8-0.5-2.2,0.7c-0.1,0.2-0.3,0.4-0.5,0.3
		c-0.8-0.3-1.6-1.2-2.4,0.2c-0.3,0.5-2.3-0.7-2.4-1.5c-0.1-0.4-0.1-0.7-0.1-1.1c0.1,0,0.3,0,0.4,0C89,35.6,89.3,36.2,89.4,35.3z"/>
	<path class="st1" d="M31.4,127.8c-2,0.9-4.2,1.5-6.3,2.1c-1.8,0.5-3.6,1-5.4,1.6c-0.5,0.1-0.9,0.2-1-0.3c-0.1-0.5,0.5-0.4,0.8-0.5
		c4-1.4,8.1-2.5,12.2-3.5C31.9,127.4,31.6,127.6,31.4,127.8z"/>
	<path class="st1" d="M175.8,86.5c2,0.2,3.6-1.1,5.4-1.3c1.3-0.2,2.5-0.9,3.9-0.6c-3.8,1.8-7.9,2.9-12,3.8c-0.2-0.5,0.1-0.9,0.4-1.3
		C174.3,86.6,175.1,86.9,175.8,86.5z"/>
	<path class="st1" d="M105.1,27.8c-0.2-3,0.1-5.9,0.1-8.9c0-1.2-0.2-2.5,0.4-3.7c0.5,4,0.4,7.9,0.3,11.9
		C105.9,27.6,105.7,28.1,105.1,27.8z"/>
	<path class="st1" d="M64.6,169.7c-1.6,2.4-3.2,4.9-4.7,7.3c-0.6,0.9-1.1,1.8-1.8,2.7c-0.2,0.2-0.2,1.1-0.8,0.6
		c-0.5-0.4,0-0.7,0.2-1.1c2.1-2.8,3.9-5.8,5.7-8.8c0.2-0.4,0.5-0.8,0.9-1C64.3,169.4,64.5,169.5,64.6,169.7z"/>
	<path class="st0" d="M151.8,155.3c1,0.3,1.6,1.2,2.3,2c0.2,0.2,0.3,0.6,0.6,0.4c0.3-0.1,0.1-0.5,0.1-0.7c1-1.9-1.3-2.3-1.6-3.6
		c0-0.1,0.1-0.2,0.2-0.3c1.2,0.9,2,2.2,3.1,3.2c0.2,0.2,0.3,0.6,0.2,0.6c-1.4,0.4-1.4,2.2-2.6,2.7c-0.1,0.1-0.2,0.2-0.3,0.3
		c0,0.1-0.1,0.1-0.1,0.1c-0.5,0.2-1,1.1-1.6,0c1.7-1.5,1.5-3-0.1-4.4C151.9,155.5,151.9,155.4,151.8,155.3L151.8,155.3z"/>
	<path class="st1" d="M74.6,173.2c0.2,0,0.3-0.1,0.5-0.1c-0.3,2-1.5,3.7-2.3,5.5c-0.9,2.2-2.1,4.3-3.2,6.5c-0.2,0.4-0.3,0.8-0.9,0.8
		c0.7-2.6,2.1-4.8,3.1-7.2c0.6-1.5,1.4-2.9,2-4.4C74.1,173.9,74.3,173.5,74.6,173.2z"/>
	<path class="st1" d="M173,63.6c3.1-2,6.3-4.1,9.4-6.1c0.3-0.2,0.5-0.5,0.8,0c0.2,0.4-0.1,0.7-0.5,0.9c-1.2,0.8-2.4,1.6-3.7,2.3
		c-1.8,1-3.5,2.4-5.5,3.2C173.3,64,173,64.1,173,63.6z"/>
	<path class="st1" d="M25.7,109.8c0.6,0.3-0.1,0.4,0,0.7c-0.6,0.4-1.2,0.3-1.8,0.2c-2.6-0.2-5.1,0.3-7.6,0.2c-0.3,0-0.8,0.2-1.2-0.6
		C18.7,109.9,22.2,109.6,25.7,109.8z"/>
	<path class="st1" d="M146.1,170.4c2.2,3.1,3.7,6.6,6,9.6c0.2,0.2,0.2,0.6-0.1,0.7c-0.3,0.1-0.5-0.2-0.6-0.4
		c-0.8-1.2-1.5-2.5-2.3-3.7c-1.1-1.8-2.3-3.6-3.4-5.4C145.4,170.8,145.4,170.5,146.1,170.4z"/>
	<path class="st1" d="M25.5,103.7c0,0.1,0,0.3,0.1,0.4c-3.5,0.2-7,0.1-10.4-0.5c2-0.7,4.1-0.4,6.1-0.2
		C22.7,103.4,24.2,103,25.5,103.7z"/>
	<path class="st1" d="M75.9,180.4c0.1,0.2,0.2,0.3,0.4,0.5c-1,3.4-2.5,6.6-4.2,9.8c-0.1-1.5,0.6-2.7,1.2-4
		C74.1,184.6,74.6,182.3,75.9,180.4z"/>
	<path class="st0" d="M167,137.6c0,0.2,0,0.4,0,0.6c-0.4,0.1,0.9,0.5,0.6,0.4c0.4,0.3-0.5-0.2-0.2,0.3c0.1,0.8-0.5,0.6-0.9,0.7
		c-1.9-1.1-3.8-2.2-5.7-3.3c-0.3-0.2-0.9-0.3-0.7-0.7c0.3-0.5,0.7-0.2,1.1,0c0.7,0.4,1.4,0.7,2.1,1c0.4,0.2,1,1.4,1.3-0.1
		c0.1-0.3,0.5-0.1,0.7,0.1C165.8,137,166.6,136.9,167,137.6z"/>
	<path class="st1" d="M118.3,177.3c0.1,0,0.2,0,0.3,0c0.8,1.1,0.5,2.4,0.8,3.6c0.5,2,0.9,4,1.1,6.1c0.1,0.4,0.2,0.9-0.4,1.7
		C119.2,184.8,118.8,181.1,118.3,177.3z"/>
	<path class="st1" d="M175.1,65.1c0.5-1.2,1.8-1.3,2.7-1.9c2.1-1.3,4.2-2.8,6.6-3.9c-0.2,1.1-7.2,5.5-9.3,6l-0.1-0.1L175.1,65.1z"/>
	<path class="st0" d="M173.9,90.4c0.4,0.4,0.8,0.8,0.7,1.4c-0.2,0-0.3,0-0.5,0l-0.1,0.1l-0.1-0.1c-1.7,1.2-3.4-0.2-5.2,0.1
		c-0.8,0.2-1.6,0.9-2.9,0.1C168.8,91.6,171.3,90.7,173.9,90.4z"/>
	<path class="st0" d="M111.4,180.3c-0.1,0-0.2,0-0.3,0c-0.7-0.6,0-1.4-0.4-2c-0.2-0.3,0.1-1.2-0.6-1c-0.8,0.3-2.2-1-2.3,0.9
		c-0.1,0.1-0.2,0.1-0.3,0c-0.1-0.2-0.1-0.4-0.2-0.6c-0.3-0.2-0.7-0.4-0.4-0.9c0.1-0.5,0.3-1,0.4-1.5c0.2-0.2,0.5-0.3,0.7-0.1
		c0.1,0.2,0.2,0.5,0.3,0.7c0,0.2,0.1,0.3,0.2,0.2c0.7,0,1-0.3,1-1c0-0.1,0.2-0.3,0.3-0.4c0.2-0.1,0.4,0.1,0.4,0.2
		C110.7,176.7,111.8,178.3,111.4,180.3z"/>
	<path class="st1" d="M78.6,30.3c-0.2,0-0.3,0-0.5,0c-1-1.4-1.2-3.1-1.9-4.6c-0.6-1.3-1-2.7-1.5-4.1c-0.1-0.3-0.3-0.8,0.2-1
		c0.3-0.1,0.6,0.3,0.7,0.6c0.6,2.6,1.8,4.9,2.7,7.4C78.4,29.2,78.7,29.7,78.6,30.3z"/>
	<path class="st0" d="M173.7,87.3c-0.2,0.4-0.4,0.7-0.5,1.1c-2.4,0.9-4.8,1.4-7.3,1.8c1-0.6,2.2-0.8,3.1-1.6
		c1.2-1.1,2.7-1.5,4.3-1.7C173.5,86.9,173.7,87,173.7,87.3z"/>
	<path class="st1" d="M181.4,136.2c2.7,1,5.5,2.1,8.2,3.1c0.2,0.1,0.4,0.1,0.5,0.2c0.3,0.2,0.9,0.1,0.6,0.7c-0.2,0.4-0.6,0.3-1,0.2
		c-1.4-0.6-2.9-1.1-4.3-1.8c-1.4-0.7-3-0.8-4.1-2C181.2,136.5,181.2,136.4,181.4,136.2z"/>
	<path class="st1" d="M25.7,114.3c0,0.2,0,0.5,0,0.7c-3.1,0.7-6.2,0.5-9.3,1c-0.3,0-0.6,0.1-0.7-0.3c-0.1-0.3,0.3-0.4,0.6-0.5
		c1.3-0.2,2.7-0.4,4-0.5C22.1,114.5,23.9,114.4,25.7,114.3z"/>
	<path class="st0" d="M68.8,168.6c-0.1-0.5-0.2-1.1-0.3-1.6c0.1-0.5-0.2-0.7-0.6-0.9c0.1-0.5,0.6-0.7,0.9-1c0.1-0.6,0.5-0.8,1-1
		c0.6-0.2,0.5,0.2,0.5,0.5c0,0.4-0.2,0.7,0,1.1c0,0.1,0.1,0.2,0.1,0.3c0.3,1.9,0.3,2,2.4,1.4c0,0,0.1,0.1,0.1,0.1
		c-0.3,1-0.9,1.4-1.8,0.9c-0.6-0.3-0.9,0-1.3,0.3c-0.1,0-0.3,0.1-0.4,0.1c-0.1,0-0.2-0.1-0.2-0.3l0-0.1c0,0,0,0.1,0,0.1
		C69,168.6,68.9,168.6,68.8,168.6z"/>
	<path class="st1" d="M167.5,57.4c0-0.2-0.1-0.4-0.1-0.6c1.8-1.8,4-3.3,5.9-4.9c0.2-0.2,0.5-0.3,0.7-0.4c0.3-0.2,0.5-1.1,1-0.5
		c0.4,0.4-0.3,0.7-0.6,0.9C172.2,53.8,170,55.8,167.5,57.4z"/>
	<path class="st0" d="M150.4,159.7c0.1,0.1,0.2,0.1,0.3,0.2c0.3,0.4,1,0.4,0.7,1.2c-0.5,1.4-2.1,1.7-3,2.7c-0.9,1-1.1,1.5-0.3,2.6
		c0.5,0.7,1.2,1.2,1.4,2.1c-0.1,0.2-0.3,0.2-0.5,0.1c-0.6-1-1.2-1.9-2-2.8c-0.3-0.3-0.8-0.9-0.3-1.2c1.2-0.8,1.7-2.4,3.2-2.8
		c0.4-0.1,0.7-0.3,0.3-0.6c-0.5-0.4-0.1-0.9-0.2-1.3C150.2,159.7,150.3,159.6,150.4,159.7z"/>
	<path class="st0" d="M150.3,53.3c-0.1,0.2-0.2,0.4-0.3,0.6c0,0.2-0.1,0.3-0.2,0.5l0,0c-1.6-0.2-0.6-1.4-0.6-2
		c0-0.9,0.5-1.8-0.7-2.6c-0.9-0.6-1.5-1.1-2.4,0.2c0.3-0.9-0.8-1.8,0.3-2.4c0,0,0.1,0.1,0.2,0.1c1.1,0.8,2.2,1.8,3.4,2.4
		c0.9,0.5,0.9,1,0.3,1.6C149.7,52.3,150,52.7,150.3,53.3z"/>
	<path class="st1" d="M149.9,37.9c0.4-1.7,1.7-2.8,2.5-4.4c0.6-1.3,1.4-2.5,2.1-3.6c0.2-0.3,0.5-0.7,0.9-0.5c0.5,0.2,0.2,0.7,0,1
		c-1.8,2.5-3.2,5.3-5.3,7.7C150,38,149.9,38,149.9,37.9z"/>
	<path class="st0" d="M62.4,164.3c-0.3-0.1-0.6-0.1-1-0.2c0.2-0.7,1.2-1.4,0.7-2.1c-0.3-0.5-1.1-0.8-1.8-1c-0.4-0.1-1,0.2-1.1-0.6
		c0-0.4-0.3-0.9,0.1-1c0.4-0.1,1.1-0.1,1.5,0.1c0.7,0.4,1.3,0.9,2.2,1.2c0.2,0.1,0.6,1.3,0.2,1.9C62.7,163.1,62.7,163.8,62.4,164.3z
		"/>
	<path class="st0" d="M140.5,169.6c-1.1-1,0.3-2,0-3.1c0-0.2,0.3-0.3,0.6-0.2c0.6,0.1,0.9,0.2,1.5-0.4c0.7-0.7,0.8,0.6,1.1,1.2
		c0.1,0.1,0.1,0.3,0,0.4c-0.2-0.1-0.3-0.1-0.5-0.2c-0.1,1.2-1.9,1.2-1.9,2.6C141,170.1,140.6,170.3,140.5,169.6z"/>
	<path class="st1" d="M53.1,47.4c-2.4-2.2-4.6-4.6-6.4-7.4c2.6,1.9,4.5,4.5,6.6,6.7C53.6,47.2,53.7,47.4,53.1,47.4z"/>
	<path class="st1" d="M82.7,184.7c0.1,0.1,0.2,0.2,0.4,0.3c-0.4,3-1.4,5.9-2.8,8.7C80.5,190.5,81.7,187.6,82.7,184.7z"/>
	<path class="st2" d="M68.9,165.1c-0.1,0.5-0.4,0.9-0.9,1c-0.6-0.5-1-0.1-1.3,0.4c-0.6,1.1-1.2,2.2-2.1,3.1
		c-0.2-0.1-0.3-0.2-0.5-0.3c0.6-1.4,1.6-2.6,2.6-3.7c0.1-0.1,0.1-0.2,0.1-0.2c0-0.2,0-0.4,0.1-0.6c-0.2,0.1-0.1,0.4-0.4,0.4
		c-0.2-0.1-0.4-0.4-0.6-0.2c-0.2,0.2-0.3,0.7-0.7,0.3c-0.2-0.2,0-0.6,0-0.9c0-0.4,0.2-0.5,0.5-0.4c0.5,0.2,0.9-0.3,1.3-0.4
		c0.4-0.1,0.8-0.2,0.8,0.4C67.7,164.8,68.2,165.1,68.9,165.1z"/>
	<path class="st1" d="M36.1,65.9c-1.3-0.1-2.2-1.1-3.3-1.7c-1.9-1.1-3.8-2.2-5.6-3.6c3.3,1.2,6.2,3.1,9.1,5
		C36.3,65.8,36.3,65.9,36.1,65.9z"/>
	<path class="st1" d="M71.8,174.6c0.2,0.1,0.4,0.1,0.6,0.2c-0.4,1.7-1.8,2.9-2.4,4.5c-0.4,1-1,1.9-1.6,2.8c-0.1,0.1-0.2,0.5-0.5,0.3
		c-0.2-0.1-0.2-0.3-0.1-0.5c1.3-2.3,2.1-4.9,3.8-6.9c0.1-0.1,0.1-0.1,0-0.2C71.8,174.7,71.8,174.6,71.8,174.6z"/>
	<path class="st0" d="M173.7,87.3c-0.2-0.1-0.3-0.3-0.5-0.4c1-0.6,0.9-1.3-0.4-2.1c-0.2-0.1-0.5-0.1-0.5-0.4c0-0.6,1-0.1,0.9-0.9
		c-0.2-0.8-0.7-0.3-1.1-0.3c-0.3,0-0.4-0.2-0.4-0.5c0-0.2,0.2-0.2,0.3-0.3c1.2-1,1.8-0.7,2,0.8c0.1,0.9,0.9,1.6,0.7,2.6
		c-0.1,0.6,0.6,0.6,1.1,0.5C175.3,87.3,174.4,87.1,173.7,87.3z"/>
	<path class="st2" d="M53.5,160.3c-0.3,0.9-0.9,1.5-1.6,2.1c-1.3,1.1-2.4,2.5-3.6,3.7c-0.2,0.2-0.4,0.4-0.7,0.2
		c-0.2-0.2-0.1-0.5,0-0.6c1.6-1.7,3.3-3.5,5-5.2c0.1-0.2,0.4-0.2,0.7-0.2l0.1-0.1L53.5,160.3z"/>
	<path class="st0" d="M90.8,179.6c-0.2-0.1-0.3-0.1-0.5-0.2c-0.1-0.5,0.2-0.9,0.2-1.3c0-0.7-0.3-1-0.9-0.6c0-1.1-0.7-0.7-1.3-0.7
		c-0.2,0-0.5,0.1-0.7,0.1c-0.2-0.1-0.2-0.3-0.1-0.5c-0.3-0.6,0.1-1.1,0.4-1.7c0.7,0.3,0.1,0.9,0.5,1.3c0.5,0.2,0.6-0.5,1.1-0.5
		c1.2,0.1,1.9,0.9,1.7,2.1C91.1,178.2,91,178.9,90.8,179.6z"/>
	<path class="st0" d="M136.7,172c0.4-1.5-0.7-2.5-1.1-3.7c-0.2-0.6-0.6-1.2-0.8-1.9c0-0.3-0.2-0.6,0.1-0.8c0.6,1.3,1.3,2.7,1.9,4
		c0.3,0.6,0.4,1.6,1.5,0.7c0.3-0.3,0.5,0.3,0.5,0.6c0.4,0.6,0.1,1.2-0.3,1.7c-0.2,0.1-0.3,0.1-0.5,0.1
		C137.6,172.6,137.2,172.2,136.7,172z"/>
	<path class="st1" d="M61.6,48c-0.3,0.5-0.7,0.9-1.3,1l-0.1,0c0,0-0.1-0.1-0.1-0.1c-0.3-0.5-1-0.9-0.5-1.7c0.2-0.3-0.2-0.4-0.4-0.6
		c-0.8-0.8-1.3-1.7-1.7-2.7C59.2,44.9,60.2,46.6,61.6,48z"/>
	<path class="st1" d="M138.7,172.5c0.1-0.5,0.2-1,0.2-1.5c0.7-0.2,0.4-1.8,1.6-1.3c0.1,0.4,0.5,0.3,0.8,0.3c0.1,0.6,0.5,1.1,0.5,1.8
		c-1.6-0.8-2,1-3.1,1.3c0,0-0.1-0.1-0.1-0.1C138.5,172.8,138.5,172.6,138.7,172.5z"/>
	<path class="st1" d="M30.2,93.9c-0.1,0.1-0.2,0.2-0.3,0.4c-2.3-0.1-4.6-0.3-6.9-1.2c0.9-0.9,1.6-0.2,2.2-0.1
		C26.9,93.2,28.6,93.1,30.2,93.9z"/>
	<path class="st0" d="M70.4,165.7c-0.6,0.4-0.5-0.2-0.5-0.5c-0.1-0.4,0.7-0.8,0-1.2c0.4-1.5,1.7-2.1,3.1-2.7
		C72.4,163,71.4,164.4,70.4,165.7z"/>
	<path class="st0" d="M36,106.7c0-0.3-0.1-0.7,0.3-0.8c0.2,0.2,0.5,0.5,0.8,0.4c2.4-0.4,4.7,0.4,7.1,0c0.2,0,0.5,0.1,0.5,0.5
		C41.8,106.9,38.9,107,36,106.7z"/>
	<path class="st0" d="M53.7,150.5c0.3,0.5,0.8,0.8,1.4,0.8c-0.6,1.5-2.4,1.4-3.3,2.5c-0.2,0.2-0.6,0.2-0.7-0.2
		c-0.1-0.5-0.2-1,0.4-1.4C52.2,151.7,52.9,151.1,53.7,150.5z"/>
	<path class="st2" d="M69.9,34.3c0.2,0.2,0.4,0.2,0.7,0.2c0.9,1.7,1.7,3.4,2.6,5c-0.4,0.2-0.3,1.5-1.1,0.4c-0.9-1-1.1-2.6-2.2-3.5
		c-0.1-0.1-0.1-0.2-0.2-0.4C69.9,35.5,69.3,34.8,69.9,34.3z"/>
	<path class="st1" d="M185.2,99.3c2-0.6,4-0.4,6-0.7c0.3,0,0.6,0.1,0.6,0.4c0,0.5-0.4,0.4-0.7,0.4c-2.2,0.2-4.5,0.4-6.7,0.4
		C184.3,99.2,184.8,99.4,185.2,99.3z"/>
	<path class="st0" d="M175.4,107.3c0,0.4-0.1,0.8-0.1,1.2c-0.1,0.1-0.2,0.2-0.3,0.1c-1.6-0.1-3.3,0.5-4.9-0.7
		C171.9,107.1,173.7,107.4,175.4,107.3z"/>
	<path class="st1" d="M132.4,25.2c-0.8,2.9-1.4,5.8-2.9,8.4c0.6-3,1.5-5.8,2.6-8.6C132.3,25,132.4,25.1,132.4,25.2z"/>
	<path class="st0" d="M154.4,50.2c1-1.3,2-2.6,3.1-3.9c0.2,0,0.3,0.1,0.4,0.3c0.1,0.2,0.1,0.3,0.1,0.5c0,0.2-0.1,0.4,0,0.7
		c-0.9,1.2-1.9,2.3-3.2,3.1c0,0-0.1-0.1-0.1-0.1c0-0.2,0-0.3-0.2-0.4C154.5,50.3,154.4,50.3,154.4,50.2z"/>
	<path class="st1" d="M117.5,29.5c-0.2,0-0.3,0-0.5,0c-0.1-2.4,0.6-4.6,0.8-6.9c0-0.2,0.2-0.5,0.4-0.5c0.6,0.1,0.1,0.7,0.4,1
		C118.5,25.3,118.5,27.5,117.5,29.5L117.5,29.5z"/>
	<path class="st2" d="M157.2,56.5L157.2,56.5c-0.2-0.3-0.1-0.6,0.1-0.8c1.5-1.5,3.1-3,4.9-4.3C160.8,53.4,159.2,55.1,157.2,56.5z"/>
	<path class="st0" d="M55.5,153.4c0,0.1,0,0.2,0,0.2c0.5,0.3-0.7,0.6,0,0.9c0.3,0.1,0.5,0.3,0.8,0.4c-0.5,0.9-1.1,1.7-2.2,0.5
		c-0.1-0.1-0.4-0.1-0.7-0.1c-0.4,0-0.8,0-0.8-0.5c0-0.4,0.6-0.8,0.7-0.8C54.4,154.7,54.8,153.5,55.5,153.4z"/>
	<path class="st0" d="M128.5,171.4c-0.2,1.1-1.1,0.7-1.7,0.8c-0.8-1.2,0-2.3,0.2-3.6C127.8,169.4,127.8,170.6,128.5,171.4z"/>
	<path class="st2" d="M175.1,65.1c0,0.1,0,0.1,0,0.2c-0.5,1.2-1.7,1.2-2.6,1.8c-1.3,0.8-2.4,1.9-4,2.2c-0.1-0.1-0.1-0.1-0.1-0.2
		c0-0.1,0-0.1,0.1-0.1C170.6,67.5,172.7,66.1,175.1,65.1z"/>
	<path class="st1" d="M79.5,178.8c0.1,0.1,0.1,0.2,0.2,0.4c0,1.9-1.1,3.5-1.6,5.3c-0.1,0.3-0.3,0.6-0.7,0.5
		c-0.3-0.1-0.3-0.3-0.2-0.6C78,182.6,78.4,180.6,79.5,178.8z"/>
	<path class="st2" d="M173,63.6c0.2,0.1,0.4,0.1,0.6,0.2c-1.8,1.4-3.6,2.6-5.8,3.5C169.2,65.6,171.3,64.8,173,63.6z"/>
	<path class="st0" d="M108,175.2c-0.2,0-0.5,0.1-0.7,0.1c-0.3-1.2-0.5-2.3,0-3.5c0.1-0.2,0.1-0.5,0.4-0.4c0.1,0,0.2,0.3,0.3,0.4
		C108.4,173,108.2,174.1,108,175.2z"/>
	<path class="st0" d="M163.8,64.2c-0.4,0.4-1.1,0.6-0.7,1.3c-0.6,0.4-1.3,0.5-1.7,1.2c-0.4,0.7-1,0.1-1.6,0.1c1-1.4,2.5-2,3.6-3
		C163.5,64,163.7,64.1,163.8,64.2z"/>
	<path class="st1" d="M119.3,23.5c0.6,0.5,0.1,1.1,0,1.6c-0.3,1.5-0.1,3.1-0.7,4.5c-0.1,0.2-0.3,0.2-0.5,0c0-0.1,0-0.1-0.1-0.2
		c-0.4-1.2,0.2-2.3,0.3-3.5c0-0.6,0.2-1.3,0.3-1.9C118.7,23.7,118.8,23.3,119.3,23.5z"/>
	<path class="st1" d="M150.1,169c1.3,0.9,1.6,2.4,2.6,3.4c0.3,0.3,0.1,0.7-0.2,0.9c-0.3,0.2-0.5-0.1-0.6-0.4
		c-0.4-1.1-1.5-1.8-1.9-2.9C150,169.7,149.6,169.3,150.1,169z"/>
	<path class="st0" d="M40.6,87.5c0.1-0.1,0.2-0.2,0.2-0.3c0.4,0,0.7,0.2,1,0.4c0.1-0.1,0.2-0.1,0.4-0.1c0.1,0,0.3,0.1,0.4,0.1
		c0.3,0.1,0.7,0.1,0.7,0.6c-0.1,0.6-0.7-0.1-0.9,0.4c0,0.5,0.7,0.2,0.8,0.8C42,89.7,41,89,39.9,88.7c0.1-0.1,0.1-0.3,0.2-0.4
		c0.2-0.4-1.4-0.5-0.5-0.1C39.4,87.9,40.4,88.1,40.6,87.5z"/>
	<path class="st0" d="M40,121c0.1,0.2,0.2,0.4,0.3,0.6c-2.3,0.4-4.5,0.9-6.8,1.3c-0.5,0.1-0.9,0.2-1.4,0l0,0
		C34.7,122.1,37.4,121.6,40,121z"/>
	<path class="st0" d="M151.5,155.2c-1.4-1-2.1-2.6-3.5-3.6c-0.2-0.2-0.5-0.5-0.2-0.8c0.3-0.3,0.5,0.2,0.6,0.4c1,1.4,2.6,2.2,3.2,3.8
		C151.7,155.1,151.6,155.2,151.5,155.2z"/>
	<path class="st1" d="M95.2,177.6c0.2,0,0.3,0,0.5-0.1c0.1,0.1,0.2,0.3,0.4,0.2c0.1,0,0.2,0,0.3,0.1c0.2,1.3-0.3,2.3-1.5,3
		C94.4,179.7,94.8,178.6,95.2,177.6z"/>
	<path class="st0" d="M132.7,43.7c0.2,0,0.3,0,0.5,0c-0.8,1.9-1.5,3.8-2.3,5.7c-0.1,0-0.3-0.1-0.4-0.1
		C130.9,47.2,131.9,45.4,132.7,43.7z"/>
	<path class="st0" d="M136.7,42.1c0.2,0,0.3-0.1,0.5-0.1c0.1-0.1,0.3-0.1,0.4,0c0.2,1.7,1,0.2,1.5,0.3c0.8,1.6-0.8,2.3-1.2,3.5
		c-0.3,0.2-0.6,0.2-0.5-0.3c0.1-0.2,0.1-0.3,0.2-0.5c0.5-0.8,1.2-1.7-0.5-2c-0.2,0-0.3-0.3-0.4-0.5
		C136.7,42.3,136.7,42.3,136.7,42.1C136.7,42.1,136.7,42.1,136.7,42.1z"/>
	<path class="st1" d="M34.3,124.9c-1.3,0.3-2.6,0.6-3.9,0.9c-0.3,0.1-0.6,0-0.7-0.3c-0.1-0.2,0.1-0.4,0.3-0.4
		c1.4-0.2,2.7-1.1,4.2-0.9C34.4,124.4,34.4,124.7,34.3,124.9z"/>
	<path class="st1" d="M178.6,103.2c-0.4-0.2,0.1-0.2,0.1-0.4c1.1-0.5,2.4-0.3,3.6-0.4c0.3,0,0.6,0,0.6,0.4c0,0.3-0.3,0.3-0.5,0.3
		C181,103.4,179.8,103.5,178.6,103.2z"/>
	<path class="st1" d="M178.3,101.5c0-0.2,0-0.3,0-0.5c0.6-0.2,1.3,0.1,1.7-0.6l0,0c0.1-0.1,0.3-0.1,0.4-0.1l0,0
		c0.3,0.6,0.8,0.2,1.2,0.2c0.4,0,0.7,0.1,0.7,0.5c0,0.5-0.4,0.3-0.6,0.3C180.6,101.5,179.5,101.9,178.3,101.5z"/>
	<path class="st2" d="M188.3,132.1c0.2-0.1,0.4-0.1,0.6-0.2c1.6-0.1,2.9,0.9,4.3,1.4C191.4,133.5,189.8,132.8,188.3,132.1z"/>
	<path class="st2" d="M112.6,187.2c-0.2-0.2-0.5-0.4-0.6-0.6c-0.1-1.3-0.1-2.6-0.1-3.9c0.6-0.8,0.1-1.8,0.3-2.6
		c0.6,1,0.5,2.2,0.8,3.3c-0.4,0.2-0.4,0.5-0.2,0.9l0,0C112.2,185.3,112.7,186.3,112.6,187.2z"/>
	<path class="st1" d="M149.6,41.8c1.2-0.1,1.2-1.3,1.8-1.9c0.5-0.4,0.7-1.7,1.3-1.3c0.7,0.5-0.3,1.2-0.6,1.7
		c-0.5,0.9-1.2,1.7-1.8,2.5c-0.4,0.3-0.6,0.1-0.8-0.3c-0.1-0.2-0.1-0.4,0-0.6C149.5,41.9,149.5,41.8,149.6,41.8z"/>
	<path class="st0" d="M37.4,127.5c2-1.3,4.2-1.9,6.5-2.1C41.7,126.2,39.5,126.8,37.4,127.5z"/>
	<path class="st0" d="M76.2,166.4c0-0.2-0.1-0.4-0.1-0.6c0.1-1.3,1-2.1,1.3-3.3c0.1-0.2,0.3-0.4,0.5-0.3c0.3,0.1,0.3,0.5,0.1,0.7
		C77.5,164,77,165.3,76.2,166.4z"/>
	<path class="st0" d="M171.4,126.4c0.4,0.4-0.4,0.6-0.2,0.9c-0.8,0-1.6-0.3-2.3-0.7c-0.2-0.1-0.6-0.2-0.5-0.6
		c0.1-0.3,0.4-0.4,0.7-0.4C170,125.6,170.8,125.9,171.4,126.4z"/>
	<path class="st0" d="M45.1,135.4c0.4,0,0.7,0.1,1.3,0.1c-0.5,0.4-1.3,0.6-0.7,1.3c-1.4,0.2-2.3,1.5-3.9,1.4c0.5-0.8,1.3-1.1,2-1.3
		C44.7,136.8,45.1,136.3,45.1,135.4z"/>
	<path class="st0" d="M134.9,165.6c0,0.3-0.1,0.6-0.1,0.8c-0.9-1.3-1.5-2.7-1.9-4.3C134,163.1,134.4,164.4,134.9,165.6z"/>
	<path class="st0" d="M43.8,81.4c0-0.2,0-0.3,0-0.5c1.5,0.8,3.3,1.2,4.7,2.3C46.8,82.7,45.2,82.3,43.8,81.4z"/>
	<path class="st0" d="M116.7,173.8c-0.2,0-0.4,0.1-0.7,0.1c-0.3-1.4-0.5-2.8-0.5-4.3c0.1-0.1,0.2-0.1,0.4-0.1
		C116.3,170.9,116.7,172.3,116.7,173.8z"/>
	<path class="st1" d="M178.3,96.9c0-0.1,0-0.3,0-0.4c0.8-0.5,1.8-0.6,2.7-0.6c0.3,0,0.7,0,0.8,0.4c0.1,0.5-0.4,0.4-0.7,0.5
		C180.2,96.9,179.2,96.9,178.3,96.9z"/>
	<path class="st0" d="M99.4,175.6c-0.1,0-0.3,0-0.4,0.1c0.4-1.6,0.2-3.2,0.9-4.7C99.9,172.5,99.9,174,99.4,175.6z"/>
	<path class="st0" d="M161.8,70.9c0.1,0.2,0.3,0.3,0.4,0.5c-0.9,0.8-2.1,1.3-3.1,1.9c-0.2,0.1-0.4,0.3-0.6,0c-0.2-0.3,0-0.6,0.3-0.7
		C159.9,72.3,160.7,71.3,161.8,70.9z"/>
	<path class="st1" d="M107.4,178.2c0.1,0,0.2,0,0.3,0c0.6,1.3,0.3,2.7,0,4C107,181,107.3,179.6,107.4,178.2z"/>
	<path class="st2" d="M151.5,161.1c0-0.5-0.8-0.6-0.7-1.2c0.4,0.2,0.9,0.3,1.4,0.1c0.6,0.7,1.1-0.3,1.6,0c-0.4,0.6,0.2,1,0.4,1.5
		c0,0.1-0.1,0.1-0.1,0.2c-0.2,0.1-0.5,0-0.6,0.2c-0.2,0.1-0.3,0.1-0.5,0.2C152.4,161.8,152.4,160.8,151.5,161.1z"/>
	<path class="st0" d="M40.3,100.1c0.1-0.1,0.1-0.3,0.2-0.4c1.4-0.5,2.7,0.3,4.1,0.2c0.2,0,0.5,0.2,0.4,0.5c-0.1,0.3-0.4,0.2-0.6,0.2
		C43,100.4,41.6,100.2,40.3,100.1z"/>
	<path class="st0" d="M172.4,80.3c0.5,0.4,1,0.1,1.5,0.1c-1.4,0.7-2.8,1.2-4.5,1.3C170.3,80.8,171.3,80.5,172.4,80.3z"/>
	<path class="st1" d="M47.1,148.4L47.1,148.4c0.5-1,1.6-1,2.3-1.6c0.3,0.1,0.5,0.3,0.8,0.4c-0.8,0.6-1.5,1.3-2.3,1.9
		c-0.3,0.2-0.6,0.4-0.9,0.1C46.6,149,46.9,148.7,47.1,148.4z"/>
	<path class="st1" d="M188.2,121.9c1.7-0.1,3.3,0.4,4.9,0.9c-1.7,0.2-3.2-0.2-4.8-0.6C188.2,122.1,188.2,122,188.2,121.9z"/>
	<path class="st0" d="M153.5,153.1c-0.1,0.1-0.2,0.2-0.2,0.3c-0.9-0.7-1.8-1.3-2.5-2.2c-0.2-0.2-0.4-0.3-0.2-0.6
		c0.2-0.3,0.6-0.1,0.7,0.1C152,151.5,152.8,152.3,153.5,153.1z"/>
	<path class="st0" d="M93.8,174.3c-0.2,0-0.3-0.1-0.5-0.1c-0.2-1,0-1.9,0.4-2.7c0.1-0.1,0.3-0.1,0.4,0
		C94.9,172.5,94.2,173.4,93.8,174.3z"/>
	<path class="st2" d="M177.8,121c-0.2,0.2-0.3,0.5,0,0.7c1.1,0.4,0.1,0.7,0,1.1c-0.9-0.5-1.5-1.4-2.6-1.6c0-0.3,0.2-0.4,0.5-0.6
		C176.5,120.3,177.1,121,177.8,121z"/>
	<path class="st0" d="M34.3,124.9c0-0.2-0.1-0.5-0.1-0.7c1.4-0.3,2.6-1,4.1-0.9c0.1,0.1,0.1,0.1,0.1,0.2c0,0.1,0,0.1,0,0.1
		C37,124.3,35.5,124.2,34.3,124.9z"/>
	<path class="st0" d="M70,46.4c0.2,0,0.3-0.1,0.5-0.1c0,0.1,0,0.1,0,0.2c0.1,0.1,0.2,0.2,0.2,0.3c0.8,0.9,1.7,1.7,1.7,3.3
		C71,49.1,70.8,47.5,70,46.4z"/>
	<path class="st0" d="M105.1,27.8c0.4,0,0.7-0.3,0.9-0.7c-0.1,0.7-0.2,1.3-0.2,1.9c0.1,0.8,0.2,1.5-0.8,1.9
		c-0.1-0.1-0.1-0.3-0.2-0.4C105.2,29.7,104.6,28.7,105.1,27.8z"/>
	<path class="st0" d="M81.2,168.3c0.1-1.2,0.8-2.1,1.1-3.3c0-0.2,0.2-0.3,0.4-0.3c0.3,0.1,0.2,0.3,0.2,0.5c-0.4,1-0.6,2-1.3,2.9
		C81.5,168.4,81.3,168.4,81.2,168.3z"/>
	<path class="st1" d="M136.7,172c0.7-0.5,1,0.3,1.5,0.6c0.2,0.1,0.4,0.3,0.6,0.5l0,0c-0.1,0.4,0.3,0.9-0.2,1.1
		c-0.5,0.2-0.7-0.3-1-0.6c-0.3-0.2-0.5-0.5-0.8-0.8c-0.3-0.2-0.3-0.4-0.1-0.7C136.6,172.1,136.6,172.1,136.7,172z"/>
	<path class="st2" d="M119.3,23.5c-0.4,0-0.5,0.3-0.6,0.7c-0.2,1.8-0.4,4.1-0.7,5.9c-0.2,0-0.5-0.3-0.6-0.3c0.5-2.1,0.5-4.6,1.3-6.6
		C119,23.1,119.2,23.2,119.3,23.5z"/>
	<path class="st1" d="M87.5,176.4c0,0.2,0.1,0.3,0.1,0.5c-0.6,0.8-1.2,1.2-2.2,0.6c-0.2-1.1,0.6-1.2,1.4-1.3
		C87,176.4,87.3,176.5,87.5,176.4z"/>
	<path class="st0" d="M132.2,171.4c-0.4-0.9-0.8-1.8-1.2-2.8c-0.1-0.2-0.2-0.6,0.2-0.7c0.4-0.1,0.5,0.2,0.5,0.5
		c0.1,1,0.8,1.7,1.2,2.6C132.8,171.3,132.5,171.4,132.2,171.4z"/>
	<path class="st0" d="M132.2,171.4c0.2-0.3,0.4-0.3,0.7-0.4c0.3,0.7,0.7,1.4,1,2.1c0.1,0.1,0.1,0.2,0,0.4c-0.2,0.2-0.4,0.5-0.5,0.7
		C132.8,173.3,132.5,172.3,132.2,171.4z"/>
	<path class="st0" d="M83.5,44.5c0.1,0,0.3-0.1,0.4-0.1c0.6,0.9,0.6,2,1.2,3c0.1,0.2,0.1,0.5-0.2,0.6c-0.3,0.1-0.5-0.1-0.5-0.3
		C84.3,46.5,83.3,45.7,83.5,44.5z"/>
	<path class="st1" d="M79.7,177L79.7,177c-0.9,0.8-1.1,1.9-1.4,2.9c-0.1,0.3-0.2,0.8-0.6,0.6c-0.5-0.2,0-0.5,0-0.8
		c0-0.8,1.1-1.4,0.4-2.3l0,0c0.3-0.3,0.4-0.7,0.9-0.5c0.1,0,0.3-0.1,0.4-0.1C79.5,176.7,79.6,176.8,79.7,177z"/>
	<path class="st0" d="M174.1,93.6c0,0.2,0.1,0.3,0.1,0.5c-1,0.2-1.9,0.5-2.9,0.8c-0.3,0.1-0.6,0.1-0.7-0.2c-0.1-0.5,0.3-0.5,0.6-0.5
		C172.2,93.9,173.1,93.8,174.1,93.6z"/>
	<path class="st1" d="M151.8,37.3c0.8-1.2,1.5-2.4,2.3-3.6c0,1.7-1,2.7-1.9,3.8C152.1,37.5,151.9,37.4,151.8,37.3z"/>
	<path class="st2" d="M106.8,176.8c0.1,0.3,0.3,0.6,0.4,0.9c-0.7,0.2-1.5-0.4-2.2,0.3c-0.1,0.1-0.2,0.1-0.4,0c0-0.4,0.2-0.8,0.1-1.2
		c-0.1-0.4,0-0.9,0.4-1c0.7-0.1,0.3,0.5,0.4,0.7C105.8,177.3,106.4,176.9,106.8,176.8z"/>
	<path class="st0" d="M81.6,46.4c0-0.5-0.3-1,0.1-1.4c0.3,1.3,1.5,2.4,1.1,4C81.9,48.3,82.2,47.2,81.6,46.4z"/>
	<path class="st0" d="M75.9,46.3c0.2-0.1,0.3-0.2,0.5-0.4c0.2,1.1,1.6,1.8,1.2,3.4C76.8,48.4,76.5,47.3,75.9,46.3z"/>
	<path class="st0" d="M76.1,175.5c-0.3-0.2-0.6-0.1-0.9,0c0.3-1.1,0.6-2.1,1.4-3c0.5,0.4,0.5,0.9,0.8,1.4
		C77,174.6,76.1,174.7,76.1,175.5z"/>
	<path class="st0" d="M175.7,120.6c0,0.3-0.2,0.5-0.5,0.6c-1.1-0.1-2.2-0.2-3.2-1C173.3,120.3,174.5,120.5,175.7,120.6z"/>
	<path class="st0" d="M148.2,42c0.8,0.1,0.9-0.9,1.5-1.1c0.2-0.1,0.3-0.1,0.5,0.1c-0.2,0.3-0.4,0.6-0.6,0.9l0,0
		c-0.2,0.2-0.1,0.4-0.1,0.6c0,0.2-0.1,0.3-0.2,0.5c-0.1,0.2-0.1,0.4-0.2,0.6c-0.1,0.2-0.2,0.3-0.4,0.4c-0.3,0.1-0.6,0.3-0.9,0.1
		c-0.1-0.2-0.2-0.3-0.2-0.6c0-0.2,0.1-0.4,0.2-0.6l0,0C147.9,42.6,147.9,42.2,148.2,42L148.2,42z"/>
	<path class="st0" d="M74.2,164.6c0.5-1.1,1-2.2,1.6-3.2c0.1-0.3,0.3-0.5,0.6-0.3c0.3,0.2,0.1,0.4,0,0.6c-0.6,1-1,2.1-1.8,2.9
		C74.4,164.7,74.3,164.7,74.2,164.6z"/>
	<path class="st2" d="M86.2,34c0.1,0,0.2,0,0.3,0c0.6,1.3,1,2.7,1.1,4.2c-0.3,0-0.6,0-0.9,0C87.1,36.7,86.5,35.4,86.2,34z"/>
	<path class="st2" d="M53.1,47.4c0.1-0.2,0.2-0.4,0.2-0.6c0.9,1.1,1.9,2.2,2.8,3.3c-0.1,0.2-0.3,0.2-0.5,0.1
		C54.9,49.3,53.6,48.7,53.1,47.4z"/>
	<path class="st2" d="M143.7,167.6c0-0.1,0-0.3,0-0.4c1.2,0.8,1.4,2.3,2.3,3.3c-0.4,0.2-0.4,0.5-0.4,0.8
		C145.2,169.9,144,169,143.7,167.6z"/>
	<path class="st2" d="M167.3,71.4c-0.2-0.2-0.4-0.3-0.6-0.5c1.1,0.2,1.9-0.6,2.7-1.1c0.5-0.3,1-0.7,1.6-0.8c0,0.3,0,0.5,0.1,0.8
		c-0.9,0.1-1.6,0.5-2.2,1C168.5,71.2,167.9,71.5,167.3,71.4z"/>
	<path class="st1" d="M163.7,59.6c-0.1,0-0.2,0-0.3,0.1c-0.5,0.3-0.9,1.1-1.7,0.8c0,0,0-0.1,0-0.1c0.1-1,1-1.3,1.6-1.9
		c0.1-0.1,0.4-0.1,0.5,0C164,58.8,163.8,59.2,163.7,59.6z"/>
	<path class="st0" d="M128.5,38.3c0.2,0.1,0.4,0.2,0.5,0.2c-0.4,1.2-0.5,2.6-1.5,3.6C127.4,40.8,128.6,39.7,128.5,38.3z"/>
	<path class="st2" d="M181.4,136.2c0,0.1,0,0.3,0,0.4c-1.4-0.1-2.6-0.7-3.8-1.4c0.2-0.1,0.5-0.1,0.7-0.2
		C179.4,135.4,180.4,135.8,181.4,136.2z"/>
	<path class="st1" d="M40.6,142.5c-0.4,0.3-0.9,0.5-1.3,0.8c-0.3,0.1-0.6,0.2-0.7-0.1c-0.2-0.4,0.2-0.5,0.4-0.5c0.9,0,1.3-0.9,2.1-1
		c0.4-0.3,0.8-0.6,1.3-0.5C42.4,142.3,41.3,142.1,40.6,142.5z"/>
	<path class="st0" d="M149.5,159.2c-0.9-0.6-1.4-1.5-2-2.5c1.4,0.2,1.7,1.3,2.1,2.1C150,159,149.9,159.2,149.5,159.2z"/>
	<path class="st2" d="M136.7,42.1c0,0.1,0,0.2,0,0.2c-0.7-0.1-0.9-0.4-0.6-1.1c0.3-0.7,0.6-1.4,1-2.2c0.2,0,0.4,0,0.7,0
		C137.7,40.2,136.8,41,136.7,42.1z"/>
	<path class="st0" d="M174.8,112.1c0,0.1,0,0.3,0.1,0.4c-1-0.1-2.1,0.3-3.2-0.5C172.9,111.5,173.8,111.8,174.8,112.1z"/>
	<path class="st2" d="M43.6,129.1c0,0.1,0,0.3,0.1,0.4c-0.8,0.8-1.9,0.7-2.9,1.1C41.5,129.6,42.6,129.3,43.6,129.1z"/>
	<path class="st0" d="M137.4,45.4c0.2,0.1,0.4,0.2,0.5,0.3c-0.4,0.9-0.5,2-1.8,2.6C136.4,47.1,136.9,46.2,137.4,45.4z"/>
	<path class="st2" d="M36.7,109.8c0-0.1-0.1-0.3-0.1-0.4c1.5-0.1,3-0.2,4.5-0.3c0.1,0.2,0,0.3-0.2,0.4
		C39.6,109.9,38.1,109.6,36.7,109.8z"/>
	<path class="st0" d="M173.2,103.9c0,0.1,0,0.2,0,0.3c-0.7,0.4-1.5,0-2.2,0.3c-0.2,0.1-0.5-0.1-0.5-0.4c0-0.3,0.3-0.4,0.5-0.4
		C171.7,103.7,172.5,103.3,173.2,103.9z"/>
	<path class="st1" d="M55.7,50.3c0.2,0,0.3-0.1,0.5-0.1c0.8,0.6,1.3,1.5,2,2.3c-0.1,0.2-0.3,0.2-0.5,0.2c-0.5-0.5-1-1-1.5-1.5
		c0,0,0-0.1-0.1-0.1C56,50.8,55.9,50.6,55.7,50.3z"/>
	<path class="st1" d="M77.3,174c-0.9-0.1-0.6-0.9-0.8-1.4l0-0.1c0.5-0.1,1-0.2,1.6-0.3C78.1,172.9,77.8,173.5,77.3,174z"/>
	<path class="st0" d="M66,50.8c0.1-0.2,0.1-0.4,0.2-0.6C67,51,67.3,52,67.7,53C67.1,52.3,66.2,51.8,66,50.8z"/>
	<path class="st2" d="M176.6,119.8c0.9-0.9,2.1-0.1,3.1-0.4c0.4,0.2,0.7,0.4,1.2,0.6c-1.3,0.5-2.4-0.5-3.6-0.1
		C177.1,120,176.8,120,176.6,119.8z"/>
	<path class="st1" d="M44.1,140.8c0.2,0.1,0.9,0.2,0.6,0.3c-1,0.4-1.7,1.7-3,1.4c0,0,0-0.1-0.1-0.2c0.4-0.7,1.3-0.9,1.9-1.4
		C43.7,140.8,43.9,140.8,44.1,140.8z"/>
	<path class="st0" d="M142,45.1c-0.6,0.2-1.2-0.4-1.8,0.1c-0.2-1.1,0.5-1.6,1.5-2.3C141,44,141.4,44.6,142,45.1L142,45.1z"/>
	<path class="st1" d="M150.1,40.9c-0.2,0-0.3-0.1-0.5-0.1c0.3-1.3,2-3.4,2.9-4.3C152.8,37.6,150.8,40,150.1,40.9z"/>
	<path class="st0" d="M69.4,48.4c0.1,0,0.2,0,0.3,0c0.7,0.5,1.3,1.1,1.3,2c0,0-0.3,0.2-0.3,0.1C70,50,69.6,49.2,69.4,48.4z"/>
	<path class="st0" d="M41,109.5c0.1-0.1,0.1-0.3,0.2-0.4c1.2,0,2.4-0.1,3.5-0.1c-1,0.6-2.1,0.5-3.2,0.6
		C41.3,109.6,41.2,109.7,41,109.5L41,109.5z"/>
	<path class="st2" d="M94.1,171.4c-0.1,0-0.3,0-0.4,0c0-1.1,0.1-2.1,1-3C94.5,169.4,94.3,170.4,94.1,171.4z"/>
	<path class="st0" d="M157.2,59.8c0,0.2,0.1,0.4,0.1,0.5c-0.6,0.7-1.3,1.4-2.1,1.8C155.5,61,156.4,60.5,157.2,59.8z"/>
	<path class="st0" d="M115.8,169.6c-0.1,0-0.2,0-0.4,0.1c-0.3-1-0.4-2-0.4-3.2C115.9,167.5,115.9,168.5,115.8,169.6z"/>
	<path class="st0" d="M173.5,110.6c-0.7,0.1-1.4,0.2-2.1-0.5c1.1-0.3,2,0,2.9,0C174.3,110.7,173.9,110.6,173.5,110.6z"/>
	<path class="st2" d="M171,136.1c0.2,0.1,0.5,0.2,0.7,0.2c-0.5,0.6-0.2,1.5-1.2,2.2C170.7,137.5,169.9,136.7,171,136.1z"/>
	<path class="st0" d="M54.1,62.5c-0.2,0-0.4,0.1-0.6,0.1c-0.6-0.2-1-0.7-1.4-1.2c0,0,0.2-0.3,0.2-0.3c0.7,0.1,1.1,0.7,1.6,1.1
		C54,62.2,54,62.4,54.1,62.5z"/>
	<path class="st2" d="M166.3,38.3c-1.4-0.2-1.5,1.3-2.3,1.8l0,0c0.1-0.4,0.1-0.8,0.2-1.1l0,0c0.3-0.3,0.7-0.7,1-1l0,0
		c0.2-0.2,0.3-0.4,0.6-0.3C166.1,37.7,166.7,37.6,166.3,38.3z"/>
	<path class="st2" d="M45.2,140c0.4-0.2,0.8-0.4,1.2-0.6c0.7-0.3,0.5,0.3,0.5,0.6c-0.3,0.2-0.6,0.4-0.9,0.6
		C45.5,140.8,45.2,140.6,45.2,140z"/>
	<path class="st2" d="M38.3,123.6c0-0.1,0-0.2-0.1-0.3c0.6-0.9,1.5-0.4,2.3-0.8c0.1,0.2,0.2,0.3,0.3,0.5
		C40,123.3,39.2,123.7,38.3,123.6z"/>
	<path class="st2" d="M148.8,43.6c0-0.1,0-0.1,0.1-0.1c0.1-0.3,0.1-0.6,0.2-0.9c0-0.1,0-0.1,0.1-0.1c0.1-0.1,0.2-0.2,0.4-0.1
		c0.1,0.3,0.3,0.6,0.7,0.5c-0.6,0.6-0.8,1.4-1.6,1.8c-0.2,0.1-0.2,0-0.3-0.2C148.3,44.1,148.5,43.8,148.8,43.6z"/>
	<path class="st0" d="M72.7,45.4c0.1,0,0.1,0,0.2,0c0.6,0.4,1,1,0.9,1.7c0,0.1-0.3,0.2-0.3,0.1C72.9,46.7,72.7,46.1,72.7,45.4z"/>
	<path class="st2" d="M85.1,191.9c0.1,0.4,0,0.8,0.4,1c0.1,0.7-0.5,1.1-0.7,1.8C84.3,193.6,84.8,192.8,85.1,191.9z"/>
	<path class="st0" d="M44.1,140.8c-0.1,0.1-0.1,0.1-0.2,0.1c-0.4,0.2-0.8,0.5-1.2,0.1c-0.6-0.1-1,0.3-1.5,0.5
		c0.9-0.5,1.6-1.2,2.7-1.4c0.2,0.1,0.4,0.1,0.6,0.2C44.2,140.5,44.2,140.7,44.1,140.8z"/>
	<path class="st0" d="M120.5,173c-0.2,0-0.4,0.1-0.6,0.1c-0.1-0.7-0.2-1.3-0.3-2.3C120.4,171.5,120.6,172.2,120.5,173z"/>
	<path class="st2" d="M133.9,173.4c0-0.1,0-0.2,0-0.4c1.1-0.4-0.5-1.1,0.3-1.5c0.2,0.5,1.2,0.2,1,1.2
		C134.7,172.7,134.6,173.7,133.9,173.4z"/>
	<path class="st2" d="M42.6,141.1c0.4,0,0.8-0.1,1.2-0.1c-0.6,0.7-1.5,1-2.2,1.4c-0.3,0-0.7,0.1-1,0.1
		C41.3,142,42.1,141.7,42.6,141.1z"/>
	<path class="st0" d="M173.9,117.6c0,0.1,0,0.3,0.1,0.4c-0.7-0.1-1.4-0.3-2-0.4C172.6,117.3,173.3,117.2,173.9,117.6z"/>
	<path class="st0" d="M31.4,127.8c0.1-0.2,0.1-0.5,0.2-0.7c0.5-0.5,1.1-0.2,1.7-0.4c0,0.2,0,0.4,0.1,0.5
		C32.8,127.8,32.1,127.7,31.4,127.8z"/>
	<path class="st1" d="M104.7,178c0.1,0,0.2,0,0.4,0c0.1,0.5,0.5,1,0,1.6C104.5,179.2,104.7,178.6,104.7,178z"/>
	<path class="st0" d="M74.2,164.6c0.1,0,0.2,0,0.3,0c-0.3,0.8-0.5,1.7-1.3,2.3c-0.1,0.1-0.2,0-0.2-0.1
		C73.4,166,73.6,165.2,74.2,164.6z"/>
	<path class="st2" d="M147.2,47c0-0.2-0.1-0.3-0.1-0.5c0-0.2,0-0.3,0-0.5c0-0.1,0.1-0.2,0.1-0.3c0.1-0.2,0.1-0.3,0.2-0.5
		c0.1-0.1,0.1-0.2,0.2-0.2c0.3-0.2,0.5-0.5,0.9-0.5c0.1,0,0.1,0.1,0.2,0.1C148.5,45.6,147.8,46.3,147.2,47z"/>
	<path class="st0" d="M127.5,37.8c0.1,0,0.3,0,0.4,0c0,0.7-0.1,1.4-0.7,2.2C126.7,39,127.2,38.4,127.5,37.8z"/>
	<path class="st0" d="M76.6,168c-0.1-0.2-0.2-0.4-0.3-0.5c-0.1-0.7,0.3-1.4,0.7-1.5c0.6-0.1,0.5,0.4,0.2,0.8
		c-0.1,0.2-0.2,0.4-0.3,0.6C76.8,167.6,76.7,167.8,76.6,168z"/>
	<path class="st1" d="M160.6,57.7c-0.1-0.2-0.2-0.3-0.3-0.5c0.3-0.4,0.7-0.8,1.2-0.9c0,0,0.2,0.2,0.2,0.3
		C161.6,57.2,161.2,57.5,160.6,57.7z"/>
	<path class="st1" d="M177.9,98.6c0-0.3-0.1-0.6,0.2-0.8c0.4,0.1,1.2,0,1.2,0.5C179.2,99.1,178.4,98.6,177.9,98.6z"/>
	<path class="st2" d="M97.8,33.6c0.5,0.6,0.4,1.2,0.1,1.8c-0.9-0.4-0.4-1.2-0.5-1.8C97.6,33.5,97.7,33.5,97.8,33.6z"/>
	<path class="st0" d="M57.8,52.7c0.2-0.1,0.3-0.2,0.5-0.2c0.6,0.2,0.8,0.8,1,1.3c-0.1,0.1-0.2,0.2-0.3,0.4
		C58.6,53.6,58.2,53.2,57.8,52.7z"/>
	<path class="st2" d="M177.9,106.6c0,0.4-0.1,0.7-0.5,1.1c-0.2-0.4-0.7-0.7-0.5-1.3C177.2,106.3,177.6,106.2,177.9,106.6z"/>
	<path class="st2" d="M124.9,35.6c0,0.1,0.1,0.2,0.1,0.3c0,0.8-0.4,1.5-0.6,2.3C124.3,37.3,124.6,36.4,124.9,35.6z"/>
	<path class="st2" d="M157.8,47.3c0-0.2-0.1-0.4-0.1-0.6c0-0.5,0.5-0.6,0.7-0.9l0,0c0.5-0.1,0.4,0.7,0.9,0.6
		c-0.2,0.3-0.4,0.6-0.6,0.8C158.3,46.9,158.1,47.4,157.8,47.3z"/>
	<path class="st2" d="M102.5,176.3c0-0.1,0-0.3-0.1-0.4c0.7-0.2,1.4-0.2,1.5,0.8l0,0C103.5,176.5,103,176.4,102.5,176.3z"/>
	<path class="st2" d="M176.8,110.6c-0.2-0.1-0.5-0.2-0.7-0.4c0.1-0.4,0.2-0.8,0-1.2c0.2,0,0.4-0.1,0.7-0.1
		C176.8,109.5,177,110,176.8,110.6z"/>
	<path class="st2" d="M81.2,168.3c0.1,0,0.3,0,0.4-0.1c0.2,0.7-0.5,1-0.6,1.5c-0.2,0-0.3,0-0.5-0.1
		C80.6,169.2,80.6,168.6,81.2,168.3z"/>
	<path class="st2" d="M133.5,37.4c0.2,0.1,0.4,0.2,0.6,0.3c-0.2,0.4-0.5,0.9-0.8,1.4C132.8,38.3,133.4,37.9,133.5,37.4z"/>
	<path class="st2" d="M54.1,140.1c-0.3,0-0.6,0.1-0.9,0.1c0.5-0.3,1-0.7,1.6-1.1C54.8,139.9,54.4,140,54.1,140.1z"/>
	<path class="st0" d="M97.8,33.6c-0.1,0-0.2,0-0.3,0c-0.1-0.6-0.2-1.2-0.3-1.8c0.2,0,0.4,0.1,0.6,0.1C98,32.5,97.8,33.1,97.8,33.6z"
		/>
	<path class="st0" d="M44.9,132.6L44.9,132.6c-0.1,0.4-0.2,0.8-0.7,0.7c-0.1,0-0.2-0.2-0.2-0.3C44.2,132.6,44.6,132.8,44.9,132.6z"
		/>
	<path class="st2" d="M173.5,110.6c0.3-0.2,0.6-0.1,0.8-0.5c0.3,0,0.6,0,0.9,0.1c0,0.2,0,0.3-0.1,0.5
		C174.6,110.6,174,111.2,173.5,110.6z"/>
	<path class="st2" d="M132.4,25.2c-0.1-0.1-0.2-0.2-0.3-0.2c0-0.4,0.1-0.7,0.4-0.9c0.1-0.2,0.3-0.2,0.5-0.1
		C132.9,24.5,132.8,24.9,132.4,25.2z"/>
	<path class="st2" d="M150.1,169c0,0.3,0,0.7-0.1,1c-0.3-0.5-0.6-1-1-1.5c0.2,0,0.3,0,0.5-0.1C149.7,168.6,149.9,168.8,150.1,169z"
		/>
	<path class="st0" d="M136.6,172.2c0,0.2,0.1,0.5,0.1,0.7c-0.2,0.2-0.3,0.4-0.5,0.6c-0.4,0-0.6-0.2-0.7-0.5
		C136.1,173,136.2,172.4,136.6,172.2z"/>
	<path class="st0" d="M66.5,165.3c0.1-0.5-0.1-1.1,0.8-1.2c0,0.7-0.2,1.2-0.6,1.6C66.6,165.5,66.5,165.4,66.5,165.3z"/>
	<path class="st2" d="M185.2,99.3c-0.3,0.1-0.7,0.1-0.8,0.5c-0.3,0.3-0.6,0-0.8,0.1c0-0.1,0.1-0.2,0.1-0.4
		C184.1,99.2,184.6,99.1,185.2,99.3z"/>
	<path class="st2" d="M184.8,121.6c0.6-0.2,1.2-0.5,1.7,0.3C185.9,121.8,185.4,121.7,184.8,121.6z"/>
	<path class="st2" d="M188.2,121.9c0,0.1,0,0.2,0,0.3c-0.5,0.1-0.8-0.2-1.1-0.4c0.1-0.1,0.2-0.2,0.2-0.3
		C187.7,121.5,188,121.6,188.2,121.9z"/>
	<path class="st2" d="M118.1,29.7c0.2,0,0.3,0,0.5,0c0.1,0.4-0.1,0.8-0.5,1.2C117.7,30.4,117.9,30,118.1,29.7z"/>
	<path class="st2" d="M149.5,159.2c0-0.1,0.1-0.3,0.1-0.4c0.4,0.1,0.6,0.6,0.8,0.9c-0.1,0-0.2,0.1-0.3,0.1
		C149.9,159.6,149.7,159.4,149.5,159.2z"/>
	<path class="st1" d="M133,24c-0.2,0-0.3,0-0.5,0.1c0-0.2-0.2-0.6,0.2-0.7C133.1,23.4,133,23.7,133,24z"/>
	<path class="st1" d="M158.4,45.7c-0.1,0.4-0.4,0.7-0.7,0.9c-0.1-0.1-0.2-0.2-0.2-0.3C157.7,46,157.9,45.7,158.4,45.7z"/>
	<path class="st1" d="M157.8,47.3c0.3,0.1,0.4-1.2,0.9-0.1c-0.2,0.2-0.4,0.4-0.6,0.6C157.9,47.6,157.9,47.4,157.8,47.3z"/>
	<path class="st1" d="M165.1,37.9c-0.2,0.5-0.4,0.9-1,1C164.4,38.6,164.4,37.9,165.1,37.9z"/>
	<path class="st1" d="M165.7,37.6c-0.1,0.2-0.3,0.4-0.6,0.3c-0.1-0.3,0-0.6,0.3-0.7C165.5,37.2,165.6,37.4,165.7,37.6z"/>
	<path class="st2" d="M130.9,34.2c-0.2-0.2-0.3-0.5-0.5-0.7C131.3,33.2,130.9,33.8,130.9,34.2z"/>
	<path class="st2" d="M73.7,40.9c-0.1,0-0.3,0.1-0.4,0.1l-0.1,0.1l-0.1,0c-0.1-0.3,0.1-0.5,0.3-0.7C73.6,40.5,73.7,40.7,73.7,40.9z"
		/>
	<path class="st1" d="M36.8,65.9c0,0.1,0,0.2,0,0.4c-0.3,0-0.5-0.1-0.7-0.4c0.1-0.1,0.1-0.2,0.2-0.2C36.4,65.7,36.6,65.8,36.8,65.9z
		"/>
	<path class="st1" d="M129.2,34.4c0-0.2,0.1-0.6,0.3-0.5c0.4,0.2,0,0.4-0.1,0.6C129.4,34.5,129.3,34.4,129.2,34.4z"/>
	<path class="st0" d="M42.2,87.5c-0.1,0-0.2,0-0.4,0.1C42,87.5,42.1,87.4,42.2,87.5z"/>
	<path class="st2" d="M41,109.5c0.1,0,0.3,0,0.4,0C41.3,109.8,41.2,109.7,41,109.5z"/>
	<path class="st2" d="M56.2,51.1c0,0,0.1,0.1,0.1,0.1c-0.1,0-0.2,0-0.2-0.1C56.1,51.1,56.2,51.1,56.2,51.1z"/>
	<path class="st2" d="M162.3,63.8c0.1-0.1,0.3-0.2,0.4-0.2c0,0,0.1,0.1,0.1,0.1C162.6,63.7,162.5,63.8,162.3,63.8L162.3,63.8z"/>
	<path class="st2" d="M162.4,63.9c-0.1,0.2-0.2,0.3-0.4,0.3c0,0-0.1-0.1-0.1-0.1C162,64,162.1,63.9,162.4,63.9L162.4,63.9z"/>
	<path class="st2" d="M137.7,42c-0.1,0-0.3,0-0.4,0C137.4,41.9,137.5,41.4,137.7,42z"/>
	<path class="st0" d="M72.9,167.4c0-0.2,0-0.5,0.2-0.6c0.1,0,0.1,0.1,0.2,0.1c-0.1,0.2-0.2,0.4-0.3,0.6
		C73,167.5,72.9,167.4,72.9,167.4z"/>
	<path class="st0" d="M37.3,118.3c-0.1,0-0.2,0-0.3,0C37.2,118.3,37.3,118.3,37.3,118.3z"/>
	<path class="st0" d="M55.5,151c0.1-0.1,0.2-0.1,0.2-0.2C55.7,150.9,55.6,151,55.5,151z"/>
	<path class="st0" d="M151.5,155.2c0.1-0.1,0.1-0.2,0.2-0.3c0,0.1,0.1,0.2,0.1,0.3l0,0C151.7,155.2,151.6,155.2,151.5,155.2z"/>
	<path class="st0" d="M173.9,91.8c0.1,0,0.2,0,0.3,0C174.1,91.8,174,91.8,173.9,91.8z"/>
	<path class="st0" d="M168.3,69.4c-0.1,0.1-0.2,0.2-0.3,0.3c-0.1,0-0.1-0.1-0.2-0.1c0.1-0.1,0.2-0.2,0.3-0.3
		C168.2,69.2,168.3,69.3,168.3,69.4z"/>
	<path class="st0" d="M71.8,174.7c0,0.1,0,0.1,0,0.2C71.7,174.9,71.7,174.8,71.8,174.7z"/>
	<path class="st2" d="M154.5,161.8c-0.1,0-0.2,0.1-0.3,0.1c-0.1,0-0.1-0.1-0.1-0.2c0-0.1,0.1-0.1,0.1-0.2
		C154.2,161.6,154.3,161.7,154.5,161.8z"/>
	<path class="st0" d="M60.1,48.9c0.1,0,0.1,0,0.1,0.1C60.2,49,60.1,49,60.1,48.9z"/>
	<path class="st0" d="M53.5,160.3l-0.1,0l-0.1,0C53.4,160.2,53.4,160.1,53.5,160.3z"/>
	<path class="st2" d="M153.9,159.9c0.1-0.1,0.2-0.2,0.3-0.3C154,159.7,154,159.8,153.9,159.9z"/>
	<path class="st2" d="M77.8,170c-0.1,0-0.2,0.1-0.2,0.1C77.7,170.1,77.7,170,77.8,170z"/>
	<path class="st2" d="M177.2,108.3c0.1,0,0.2,0,0.3-0.1C177.4,108.4,177.3,108.4,177.2,108.3z"/>
	<path class="st0" d="M70.7,46.8c-0.1-0.1-0.1-0.2-0.2-0.3C70.6,46.5,70.7,46.6,70.7,46.8z"/>
	<path class="st2" d="M175,108.6c0.1,0,0.2-0.1,0.3-0.1c0,0.1,0,0.2,0,0.3C175.2,108.7,175.1,108.6,175,108.6z"/>
	<path class="st0" d="M39.1,79.7c0.1,0,0.1,0,0.1,0.1L39.1,79.7L39.1,79.7z"/>
	<path class="st2" d="M186.5,121.9c0.1,0,0.1-0.1,0.2-0.1C186.7,122.1,186.7,122.1,186.5,121.9z"/>
	<path class="st0" d="M168.4,69c0,0.1,0,0.2,0.1,0.3c-0.1,0-0.1,0.1-0.2,0.1c-0.1,0-0.1-0.1-0.2-0.1C168.2,69.2,168.3,69.1,168.4,69
		z"/>
	<path class="st2" d="M104,176.7c0,0,0.1,0.1,0.1,0.1C104.1,176.7,104,176.7,104,176.7L104,176.7z"/>
	<path class="st3" d="M46.6,132.5c0.1-0.2,0.3-0.3,0.5-0.3c0,0,0.1,0.2,0.1,0.2c-0.1,0.1-0.3,0.2-0.4,0.2
		C46.7,132.6,46.7,132.5,46.6,132.5z"/>
	<path class="st1" d="M69.8,36.3c0.3-0.1,0.7-0.2,0.8,0.1c0.4,1.2,1.5,2.1,1.5,3.5c-0.2-0.1-0.5-0.1-0.7-0.2
		c-1.2-0.4-1.2-1.6-1.7-2.6C69.5,36.9,69.5,36.6,69.8,36.3z"/>
	<path class="st3" d="M71.6,41.5"/>
	<path class="st3" d="M71.9,42"/>
	<path class="st2" d="M98.2,180.9c-0.1-1.1-0.5-2.2,0.4-3.2l0,0c0.3,1-0.1,1.9-0.2,2.9C98.4,180.6,98.3,180.8,98.2,180.9z"/>
	<path class="st2" d="M97.7,181.3c0.1-0.3,0.2-0.4,0.5-0.4c-0.1,0.6,0.6,1.4-0.3,2C97.4,182.4,98.2,181.8,97.7,181.3z"/>
	<path class="st2" d="M96.1,177.7c-0.1,0.2-0.2,0.4-0.4,0.4c-0.1,0,0-0.4,0-0.6C96.1,177.1,96,177.6,96.1,177.7z"/>
	<path class="st2" d="M98.7,177.7c0,0,0-0.1,0-0.1C98.7,177.6,98.7,177.6,98.7,177.7L98.7,177.7z"/>
	<path class="st3" d="M175.5,104.6c-0.1-0.1-0.2-0.2-0.2-0.2c0.1-0.2,0.2-0.1,0.3,0C175.6,104.4,175.5,104.5,175.5,104.6z"/>
	<path class="st0" d="M69,34.9c0.3,0.3,0.7,0.6,0.7,1.1c0,0.1,0,0.2,0.1,0.3c0,0.3,0,0.6,0,0.8c-0.2,0-0.4-0.1-0.5-0.1l0,0
		c0.1-0.7-0.3-1.4-0.6-2C68.8,35,68.9,35,69,34.9z"/>
	<path class="st2" d="M164,40.1c-0.1,0.1-0.2,0.2-0.3,0.2C163.6,40,163.9,40.2,164,40.1L164,40.1z"/>
	<path class="st2" d="M35.6,119.7c0.3,0,0.6,0,1,0c-0.4,0.3-0.7,0.5-1.1,0.2C35.5,119.8,35.6,119.7,35.6,119.7z"/>
	<path class="st1" d="M147.8,43.5c0,0.2,0.8,0.3,0.8,0.5c0.2,0.5-0.8,0.9-1.1,1.2l0,0c-0.1,0.2-0.1,0.4-0.2,0.6l0,0
		c-0.2,0.2-0.3,0.2-0.5,0c-0.1-0.1-0.7-0.2-0.8-0.2c-0.5-0.9,1.1-1.3,1-2l0,0C147.2,43.3,147.5,43.3,147.8,43.5z"/>
	<path class="st3" d="M108.6,176.1c-0.1,0.1-0.2,0.2-0.2,0.2c-0.2-0.1-0.1-0.2,0-0.3C108.4,176,108.5,176.1,108.6,176.1z"/>
</g>
<g>
	<path class="st3" d="M78.2,0c4.6,17.5,28,106.3,28,106.3l13.4-23C119.7,83.3,91.8,37.5,78.2,0z"/>
	<path class="st3" d="M134.1,212.3c-4.6-17.5-28-106.3-28-106.3l-13.4,23C92.7,129,120.6,174.9,134.1,212.3z"/>
	<path class="st3" d="M0,134.1c17.5-4.6,106.3-28,106.3-28l-23-13.4C83.3,92.7,37.5,120.6,0,134.1z"/>
	<path class="st3" d="M212.3,78.2c-17.5,4.6-106.3,28-106.3,28l23,13.4C129,119.6,174.9,91.7,212.3,78.2z"/>
	<g>
		<g>
			<polygon class="st3" points="83.7,92.9 59.1,78.6 83.9,85.1 			"/>
			<g>
				<path class="st3" d="M61.1,80.1L83,92.9l-6,3.5L61.1,80.1 M59.1,78.5L77,96.9l6.7-4L59.1,78.5L59.1,78.5z"/>
			</g>
		</g>
		<g>
			<polygon class="st3" points="119.4,83.7 133.8,59.1 127.3,83.9 			"/>
			<g>
				<path class="st3" d="M132.2,61.1L119.5,83l-3.5-6L132.2,61.1 M133.8,59.1L115.5,77l4,6.7L133.8,59.1L133.8,59.1z"/>
			</g>
		</g>
	</g>
	<g>
		<polygon class="st3" points="128.8,119.3 153.4,133.7 128.7,127.1 		"/>
		<g>
			<path class="st3" d="M135.5,115.8l15.9,16.3l-21.9-12.8L135.5,115.8 M135.6,115.4l-6.7,4l24.6,14.4L135.6,115.4L135.6,115.4z"/>
		</g>
	</g>
	<g>
		<polygon class="st3" points="93,128.6 78.6,153.2 85.1,128.4 		"/>
		<g>
			<path class="st3" d="M92.9,129.3l3.5,6l-16.3,15.9L92.9,129.3 M92.9,128.6l-14.4,24.6l18.3-17.9L92.9,128.6L92.9,128.6z"/>
		</g>
	</g>
</g>
<path class="st3" d="M188.1,178.1v-4.6c-3.4,3.8-7,5.2-12.2,5.2c-4.9,0-9.3-1.6-12-4.4c-4.7-4.8-5.1-12.5-5.1-20.8
	c0-8.2,0.4-15.9,5.1-20.7c2.7-2.8,7-4.4,11.9-4.4c5,0,8.8,1.3,12,4.9v-22.4h12.3v67.4H188.1z M179.4,139.3c-7.4,0-8.3,6.2-8.3,14.1
	c0,8,0.9,14.2,8.3,14.2s8.4-6.2,8.4-14.2C187.8,145.5,186.8,139.3,179.4,139.3z"/>
<path class="st3" d="M218.6,157.3c0,6.4,3.8,11,10.8,11c5.4,0,8-1.6,11.2-4.6l7.5,7.3c-5,5.1-9.8,7.8-18.7,7.8
	c-11.6,0-22.8-5.3-22.8-25.3c0-16.1,8.7-25.2,21.5-25.2c13.7,0,21.5,9.8,21.5,23.9v5.2H218.6z M236.2,143.6
	c-1.3-2.9-4.1-5.1-8.2-5.1c-4.2,0-6.9,2.2-8.2,5.1c-0.9,1.8-1,3.1-1.1,5.3h18.7C237.3,146.7,237.1,145.4,236.2,143.6z"/>
<path class="st3" d="M292,174.3c-2.7,2.8-7.1,4.4-11.9,4.4c-5,0-8.8-1.3-11.9-4.9v22.4h-12.3v-67.4h11.9v4.6c3.4-3.8,7-5.2,12.3-5.2
	c4.8,0,9.2,1.6,11.9,4.4c4.7,4.8,5.1,12.5,5.1,20.7C297.1,161.7,296.7,169.4,292,174.3z M276.5,139.3c-7.4,0-8.3,6.2-8.3,14.1
	c0,8,0.9,14.2,8.3,14.2s8.3-6.2,8.3-14.2C284.8,145.5,283.9,139.3,276.5,139.3z"/>
<path class="st4" d="M368.6,177.4v-29.6c0-8.5-4.6-12.8-11.8-12.8c-7,0-12,4.4-12,12v30.4h-7v-29.6c0-8.5-4.6-12.8-11.8-12.8
	c-7.2,0-12,4.4-12,12.8v29.6h-7v-48.1h7v5.3c3.4-3.9,8.2-5.9,13.6-5.9c6.7,0,11.8,2.7,14.8,8c3.7-5.3,9.1-8,15.8-8
	c5.2,0,9.5,1.7,12.4,4.5c3.4,3.3,5.2,7.8,5.2,13.4v30.8H368.6z"/>
<path class="st4" d="M466,173.4c-2.5,2.5-6.7,4.2-11.7,4.2c-5.3,0-9.6-1.3-13.6-6.3v27.2h-7v-69.6h7v5.7c4-5,8.2-6.3,13.6-6.3
	c5,0,9.2,1.7,11.7,4.2c4.8,4.8,5.9,12.7,5.9,20.4C471.9,160.7,470.8,168.5,466,173.4z M452.8,134.6c-10.6,0-12.1,9-12.1,18.4
	s1.6,18.4,12.1,18.4c10.5,0,12-9,12-18.4S463.3,134.6,452.8,134.6z"/>
<path class="st4" d="M416.1,176.9v-4.6c-3.8,3.8-7.4,5.2-13.9,5.2c-6.7,0-10.3-1.2-13.6-4.4c-2.4-2.3-3.6-6-3.6-9.8
	c0-8.5,6-13.9,16.7-13.9h14.4v-4.6c0-6.9-3.4-10.6-12.3-10.6c-6.1,0-9.2,1.6-12.1,5.6l-4.8-4.4c4.2-5.6,9.1-7.2,17-7.2
	c13,0,19.3,5.7,19.3,16v32.7H416.1z M416.1,154.7h-13.4c-7.2,0-10.9,2.8-10.9,8.5c0,5.6,3.4,8.2,11.2,8.2c4,0,7.5-0.4,10.7-3.2
	c1.7-1.6,2.4-4.3,2.4-8.3V154.7z"/>
</svg>
