<svg id="Layer_1" data-name="Layer 1" xmlns="http://www.w3.org/2000/svg" xmlns:xlink="http://www.w3.org/1999/xlink" viewBox="0 0 523 90"><defs><style>.cls-1{fill:url(#linear-gradient);}.cls-2{fill:#0961ad;}</style><linearGradient id="linear-gradient" y1="49.46" x2="79.65" y2="49.46" gradientUnits="userSpaceOnUse"><stop offset="0" stop-color="#ee3e23"/><stop offset="1" stop-color="#f7971d"/></linearGradient></defs><title>company_logos</title><path class="cls-1" d="M0,56.22c1.49-4.53,2.84-9.12,4.52-13.58,1.35-3.58,3.21-7,4.64-10.53,2-4.91,3.14-10,1.59-15.24-.65-2.22-2.11-4.19-3.22-6.26a12.82,12.82,0,0,0-.85-1.23l.19-.46A10.81,10.81,0,0,1,9,9.19c6.9,2.31,11.06,7.19,13.05,14.05,1.31,4.48.72,8.92-.73,13.19s-3.23,8.34-4.9,12.48c-1.8,4.46-3.31,9-3.46,13.86-.34,11.1,5.15,19,15.81,22.28,8.12,2.47,16.4,2.68,24.12-1.38,9.46-5,14.3-13,13.63-23.84a22.32,22.32,0,0,0-10.38-18L54.6,40.7c.51-.26.78-.51,1-.49,7.71.94,14.63,3.5,19.62,9.83a21.84,21.84,0,0,1-.66,27.15c-5.59,6.52-12.95,9.69-21,11.53-2.45.56-5,.86-7.43,1.28H32.84c-.36-.1-.7-.21-1.06-.29-4.25-.93-8.62-1.48-12.72-2.86-7.68-2.58-13.65-7.41-16.91-15A64.72,64.72,0,0,1,0,64.74Z"/><path class="cls-2" d="M364,61.3c.31.51.53.92.79,1.31,4.29,6.5,8.56,13,12.9,19.47a3.78,3.78,0,0,0,1.82,1.31c1.49.5,3.07.73,4.56,1.24.47.15.76.82,1.13,1.25-.45.32-.89.91-1.35.92-3.84.08-7.68.1-11.52,0a2.76,2.76,0,0,1-1.89-1.09q-6.89-10.48-13.61-21.07a3.2,3.2,0,0,0-3.13-1.82c-4.72.13-4.08-.54-4.11,4.14s0,9.47,0,14.2c0,1.43.48,2.14,1.88,2.38a25.46,25.46,0,0,1,4.14,1c.49.17.81.87,1.22,1.32-.5.34-1,1-1.5,1q-9.56.09-19.1,0c-.43,0-.86-.47-1.3-.72.33-.52.53-1.31,1-1.52a16.47,16.47,0,0,1,3.47-1,1.8,1.8,0,0,0,1.68-2q0-21.15,0-42.3a1.66,1.66,0,0,0-1.45-1.88,17.84,17.84,0,0,1-3.47-1.05c-.53-.24-.81-1-1.21-1.54.51-.32,1-.91,1.54-.92,6-.17,12-.41,18-.3a36.65,36.65,0,0,1,12.25,1.87c5.53,2,8.93,5.75,9.31,11.69a11.71,11.71,0,0,1-6.19,11.43C368.05,59.58,366.08,60.33,364,61.3ZM349.61,48.16v8.21c0,3.59-.28,3.31,3.33,3.31,4.64,0,8.8-1.17,12.05-4.79,3.51-3.91,2.87-11.64-1.31-14.78-3.67-2.75-8-2.9-12.31-3.15-1.29-.08-1.8.44-1.77,1.74C349.65,41.85,349.62,45,349.61,48.16Z"/><path class="cls-2" d="M188.36,32.11c7.2.15,13.62,2.37,18.86,7.3a26.09,26.09,0,0,1,8.24,17.25,30.37,30.37,0,0,1-5.2,20.64c-4.76,6.83-11.43,10.47-19.76,11.16a26.92,26.92,0,0,1-29.4-23.82,31.83,31.83,0,0,1,.82-12.33,26.68,26.68,0,0,1,22.53-19.79C185.76,32.37,187.06,32.25,188.36,32.11ZM170.13,58.5c.16,1.93.18,3.89.5,5.79,1.14,6.67,3.47,12.79,8.63,17.48a14.4,14.4,0,0,0,12.32,3.92c6.64-1,10.32-5.43,12.55-11.33A34.74,34.74,0,0,0,206,57.3c-.94-7-3.58-13.25-8.79-18.23a14.84,14.84,0,0,0-22.38,2.34C171.26,46.56,170.09,52.35,170.13,58.5Z"/><path class="cls-2" d="M108.07,44.09v1.69c0,11.68,0,23.36,0,35,0,1.72.43,2.68,2.23,2.89a15.58,15.58,0,0,1,3.52.84c.5.18.8.88,1.18,1.35-.45.32-.91.91-1.37.91q-6.78.11-13.57,0c-.47,0-.93-.58-1.39-.9.37-.47.66-1.1,1.15-1.38a9.86,9.86,0,0,1,2.24-.76c2.24-.64,2.24-.63,2.24-3q0-19.43,0-38.83c0-3.2-.39-3.8-3.38-5a17.16,17.16,0,0,1-2.23-.75,2,2,0,0,1-.9-1.39c0-.27.73-.88,1.15-.89,3.94-.07,7.89-.11,11.83,0a3.52,3.52,0,0,1,2.07,1.46c3.54,4.5,7,9.07,10.5,13.61q8.12,10.57,16.23,21.14c.4.53.86,1,1.55,1.81.05-.88.11-1.38.11-1.87,0-10.1,0-20.21,0-30.31,0-1.48-.42-2.24-1.92-2.47-1.24-.19-2.45-.6-3.68-.89-.87-.21-1.59-.67-1.27-1.6a1.93,1.93,0,0,1,1.49-.92q6.63-.11,13.26,0c.51,0,1,.6,1.53.92a11.73,11.73,0,0,1-1.2,1.58,2.86,2.86,0,0,1-1.18.42c-3.79,1-3.25.7-3.25,4.31q0,22.65,0,45.3c0,.45-.5,1.33-.63,1.3-.86-.16-2-.27-2.47-.85-2.31-2.72-4.45-5.59-6.64-8.42l-26-33.68c-.22-.29-.42-.59-.62-.89Z"/><path class="cls-2" d="M315.3,86.85c-3.26,0-6.52.05-9.78,0a2.07,2.07,0,0,1-1.59-1c-.33-.94.55-1.16,1.31-1.33,1.59-.35,3.17-.77,4.77-1.07.94-.18,1.31-.55,1-1.49-1.5-4-3-8.11-4.52-12.13A1.89,1.89,0,0,0,305,68.9c-5.89-.06-11.79-.08-17.68,0a2.39,2.39,0,0,0-1.72,1.23c-1.55,3.91-2.95,7.88-4.41,11.83-.31.83-.1,1.26.82,1.43,1.65.32,3.28.75,4.92,1.11.77.16,1.61.4,1.3,1.35a1.92,1.92,0,0,1-1.46,1q-7.11.1-14.21,0c-.52,0-1-.58-1.56-.89.41-.51.79-1.42,1.24-1.46,3.85-.35,5.3-2.82,6.51-6.16,5.13-14.19,10.52-28.3,15.76-42.45a3.24,3.24,0,0,1,2.71-2.48,10,10,0,0,0,2.59-.66c1.46-.63,2,0,2.53,1.31q7.23,19.44,14.54,38.87c1.06,2.8,2.15,5.6,3.13,8.43a3.21,3.21,0,0,0,2.65,2.36,10.26,10.26,0,0,1,2.86.84c.52.27.78,1,1.16,1.57-.48.26-1,.72-1.45.73C321.94,86.88,318.62,86.85,315.3,86.85ZM287.73,64.16a9.46,9.46,0,0,0,1.27.25h14c1.21,0,1.41-.45,1-1.56-2.44-6.54-4.83-13.1-7.24-19.65a13.74,13.74,0,0,0-.78-1.4C293.18,49.43,290.49,56.69,287.73,64.16Z"/><path class="cls-2" d="M505.48,31.87l10.76,2a1.9,1.9,0,0,1,1.66,2c.25,2.92.64,5.84.86,8.77a6.35,6.35,0,0,1-.61,2.06c-.6-.47-1.41-.82-1.76-1.43a23.36,23.36,0,0,1-2.32-5c-.89-3.16-3.11-4.46-6.05-4.93a13.88,13.88,0,0,0-8.19.8c-5.68,2.6-6.08,10.11-2.43,13.57a37.59,37.59,0,0,0,6.54,4.58c3.91,2.36,8.05,4.35,11.86,6.85,6.1,4,7.65,11.13,5.29,17.43-1.8,4.8-5.77,7.41-10.47,8.83-7.39,2.24-14.76,1.36-22-.7a2.35,2.35,0,0,1-1.39-1.57c-.49-3.8-.85-7.61-1.16-11.43,0-.5.44-1,.68-1.55.44.38,1.06.68,1.28,1.16q1.85,4,3.5,8.11a4.79,4.79,0,0,0,3,3c3.85,1.28,7.71,2,11.74.78,3.86-1.21,6.64-3.57,7.45-7.59a9.32,9.32,0,0,0-4.07-10,74.81,74.81,0,0,0-7.19-4.23c-3.52-1.89-7.06-3.7-10-6.49-4-3.78-5.64-8.26-4.42-13.67,1.19-5.24,4.71-8.36,9.65-9.85A69.14,69.14,0,0,1,505.48,31.87Z"/><path class="cls-2" d="M236.08,37.73l14.34,39.19.45.06,14.36-39.22c-1.8-.47-3.32-.84-4.83-1.25-.88-.23-1.82-.48-1.69-1.7s1.16-1,2-1c4.1,0,8.2-.05,12.3,0a2.12,2.12,0,0,1,1.69.87c.39,1-.44,1.48-1.32,1.73a.44.44,0,0,1-.15.05c-3.29.33-4.57,2.48-5.63,5.4-5.34,14.78-10.9,29.48-16.35,44.23a2.13,2.13,0,0,1-2.44,1.69,3.29,3.29,0,0,0-.94,0c-1.78.29-2.6-.58-3.2-2.2-5.58-15-11.26-29.92-16.82-44.9-.76-2-1.71-3.54-4-3.86a3.58,3.58,0,0,1-1.63-.54,2.52,2.52,0,0,1-1-1.51c0-.3.77-.83,1.26-.95a9.49,9.49,0,0,1,2.2-.05c5.32,0,10.63,0,15.94,0,.79,0,1.8-.25,1.93,1s-.75,1.46-1.66,1.68C239.36,36.89,237.84,37.28,236.08,37.73Z"/><path class="cls-2" d="M417.81,60.07c0,7,0,14,0,21,0,1.46.44,2.24,1.93,2.49a29,29,0,0,1,4.44,1.07c.49.16.78.9,1.16,1.38-.48.28-1,.81-1.46.81q-10.34.09-20.67,0c-.48,0-.95-.56-1.42-.85.39-.47.7-1.19,1.2-1.35a31.93,31.93,0,0,1,4.44-1.08c1.39-.24,1.9-.93,1.89-2.36-.06-6.73,0-13.46,0-20.2q0-11,0-21.93c0-2-.1-2.07-2-2.07-2.89,0-5.79,0-8.68,0a2.12,2.12,0,0,0-2.31,1.43c-.86,2-1.86,4-2.81,6-.37.77-.78,1.75-1.8,1.25-.37-.17-.49-1.23-.44-1.87.18-2.61.53-5.22.71-7.84.1-1.47.63-2.13,2.22-2.13q19.41.07,38.82,0c1.64,0,2.11.75,2.22,2.15.24,2.82.54,5.64.75,8.47a3.83,3.83,0,0,1-.44,1.31c-.52-.24-1.29-.35-1.51-.76-.91-1.66-1.68-3.39-2.43-5.13C430.28,37,430.3,37,427.23,37H420c-2.07,0-2.16.08-2.16,2.11Z"/><path class="cls-2" d="M39.32,70.26a9.94,9.94,0,0,1-.47-1.65Q37.61,57,36.4,45.44c-.67-6.42-1.32-12.84-2-19.26C33.72,19.55,33,12.93,32.3,6.3c-.18-1.67-.27-3.34-.43-5C31.79.45,32,0,33,0c4.36,0,8.73,0,13.09,0,1.05,0,1.34.55,1.23,1.53q-1.53,14.09-3,28.17c-1,9.61-1.94,19.22-2.93,28.82-.37,3.55-.8,7.09-1.22,10.63a6.34,6.34,0,0,1-.28,1Z"/><path class="cls-2" d="M460.1,33.8H470c.79,0,1.66-.08,1.73,1.09.06,1-.55,1.34-1.43,1.51-1.45.29-2.87.69-4.31,1a1.61,1.61,0,0,0-1.51,1.82q0,21.14,0,42.27a1.72,1.72,0,0,0,1.55,2,37.31,37.31,0,0,1,4.44,1.08c.51.17.84.85,1.25,1.3-.49.34-1,1-1.46,1q-10.17.11-20.35,0c-.5,0-1-.63-1.49-1,.42-.43.76-1.08,1.26-1.26a20.76,20.76,0,0,1,3.83-.92c1.58-.22,2.18-.94,2.17-2.6-.07-9,0-18,0-27,0-4.89,0-9.78,0-14.67,0-1.2-.38-1.86-1.6-2.08s-2.66-.61-4-.91c-.92-.2-1.8-.46-1.64-1.68s1.11-.94,1.85-.94C453.58,33.78,456.84,33.8,460.1,33.8Z"/></svg>