<svg id="Layer_1" data-name="Layer 1" xmlns="http://www.w3.org/2000/svg" viewBox="0 0 268 90.2"><defs><style>.cls-1{fill:#272b48;}.cls-2{fill:#758abd;}.cls-3{fill:#33478e;}.cls-4{fill:#bdced7;}</style></defs><title>company_logos</title><path class="cls-1" d="M157.47,57.73c-.37,0-.63.07-.88.08H148c-.86,0-1-.11-1.16-.93-.08-.39-.12-.8-.18-1.27a2.41,2.41,0,0,0-.46.24,11.2,11.2,0,0,1-7.42,2.54,14.21,14.21,0,0,1-4.26-.45,7.66,7.66,0,0,1-4.47-3,13.14,13.14,0,0,1-.86-1.72c-.11-.22-.19-.46-.32-.8a4.65,4.65,0,0,0-.26.4A8.59,8.59,0,0,1,124,56.94a17.16,17.16,0,0,1-5.33,1.32,24.39,24.39,0,0,1-7.48-.31,13.08,13.08,0,0,1-6.18-3,7.66,7.66,0,0,1-2.43-4.45c-.05-.33-.12-.66-.14-1s.11-.56.52-.6a4.34,4.34,0,0,1,.51,0h8.09c.6,0,.59,0,.8.6a3.41,3.41,0,0,0,1.54,2,3.21,3.21,0,0,0,1.57.42,17.69,17.69,0,0,0,1.93-.11,3.36,3.36,0,0,0,1.24-.51,1.56,1.56,0,0,0-.06-2.75,9.45,9.45,0,0,0-2.23-.75c-1.23-.28-2.48-.48-3.72-.73a21.31,21.31,0,0,1-5-1.52,7.28,7.28,0,0,1-4-3.69,7.47,7.47,0,0,1,0-5.92,7.93,7.93,0,0,1,4.95-4.37,18.85,18.85,0,0,1,6.45-1.15,24.73,24.73,0,0,1,6.25.58,10.82,10.82,0,0,1,5.39,2.82,7.57,7.57,0,0,1,2,4.59.47.47,0,0,1-.47.59,5.3,5.3,0,0,1-.57,0h-7.73a.61.61,0,0,1-.68-.51c-.31-1.6-2.37-2.57-3.9-2.27-.28.06-.57.06-.85.13a1.66,1.66,0,0,0-1.38,1.29,1.22,1.22,0,0,0,.75,1.58,8.5,8.5,0,0,0,1.82.62c1.73.37,3.48.63,5.2,1A15.64,15.64,0,0,1,126.22,43a6.92,6.92,0,0,1,2.85,3.74c0,.09.06.18.12.33.11-.1.21-.16.25-.25a7.4,7.4,0,0,1,4.18-3.61,21.73,21.73,0,0,1,5.12-1.29c1.66-.25,3.31-.47,5-.73a7.25,7.25,0,0,0,1.31-.36,2,2,0,0,0,1.4-1.74,2.13,2.13,0,0,0-1-2,1.54,1.54,0,0,0-.38-.2,5.77,5.77,0,0,0-4,.09,2.31,2.31,0,0,0-1.38,1.64c-.18.68-.21.71-.92.71h-7.81c-.86,0-1-.15-.89-1a7.65,7.65,0,0,1,4.09-6.11,14.89,14.89,0,0,1,4.85-1.46,34.14,34.14,0,0,1,7-.26A17.38,17.38,0,0,1,152,31.68a6.49,6.49,0,0,1,4.18,5.76c.13,1.42.14,2.86.15,4.29,0,3.75,0,7.5,0,11.25a8.85,8.85,0,0,0,.9,4.09A4.15,4.15,0,0,1,157.47,57.73ZM146.4,46.07a3,3,0,0,0-.41,0c-1.45.41-2.89.83-4.33,1.26a9.77,9.77,0,0,0-1.13.44,2.2,2.2,0,0,0-.23,3.85,4.15,4.15,0,0,0,4.73-.39C146.59,49.83,146.5,48,146.4,46.07Z"/><path class="cls-1" d="M205.34,33.6c0-.59,0-1.19,0-1.78s.13-.8.81-.8h8.74c.66,0,.74.09.77.74v.35c0,7.71,0,15.43,0,23.14a13.16,13.16,0,0,1-1.29,5.82,8.92,8.92,0,0,1-3.78,4,14.22,14.22,0,0,1-6.06,1.77,41,41,0,0,1-4.43.12,17.41,17.41,0,0,1-7.45-1.82A8.62,8.62,0,0,1,188,58.66c-.1-.6,0-.7.62-.71,1.58,0,3.16,0,4.73,0,1.19,0,2.39,0,3.58,0a1.61,1.61,0,0,1,1.7.89,4.73,4.73,0,0,0,1,1.14,2.89,2.89,0,0,0,4.23-.1A5.52,5.52,0,0,0,205.14,57a19.06,19.06,0,0,0,.19-4.17c-.2.16-.32.24-.43.34-.39.39-.75.81-1.17,1.16a8.22,8.22,0,0,1-4,1.75,11.54,11.54,0,0,1-6.17-.79,9.43,9.43,0,0,1-5-4.52,15.21,15.21,0,0,1-1.71-7,16.66,16.66,0,0,1,1-6.18,10.85,10.85,0,0,1,2.53-4,10.26,10.26,0,0,1,6-3,13.34,13.34,0,0,1,4,0A6.93,6.93,0,0,1,205,33.39l.22.26Zm-8.22,9.75c.08.69.12,1.38.23,2a5.09,5.09,0,0,0,1.59,3.14c1.86,1.58,5.36,1.43,6.23-1.8a13.42,13.42,0,0,0,.4-2.1,9,9,0,0,0-.26-3.68,3.74,3.74,0,0,0-2.14-2.62,5,5,0,0,0-1.66-.34,3.58,3.58,0,0,0-3.46,1.72A6.7,6.7,0,0,0,197.12,43.35Z"/><path class="cls-1" d="M168.42,34.07a3.48,3.48,0,0,0,.47-.37,9,9,0,0,1,5.57-3.09,12.87,12.87,0,0,1,4.63,0,8.19,8.19,0,0,1,6.92,7,11.19,11.19,0,0,1,.13,1.63q0,8.7,0,17.41v.14c0,1,0,1.05-1.05,1.05h-8.31c-.88,0-1-.1-1-1,0-4.41,0-8.83,0-13.25a15.07,15.07,0,0,0-.17-2.42c-.29-1.82-1.37-2.54-3.18-2.42a3.6,3.6,0,0,0-3.64,3.66c-.09,1.23-.14,2.47-.15,3.71,0,3.56,0,7.12,0,10.67,0,1,0,1.06-1,1.06h-8.17l-.57,0a.51.51,0,0,1-.53-.55c0-.21,0-.43,0-.64V32.24c0-1.21,0-1.23,1.25-1.23h8.17c.48,0,.59.12.61.6s0,1.1,0,1.65C168.38,33.5,168.4,33.73,168.42,34.07Z"/><path class="cls-1" d="M245.08,50c-.29.67-.48,1.2-.75,1.69a12.55,12.55,0,0,1-8.19,6.12,18.61,18.61,0,0,1-10.46-.24,13.42,13.42,0,0,1-4.86-2.68,12.87,12.87,0,0,1-4.33-8.6,15,15,0,0,1,.6-6.36A13,13,0,0,1,223.62,32a14.67,14.67,0,0,1,6.75-1.62,21.8,21.8,0,0,1,6,.75,12.12,12.12,0,0,1,5.18,2.94,11.56,11.56,0,0,1,2.75,4.32,20.32,20.32,0,0,1,1.29,7.36c0,.12,0,.24,0,.36,0,.49-.12.58-.59.62-.24,0-.48,0-.72,0h-16.9c-1.19,0-1.21,0-.91,1.16a4.62,4.62,0,0,0,2.93,3.46,5.37,5.37,0,0,0,5.62-1,1.65,1.65,0,0,1,1.15-.47c2.67,0,5.35,0,8,0C244.43,49.92,244.66,50,245.08,50Zm-14-8.68H235c.62,0,.76-.17.65-.73a4.18,4.18,0,0,0-3.48-3.43,8.15,8.15,0,0,0-1.78,0,4.28,4.28,0,0,0-3.74,2.91,4.07,4.07,0,0,0-.2.68.4.4,0,0,0,.39.55,5.42,5.42,0,0,0,.57,0Z"/><path class="cls-1" d="M146.6,21a5.5,5.5,0,0,1-2.13,2.22,5.86,5.86,0,0,1-2.9.64,6,6,0,0,1-2.81-.76,5.89,5.89,0,0,1-2-2.23v1.53c0,.24,0,.48,0,.72a.43.43,0,0,1-.45.45c-.93,0-1.86,0-2.79,0A.47.47,0,0,1,133,23c0-.17,0-.33,0-.5V10.71c0-1,0-1,1.05-1.05h1.86c.74,0,.83.08.83.82,0,1.69,0,3.39,0,5.09v.69l.13.07a5,5,0,0,1,4.75-3.1,4.85,4.85,0,0,1,5,2.62,3.22,3.22,0,0,0,.37-.36,4.49,4.49,0,0,1,3.43-2.19,7,7,0,0,1,3.06.14,4.5,4.5,0,0,1,2.93,2.44c.08.18.17.34.33.66a6.76,6.76,0,0,0,.06-1.3c0-.43,0-.86,0-1.29s.15-.56.51-.56h2.65a.52.52,0,0,1,.55.54c0,.11,0,.23.06.41,1.93-1.49,3.8-1.61,5.7.12l.47-.34a4.47,4.47,0,0,1,4.14-.7,2.66,2.66,0,0,1,1.85,1.84c.08.22.15.44.27.8.22-.3.38-.49.52-.69a4.82,4.82,0,0,1,3.94-2.14,6.36,6.36,0,0,1,3.34.6,4.1,4.1,0,0,1,1.94,2,6.17,6.17,0,0,1,.57,2.71c0,.75-.09.83-.82.84-1.6,0-3.2,0-4.8,0a2.77,2.77,0,0,0-.5,0c-.27,0-.65,0-.78.2s.07.63.25.9A1.7,1.7,0,0,0,179,21a3,3,0,0,1,1.84-.45c.64,0,1.29,0,1.93,0,.07,0,.13.05.23.08a1.49,1.49,0,0,1-.46,1.14,5.12,5.12,0,0,1-3,1.85,6,6,0,0,1-5.34-1.13A11.74,11.74,0,0,1,173,21.17c-.06.55,0,1,0,1.52,0,.8-.08.86-.86.87s-1.48,0-2.22,0-.79-.09-.79-.79c0-1.55,0-3.1,0-4.65a3.68,3.68,0,0,0-.12-1,.94.94,0,0,0-1-.73.92.92,0,0,0-1,.73,4.14,4.14,0,0,0-.13,1c0,1.46,0,2.91,0,4.37,0,.19,0,.38,0,.57a.45.45,0,0,1-.5.49h-2.86a.45.45,0,0,1-.49-.5c0-.38,0-.77,0-1.15,0-1.22,0-2.43,0-3.65a5.3,5.3,0,0,0-.13-1.06.88.88,0,0,0-.89-.78,1,1,0,0,0-1.14.66,2.69,2.69,0,0,0-.12.85c0,1.5,0,3,0,4.51,0,.19,0,.38,0,.57a.52.52,0,0,1-.54.55c-.93,0-1.86,0-2.79,0-.41,0-.51-.15-.52-.62,0-.78,0-1.57-.06-2.39a5.22,5.22,0,0,1-2.82,2.85,6.41,6.41,0,0,1-4.08.2A5.28,5.28,0,0,1,146.6,21Zm-6.39-2.53a10.22,10.22,0,0,0,.31,1.49,1.33,1.33,0,0,0,2.08.72,1.89,1.89,0,0,0,.54-.73.72.72,0,0,1,.76-.51h1.36c.83,0,.91-.09.9-.9a1.48,1.48,0,0,0,0-.21c0-.47-.12-.57-.61-.59a12.36,12.36,0,0,0-1.36,0c-.61,0-1-.11-1.15-.77a1,1,0,0,0-1.06-.8,1.17,1.17,0,0,0-1.29.69A16.28,16.28,0,0,0,140.21,18.44Zm12.81.09.11,0a11.19,11.19,0,0,0-.39-1.64,1.15,1.15,0,0,0-1.11-.76,1.39,1.39,0,0,0-1.3.73,1.36,1.36,0,0,0-.14.33,4.6,4.6,0,0,0,0,2.6,2,2,0,0,0,.54.82,1.21,1.21,0,0,0,1.83-.17,3.43,3.43,0,0,0,.44-1.1A3,3,0,0,0,153,18.53Zm26.56-1.19c-.18-1.18-.73-1.6-1.86-1.51a1.37,1.37,0,0,0-1.32,1.5A17.76,17.76,0,0,0,179.58,17.34Z"/><path class="cls-1" d="M256.42,34.9l1.23-1.7a6.66,6.66,0,0,1,3.48-2.4,10.08,10.08,0,0,1,5.23-.1.63.63,0,0,1,.59.68v.36c0,2.41,0,4.82,0,7.23,0,.26,0,.51-.06.87-.36-.06-.66-.09-.95-.17a10.81,10.81,0,0,0-5-.18,4.54,4.54,0,0,0-3.3,2.71,9.83,9.83,0,0,0-.89,4.31c0,3.36,0,6.73,0,10.09,0,1.18,0,1.21-1.2,1.21h-8.37c-.59,0-.71-.14-.74-.72a5.56,5.56,0,0,1,0-.58V32.23c0-1.22,0-1.22,1.23-1.22h7.94c.61,0,.71.11.72.71,0,.86,0,1.72,0,2.58C256.36,34.47,256.39,34.62,256.42,34.9Z"/><path class="cls-1" d="M117.79,19.21l-.51,1.54c-.23.73-.45,1.46-.69,2.19s-.22.61-.86.62c-.81,0-1.63,0-2.44,0s-.78,0-1-.78c-.33-1.37-.64-2.74-1-4.12a2.18,2.18,0,0,0-.28-.69c-.24,1-.49,2-.73,3-.16.65-.3,1.31-.47,1.95s-.24.62-.8.63q-1.29,0-2.58,0c-.63,0-.66,0-.85-.64q-1-3.11-1.91-6.23L103,14.23c-.06-.2-.1-.41-.17-.71a4.21,4.21,0,0,1,.71-.12c.84,0,1.67,0,2.51,0,.63,0,.73.08.88.7.34,1.37.65,2.74,1,4.11a1.83,1.83,0,0,0,.28.69c0-.15.11-.29.15-.44l.84-4.21c.15-.73.28-.84,1-.85h2c.73,0,.77,0,.93.8.31,1.44.62,2.89.94,4.34a.53.53,0,0,0,.25.37c.2-.89.41-1.79.61-2.68.15-.7.29-1.4.45-2.1s.27-.71.81-.72c.88,0,1.77,0,2.65,0,.58,0,.66.15.51.72,0,.2-.12.4-.18.62.76-.42,1.47-.87,2.23-1.22a5.74,5.74,0,0,1,2.54-.28,5.32,5.32,0,0,1,2.4.65,4.78,4.78,0,0,1,1.83,2,5.93,5.93,0,0,0,.08-.63c0-1.46,0-2.92,0-4.37,0-.19,0-.38,0-.58,0-.37.19-.59.56-.59h2.72c.38,0,.56.23.57.6,0,.19,0,.38,0,.57V22.38a4.21,4.21,0,0,1,0,.5c0,.53-.16.66-.71.68-.83,0-1.67,0-2.5,0-.52,0-.62-.13-.65-.64s0-.81,0-1.38c-.25.23-.4.35-.53.49a5,5,0,0,1-2.72,1.6,6.55,6.55,0,0,1-3.67-.16A4.6,4.6,0,0,1,118.11,20c-.06-.24-.11-.49-.17-.73Zm4,.3a1.74,1.74,0,0,0,2.78,1.42,2.54,2.54,0,0,1,1.48-.39q.82,0,1.65,0c.46,0,.62-.27.55-.71s-.35-.41-.65-.41c-1.77,0-3.53,0-5.3,0A3.67,3.67,0,0,0,121.77,19.51ZM125,17.33c0-1.08-.68-1.57-1.81-1.5a1.28,1.28,0,0,0-1.31,1.5Z"/><path class="cls-2" d="M31.32,51.5H27.81a2.76,2.76,0,0,1-1.91-.68A2.33,2.33,0,0,1,25.1,49c0-2.51,0-5,0-7.52a2.47,2.47,0,0,1,2.68-2.56c1,0,2.1,0,3.15,0,1.31,0,2.63,0,3.94,0a2.85,2.85,0,0,1,2.15.8,2.44,2.44,0,0,1,.66,1.69c0,2.53,0,5.07,0,7.6a2.47,2.47,0,0,1-2.57,2.51Z"/><path class="cls-3" d="M31.41,65.12h-3.8a2.34,2.34,0,0,1-2.52-2.49c0-.71,0-1.43,0-2.14,0-1.63,0-3.25,0-4.87a4.91,4.91,0,0,1,.05-.86,2.28,2.28,0,0,1,2.46-2.11c.95,0,1.9,0,2.86,0,1.55,0,3.1,0,4.65,0a2.41,2.41,0,0,1,2.58,2.53q0,3.73,0,7.45A2.41,2.41,0,0,1,37,64.5a2.18,2.18,0,0,1-1.55.62c-1.33,0-2.67,0-4,0Z"/><path class="cls-4" d="M51.31,45.2V49a2.15,2.15,0,0,1-2,2.41,6.36,6.36,0,0,1-1.07.1H42.07a7.83,7.83,0,0,1-1.28-.14,2.22,2.22,0,0,1-1.94-2.29c0-.88,0-1.76,0-2.64,0-1.65,0-3.29,0-4.94a2.48,2.48,0,0,1,.91-2,2.65,2.65,0,0,1,1.73-.57c2.39,0,4.77,0,7.16,0a4.31,4.31,0,0,1,1.12.19,2.11,2.11,0,0,1,1.54,2.09c0,1.34,0,2.67,0,4Z"/><path class="cls-3" d="M52.59,58.93c0-1.29,0-2.58,0-3.87A2.2,2.2,0,0,1,55,52.65q3.82,0,7.65,0a2.25,2.25,0,0,1,2.41,2.44c0,2.58,0,5.15,0,7.73a2.19,2.19,0,0,1-2.3,2.3c-2.67,0-5.34,0-8,0a2.31,2.31,0,0,1-2.17-2.21C52.64,61.6,52.59,60.26,52.59,58.93Z"/><path class="cls-2" d="M51.31,31.51c0,1.29-.05,2.58,0,3.86A2.37,2.37,0,0,1,49,37.75c-2.6,0-5.21,0-7.81,0a2.28,2.28,0,0,1-2.32-2.32c0-2.6,0-5.2,0-7.81a2.4,2.4,0,0,1,2.37-2.35c2.58.06,5.16,0,7.73,0a2.16,2.16,0,0,1,2.37,2.36C51.32,28.93,51.31,30.22,51.31,31.51Z"/><path class="cls-4" d="M52.6,31.46c0-1.26.06-2.53,0-3.79A2.46,2.46,0,0,1,55,25.26c2.53.07,5.06,0,7.59,0a2.4,2.4,0,0,1,2.51,2.51c0,2.48,0,5,0,7.44a2.36,2.36,0,0,1-2.51,2.52c-1,0-2.1,0-3.15,0-1.38,0-2.77,0-4.15,0A3.26,3.26,0,0,1,54,37.52a2.12,2.12,0,0,1-1.41-2.05C52.6,34.13,52.6,32.8,52.6,31.46Z"/><path class="cls-1" d="M155.05,76a4.15,4.15,0,0,1-2.89,1,3.15,3.15,0,0,1-3.4-3.21c-.07-2,0-4.1,0-6.16,0-.56.11-.66.68-.67.81,0,1.63,0,2.44,0,.64,0,.74.1.74.76,0,1.41,0,2.82,0,4.23a6.23,6.23,0,0,0,.14,1.13.85.85,0,0,0,.84.74c.47,0,1,0,1.17-.49a3,3,0,0,0,.26-1.09c0-1,0-2,0-2.94,0-.48,0-.95,0-1.43,0-.84.07-.91.88-.91h2.15c.51,0,1,0,1.51,0,.83,0,.88-.06.89-.9,0-.45,0-.9,0-1.36s.13-.58.61-.6c.89,0,1.77,0,2.65,0,.48,0,.58.12.6.61s0,1,0,1.5.11.75.7.73c1.33,0,1.16.24,1.17,1.22v.14c0,1.07,0,1.07-1.07,1.1-.71,0-.79.09-.8.78,0,.86,0,1.72,0,2.58s.21,1,1,1.07.85.08.86.87c0,.5,0,1,0,1.51s-.16.61-.61.62a26,26,0,0,1-2.79,0,2.34,2.34,0,0,1-2.33-2.56c0-1.34,0-2.67,0-4a.83.83,0,0,0-1.3-.76.6.6,0,0,0-.23.39,2.81,2.81,0,0,0,0,.65c0,1.81,0,3.63,0,5.44,0,.76-.12.87-.88.88-.59,0-1.19,0-1.79,0C155.37,76.86,155.37,76.86,155.05,76Z"/><path class="cls-1" d="M128.79,68l0-.26c.07-.68.1-.72.77-.75h.15c.73,0,.79-.08.8-.85,0-.43,0-.86,0-1.29,0-.61.11-.71.71-.72.84,0,1.68,0,2.51,0,.52,0,.63.12.65.64s0,1,0,1.58.12.61.65.64h.78c.34,0,.55.16.56.51s0,1,0,1.44a.45.45,0,0,1-.5.48l-.93,0a.47.47,0,0,0-.54.52c0,1,0,2,0,3.08,0,.53.33.77.9.82,1.08.09,1.08.09,1.08,1.16,0,.4,0,.81,0,1.21s-.15.62-.61.63a23.86,23.86,0,0,1-2.93,0,2.42,2.42,0,0,1-2.32-2.54c0-1.15,0-2.29,0-3.44v-.72c0-.25,0-.57-.3-.66s-.69-.15-.92.17a.88.88,0,0,1-.81.35h-2.08a.87.87,0,0,1-.82-.45,1.25,1.25,0,0,0-1.44-.51c-.25.07-.47.22-.44.49a.71.71,0,0,0,.33.48,3.82,3.82,0,0,0,.89.27c.81.19,1.64.32,2.43.56a2.79,2.79,0,0,1,2,1.71,3,3,0,0,1-1.23,3.63,4.72,4.72,0,0,1-1.24.54,7.39,7.39,0,0,1-5.63-.47,2.92,2.92,0,0,1-1.56-2.19c-.07-.44,0-.6.47-.61.89,0,1.77,0,2.65,0a.73.73,0,0,1,.66.46,1.34,1.34,0,0,0,1.78.56,1,1,0,0,0,.48-.57c.08-.3-.2-.47-.46-.54-.43-.13-.88-.21-1.32-.32a21.75,21.75,0,0,1-2.27-.63,2.35,2.35,0,0,1-1.75-2,2.63,2.63,0,0,1,1.31-2.92,5.22,5.22,0,0,1,1.12-.47,8,8,0,0,1,4.45,0A12.45,12.45,0,0,1,128.79,68Z"/><path class="cls-3" d="M72.47,50.5H69.32a2,2,0,0,1-2-1.78,4.09,4.09,0,0,1-.09-.85c0-1.77,0-3.54,0-5.3a4.46,4.46,0,0,1,.17-1.2A1.63,1.63,0,0,1,69.12,40c1.33,0,2.67,0,4,0h2.64a1.7,1.7,0,0,1,1.92,1.53,4.15,4.15,0,0,1,.12.92c0,1.82,0,3.63,0,5.44a3.48,3.48,0,0,1,0,.57,2.09,2.09,0,0,1-2.29,2c-1,0-2,0-3,0Z"/><path class="cls-3" d="M50.31,72.63c0,1.07,0,2.14,0,3.22a1.83,1.83,0,0,1-1.94,2c-2.17,0-4.35,0-6.52,0A1.93,1.93,0,0,1,40,76.39a2.58,2.58,0,0,1-.11-.78q0-3,0-6.08a1.91,1.91,0,0,1,1-1.85,2,2,0,0,1,.94-.26c2.2,0,4.39,0,6.59,0a1.84,1.84,0,0,1,1.94,2C50.32,70.48,50.31,71.55,50.31,72.63Z"/><path class="cls-3" d="M17.68,40H20.9a1.83,1.83,0,0,1,2,2c0,2.05,0,4.1,0,6.15a1.94,1.94,0,0,1-.88,1.85,3.75,3.75,0,0,1-1.49.4,17.7,17.7,0,0,1-1.93,0c-1.19,0-2.38,0-3.57,0A4.81,4.81,0,0,1,14,50.37a1.79,1.79,0,0,1-1.51-1.82c0-2.24,0-4.48,0-6.72A1.87,1.87,0,0,1,14.39,40C15.48,40.08,16.58,40,17.68,40Z"/><path class="cls-3" d="M50.31,17.81c0,1.05,0,2.1,0,3.15a1.87,1.87,0,0,1-2,2c-2.12,0-4.25,0-6.37,0a2,2,0,0,1-2-2c0-2.15,0-4.29,0-6.44A2,2,0,0,1,42,12.54c2.08,0,4.15,0,6.23,0a2.74,2.74,0,0,1,.63.09,1.74,1.74,0,0,1,1.49,1.82c0,1.12,0,2.24,0,3.36Z"/><path class="cls-2" d="M58.82,67.41H61.9a1.94,1.94,0,0,1,2.15,2.12q0,3,0,6.08a2,2,0,0,1-2.22,2.25q-3.07,0-6.16,0A2,2,0,0,1,53.6,75.8c0-2.15,0-4.3,0-6.44a1.84,1.84,0,0,1,1.93-2C56.63,67.39,57.73,67.41,58.82,67.41Z"/><path class="cls-2" d="M58.72,23c-1,0-2.06,0-3.08,0a1.88,1.88,0,0,1-2-2.06c0-2.07,0-4.15,0-6.22a1.94,1.94,0,0,1,2.12-2.17c2.07,0,4.15,0,6.22,0a2,2,0,0,1,2.11,2.14q0,3.15,0,6.3a1.91,1.91,0,0,1-2,2H58.72Z"/><path class="cls-4" d="M12.48,72.57c0-1,0-2,0-3a2,2,0,0,1,2.12-2.15h6.16a2,2,0,0,1,2.17,2.14c0,2,0,4,0,6a2.06,2.06,0,0,1-2.18,2.29c-.69,0-1.39,0-2.08,0-1.19,0-2.39,0-3.58,0A4.71,4.71,0,0,1,14,77.75a1.91,1.91,0,0,1-1.55-1.89c0-1.1,0-2.2,0-3.29Z"/><path class="cls-4" d="M12.48,31.49c0-1,0-2,0-3a2,2,0,0,1,2.22-2.19h6a2,2,0,0,1,2.22,2.17q0,3,0,6.09A2,2,0,0,1,21,36.71a4.57,4.57,0,0,1-.64,0h-5.3a4.57,4.57,0,0,1-.64,0,2,2,0,0,1-1.94-2.22C12.47,33.49,12.48,32.49,12.48,31.49Z"/><path class="cls-4" d="M72.48,64.11c-1,0-2.1,0-3.15,0a1.79,1.79,0,0,1-1.84-1.2,2.79,2.79,0,0,1-.13-.91c0-2.08,0-4.15,0-6.23,0-1.33.7-1.91,2-2.09a7.76,7.76,0,0,1,1.08,0c1.62,0,3.24,0,4.86,0a5.1,5.1,0,0,1,1.39.26,1.48,1.48,0,0,1,1,1.21,9.09,9.09,0,0,1,.18,1.56c0,1.45,0,2.91,0,4.36a9.09,9.09,0,0,1-.18,1.56A1.81,1.81,0,0,1,75.7,64.1C74.63,64.13,73.55,64.11,72.48,64.11Z"/><path class="cls-1" d="M113.19,67.71l.65-.39a4.19,4.19,0,0,1,3.92-.21,2.79,2.79,0,0,1,1.73,2.6c.05,2.14,0,4.29,0,6.44,0,.57-.16.69-.75.71q-1.19,0-2.37,0c-.61,0-.74-.15-.74-.79,0-1.45,0-2.91,0-4.36a4.91,4.91,0,0,0,0-.86,1,1,0,0,0-1-1,1.15,1.15,0,0,0-1.24.76,3.11,3.11,0,0,0-.16,1.05c0,1.41,0,2.82,0,4.22,0,.86-.1.95-.94,1s-1.44,0-2.15,0-.78-.14-.78-.75c0-2.82,0-5.63,0-8.45,0-.56.11-.67.68-.68.74,0,1.48,0,2.21,0S112.91,67,113.19,67.71Z"/><path class="cls-1" d="M170,72.93a1.64,1.64,0,0,0,2.5,1.31,2.8,2.8,0,0,1,1.63-.39c.78,0,1.56,0,2.3,0a.76.76,0,0,1-.13.88A4.53,4.53,0,0,1,174,76.62a6.47,6.47,0,0,1-5.71-.54,4.1,4.1,0,0,1-1.87-2.61,5.42,5.42,0,0,1,.75-4.65,4.81,4.81,0,0,1,2.77-1.9,6.82,6.82,0,0,1,3.8.16,4,4,0,0,1,2.73,2.63,15.07,15.07,0,0,1,.5,2.51c.06.4-.12.57-.53.62-.21,0-.43,0-.64,0H170.9C170.63,72.86,170.35,72.9,170,72.93Zm3-2.25a1.47,1.47,0,0,0-2.93,0C171.09,70.72,172.07,70.71,173.05,70.68Z"/><path class="cls-1" d="M144.55,64.11c.43,0,.86,0,1.28,0s.59.12.62.6,0,1.05,0,1.58.11.65.68.68h.78a.49.49,0,0,1,.53.54v1.36a.49.49,0,0,1-.54.53c-.29,0-.58,0-.86,0-.46,0-.57.12-.58.55,0,1,0,1.91,0,2.86,0,.76.32,1,1.09,1s.87.07.88.93c0,.45,0,.9,0,1.36s-.14.7-.67.71a23.24,23.24,0,0,1-2.64,0,2.37,2.37,0,0,1-2.47-2.21,16.32,16.32,0,0,1-.09-1.71c0-.91,0-1.82,0-2.73,0-.67-.07-.73-.73-.77s-.83-.08-.84-.89c0-.33,0-.66,0-1a.48.48,0,0,1,.52-.55h.07c1-.1,1-.1,1-1.11,0-.38,0-.76,0-1.14s.12-.59.6-.62S144.09,64.11,144.55,64.11Z"/><path class="cls-2" d="M7.89,45.26c0,.76,0,1.52,0,2.28A1.44,1.44,0,0,1,6.7,49.1a4.13,4.13,0,0,1-.85.11H2.06a3.45,3.45,0,0,1-.64-.05A1.54,1.54,0,0,1,0,47.53q0-2.33,0-4.65c0-1.06.55-1.55,1.63-1.55H6.3c1.09,0,1.57.49,1.59,1.57C7.9,43.68,7.89,44.47,7.89,45.26Z"/><path class="cls-4" d="M90.14,17.78c0,.74,0,1.48,0,2.22,0,1.17-.55,1.69-1.73,1.7q-2.22,0-4.44,0a1.53,1.53,0,0,1-1.7-1.62c0-1.53,0-3.06,0-4.58a1.54,1.54,0,0,1,1.41-1.63,2,2,0,0,1,.42,0h4.37a2.1,2.1,0,0,1,.43.05,1.47,1.47,0,0,1,1.23,1.46c0,.81,0,1.62,0,2.44Z"/><path class="cls-4" d="M72.49,90.19c-.79,0-1.58,0-2.36,0a1.36,1.36,0,0,1-1.49-1.25,7.81,7.81,0,0,1-.13-1.27c0-.91,0-1.81,0-2.72,0-.12,0-.24,0-.36.14-1.56.42-2.22,2.21-2.15,1.33.06,2.67,0,4,0a1.47,1.47,0,0,1,1.71,1.42,3.44,3.44,0,0,1,.08.78q0,1.68,0,3.36a4.48,4.48,0,0,1,0,.64c-.18,1.13-.73,1.62-1.84,1.54H72.49Z"/><path class="cls-4" d="M58.8,7.94H56.44c-1,0-1.51-.45-1.53-1.41,0-1.64,0-3.29,0-4.94A1.31,1.31,0,0,1,56.4.21h4.87a1.37,1.37,0,0,1,1.48,1.42c0,1.62,0,3.24,0,4.87a1.35,1.35,0,0,1-1.51,1.44Z"/><path class="cls-1" d="M104.75,71.85c0-1.36,0-2.72,0-4.08,0-.7.09-.78.79-.79s1.57,0,2.36,0c.61,0,.71.11.72.71,0,1.24,0,2.49,0,3.73,0,1.45,0,2.91,0,4.36,0,1-.06,1.08-1.11,1.08-.64,0-1.29,0-1.93,0s-.82-.13-.83-.85C104.74,74.62,104.75,73.24,104.75,71.85Z"/><path class="cls-1" d="M140.58,71.85c0,1.36,0,2.72,0,4.07,0,.85-.1.94-1,.94-.69,0-1.39,0-2.08,0s-.83-.18-.83-.87q0-4.12,0-8.23c0-.69.09-.77.79-.78s1.58,0,2.36,0c.61,0,.71.11.72.72,0,1.38,0,2.76,0,4.15Z"/><path class="cls-3" d="M1,86.3c0-.57,0-1.14,0-1.72,0-.8.36-1.2,1.17-1.24,1.2,0,2.39,0,3.58,0a1.2,1.2,0,0,1,1.18,1A2.07,2.07,0,0,1,7,84.8c0,1,0,2,0,3s-.52,1.51-1.57,1.52-1.91,0-2.87,0a2.75,2.75,0,0,1-.57,0,1.07,1.07,0,0,1-1-1.12A.61.61,0,0,1,1,88Z"/><path class="cls-2" d="M1,17.8c0-.58,0-1.15,0-1.72a1.13,1.13,0,0,1,1.25-1.25c1.14,0,2.29,0,3.44,0a1.16,1.16,0,0,1,1.21.91,2.37,2.37,0,0,1,.1.7c0,.93,0,1.87,0,2.8a1.4,1.4,0,0,1-1.59,1.59c-1,0-1.91,0-2.87,0a2.24,2.24,0,0,1-.63-.1A1.2,1.2,0,0,1,1,19.52V17.8Z"/><path class="cls-2" d="M75.52,4.13c0,.53,0,1,0,1.58a1.28,1.28,0,0,1-1.34,1.36c-1.1,0-2.19,0-3.29,0a1.28,1.28,0,0,1-1.36-1.34c0-1.09,0-2.19,0-3.29a1.28,1.28,0,0,1,1.35-1.36c1.09,0,2.19,0,3.28,0a1.32,1.32,0,0,1,1.38,1.41V4.13Z"/><path class="cls-2" d="M86.21,69.7c.6,0,1.2,0,1.79,0a1,1,0,0,1,1.17.93,1.5,1.5,0,0,1,.09.42c0,1,0,2.1,0,3.14a1.52,1.52,0,0,1-.12.56,1.16,1.16,0,0,1-1.14.82c-1.17,0-2.34,0-3.51,0a1.12,1.12,0,0,1-1.22-1.27c0-1.14,0-2.29,0-3.43a1.07,1.07,0,0,1,1.15-1.17h1.79Z"/><path class="cls-1" d="M138.61,66.11c-.45,0-.91,0-1.36,0a.49.49,0,0,1-.54-.53V63.94a.48.48,0,0,1,.53-.54H140a.48.48,0,0,1,.54.53c0,.55,0,1.1,0,1.64a.48.48,0,0,1-.53.54c-.48,0-.95,0-1.43,0Z"/><path class="cls-1" d="M106.69,66.12c-.46,0-.91,0-1.36,0s-.55-.13-.57-.57,0-1.05,0-1.57.13-.56.57-.57c.9,0,1.81,0,2.72,0,.43,0,.54.13.56.57a13.71,13.71,0,0,1,0,1.57c0,.44-.13.55-.56.57S107.14,66.12,106.69,66.12Z"/><path class="cls-1" d="M173.05,70.68c-1,0-2,0-2.93,0a1.47,1.47,0,0,1,2.93,0Z"/></svg>