<svg id="Layer_1" data-name="Layer 1" xmlns="http://www.w3.org/2000/svg" viewBox="0 0 421.84 90.2"><defs><style>.cls-1,.cls-3{fill:#a52020;}.cls-2{fill:#fff;}.cls-3{font-size:51.23px;font-family:Lato-Bold, Lato;font-weight:700;}.cls-4{letter-spacing:-0.01em;}.cls-5{letter-spacing:-0.01em;}.cls-6{letter-spacing:-0.01em;}.cls-7{letter-spacing:-0.02em;}.cls-8{letter-spacing:-0.02em;}.cls-9{letter-spacing:-0.02em;}.cls-10{letter-spacing:0em;}.cls-11{letter-spacing:-0.02em;}.cls-12{letter-spacing:0em;}.cls-13{letter-spacing:0em;}.cls-14{letter-spacing:-0.01em;}.cls-15{letter-spacing:-0.01em;}</style></defs><title>logo_marcotte</title><circle class="cls-1" cx="45" cy="45.2" r="45"/><path class="cls-2" d="M65.4,28.06V65.69H59.23V41.39c0-1,.06-2,.16-3.15L48,59.6a2.64,2.64,0,0,1-2.47,1.54h-1a2.63,2.63,0,0,1-2.47-1.54L30.58,38.16c.06.57.1,1.14.14,1.69s.05,1.07.05,1.54v24.3H24.6V28.06h5.28q.47,0,.81,0a2.27,2.27,0,0,1,.61.13,1.35,1.35,0,0,1,.5.34,3,3,0,0,1,.42.62l11.27,20.9c.3.55.57,1.13.82,1.71s.5,1.2.74,1.83c.25-.65.5-1.27.76-1.86s.53-1.18.83-1.73L57.75,29.18a2.68,2.68,0,0,1,.44-.62,1.47,1.47,0,0,1,.51-.34,2.27,2.27,0,0,1,.61-.13q.34,0,.81,0Z"/><text class="cls-3" transform="translate(95.67 64.28)"><tspan class="cls-4">M</tspan><tspan class="cls-5" x="47.79" y="0">a</tspan><tspan class="cls-6" x="73.25" y="0">r</tspan><tspan class="cls-7" x="91.61" y="0">c</tspan><tspan class="cls-8" x="115.04" y="0">o</tspan><tspan class="cls-9" x="143.28" y="0">tt</tspan><tspan class="cls-10" x="178.24" y="0">e </tspan><tspan class="cls-11" x="218.05" y="0">e</tspan><tspan class="cls-12" x="244.49" y="0">t</tspan><tspan class="cls-13" x="263.56" y="0">.</tspan><tspan class="cls-14" x="275.9" y="0">a</tspan><tspan class="cls-15" x="301.35" y="0">l</tspan><tspan x="313.68" y="0">.</tspan></text></svg>