<svg id="Layer_1" data-name="Layer 1" xmlns="http://www.w3.org/2000/svg" xmlns:xlink="http://www.w3.org/1999/xlink" viewBox="0 0 358.5 90.2"><defs><style>.cls-1{fill:#0079c1;}.cls-2{fill:#231f20;}.cls-3{clip-path:url(#clip-path);}.cls-4{fill:#fff;}</style><clipPath id="clip-path"><polygon id="SVGID" class="cls-1" points="0 1.81 81.45 1.81 81.45 90.02 0 90.02 0 1.81 0 1.81"/></clipPath></defs><title>company_logos</title><path class="cls-2" d="M109.46,89.82h-8.23V88.58h2.23V71.64h-2.23V70.41h8.23v1.23h-2.2V88.58h2.2Z"/><path class="cls-2" d="M141.55,90.14h-2.06L129.25,75.73V88.58h2.33v1.24h-6.65V88.58h2.44V73.14l-.94-1.5h-2.12V70.41h5.86L139.7,84V71.64h-2.33V70.41H144v1.23h-2.47Z"/><path class="cls-2" d="M161.72,90.08h-1.61V84.79h1.61V87a5.5,5.5,0,0,0,3.77,1.44c1.82,0,3.14-1.09,3.14-2.62,0-1.33-.85-2.27-3.58-4-2.89-1.82-3.24-2.12-4-3a5,5,0,0,1-1.12-3.32c0-3.24,2.38-5.39,6-5.39a7.54,7.54,0,0,1,3.17.65v-.88h1.59v5h-1.59v-2A5.2,5.2,0,0,0,166,71.73a2.57,2.57,0,0,0-2.71,2.47c0,1.18.68,1.91,3.5,3.71,1.35.88,2.21,1.41,2.53,1.64a6.5,6.5,0,0,1,1.79,1.92,5.75,5.75,0,0,1-5,8.73,7.81,7.81,0,0,1-4.3-1.15Z"/><path class="cls-2" d="M200.16,89.82h-9.47V88.58h2.85V72.14h-5.08v2.44h-1.62v-5h1.62v.83H202.4v-.83H204v5H202.4V72.14h-5.06V88.58h2.82Z"/><path class="cls-2" d="M224.94,89.82H216.7V88.58h2.24V71.64H216.7V70.41h8.24v1.23h-2.21V88.58h2.21Z"/><path class="cls-2" d="M250.4,89.82h-9.47V88.58h2.85V72.14h-5.09v2.44h-1.62v-5h1.62v.83h13.94v-.83h1.62v5h-1.62V72.14h-5.06V88.58h2.83Z"/><path class="cls-2" d="M289,71.64h-2.47V82.7c0,3.32-1.15,5.41-3.65,6.59a10.2,10.2,0,0,1-4.26.91c-4.76,0-7.85-2.62-7.85-6.68V71.64h-2.24V70.41h8.24v1.23h-2.21v11c0,3,.53,4.33,2,5.12a5.58,5.58,0,0,0,2.44.56c3.53,0,5.59-2.09,5.59-5.68V71.67h-2.44V70.41H289Z"/><path class="cls-2" d="M316,89.82h-9.47V88.58h2.85V72.14h-5.09v2.44h-1.62v-5h1.62v.83h13.94v-.83h1.62v5h-1.62V72.14h-5.06V88.58H316Z"/><path class="cls-2" d="M348.12,89.82h-14V88.58h2.24V71.64h-2.24V70.41h12.12v-.83h1.59v4.68h-1.56V72.14h-6.12v6.94h4.71v-2l1.58,0v5.8l-1.58,0V80.82h-4.71v7.26h6.38V85.91h1.59Z"/><path class="cls-2" d="M97.88,55.8v-3H104V4.94H97.88v-3H122.7A13.41,13.41,0,0,1,136.17,15.3c0,6.13-5.39,11.52-12,12.09a17.56,17.56,0,0,1,6.61,1.71,13.62,13.62,0,0,1,8,12.66c0,8-6.21,14-14.54,14ZM111.19,26h8.33c5.3,0,9.06-4.33,9.06-10.37,0-5.71-3.51-10-8.33-10h-9.06Zm0,26.13h9.14c6.86,0,11-4.08,11-10.78s-4.66-11.68-11-11.68h-9.14Z"/><path class="cls-2" d="M194.31,55.8h-6.94c-4.82,0-5.72-.49-8.41-4.81L166.79,31.63h-6.37V52.78h6.13v3H147.11v-3h6.13V4.94h-6.13v-3h22.7c7.92,0,12.41,2.21,14.86,7.27a16.7,16.7,0,0,1,1.63,7.27c0,7.92-4.41,13-12.24,14.12L185.81,48.7c2,3,3.27,4,5.31,4h3.19ZM160.42,27.88h7.84c6.2,0,10.53-4.57,10.53-11.27,0-7-3.83-10.94-10.69-10.94h-7.68Z"/><path class="cls-2" d="M196.51,28.94c0-15.35,11.92-28,26.37-28C237.09.94,249,13.67,249,28.86s-11.92,28-26.13,28C208.51,56.86,196.51,44.13,196.51,28.94Zm8.08-.08c0,13.8,7.68,23.76,18.29,23.76,10.45,0,18.05-10,18.05-23.76s-7.6-23.68-18-23.68C212.27,5.18,204.59,15,204.59,28.86Z"/><path class="cls-2" d="M302,55.8H283.34v-3h6.53l-5.71-14.7L263.25,38l-6,14.7h6.78v3.1H248.48V52.7h4.24L274,.2h2.94L297.3,52.7H302ZM282.77,34.17l-8.74-23-9.22,23Z"/><path class="cls-2" d="M307.1,55.8v-3h6.12V4.94H307.1v-3h24.08a26.85,26.85,0,0,1,26.7,26.87,26.64,26.64,0,0,1-26.78,27Zm13.31-4.08h9.8c11.18,0,19.67-9.88,19.59-22.86,0-12.58-8.65-22.78-19.43-22.78h-10Z"/><polygon id="SVGID-2" data-name="SVGID" class="cls-1" points="0 1.81 81.45 1.81 81.45 90.02 0 90.02 0 1.81 0 1.81"/><g class="cls-3"><path class="cls-4" d="M268.6,67.55q-6.09-6.34-12.7-12.11,5.28-4.65,10.23-9.69c.82.75,1.65,1.5,2.47,2.27-.78-.81-1.56-1.6-2.35-2.4l.94-.95-1,.9q-4.95-5-10.23-9.61,5.8-5.13,11.22-10.71-5.7,5.31-11.86,10.14-5.51-4.76-11.33-9.1A194.75,194.75,0,0,0,267.19,5.83a190.94,190.94,0,0,1-24.66,19.4,185,185,0,0,0-219.12,0A189.94,189.94,0,0,1-2,5.22,194.06,194.06,0,0,0,21.9,26.38q-5.8,4.34-11.29,9.09Q4.06,30.31-2,24.64q5.73,6,11.93,11.42Q4.67,40.67-.27,45.65c-.57-.53-1.16-1-1.73-1.59.54.57,1.1,1.12,1.65,1.68-.55.55-1.11,1.1-1.65,1.66.57-.53,1.16-1,1.73-1.57q5,5,10.26,9.71C5.85,59.17,1.84,63-2,66.94q6.07-5.65,12.67-10.79,5.52,4.8,11.38,9.19A196,196,0,0,0-2,86.47a190.37,190.37,0,0,1,25.57-20,184.38,184.38,0,0,0,109.33,36,184.32,184.32,0,0,0,109.38-36A190.73,190.73,0,0,1,268.6,87.09a195,195,0,0,0-24.76-21.84q5.83-4.36,11.34-9.18Q262.17,61.52,268.6,67.55Zm-2.53-21.86q-5.22,4.79-10.81,9.18-5.5-4.77-11.34-9.1,5.84-4.37,11.33-9.18Q260.85,41,266.07,45.69ZM254.52,36q-5.85,4.56-12.07,8.67-6.27-4.56-12.88-8.6,6.62-4.07,12.87-8.65Q248.67,31.53,254.52,36ZM133,28.39a184,184,0,0,0-73.9,15.43q-8.7-3.43-17-7.64a202.87,202.87,0,0,1,181.6,0q-8.22,4.19-16.9,7.63A183.93,183.93,0,0,0,133,28.39ZM201.06,46A201.44,201.44,0,0,1,132.9,57.74,200.9,200.9,0,0,1,64.84,46a203.93,203.93,0,0,1,136.22,0ZM54.37,46Q46.55,49.65,39.13,54,32,50.23,25.21,45.86q6.7-4.29,13.81-8C44,40.75,49.12,43.48,54.37,46Zm4.74,2.15A183.11,183.11,0,0,0,132.9,63.58a183,183,0,0,0,73.85-15.49q8.66,3.4,16.88,7.56A199.65,199.65,0,0,1,132.9,77.16a199.66,199.66,0,0,1-90.65-21.5Q50.46,51.52,59.11,48.11Zm152.4-2.2q7.86-3.72,15.32-8.14,7.13,3.76,13.86,8.07c-4.49,2.89-9.12,5.62-13.88,8.15Q219.36,49.61,211.51,45.91ZM133-4.81A199.43,199.43,0,0,1,240.77,26.36q-6.72,4.35-13.85,8.15a184.7,184.7,0,0,0-187.9,0q-7.14-3.81-13.9-8.16A199.45,199.45,0,0,1,133-4.81ZM23.41,27.5q6.27,4.59,12.91,8.67-6.59,4-12.83,8.58-6.24-4.12-12.13-8.68Q17.2,31.56,23.41,27.5ZM-.17,45.74Q5,41,10.61,36.66q5.5,4.81,11.36,9.2-5.8,4.32-11.29,9.08Q5.07,50.53-.17,45.74Zm11.61,9.8q5.83-4.5,12-8.56,6.29,4.6,12.92,8.67-6.58,4-12.83,8.57C19.41,61.48,15.35,58.59,11.44,55.54Zm121.46,41A198.42,198.42,0,0,1,25.3,65.34c4.47-2.86,9.09-5.55,13.82-8.05A183.71,183.71,0,0,0,132.9,83a183.58,183.58,0,0,0,93.83-25.75q7.13,3.77,13.87,8.07A198.53,198.53,0,0,1,132.9,96.58Zm109.46-32.4q-6.26-4.56-12.88-8.6,6.61-4.06,12.88-8.65,6.22,4.07,12.09,8.58Q248.58,60.06,242.36,64.18Z"/></g></svg>