<svg id="Layer_1" data-name="Layer 1" xmlns="http://www.w3.org/2000/svg" viewBox="0 0 546.8 185.47"><defs><style>.cls-1{fill:none;stroke:#bcbcbc;stroke-miterlimit:10;stroke-width:0.5px;}.cls-2{fill:#adadad;}.cls-3{fill:#a9529e;}</style></defs><title>PED-GI_DEP</title><line class="cls-1" x1="164.82" y1="15.39" x2="164.82" y2="185.47"/><line class="cls-1" x1="213.82" y1="14.95" x2="213.82" y2="185.47"/><line class="cls-1" x1="116.18" y1="14.95" x2="116.18" y2="185.47"/><path class="cls-2" d="M119.14,7.45A5.45,5.45,0,0,1,119,8.93a2.89,2.89,0,0,1-.51,1,2,2,0,0,1-.77.61,2.16,2.16,0,0,1-1,.2,2.2,2.2,0,0,1-1-.2A1.93,1.93,0,0,1,115,10a3.05,3.05,0,0,1-.5-1,5.45,5.45,0,0,1-.18-1.48A5.48,5.48,0,0,1,114.51,6a3.15,3.15,0,0,1,.5-1,2,2,0,0,1,.76-.61,2.36,2.36,0,0,1,1-.2,2.31,2.31,0,0,1,1,.2,2,2,0,0,1,.77.61A3,3,0,0,1,119,6,5.48,5.48,0,0,1,119.14,7.45Zm-1.28,0a5.22,5.22,0,0,0-.1-1.15,2.32,2.32,0,0,0-.25-.71,1,1,0,0,0-.36-.36.94.94,0,0,0-.42-.11.88.88,0,0,0-.42.11,1,1,0,0,0-.36.36,2.62,2.62,0,0,0-.25.71,6,6,0,0,0-.09,1.15,6,6,0,0,0,.09,1.14,2.62,2.62,0,0,0,.25.71,1,1,0,0,0,.36.37.87.87,0,0,0,.42.1.92.92,0,0,0,.42-.1,1,1,0,0,0,.36-.37,2.32,2.32,0,0,0,.25-.71A5.18,5.18,0,0,0,117.86,7.45Z"/><path class="cls-2" d="M213.91,8.22v.7a.22.22,0,0,1-.07.17.21.21,0,0,1-.18.07h-.51v1.55h-1.08V9.16h-2.69a.36.36,0,0,1-.22-.07.29.29,0,0,1-.11-.19l-.14-.62L212,4.18h1.18v4Zm-1.84,0V6.28c0-.11,0-.22,0-.33a2.19,2.19,0,0,1,0-.36l-1.89,2.63Z"/><path class="cls-2" d="M219.14,7.45A5.45,5.45,0,0,1,219,8.93a2.89,2.89,0,0,1-.51,1,2,2,0,0,1-.77.61,2.16,2.16,0,0,1-1,.2,2.2,2.2,0,0,1-1-.2A1.93,1.93,0,0,1,215,10a3.05,3.05,0,0,1-.5-1,5.45,5.45,0,0,1-.18-1.48A5.48,5.48,0,0,1,214.51,6a3.15,3.15,0,0,1,.5-1,2,2,0,0,1,.76-.61,2.36,2.36,0,0,1,1-.2,2.31,2.31,0,0,1,1,.2,2,2,0,0,1,.77.61A3,3,0,0,1,219,6,5.48,5.48,0,0,1,219.14,7.45Zm-1.28,0a5.22,5.22,0,0,0-.1-1.15,2.32,2.32,0,0,0-.25-.71,1,1,0,0,0-.36-.36.94.94,0,0,0-.42-.11.88.88,0,0,0-.42.11,1,1,0,0,0-.36.36,2.62,2.62,0,0,0-.25.71,6,6,0,0,0-.09,1.15,6,6,0,0,0,.09,1.14,2.62,2.62,0,0,0,.25.71,1,1,0,0,0,.36.37.87.87,0,0,0,.42.1.92.92,0,0,0,.42-.1,1,1,0,0,0,.36-.37,2.32,2.32,0,0,0,.25-.71A5.18,5.18,0,0,0,217.86,7.45Z"/><path class="cls-2" d="M147.08,6,147,6.5a.46.46,0,0,1-.16.27.66.66,0,0,1-.39.09h-.37L145.86,8h.57a.34.34,0,0,1,.27.11.58.58,0,0,1,0,.39l-.06.38h-.93l-.34,1.81h-.57a.29.29,0,0,1-.16,0,.32.32,0,0,1-.12-.11.48.48,0,0,1-.08-.16.41.41,0,0,1,0-.19l.23-1.31h-.83l-.25,1.37a.47.47,0,0,1-.2.34.6.6,0,0,1-.35.1h-.55l.33-1.81h-.47a.31.31,0,0,1-.27-.11.54.54,0,0,1,0-.38l.06-.39H143l.21-1.16h-.93l.09-.51a.46.46,0,0,1,.16-.28A.66.66,0,0,1,142.9,6h.41l.26-1.39a.52.52,0,0,1,.18-.3.58.58,0,0,1,.34-.11h.57L144.33,6h.84l.33-1.8h.55a.4.4,0,0,1,.31.12.32.32,0,0,1,.09.3L146.19,6Zm-2,.88h-.84L144,8h.84Z"/><path class="cls-2" d="M151.91,6a2.63,2.63,0,0,1,1,.17,2.13,2.13,0,0,1,.73.47,2.08,2.08,0,0,1,.47.75,2.61,2.61,0,0,1,.17,1,2.62,2.62,0,0,1-.17,1,1.92,1.92,0,0,1-.47.75,2,2,0,0,1-.73.48,2.63,2.63,0,0,1-1,.17,2.69,2.69,0,0,1-1-.17,2,2,0,0,1-.73-.48,1.94,1.94,0,0,1-.48-.75,3,3,0,0,1,0-2,2.1,2.1,0,0,1,.48-.75,2.13,2.13,0,0,1,.73-.47A2.69,2.69,0,0,1,151.91,6Zm0,3.85a.92.92,0,0,0,.79-.37A1.91,1.91,0,0,0,153,8.39a1.93,1.93,0,0,0-.25-1.09,1.06,1.06,0,0,0-1.59,0,1.93,1.93,0,0,0-.26,1.09,1.9,1.9,0,0,0,.26,1.09A.92.92,0,0,0,151.91,9.85Z"/><path class="cls-2" d="M155.35,10.71V7L155,6.9a.54.54,0,0,1-.23-.1.29.29,0,0,1-.08-.21V6.1h.67V5.79a1.8,1.8,0,0,1,.13-.71,1.48,1.48,0,0,1,.35-.55,1.5,1.5,0,0,1,.56-.34,2.18,2.18,0,0,1,.75-.13,1.55,1.55,0,0,1,.31,0,1.59,1.59,0,0,1,.3.06l0,.61a.2.2,0,0,1-.12.18.66.66,0,0,1-.25,0A1.76,1.76,0,0,0,157,5a.68.68,0,0,0-.25.14.61.61,0,0,0-.16.26,1.58,1.58,0,0,0,0,.41V6.1h1.15V7h-1.11v3.75Z"/><path class="cls-2" d="M163.78,7.11l-.11.11a.34.34,0,0,1-.16,0,.29.29,0,0,1-.17-.06l-.19-.11a1.27,1.27,0,0,0-.26-.11,1,1,0,0,0-.37-.05A1.06,1.06,0,0,0,162,7a.87.87,0,0,0-.34.29,1.21,1.21,0,0,0-.2.46,2.77,2.77,0,0,0-.06.6,1.77,1.77,0,0,0,.28,1.09.91.91,0,0,0,.78.38,1.32,1.32,0,0,0,.3,0l.21-.07a.62.62,0,0,0,.16-.1l.13-.1.12-.07a.32.32,0,0,1,.14,0,.25.25,0,0,1,.22.1l.36.46a2.07,2.07,0,0,1-.42.37,1.9,1.9,0,0,1-.47.24,2.72,2.72,0,0,1-.49.13,4,4,0,0,1-.49,0,2.05,2.05,0,0,1-.81-.16,1.94,1.94,0,0,1-.67-.47,2.14,2.14,0,0,1-.45-.75,2.7,2.7,0,0,1-.17-1,2.89,2.89,0,0,1,.15-.94,2.11,2.11,0,0,1,.43-.76,2,2,0,0,1,.72-.5,2.48,2.48,0,0,1,1-.18,2.45,2.45,0,0,1,.93.17,2.22,2.22,0,0,1,.72.5Z"/><path class="cls-2" d="M165.76,8.58a1.42,1.42,0,0,0,.37,1,1.13,1.13,0,0,0,.81.3,1.53,1.53,0,0,0,.45-.06,2.52,2.52,0,0,0,.33-.14l.25-.13a.49.49,0,0,1,.23-.06.26.26,0,0,1,.22.1l.36.46a1.88,1.88,0,0,1-.43.37,2.08,2.08,0,0,1-.5.24,3,3,0,0,1-.52.13l-.5,0a2.49,2.49,0,0,1-.91-.16,2.23,2.23,0,0,1-.73-.47,2.21,2.21,0,0,1-.49-.78,3,3,0,0,1-.18-1.07,2.66,2.66,0,0,1,.15-.9,2.48,2.48,0,0,1,.45-.73,2.25,2.25,0,0,1,.71-.49,2.4,2.4,0,0,1,.95-.18,2.43,2.43,0,0,1,.82.14,2,2,0,0,1,.65.41,1.82,1.82,0,0,1,.42.67,2.48,2.48,0,0,1,.15.89,1.48,1.48,0,0,1,0,.23.53.53,0,0,1-.05.15.18.18,0,0,1-.08.07.32.32,0,0,1-.14,0Zm2-.74a1.42,1.42,0,0,0-.05-.36.85.85,0,0,0-.17-.31.76.76,0,0,0-.28-.22,1,1,0,0,0-.41-.08.94.94,0,0,0-.7.26,1.21,1.21,0,0,0-.33.71Z"/><path class="cls-2" d="M170.84,4v6.71H169.6V4Z"/><path class="cls-2" d="M173.13,4v6.71h-1.24V4Z"/><path class="cls-2" d="M177.55,4v6.71h-1.24V4Z"/><path class="cls-2" d="M180,4.75a.73.73,0,0,1-.06.3.66.66,0,0,1-.17.23.74.74,0,0,1-.25.17.73.73,0,0,1-.3.06.72.72,0,0,1-.29-.06.81.81,0,0,1-.24-.17.66.66,0,0,1-.17-.23.73.73,0,0,1-.06-.3.72.72,0,0,1,.06-.29.81.81,0,0,1,.17-.24.63.63,0,0,1,.24-.16.72.72,0,0,1,.29-.06.73.73,0,0,1,.3.06.6.6,0,0,1,.25.16.81.81,0,0,1,.17.24A.72.72,0,0,1,180,4.75Zm-.15,1.32v4.64h-1.24V6.07Z"/><path class="cls-2" d="M182.08,6.61a3.47,3.47,0,0,1,.29-.25,1.69,1.69,0,0,1,.32-.19,1.39,1.39,0,0,1,.36-.12,1.45,1.45,0,0,1,.43,0,1.6,1.6,0,0,1,.67.13,1.38,1.38,0,0,1,.49.37,1.62,1.62,0,0,1,.3.55,2.34,2.34,0,0,1,.1.71v3H183.8v-3a.93.93,0,0,0-.17-.6.67.67,0,0,0-.54-.21,1.21,1.21,0,0,0-.49.11,1.6,1.6,0,0,0-.43.32v3.33h-1.24V6.07h.76a.29.29,0,0,1,.31.22Z"/><path class="cls-2" d="M187,8.58a1.47,1.47,0,0,0,.37,1,1.13,1.13,0,0,0,.82.3,1.46,1.46,0,0,0,.44-.06,2.52,2.52,0,0,0,.33-.14l.25-.13a.53.53,0,0,1,.23-.06.28.28,0,0,1,.23.1l.36.46a2.16,2.16,0,0,1-.44.37,1.92,1.92,0,0,1-.5.24,3.18,3.18,0,0,1-.51.13l-.51,0a2.44,2.44,0,0,1-.9-.16,2.28,2.28,0,0,1-.74-.47,2.21,2.21,0,0,1-.49-.78,3,3,0,0,1-.18-1.07,2.44,2.44,0,0,1,.16-.9,2.26,2.26,0,0,1,.44-.73,2.37,2.37,0,0,1,.71-.49,2.54,2.54,0,0,1,1.77,0,1.89,1.89,0,0,1,.65.41,1.82,1.82,0,0,1,.42.67,2.48,2.48,0,0,1,.15.89,1.48,1.48,0,0,1,0,.23.33.33,0,0,1,0,.15.18.18,0,0,1-.08.07.3.3,0,0,1-.14,0ZM189,7.84a1.42,1.42,0,0,0-.05-.36.83.83,0,0,0-.16-.31.8.8,0,0,0-.29-.22,1,1,0,0,0-.41-.08.94.94,0,0,0-.7.26,1.27,1.27,0,0,0-.32.71Z"/><path class="cls-2" d="M193.74,7l-.1.11a.33.33,0,0,1-.15,0,.58.58,0,0,1-.18,0,1,1,0,0,0-.21-.1,1.69,1.69,0,0,0-.27-.1,1.25,1.25,0,0,0-.35,0A.8.8,0,0,0,192,7a.38.38,0,0,0-.16.33.32.32,0,0,0,.09.23.77.77,0,0,0,.25.16c.1,0,.22.09.35.14L193,8l.41.16a1.8,1.8,0,0,1,.35.24,1,1,0,0,1,.25.34,1.22,1.22,0,0,1,.1.49,1.6,1.6,0,0,1-.13.62,1.33,1.33,0,0,1-.36.49,1.77,1.77,0,0,1-.59.33,2.91,2.91,0,0,1-.82.11,2.59,2.59,0,0,1-.48,0,3.17,3.17,0,0,1-.44-.12,2.87,2.87,0,0,1-.4-.18,2,2,0,0,1-.32-.23l.29-.46a.33.33,0,0,1,.13-.13.34.34,0,0,1,.19,0,.46.46,0,0,1,.2.05l.22.13.27.12a1.5,1.5,0,0,0,.4,0,1,1,0,0,0,.31,0,.42.42,0,0,0,.21-.11.31.31,0,0,0,.12-.16.34.34,0,0,0,0-.18.33.33,0,0,0-.1-.25,1,1,0,0,0-.25-.17,3.58,3.58,0,0,0-.36-.13l-.41-.13a2.37,2.37,0,0,1-.41-.17,1.24,1.24,0,0,1-.35-.25,1.12,1.12,0,0,1-.26-.37,1.4,1.4,0,0,1-.09-.53,1.42,1.42,0,0,1,.11-.55,1.25,1.25,0,0,1,.34-.46,1.51,1.51,0,0,1,.56-.31,2.26,2.26,0,0,1,.77-.12,2.36,2.36,0,0,1,.9.16,1.89,1.89,0,0,1,.67.43Z"/><path d="M60.49,170.15a2.42,2.42,0,0,0,.88-.16,1.9,1.9,0,0,0,.65-.47,2,2,0,0,0,.4-.71,2.58,2.58,0,0,0,.14-.9v-4.79h1.07v4.79a3.71,3.71,0,0,1-.22,1.26,3,3,0,0,1-.62,1,2.76,2.76,0,0,1-1,.67,3.7,3.7,0,0,1-2.62,0,2.76,2.76,0,0,1-1-.67,2.81,2.81,0,0,1-.62-1,3.48,3.48,0,0,1-.22-1.26v-4.79h1.06v4.78a2.94,2.94,0,0,0,.14.91,2.17,2.17,0,0,0,.41.71,1.79,1.79,0,0,0,.65.46A2.23,2.23,0,0,0,60.49,170.15Z"/><path d="M66.23,166.23a3.33,3.33,0,0,1,.39-.36,2.49,2.49,0,0,1,.43-.29,2,2,0,0,1,.48-.18,2.47,2.47,0,0,1,.56-.06,2,2,0,0,1,.8.15,1.4,1.4,0,0,1,.58.43,1.8,1.8,0,0,1,.36.67,2.88,2.88,0,0,1,.12.86V171H69v-3.55a1.51,1.51,0,0,0-.29-1,1.09,1.09,0,0,0-.88-.35,1.63,1.63,0,0,0-.81.21,3,3,0,0,0-.7.56V171h-1v-5.57h.59a.24.24,0,0,1,.26.2Z"/><path d="M76.06,162.9V171h-.59a.25.25,0,0,1-.26-.21l-.09-.67a3.3,3.3,0,0,1-.81.69,2.25,2.25,0,0,1-1.93.08,1.72,1.72,0,0,1-.66-.54,2.55,2.55,0,0,1-.43-.89,4.6,4.6,0,0,1-.15-1.23,3.9,3.9,0,0,1,.17-1.15,3,3,0,0,1,.47-.92,2.25,2.25,0,0,1,.76-.61,2.21,2.21,0,0,1,1-.22,2,2,0,0,1,.88.17,2.33,2.33,0,0,1,.65.48V162.9Zm-1,3.85a1.56,1.56,0,0,0-.6-.51,1.64,1.64,0,0,0-.71-.15,1.42,1.42,0,0,0-1.2.56,2.65,2.65,0,0,0-.41,1.58,4.19,4.19,0,0,0,.09.93,1.79,1.79,0,0,0,.27.64,1.14,1.14,0,0,0,.45.37,1.64,1.64,0,0,0,.6.11,1.55,1.55,0,0,0,.84-.22,2.28,2.28,0,0,0,.67-.62Z"/><path d="M82.13,170.22a2,2,0,0,1-.44.38,2.73,2.73,0,0,1-.54.27,3.76,3.76,0,0,1-.6.15,3.08,3.08,0,0,1-.61,0,2.81,2.81,0,0,1-1.06-.19,2.32,2.32,0,0,1-.84-.57,2.52,2.52,0,0,1-.55-.93,3.66,3.66,0,0,1-.2-1.28,3.24,3.24,0,0,1,.18-1.09,2.64,2.64,0,0,1,.51-.88,2.31,2.31,0,0,1,.82-.58,2.72,2.72,0,0,1,1.09-.21,2.4,2.4,0,0,1,.93.17,2,2,0,0,1,.73.48,2.21,2.21,0,0,1,.49.78,2.91,2.91,0,0,1,.18,1.06.69.69,0,0,1,0,.31.22.22,0,0,1-.19.07H78.26a3.43,3.43,0,0,0,.14.92,1.93,1.93,0,0,0,.36.65,1.39,1.39,0,0,0,.55.39,1.81,1.81,0,0,0,.72.13,2,2,0,0,0,.63-.08,2.91,2.91,0,0,0,.46-.19,1.82,1.82,0,0,0,.32-.18.42.42,0,0,1,.23-.09.21.21,0,0,1,.18.1Zm-.79-2.62a2.06,2.06,0,0,0-.1-.62,1.39,1.39,0,0,0-.28-.49,1.23,1.23,0,0,0-.45-.32,1.57,1.57,0,0,0-.6-.11,1.46,1.46,0,0,0-1.11.41,1.83,1.83,0,0,0-.51,1.13Z"/><path d="M83.79,171v-4.74l-.62-.07a.48.48,0,0,1-.19-.09.18.18,0,0,1-.07-.16v-.4h.88v-.31a2.58,2.58,0,0,1,.16-.94,1.79,1.79,0,0,1,.48-.73,2,2,0,0,1,.79-.48,3.14,3.14,0,0,1,1.1-.17l.43,0a1.63,1.63,0,0,1,.38.09l0,.51a.09.09,0,0,1,0,.08l-.09,0H86.6a2.06,2.06,0,0,0-1.42.41,1.58,1.58,0,0,0-.44,1.22v.28h3.37V171h-1v-4.75H84.77V171Z"/><path d="M90.64,166.23a4.27,4.27,0,0,1,.38-.36,3,3,0,0,1,.43-.29,2.05,2.05,0,0,1,.49-.18,2.38,2.38,0,0,1,.55-.06,2.09,2.09,0,0,1,.81.15,1.55,1.55,0,0,1,.58.43,1.94,1.94,0,0,1,.35.67,2.88,2.88,0,0,1,.12.86V171h-1v-3.55a1.51,1.51,0,0,0-.29-1,1.07,1.07,0,0,0-.88-.35,1.63,1.63,0,0,0-.81.21,2.78,2.78,0,0,0-.69.56V171h-1v-5.57h.59a.23.23,0,0,1,.26.2Z"/><path d="M100.37,170.22a2.25,2.25,0,0,1-.43.38,2.56,2.56,0,0,1-.55.27,3.92,3.92,0,0,1-.59.15,3.2,3.2,0,0,1-.61,0,2.87,2.87,0,0,1-1.07-.19,2.41,2.41,0,0,1-.84-.57,2.67,2.67,0,0,1-.55-.93,3.91,3.91,0,0,1-.2-1.28,3.24,3.24,0,0,1,.18-1.09,2.64,2.64,0,0,1,.51-.88,2.4,2.4,0,0,1,.82-.58,2.75,2.75,0,0,1,1.09-.21,2.37,2.37,0,0,1,.93.17,2.15,2.15,0,0,1,.74.48,2.19,2.19,0,0,1,.48.78,2.91,2.91,0,0,1,.18,1.06.69.69,0,0,1,0,.31.21.21,0,0,1-.19.07H96.5a3.43,3.43,0,0,0,.14.92,1.79,1.79,0,0,0,.37.65,1.29,1.29,0,0,0,.54.39,1.88,1.88,0,0,0,.72.13,2,2,0,0,0,.64-.08,2.77,2.77,0,0,0,.45-.19,2.45,2.45,0,0,0,.33-.18.4.4,0,0,1,.22-.09.24.24,0,0,1,.19.1Zm-.79-2.62a1.79,1.79,0,0,0-.1-.62,1.26,1.26,0,0,0-.28-.49,1.23,1.23,0,0,0-.45-.32,1.57,1.57,0,0,0-.6-.11,1.46,1.46,0,0,0-1.11.41,2,2,0,0,0-.51,1.13Z"/><path d="M106.27,162.9V171h-.59a.25.25,0,0,1-.26-.21l-.09-.67a3.3,3.3,0,0,1-.81.69,2.25,2.25,0,0,1-1.93.08,1.72,1.72,0,0,1-.66-.54,2.55,2.55,0,0,1-.43-.89,4.6,4.6,0,0,1-.15-1.23,3.9,3.9,0,0,1,.17-1.15,3,3,0,0,1,.47-.92,2.19,2.19,0,0,1,1.77-.83,2,2,0,0,1,.88.17,2.33,2.33,0,0,1,.65.48V162.9Zm-1,3.85a1.56,1.56,0,0,0-.6-.51,1.64,1.64,0,0,0-.71-.15,1.39,1.39,0,0,0-1.19.56,2.58,2.58,0,0,0-.42,1.58,4.19,4.19,0,0,0,.09.93,1.64,1.64,0,0,0,.28.64,1.11,1.11,0,0,0,.44.37,1.64,1.64,0,0,0,.6.11,1.58,1.58,0,0,0,.85-.22,2.39,2.39,0,0,0,.66-.62Z"/><path d="M42.52,61.46a4.6,4.6,0,0,1,1.25.15,2.37,2.37,0,0,1,.86.4,1.65,1.65,0,0,1,.5.65,2.16,2.16,0,0,1,.16.86,1.7,1.7,0,0,1-.36,1.06,2.26,2.26,0,0,1-1.11.71,2.4,2.4,0,0,1,1.3.62,1.65,1.65,0,0,1,.44,1.19,2.06,2.06,0,0,1-.19.91,1.87,1.87,0,0,1-.53.71,2.38,2.38,0,0,1-.88.46,3.79,3.79,0,0,1-1.17.17H40V61.46Zm-1.45.85V65h1.4a3,3,0,0,0,.79-.1,1.67,1.67,0,0,0,.55-.28,1.18,1.18,0,0,0,.32-.42,1.42,1.42,0,0,0,.1-.55,1.21,1.21,0,0,0-.41-1,2.11,2.11,0,0,0-1.3-.32Zm1.7,6.19a2.64,2.64,0,0,0,.79-.11,1.39,1.39,0,0,0,.54-.29,1.25,1.25,0,0,0,.31-.45,1.81,1.81,0,0,0,.1-.58,1.19,1.19,0,0,0-.44-1,2,2,0,0,0-1.3-.36h-1.7V68.5Z"/><path d="M46.74,64.56a3.09,3.09,0,0,1,2.18-.89,2.15,2.15,0,0,1,.83.16,1.69,1.69,0,0,1,.61.43,1.77,1.77,0,0,1,.37.66,2.63,2.63,0,0,1,.13.86v3.57h-.43a.42.42,0,0,1-.22,0,.25.25,0,0,1-.12-.19L50,68.59q-.21.19-.42.36a2.82,2.82,0,0,1-.44.26,2.67,2.67,0,0,1-.5.17,3.3,3.3,0,0,1-.58.05,2,2,0,0,1-.61-.09,1.37,1.37,0,0,1-.49-.27,1.13,1.13,0,0,1-.34-.46,1.62,1.62,0,0,1-.12-.66,1.21,1.21,0,0,1,.18-.63,1.56,1.56,0,0,1,.59-.54,3.69,3.69,0,0,1,1.06-.39,7.76,7.76,0,0,1,1.6-.17v-.44a1.47,1.47,0,0,0-.28-1,1,1,0,0,0-.82-.33,1.72,1.72,0,0,0-.6.09,2.48,2.48,0,0,0-.43.2l-.31.21a.43.43,0,0,1-.25.09A.25.25,0,0,1,47,65a.3.3,0,0,1-.12-.13Zm3.16,2.28a7.12,7.12,0,0,0-1.15.11,3,3,0,0,0-.77.22,1.12,1.12,0,0,0-.44.32.72.72,0,0,0-.13.42.89.89,0,0,0,.07.38.73.73,0,0,0,.19.26.77.77,0,0,0,.3.15,1.36,1.36,0,0,0,.36,0,1.73,1.73,0,0,0,.47-.06,1.38,1.38,0,0,0,.4-.15,2.06,2.06,0,0,0,.37-.23A3.27,3.27,0,0,0,49.9,68Z"/><path d="M55.6,64.69a.24.24,0,0,1-.21.12.35.35,0,0,1-.18-.06L55,64.62a2.08,2.08,0,0,0-.36-.14,1.8,1.8,0,0,0-.5-.06,1.51,1.51,0,0,0-.44.06,1.08,1.08,0,0,0-.34.17.86.86,0,0,0-.21.26.69.69,0,0,0-.08.32.48.48,0,0,0,.13.35,1,1,0,0,0,.32.25,4,4,0,0,0,.46.19l.54.17c.18.06.35.12.53.2a1.92,1.92,0,0,1,.46.27,1.49,1.49,0,0,1,.33.41,1.26,1.26,0,0,1,.12.57,1.83,1.83,0,0,1-.14.71,1.54,1.54,0,0,1-.41.57,1.89,1.89,0,0,1-.65.38,2.86,2.86,0,0,1-.91.13,2.69,2.69,0,0,1-1-.19,2.49,2.49,0,0,1-.81-.48l.24-.38a.35.35,0,0,1,.1-.11.33.33,0,0,1,.15,0,.37.37,0,0,1,.21.08l.27.17a1.49,1.49,0,0,0,.38.17,1.79,1.79,0,0,0,.56.08,1.51,1.51,0,0,0,.5-.07,1,1,0,0,0,.36-.2.75.75,0,0,0,.21-.3.81.81,0,0,0,.07-.35.6.6,0,0,0-.12-.38,1.09,1.09,0,0,0-.33-.26,4,4,0,0,0-.46-.19l-.54-.16-.53-.2a1.86,1.86,0,0,1-.47-.29,1.23,1.23,0,0,1-.32-.42,1.28,1.28,0,0,1-.13-.61,1.63,1.63,0,0,1,.13-.61,1.52,1.52,0,0,1,.39-.52,2,2,0,0,1,.62-.35,2.47,2.47,0,0,1,.84-.13,2.57,2.57,0,0,1,1,.17,2.23,2.23,0,0,1,.76.48Z"/><path d="M57,64.56a3.09,3.09,0,0,1,2.18-.89,2.15,2.15,0,0,1,.83.16,1.69,1.69,0,0,1,.61.43,1.77,1.77,0,0,1,.37.66,2.63,2.63,0,0,1,.13.86v3.57h-.43a.42.42,0,0,1-.22,0,.28.28,0,0,1-.13-.19l-.11-.52q-.21.19-.42.36a2.82,2.82,0,0,1-.44.26,2.67,2.67,0,0,1-.5.17,3.3,3.3,0,0,1-.58.05,2,2,0,0,1-.61-.09,1.51,1.51,0,0,1-.5-.27,1.21,1.21,0,0,1-.33-.46A1.62,1.62,0,0,1,56.7,68a1.21,1.21,0,0,1,.18-.63,1.49,1.49,0,0,1,.59-.54,3.69,3.69,0,0,1,1.06-.39,7.76,7.76,0,0,1,1.6-.17v-.44a1.47,1.47,0,0,0-.28-1,1,1,0,0,0-.82-.33,1.72,1.72,0,0,0-.6.09,2.48,2.48,0,0,0-.43.2l-.31.21a.43.43,0,0,1-.25.09.25.25,0,0,1-.17-.06.3.3,0,0,1-.12-.13Zm3.16,2.28A7.12,7.12,0,0,0,59,67a3,3,0,0,0-.77.22,1.12,1.12,0,0,0-.44.32.72.72,0,0,0-.13.42.89.89,0,0,0,.07.38.73.73,0,0,0,.19.26.8.8,0,0,0,.29.15,1.49,1.49,0,0,0,.36,0,1.75,1.75,0,0,0,.48-.06,1.49,1.49,0,0,0,.4-.15,2.06,2.06,0,0,0,.37-.23,3.27,3.27,0,0,0,.33-.32Z"/><path d="M63.59,61.24v8.11h-1V61.24Z"/><path d="M65.72,69.46a.61.61,0,0,1-.23.29.59.59,0,0,1-.31.09h-.41l3.3-8.23a.58.58,0,0,1,.21-.27.55.55,0,0,1,.31-.1H69Z"/><path d="M74.85,68.45v.9H70.38V61.46h1.06v7Z"/><path d="M80.38,63.77v5.58H79.8a.26.26,0,0,1-.27-.21l-.08-.6a2.94,2.94,0,0,1-.81.65,2.17,2.17,0,0,1-1,.24,2,2,0,0,1-.81-.15,1.67,1.67,0,0,1-.59-.42,2,2,0,0,1-.35-.67,2.93,2.93,0,0,1-.12-.86V63.77h1v3.56a1.51,1.51,0,0,0,.29,1,1.08,1.08,0,0,0,.88.34,1.73,1.73,0,0,0,.81-.2,2.66,2.66,0,0,0,.7-.57V63.77Z"/><path d="M81.93,69.35V63.77h.59a.25.25,0,0,1,.26.21l.07.57a2.7,2.7,0,0,1,.69-.62,1.65,1.65,0,0,1,.89-.24,1.29,1.29,0,0,1,.91.31,1.75,1.75,0,0,1,.5.85,2.14,2.14,0,0,1,.32-.53,1.82,1.82,0,0,1,.42-.36,2.28,2.28,0,0,1,.51-.21,2.35,2.35,0,0,1,.54-.06,1.94,1.94,0,0,1,.78.14,1.5,1.5,0,0,1,.58.41,1.77,1.77,0,0,1,.37.66,3,3,0,0,1,.13.9v3.55h-1V65.8a1.48,1.48,0,0,0-.28-1,1,1,0,0,0-.83-.34,1.44,1.44,0,0,0-.46.08,1.19,1.19,0,0,0-.38.25,1.11,1.11,0,0,0-.26.42,1.47,1.47,0,0,0-.1.58v3.55h-1V65.8a1.55,1.55,0,0,0-.27-1,1,1,0,0,0-.79-.33,1.24,1.24,0,0,0-.67.19,2.35,2.35,0,0,0-.57.53v4.16Z"/><path d="M92.22,62a.58.58,0,0,1-.06.26.86.86,0,0,1-.15.22.57.57,0,0,1-.23.15.6.6,0,0,1-.27.06.66.66,0,0,1-.27-.06.51.51,0,0,1-.21-.15.54.54,0,0,1-.15-.22.58.58,0,0,1-.06-.26.67.67,0,0,1,.06-.28.54.54,0,0,1,.15-.22.51.51,0,0,1,.21-.15.66.66,0,0,1,.27-.06.6.6,0,0,1,.27.06.57.57,0,0,1,.23.15.86.86,0,0,1,.15.22A.67.67,0,0,1,92.22,62ZM92,63.77v5.58H91V63.77Z"/><path d="M94.54,64.58a3.41,3.41,0,0,1,.39-.37,2.44,2.44,0,0,1,.43-.28,2,2,0,0,1,.48-.18,2.44,2.44,0,0,1,.55-.06,2,2,0,0,1,.81.15,1.47,1.47,0,0,1,.58.43,1.75,1.75,0,0,1,.36.66,3,3,0,0,1,.12.87v3.55h-1V65.8a1.51,1.51,0,0,0-.28-1,1.07,1.07,0,0,0-.88-.35,1.63,1.63,0,0,0-.81.21,2.83,2.83,0,0,0-.7.56v4.11h-1V63.77h.59a.24.24,0,0,1,.25.21Z"/><path d="M99.61,64.56a3.09,3.09,0,0,1,2.18-.89,2.15,2.15,0,0,1,.83.16,1.69,1.69,0,0,1,.61.43,1.77,1.77,0,0,1,.37.66,2.63,2.63,0,0,1,.13.86v3.57h-.43a.42.42,0,0,1-.22,0,.25.25,0,0,1-.12-.19l-.12-.52q-.21.19-.42.36a2.82,2.82,0,0,1-.44.26,2.67,2.67,0,0,1-.5.17,3.3,3.3,0,0,1-.58.05,2,2,0,0,1-.61-.09,1.37,1.37,0,0,1-.49-.27,1.13,1.13,0,0,1-.34-.46,1.62,1.62,0,0,1-.12-.66,1.21,1.21,0,0,1,.18-.63,1.56,1.56,0,0,1,.59-.54,3.69,3.69,0,0,1,1.06-.39,7.76,7.76,0,0,1,1.6-.17v-.44a1.47,1.47,0,0,0-.28-1,1,1,0,0,0-.82-.33,1.72,1.72,0,0,0-.6.09,2.48,2.48,0,0,0-.43.2l-.31.21a.43.43,0,0,1-.25.09.25.25,0,0,1-.17-.06.3.3,0,0,1-.12-.13Zm3.16,2.28a7.12,7.12,0,0,0-1.15.11,3,3,0,0,0-.77.22,1.12,1.12,0,0,0-.44.32.72.72,0,0,0-.13.42.89.89,0,0,0,.07.38.73.73,0,0,0,.19.26.77.77,0,0,0,.3.15,1.36,1.36,0,0,0,.36,0,1.73,1.73,0,0,0,.47-.06,1.38,1.38,0,0,0,.4-.15,2.06,2.06,0,0,0,.37-.23,3.27,3.27,0,0,0,.33-.32Z"/><path d="M106.23,61.24v8.11h-1V61.24Z"/><path d="M28.71,90.82a4.57,4.57,0,0,1-.28,1.61,3.4,3.4,0,0,1-.8,1.24,3.52,3.52,0,0,1-1.22.81,4.5,4.5,0,0,1-1.59.28H21.88V86.88h2.94a4.28,4.28,0,0,1,1.59.28,3.52,3.52,0,0,1,2,2A4.57,4.57,0,0,1,28.71,90.82Zm-1.1,0a3.78,3.78,0,0,0-.2-1.3,2.81,2.81,0,0,0-.56-1A2.38,2.38,0,0,0,26,88a3,3,0,0,0-1.15-.21H22.94V93.9h1.88A3,3,0,0,0,26,93.69a2.29,2.29,0,0,0,.88-.61,2.67,2.67,0,0,0,.56-1A3.78,3.78,0,0,0,27.61,90.82Z"/><path d="M34.59,89.19v5.57H34a.26.26,0,0,1-.27-.2l-.07-.6a3.14,3.14,0,0,1-.82.64,2.25,2.25,0,0,1-1.84.1,1.7,1.7,0,0,1-.94-1.1,2.89,2.89,0,0,1-.11-.86V89.19h1v3.55a1.51,1.51,0,0,0,.29,1,1.11,1.11,0,0,0,.89.35,1.66,1.66,0,0,0,.81-.21,2.62,2.62,0,0,0,.69-.57v-4.1Z"/><path d="M40,90.18a.38.38,0,0,1-.09.09.21.21,0,0,1-.12,0,.38.38,0,0,1-.18-.06l-.24-.16L39,89.93a1.92,1.92,0,0,0-.52-.07,1.67,1.67,0,0,0-.73.15,1.42,1.42,0,0,0-.52.42,1.9,1.9,0,0,0-.32.67,3.34,3.34,0,0,0-.11.87,3.06,3.06,0,0,0,.12.9,1.85,1.85,0,0,0,.32.66,1.54,1.54,0,0,0,.51.41,1.83,1.83,0,0,0,1.27,0,1.92,1.92,0,0,0,.38-.19l.25-.19a.37.37,0,0,1,.2-.08.22.22,0,0,1,.19.09l.27.36a1.64,1.64,0,0,1-.41.38,2.19,2.19,0,0,1-.5.27,3.19,3.19,0,0,1-.55.16,4,4,0,0,1-.6,0,2.4,2.4,0,0,1-1-.2,2.26,2.26,0,0,1-.78-.55,2.64,2.64,0,0,1-.51-.9A3.59,3.59,0,0,1,35.83,92,3.85,3.85,0,0,1,36,90.82a2.79,2.79,0,0,1,.51-.91,2.39,2.39,0,0,1,.82-.6,2.8,2.8,0,0,1,1.12-.21,2.56,2.56,0,0,1,1,.19,2.41,2.41,0,0,1,.8.54Z"/><path d="M43.11,94.85a1.38,1.38,0,0,1-1-.37,1.46,1.46,0,0,1-.35-1.06V90h-.68a.2.2,0,0,1-.14-.06.18.18,0,0,1-.06-.16V89.4l.91-.11L42,87.56a.35.35,0,0,1,.08-.13.25.25,0,0,1,.15-.05h.5V89.3h1.61V90H42.72v3.34a.67.67,0,0,0,.17.52.57.57,0,0,0,.44.17.68.68,0,0,0,.26,0l.2-.09.14-.09a.16.16,0,0,1,.1,0,.17.17,0,0,1,.14.09l.28.47a1.78,1.78,0,0,1-.61.37A2.06,2.06,0,0,1,43.11,94.85Z"/><path d="M45.2,90a3.3,3.3,0,0,1,1-.66,3,3,0,0,1,1.18-.22,2.16,2.16,0,0,1,.83.15,1.6,1.6,0,0,1,.61.43,1.83,1.83,0,0,1,.38.67,2.86,2.86,0,0,1,.12.85v3.57h-.43a.42.42,0,0,1-.22-.05.32.32,0,0,1-.12-.18L48.43,94a4.32,4.32,0,0,1-.43.36,2.21,2.21,0,0,1-.44.26,2,2,0,0,1-.49.17,2.65,2.65,0,0,1-.58.06,2,2,0,0,1-.61-.09,1.44,1.44,0,0,1-.5-.28A1.35,1.35,0,0,1,45,94a1.6,1.6,0,0,1-.12-.65,1.27,1.27,0,0,1,.18-.64,1.65,1.65,0,0,1,.59-.54,3.8,3.8,0,0,1,1.06-.39,7.87,7.87,0,0,1,1.61-.17v-.44a1.53,1.53,0,0,0-.28-1,1,1,0,0,0-.82-.33,1.78,1.78,0,0,0-.61.09,2.75,2.75,0,0,0-.42.2l-.31.21a.45.45,0,0,1-.26.09.34.34,0,0,1-.17,0,.49.49,0,0,1-.12-.13Zm3.16,2.28a8.32,8.32,0,0,0-1.15.11,3.54,3.54,0,0,0-.78.22,1,1,0,0,0-.43.33.68.68,0,0,0-.14.41,1,1,0,0,0,.07.38.67.67,0,0,0,.2.26.73.73,0,0,0,.29.15,1.36,1.36,0,0,0,.36,0,2.26,2.26,0,0,0,.47,0,2.86,2.86,0,0,0,.41-.15,3.75,3.75,0,0,0,.36-.24,3.28,3.28,0,0,0,.34-.31Z"/><path d="M51.82,86.66v8.1h-1v-8.1Z"/><path d="M62,93.13a.21.21,0,0,1,.16.07l.42.46a3.42,3.42,0,0,1-1.18.87,4,4,0,0,1-1.66.32,3.81,3.81,0,0,1-1.54-.3A3.34,3.34,0,0,1,57,93.73a3.88,3.88,0,0,1-.76-1.28,5,5,0,0,1,0-3.26A3.79,3.79,0,0,1,57,87.91a3.72,3.72,0,0,1,1.22-.83,4.18,4.18,0,0,1,1.57-.29,3.7,3.7,0,0,1,2.62,1l-.35.49a.27.27,0,0,1-.23.13.42.42,0,0,1-.24-.11,4.41,4.41,0,0,0-.38-.24,2.57,2.57,0,0,0-.57-.24,3,3,0,0,0-.86-.11,2.89,2.89,0,0,0-1.11.21,2.47,2.47,0,0,0-.87.62,2.64,2.64,0,0,0-.57,1,3.77,3.77,0,0,0-.21,1.3,3.89,3.89,0,0,0,.21,1.32,3.09,3.09,0,0,0,.58,1,2.41,2.41,0,0,0,.87.61,2.72,2.72,0,0,0,1.07.21,5.92,5.92,0,0,0,.64,0,2.83,2.83,0,0,0,.52-.13,2,2,0,0,0,.44-.22,2.47,2.47,0,0,0,.41-.33A.34.34,0,0,1,62,93.13Z"/><path d="M63.42,90a3.34,3.34,0,0,1,1-.66,3,3,0,0,1,1.18-.22,2.16,2.16,0,0,1,.83.15,1.69,1.69,0,0,1,.61.43,1.83,1.83,0,0,1,.38.67,2.86,2.86,0,0,1,.12.85v3.57h-.43a.42.42,0,0,1-.22-.05.32.32,0,0,1-.12-.18L66.66,94a4.32,4.32,0,0,1-.43.36,2.21,2.21,0,0,1-.44.26,2.11,2.11,0,0,1-.5.17,2.52,2.52,0,0,1-.58.06,2,2,0,0,1-.61-.09,1.39,1.39,0,0,1-.49-.28,1.23,1.23,0,0,1-.34-.46,1.6,1.6,0,0,1-.12-.65,1.27,1.27,0,0,1,.18-.64,1.65,1.65,0,0,1,.59-.54A3.69,3.69,0,0,1,65,91.8a7.76,7.76,0,0,1,1.6-.17v-.44a1.47,1.47,0,0,0-.28-1,1,1,0,0,0-.82-.33,1.72,1.72,0,0,0-.6.09,2.48,2.48,0,0,0-.43.2l-.31.21a.43.43,0,0,1-.25.09.31.31,0,0,1-.17,0,.49.49,0,0,1-.12-.13Zm3.16,2.28a8.48,8.48,0,0,0-1.15.11,3.44,3.44,0,0,0-.77.22,1,1,0,0,0-.44.33.67.67,0,0,0-.13.41.86.86,0,0,0,.07.38.65.65,0,0,0,.19.26.77.77,0,0,0,.3.15,1.36,1.36,0,0,0,.36,0,2.26,2.26,0,0,0,.47,0,2.37,2.37,0,0,0,.4-.15,2.92,2.92,0,0,0,.37-.24c.11-.09.22-.2.33-.31Z"/><path d="M70,90.3a2.57,2.57,0,0,1,.65-.89,1.45,1.45,0,0,1,.94-.32,1.27,1.27,0,0,1,.34,0,.74.74,0,0,1,.29.12l-.07.73a.17.17,0,0,1-.17.14.73.73,0,0,1-.22,0,1.72,1.72,0,0,0-.34,0,1.36,1.36,0,0,0-.47.08,1.1,1.1,0,0,0-.37.23,1.59,1.59,0,0,0-.29.37,3,3,0,0,0-.23.51v3.52H69V89.19h.56a.3.3,0,0,1,.22.06.34.34,0,0,1,.08.21Z"/><path d="M76.91,90.18l-.08.09a.23.23,0,0,1-.13,0,.38.38,0,0,1-.18-.06l-.24-.16-.36-.15a1.87,1.87,0,0,0-.52-.07,1.7,1.7,0,0,0-.73.15,1.51,1.51,0,0,0-.52.42,1.9,1.9,0,0,0-.32.67,3.34,3.34,0,0,0-.11.87,3.06,3.06,0,0,0,.12.9,1.86,1.86,0,0,0,.33.66,1.45,1.45,0,0,0,.51.41,1.6,1.6,0,0,0,.67.14,1.63,1.63,0,0,0,.59-.09,1.92,1.92,0,0,0,.38-.19,2,2,0,0,0,.25-.19.37.37,0,0,1,.21-.08.2.2,0,0,1,.18.09l.28.36a1.84,1.84,0,0,1-.41.38,2.42,2.42,0,0,1-.5.27,3.58,3.58,0,0,1-.56.16,3.92,3.92,0,0,1-.59,0,2.45,2.45,0,0,1-1-.2,2.32,2.32,0,0,1-.77-.55,2.66,2.66,0,0,1-.52-.9A3.59,3.59,0,0,1,72.72,92a3.85,3.85,0,0,1,.17-1.15,2.79,2.79,0,0,1,.51-.91,2.49,2.49,0,0,1,.82-.6,2.83,2.83,0,0,1,1.12-.21,2.61,2.61,0,0,1,1,.19,2.37,2.37,0,0,1,.79.54Z"/><path d="M79.53,87.44a.66.66,0,0,1-.06.27.8.8,0,0,1-.15.21.73.73,0,0,1-.23.16.76.76,0,0,1-.27,0,.86.86,0,0,1-.27,0,.65.65,0,0,1-.21-.16.51.51,0,0,1-.15-.21.66.66,0,0,1-.06-.27.6.6,0,0,1,.06-.27.57.57,0,0,1,.15-.23.8.8,0,0,1,.21-.15.66.66,0,0,1,.27-.06.6.6,0,0,1,.27.06.67.67,0,0,1,.38.38A.6.6,0,0,1,79.53,87.44Zm-.21,1.75v5.57h-1V89.19Z"/><path d="M81.85,90a2.72,2.72,0,0,1,.39-.37,2.49,2.49,0,0,1,.43-.29,3.41,3.41,0,0,1,.48-.18,2.44,2.44,0,0,1,.55-.06,2,2,0,0,1,.81.15,1.47,1.47,0,0,1,.58.43,1.8,1.8,0,0,1,.36.67,2.93,2.93,0,0,1,.12.86v3.55h-1V91.21a1.51,1.51,0,0,0-.28-1,1.1,1.1,0,0,0-.88-.35,1.63,1.63,0,0,0-.81.21,2.66,2.66,0,0,0-.7.57v4.1h-1V89.19h.59a.24.24,0,0,1,.25.2Z"/><path d="M89.41,89.1a2.92,2.92,0,0,1,1.1.2,2.38,2.38,0,0,1,.84.58,2.48,2.48,0,0,1,.53.91A3.61,3.61,0,0,1,92.06,92a3.67,3.67,0,0,1-.18,1.19,2.52,2.52,0,0,1-.53.9,2.24,2.24,0,0,1-.84.57,2.73,2.73,0,0,1-1.1.21,2.82,2.82,0,0,1-1.11-.21,2.28,2.28,0,0,1-.83-.57,2.52,2.52,0,0,1-.53-.9A3.42,3.42,0,0,1,86.75,92a3.36,3.36,0,0,1,.19-1.18,2.48,2.48,0,0,1,.53-.91,2.44,2.44,0,0,1,.83-.58A3,3,0,0,1,89.41,89.1Zm0,5a1.45,1.45,0,0,0,1.24-.55,2.56,2.56,0,0,0,.4-1.54,2.63,2.63,0,0,0-.4-1.56,1.45,1.45,0,0,0-1.24-.55,1.86,1.86,0,0,0-.73.14,1.47,1.47,0,0,0-.51.41,1.89,1.89,0,0,0-.31.67,3.46,3.46,0,0,0-.1.89,2.49,2.49,0,0,0,.41,1.54A1.44,1.44,0,0,0,89.41,94.07Z"/><path d="M93.3,94.76V89.19h.59a.24.24,0,0,1,.26.2l.07.57a3.08,3.08,0,0,1,.69-.62,1.67,1.67,0,0,1,.89-.24,1.33,1.33,0,0,1,.92.31,1.75,1.75,0,0,1,.5.85,1.67,1.67,0,0,1,.31-.52,1.88,1.88,0,0,1,.43-.37,1.69,1.69,0,0,1,.5-.2A2,2,0,0,1,99,89.1a2.13,2.13,0,0,1,.78.14,1.53,1.53,0,0,1,.59.41,1.75,1.75,0,0,1,.36.66,2.75,2.75,0,0,1,.13.9v3.55h-1V91.21a1.5,1.5,0,0,0-.28-1,1,1,0,0,0-.83-.34,1.22,1.22,0,0,0-.46.09,1,1,0,0,0-.38.25,1.07,1.07,0,0,0-.26.41,1.72,1.72,0,0,0-.1.58v3.55h-1V91.21a1.55,1.55,0,0,0-.27-1,1,1,0,0,0-.79-.33,1.25,1.25,0,0,0-.67.2,2.14,2.14,0,0,0-.56.53v4.15Z"/><path d="M102.21,90a3.3,3.3,0,0,1,1-.66,3,3,0,0,1,1.19-.22,2.19,2.19,0,0,1,.83.15,1.78,1.78,0,0,1,.61.43,1.82,1.82,0,0,1,.37.67,2.86,2.86,0,0,1,.13.85v3.57h-.44a.45.45,0,0,1-.22-.05.32.32,0,0,1-.12-.18l-.11-.53a4.32,4.32,0,0,1-.43.36,2,2,0,0,1-.44.26,2,2,0,0,1-.49.17,2.58,2.58,0,0,1-.58.06,2,2,0,0,1-.61-.09,1.44,1.44,0,0,1-.5-.28,1.21,1.21,0,0,1-.33-.46,1.45,1.45,0,0,1-.13-.65,1.27,1.27,0,0,1,.18-.64,1.65,1.65,0,0,1,.59-.54,3.8,3.8,0,0,1,1.06-.39,7.87,7.87,0,0,1,1.61-.17v-.44a1.47,1.47,0,0,0-.28-1,1,1,0,0,0-.82-.33,1.78,1.78,0,0,0-.61.09,2.75,2.75,0,0,0-.42.2l-.31.21a.45.45,0,0,1-.26.09.34.34,0,0,1-.17,0l-.12-.13Zm3.16,2.28a8.32,8.32,0,0,0-1.15.11,3.54,3.54,0,0,0-.78.22,1,1,0,0,0-.43.33.68.68,0,0,0-.14.41,1,1,0,0,0,.07.38.67.67,0,0,0,.2.26.73.73,0,0,0,.29.15,1.36,1.36,0,0,0,.36,0,2.26,2.26,0,0,0,.47,0,2.48,2.48,0,0,0,.41-.15,2.25,2.25,0,0,0,.36-.24,3.28,3.28,0,0,0,.34-.31Z"/><path d="M31.39,116.23a4.35,4.35,0,0,1-.28,1.61,3.65,3.65,0,0,1-.79,1.25,3.59,3.59,0,0,1-1.23.8,4.28,4.28,0,0,1-1.59.28H24.56v-7.88H27.5a4.28,4.28,0,0,1,1.59.28,3.47,3.47,0,0,1,1.23.81,3.61,3.61,0,0,1,.79,1.24A4.39,4.39,0,0,1,31.39,116.23Zm-1.09,0a4.08,4.08,0,0,0-.2-1.3,2.67,2.67,0,0,0-.56-1,2.36,2.36,0,0,0-.88-.61,3.07,3.07,0,0,0-1.16-.21H25.63v6.16H27.5a3.07,3.07,0,0,0,1.16-.21,2.46,2.46,0,0,0,.88-.6,2.81,2.81,0,0,0,.56-1A4,4,0,0,0,30.3,116.23Z"/><path d="M37.28,114.6v5.57h-.59a.25.25,0,0,1-.26-.2l-.08-.6a2.9,2.9,0,0,1-.81.64,2.08,2.08,0,0,1-1,.25,2,2,0,0,1-.8-.15,1.5,1.5,0,0,1-.59-.43,1.74,1.74,0,0,1-.35-.66,3,3,0,0,1-.12-.87V114.6h1v3.55a1.45,1.45,0,0,0,.29,1,1.07,1.07,0,0,0,.88.35,1.63,1.63,0,0,0,.81-.21,2.83,2.83,0,0,0,.7-.57v-4.1Z"/><path d="M42.7,115.59a.24.24,0,0,1-.08.09.16.16,0,0,1-.12,0,.4.4,0,0,1-.19-.07,1.25,1.25,0,0,0-.24-.15,2,2,0,0,0-.36-.16,1.9,1.9,0,0,0-.52-.06,1.62,1.62,0,0,0-.72.14,1.46,1.46,0,0,0-.53.42,2,2,0,0,0-.32.67,3.34,3.34,0,0,0-.11.87,3.06,3.06,0,0,0,.12.9,2,2,0,0,0,.33.66,1.34,1.34,0,0,0,.51.41,1.6,1.6,0,0,0,.67.14,1.63,1.63,0,0,0,.59-.09,1.35,1.35,0,0,0,.38-.19l.26-.19a.32.32,0,0,1,.2-.08.2.2,0,0,1,.18.09l.28.36a1.84,1.84,0,0,1-.41.38,2.42,2.42,0,0,1-.5.27,2.75,2.75,0,0,1-.56.16,3.81,3.81,0,0,1-.59,0,2.54,2.54,0,0,1-1-.19,2.29,2.29,0,0,1-.78-.56,2.66,2.66,0,0,1-.52-.9,3.81,3.81,0,0,1-.19-1.22,3.6,3.6,0,0,1,.18-1.15,2.6,2.6,0,0,1,.5-.91,2.33,2.33,0,0,1,.82-.59,2.67,2.67,0,0,1,1.12-.22,2.61,2.61,0,0,1,1,.19,2.52,2.52,0,0,1,.79.54Z"/><path d="M45.79,120.26a1.35,1.35,0,0,1-1-.37,1.5,1.5,0,0,1-.35-1.06v-3.41h-.67a.25.25,0,0,1-.15,0,.22.22,0,0,1-.06-.17v-.39l.91-.11.23-1.72a.23.23,0,0,1,.07-.14.25.25,0,0,1,.15,0h.5v1.92H47v.71H45.4v3.34a.75.75,0,0,0,.17.53.6.6,0,0,0,.44.17,1.1,1.1,0,0,0,.27,0,.85.85,0,0,0,.19-.1l.14-.09a.26.26,0,0,1,.1,0,.17.17,0,0,1,.14.1l.29.46a1.88,1.88,0,0,1-.61.37A2.11,2.11,0,0,1,45.79,120.26Z"/><path d="M47.88,115.39a3.27,3.27,0,0,1,1-.67,3,3,0,0,1,1.19-.22,2.16,2.16,0,0,1,.83.15,1.92,1.92,0,0,1,.61.43,1.9,1.9,0,0,1,.37.67,2.63,2.63,0,0,1,.13.86v3.56h-.44a.36.36,0,0,1-.22,0,.32.32,0,0,1-.12-.18l-.11-.53a3.42,3.42,0,0,1-.43.36,2,2,0,0,1-.44.27,2.35,2.35,0,0,1-.49.16,2.58,2.58,0,0,1-.58.06,2,2,0,0,1-.61-.09,1.42,1.42,0,0,1-.5-.27,1.39,1.39,0,0,1-.33-.46,1.53,1.53,0,0,1-.13-.66,1.19,1.19,0,0,1,.19-.64,1.61,1.61,0,0,1,.58-.54,3.78,3.78,0,0,1,1.07-.38A7.69,7.69,0,0,1,51,117v-.43a1.45,1.45,0,0,0-.28-1,1,1,0,0,0-.82-.34,1.82,1.82,0,0,0-.61.09,2.06,2.06,0,0,0-.42.21l-.31.2a.43.43,0,0,1-.25.09.29.29,0,0,1-.17,0,.8.8,0,0,1-.13-.13ZM51,117.66a8.48,8.48,0,0,0-1.15.11,3.54,3.54,0,0,0-.78.22,1.09,1.09,0,0,0-.43.33.68.68,0,0,0-.14.42.92.92,0,0,0,.08.38.7.7,0,0,0,.19.26.87.87,0,0,0,.29.14,1,1,0,0,0,.36,0,2.36,2.36,0,0,0,.48,0,2.74,2.74,0,0,0,.4-.15,2.25,2.25,0,0,0,.36-.24,2.45,2.45,0,0,0,.34-.31Z"/><path d="M54.5,112.07v8.1h-1v-8.1Z"/><path d="M67.33,112.29v7.88H66.4v-5.79a2.18,2.18,0,0,1,0-.25,2.45,2.45,0,0,1,0-.27l-2.71,4.93a.41.41,0,0,1-.39.25h-.15a.4.4,0,0,1-.38-.25l-2.77-5a3.62,3.62,0,0,1,0,.54v5.79h-.94v-7.88h.79a.65.65,0,0,1,.22,0,.35.35,0,0,1,.15.15L63,117.32c0,.09.09.18.13.28l.12.29c0-.1.07-.2.11-.3l.13-.27,2.68-4.85a.29.29,0,0,1,.14-.15.71.71,0,0,1,.23,0Z"/><path d="M69,115.39a3.19,3.19,0,0,1,1-.67,3,3,0,0,1,1.18-.22,2.16,2.16,0,0,1,.83.15,1.82,1.82,0,0,1,.61.43,1.92,1.92,0,0,1,.38.67,2.93,2.93,0,0,1,.12.86v3.56h-.43a.34.34,0,0,1-.22,0,.28.28,0,0,1-.12-.18l-.11-.53a4.32,4.32,0,0,1-.43.36,2.27,2.27,0,0,1-.44.27,2.66,2.66,0,0,1-.5.16,2.52,2.52,0,0,1-.58.06,2,2,0,0,1-.61-.09,1.37,1.37,0,0,1-.49-.27,1.28,1.28,0,0,1-.34-.46,1.69,1.69,0,0,1-.12-.66,1.27,1.27,0,0,1,.18-.64,1.65,1.65,0,0,1,.59-.54,3.7,3.7,0,0,1,1.06-.38,7.69,7.69,0,0,1,1.6-.18v-.43a1.45,1.45,0,0,0-.28-1,1,1,0,0,0-.82-.34,1.72,1.72,0,0,0-.6.09,1.91,1.91,0,0,0-.43.21l-.31.2a.43.43,0,0,1-.25.09.31.31,0,0,1-.17,0,.49.49,0,0,1-.12-.13Zm3.16,2.27a8.48,8.48,0,0,0-1.15.11,3.44,3.44,0,0,0-.77.22,1.13,1.13,0,0,0-.44.33.68.68,0,0,0-.13.42.92.92,0,0,0,.07.38.83.83,0,0,0,.19.26.92.92,0,0,0,.3.14,1,1,0,0,0,.36,0,2.26,2.26,0,0,0,.47,0,2.37,2.37,0,0,0,.4-.15,2.92,2.92,0,0,0,.37-.24,3.13,3.13,0,0,0,.33-.31Z"/><path d="M74.58,120.17V114.6h.59a.24.24,0,0,1,.26.2l.07.58a3.13,3.13,0,0,1,.69-.63,1.67,1.67,0,0,1,.89-.24,1.29,1.29,0,0,1,.91.32,1.74,1.74,0,0,1,.51.84,1.79,1.79,0,0,1,.31-.52,1.58,1.58,0,0,1,.42-.36,1.62,1.62,0,0,1,.51-.21,2,2,0,0,1,.54-.07,2.13,2.13,0,0,1,.78.14,1.65,1.65,0,0,1,.59.41,1.75,1.75,0,0,1,.36.66,2.84,2.84,0,0,1,.13.9v3.55h-1v-3.55a1.52,1.52,0,0,0-.28-1,1,1,0,0,0-.83-.34,1.22,1.22,0,0,0-.46.09,1,1,0,0,0-.38.25,1.15,1.15,0,0,0-.26.41,1.72,1.72,0,0,0-.1.58v3.55h-1v-3.55a1.57,1.57,0,0,0-.27-1,1,1,0,0,0-.79-.33,1.25,1.25,0,0,0-.67.2,2.32,2.32,0,0,0-.56.53v4.15Z"/><path d="M83.63,120.17V114.6h.59a.25.25,0,0,1,.26.2l.07.58a2.74,2.74,0,0,1,.69-.63,1.65,1.65,0,0,1,.89-.24,1.29,1.29,0,0,1,.91.32,1.81,1.81,0,0,1,.51.84,1.79,1.79,0,0,1,.31-.52,1.44,1.44,0,0,1,.42-.36,1.62,1.62,0,0,1,.51-.21,1.9,1.9,0,0,1,.54-.07,2.13,2.13,0,0,1,.78.14,1.61,1.61,0,0,1,.58.41,1.77,1.77,0,0,1,.37.66,3.15,3.15,0,0,1,.13.9v3.55h-1v-3.55a1.52,1.52,0,0,0-.28-1,1.06,1.06,0,0,0-.83-.34,1.22,1.22,0,0,0-.46.09,1,1,0,0,0-.38.25A1.15,1.15,0,0,0,88,116a1.5,1.5,0,0,0-.1.58v3.55h-1v-3.55a1.57,1.57,0,0,0-.27-1,1,1,0,0,0-.79-.33,1.25,1.25,0,0,0-.67.2,2.35,2.35,0,0,0-.57.53v4.15Z"/><path d="M92.53,115.39a3.19,3.19,0,0,1,1-.67,3,3,0,0,1,1.18-.22,2.16,2.16,0,0,1,.83.15,1.82,1.82,0,0,1,.61.43,1.92,1.92,0,0,1,.38.67,2.93,2.93,0,0,1,.12.86v3.56h-.43a.34.34,0,0,1-.22,0,.32.32,0,0,1-.12-.18l-.11-.53a4.32,4.32,0,0,1-.43.36,2.27,2.27,0,0,1-.44.27,2.56,2.56,0,0,1-.49.16,2.65,2.65,0,0,1-.58.06,2,2,0,0,1-.61-.09,1.42,1.42,0,0,1-.5-.27,1.57,1.57,0,0,1-.34-.46,1.69,1.69,0,0,1-.12-.66,1.27,1.27,0,0,1,.18-.64,1.65,1.65,0,0,1,.59-.54,3.7,3.7,0,0,1,1.06-.38A7.8,7.8,0,0,1,95.7,117v-.43a1.51,1.51,0,0,0-.28-1,1,1,0,0,0-.82-.34,1.75,1.75,0,0,0-.61.09,1.83,1.83,0,0,0-.42.21l-.31.2a.45.45,0,0,1-.26.09.34.34,0,0,1-.17,0,.49.49,0,0,1-.12-.13Zm3.17,2.27a8.64,8.64,0,0,0-1.16.11,3.6,3.6,0,0,0-.77.22,1.13,1.13,0,0,0-.44.33.68.68,0,0,0-.13.42.92.92,0,0,0,.07.38.73.73,0,0,0,.2.26.87.87,0,0,0,.29.14,1,1,0,0,0,.36,0,2.26,2.26,0,0,0,.47,0,2.86,2.86,0,0,0,.41-.15,3.75,3.75,0,0,0,.36-.24,3.18,3.18,0,0,0,.34-.31Z"/><path d="M99.07,115.72a2.75,2.75,0,0,1,.65-.9,1.45,1.45,0,0,1,.94-.32,1.27,1.27,0,0,1,.34,0,.69.69,0,0,1,.29.12l-.07.73a.16.16,0,0,1-.17.14l-.22,0a1.18,1.18,0,0,0-.34,0,1.4,1.4,0,0,0-.47.08,1.2,1.2,0,0,0-.37.23,1.9,1.9,0,0,0-.29.37,4.08,4.08,0,0,0-.23.51v3.52h-1V114.6h.57a.34.34,0,0,1,.22.06.42.42,0,0,1,.08.21Z"/><path d="M107,114.6l-3.1,7.22a.59.59,0,0,1-.13.17.29.29,0,0,1-.22.07h-.73l1-2.21-2.3-5.25h.85a.32.32,0,0,1,.2.06.41.41,0,0,1,.1.14l1.49,3.51a4,4,0,0,1,.15.49,4.7,4.7,0,0,1,.16-.49l1.45-3.51a.3.3,0,0,1,.11-.14.28.28,0,0,1,.18-.06Z"/><path d="M74.85,144.69v.89H70.38V137.7h1.06v7Z"/><path d="M80.38,140v5.57H79.8a.25.25,0,0,1-.27-.2l-.08-.6a3.13,3.13,0,0,1-.81.65,2.15,2.15,0,0,1-1,.24,2,2,0,0,1-.81-.15,1.47,1.47,0,0,1-.58-.43,1.75,1.75,0,0,1-.36-.66,2.93,2.93,0,0,1-.12-.86V140h1v3.56a1.53,1.53,0,0,0,.29,1,1.08,1.08,0,0,0,.88.34,1.63,1.63,0,0,0,.81-.21,2.31,2.31,0,0,0,.7-.56V140Z"/><path d="M81.93,145.58V140h.59a.25.25,0,0,1,.26.21l.07.57a2.7,2.7,0,0,1,.69-.62,1.65,1.65,0,0,1,.89-.25,1.29,1.29,0,0,1,.91.32,1.77,1.77,0,0,1,.51.85,1.72,1.72,0,0,1,.31-.53,2.05,2.05,0,0,1,.42-.36,1.62,1.62,0,0,1,.51-.21,2.35,2.35,0,0,1,.54-.07,2.13,2.13,0,0,1,.78.14,1.65,1.65,0,0,1,.58.41,1.82,1.82,0,0,1,.37.67,3,3,0,0,1,.13.9v3.54h-1V142a1.53,1.53,0,0,0-.28-1,1,1,0,0,0-.83-.33,1.13,1.13,0,0,0-.84.33,1.11,1.11,0,0,0-.26.42,1.47,1.47,0,0,0-.1.58v3.54h-1V142a1.55,1.55,0,0,0-.27-1,1,1,0,0,0-.79-.33,1.24,1.24,0,0,0-.67.19,2.55,2.55,0,0,0-.57.53v4.15Z"/><path d="M92.22,138.26a.6.6,0,0,1-.06.27.86.86,0,0,1-.15.22.7.7,0,0,1-.23.15.6.6,0,0,1-.27.06.66.66,0,0,1-.27-.06.62.62,0,0,1-.21-.15.86.86,0,0,1-.15-.22.6.6,0,0,1-.06-.27.66.66,0,0,1,.06-.27.86.86,0,0,1,.15-.22.65.65,0,0,1,.21-.16.86.86,0,0,1,.27-.05.76.76,0,0,1,.27.05.73.73,0,0,1,.23.16.86.86,0,0,1,.15.22A.66.66,0,0,1,92.22,138.26ZM92,140v5.57H91V140Z"/><path d="M94.54,140.82a3.41,3.41,0,0,1,.39-.37,2.44,2.44,0,0,1,.43-.28,2,2,0,0,1,.48-.18,2.43,2.43,0,0,1,.55-.07,1.86,1.86,0,0,1,.81.16,1.47,1.47,0,0,1,.58.43,1.75,1.75,0,0,1,.36.66,3,3,0,0,1,.12.87v3.54h-1V142a1.55,1.55,0,0,0-.28-1,1.1,1.1,0,0,0-.88-.34,1.73,1.73,0,0,0-.81.2,2.66,2.66,0,0,0-.7.57v4.1h-1V140h.59a.24.24,0,0,1,.25.21Z"/><path d="M99.61,140.8a3,3,0,0,1,2.18-.89,2.15,2.15,0,0,1,.83.16,1.57,1.57,0,0,1,.61.43,1.79,1.79,0,0,1,.38.66,2.93,2.93,0,0,1,.12.86v3.56h-.43a.43.43,0,0,1-.22,0,.35.35,0,0,1-.12-.19l-.11-.52-.43.36a2.82,2.82,0,0,1-.44.26,2.09,2.09,0,0,1-.5.16,2.52,2.52,0,0,1-.58.06,2,2,0,0,1-.61-.09,1.37,1.37,0,0,1-.49-.27,1.23,1.23,0,0,1-.34-.46,1.62,1.62,0,0,1-.12-.66,1.21,1.21,0,0,1,.18-.63,1.49,1.49,0,0,1,.59-.54,3.69,3.69,0,0,1,1.06-.39,8.44,8.44,0,0,1,1.6-.18V142a1.47,1.47,0,0,0-.28-1,1,1,0,0,0-.81-.33,1.75,1.75,0,0,0-.61.09,1.91,1.91,0,0,0-.43.2l-.3.2a.48.48,0,0,1-.26.09.25.25,0,0,1-.17,0,.37.37,0,0,1-.12-.13Zm3.16,2.28a8.64,8.64,0,0,0-1.15.1,3,3,0,0,0-.77.23,1.12,1.12,0,0,0-.44.32.7.7,0,0,0-.13.42.89.89,0,0,0,.07.38.83.83,0,0,0,.19.26.77.77,0,0,0,.3.15,1.37,1.37,0,0,0,.36,0,1.74,1.74,0,0,0,.47,0,1.38,1.38,0,0,0,.4-.15,2.06,2.06,0,0,0,.37-.23c.11-.1.22-.2.33-.32Z"/><path d="M106.23,137.48v8.1h-1v-8.1Z"/><path d="M85.19,36.05a5.15,5.15,0,0,1,1.26.14,2.46,2.46,0,0,1,.86.41,1.67,1.67,0,0,1,.5.65,2.31,2.31,0,0,1,.16.86,1.77,1.77,0,0,1-.09.56,2,2,0,0,1-.28.49,1.7,1.7,0,0,1-.46.42,2.61,2.61,0,0,1-.65.3,2.4,2.4,0,0,1,1.31.62,1.65,1.65,0,0,1,.44,1.19,2.24,2.24,0,0,1-.19.91,1.87,1.87,0,0,1-.54.71,2.4,2.4,0,0,1-.87.46,3.87,3.87,0,0,1-1.18.16H82.68V36.05Zm-1.45.84v2.69h1.41a2.59,2.59,0,0,0,.78-.1,1.35,1.35,0,0,0,.55-.27,1.06,1.06,0,0,0,.33-.43,1.38,1.38,0,0,0,.1-.55,1.18,1.18,0,0,0-.42-1,2.09,2.09,0,0,0-1.3-.33Zm1.71,6.2a2.57,2.57,0,0,0,.78-.11,1.69,1.69,0,0,0,.55-.29,1.25,1.25,0,0,0,.31-.45,1.81,1.81,0,0,0,.09-.58,1.15,1.15,0,0,0-.43-1,2,2,0,0,0-1.3-.36H83.74v2.75Z"/><path d="M89.42,39.15a3.27,3.27,0,0,1,1-.67,3.23,3.23,0,0,1,1.19-.22,2,2,0,0,1,.83.16,1.75,1.75,0,0,1,.61.42,1.9,1.9,0,0,1,.37.67,2.63,2.63,0,0,1,.13.86v3.56H93.1a.46.46,0,0,1-.22,0,.39.39,0,0,1-.12-.19l-.11-.53a3.42,3.42,0,0,1-.43.36,2,2,0,0,1-.44.27,2.35,2.35,0,0,1-.49.16,2.58,2.58,0,0,1-.58.06,2,2,0,0,1-.61-.09,1.42,1.42,0,0,1-.5-.27,1.29,1.29,0,0,1-.33-.46,1.53,1.53,0,0,1-.13-.66,1.21,1.21,0,0,1,.18-.63,1.66,1.66,0,0,1,.59-.55A4.17,4.17,0,0,1,91,41a8.65,8.65,0,0,1,1.61-.18v-.43a1.47,1.47,0,0,0-.28-1,1,1,0,0,0-.82-.34,1.82,1.82,0,0,0-.61.09,2.74,2.74,0,0,0-.42.21l-.31.2a.45.45,0,0,1-.25.09.23.23,0,0,1-.17,0,.53.53,0,0,1-.13-.13Zm3.16,2.27a8.48,8.48,0,0,0-1.15.11,3,3,0,0,0-.78.23,1,1,0,0,0-.43.32.68.68,0,0,0-.14.42,1.12,1.12,0,0,0,.07.38.86.86,0,0,0,.2.26.73.73,0,0,0,.29.15,1.37,1.37,0,0,0,.36,0,1.74,1.74,0,0,0,.47,0,1.44,1.44,0,0,0,.41-.15,2.25,2.25,0,0,0,.36-.24,2.45,2.45,0,0,0,.34-.31Z"/><path d="M98.27,39.28a.21.21,0,0,1-.2.12.38.38,0,0,1-.19-.06l-.25-.13a2.08,2.08,0,0,0-.36-.14,1.85,1.85,0,0,0-.5-.06,1.51,1.51,0,0,0-.44.06,1,1,0,0,0-.34.17.68.68,0,0,0-.22.26.64.64,0,0,0-.07.31.52.52,0,0,0,.12.36,1,1,0,0,0,.33.25,2.75,2.75,0,0,0,.46.18l.53.17.53.2a2.16,2.16,0,0,1,.47.28,1.26,1.26,0,0,1,.32.4,1.16,1.16,0,0,1,.13.58,1.87,1.87,0,0,1-.14.71,1.54,1.54,0,0,1-.41.57,1.92,1.92,0,0,1-.66.37,2.74,2.74,0,0,1-.9.14,2.72,2.72,0,0,1-1.86-.68l.23-.37a.38.38,0,0,1,.11-.11.33.33,0,0,1,.15,0,.37.37,0,0,1,.21.08l.27.17a2,2,0,0,0,.38.17,1.79,1.79,0,0,0,.56.08,1.5,1.5,0,0,0,.5-.08,1,1,0,0,0,.36-.2.86.86,0,0,0,.21-.29,1,1,0,0,0,.07-.35.53.53,0,0,0-.13-.38,1,1,0,0,0-.32-.26,2.56,2.56,0,0,0-.47-.19l-.53-.17c-.18-.06-.36-.12-.54-.2a2,2,0,0,1-.46-.28,1.37,1.37,0,0,1-.33-.42,1.55,1.55,0,0,1,0-1.22,1.52,1.52,0,0,1,.39-.52,1.62,1.62,0,0,1,.62-.35,2.38,2.38,0,0,1,.84-.14,2.61,2.61,0,0,1,1,.18,2.22,2.22,0,0,1,.75.47Z"/><path d="M99.65,39.15a3.27,3.27,0,0,1,1-.67,3.23,3.23,0,0,1,1.19-.22,2,2,0,0,1,.83.16,1.75,1.75,0,0,1,.61.42,1.9,1.9,0,0,1,.37.67,2.93,2.93,0,0,1,.13.86v3.56h-.44a.46.46,0,0,1-.22,0,.39.39,0,0,1-.12-.19l-.11-.53a4.32,4.32,0,0,1-.43.36,2,2,0,0,1-.44.27,2.56,2.56,0,0,1-.49.16,2.58,2.58,0,0,1-.58.06,2,2,0,0,1-.61-.09,1.42,1.42,0,0,1-.5-.27,1.29,1.29,0,0,1-.33-.46,1.53,1.53,0,0,1-.13-.66,1.21,1.21,0,0,1,.18-.63,1.66,1.66,0,0,1,.59-.55A4.17,4.17,0,0,1,101.2,41a8.65,8.65,0,0,1,1.61-.18v-.43a1.47,1.47,0,0,0-.28-1,1,1,0,0,0-.82-.34,1.78,1.78,0,0,0-.61.09,2.74,2.74,0,0,0-.42.21l-.31.2a.45.45,0,0,1-.26.09.26.26,0,0,1-.17,0,.77.77,0,0,1-.12-.13Zm3.16,2.27a8.32,8.32,0,0,0-1.15.11,3,3,0,0,0-.78.23,1,1,0,0,0-.43.32.68.68,0,0,0-.14.42,1.12,1.12,0,0,0,.07.38.86.86,0,0,0,.2.26.73.73,0,0,0,.29.15,1.37,1.37,0,0,0,.36,0,1.74,1.74,0,0,0,.47,0,1.44,1.44,0,0,0,.41-.15,2.25,2.25,0,0,0,.36-.24,2.45,2.45,0,0,0,.34-.31Z"/><path d="M106.27,35.83v8.1h-1v-8.1Z"/><path d="M18.92,17.38v6.55H17.39V21.16H14.72v2.77H13.19V17.38h1.53v2.74h2.67V17.38Z"/><path d="M21.72,23.93H20.19V17.38h1.53Z"/><path d="M26.61,18.71a1.22,1.22,0,0,1-.14.16.31.31,0,0,1-.2.05.49.49,0,0,1-.22-.06l-.27-.15a2.18,2.18,0,0,0-.34-.14A1.23,1.23,0,0,0,25,18.5a1,1,0,0,0-.64.18.63.63,0,0,0-.21.5.44.44,0,0,0,.13.33,1.05,1.05,0,0,0,.33.22,3.44,3.44,0,0,0,.46.17l.54.18a3.65,3.65,0,0,1,.54.23,1.54,1.54,0,0,1,.47.33,1.75,1.75,0,0,1,.33.49,1.86,1.86,0,0,1,.12.7,2.37,2.37,0,0,1-.15.85,1.94,1.94,0,0,1-.46.69,2.23,2.23,0,0,1-.74.47,2.78,2.78,0,0,1-1,.17,3.38,3.38,0,0,1-.63-.07,3.28,3.28,0,0,1-.61-.18,2.63,2.63,0,0,1-.56-.27,2,2,0,0,1-.45-.35l.45-.71a.44.44,0,0,1,.14-.13.41.41,0,0,1,.19-.05.48.48,0,0,1,.27.09l.31.18a2.12,2.12,0,0,0,.4.19,1.44,1.44,0,0,0,.53.09,1,1,0,0,0,.64-.18.68.68,0,0,0,.23-.58.55.55,0,0,0-.12-.37,1,1,0,0,0-.33-.24,2.57,2.57,0,0,0-.47-.17l-.53-.16a3.21,3.21,0,0,1-.54-.22,1.67,1.67,0,0,1-.47-.33,1.84,1.84,0,0,1-.33-.53,2.11,2.11,0,0,1-.12-.77,1.87,1.87,0,0,1,.58-1.34,2.13,2.13,0,0,1,.71-.44,2.61,2.61,0,0,1,1-.17,3.68,3.68,0,0,1,.58.05,3,3,0,0,1,.55.14,3.51,3.51,0,0,1,.48.22A2.32,2.32,0,0,1,27,18Z"/><path d="M32.68,18.58H30.84v5.35H29.32V18.58H27.47v-1.2h5.21Z"/><path d="M39.89,20.65A3.62,3.62,0,0,1,39.64,22,3.13,3.13,0,0,1,39,23a3.18,3.18,0,0,1-1.07.71,3.71,3.71,0,0,1-1.4.26,3.66,3.66,0,0,1-1.39-.26A3.22,3.22,0,0,1,34,23,3.13,3.13,0,0,1,33.32,22a3.64,3.64,0,0,1,0-2.65A3,3,0,0,1,34,18.27a3.22,3.22,0,0,1,1.08-.71,3.66,3.66,0,0,1,1.39-.26,3.71,3.71,0,0,1,1.4.26,3.33,3.33,0,0,1,1.07.71,3.13,3.13,0,0,1,.69,1.06A3.6,3.6,0,0,1,39.89,20.65Zm-1.56,0a2.65,2.65,0,0,0-.13-.87,1.75,1.75,0,0,0-.36-.66,1.63,1.63,0,0,0-.58-.42,2.24,2.24,0,0,0-1.56,0,1.63,1.63,0,0,0-.58.42,1.75,1.75,0,0,0-.36.66,3,3,0,0,0,0,1.75,1.75,1.75,0,0,0,.36.66,1.5,1.5,0,0,0,.58.41,2.1,2.1,0,0,0,1.56,0,1.5,1.5,0,0,0,.58-.41,1.75,1.75,0,0,0,.36-.66A2.67,2.67,0,0,0,38.33,20.65Z"/><path d="M44.73,22.72v1.21H40.78V17.38H42.3v5.34Z"/><path d="M51.94,20.65A3.61,3.61,0,0,1,51.7,22,3.47,3.47,0,0,1,51,23a3.22,3.22,0,0,1-1.08.71,3.66,3.66,0,0,1-1.39.26,3.71,3.71,0,0,1-1.4-.26A3.08,3.08,0,0,1,46.07,23a3.32,3.32,0,0,1-.7-1.06,3.78,3.78,0,0,1,0-2.65,3.21,3.21,0,0,1,.7-1.06,3.08,3.08,0,0,1,1.07-.71,3.71,3.71,0,0,1,1.4-.26,3.66,3.66,0,0,1,1.39.26,3.38,3.38,0,0,1,1.08.71,3.47,3.47,0,0,1,.69,1.06A3.6,3.6,0,0,1,51.94,20.65Zm-1.56,0a3,3,0,0,0-.12-.87,2.08,2.08,0,0,0-.36-.66,1.63,1.63,0,0,0-.58-.42,2.27,2.27,0,0,0-1.57,0,1.63,1.63,0,0,0-.58.42,1.9,1.9,0,0,0-.36.66,3,3,0,0,0,0,1.75,1.9,1.9,0,0,0,.36.66,1.5,1.5,0,0,0,.58.41,2.13,2.13,0,0,0,1.57,0,1.5,1.5,0,0,0,.58-.41,2.08,2.08,0,0,0,.36-.66A3,3,0,0,0,50.38,20.65Z"/><path d="M56,20.54h2.33V23.3a3.42,3.42,0,0,1-1.08.54,4.23,4.23,0,0,1-1.19.17,4,4,0,0,1-1.47-.26,3.47,3.47,0,0,1-1.14-.7A3.29,3.29,0,0,1,52.71,22a3.47,3.47,0,0,1-.25-1.34,3.68,3.68,0,0,1,.24-1.35,2.89,2.89,0,0,1,.7-1.05,3.15,3.15,0,0,1,1.09-.7,4,4,0,0,1,1.43-.25,4.59,4.59,0,0,1,.77.07,4.37,4.37,0,0,1,.67.19,2.59,2.59,0,0,1,.55.28,2.25,2.25,0,0,1,.45.35l-.44.67a.43.43,0,0,1-.27.19A.48.48,0,0,1,57.3,19L57,18.78l-.33-.13-.35-.07-.41,0a1.89,1.89,0,0,0-.77.15,1.55,1.55,0,0,0-.58.43,1.77,1.77,0,0,0-.37.66,2.52,2.52,0,0,0-.14.85,2.67,2.67,0,0,0,.15.93,1.85,1.85,0,0,0,.41.68,1.65,1.65,0,0,0,.63.43,2.09,2.09,0,0,0,.81.15,2,2,0,0,0,.5-.06,2.39,2.39,0,0,0,.43-.14v-1h-.65a.31.31,0,0,1-.22-.07.26.26,0,0,1-.08-.2Z"/><path d="M62.48,21.44v2.49H61V21.44l-2.38-4.06h1.34a.53.53,0,0,1,.32.09.78.78,0,0,1,.19.24l.92,1.9.22.42c.06.13.11.26.16.39.05-.13.1-.26.16-.39s.12-.27.2-.42l.92-1.9.08-.12a.52.52,0,0,1,.1-.11.37.37,0,0,1,.14-.07.48.48,0,0,1,.18,0h1.34Z"/><path d="M71.07,18.71a.76.76,0,0,1-.14.16.3.3,0,0,1-.19.05.53.53,0,0,1-.23-.06l-.27-.15a2.18,2.18,0,0,0-.34-.14,1.23,1.23,0,0,0-.44-.07,1,1,0,0,0-.64.18.63.63,0,0,0-.21.5.44.44,0,0,0,.13.33,1.05,1.05,0,0,0,.33.22,3.61,3.61,0,0,0,.47.17l.54.18a3.54,3.54,0,0,1,.53.23,1.54,1.54,0,0,1,.47.33,1.41,1.41,0,0,1,.33.49,1.68,1.68,0,0,1,.13.7,2.18,2.18,0,0,1-.16.85,1.82,1.82,0,0,1-.46.69,2.19,2.19,0,0,1-.73.47,2.87,2.87,0,0,1-1,.17,3.27,3.27,0,0,1-.62-.07,3.17,3.17,0,0,1-.62-.18,2.89,2.89,0,0,1-.56-.27,2.25,2.25,0,0,1-.45-.35l.45-.71a.58.58,0,0,1,.14-.13.41.41,0,0,1,.19-.05.48.48,0,0,1,.27.09l.31.18a2.12,2.12,0,0,0,.4.19,1.44,1.44,0,0,0,.53.09,1,1,0,0,0,.65-.18.71.71,0,0,0,.23-.58.55.55,0,0,0-.13-.37.83.83,0,0,0-.33-.24,2.57,2.57,0,0,0-.47-.17l-.53-.16a4.08,4.08,0,0,1-.54-.22,1.53,1.53,0,0,1-.79-.86,1.9,1.9,0,0,1-.13-.77,1.86,1.86,0,0,1,.15-.72,1.76,1.76,0,0,1,.44-.62,2,2,0,0,1,.7-.44,2.61,2.61,0,0,1,1-.17,3.81,3.81,0,0,1,.59.05,3.05,3.05,0,0,1,.54.14,3.51,3.51,0,0,1,.48.22,2.41,2.41,0,0,1,.4.29Z"/><path d="M75.17,22.73a1.38,1.38,0,0,0,.55-.1,1.06,1.06,0,0,0,.4-.29,1.38,1.38,0,0,0,.26-.46,2,2,0,0,0,.09-.62V17.38H78v3.88a3.08,3.08,0,0,1-.2,1.11,2.65,2.65,0,0,1-.56.87,2.46,2.46,0,0,1-.89.56,3.09,3.09,0,0,1-1.17.21A3.14,3.14,0,0,1,74,23.8a2.54,2.54,0,0,1-.89-.56,2.63,2.63,0,0,1-.55-.87,3.08,3.08,0,0,1-.2-1.11V17.38h1.52v3.88a1.91,1.91,0,0,0,.09.61,1.19,1.19,0,0,0,.26.47,1.06,1.06,0,0,0,.4.29A1.38,1.38,0,0,0,75.17,22.73Z"/><path d="M81.59,17.38a4.72,4.72,0,0,1,1.15.12,2.36,2.36,0,0,1,.78.36,1.33,1.33,0,0,1,.44.56,1.86,1.86,0,0,1,.14.73,1.16,1.16,0,0,1-.07.42,1.18,1.18,0,0,1-.19.39,1.55,1.55,0,0,1-.35.32,2,2,0,0,1-.51.26,1.77,1.77,0,0,1,1,.51,1.31,1.31,0,0,1,.31.91,1.85,1.85,0,0,1-.16.78,1.7,1.7,0,0,1-.48.62,2.1,2.1,0,0,1-.77.42,3.32,3.32,0,0,1-1,.15H79.18V17.38Zm-.89,1.13v1.62h.79a3,3,0,0,0,.45,0,.91.91,0,0,0,.35-.13.61.61,0,0,0,.21-.24,1,1,0,0,0,.08-.4,1.07,1.07,0,0,0-.06-.39.58.58,0,0,0-.18-.25.73.73,0,0,0-.31-.13,1.84,1.84,0,0,0-.44,0Zm1.07,4.28a1.36,1.36,0,0,0,.49-.08.75.75,0,0,0,.3-.2.72.72,0,0,0,.15-.27,1.76,1.76,0,0,0,0-.31,1.14,1.14,0,0,0,0-.33.49.49,0,0,0-.16-.24.69.69,0,0,0-.31-.15,1.53,1.53,0,0,0-.47-.06H80.7v1.64Z"/><path d="M89.91,18.58H88.07v5.35H86.55V18.58H84.7v-1.2h5.21Z"/><path d="M93.82,21.44v2.49H92.3V21.44l-2.37-4.06h1.34a.5.5,0,0,1,.31.09.78.78,0,0,1,.19.24l.93,1.9q.1.23.21.42a3.2,3.2,0,0,1,.16.39c.05-.13.1-.26.16-.39l.2-.42.92-1.9.08-.12a.52.52,0,0,1,.1-.11.46.46,0,0,1,.14-.07.52.52,0,0,1,.18,0H96.2Z"/><path d="M99,17.38a3.77,3.77,0,0,1,1.19.16A2.22,2.22,0,0,1,101,18a1.69,1.69,0,0,1,.48.68,2.55,2.55,0,0,1,0,1.75,1.69,1.69,0,0,1-.48.7,2.17,2.17,0,0,1-.82.46,3.74,3.74,0,0,1-1.18.16h-.79v2.19H96.71V17.38Zm0,3.21a1.11,1.11,0,0,0,.86-.28,1.14,1.14,0,0,0,.26-.79,1.07,1.07,0,0,0-.07-.41.83.83,0,0,0-.2-.32.81.81,0,0,0-.35-.2,1.46,1.46,0,0,0-.5-.08h-.79v2.08Z"/><path d="M104,18.55v1.53H106V21.2H104v1.56h2.7v1.17h-4.23V17.38h4.23v1.17Z"/><rect class="cls-3" x="116.18" y="32.24" width="68.74" height="16"/><rect class="cls-3" x="116.18" y="133.84" width="63.83" height="16"/><rect class="cls-3" x="116.18" y="108.44" width="2.45" height="16"/><rect class="cls-3" x="116.18" y="83.04" width="9.82" height="16"/><rect class="cls-3" x="116.18" y="57.64" width="2.45" height="16"/><rect class="cls-3" x="116.18" y="159.25" width="49.1" height="16"/></svg>