<svg id="Layer_1" data-name="Layer 1" xmlns="http://www.w3.org/2000/svg" xmlns:xlink="http://www.w3.org/1999/xlink" viewBox="0 0 225.25 48.25"><defs><style>.cls-1,.cls-2,.cls-25{fill:none;}.cls-2{clip-rule:evenodd;}.cls-3{clip-path:url(#clip-path);}.cls-4{clip-path:url(#clip-path-2);}.cls-5{clip-path:url(#clip-path-3);}.cls-6{clip-path:url(#clip-path-4);}.cls-7{clip-path:url(#clip-path-5);}.cls-8{clip-path:url(#clip-path-6);}.cls-9{clip-path:url(#clip-path-7);}.cls-10{clip-path:url(#clip-path-8);}.cls-11{clip-path:url(#clip-path-9);}.cls-12{clip-path:url(#clip-path-10);}.cls-13{clip-path:url(#clip-path-11);}.cls-14{clip-path:url(#clip-path-12);}.cls-15{clip-path:url(#clip-path-13);}.cls-16{clip-path:url(#clip-path-14);}.cls-17{clip-path:url(#clip-path-15);}.cls-18{clip-path:url(#clip-path-16);}.cls-19{clip-path:url(#clip-path-17);}.cls-20{clip-path:url(#clip-path-18);}.cls-21{clip-path:url(#clip-path-19);}.cls-22{clip-path:url(#clip-path-20);}.cls-23{clip-path:url(#clip-path-21);}.cls-24{clip-path:url(#clip-path-22);}.cls-25{stroke:#393939;stroke-linecap:square;stroke-miterlimit:10;stroke-width:2px;}.cls-26{clip-path:url(#clip-path-23);}.cls-27{clip-path:url(#clip-path-24);}.cls-28{fill:#3484b5;}.cls-29{clip-path:url(#clip-path-25);}.cls-30{fill:#52288e;}.cls-31{font-size:12px;fill:#fff;font-family:Lato-Black, Lato;}.cls-32{clip-path:url(#clip-path-27);}.cls-33{clip-path:url(#clip-path-29);}</style><clipPath id="clip-path"><rect id="SVGID" class="cls-1" x="-565.76" y="204.59" width="21" height="18" rx="4" ry="4"/></clipPath><clipPath id="clip-path-2"><rect id="SVGID-2" data-name="SVGID" class="cls-1" x="-669.01" y="204.59" width="25" height="18" rx="4" ry="4"/></clipPath><clipPath id="clip-path-3"><path id="SVGID-3" data-name="SVGID" class="cls-2" d="M-650,236.09a6.27,6.27,0,0,1-6,6.5,6.26,6.26,0,0,1-6-6.5,6.26,6.26,0,0,1,6-6.5,6.27,6.27,0,0,1,6,6.5"/></clipPath><clipPath id="clip-path-4"><path id="SVGID-4" data-name="SVGID" class="cls-2" d="M-548.76,236.09a6.27,6.27,0,0,1-6,6.5,6.26,6.26,0,0,1-6-6.5,6.26,6.26,0,0,1,6-6.5,6.27,6.27,0,0,1,6,6.5"/></clipPath><clipPath id="clip-path-5"><rect id="SVGID-5" data-name="SVGID" class="cls-1" x="-678.36" y="-87.91" width="25" height="18" rx="4" ry="4"/></clipPath><clipPath id="clip-path-6"><rect id="SVGID-6" data-name="SVGID" class="cls-1" x="-542.36" y="-87.91" width="21" height="18" rx="4" ry="4"/></clipPath><clipPath id="clip-path-7"><path id="SVGID-7" data-name="SVGID" class="cls-2" d="M-658.36-46.41a6.27,6.27,0,0,1-6,6.5,6.26,6.26,0,0,1-6-6.5,6.26,6.26,0,0,1,6-6.5,6.27,6.27,0,0,1,6,6.5"/></clipPath><clipPath id="clip-path-8"><path id="SVGID-8" data-name="SVGID" class="cls-2" d="M-525.36-46.41a6.27,6.27,0,0,1-6,6.5,6.26,6.26,0,0,1-6-6.5,6.26,6.26,0,0,1,6-6.5,6.27,6.27,0,0,1,6,6.5"/></clipPath><clipPath id="clip-path-9"><rect id="SVGID-9" data-name="SVGID" class="cls-1" x="-565.76" y="0.09" width="21" height="18" rx="4" ry="4"/></clipPath><clipPath id="clip-path-10"><rect id="SVGID-10" data-name="SVGID" class="cls-1" x="-670.01" y="0.09" width="25" height="18" rx="4" ry="4"/></clipPath><clipPath id="clip-path-11"><path id="SVGID-11" data-name="SVGID" class="cls-2" d="M-650,41.59a6.27,6.27,0,0,1-6,6.5,6.26,6.26,0,0,1-6-6.5,6.26,6.26,0,0,1,6-6.5,6.27,6.27,0,0,1,6,6.5"/></clipPath><clipPath id="clip-path-12"><path id="SVGID-12" data-name="SVGID" class="cls-2" d="M-548.76,41.59a6.27,6.27,0,0,1-6,6.5,6.26,6.26,0,0,1-6-6.5,6.26,6.26,0,0,1,6-6.5,6.27,6.27,0,0,1,6,6.5"/></clipPath><clipPath id="clip-path-13"><path class="cls-2" d="M-766.5-154c34.3,0,39.59-82.24,70.85-82.24S-679.3-154-543.49-154Z"/></clipPath><clipPath id="clip-path-14"><path class="cls-2" d="M-698.26-154c25.55,0,29.49-73,52.78-73s12.18,73,113.37,73Z"/></clipPath><clipPath id="clip-path-15"><rect class="cls-1" x="-561.32" y="76.18" width="21" height="18" rx="4" ry="4"/></clipPath><clipPath id="clip-path-16"><rect class="cls-1" x="-617.32" y="76.18" width="53" height="18" rx="4" ry="4"/></clipPath><clipPath id="clip-path-17"><path class="cls-2" d="M-553.32,117.68a6.27,6.27,0,0,1-6,6.5,6.27,6.27,0,0,1-6-6.5,6.27,6.27,0,0,1,6-6.5,6.27,6.27,0,0,1,6,6.5"/></clipPath><clipPath id="clip-path-18"><path class="cls-2" d="M-561.32,117.68a6.26,6.26,0,0,1-6,6.5,6.27,6.27,0,0,1-6-6.5,6.27,6.27,0,0,1,6-6.5,6.26,6.26,0,0,1,6,6.5"/></clipPath><clipPath id="clip-path-19"><rect id="SVGID-13" data-name="SVGID" class="cls-1" x="-68.26" y="0.09" width="21" height="18" rx="4" ry="4"/></clipPath><clipPath id="clip-path-20"><rect id="SVGID-14" data-name="SVGID" class="cls-1" x="-172.51" y="0.09" width="25" height="18" rx="4" ry="4"/></clipPath><clipPath id="clip-path-21"><path id="SVGID-15" data-name="SVGID" class="cls-2" d="M-152.51,41.59a6.27,6.27,0,0,1-6,6.5,6.26,6.26,0,0,1-6-6.5,6.26,6.26,0,0,1,6-6.5,6.27,6.27,0,0,1,6,6.5"/></clipPath><clipPath id="clip-path-22"><path id="SVGID-16" data-name="SVGID" class="cls-2" d="M-51.26,41.59a6.27,6.27,0,0,1-6,6.5,6.26,6.26,0,0,1-6-6.5,6.26,6.26,0,0,1,6-6.5,6.27,6.27,0,0,1,6,6.5"/></clipPath><clipPath id="clip-path-23"><rect class="cls-1" x="178.52" y="0.09" width="21" height="18" rx="4" ry="4"/></clipPath><clipPath id="clip-path-24"><rect class="cls-1" x="-306.48" y="-643.91" width="1440" height="1481"/></clipPath><clipPath id="clip-path-25"><rect class="cls-1" x="122.52" y="0.09" width="53" height="18" rx="4" ry="4"/></clipPath><clipPath id="clip-path-27"><path class="cls-2" d="M186.52,41.59a6,6,0,1,1-12,0,6,6,0,1,1,12,0"/></clipPath><clipPath id="clip-path-29"><path class="cls-2" d="M178.52,41.59a6,6,0,1,1-12,0,6,6,0,1,1,12,0"/></clipPath></defs><title>skewness_plots</title><line class="cls-25" x1="0.91" y1="41.09" x2="224.22" y2="41.09"/><g class="cls-26"><g class="cls-27"><rect class="cls-28" x="173.52" y="-4.91" width="31" height="28"/></g></g><g class="cls-29"><g class="cls-27"><rect class="cls-30" x="117.52" y="-4.91" width="63" height="28"/></g></g><text class="cls-31" transform="translate(185.52 13.09)">1</text><text class="cls-31" transform="translate(129.52 13.09)">0.9951</text><g class="cls-32"><g class="cls-27"><rect class="cls-28" x="169.52" y="30.09" width="22" height="23"/></g></g><g class="cls-33"><g class="cls-27"><rect class="cls-30" x="161.52" y="30.09" width="22" height="23"/></g></g></svg>