<svg id="Layer_1" data-name="Layer 1" xmlns="http://www.w3.org/2000/svg" xmlns:xlink="http://www.w3.org/1999/xlink" viewBox="0 0 32.08 19.53"><defs><style>.cls-1,.cls-12,.cls-2{fill:none;}.cls-2{clip-rule:evenodd;}.cls-3{clip-path:url(#clip-path);}.cls-4{clip-path:url(#clip-path-2);}.cls-5{clip-path:url(#clip-path-3);}.cls-6{clip-path:url(#clip-path-4);}.cls-7{clip-path:url(#clip-path-5);}.cls-8{clip-path:url(#clip-path-6);}.cls-9{clip-path:url(#clip-path-7);}.cls-10{clip-path:url(#clip-path-8);}.cls-11{fill:#c1c1c1;}.cls-12{stroke:#7a7a7a;stroke-linecap:square;stroke-miterlimit:10;}.cls-13{clip-path:url(#clip-path-9);}.cls-14{clip-path:url(#clip-path-10);}.cls-15{clip-path:url(#clip-path-11);}.cls-16{clip-path:url(#clip-path-12);}.cls-17{clip-path:url(#clip-path-13);}.cls-18{clip-path:url(#clip-path-14);}.cls-19{clip-path:url(#clip-path-15);}.cls-20{clip-path:url(#clip-path-16);}.cls-21{clip-path:url(#clip-path-17);}.cls-22{clip-path:url(#clip-path-18);}.cls-23{clip-path:url(#clip-path-19);}.cls-24{clip-path:url(#clip-path-20);}.cls-25{clip-path:url(#clip-path-21);}.cls-26{clip-path:url(#clip-path-22);}.cls-27{clip-path:url(#clip-path-23);}.cls-28{clip-path:url(#clip-path-24);}.cls-29{clip-path:url(#clip-path-25);}.cls-30{clip-path:url(#clip-path-26);}</style><clipPath id="clip-path"><rect id="SVGID" class="cls-1" x="-257.1" y="192.38" width="21" height="18" rx="4" ry="4"/></clipPath><clipPath id="clip-path-2"><rect id="SVGID-2" data-name="SVGID" class="cls-1" x="-360.35" y="192.38" width="25" height="18" rx="4" ry="4"/></clipPath><clipPath id="clip-path-3"><path id="SVGID-3" data-name="SVGID" class="cls-2" d="M-341.35,223.88a6.27,6.27,0,0,1-6,6.5,6.27,6.27,0,0,1-6-6.5,6.27,6.27,0,0,1,6-6.5,6.27,6.27,0,0,1,6,6.5"/></clipPath><clipPath id="clip-path-4"><path id="SVGID-4" data-name="SVGID" class="cls-2" d="M-240.1,223.88a6.27,6.27,0,0,1-6,6.5,6.27,6.27,0,0,1-6-6.5,6.27,6.27,0,0,1,6-6.5,6.27,6.27,0,0,1,6,6.5"/></clipPath><clipPath id="clip-path-5"><rect id="SVGID-5" data-name="SVGID" class="cls-1" x="-369.7" y="-100.12" width="25" height="18" rx="4" ry="4"/></clipPath><clipPath id="clip-path-6"><rect id="SVGID-6" data-name="SVGID" class="cls-1" x="-233.7" y="-100.12" width="21" height="18" rx="4" ry="4"/></clipPath><clipPath id="clip-path-7"><path id="SVGID-7" data-name="SVGID" class="cls-2" d="M-349.7-58.62a6.27,6.27,0,0,1-6,6.5,6.27,6.27,0,0,1-6-6.5,6.27,6.27,0,0,1,6-6.5,6.27,6.27,0,0,1,6,6.5"/></clipPath><clipPath id="clip-path-8"><path id="SVGID-8" data-name="SVGID" class="cls-2" d="M-216.7-58.62a6.27,6.27,0,0,1-6,6.5,6.27,6.27,0,0,1-6-6.5,6.27,6.27,0,0,1,6-6.5,6.27,6.27,0,0,1,6,6.5"/></clipPath><clipPath id="clip-path-9"><rect id="SVGID-9" data-name="SVGID" class="cls-1" x="-257.1" y="-12.12" width="21" height="18" rx="4" ry="4"/></clipPath><clipPath id="clip-path-10"><rect id="SVGID-10" data-name="SVGID" class="cls-1" x="-361.35" y="-12.12" width="25" height="18" rx="4" ry="4"/></clipPath><clipPath id="clip-path-11"><path id="SVGID-11" data-name="SVGID" class="cls-2" d="M-341.35,29.38a6.27,6.27,0,0,1-6,6.5,6.27,6.27,0,0,1-6-6.5,6.27,6.27,0,0,1,6-6.5,6.27,6.27,0,0,1,6,6.5"/></clipPath><clipPath id="clip-path-12"><path id="SVGID-12" data-name="SVGID" class="cls-2" d="M-240.1,29.38a6.27,6.27,0,0,1-6,6.5,6.27,6.27,0,0,1-6-6.5,6.27,6.27,0,0,1,6-6.5,6.27,6.27,0,0,1,6,6.5"/></clipPath><clipPath id="clip-path-13"><path class="cls-2" d="M-457.83-166.2c34.29,0,39.58-82.23,70.84-82.23s16.36,82.23,152.17,82.23Z"/></clipPath><clipPath id="clip-path-14"><path class="cls-2" d="M-389.6-166.2c25.56,0,29.5-73,52.78-73s12.19,73,113.37,73Z"/></clipPath><clipPath id="clip-path-15"><rect class="cls-1" x="-252.65" y="63.97" width="21" height="18" rx="4" ry="4"/></clipPath><clipPath id="clip-path-16"><rect class="cls-1" x="-308.65" y="63.97" width="53" height="18" rx="4" ry="4"/></clipPath><clipPath id="clip-path-17"><path class="cls-2" d="M-244.65,105.47a6.27,6.27,0,0,1-6,6.5,6.26,6.26,0,0,1-6-6.5,6.26,6.26,0,0,1,6-6.5,6.27,6.27,0,0,1,6,6.5"/></clipPath><clipPath id="clip-path-18"><path class="cls-2" d="M-252.65,105.47a6.27,6.27,0,0,1-6,6.5,6.26,6.26,0,0,1-6-6.5,6.26,6.26,0,0,1,6-6.5,6.27,6.27,0,0,1,6,6.5"/></clipPath><clipPath id="clip-path-19"><rect id="SVGID-13" data-name="SVGID" class="cls-1" x="240.4" y="-12.12" width="21" height="18" rx="4" ry="4"/></clipPath><clipPath id="clip-path-20"><rect id="SVGID-14" data-name="SVGID" class="cls-1" x="136.15" y="-12.12" width="25" height="18" rx="4" ry="4"/></clipPath><clipPath id="clip-path-21"><path id="SVGID-15" data-name="SVGID" class="cls-2" d="M156.15,29.38a6,6,0,1,1-12,0,6,6,0,1,1,12,0"/></clipPath><clipPath id="clip-path-22"><path id="SVGID-16" data-name="SVGID" class="cls-2" d="M257.4,29.38a6,6,0,1,1-12,0,6,6,0,1,1,12,0"/></clipPath><clipPath id="clip-path-23"><rect class="cls-1" x="487.18" y="-12.12" width="21" height="18" rx="4" ry="4"/></clipPath><clipPath id="clip-path-24"><rect class="cls-1" x="431.18" y="-12.12" width="53" height="18" rx="4" ry="4"/></clipPath><clipPath id="clip-path-25"><path class="cls-2" d="M495.18,29.38a6,6,0,1,1-12,0,6,6,0,1,1,12,0"/></clipPath><clipPath id="clip-path-26"><path class="cls-2" d="M487.18,29.38a6,6,0,1,1-12,0,6,6,0,1,1,12,0"/></clipPath></defs><title>skewness_plots</title><path class="cls-11" d="M1.05,18.55c3,0,2.88-11.37,6.45-11.37,2.84,0,3.23,5.9,6.05,5.9,5.26,0,3.14-9.43,8.76-9.43,5.88,0,4.24,14.9,9,14.9Z"/><line class="cls-12" x1="22.84" y1="18.48" x2="22.84" y2="0.48"/><line class="cls-12" x1="0.3" y1="18.98" x2="31.3" y2="18.98"/></svg>