<svg id="Layer_1" data-name="Layer 1" xmlns="http://www.w3.org/2000/svg" xmlns:xlink="http://www.w3.org/1999/xlink" viewBox="0 0 303 49.4"><defs><style>.cls-1,.cls-12,.cls-19,.cls-2{fill:none;}.cls-2{clip-rule:evenodd;}.cls-3{clip-path:url(#clip-path);}.cls-4{clip-path:url(#clip-path-2);}.cls-5{clip-path:url(#clip-path-3);}.cls-6{clip-path:url(#clip-path-4);}.cls-7{clip-path:url(#clip-path-5);}.cls-8{clip-path:url(#clip-path-6);}.cls-9{clip-path:url(#clip-path-7);}.cls-10{clip-path:url(#clip-path-8);}.cls-11{fill:#c1c1c1;}.cls-12{stroke:#7a7a7a;}.cls-12,.cls-19{stroke-linecap:square;stroke-miterlimit:10;}.cls-13{clip-path:url(#clip-path-9);}.cls-14{clip-path:url(#clip-path-10);}.cls-15{clip-path:url(#clip-path-11);}.cls-16{clip-path:url(#clip-path-12);}.cls-17{clip-path:url(#clip-path-13);}.cls-18{clip-path:url(#clip-path-14);}.cls-19{stroke:#393939;stroke-width:2px;}.cls-20{clip-path:url(#clip-path-15);}.cls-21{clip-path:url(#clip-path-16);}.cls-22{fill:#3484b5;}.cls-23{clip-path:url(#clip-path-17);}.cls-24{fill:#52288e;}.cls-25{font-size:12px;fill:#fff;font-family:Lato-Black, Lato;}.cls-26{clip-path:url(#clip-path-19);}.cls-27{clip-path:url(#clip-path-21);}.cls-28{clip-path:url(#clip-path-23);}.cls-29{clip-path:url(#clip-path-24);}.cls-30{clip-path:url(#clip-path-25);}.cls-31{clip-path:url(#clip-path-26);}</style><clipPath id="clip-path"><rect id="SVGID" class="cls-1" x="213.44" y="129.22" width="21" height="18" rx="4" ry="4"/></clipPath><clipPath id="clip-path-2"><rect id="SVGID-2" data-name="SVGID" class="cls-1" x="110.19" y="129.22" width="25" height="18" rx="4" ry="4"/></clipPath><clipPath id="clip-path-3"><path id="SVGID-3" data-name="SVGID" class="cls-2" d="M129.19,160.72a6,6,0,1,1-6-6.5,6.26,6.26,0,0,1,6,6.5"/></clipPath><clipPath id="clip-path-4"><path id="SVGID-4" data-name="SVGID" class="cls-2" d="M230.44,160.72a6,6,0,1,1-6-6.5,6.26,6.26,0,0,1,6,6.5"/></clipPath><clipPath id="clip-path-5"><rect id="SVGID-5" data-name="SVGID" class="cls-1" x="100.84" y="-163.28" width="25" height="18" rx="4" ry="4"/></clipPath><clipPath id="clip-path-6"><rect id="SVGID-6" data-name="SVGID" class="cls-1" x="236.84" y="-163.28" width="21" height="18" rx="4" ry="4"/></clipPath><clipPath id="clip-path-7"><path id="SVGID-7" data-name="SVGID" class="cls-2" d="M120.84-121.78a6.26,6.26,0,0,1-6,6.5,6.27,6.27,0,0,1-6-6.5,6.27,6.27,0,0,1,6-6.5,6.26,6.26,0,0,1,6,6.5"/></clipPath><clipPath id="clip-path-8"><path id="SVGID-8" data-name="SVGID" class="cls-2" d="M253.84-121.78a6.26,6.26,0,0,1-6,6.5,6.27,6.27,0,0,1-6-6.5,6.27,6.27,0,0,1,6-6.5,6.26,6.26,0,0,1,6,6.5"/></clipPath><clipPath id="clip-path-9"><rect id="SVGID-9" data-name="SVGID" class="cls-1" x="213.44" y="-75.28" width="21" height="18" rx="4" ry="4"/></clipPath><clipPath id="clip-path-10"><rect id="SVGID-10" data-name="SVGID" class="cls-1" x="109.19" y="-75.28" width="25" height="18" rx="4" ry="4"/></clipPath><clipPath id="clip-path-11"><path id="SVGID-11" data-name="SVGID" class="cls-2" d="M129.19-33.78a6.26,6.26,0,0,1-6,6.5,6.27,6.27,0,0,1-6-6.5,6.27,6.27,0,0,1,6-6.5,6.26,6.26,0,0,1,6,6.5"/></clipPath><clipPath id="clip-path-12"><path id="SVGID-12" data-name="SVGID" class="cls-2" d="M230.44-33.78a6.26,6.26,0,0,1-6,6.5,6.27,6.27,0,0,1-6-6.5,6.27,6.27,0,0,1,6-6.5,6.26,6.26,0,0,1,6,6.5"/></clipPath><clipPath id="clip-path-13"><path class="cls-2" d="M12.71-229.36c34.3,0,39.59-82.24,70.85-82.24s16.35,82.24,152.16,82.24Z"/></clipPath><clipPath id="clip-path-14"><path class="cls-2" d="M81-229.36c25.55,0,29.49-73,52.78-73s12.18,73,113.36,73Z"/></clipPath><clipPath id="clip-path-15"><rect class="cls-1" x="217.89" y="0.81" width="21" height="18" rx="4" ry="4"/></clipPath><clipPath id="clip-path-16"><rect class="cls-1" x="-267.11" y="-643.19" width="1440" height="1481"/></clipPath><clipPath id="clip-path-17"><rect class="cls-1" x="161.89" y="0.81" width="53" height="18" rx="4" ry="4"/></clipPath><clipPath id="clip-path-19"><path class="cls-2" d="M225.89,42.31a6,6,0,1,1-12,0,6,6,0,1,1,12,0"/></clipPath><clipPath id="clip-path-21"><path class="cls-2" d="M217.89,42.31a6,6,0,1,1-12,0,6,6,0,1,1,12,0"/></clipPath><clipPath id="clip-path-23"><rect id="SVGID-13" data-name="SVGID" class="cls-1" x="710.94" y="-75.28" width="21" height="18" rx="4" ry="4"/></clipPath><clipPath id="clip-path-24"><rect id="SVGID-14" data-name="SVGID" class="cls-1" x="606.69" y="-75.28" width="25" height="18" rx="4" ry="4"/></clipPath><clipPath id="clip-path-25"><path id="SVGID-15" data-name="SVGID" class="cls-2" d="M626.69-33.78a6.26,6.26,0,0,1-6,6.5,6.27,6.27,0,0,1-6-6.5,6.27,6.27,0,0,1,6-6.5,6.26,6.26,0,0,1,6,6.5"/></clipPath><clipPath id="clip-path-26"><path id="SVGID-16" data-name="SVGID" class="cls-2" d="M727.94-33.78a6.26,6.26,0,0,1-6,6.5,6.27,6.27,0,0,1-6-6.5,6.27,6.27,0,0,1,6-6.5,6.26,6.26,0,0,1,6,6.5"/></clipPath></defs><title>skewness_plots</title><path class="cls-11" d="M4.75,33.52c3,0,2.63-2.82,4.75-2.82S10.44,33,14.69,33c6.37,0,6.49-15.44,11.69-15.44,4.8,0,3.87,16,8.62,16Z"/><line class="cls-12" x1="26.53" y1="33.45" x2="26.53" y2="15.45"/><line class="cls-12" x1="4" y1="33.95" x2="35" y2="33.95"/><path class="cls-11" d="M267.91,33.52c3,0,2.87-11.37,6.45-11.37,2.84,0,3.22,5.9,6.05,5.9,5.26,0,3.14-9.43,8.76-9.43,5.88,0,4.24,14.9,9,14.9Z"/><line class="cls-12" x1="289.69" y1="33.45" x2="289.69" y2="15.45"/><line class="cls-12" x1="267.16" y1="33.95" x2="298.16" y2="33.95"/><line class="cls-19" x1="40.29" y1="41.81" x2="263.6" y2="41.81"/><g class="cls-20"><g class="cls-21"><rect class="cls-22" x="212.89" y="-4.19" width="31" height="28"/></g></g><g class="cls-23"><g class="cls-21"><rect class="cls-24" x="156.89" y="-4.19" width="63" height="28"/></g></g><text class="cls-25" transform="translate(224.89 13.81)">1</text><text class="cls-25" transform="translate(168.89 13.81)">0.9951</text><g class="cls-26"><g class="cls-21"><rect class="cls-22" x="208.89" y="30.81" width="22" height="23"/></g></g><g class="cls-27"><g class="cls-21"><rect class="cls-24" x="200.89" y="30.81" width="22" height="23"/></g></g></svg>