<?xml version="1.0" encoding="utf-8"?>
<!-- Generator: Adobe Illustrator 22.1.0, SVG Export Plug-In . SVG Version: 6.00 Build 0)  -->
<svg version="1.1" id="Layer_1" xmlns="http://www.w3.org/2000/svg" xmlns:xlink="http://www.w3.org/1999/xlink" x="0px" y="0px"
	 viewBox="0 0 302 134.2" style="enable-background:new 0 0 302 134.2;" xml:space="preserve">
<style type="text/css">
	.st0{clip-path:url(#SVGID_2_);}
	.st1{clip-path:url(#SVGID_4_);fill:#B9B9B9;}
	.st2{clip-path:url(#SVGID_6_);}
	.st3{clip-path:url(#SVGID_8_);fill:#3785B6;}
	.st4{fill:none;stroke:#3A3A39;stroke-width:3;stroke-linecap:square;stroke-miterlimit:10;}
	.st5{fill:none;stroke:#B9B9B9;stroke-width:3;stroke-linecap:square;stroke-miterlimit:10;}
	.st6{fill:none;stroke:#3785B6;stroke-width:3;stroke-linecap:square;stroke-miterlimit:10;}
	.st7{fill:none;stroke:#FFFFFF;stroke-width:3;stroke-linecap:square;stroke-miterlimit:10;}
	.st8{clip-path:url(#SVGID_10_);}
	.st9{clip-path:url(#SVGID_12_);fill:#B9B9B9;}
	.st10{clip-path:url(#SVGID_14_);}
	.st11{clip-path:url(#SVGID_16_);fill:#532E8D;}
	.st12{clip-path:url(#SVGID_18_);}
	.st13{clip-path:url(#SVGID_20_);fill:#532E8D;}
	.st14{clip-path:url(#SVGID_22_);}
	.st15{clip-path:url(#SVGID_24_);fill:#532E8D;}
	.st16{fill:none;stroke:#532E8D;stroke-width:3;stroke-linecap:square;stroke-miterlimit:10;}
	.st17{fill:#4B4B4B;}
	.st18{font-family:'Lato-Bold';}
	.st19{font-size:14px;}
</style>
<g>
	<defs>
		<path id="SVGID_1_" d="M92-247.1h102c5,0,9,4,9,9c0,5-4,9-9,9H92c-5,0-9-4-9-9C83-243,87-247.1,92-247.1z"/>
	</defs>
	<clipPath id="SVGID_2_">
		<use xlink:href="#SVGID_1_"  style="overflow:visible;"/>
	</clipPath>
	<g class="st0">
		<defs>
			<rect id="SVGID_3_" x="-570" y="-555.1" width="1440" height="1024"/>
		</defs>
		<clipPath id="SVGID_4_">
			<use xlink:href="#SVGID_3_"  style="overflow:visible;"/>
		</clipPath>
	</g>
</g>
<g>
	<defs>
		<path id="SVGID_5_" d="M61-221.1h102c5,0,9,4,9,9c0,5-4,9-9,9H61c-5,0-9-4-9-9C52-217,56-221.1,61-221.1z"/>
	</defs>
	<clipPath id="SVGID_6_">
		<use xlink:href="#SVGID_5_"  style="overflow:visible;"/>
	</clipPath>
	<g class="st2">
		<defs>
			<rect id="SVGID_7_" x="-570" y="-555.1" width="1440" height="1024"/>
		</defs>
		<clipPath id="SVGID_8_">
			<use xlink:href="#SVGID_7_"  style="overflow:visible;"/>
		</clipPath>
	</g>
</g>
<g>
	<defs>
		<path id="SVGID_9_" d="M72.4,0.7h102c5,0,9,4,9,9s-4,9-9,9h-102c-5,0-9-4-9-9S67.4,0.7,72.4,0.7z"/>
	</defs>
	<clipPath id="SVGID_10_">
		<use xlink:href="#SVGID_9_"  style="overflow:visible;"/>
	</clipPath>
	<g class="st8">
		<defs>
			<rect id="SVGID_11_" x="-570.6" y="-519.3" width="1440" height="1024"/>
		</defs>
		<clipPath id="SVGID_12_">
			<use xlink:href="#SVGID_11_"  style="overflow:visible;"/>
		</clipPath>
		<rect x="58.4" y="-4.3" class="st9" width="130" height="28"/>
	</g>
</g>
<g>
	<defs>
		<path id="SVGID_13_" d="M37.4,27.7h89c5,0,9,4,9,9c0,5-4,9-9,9h-89c-5,0-9-4-9-9C28.4,31.7,32.4,27.7,37.4,27.7z"/>
	</defs>
	<clipPath id="SVGID_14_">
		<use xlink:href="#SVGID_13_"  style="overflow:visible;"/>
	</clipPath>
	<g class="st10">
		<defs>
			<rect id="SVGID_15_" x="-570.6" y="-519.3" width="1440" height="1024"/>
		</defs>
		<clipPath id="SVGID_16_">
			<use xlink:href="#SVGID_15_"  style="overflow:visible;"/>
		</clipPath>
		<rect x="23.4" y="22.7" class="st11" width="117" height="28"/>
	</g>
</g>
<g>
	<defs>
		<path id="SVGID_17_" d="M72.4,55.7h89c5,0,9,4,9,9s-4,9-9,9h-89c-5,0-9-4-9-9S67.4,55.7,72.4,55.7z"/>
	</defs>
	<clipPath id="SVGID_18_">
		<use xlink:href="#SVGID_17_"  style="overflow:visible;"/>
	</clipPath>
	<g class="st12">
		<defs>
			<rect id="SVGID_19_" x="-570.6" y="-519.3" width="1440" height="1024"/>
		</defs>
		<clipPath id="SVGID_20_">
			<use xlink:href="#SVGID_19_"  style="overflow:visible;"/>
		</clipPath>
		<rect x="58.4" y="50.7" class="st13" width="117" height="28"/>
	</g>
</g>
<g>
	<defs>
		<path id="SVGID_21_" d="M113.4,83.7h89c5,0,9,4,9,9s-4,9-9,9h-89c-5,0-9-4-9-9S108.4,83.7,113.4,83.7z"/>
	</defs>
	<clipPath id="SVGID_22_">
		<use xlink:href="#SVGID_21_"  style="overflow:visible;"/>
	</clipPath>
	<g class="st14">
		<defs>
			<rect id="SVGID_23_" x="-570.6" y="-519.3" width="1440" height="1024"/>
		</defs>
		<clipPath id="SVGID_24_">
			<use xlink:href="#SVGID_23_"  style="overflow:visible;"/>
		</clipPath>
		<rect x="99.4" y="78.7" class="st15" width="117" height="28"/>
	</g>
</g>
<g>
	<line class="st5" x1="42.9" y1="10.6" x2="219.9" y2="10.6"/>
	<line class="st16" x1="18.9" y1="36.6" x2="200.9" y2="36.6"/>
	<line class="st16" x1="29.9" y1="64.6" x2="184.9" y2="64.6"/>
	<line class="st16" x1="93.9" y1="92.6" x2="248.9" y2="92.6"/>
	<line class="st4" x1="1.4" y1="115.6" x2="300.4" y2="115.6"/>
	<text transform="matrix(1 0 0 1 146.7233 133.6506)" class="st17 st18 st19">0</text>
	<text transform="matrix(1 0 0 1 214.0607 133.6506)" class="st17 st18 st19">.5</text>
	<text transform="matrix(1 0 0 1 284.7233 133.6506)" class="st17 st18 st19">1</text>
	<text transform="matrix(1 0 0 1 72.4494 133.6506)" class="st17 st18 st19">-.5</text>
	<text transform="matrix(1 0 0 1 5.112 133.6506)" class="st17 st18 st19">-1</text>
	<line class="st7" x1="137.9" y1="-0.8" x2="137.9" y2="23.2"/>
	<line class="st7" x1="83.9" y1="24.2" x2="83.9" y2="48.2"/>
	<line class="st7" x1="115.9" y1="52.2" x2="115.9" y2="76.2"/>
	<line class="st7" x1="179.9" y1="80.2" x2="179.9" y2="104.2"/>
</g>
</svg>
