<?xml version="1.0" encoding="utf-8"?>
<!-- Generator: Adobe Illustrator 22.1.0, SVG Export Plug-In . SVG Version: 6.00 Build 0)  -->
<svg version="1.1" id="Layer_1" xmlns="http://www.w3.org/2000/svg" xmlns:xlink="http://www.w3.org/1999/xlink" x="0px" y="0px"
	 viewBox="0 0 301.7 112.3" style="enable-background:new 0 0 301.7 112.3;" xml:space="preserve">
<style type="text/css">
	.st0{fill:none;stroke:#3A3A39;stroke-width:3;stroke-linecap:square;stroke-miterlimit:10;}
	.st1{fill:#4B4B4B;}
	.st2{font-family:'Lato-Bold';}
	.st3{font-size:14px;}
	.st4{clip-path:url(#SVGID_2_);}
	.st5{opacity:0.45;clip-path:url(#SVGID_4_);fill:#532E8D;}
	.st6{clip-path:url(#SVGID_6_);}
	.st7{opacity:0.45;clip-path:url(#SVGID_8_);fill:#3785B6;}
	.st8{fill:none;stroke:#CA2727;stroke-width:2;stroke-linecap:square;stroke-miterlimit:10;stroke-dasharray:8,6;}
	.st9{fill:none;stroke:#3A3A39;stroke-linecap:square;stroke-miterlimit:10;}
</style>
<g>
	<line class="st0" x1="1.4" y1="92.9" x2="300.4" y2="92.9"/>
	<text transform="matrix(1 0 0 1 174.1204 111.4216)" class="st1 st2 st3">0</text>
	<text transform="matrix(1 0 0 1 227.8608 111.4216)" class="st1 st2 st3">.5</text>
	<text transform="matrix(1 0 0 1 284.9263 111.4216)" class="st1 st2 st3">1</text>
	<text transform="matrix(1 0 0 1 115.3229 111.4216)" class="st1 st2 st3">-.5</text>
	<text transform="matrix(1 0 0 1 61.5826 111.4216)" class="st1 st2 st3">-1</text>
	<text transform="matrix(1 0 0 1 0.8544 111.4216)" class="st1 st2 st3">-1.5</text>
</g>
<g>
	<defs>
		<path id="SVGID_1_" d="M4.4,92C38.7,92,44,9.8,75.3,9.8C106.5,9.8,91.6,92,227.4,92S-29.9,92,4.4,92z"/>
	</defs>
	<clipPath id="SVGID_2_">
		<use xlink:href="#SVGID_1_"  style="overflow:visible;"/>
	</clipPath>
	<g class="st4">
		<defs>
			<rect id="SVGID_3_" x="-231.6" y="-350.2" width="1440" height="1024"/>
		</defs>
		<clipPath id="SVGID_4_">
			<use xlink:href="#SVGID_3_"  style="overflow:visible;"/>
		</clipPath>
		<rect x="-2.7" y="4.8" class="st5" width="263.8" height="92.2"/>
	</g>
</g>
<g>
	<defs>
		<path id="SVGID_5_" d="M72.7,92c25.6,0,29.5-73,52.8-73c23.3,0,12.2,73,113.4,73S47.1,92,72.7,92z"/>
	</defs>
	<clipPath id="SVGID_6_">
		<use xlink:href="#SVGID_5_"  style="overflow:visible;"/>
	</clipPath>
	<g class="st6">
		<defs>
			<rect id="SVGID_7_" x="-231.6" y="-350.2" width="1440" height="1024"/>
		</defs>
		<clipPath id="SVGID_8_">
			<use xlink:href="#SVGID_7_"  style="overflow:visible;"/>
		</clipPath>
		<rect x="66.1" y="14" class="st7" width="199.1" height="83"/>
	</g>
</g>
<g>
	<line class="st8" x1="70.7" y1="92.9" x2="70.7" y2="0.7"/>
	<line class="st9" x1="178.7" y1="92.9" x2="178.7" y2="0.7"/>
</g>
</svg>
