<svg id="Layer_1" data-name="Layer 1" xmlns="http://www.w3.org/2000/svg" xmlns:xlink="http://www.w3.org/1999/xlink" viewBox="0 0 303 138.57"><defs><style>.cls-1,.cls-2,.cls-21,.cls-22,.cls-23,.cls-24,.cls-25,.cls-28,.cls-34{fill:none;}.cls-2{clip-rule:evenodd;}.cls-3{clip-path:url(#clip-path);}.cls-4{clip-path:url(#clip-path-2);}.cls-5{clip-path:url(#clip-path-3);}.cls-6{clip-path:url(#clip-path-4);}.cls-7{clip-path:url(#clip-path-5);}.cls-8{clip-path:url(#clip-path-6);}.cls-9{clip-path:url(#clip-path-7);}.cls-10{clip-path:url(#clip-path-8);}.cls-11{clip-path:url(#clip-path-9);}.cls-12{clip-path:url(#clip-path-10);}.cls-13{clip-path:url(#clip-path-11);}.cls-14{clip-path:url(#clip-path-12);}.cls-15{clip-path:url(#clip-path-13);}.cls-16{clip-path:url(#clip-path-14);}.cls-17{clip-path:url(#clip-path-15);}.cls-18{clip-path:url(#clip-path-16);}.cls-19{clip-path:url(#clip-path-17);}.cls-20{clip-path:url(#clip-path-18);}.cls-21{stroke:#ca251f;stroke-width:2px;stroke-dasharray:8 6;}.cls-21,.cls-28,.cls-34{stroke-linecap:square;}.cls-21,.cls-22,.cls-23,.cls-24,.cls-25,.cls-28,.cls-34{stroke-miterlimit:10;}.cls-22{stroke:#b7abd0;}.cls-22,.cls-23,.cls-24,.cls-25,.cls-26,.cls-27{opacity:0.5;}.cls-23{stroke:#b5cedf;}.cls-24{stroke:#52288e;}.cls-25{stroke:#3484b5;}.cls-26,.cls-33{fill:#3484b5;}.cls-27,.cls-31{fill:#52288e;}.cls-28,.cls-34{stroke:#393939;}.cls-28{stroke-width:3px;}.cls-29{font-size:14px;fill:#4a4a4a;font-family:Lato-Bold, Lato;font-weight:700;}.cls-30{clip-path:url(#clip-path-19);}.cls-31,.cls-33{opacity:0.45;}.cls-32{clip-path:url(#clip-path-20);}</style><clipPath id="clip-path"><rect id="SVGID" class="cls-1" x="-382.03" y="319.22" width="21" height="18" rx="4" ry="4"/></clipPath><clipPath id="clip-path-2"><rect id="SVGID-2" data-name="SVGID" class="cls-1" x="-485.28" y="319.22" width="25" height="18" rx="4" ry="4"/></clipPath><clipPath id="clip-path-3"><path id="SVGID-3" data-name="SVGID" class="cls-2" d="M-466.28,350.72a6.26,6.26,0,0,1-6,6.5,6.27,6.27,0,0,1-6-6.5,6.27,6.27,0,0,1,6-6.5,6.26,6.26,0,0,1,6,6.5"/></clipPath><clipPath id="clip-path-4"><path id="SVGID-4" data-name="SVGID" class="cls-2" d="M-365,350.72a6.26,6.26,0,0,1-6,6.5,6.27,6.27,0,0,1-6-6.5,6.27,6.27,0,0,1,6-6.5,6.26,6.26,0,0,1,6,6.5"/></clipPath><clipPath id="clip-path-5"><rect id="SVGID-5" data-name="SVGID" class="cls-1" x="-494.63" y="26.72" width="25" height="18" rx="4" ry="4"/></clipPath><clipPath id="clip-path-6"><rect id="SVGID-6" data-name="SVGID" class="cls-1" x="-358.63" y="26.72" width="21" height="18" rx="4" ry="4"/></clipPath><clipPath id="clip-path-7"><path id="SVGID-7" data-name="SVGID" class="cls-2" d="M-474.63,68.22a6.26,6.26,0,0,1-6,6.5,6.27,6.27,0,0,1-6-6.5,6.27,6.27,0,0,1,6-6.5,6.26,6.26,0,0,1,6,6.5"/></clipPath><clipPath id="clip-path-8"><path id="SVGID-8" data-name="SVGID" class="cls-2" d="M-341.63,68.22a6.26,6.26,0,0,1-6,6.5,6.27,6.27,0,0,1-6-6.5,6.27,6.27,0,0,1,6-6.5,6.26,6.26,0,0,1,6,6.5"/></clipPath><clipPath id="clip-path-9"><rect id="SVGID-9" data-name="SVGID" class="cls-1" x="-382.03" y="114.72" width="21" height="18" rx="4" ry="4"/></clipPath><clipPath id="clip-path-10"><rect id="SVGID-10" data-name="SVGID" class="cls-1" x="-486.28" y="114.72" width="25" height="18" rx="4" ry="4"/></clipPath><clipPath id="clip-path-11"><path id="SVGID-11" data-name="SVGID" class="cls-2" d="M-466.28,156.22a6.26,6.26,0,0,1-6,6.5,6.27,6.27,0,0,1-6-6.5,6.27,6.27,0,0,1,6-6.5,6.26,6.26,0,0,1,6,6.5"/></clipPath><clipPath id="clip-path-12"><path id="SVGID-12" data-name="SVGID" class="cls-2" d="M-365,156.22a6.26,6.26,0,0,1-6,6.5,6.27,6.27,0,0,1-6-6.5,6.27,6.27,0,0,1,6-6.5,6.26,6.26,0,0,1,6,6.5"/></clipPath><clipPath id="clip-path-13"><path class="cls-2" d="M-582.76-39.36c34.3,0,39.59-82.24,70.84-82.24s16.36,82.24,152.17,82.24Z"/></clipPath><clipPath id="clip-path-14"><path class="cls-2" d="M-514.52-39.36c25.55,0,29.49-73,52.78-73s12.18,73,113.36,73Z"/></clipPath><clipPath id="clip-path-15"><rect class="cls-1" x="-377.58" y="190.81" width="21" height="18" rx="4" ry="4"/></clipPath><clipPath id="clip-path-16"><rect class="cls-1" x="-433.58" y="190.81" width="53" height="18" rx="4" ry="4"/></clipPath><clipPath id="clip-path-17"><path class="cls-2" d="M-369.58,232.31a6.27,6.27,0,0,1-6,6.5,6.27,6.27,0,0,1-6-6.5,6.27,6.27,0,0,1,6-6.5,6.27,6.27,0,0,1,6,6.5"/></clipPath><clipPath id="clip-path-18"><path class="cls-2" d="M-377.58,232.31a6.27,6.27,0,0,1-6,6.5,6.27,6.27,0,0,1-6-6.5,6.27,6.27,0,0,1,6-6.5,6.27,6.27,0,0,1,6,6.5"/></clipPath><clipPath id="clip-path-19"><path class="cls-2" d="M249.74,53.84c-34.3,0-39.58-29.75-70.84-29.75S162.54,53.84,26.73,53.84Z"/></clipPath><clipPath id="clip-path-20"><path class="cls-2" d="M254.58,53.5c-25.56,0-29.5-26.41-52.78-26.41S189.61,53.5,88.43,53.5Z"/></clipPath></defs><title>essentiality_2</title><line class="cls-21" x1="71.21" y1="55.27" x2="71.21" y2="21.89"/><line class="cls-22" x1="56.72" y1="55.59" x2="56.72" y2="121.83"/><line class="cls-22" x1="34.39" y1="55.59" x2="34.39" y2="129.5"/><line class="cls-22" x1="28.39" y1="55.59" x2="28.39" y2="135.17"/><line class="cls-22" x1="107.83" y1="55.59" x2="107.83" y2="88.71"/><line class="cls-22" x1="105.71" y1="55.59" x2="105.71" y2="90"/><line class="cls-22" x1="68.74" y1="55.59" x2="68.74" y2="113.55"/><line class="cls-22" x1="103.39" y1="55.59" x2="103.39" y2="92.02"/><line class="cls-23" x1="112.31" y1="55.59" x2="112.31" y2="82.09"/><line class="cls-23" x1="110.19" y1="55.59" x2="110.19" y2="84.38"/><line class="cls-23" x1="98.81" y1="55.59" x2="98.81" y2="93"/><line class="cls-22" x1="120.09" y1="55.59" x2="120.09" y2="78.78"/><line class="cls-22" x1="118.22" y1="55.59" x2="118.22" y2="78.78"/><line class="cls-22" x1="116.02" y1="55.59" x2="116.02" y2="80.27"/><line class="cls-22" x1="114.77" y1="55.59" x2="114.77" y2="80.27"/><line class="cls-23" x1="85.39" y1="55.59" x2="85.39" y2="103.62"/><line class="cls-23" x1="95.23" y1="55.59" x2="95.23" y2="95.34"/><line class="cls-22" x1="78.8" y1="55.59" x2="78.8" y2="108.58"/><line class="cls-22" x1="89.78" y1="55.59" x2="89.78" y2="100.3"/><line class="cls-23" x1="130.39" y1="55.59" x2="130.39" y2="72.38"/><line class="cls-22" x1="131.56" y1="55.59" x2="131.56" y2="71.67"/><line class="cls-22" x1="128.26" y1="55.59" x2="128.26" y2="71.67"/><line class="cls-24" x1="133.22" y1="55.59" x2="133.22" y2="70.67"/><line class="cls-24" x1="130.05" y1="55.59" x2="130.05" y2="72.18"/><line class="cls-24" x1="134.25" y1="55.59" x2="134.25" y2="70.67"/><line class="cls-22" x1="135.83" y1="55.59" x2="135.83" y2="70.67"/><line class="cls-25" x1="215.85" y1="55.59" x2="215.85" y2="70.67"/><line class="cls-22" x1="217.25" y1="55.59" x2="217.25" y2="71.67"/><line class="cls-25" x1="216.33" y1="56.05" x2="216.33" y2="71.38"/><line class="cls-22" x1="218.5" y1="55.59" x2="218.5" y2="72.67"/><line class="cls-22" x1="220.16" y1="55.59" x2="220.16" y2="72.67"/><line class="cls-25" x1="221.58" y1="56.05" x2="221.58" y2="74.12"/><line class="cls-22" x1="223.25" y1="55.59" x2="223.25" y2="74.67"/><line class="cls-25" x1="225.16" y1="56.05" x2="225.16" y2="76.12"/><line class="cls-23" x1="128.55" y1="55.59" x2="128.55" y2="74.33"/><line class="cls-23" x1="127.17" y1="55.59" x2="127.17" y2="75.46"/><line class="cls-23" x1="129.55" y1="55.59" x2="129.55" y2="73.67"/><line class="cls-23" x1="125.8" y1="55.59" x2="125.8" y2="76.29"/><line class="cls-23" x1="124.43" y1="55.59" x2="124.43" y2="76.29"/><line class="cls-23" x1="123.29" y1="55.59" x2="123.29" y2="77.12"/><line class="cls-22" x1="121.39" y1="55.59" x2="121.39" y2="77.12"/><line class="cls-22" x1="123.71" y1="55.59" x2="123.71" y2="77.12"/><line class="cls-25" x1="249.42" y1="55.59" x2="249.42" y2="88.71"/><line class="cls-25" x1="256.64" y1="55.59" x2="256.64" y2="92.02"/><line class="cls-22" x1="242.14" y1="55.59" x2="242.14" y2="82.09"/><line class="cls-25" x1="229.5" y1="56.05" x2="229.5" y2="79.23"/><line class="cls-22" x1="236.13" y1="55.59" x2="236.13" y2="80.27"/><line class="cls-24" x1="233.38" y1="55.59" x2="233.38" y2="80.27"/><line class="cls-25" x1="227.39" y1="55.59" x2="227.39" y2="77.12"/><rect class="cls-26" x="135.99" y="56.47" width="1.54" height="13.08"/><rect class="cls-26" x="213.84" y="56.47" width="0.93" height="13.08"/><rect class="cls-26" x="152.95" y="56.47" width="3.13" height="9.03"/><rect class="cls-26" x="195.45" y="56.47" width="5.03" height="8.03"/><rect class="cls-26" x="160.7" y="56.47" width="6.3" height="6.42"/><rect class="cls-26" x="184.48" y="56.47" width="10.86" height="6.42"/><rect class="cls-26" x="173.51" y="56.47" width="10.86" height="4.23"/><rect class="cls-26" x="137.74" y="56.47" width="1.54" height="12.28"/><rect class="cls-27" x="138.56" y="56.6" width="0.27" height="10.69"/><rect class="cls-26" x="140.02" y="56.47" width="1.81" height="11.91"/><rect class="cls-27" x="140.02" y="56.68" width="0.67" height="8.87"/><rect class="cls-26" x="145.45" y="56.47" width="2.98" height="10.16"/><rect class="cls-27" x="145.45" y="56.65" width="2.98" height="7.57"/><rect class="cls-26" x="142.08" y="56.47" width="2.98" height="10.78"/><rect class="cls-27" x="143.64" y="56.66" width="1.42" height="8.03" transform="translate(288.69 121.36) rotate(180)"/><rect class="cls-27" x="141.72" y="56.66" width="1.42" height="8.38" transform="translate(284.86 121.7) rotate(180)"/><rect class="cls-26" x="148.67" y="56.47" width="4.04" height="9.53"/><rect class="cls-27" x="148.67" y="56.64" width="4.04" height="7.1"/><rect class="cls-27" x="213.99" y="56.7" width="0.9" height="11.68"/><rect class="cls-26" x="211.83" y="56.47" width="0.94" height="12.2"/><rect class="cls-27" x="212.27" y="56.69" width="1.01" height="10.66"/><rect class="cls-26" x="210.25" y="56.47" width="0.94" height="12.2"/><rect class="cls-27" x="210.62" y="56.69" width="0.94" height="9.09"/><rect class="cls-26" x="208.55" y="56.47" width="1.13" height="10.62"/><rect class="cls-26" x="206.66" y="56.47" width="1.25" height="9.62"/><rect class="cls-27" x="206.66" y="56.64" width="1.25" height="8"/><rect class="cls-27" x="208.12" y="56.64" width="1.25" height="8.54"/><rect class="cls-27" x="209.52" y="56.64" width="1.35" height="8.78"/><rect class="cls-27" x="152.95" y="56.7" width="3.13" height="6.73"/><rect class="cls-26" x="156.33" y="56.47" width="2" height="8.03"/><rect class="cls-27" x="156.43" y="56.67" width="2" height="5.99"/><rect class="cls-26" x="158.58" y="56.47" width="2" height="7.16"/><rect class="cls-27" x="158.68" y="56.65" width="2" height="5.33"/><rect class="cls-27" x="195.45" y="56.67" width="5.03" height="5.98"/><rect class="cls-26" x="200.55" y="56.47" width="2.95" height="8.7"/><rect class="cls-27" x="200.55" y="56.69" width="2.95" height="6.48"/><rect class="cls-26" x="204.06" y="56.47" width="2.03" height="9.25"/><rect class="cls-27" x="203.62" y="56.7" width="1.38" height="6.89"/><rect class="cls-27" x="205.06" y="56.7" width="1.38" height="7.63"/><rect class="cls-27" x="160.7" y="56.7" width="6.3" height="4.78"/><rect class="cls-26" x="167.1" y="56.47" width="6.3" height="5.66"/><rect class="cls-27" x="167.1" y="56.67" width="6.3" height="4.22"/><rect class="cls-27" x="184.48" y="56.7" width="10.86" height="4.78"/><rect class="cls-27" x="173.51" y="56.7" width="10.86" height="3.15"/><line class="cls-28" x1="2.09" y1="55.17" x2="301.09" y2="55.17"/><text class="cls-29" transform="translate(174.46 11.09)">0</text><text class="cls-29" transform="translate(228.8 11.09)">.5</text><text class="cls-29" transform="translate(285.46 11.09)">1</text><text class="cls-29" transform="translate(116.19 11.09)">-.5</text><text class="cls-29" transform="translate(61.85 11.09)">-1</text><text class="cls-29" transform="translate(1.53 11.09)">-1.5</text><g class="cls-30"><rect class="cls-31" x="-6.91" y="19.09" width="263.78" height="39.75"/></g><g class="cls-32"><rect class="cls-33" x="62.09" y="22.09" width="199.07" height="36.41"/></g><line class="cls-34" x1="179.41" y1="55.77" x2="179.41" y2="22.39"/></svg>