<?xml version="1.0" encoding="utf-8"?>
<!-- Generator: Adobe Illustrator 25.4.1, SVG Export Plug-In . SVG Version: 6.00 Build 0)  -->
<svg version="1.1" id="Layer_1" xmlns="http://www.w3.org/2000/svg" xmlns:xlink="http://www.w3.org/1999/xlink" x="0px" y="0px"
	 viewBox="0 0 13.1 13" style="enable-background:new 0 0 13.1 13;" xml:space="preserve">
<style type="text/css">
	.st0{fill:#9E599A;}
</style>
<path class="st0" d="M6.5,13C2.9,13,0,10.1,0,6.5S2.9,0,6.5,0c3.6,0,6.5,2.9,6.5,6.5S10.2,13,6.5,13z M6.5,1C3.5,1,1,3.5,1,6.5
	c0,3,2.5,5.5,5.5,5.5s5.5-2.5,5.5-5.5C12.1,3.5,9.6,1,6.5,1z"/>
<path class="st0" d="M7.1,4.9v5.6H6V4.9H7.1z M7.3,3.2c0,0.1,0,0.2-0.1,0.3c0,0.1-0.1,0.2-0.2,0.3C7,3.8,6.9,3.9,6.8,3.9
	C6.7,4,6.6,4,6.5,4C6.4,4,6.3,4,6.2,3.9C6.1,3.9,6.1,3.8,6,3.8C5.9,3.7,5.9,3.6,5.8,3.5c0-0.1-0.1-0.2-0.1-0.3c0-0.1,0-0.2,0.1-0.3
	c0-0.1,0.1-0.2,0.2-0.2c0.1-0.1,0.2-0.1,0.2-0.2c0.1,0,0.2-0.1,0.3-0.1c0.1,0,0.2,0,0.3,0.1c0.1,0,0.2,0.1,0.3,0.2
	c0.1,0.1,0.1,0.2,0.2,0.2C7.3,3,7.3,3.1,7.3,3.2z"/>
</svg>
