<svg id="Layer_1" data-name="Layer 1" xmlns="http://www.w3.org/2000/svg" xmlns:xlink="http://www.w3.org/1999/xlink" viewBox="0 0 303 49.4"><defs><style>.cls-1,.cls-11,.cls-2,.cls-22{fill:none;}.cls-2{clip-rule:evenodd;}.cls-3{clip-path:url(#clip-path);}.cls-4{clip-path:url(#clip-path-2);}.cls-5{clip-path:url(#clip-path-3);}.cls-6{clip-path:url(#clip-path-4);}.cls-7{clip-path:url(#clip-path-5);}.cls-8{clip-path:url(#clip-path-6);}.cls-9{clip-path:url(#clip-path-7);}.cls-10{clip-path:url(#clip-path-8);}.cls-11{stroke:#393939;stroke-width:2px;}.cls-11,.cls-22{stroke-linecap:square;stroke-miterlimit:10;}.cls-12{clip-path:url(#clip-path-9);}.cls-13{clip-path:url(#clip-path-10);}.cls-14{fill:#532e8c;}.cls-15{font-size:12px;fill:#fff;font-family:Lato-Black, Lato;}.cls-16{clip-path:url(#clip-path-11);}.cls-17{clip-path:url(#clip-path-12);}.cls-18{fill:#3683b5;}.cls-19{clip-path:url(#clip-path-13);}.cls-20{clip-path:url(#clip-path-15);}.cls-21{fill:#c1c1c1;}.cls-22{stroke:#7a7a7a;}.cls-23{clip-path:url(#clip-path-17);}.cls-24{clip-path:url(#clip-path-18);}.cls-25{clip-path:url(#clip-path-19);}.cls-26{clip-path:url(#clip-path-20);}.cls-27{clip-path:url(#clip-path-21);}.cls-28{clip-path:url(#clip-path-22);}.cls-29{clip-path:url(#clip-path-23);}.cls-30{clip-path:url(#clip-path-24);}.cls-31{clip-path:url(#clip-path-25);}.cls-32{clip-path:url(#clip-path-26);}</style><clipPath id="clip-path"><rect id="SVGID" class="cls-1" x="213.44" y="204.72" width="21" height="18" rx="4" ry="4"/></clipPath><clipPath id="clip-path-2"><rect id="SVGID-2" data-name="SVGID" class="cls-1" x="110.19" y="204.72" width="25" height="18" rx="4" ry="4"/></clipPath><clipPath id="clip-path-3"><path id="SVGID-3" data-name="SVGID" class="cls-2" d="M129.19,236.22a6,6,0,1,1-6-6.5,6.26,6.26,0,0,1,6,6.5"/></clipPath><clipPath id="clip-path-4"><path id="SVGID-4" data-name="SVGID" class="cls-2" d="M230.44,236.22a6,6,0,1,1-6-6.5,6.26,6.26,0,0,1,6,6.5"/></clipPath><clipPath id="clip-path-5"><rect id="SVGID-5" data-name="SVGID" class="cls-1" x="100.84" y="-87.78" width="25" height="18" rx="4" ry="4"/></clipPath><clipPath id="clip-path-6"><rect id="SVGID-6" data-name="SVGID" class="cls-1" x="236.84" y="-87.78" width="21" height="18" rx="4" ry="4"/></clipPath><clipPath id="clip-path-7"><path id="SVGID-7" data-name="SVGID" class="cls-2" d="M120.84-46.28a6.26,6.26,0,0,1-6,6.5,6.27,6.27,0,0,1-6-6.5,6.27,6.27,0,0,1,6-6.5,6.26,6.26,0,0,1,6,6.5"/></clipPath><clipPath id="clip-path-8"><path id="SVGID-8" data-name="SVGID" class="cls-2" d="M253.84-46.28a6.26,6.26,0,0,1-6,6.5,6.27,6.27,0,0,1-6-6.5,6.27,6.27,0,0,1,6-6.5,6.26,6.26,0,0,1,6,6.5"/></clipPath><clipPath id="clip-path-9"><rect id="SVGID-9" data-name="SVGID" class="cls-1" x="213.44" y="0.22" width="21" height="18" rx="4" ry="4"/></clipPath><clipPath id="clip-path-10"><rect id="SVGID-10" data-name="SVGID" class="cls-1" x="-254.56" y="-1189.78" width="1440" height="1481"/></clipPath><clipPath id="clip-path-11"><rect id="SVGID-11" data-name="SVGID" class="cls-1" x="109.19" y="0.22" width="25" height="18" rx="4" ry="4"/></clipPath><clipPath id="clip-path-12"><rect id="SVGID-12" data-name="SVGID" class="cls-1" x="-222.81" y="-1189.78" width="1440" height="1481"/></clipPath><clipPath id="clip-path-13"><path id="SVGID-13" data-name="SVGID" class="cls-2" d="M129.19,41.72a6,6,0,1,1-12,0,6,6,0,1,1,12,0"/></clipPath><clipPath id="clip-path-15"><path id="SVGID-15" data-name="SVGID" class="cls-2" d="M230.44,41.72a6,6,0,1,1-12,0,6,6,0,1,1,12,0"/></clipPath><clipPath id="clip-path-17"><path class="cls-2" d="M12.71-153.86c34.3,0,39.59-82.24,70.85-82.24s16.35,82.24,152.16,82.24Z"/></clipPath><clipPath id="clip-path-18"><path class="cls-2" d="M81-153.86c25.55,0,29.49-73,52.78-73s12.18,73,113.36,73Z"/></clipPath><clipPath id="clip-path-19"><rect class="cls-1" x="217.89" y="76.31" width="21" height="18" rx="4" ry="4"/></clipPath><clipPath id="clip-path-20"><rect class="cls-1" x="161.89" y="76.31" width="53" height="18" rx="4" ry="4"/></clipPath><clipPath id="clip-path-21"><path class="cls-2" d="M225.89,117.81a6,6,0,1,1-6-6.5,6.27,6.27,0,0,1,6,6.5"/></clipPath><clipPath id="clip-path-22"><path class="cls-2" d="M217.89,117.81a6,6,0,1,1-6-6.5,6.27,6.27,0,0,1,6,6.5"/></clipPath><clipPath id="clip-path-23"><rect id="SVGID-17" data-name="SVGID" class="cls-1" x="710.94" y="0.22" width="21" height="18" rx="4" ry="4"/></clipPath><clipPath id="clip-path-24"><rect id="SVGID-18" data-name="SVGID" class="cls-1" x="606.69" y="0.22" width="25" height="18" rx="4" ry="4"/></clipPath><clipPath id="clip-path-25"><path id="SVGID-19" data-name="SVGID" class="cls-2" d="M626.69,41.72a6,6,0,1,1-12,0,6,6,0,1,1,12,0"/></clipPath><clipPath id="clip-path-26"><path id="SVGID-20" data-name="SVGID" class="cls-2" d="M727.94,41.72a6,6,0,1,1-12,0,6,6,0,1,1,12,0"/></clipPath></defs><title>skewness_plots</title><line class="cls-11" x1="40.29" y1="41.22" x2="263.6" y2="41.22"/><g class="cls-12"><g class="cls-13"><rect class="cls-14" x="208.44" y="-4.78" width="31" height="28"/></g></g><text class="cls-15" transform="translate(220.44 13.22)">8</text><g class="cls-16"><g class="cls-17"><rect class="cls-18" x="104.19" y="-4.78" width="35" height="28"/></g></g><text class="cls-15" transform="translate(115.19 13.22)">14</text><g class="cls-19"><g class="cls-17"><rect class="cls-18" x="112.19" y="30.22" width="22" height="23"/></g></g><g class="cls-20"><g class="cls-13"><rect class="cls-14" x="213.44" y="30.22" width="22" height="23"/></g></g><path class="cls-21" d="M18,33.52c5,0,4.31-16,8.45-16s1.72,16,8.55,16Z"/><line class="cls-22" x1="26.53" y1="33.45" x2="26.53" y2="15.45"/><line class="cls-22" x1="4" y1="33.95" x2="35" y2="33.95"/><path class="cls-21" d="M264.27,33.52c22.83-1.26,19.1-16,22.78-16s2.39,16,8.48,16Z"/><line class="cls-22" x1="287.06" y1="33.45" x2="287.06" y2="15.45"/><line class="cls-22" x1="264.53" y1="33.95" x2="295.53" y2="33.95"/></svg>