<svg id="Layer_1" data-name="Layer 1" xmlns="http://www.w3.org/2000/svg" xmlns:xlink="http://www.w3.org/1999/xlink" viewBox="0 0 32.08 19.53"><defs><style>.cls-1,.cls-2,.cls-26{fill:none;}.cls-2{clip-rule:evenodd;}.cls-3{clip-path:url(#clip-path);}.cls-4{clip-path:url(#clip-path-2);}.cls-5{clip-path:url(#clip-path-3);}.cls-6{clip-path:url(#clip-path-4);}.cls-7{clip-path:url(#clip-path-5);}.cls-8{clip-path:url(#clip-path-6);}.cls-9{clip-path:url(#clip-path-7);}.cls-10{clip-path:url(#clip-path-8);}.cls-11{clip-path:url(#clip-path-9);}.cls-12{clip-path:url(#clip-path-10);}.cls-13{clip-path:url(#clip-path-11);}.cls-14{clip-path:url(#clip-path-12);}.cls-15{clip-path:url(#clip-path-13);}.cls-16{clip-path:url(#clip-path-14);}.cls-17{clip-path:url(#clip-path-15);}.cls-18{clip-path:url(#clip-path-16);}.cls-19{clip-path:url(#clip-path-17);}.cls-20{clip-path:url(#clip-path-18);}.cls-21{clip-path:url(#clip-path-19);}.cls-22{clip-path:url(#clip-path-20);}.cls-23{clip-path:url(#clip-path-21);}.cls-24{clip-path:url(#clip-path-22);}.cls-25{fill:#c1c1c1;}.cls-26{stroke:#7a7a7a;stroke-linecap:square;stroke-miterlimit:10;}</style><clipPath id="clip-path"><rect id="SVGID" class="cls-1" x="-131.96" y="192.38" width="21" height="18" rx="4" ry="4"/></clipPath><clipPath id="clip-path-2"><rect id="SVGID-2" data-name="SVGID" class="cls-1" x="-235.21" y="192.38" width="25" height="18" rx="4" ry="4"/></clipPath><clipPath id="clip-path-3"><path id="SVGID-3" data-name="SVGID" class="cls-2" d="M-216.21,223.88a6.26,6.26,0,0,1-6,6.5,6.27,6.27,0,0,1-6-6.5,6.27,6.27,0,0,1,6-6.5,6.26,6.26,0,0,1,6,6.5"/></clipPath><clipPath id="clip-path-4"><path id="SVGID-4" data-name="SVGID" class="cls-2" d="M-115,223.88a6.26,6.26,0,0,1-6,6.5,6.27,6.27,0,0,1-6-6.5,6.27,6.27,0,0,1,6-6.5,6.26,6.26,0,0,1,6,6.5"/></clipPath><clipPath id="clip-path-5"><rect id="SVGID-5" data-name="SVGID" class="cls-1" x="-244.56" y="-100.12" width="25" height="18" rx="4" ry="4"/></clipPath><clipPath id="clip-path-6"><rect id="SVGID-6" data-name="SVGID" class="cls-1" x="-108.56" y="-100.12" width="21" height="18" rx="4" ry="4"/></clipPath><clipPath id="clip-path-7"><path id="SVGID-7" data-name="SVGID" class="cls-2" d="M-224.56-58.62a6.26,6.26,0,0,1-6,6.5,6.27,6.27,0,0,1-6-6.5,6.27,6.27,0,0,1,6-6.5,6.26,6.26,0,0,1,6,6.5"/></clipPath><clipPath id="clip-path-8"><path id="SVGID-8" data-name="SVGID" class="cls-2" d="M-91.56-58.62a6.26,6.26,0,0,1-6,6.5,6.27,6.27,0,0,1-6-6.5,6.27,6.27,0,0,1,6-6.5,6.26,6.26,0,0,1,6,6.5"/></clipPath><clipPath id="clip-path-9"><rect id="SVGID-9" data-name="SVGID" class="cls-1" x="-131.96" y="-12.12" width="21" height="18" rx="4" ry="4"/></clipPath><clipPath id="clip-path-10"><rect id="SVGID-10" data-name="SVGID" class="cls-1" x="-236.21" y="-12.12" width="25" height="18" rx="4" ry="4"/></clipPath><clipPath id="clip-path-11"><path id="SVGID-11" data-name="SVGID" class="cls-2" d="M-216.21,29.38a6.26,6.26,0,0,1-6,6.5,6.27,6.27,0,0,1-6-6.5,6.27,6.27,0,0,1,6-6.5,6.26,6.26,0,0,1,6,6.5"/></clipPath><clipPath id="clip-path-12"><path id="SVGID-12" data-name="SVGID" class="cls-2" d="M-115,29.38a6.26,6.26,0,0,1-6,6.5,6.27,6.27,0,0,1-6-6.5,6.27,6.27,0,0,1,6-6.5,6.26,6.26,0,0,1,6,6.5"/></clipPath><clipPath id="clip-path-13"><path class="cls-2" d="M-332.69-166.2c34.3,0,39.59-82.23,70.84-82.23s16.36,82.23,152.17,82.23Z"/></clipPath><clipPath id="clip-path-14"><path class="cls-2" d="M-264.45-166.2c25.55,0,29.49-73,52.78-73s12.18,73,113.36,73Z"/></clipPath><clipPath id="clip-path-15"><rect class="cls-1" x="-127.51" y="63.97" width="21" height="18" rx="4" ry="4"/></clipPath><clipPath id="clip-path-16"><rect class="cls-1" x="-183.51" y="63.97" width="53" height="18" rx="4" ry="4"/></clipPath><clipPath id="clip-path-17"><path class="cls-2" d="M-119.51,105.47a6.27,6.27,0,0,1-6,6.5,6.26,6.26,0,0,1-6-6.5,6.26,6.26,0,0,1,6-6.5,6.27,6.27,0,0,1,6,6.5"/></clipPath><clipPath id="clip-path-18"><path class="cls-2" d="M-127.51,105.47a6.27,6.27,0,0,1-6,6.5,6.27,6.27,0,0,1-6-6.5,6.27,6.27,0,0,1,6-6.5,6.27,6.27,0,0,1,6,6.5"/></clipPath><clipPath id="clip-path-19"><rect id="SVGID-13" data-name="SVGID" class="cls-1" x="365.54" y="-12.12" width="21" height="18" rx="4" ry="4"/></clipPath><clipPath id="clip-path-20"><rect id="SVGID-14" data-name="SVGID" class="cls-1" x="261.29" y="-12.12" width="25" height="18" rx="4" ry="4"/></clipPath><clipPath id="clip-path-21"><path id="SVGID-15" data-name="SVGID" class="cls-2" d="M281.29,29.38a6,6,0,1,1-12,0,6,6,0,1,1,12,0"/></clipPath><clipPath id="clip-path-22"><path id="SVGID-16" data-name="SVGID" class="cls-2" d="M382.54,29.38a6,6,0,1,1-12,0,6,6,0,1,1,12,0"/></clipPath></defs><title>skewness_plots</title><path class="cls-25" d="M14.56,18.55c5,0,4.32-16,8.45-16s1.72,16,8.55,16Z"/><line class="cls-26" x1="23.1" y1="18.48" x2="23.1" y2="0.48"/><line class="cls-26" x1="0.56" y1="18.98" x2="31.56" y2="18.98"/></svg>