<svg id="Layer_1" data-name="Layer 1" xmlns="http://www.w3.org/2000/svg" xmlns:xlink="http://www.w3.org/1999/xlink" viewBox="0 0 225.25 48.25"><defs><style>.cls-1,.cls-2,.cls-21{fill:none;}.cls-2{clip-rule:evenodd;}.cls-3{clip-path:url(#clip-path);}.cls-4{clip-path:url(#clip-path-2);}.cls-5{clip-path:url(#clip-path-3);}.cls-6{clip-path:url(#clip-path-4);}.cls-7{clip-path:url(#clip-path-5);}.cls-8{clip-path:url(#clip-path-6);}.cls-9{clip-path:url(#clip-path-7);}.cls-10{clip-path:url(#clip-path-8);}.cls-11{clip-path:url(#clip-path-9);}.cls-12{clip-path:url(#clip-path-10);}.cls-13{clip-path:url(#clip-path-11);}.cls-14{clip-path:url(#clip-path-12);}.cls-15{clip-path:url(#clip-path-13);}.cls-16{clip-path:url(#clip-path-14);}.cls-17{clip-path:url(#clip-path-15);}.cls-18{clip-path:url(#clip-path-16);}.cls-19{clip-path:url(#clip-path-17);}.cls-20{clip-path:url(#clip-path-18);}.cls-21{stroke:#393939;stroke-linecap:square;stroke-miterlimit:10;stroke-width:2px;}.cls-22{clip-path:url(#clip-path-19);}.cls-23{clip-path:url(#clip-path-20);}.cls-24{fill:#532e8c;}.cls-25{font-size:12px;fill:#fff;font-family:Lato-Black, Lato;}.cls-26{clip-path:url(#clip-path-21);}.cls-27{clip-path:url(#clip-path-22);}.cls-28{fill:#3683b5;}.cls-29{clip-path:url(#clip-path-23);}.cls-30{clip-path:url(#clip-path-25);}.cls-31{clip-path:url(#clip-path-27);}.cls-32{clip-path:url(#clip-path-28);}.cls-33{clip-path:url(#clip-path-29);}.cls-34{clip-path:url(#clip-path-30);}</style><clipPath id="clip-path"><rect id="SVGID" class="cls-1" x="-323.43" y="204.59" width="21" height="18" rx="4" ry="4"/></clipPath><clipPath id="clip-path-2"><rect id="SVGID-2" data-name="SVGID" class="cls-1" x="-426.68" y="204.59" width="25" height="18" rx="4" ry="4"/></clipPath><clipPath id="clip-path-3"><path id="SVGID-3" data-name="SVGID" class="cls-2" d="M-407.68,236.09a6.27,6.27,0,0,1-6,6.5,6.27,6.27,0,0,1-6-6.5,6.27,6.27,0,0,1,6-6.5,6.27,6.27,0,0,1,6,6.5"/></clipPath><clipPath id="clip-path-4"><path id="SVGID-4" data-name="SVGID" class="cls-2" d="M-306.43,236.09a6.27,6.27,0,0,1-6,6.5,6.27,6.27,0,0,1-6-6.5,6.27,6.27,0,0,1,6-6.5,6.27,6.27,0,0,1,6,6.5"/></clipPath><clipPath id="clip-path-5"><rect id="SVGID-5" data-name="SVGID" class="cls-1" x="-436.03" y="-87.91" width="25" height="18" rx="4" ry="4"/></clipPath><clipPath id="clip-path-6"><rect id="SVGID-6" data-name="SVGID" class="cls-1" x="-300.03" y="-87.91" width="21" height="18" rx="4" ry="4"/></clipPath><clipPath id="clip-path-7"><path id="SVGID-7" data-name="SVGID" class="cls-2" d="M-416-46.41a6.27,6.27,0,0,1-6,6.5,6.27,6.27,0,0,1-6-6.5,6.27,6.27,0,0,1,6-6.5,6.27,6.27,0,0,1,6,6.5"/></clipPath><clipPath id="clip-path-8"><path id="SVGID-8" data-name="SVGID" class="cls-2" d="M-283-46.41a6.27,6.27,0,0,1-6,6.5,6.27,6.27,0,0,1-6-6.5,6.27,6.27,0,0,1,6-6.5,6.27,6.27,0,0,1,6,6.5"/></clipPath><clipPath id="clip-path-9"><rect id="SVGID-9" data-name="SVGID" class="cls-1" x="-323.43" y="0.09" width="21" height="18" rx="4" ry="4"/></clipPath><clipPath id="clip-path-10"><rect id="SVGID-10" data-name="SVGID" class="cls-1" x="-427.68" y="0.09" width="25" height="18" rx="4" ry="4"/></clipPath><clipPath id="clip-path-11"><path id="SVGID-11" data-name="SVGID" class="cls-2" d="M-407.68,41.59a6.27,6.27,0,0,1-6,6.5,6.27,6.27,0,0,1-6-6.5,6.27,6.27,0,0,1,6-6.5,6.27,6.27,0,0,1,6,6.5"/></clipPath><clipPath id="clip-path-12"><path id="SVGID-12" data-name="SVGID" class="cls-2" d="M-306.43,41.59a6.27,6.27,0,0,1-6,6.5,6.27,6.27,0,0,1-6-6.5,6.27,6.27,0,0,1,6-6.5,6.27,6.27,0,0,1,6,6.5"/></clipPath><clipPath id="clip-path-13"><path class="cls-2" d="M-524.16-154c34.29,0,39.58-82.24,70.84-82.24S-437-154-301.15-154Z"/></clipPath><clipPath id="clip-path-14"><path class="cls-2" d="M-455.93-154c25.56,0,29.5-73,52.78-73s12.19,73,113.37,73Z"/></clipPath><clipPath id="clip-path-15"><rect class="cls-1" x="-318.98" y="76.18" width="21" height="18" rx="4" ry="4"/></clipPath><clipPath id="clip-path-16"><rect class="cls-1" x="-374.98" y="76.18" width="53" height="18" rx="4" ry="4"/></clipPath><clipPath id="clip-path-17"><path class="cls-2" d="M-311,117.68a6.27,6.27,0,0,1-6,6.5,6.26,6.26,0,0,1-6-6.5,6.26,6.26,0,0,1,6-6.5,6.27,6.27,0,0,1,6,6.5"/></clipPath><clipPath id="clip-path-18"><path class="cls-2" d="M-319,117.68a6.27,6.27,0,0,1-6,6.5,6.26,6.26,0,0,1-6-6.5,6.26,6.26,0,0,1,6-6.5,6.27,6.27,0,0,1,6,6.5"/></clipPath><clipPath id="clip-path-19"><rect id="SVGID-13" data-name="SVGID" class="cls-1" x="174.07" y="0.09" width="21" height="18" rx="4" ry="4"/></clipPath><clipPath id="clip-path-20"><rect id="SVGID-14" data-name="SVGID" class="cls-1" x="-293.93" y="-1189.91" width="1440" height="1481"/></clipPath><clipPath id="clip-path-21"><rect id="SVGID-15" data-name="SVGID" class="cls-1" x="69.82" y="0.09" width="25" height="18" rx="4" ry="4"/></clipPath><clipPath id="clip-path-22"><rect id="SVGID-16" data-name="SVGID" class="cls-1" x="-262.18" y="-1189.91" width="1440" height="1481"/></clipPath><clipPath id="clip-path-23"><path id="SVGID-17" data-name="SVGID" class="cls-2" d="M89.82,41.59a6,6,0,1,1-12,0,6,6,0,1,1,12,0"/></clipPath><clipPath id="clip-path-25"><path id="SVGID-19" data-name="SVGID" class="cls-2" d="M191.07,41.59a6,6,0,1,1-12,0,6,6,0,1,1,12,0"/></clipPath><clipPath id="clip-path-27"><rect class="cls-1" x="420.85" y="0.09" width="21" height="18" rx="4" ry="4"/></clipPath><clipPath id="clip-path-28"><rect class="cls-1" x="364.85" y="0.09" width="53" height="18" rx="4" ry="4"/></clipPath><clipPath id="clip-path-29"><path class="cls-2" d="M428.85,41.59a6,6,0,1,1-12,0,6,6,0,1,1,12,0"/></clipPath><clipPath id="clip-path-30"><path class="cls-2" d="M420.85,41.59a6,6,0,1,1-12,0,6,6,0,1,1,12,0"/></clipPath></defs><title>skewness_plots</title><line class="cls-21" x1="0.91" y1="41.09" x2="224.22" y2="41.09"/><g class="cls-22"><g class="cls-23"><rect class="cls-24" x="169.07" y="-4.91" width="31" height="28"/></g></g><text class="cls-25" transform="translate(181.07 13.09)">8</text><g class="cls-26"><g class="cls-27"><rect class="cls-28" x="64.82" y="-4.91" width="35" height="28"/></g></g><text class="cls-25" transform="translate(75.82 13.09)">14</text><g class="cls-29"><g class="cls-27"><rect class="cls-28" x="72.82" y="30.09" width="22" height="23"/></g></g><g class="cls-30"><g class="cls-23"><rect class="cls-24" x="174.07" y="30.09" width="22" height="23"/></g></g></svg>