<svg id="Layer_1" data-name="Layer 1" xmlns="http://www.w3.org/2000/svg" viewBox="0 0 12 12"><defs><style>.cls-1{fill:#b162a7;}.cls-2{fill:#fff;}</style></defs><circle id="Ellipse_8" data-name="Ellipse 8" class="cls-1" cx="6" cy="6" r="6"/><path class="cls-2" d="M6.84,4.72,6.28,9.38H4.9l.56-4.66ZM7.1,3.44A.82.82,0,0,1,7,3.75,1,1,0,0,1,6.84,4a1,1,0,0,1-.27.17.67.67,0,0,1-.31.07A.66.66,0,0,1,6,4.18.74.74,0,0,1,5.71,4a.76.76,0,0,1-.18-.26.67.67,0,0,1-.07-.31.71.71,0,0,1,.07-.32.76.76,0,0,1,.18-.26A1.2,1.2,0,0,1,6,2.68a.77.77,0,0,1,.3-.06.81.81,0,0,1,.31.06.68.68,0,0,1,.26.18.79.79,0,0,1,.26.58Z"/></svg>