<svg id="Layer_1" data-name="Layer 1" xmlns="http://www.w3.org/2000/svg" viewBox="0 0 12 12"><defs><style>.cls-1{isolation:isolate;}.cls-2{fill:#e71e25;}</style></defs><g id="Artwork_2" data-name="Artwork 2"><g class="cls-1"><path class="cls-2" d="M9.29,9.28H7.91A.58.58,0,0,1,7.36,9L6.27,7.09a.59.59,0,0,0-.17-.18.49.49,0,0,0-.27-.06H5.44V9.28H3.92V2.72H6.05a4.33,4.33,0,0,1,1.22.15,2.34,2.34,0,0,1,.82.41,1.59,1.59,0,0,1,.46.61,2.21,2.21,0,0,1,.14.78,2.35,2.35,0,0,1-.08.6,2,2,0,0,1-.26.52,1.67,1.67,0,0,1-.41.43,2,2,0,0,1-.56.31,1.73,1.73,0,0,1,.28.19A1.64,1.64,0,0,1,7.89,7ZM6.05,5.8a1.62,1.62,0,0,0,.53-.07,1,1,0,0,0,.36-.22.86.86,0,0,0,.2-.33,1.05,1.05,0,0,0,.07-.4.86.86,0,0,0-.29-.68,1.29,1.29,0,0,0-.87-.24H5.44V5.8Z"/></g><g id="Ellipse_8" data-name="Ellipse 8"><path class="cls-2" d="M6,1A5,5,0,1,1,1,6,5,5,0,0,1,6,1M6,0a6,6,0,1,0,6,6A6,6,0,0,0,6,0Z"/></g></g></svg>