<svg id="Layer_1" data-name="Layer 1" xmlns="http://www.w3.org/2000/svg" viewBox="0 0 12 12"><defs><style>.cls-1{fill:#e71e25;}.cls-2{isolation:isolate;}.cls-3{fill:#fff;}</style></defs><g id="Artwork_1" data-name="Artwork 1"><circle id="Ellipse_8" data-name="Ellipse 8" class="cls-1" cx="6" cy="6" r="6"/><g class="cls-2"><path class="cls-3" d="M8,3.84A.55.55,0,0,1,7.88,4a.38.38,0,0,1-.22.06A.52.52,0,0,1,7.42,4l-.3-.16a2.72,2.72,0,0,0-.38-.16,1.55,1.55,0,0,0-.5-.07,1,1,0,0,0-.7.2.69.69,0,0,0-.24.55.48.48,0,0,0,.15.36A1.1,1.1,0,0,0,5.81,5a4.36,4.36,0,0,0,.52.2c.2,0,.4.12.6.19s.4.16.6.25A2.14,2.14,0,0,1,8.05,6a1.75,1.75,0,0,1,.36.55,1.84,1.84,0,0,1,.14.78,2.45,2.45,0,0,1-.17.94A2.25,2.25,0,0,1,7.87,9a2.35,2.35,0,0,1-.82.52A3.13,3.13,0,0,1,6,9.72a3.39,3.39,0,0,1-.7-.07,4,4,0,0,1-.68-.19A4,4,0,0,1,4,9.15a2.16,2.16,0,0,1-.5-.39L4,8a.67.67,0,0,1,.15-.14.42.42,0,0,1,.21-.06.54.54,0,0,1,.31.1L5,8.08l.45.21A1.68,1.68,0,0,0,6,8.38a1.1,1.1,0,0,0,.72-.2A.78.78,0,0,0,7,7.54a.6.6,0,0,0-.15-.42,1.11,1.11,0,0,0-.36-.26,4.41,4.41,0,0,0-.52-.19l-.6-.17a4.35,4.35,0,0,1-.59-.25,1.71,1.71,0,0,1-.52-.37,2,2,0,0,1-.37-.58,2.38,2.38,0,0,1-.14-.86A2.1,2.1,0,0,1,4.37,3a2.35,2.35,0,0,1,.79-.49,2.91,2.91,0,0,1,1.06-.18,3.53,3.53,0,0,1,.66.05,3.77,3.77,0,0,1,.6.16A2.32,2.32,0,0,1,8,2.73a2.49,2.49,0,0,1,.44.32Z"/></g></g></svg>