<svg id="Layer_1" data-name="Layer 1" xmlns="http://www.w3.org/2000/svg" viewBox="0 0 12 12"><defs><style>.cls-1{fill:#e71e25;}</style></defs><g id="Artwork_3" data-name="Artwork 3"><g id="Ellipse_8" data-name="Ellipse 8"><path class="cls-1" d="M6,1A5,5,0,1,1,1,6,5,5,0,0,1,6,1M6,0a6,6,0,1,0,6,6A6,6,0,0,0,6,0Z"/></g><g id="Ellipse_8-2" data-name="Ellipse 8"><path class="cls-1" d="M6,2.87A3.13,3.13,0,1,1,2.87,6,3.14,3.14,0,0,1,6,2.87m0-1A4.13,4.13,0,1,0,10.13,6,4.13,4.13,0,0,0,6,1.87Z"/></g><g id="Ellipse_8-3" data-name="Ellipse 8"><circle class="cls-1" cx="6" cy="6" r="2.01"/></g></g></svg>