<svg id="Layer_1" data-name="Layer 1" xmlns="http://www.w3.org/2000/svg" viewBox="0 0 76.9 48"><defs><style>.cls-1{fill:#fff;}.cls-2{fill:#a8529c;}</style></defs><path class="cls-1" d="M19.37,40.85c.09-.27.44-.29.57-.63-.28.11-.54.19-.65-.16,0,0-.12,0-.18,0s-.28.28-.37,0,.17-.22.29-.3a.34.34,0,0,0,.23-.27c-.41.11-.82-.17-1.18.17a.78.78,0,0,1-.34,0,.68.68,0,0,0-.64.36s-.07.12-.13.1,0,0,0,0a.84.84,0,0,0-.8.31,7.64,7.64,0,0,1-1,.68.32.32,0,0,1-.17-.22l3.55-2.5c-.39,0-.64,0-.62-.4s-.37-.62-.59-.92c-.1-.14-.25-.06-.37,0-.21-.18-.41.13-.62,0l-.33.14c-.09.07-.18.1-.21-.06a8.45,8.45,0,0,1,.82-.49c.18-.07.47-.16.44-.36s-.31-.33-.56-.34-.18-.18-.11-.23c.28-.21-.07-.19-.09-.28-.24-.35.08-.53.25-.74a1.56,1.56,0,0,1,.34-.27c0-.05,0-.07-.06-.05a1.08,1.08,0,0,1-.59.07v0c0-.22,0-.24-.23-.17l-1.73.61c-.47.2-1,.28-1.43.49a.44.44,0,0,1-.52-.05c.64-.33,1.33-.54,2-.81l1.7-.71.87-.33c-.46-.08-.75-.27-1.09-.16-.07,0-.08-.1,0-.16a9.28,9.28,0,0,1,.86-.37c.26-.09.48-.06.52.28s.13.35.39.21.31-.11.36.06-.17.15-.28.2-.19.08-.22.2c.21.25.4-.14.6,0,0,.17-.11.14-.19.19-.39.25-.56.57-.29,1a.25.25,0,0,1,0,.15c0,.71,0,.71.77.6-.59.38-.46.67-.06,1a.61.61,0,0,1,.29.6c0,.15.15.15.26.11a3.86,3.86,0,0,0,.41-.2.29.29,0,0,1,.31,0c-.05,0-.08.13-.13.15-.54.22-.34.57-.19.93.09.2.18.2.32,0s.25-.33.56-.28c-.48.66-.13,1.2.27,1.68.55.65.91-.24,1.44-.18-.65.42-1,1.17-1.67,1.52A.27.27,0,0,1,20,41l-.15.08C19.6,41.23,19.42,41.16,19.37,40.85Z"/><path class="cls-1" d="M26.59,48a.57.57,0,0,0,0-.49c-.06-.08-.07-.16,0-.22a4.74,4.74,0,0,0,.83-1c.1.05.1.13.05.22s-.31.3,0,.39a.16.16,0,0,1,.1.19c0,.33.4.43.36.76a.11.11,0,0,1,.09,0,1.62,1.62,0,0,0,.56-.9c0-.16.1-.42.29-.34s0,.35,0,.45c-.16.26-.11.54-.23.85l.38-.17a.12.12,0,0,1,.17,0,1.17,1.17,0,0,1,.09.24h-2a.15.15,0,0,0-.1-.09.19.19,0,0,0-.25.09Z"/><path class="cls-1" d="M15.82,16c-.22.06-.37-.15-.58-.16s-.31-.2-.42-.08a3,3,0,0,0-.45.68c-.07.15.2.17.18.37s-.35-.1-.38.15.26.19.3.34-.41-.08-.36.27.35.45.65.53a.28.28,0,0,1-.09.17c-.05.06-.21,0-.15.18a.15.15,0,0,1-.09.18l-.35-.07c-.08,0-.16-.05-.2.07a3.13,3.13,0,0,1-.72.94.17.17,0,0,1-.14,0A.11.11,0,0,1,13,19.4c.06-.12.11-.29.21-.35.6-.33.44-1,.62-1.46s.21-1.29.68-1.8c.13-.13,0-.24-.07-.34a1.41,1.41,0,0,1-.49-.75l0,0s.05,0,.08,0,.25,0,.37.1.39.15.42-.23c0-.22.34-.4.13-.71,0-.06.1-.1.18-.1s.25.08.29-.09-.15-.18-.24-.26-.54-.21-.73-.45a.1.1,0,0,1,.1-.13,3.4,3.4,0,0,1,.54.27c.42.3.55,0,.69-.31s.07-.7-.38-.94a14.67,14.67,0,0,1-2.1-1.3.12.12,0,0,1,0-.13c.84.47,1.69.92,2.51,1.41.31.18.45.08.51-.2s.08-.34.31-.37.15-.25.21-.32A10.33,10.33,0,0,1,18.38,9s.06,0,.18,0c-.27.38-.5.73-.77,1.05s-.32.35-.09.55.06.5-.11.56a1.92,1.92,0,0,0-.92.9c-.25.46-.74.71-.89,1.25-.08.31.25.38.21.62-.34.05-.72.07-.47.59.05.11,0,.13-.11.18-.52.36-.52.42,0,.81.13.11.22.26.4.3A.14.14,0,0,1,15.82,16Z"/><path class="cls-1" d="M29,0c.05.13.1.27.14.4.21.62.21.68-.34,1,0,.14.13.26,0,.41-.17-.05-.23-.21-.37-.26a3.58,3.58,0,0,0-.88.32c-.61.35-.71.29-1-.37a.1.1,0,0,0-.12,0l-.08.1c0-.11.08-.19.07-.29a.48.48,0,0,0-.1-.33c-.15,0-.25.17-.4.08S25.43.7,25.35.77s.29.61.32.77l.06.12a.64.64,0,0,0,.13.15l.06,0s.1,0,.14,0c.29.14,0,1,.74.58l.05.08.51.89c.12.05.16,0,.19-.13a3.35,3.35,0,0,1-.28-.53c-.06-.15-.27-.35,0-.49s.53-.49.86-.34c.52.25,1.08.52,1.15,1.23a.34.34,0,0,0,.16.3c.18-.16,0-.35,0-.52-.1-.38-.33-.74-.1-1.15,0-.06,0-.16.08-.19s.15.07.21.15c.22.3.19.71.44,1a.1.1,0,0,0,.16,0c-.14-.43-.24-.87-.42-1.29-.1-.26,0-.31.2-.31s.66-.06.68.43c0,.13,0,.37.25.29s.07-.26,0-.4a1.48,1.48,0,0,1-.08-.13A.42.42,0,0,1,31,.85c.13-.18.23,0,.35,0s.26.14.37,0,0-.28-.1-.41a.3.3,0,0,0-.34,0c-.23.16-.53,0-.79.24s-.51.08-.76.2-.16,0-.2-.13c-.09-.26-.19-.51-.29-.77Z"/><path class="cls-1" d="M61.09,38.89c-.26-.16-.52-.32-.79-.47a.28.28,0,0,0-.4,0,.2.2,0,0,0,.06.34c.1.06.18.13,0,.22s-.13.37.06.62l-.51-.18a.26.26,0,0,0-.27.11c-.07.08,0,.15.06.21a.21.21,0,0,1-.11.39c-.57-.09-.56.44-.79.7-.07.07-.08.22-.16.26-.47.23-.39.44-.06.78s-.2.19-.28.33c-.25.4-.47.19-.66-.1.12-.09.21,0,.3,0s.26-.07.14-.16-.16-.38-.25-.57c-.17-.37,0-.58.38-.53s.48,0,.3-.36a.2.2,0,0,1,.11-.29c.48-.11.22-.32,0-.51.74-.1.78-.17.86-1.28.42.17.51,0,.63-.41s.33-.69-.07-1c0,0,.06-.11.09-.17s.19-.13.23-.25-.09-.2-.09-.32A.16.16,0,0,1,60,36.2a13.39,13.39,0,0,1,1.73.77c.06.08.08.16,0,.23a4.62,4.62,0,0,0-.47-.19c-.14,0-.39-.11-.24.22,0,.1,0,.19-.11.15-.38-.13-.36.34-.63.4s0,.17.12.24l.79.52A.45.45,0,0,1,61.09,38.89Z"/><path class="cls-2" d="M62,15.6a1,1,0,0,1,.58-.27c.17-.05.43-.29.34-.33-.53-.29-.16-1.23-.94-1.24-.06-.28.5-.15.25-.59s-.44-.41-.82-.24a1.27,1.27,0,0,0,.13-1.1.19.19,0,0,1,0-.27c.36-.4.92-.47,1.32-.8.1-.08.27-.18.36,0s-.11.21-.23.25c-.47.14-.76.62-1.31.63.4.59.54.6,1.11.3s1.4-.72,2.09-1.09,1.24-.64,1.84-1A1.39,1.39,0,0,1,67,9.72c.07,0,.18-.06.22,0s0,.2-.13.23c-.89.31-1.65.89-2.51,1.28-.65.3-1.24.72-1.91,1-.36.13-.34.35,0,.55l.13.07c.33.18.62.37.09.68a.36.36,0,0,0-.18.39c.07.17.24.08.36.08s.18,0,.23.06,0,.2-.1.25c-.3.19-.26.29.05.42s.27.33,0,.55-.53.12-.72.33C62.13,15.8,62.13,15.8,62,15.6Z"/><path class="cls-1" d="M13,25.11a17.09,17.09,0,0,1-2.95,0c-.07-.29.26-.29.35-.46a8.39,8.39,0,0,1,1.94.06c.2.05.23-.08.26-.21s-.09-.23-.23-.24L11,24.23l-1.73-.06a.11.11,0,0,1,0-.16,22.74,22.74,0,0,1,2.61.06c.7,0,.67,0,.79-.66a19,19,0,0,1,.14-2c.08-.25,0-.47-.35-.5a15.76,15.76,0,0,1-1.64-.31.16.16,0,0,1,.13-.13,7.73,7.73,0,0,1,1.43.22c.47.08.72,0,.71-.53a.27.27,0,0,1,.26-.3,3.65,3.65,0,0,1-.2,1.15c0,.1-.1.19-.12.28-.2,1-.1,1.09,1.11,1.19.17,0,.34,0,.48.09s0,.11-.06.15l-.1,0A5.1,5.1,0,0,0,13,22.65c0,.66-.3,1.34.13,2,0,0,0,.12,0,.18S13.12,25,13,25.11Z"/><path class="cls-2" d="M58.74,9.69c.39-.2.16-.44,0-.67h0a5.37,5.37,0,0,0,1.57-.83c.82-.57,1.59-1.22,2.39-1.84.14.16.07.25-.06.34l-2,1.48c-.13.1-.4.2-.27.39s.33,0,.49-.11c.75-.56,1.5-1.13,2.26-1.68.5-.36,1-.7,1.58-1.1,0,.39-.31.51-.49.64C63.19,7.09,62.1,7.84,61,8.59c-.23.16-.39.42-.66.54a.15.15,0,0,0-.07.07c.23.71-.48.61-.76.87a.33.33,0,0,1-.24,0L59,10a.91.91,0,0,1-.16-.11A.28.28,0,0,1,58.74,9.69Z"/><path class="cls-2" d="M14,14.71l.37.74h-.23l0,0L8.5,13.16c-.11,0-.21-.1-.32-.13s-.39-.2-.26-.45.33-.16.53-.08c1.36.55,2.71,1.11,4.08,1.64.35.14.75.12,1.1.27A.69.69,0,0,1,14,14.71Z"/><path class="cls-1" d="M64.15,31.34A6.81,6.81,0,0,1,63,31.12c-.3-.11-.41,0-.47.23s-.09.32-.14.48c-.11.34-.06.59.38.71.81.22,1.59.52,2.38.79a.12.12,0,0,1,0,.16A13.07,13.07,0,0,1,63.26,33c-.31-.09-.41-.14-.55.27a10.56,10.56,0,0,0-.1,1.21c0,.21.11.15.19.19a4.29,4.29,0,0,1,1.31.63.26.26,0,0,1-.27.07,10.38,10.38,0,0,1-1.41-.52c-.15,0-.3-.21-.44,0s-.24.26-.05.49.06.39-.23.44c-.11,0-.22.09-.25-.09s.29-.12.24-.22c-.29-.64.33-1,.44-1.51a3.82,3.82,0,0,1,.17-.36c.15-.41.22-.79-.4-.87a1.46,1.46,0,0,1-.35-.18c-.14-.15,0-.23.07-.33s.36.24.49,0,.18-.45-.08-.63c0,0,0-.06,0-.08s.06-.1.09-.09c.41.08.22-.67.73-.5a7.68,7.68,0,0,0,1.18.22C64.15,31.11,64.26,31.17,64.15,31.34Z"/><path class="cls-1" d="M23.78,5a.85.85,0,0,1-.27-.35c-.07-.12-.17-.27-.31-.17s0,.21.07.31a.19.19,0,0,1,0,.23c-.25-.3-.71-.19-1-.53-.12-.17-.21,0-.26.09a.61.61,0,0,0-.15.76c.14.25.46.35.49.67a.25.25,0,0,1-.11.21,7.22,7.22,0,0,0-.7-1c-.32-.32-.07-.63.16-.9S22,4,22.21,4c.06.08.1.18.18.23s.12.38.36.27a.26.26,0,0,0,.1-.42c0-.06,0-.18.06-.15.49.26.68-.47,1.2-.33.23.06.7-.25.74-.71,0-.13,0-.14.15-.09.32.16.45-.11.61-.28s-.05-.32-.12-.48A3.57,3.57,0,0,0,25,1.12c0-.16,0-.35.19-.44.44.18.33.7.59,1h0c.07.05.06.15.13.2h0c0,.45.3.79.34,1.21,0,0-.05,0-.08,0-.28-.34-.55,0-.82,0-.11,0,.09.18.05.29a.15.15,0,0,1-.18,0c-.11-.15-.22-.09-.33,0s0,.18,0,.27.13.3.19.45a.07.07,0,0,1-.1,0c-.22-.12-.29-.36-.45-.56-.17.25.18.34.11.57-.21-.14-.43-.31-.54.12-.05.21-.32.09-.49.06-.11.28.2.3.23.47A.2.2,0,0,1,23.78,5Z"/><path class="cls-1" d="M66,22.66l-1.1.16h-.08v0h0l0,0a4.7,4.7,0,0,0-.75,0,1.66,1.66,0,0,1-1.33-.54c.1-.18.21-.11.3-.13s.3,0,.26-.22-.1-.26-.28-.19-.17.07-.21,0,.09-.14.18-.17c.33-.11.31-.28.07-.48-.07-.06-.21-.09-.12-.22.25-.36-.16-.2-.23-.31a.12.12,0,0,1,0-.17c.58-.05.36-.36.22-.65s-.29-.28-.27-.5L64,18.88c.13.19.45-.1.54.21a4.12,4.12,0,0,1-.87.23c-.13,0-.63.12-.15.45.12.09.19.24,0,.31s-.31.1-.25.34.33,0,.45.14-.18.13-.26.23,0,.39,0,.57.2,0,.31,0l.3.07a.12.12,0,0,1,0,.14c-.26.07-.19.2-.06.34a.27.27,0,0,1-.09.28c-.13.14-.51.13-.43.37s.42.07.63.07A13,13,0,0,1,66,22.52C66.07,22.59,66,22.62,66,22.66Z"/><path class="cls-2" d="M23.9,48c.12-.2.23-.41.35-.62a1.47,1.47,0,0,1,.44-.6.47.47,0,0,1,.19.42.58.58,0,0,1,0,.14.35.35,0,0,0-.05.08s-.06.07-.05.12a.31.31,0,0,1,.05-.12.27.27,0,0,1,.17-.11.23.23,0,0,1,.2,0c-.06.27-.08.54-.35.64Z"/><path class="cls-2" d="M20.3,48a1.84,1.84,0,0,0,.17-.22c.4-.5.78-1,1.14-1.55a1.55,1.55,0,0,1,.54-.51c.14-.11.26-.1.34.07-.49.76-1.08,1.46-1.58,2.21Z"/><path class="cls-2" d="M12.21,30.3l-1.41.37c-.09,0-.27,0-.24.16a.26.26,0,0,0,.28.18l.8-.08h0a4.8,4.8,0,0,1-1.69.51,1.45,1.45,0,0,0-.3,0c-.16.07-.37.2-.43,0s-.22-.49,0-.75a2.27,2.27,0,0,1,1.24-.46c.09,0,.24.05.29,0,.44-.78,1.27-.53,1.92-.75.09,0,.18-.08.27-.12a.14.14,0,0,1,.07.11.56.56,0,0,1-.12.31.44.44,0,0,1-.08.11C12.68,30.12,12.42,30.16,12.21,30.3Z"/><path class="cls-2" d="M65.87,25c1-.11,2-.08,3-.1.6,0,1.16.23,1.75.18a.33.33,0,0,1,.36.23c-.18.24-.45.1-.66.11-1,0-2,0-3,0-.39,0-.68.32-1.11.22s-1.12.07-1.68-.1c.15-.43.58-.3.88-.44C65.52,25,65.71,25.11,65.87,25Z"/><path class="cls-2" d="M10.41,24.68c.12.33-.28.27-.35.46a3.35,3.35,0,0,1-1.34.07c-.93,0-1.86,0-2.8,0-.2,0-.48,0-.45-.32s.27-.28.5-.28c1.4,0,2.8,0,4.2,0A.73.73,0,0,1,10.41,24.68Z"/><path class="cls-1" d="M13,29.35l0,0c-.05-.46-.12-.92-.15-1.39,0-.24-.07-.28-.32-.25-1.06.14-2.12.23-3.19.34-.09-.08-.13-.16,0-.25l3.22-.32c.23,0,.3-.12.27-.32a2.91,2.91,0,0,1-.05-.4c0-.37-.15-.5-.53-.48-1,.07-1.94.1-2.9.15-.09-.09,0-.16,0-.24.85,0,1.69-.11,2.53-.12a3.82,3.82,0,0,1,1.39,0c.07,0,.08.08,0,.15-.24,0-.42.06-.3.41a2,2,0,0,1,0,.84.79.79,0,0,0,.33.73c-.27.19-.25.48-.23.76a1.66,1.66,0,0,0,.1.29A.18.18,0,0,1,13,29.35Z"/><path class="cls-1" d="M54.06,5.89c.53.27.66-.23.88-.49s.29-.48.57-.6a.09.09,0,0,1,.08,0,.16.16,0,0,1,0,.09s.18,0,.16,0l-.16.2a3.28,3.28,0,0,1-.49.71,8.8,8.8,0,0,0-1,1.11c-.13.21-.12.46.08.51s.42.3.66.41a.56.56,0,0,0,.68-.08c.24-.19.37-.64.83-.49a.09.09,0,0,1,0,.06.06.06,0,0,1,0,0l-.13.22c-.08.2-.35.26-.36.5-.19.22-.26.61-.72.41-.08,0-.29.21-.5.34a.61.61,0,0,0-.31-1c-.24-.07-.39-.23-.57-.29-.48-.17-.14-.46-.06-.52a.55.55,0,0,0,.14-.76V6.22a.59.59,0,0,1,0-.13A.32.32,0,0,1,54.06,5.89Z"/><path class="cls-1" d="M38.15,0c0,.27,0,.54,0,.81s0,.36.28.38a26,26,0,0,1,2.8.21.23.23,0,0,0,.29-.14.19.19,0,0,1,.12.07c0,.6-.62.26-.7.24-.62-.17-.82,0-.76.64a1.47,1.47,0,0,1-.07.34c0,.18-.18.14-.28.15s-.09-.13-.12-.22.11-.45,0-.69.13-.39-.18-.35-.41,0-.46.31.18.52-.16.53c-.19,0-.11-.38-.1-.53,0-.4-.22-.38-.45-.35S38,1.32,38,1V0Z"/><path class="cls-1" d="M65.87,25a4,4,0,0,1-1,.35c-.13,0-.27,0-.35.16s-.48-.14-.69.09a.07.07,0,0,1-.11,0l-.15.23a.2.2,0,0,1-.24,0l-.29-.1a.31.31,0,0,1-.09-.11.4.4,0,0,1,.12-.4c.11,0,.27,0,.32-.06s-.09-.18-.16-.26c-.27-.32-.43-.79-1-.81a.11.11,0,0,1,0-.11c.18-.12.41-.13.43-.49s.46-.5.83-.53h.6a.14.14,0,0,1,0,.17,1.3,1.3,0,0,1-.59.08c-.22,0-.46,0-.44.26s.29.17.45.16a2,2,0,0,1,.69,0c0,.05-.06.07,0,.13s-.16.09-.26.07a.65.65,0,0,0-.79.35s-.07,0-.07.08c.27.13.58.22.52.62.08.16.18.25.34.09A6.64,6.64,0,0,1,65.87,25Z"/><path class="cls-2" d="M64.57,19.09c-.14-.17-.42,0-.54-.21,1.57-.38,3.11-.85,4.69-1.14a4.54,4.54,0,0,0,1.07-.27c.16-.06.31-.06.35.15s-.1.25-.27.27a22.75,22.75,0,0,0-2.83.65A18.76,18.76,0,0,1,64.57,19.09Z"/><path class="cls-2" d="M64.75,30.25c-.27-.3-.7-.18-1-.38.24-.25.5-.08.75,0s0-.11.05-.14.14-.1.22-.13a7.93,7.93,0,0,1,2.28.3c1,.21,2.06.37,3.09.57.13,0,.33,0,.29.2s-.21.05-.32,0l-2.54-.47c-.21-.05-.29,0-.22.23a.16.16,0,0,1-.08.1l-.13,0,0,0h0l0,0c-.17-.18-.39-.09-.59-.1a4.68,4.68,0,0,0-1.7-.21Z"/><path class="cls-1" d="M20,41.89a1.15,1.15,0,0,1,.36-.48c.18-.17.49-.28.64-.09.34.46.54.13.79-.07a3.9,3.9,0,0,1,1.05-.84,15,15,0,0,1-3.31,3.73,1.23,1.23,0,0,1,.55-.76,9.76,9.76,0,0,0,1-1,.24.24,0,0,0,0-.36c-.14-.14-.24-.06-.35,0l-.42.36c-.18.09-.27,0-.35-.15,0-.29.34-.28.4-.44s0-.12.07-.07c-.12.08-.21.21-.37.21s0,0,0-.07A.12.12,0,0,1,20,41.89Z"/><path class="cls-1" d="M64.76,29.56l-.18.12c-.35.25-.75,0-1.11.14s-.43,0-.45-.26-.25-.35-.49-.39a.12.12,0,0,1,0-.16c.19,0,.4.15.44-.31a8.36,8.36,0,0,1,.21-1.16c.07-.34,0-.37-.3-.37a.12.12,0,0,1,0-.15c.16,0,.33,0,.48-.1,0-.22-.28-.22-.36-.39a.15.15,0,0,1,0-.17l.33,0a.22.22,0,0,1,.24.13c.3.11.33.44.59.66-.5.07-.63.24-.41.71a1.07,1.07,0,0,1-.24.88c-.34.39,0,.47.2.54A9.81,9.81,0,0,0,64.76,29.56Z"/><path class="cls-2" d="M12.32,35.3c.48.08.86-.25,1.31-.33a2.68,2.68,0,0,1,.64-.11L11.64,36c-.42.18-.85.32-1.25.53s-1.12.13-1.63.4c-.25.13-.49.38-.89.2.31-.39.78-.41,1.14-.58.84-.39,1.74-.67,2.59-1C11.84,35.4,12.12,35.49,12.32,35.3Z"/><path class="cls-1" d="M55.91,8.15c-.06-.09-.44-.12-.07-.28a1.57,1.57,0,0,0,.37-.3c0-.12.18-.12.18-.24h0a.33.33,0,0,0,.13-.26h0c.23.19.58.24.65.61l.45-.37a.14.14,0,0,1,.11.18c-.14.18-.45.32-.23.61s.21.55.59.36l0,0c.23,0,.34-.12.45-.27s.15-.11.24-.05c.52-.25.82-.76,1.33-1a.14.14,0,0,1,0,.2c-.32.34-.75.54-1.07.89s-.62.32-.37.76h0c-.26.25-.63.1-.92.26-.12.08-.2-.07-.16-.16.3-.6-.49-.63-.54-1,0-.06-.15,0-.2.08a.87.87,0,0,1-.41.27.14.14,0,0,1,0-.19,1,1,0,0,0,.28-.69C56.4,7.66,56.23,8,55.91,8.15Z"/><path class="cls-2" d="M64.15,31.34c0-.12-.06-.19-.15-.26a1.72,1.72,0,0,0-.07-.21.54.54,0,0,0-.1-.38c-.07-.09-.11-.23.09-.25a1.67,1.67,0,0,0,.83,0h0c.36.32.84.24,1.26.34.87.2,1.75.37,2.61.64-1.38-.06-2.7-.49-4.1-.68.23.64.57,1,1.24,1a.43.43,0,0,1,.4.32A5,5,0,0,1,64.15,31.34Z"/><path class="cls-2" d="M28.13,0c.08.17.16.33.25.49s.11.64.38.86A.58.58,0,0,1,29,2c-.24-.12-.48-.21-.53-.51A8.87,8.87,0,0,0,27.92,0Z"/><path class="cls-2" d="M15,40.86l.17.22c-.23.52-.8.65-1.21.94-.68.5-1.36,1-2.09,1.46-.08.06-.18.1-.25.16s-.25.14-.34,0,0-.27.12-.35l3.5-2.4A.17.17,0,0,1,15,40.86Z"/><path class="cls-1" d="M14.64,30.78l0,0c.15-.14.58,0,.49-.28s-.39,0-.59,0-.14-.12-.11-.22.38-.06.57-.15.49-.19.45.27c0,.23.16.39.45.37-.12.2-.37.27-.26.57s-.22.23-.34.27a22.08,22.08,0,0,1-3.27.92.14.14,0,0,1,0-.19,10.36,10.36,0,0,1,1.72-.53L15,31.39c.17,0,.35-.07.29-.32S15,31,14.9,31l-.15,0A.17.17,0,0,1,14.64,30.78Z"/><path class="cls-1" d="M58.89,9.83,59,10a.29.29,0,0,0,.31,0l.17.08c-.07.19-.29.21-.41.34s-.15.41.14.59,1.55-.43,1.88-.59c0,.38-1.64.92-1.35,1.35.14.21.37,0,.56,0,0,0,.06,0,.07.05-.07.24-.47.13-.47.44,0,.11.25,0,.22.18s-.32.5-.47-.05a.47.47,0,0,0-.66-.32l-.72.35c-.14,0-.16-.06-.14-.17.21-.16.42-.33.64-.48s.33-.26.18-.56-.36-.18-.63-.06c.11-.32.4-.52.27-.82S58.48,10,58.89,9.83Z"/><path class="cls-1" d="M42,0c-.19.1-.26.37-.29,1,0,.14,0,.27-.11.37l-.12-.07L41.71,0Z"/><path class="cls-1" d="M43.43,0a1.29,1.29,0,0,0,.48,0c.32,0,.41.22.4.54-.24-.09-.45-.32-.73-.14-.1.06-.18-.06-.19-.17s-.16-.2-.3-.22l-.31,0Z"/><path class="cls-1" d="M22.29,6.24c0-.09,0-.17.11-.21.22.28.54.52.64.83s-.45.37-.64.62C22,8,21.4,8.35,21,8.94c-.17.27-.54.48-.77.75s-.28.14-.43,0-.43-.21-.52-.46a.15.15,0,0,1,.21,0,1,1,0,0,1,.3.19c.29.34.44.23.51-.15s.26-.23.38-.35c.48-.45.93-.91,1.4-1.36.19-.18.06-.33,0-.44-.25-.31-.53-.6-.79-.9a.11.11,0,0,1,.09-.13c.3.31.61.62.91.94.09.1.15.24.31.11s.21-.19.1-.37A1.41,1.41,0,0,0,22.29,6.24Z"/><path class="cls-2" d="M56.94,3.18a10.12,10.12,0,0,1,1.52-1.92c.16-.18.28-.42.54-.5A.15.15,0,0,1,59,1h0a1.08,1.08,0,0,1,.42-.5c.1-.06.24-.17.3.06-.81,1-1.66,1.93-2.53,2.86C57.05,3.48,57.08,3.21,56.94,3.18Z"/><path class="cls-1" d="M13,29.35l.19-.11.18,0a.09.09,0,0,1,.1,0A4.33,4.33,0,0,1,14.83,29c.14,0,.35-.08.31.18s.07.42-.26.45-.63.14-.94.18c-.6.09-1.09.55-1.73.5.06-.34.47-.24.62-.48a2,2,0,0,0,.34,0c-.09,0-.21.08-.28,0A.68.68,0,0,0,13,29.35Z"/><path class="cls-2" d="M14.54,12.84l-.1.13a4.58,4.58,0,0,1-1.54-.7c-1-.56-2.05-1-3.08-1.57-.18-.09-.29-.28-.5-.29s-.27-.05-.21-.19.22-.05.32,0c.45.22.9.45,1.34.69C12,11.56,13.32,12.12,14.54,12.84Z"/><path class="cls-1" d="M52.92,3.64l-.17.24s-.07,0,0,0,0-.19,0-.24-.17,0-.23.1C52.19,4,52,4,51.81,3.6s-.62-.29-.75-.64h0c.19,0,.26-.2.45-.25,0,.06,0,.11,0,.15-.14.29.14.35.29.42s.18-.13.24-.22c.62-.9,1.13-1.85,1.83-2.68l0,0v0c-.11.53-.58.89-.67,1.43a.13.13,0,0,0,0,.06l-.09.23a.41.41,0,0,1-.07.11c0,.06-.12.12-.17.19l-.07.11c-.12.19-.23.1-.22.19s-.21.45,0,.38,0,0,0,0a.2.2,0,0,1,.19.08,1,1,0,0,1,.13.25A.34.34,0,0,1,52.92,3.64Z"/><path class="cls-2" d="M13.27,32.49c-.29.45-.76.42-1.14.54-1.57.5-3.19.84-4.73,1.46-.13,0-.36.15-.41,0s.18-.17.31-.21c1-.33,2.07-.68,3.11-1A25.55,25.55,0,0,1,13.27,32.49Z"/><path class="cls-2" d="M11.37,32.67a15.24,15.24,0,0,1-2.28.76c-.64.19-1.29.36-1.93.56-.17,0-.33.07-.37-.11s.16-.15.28-.19a44.51,44.51,0,0,1,4.37-1.27C11.53,32.53,11.44,32.6,11.37,32.67Z"/><path class="cls-2" d="M63.19,17.82c.7.07,1.28-.39,2-.48.47-.06.9-.33,1.41-.2a19.5,19.5,0,0,1-4.31,1.37A.44.44,0,0,1,62.4,18C62.64,17.89,63,18,63.19,17.82Z"/><path class="cls-1" d="M54.58,42.56a2,2,0,0,1,.82.7c.06.07.12.2.23.15s0-.19,0-.24c.38-.69-.46-.84-.57-1.3a.15.15,0,0,1,.08-.11c.43.32.7.81,1.11,1.16.07.06.12.2.07.21-.51.14-.5.78-.95,1a.38.38,0,0,0-.1.12,0,0,0,0,1,0,0c-.2.06-.38.41-.58,0,.61-.55.53-1.07-.05-1.59,0,0,0-.09-.07-.13Z"/><path class="cls-2" d="M62.19,9.59,65.58,7.4c.09-.06.19-.2.27,0s0,.25-.17.33c-.44.27-.86.57-1.32.81a16.54,16.54,0,0,1-2,1.14C62.3,9.74,62.2,9.78,62.19,9.59Z"/><path class="cls-2" d="M9.33,26.21c.22.1,0,.16,0,.24a1.05,1.05,0,0,1-.65.08c-.92-.07-1.83.1-2.74.07-.12,0-.28.08-.42-.21A23.49,23.49,0,0,1,9.33,26.21Z"/><path class="cls-2" d="M9.27,24l0,.16A16.71,16.71,0,0,1,5.55,24a5.78,5.78,0,0,1,2.19-.09A3.44,3.44,0,0,1,9.27,24Z"/><path class="cls-1" d="M60,36.2v.21c-.15,0,.32.16.21.13.14.12-.2-.09-.09.1s-.19.21-.33.24c-.68-.39-1.36-.77-2-1.18-.09-.06-.33-.09-.24-.26s.25-.06.39,0,.5.27.77.38.35.5.47,0c0-.09.19,0,.27,0S59.9,36,60,36.2Z"/><path class="cls-2" d="M63,10.15c.17-.43.64-.48,1-.69a20.91,20.91,0,0,1,2.36-1.39c-.08.4-2.58,2-3.34,2.16l0,0Z"/><path class="cls-1" d="M62.52,19.24a.54.54,0,0,1,.27.5h-.18l0,0-.05,0c-.6.44-1.23-.08-1.85.05-.29.06-.56.33-1,.05C60.68,19.67,61.57,19.34,62.52,19.24Z"/><path class="cls-1" d="M62.44,18.12l-.2.39a15.34,15.34,0,0,1-2.63.66,6.32,6.32,0,0,0,1.1-.56A2.67,2.67,0,0,1,62.26,18,.14.14,0,0,1,62.44,18.12Z"/><path class="cls-2" d="M65.2,35.72l3,1.12a.54.54,0,0,1,.19.08c.09.07.32,0,.23.25s-.23.12-.36.06c-.51-.21-1-.41-1.52-.66s-1.08-.3-1.49-.71C65.12,35.82,65.13,35.77,65.2,35.72Z"/><path class="cls-2" d="M9.31,27.82a2.18,2.18,0,0,1,0,.25c-1.09.24-2.23.19-3.33.37-.11,0-.23,0-.25-.09s.1-.17.2-.18c.48-.07.95-.15,1.43-.2Z"/><path class="cls-1" d="M24.78,47.36l-.09-.58c0-.18-.08-.25-.21-.32.05-.19.21-.26.34-.37s.19-.29.34-.37.19.08.18.2-.06.26,0,.39l0,.09c.1.69.12.71.86.51l0,0c-.09.37-.33.5-.65.32s-.34,0-.49.1l-.15,0a.13.13,0,0,1-.09-.11v0A.19.19,0,0,1,24.78,47.36Z"/><path class="cls-2" d="M60.22,7.37l0-.2c.66-.65,1.42-1.19,2.13-1.78a2.07,2.07,0,0,1,.25-.15c.12-.08.17-.41.37-.17s-.11.25-.21.34A29.38,29.38,0,0,1,60.22,7.37Z"/><path class="cls-1" d="M54.1,44.15l.1.08c.1.14.37.16.27.42-.18.51-.74.61-1.07,1s-.41.53-.11.91a2.14,2.14,0,0,1,.48.75c-.05.08-.11.08-.18,0a6.18,6.18,0,0,0-.71-1c-.11-.12-.28-.31-.09-.43.44-.29.61-.87,1.16-1,.14,0,.25-.1.1-.23s0-.32-.07-.47S54.05,44.13,54.1,44.15Z"/><path class="cls-1" d="M54.06,5.89l-.1.23a.44.44,0,0,1-.07.17h0c-.58-.09-.2-.49-.21-.73s.2-.66-.25-.94-.55-.39-.86.08c.1-.33-.29-.65.13-.87,0,0,0,0,0,0A13,13,0,0,0,54,4.76c.33.19.33.36.09.57S53.94,5.71,54.06,5.89Z"/><path class="cls-2" d="M54.29,0c-.11.13-.22.27-.34.4l-.06,0A2.12,2.12,0,0,1,54,0Z"/><path class="cls-1" d="M22.49,45.79l-.34-.07c.08-.26.44-.49.23-.77a1,1,0,0,0-.64-.34c-.14,0-.37,0-.4-.2s-.11-.32,0-.37a.67.67,0,0,1,.52,0,3.5,3.5,0,0,0,.79.42.62.62,0,0,1,.07.67C22.59,45.36,22.62,45.6,22.49,45.79Z"/><path class="cls-1" d="M50.54,47.72c-.39-.37.12-.73,0-1.1,0-.06.12-.11.21-.09a.44.44,0,0,0,.54-.13c.25-.24.29.23.38.43a.09.09,0,0,1,0,.15l-.18-.06c-.06.42-.7.43-.67.92C50.69,47.9,50.56,48,50.54,47.72Z"/><path class="cls-2" d="M19.17,3.8a14.17,14.17,0,0,1-2.29-2.65,18.84,18.84,0,0,1,2.38,2.43C19.35,3.7,19.36,3.79,19.17,3.8Z"/><path class="cls-2" d="M23.11,48l.17-.26h0A5.18,5.18,0,0,0,24,46.62c.11-.19.23-.33.46-.16a.41.41,0,0,0,.34-.37c-.25,0-.42-.1-.42-.37s-.14-.18-.27-.16-.28.2-.48.15-.19,0-.19.15,0,.28,0,.34.17-.06.25-.12.15,0,.22.07S24,46,24.08,46a1.23,1.23,0,0,0,0,.2.12.12,0,0,1,0,.08,5.56,5.56,0,0,0-.92,1.35h0c-.18.06-.25.22-.34.36Z"/><path class="cls-2" d="M13.05,10.43a3,3,0,0,1-1.2-.6,15.92,15.92,0,0,1-2-1.29,15.13,15.13,0,0,1,3.27,1.81C13.15,10.41,13.12,10.44,13.05,10.43Z"/><path class="cls-1" d="M62.44,18.12,62.26,18c.37-.21.33-.47-.14-.75-.07,0-.17,0-.18-.14s.37-.05.31-.31-.25-.1-.4-.09-.14-.08-.15-.17.07-.09.12-.12c.43-.35.64-.26.7.3,0,.32.31.57.27.94,0,.2.22.2.4.18C63,18.12,62.7,18.06,62.44,18.12Z"/><path class="cls-2" d="M19.32,44.34a1.73,1.73,0,0,1-.56.75,18.45,18.45,0,0,0-1.3,1.35c-.07.08-.15.16-.25.08s0-.17,0-.22c.59-.63,1.18-1.25,1.78-1.86a.62.62,0,0,1,.24-.08l0,0Z"/><path class="cls-1" d="M49.12,48c-.1-.26-.28-.49-.37-.74s-.21-.45-.27-.69-.08-.21,0-.3c.23.48.46,1,.7,1.45a2.39,2.39,0,0,0,.13.28Z"/><path class="cls-1" d="M49.74,48h0c.06-.05.1,0,.13,0Z"/><path class="cls-2" d="M22.21,4a.79.79,0,0,1-.46.36h0l-.05,0c-.12-.18-.35-.33-.18-.62.07-.11-.08-.16-.15-.22a2.82,2.82,0,0,1-.6-1A10.44,10.44,0,0,1,22.21,4Z"/><path class="cls-2" d="M50.12,48c.08-.18.12-.38.42-.28.05.15.18.1.29.12a1,1,0,0,0,.05.16Z"/><path class="cls-2" d="M11,20.48l-.13.13a6.73,6.73,0,0,1-2.48-.44c.31-.32.58-.07.8,0A7.42,7.42,0,0,1,11,20.48Z"/><path class="cls-1" d="M25.36,46.31c-.23.13-.19-.05-.2-.17s.24-.28,0-.42c.15-.55.61-.77,1.11-1A5.06,5.06,0,0,1,25.36,46.31Z"/><path class="cls-1" d="M13,25.11c0-.11,0-.24.1-.3a.33.33,0,0,0,.3.15c.85-.14,1.69.14,2.54,0,.06,0,.17,0,.18.18C15.09,25.15,14.05,25.2,13,25.11Z"/><path class="cls-1" d="M19.37,40.85a.55.55,0,0,0,.51.27c-.22.54-.88.49-1.2.9a.14.14,0,0,1-.24-.06.44.44,0,0,1,.13-.5Z"/><path class="cls-2" d="M66.55,22.46a11.35,11.35,0,0,1,2.17-.24c.11,0,.23,0,.24.14s-.16.13-.27.15a17.75,17.75,0,0,1-2.42.12C66.25,22.39,66.44,22.48,66.55,22.46Z"/><path class="cls-1" d="M63.05,25.32l0,.42c0,.05-.06.06-.11,0-.57,0-1.18.16-1.75-.26A5,5,0,0,1,63.05,25.32Z"/><path class="cls-1" d="M55.51,4.8l1.1-1.39a.16.16,0,0,1,.15.09.34.34,0,0,1,.05.17,1.92,1.92,0,0,1,0,.24A4.46,4.46,0,0,1,55.68,5l0,0c0-.06,0-.12-.07-.16Z"/><path class="cls-2" d="M56.53,7.07h0a.24.24,0,0,1,.05-.28A17.15,17.15,0,0,1,58.3,5.23,7.73,7.73,0,0,1,56.53,7.07Z"/><path class="cls-1" d="M20,41.89A.29.29,0,0,1,20,42c.19.11-.24.21,0,.32l.27.16c-.19.33-.4.62-.78.18,0,0-.16,0-.24,0s-.3,0-.29-.19.21-.31.26-.28C19.63,42.34,19.76,41.92,20,41.89Z"/><path class="cls-1" d="M45.48,48c0-.21.13-.42.16-.65A1.32,1.32,0,0,1,46,48Z"/><path class="cls-2" d="M63,10.15a.22.22,0,0,1,0,.08c-.16.41-.62.43-.93.63a4.16,4.16,0,0,1-1.44.8.07.07,0,0,1,0-.08s0,0,0,0A12.2,12.2,0,0,1,63,10.15Z"/><path class="cls-2" d="M62.19,9.59l.21.08a8,8,0,0,1-2.06,1.26A9,9,0,0,1,62.19,9.59Z"/><path class="cls-1" d="M58.89,9.83c-.14.13-.39.2-.26.48-.21.12-.46.19-.6.43s-.37,0-.6,0a6.08,6.08,0,0,1,1.31-1.09Z"/><path class="cls-1" d="M14.67,18.21l.09-.12a.6.6,0,0,1,.36.14.12.12,0,0,1,.13,0,.34.34,0,0,1,.14.05c.1,0,.27,0,.25.2s-.26,0-.31.13.25.06.3.28a1.91,1.91,0,0,1-1.2-.25l.07-.15c.07-.13-.51-.16-.19,0C14.24,18.33,14.61,18.41,14.67,18.21Z"/><path class="cls-1" d="M14.46,30.23l.11.22-2.43.46a.94.94,0,0,1-.5,0h0A27.64,27.64,0,0,1,14.46,30.23Z"/><path class="cls-1" d="M54.47,42.54c-.49-.36-.75-.94-1.25-1.3-.08-.06-.2-.19,0-.3s.17.06.22.13c.34.49.92.79,1.16,1.37A.14.14,0,0,1,54.47,42.54Z"/><path class="cls-1" d="M47.73,2.44l.17,0-.81,2-.15,0A9.33,9.33,0,0,1,47.73,2.44Z"/><path class="cls-1" d="M49.17,1.88l.18,0a.13.13,0,0,1,.16,0c.06.62.36.08.53.1.3.58-.28.83-.43,1.24-.12.06-.2.06-.19-.11a1.51,1.51,0,0,1,.09-.18c.18-.3.42-.6-.17-.72-.06,0-.1-.13-.15-.19s0,0,0-.05S49.16,1.88,49.17,1.88Z"/><path class="cls-2" d="M12.39,31.65,11,32a.17.17,0,0,1-.24-.12.1.1,0,0,1,.09-.14c.51,0,1-.38,1.5-.32C12.44,31.47,12.43,31.55,12.39,31.65Z"/><path class="cls-2" d="M64.19,23.84c-.13-.09,0-.09,0-.14a3.21,3.21,0,0,1,1.27-.13c.12,0,.21,0,.2.15s-.1.11-.18.12A3.31,3.31,0,0,1,64.19,23.84Z"/><path class="cls-2" d="M64.11,23.22v-.17c.2-.07.46,0,.6-.21h0a.14.14,0,0,1,.16,0h0c.11.21.29.07.44.08s.25.05.25.19-.13.1-.22.1A3,3,0,0,1,64.11,23.22Z"/><path class="cls-2" d="M67.68,34.21l.21-.06a3.37,3.37,0,0,1,1.53.52A3.41,3.41,0,0,1,67.68,34.21Z"/><path class="cls-2" d="M53.78,1.77c.42,0,.42-.47.65-.67s.27-.61.48-.46-.12.42-.22.62a7,7,0,0,1-.65.89c-.14.12-.23,0-.3-.09a.36.36,0,0,1,0-.23Z"/><path class="cls-1" d="M13.51,32.58a4.92,4.92,0,0,1,2.33-.74Z"/><path class="cls-1" d="M27.45,46.55l-.05-.22c0-.45.38-.77.48-1.19a.16.16,0,0,1,.2-.12c.12,0,.09.16,0,.25A7.8,7.8,0,0,1,27.45,46.55Z"/><path class="cls-1" d="M61.63,32.18c.13.15-.13.2-.07.33a1.62,1.62,0,0,1-.83-.26c-.08,0-.2-.08-.17-.21a.24.24,0,0,1,.25-.14A1.24,1.24,0,0,1,61.63,32.18Z"/><path class="cls-1" d="M16.3,35.43l.45,0c-.18.13-.46.2-.25.47-.48.09-.83.56-1.41.52a1.22,1.22,0,0,1,.74-.45A.59.59,0,0,0,16.3,35.43Z"/><path class="cls-1" d="M48.52,46.27c0,.1,0,.2,0,.3A4.76,4.76,0,0,1,47.79,45,2.9,2.9,0,0,1,48.52,46.27Z"/><path class="cls-1" d="M15.82,16c0-.06,0-.12,0-.17a8.16,8.16,0,0,1,1.68.82A5.52,5.52,0,0,1,15.82,16Z"/><path class="cls-2" d="M64.1,21.57v-.14a1.89,1.89,0,0,1,1-.23c.11,0,.27,0,.28.15s-.14.15-.25.17A4.11,4.11,0,0,1,64.1,21.57Z"/><path class="cls-1" d="M58.17,12.23a2.09,2.09,0,0,0,.14.17,8.39,8.39,0,0,1-1.11.67c-.07,0-.16.1-.22,0s0-.2.11-.23C57.5,12.72,57.78,12.38,58.17,12.23Z"/><path class="cls-2" d="M58.27,48c-.89-1.06-1.76-2.12-2.73-3.1a.15.15,0,0,0-.13,0l-.07,0h0l0-.06c-.07-.17-.3-.31-.14-.54-.2-.08-.38.26-.58,0a.62.62,0,0,1-.5,0c0,.2.26.23.27.42.33-.11.33.26.52.35h0a3.9,3.9,0,0,0,.4.51c.11.11.22.37.36.31.32-.15.36.1.49.25.57.65,1.19,1.26,1.74,1.93Zm-3.05-3.09h0l0,0Z"/><path class="cls-1" d="M14.56,22.73l.06-.15c.5-.18,1,.11,1.48.06a.12.12,0,0,1,.12.17c0,.11-.14.06-.22.06Z"/><path class="cls-1" d="M62,15.6c.17.14.36,0,.54,0a4.35,4.35,0,0,1-1.61.46A2,2,0,0,1,62,15.6Z"/><path class="cls-2" d="M17,40.09h0c.15-.36.55-.36.8-.57l.27.15-.83.68c-.1.08-.23.14-.32,0S17,40.19,17,40.09Z"/><path class="cls-2" d="M67.65,30.56a4.56,4.56,0,0,1,1.75.32,4.63,4.63,0,0,1-1.73-.21A.09.09,0,0,1,67.65,30.56Z"/><path class="cls-1" d="M55.19,41.76l-.08.11a5.25,5.25,0,0,1-.9-.79c-.06-.06-.15-.11-.08-.2s.2,0,.26,0C54.66,41.19,54.92,41.48,55.19,41.76Z"/><path class="cls-2" d="M63.92,30.24c-.08.08-.12.2,0,.24.37.14,0,.26,0,.39-.31-.2-.55-.51-.94-.57a.34.34,0,0,1,.16-.21C63.44,30,63.66,30.24,63.92,30.24Z"/><path class="cls-1" d="M12.39,31.65a2.34,2.34,0,0,0,0-.26,5.7,5.7,0,0,1,1.47-.33.07.07,0,0,1,0,.08.1.1,0,0,1,0,0C13.39,31.44,12.84,31.37,12.39,31.65Z"/><path class="cls-1" d="M25.23,3.41l.18,0a.09.09,0,0,1,0,.07.24.24,0,0,1,.06.11,1.89,1.89,0,0,1,.62,1.19C25.6,4.38,25.5,3.84,25.23,3.41Z"/><path class="cls-1" d="M29.23,47.23a6.73,6.73,0,0,1,.4-1.17.12.12,0,0,1,.15-.1c.12,0,.09.12.06.2a4.44,4.44,0,0,1-.45,1.05C29.34,47.28,29.29,47.27,29.23,47.23Z"/><path class="cls-1" d="M47.39,48c-.09-.22-.19-.43-.28-.65s-.07-.22.06-.26.19.09.2.18a1.65,1.65,0,0,0,.32.73Z"/><path class="cls-1" d="M30.07,2.73l.16,0c.23.32.21.74.41,1.07a.15.15,0,0,1-.06.22.13.13,0,0,1-.18-.12C30.34,3.47,30,3.16,30.07,2.73Z"/><path class="cls-1" d="M62.57,20.39l0,.17-1,.27c-.11,0-.22.05-.25-.07s.1-.17.21-.19Z"/><path class="cls-1" d="M29.4,3.44c0-.17-.1-.35,0-.52.1.47.55.85.4,1.42C29.48,4.12,29.59,3.71,29.4,3.44Z"/><path class="cls-1" d="M27.36,3.4l.19-.13c.06.41.56.65.42,1.24A6.59,6.59,0,0,1,27.36,3.4Z"/><path class="cls-1" d="M63.15,30.09c0,.12-.07.17-.16.21A1.77,1.77,0,0,1,61.85,30Z"/><path class="cls-1" d="M53.28,1.84c.3,0,.31-.34.53-.41a.12.12,0,0,1,.17,0l-.2.31h0c-.06.07,0,.15,0,.22a.75.75,0,0,1-.05.16c0,.08,0,.16-.08.24a.38.38,0,0,1-.14.14.35.35,0,0,1-.33,0,.37.37,0,0,1-.09-.2.33.33,0,0,1,.07-.21h0c.07-.11.07-.24.16-.34Z"/><path class="cls-1" d="M26.74,45.92c.18-.39.37-.78.56-1.17,0-.1.11-.18.23-.1s0,.14,0,.21a7.17,7.17,0,0,1-.65,1.06A.09.09,0,0,1,26.74,45.92Z"/><path class="cls-2" d="M31.5,0a3.65,3.65,0,0,1,.07.46h-.34a1.45,1.45,0,0,0,0-.46Z"/><path class="cls-2" d="M19.17,3.8l.09-.22,1,1.2a.15.15,0,0,1-.18,0C19.8,4.47,19.35,4.26,19.17,3.8Z"/><path class="cls-2" d="M52.23,48a3.86,3.86,0,0,1-.55-1v-.15c.43.29.51.82.84,1.17Z"/><path class="cls-2" d="M60.16,12.42l-.22-.18c.41.07.69-.2,1-.39a2.29,2.29,0,0,1,.56-.29l0,.27a1.46,1.46,0,0,0-.8.38A.79.79,0,0,1,60.16,12.42Z"/><path class="cls-2" d="M58.84,8.18l-.12,0c-.19.12-.32.4-.62.28v0c0-.36.37-.48.58-.69a.2.2,0,0,1,.18,0C59,7.89,58.88,8,58.84,8.18Z"/><path class="cls-1" d="M46.22.52l.2.09a3.33,3.33,0,0,1-.53,1.29C45.84,1.4,46.24,1,46.22.52Z"/><path class="cls-2" d="M65.2,35.72v.14a3,3,0,0,1-1.36-.51l.27-.07Z"/><path class="cls-2" d="M14.68,38c-.16.09-.31.19-.48.27s-.21.08-.26,0S14,38,14.09,38c.32,0,.47-.32.76-.35a.49.49,0,0,1,.47-.18C15.32,37.91,14.93,37.84,14.68,38Z"/><path class="cls-1" d="M53.77,44a2.54,2.54,0,0,1-.72-.9c.51.08.6.46.76.75C53.92,43.91,53.91,44,53.77,44Z"/><path class="cls-1" d="M62.84,27a.77.77,0,0,1,0,.15c-.36-.05-.75.11-1.15-.19A1.87,1.87,0,0,1,62.84,27Z"/><path class="cls-2" d="M15.77,33.13l0,.16c-.28.3-.68.26-1,.37A1.48,1.48,0,0,1,15.77,33.13Z"/><path class="cls-1" d="M49.42,3.06l.19.11c-.13.34-.19.72-.64.93A3.2,3.2,0,0,1,49.42,3.06Z"/><path class="cls-2" d="M13.27,26.21l0-.15,1.62-.1a.1.1,0,0,1-.06.14A8.87,8.87,0,0,1,13.27,26.21Z"/><path class="cls-1" d="M62.25,24.08v.11c-.24.13-.52,0-.78.09a.14.14,0,0,1-.18-.13c0-.11.09-.13.18-.13C61.73,24,62,23.89,62.25,24.08Z"/><path class="cls-2" d="M20.09,4.82l.18,0A5.7,5.7,0,0,1,21,5.6a.19.19,0,0,1-.16.08l-.54-.52,0,0Z"/><path class="cls-1" d="M23.78,5l.07-.21a2.53,2.53,0,0,1,.54,1C24.17,5.55,23.85,5.38,23.78,5Z"/><path class="cls-2" d="M63.47,29.82c.34-.32.75,0,1.11-.14l.44.23c-.48.2-.87-.19-1.28,0A.29.29,0,0,1,63.47,29.82Z"/><path class="cls-2" d="M15.92,37.37c.08,0,.32.08.23.12-.37.16-.6.61-1.08.51,0,0,0,0,0-.08.16-.26.46-.33.68-.52A.25.25,0,0,1,15.92,37.37Z"/><path class="cls-1" d="M51.06,3c-.22.06-.44-.13-.65,0-.06-.39.16-.55.53-.81a.52.52,0,0,0,.13.79Z"/><path class="cls-2" d="M54.7,0l-.1.16a3.74,3.74,0,0,0-.79,1.27l.17,0A6,6,0,0,0,54.79.18L54.94,0Z"/><path class="cls-1" d="M25,4.15l.1,0a.94.94,0,0,1,.48.73.26.26,0,0,1-.12,0A1.72,1.72,0,0,1,25,4.15Z"/><path class="cls-1" d="M14.81,26.1l.06-.14,1.27,0a2.6,2.6,0,0,1-1.16.21c-.05,0-.11,0-.15,0Z"/><path class="cls-1" d="M56.5,8.23l0,.19a2.25,2.25,0,0,1-.77.67C55.9,8.69,56.24,8.49,56.5,8.23Z"/><path class="cls-1" d="M41.67,47.69l-.13,0a3.69,3.69,0,0,1-.15-1.15A1.42,1.42,0,0,1,41.67,47.69Z"/><path class="cls-1" d="M62.36,26.5a.81.81,0,0,1-.76-.18,2.62,2.62,0,0,1,1,0C62.64,26.55,62.5,26.51,62.36,26.5Z"/><path class="cls-2" d="M61.46,35.65l.25.09c-.19.19-.07.53-.41.79C61.37,36.17,61.09,35.88,61.46,35.65Z"/><path class="cls-1" d="M19.52,9.2l-.21,0a1.11,1.11,0,0,1-.51-.45s.06-.1.08-.1c.25,0,.38.24.56.39A1.25,1.25,0,0,1,19.52,9.2Z"/><path class="cls-2" d="M59.79.53c-.49-.07-.53.46-.84.64h0L59,.76h0l.36-.37h0a.29.29,0,0,1,.22-.13C59.72.28,59.93.26,59.79.53Z"/><path class="cls-2" d="M16.34,37.05l.43-.22c.25-.1.17.1.19.2a2.92,2.92,0,0,1-.32.21C16.43,37.35,16.33,37.28,16.34,37.05Z"/><path class="cls-2" d="M13.85,31.18l0-.12c.2-.31.56-.15.82-.28l.11.18A2.58,2.58,0,0,1,13.85,31.18Z"/><path class="cls-2" d="M53.51,2.42s0,0,.05,0,0-.22.06-.33a.05.05,0,0,1,0-.05.1.1,0,0,1,.14,0c0,.13.09.21.24.19-.2.21-.29.51-.58.63a.07.07,0,0,1-.1,0A.31.31,0,0,1,53.51,2.42Z"/><path class="cls-1" d="M26.18,3.06h.08a.62.62,0,0,1,.33.62s-.1.06-.11.05A.89.89,0,0,1,26.18,3.06Z"/><path class="cls-1" d="M15.92,37.37l-.07.05c-.15.07-.29.16-.45,0s-.37.12-.55.17a2.91,2.91,0,0,1,1-.51l.21.06Z"/><path class="cls-2" d="M15.4,37.47l.45,0a2.69,2.69,0,0,1-.8.5l-.37,0A3.47,3.47,0,0,0,15.4,37.47Z"/><path class="cls-1" d="M62.51,29l0,.16L61.8,29A.65.65,0,0,1,62.51,29Z"/><path class="cls-1" d="M11.37,32.67l.07-.25c.17-.17.4-.06.6-.13l0,.19C11.87,32.68,11.61,32.63,11.37,32.67Z"/><path class="cls-1" d="M26.74,45.92h.12a1.69,1.69,0,0,1-.46.81s-.07,0-.07,0A1.8,1.8,0,0,1,26.74,45.92Z"/><path class="cls-2" d="M52.92,3.64l0-.17a1.09,1.09,0,0,1,0-.18.56.56,0,0,1,0-.12A1.11,1.11,0,0,1,53,3l.09-.09c.1-.06.18-.18.31-.19l.08,0A1.81,1.81,0,0,1,52.92,3.64Z"/><path class="cls-1" d="M45.84.34H46a1.15,1.15,0,0,1-.25.78A.78.78,0,0,1,45.84.34Z"/><path class="cls-1" d="M27.59,47.13l-.1-.19c0-.24.1-.49.26-.53s.18.15.08.3l-.12.21Z"/><path class="cls-2" d="M57.74,7.49l-.11-.18A.75.75,0,0,1,58.05,7s.07.07.07.1A.46.46,0,0,1,57.74,7.49Z"/><path class="cls-2" d="M64,22.19c0-.1,0-.21.09-.28s.44,0,.41.16S64.13,22.18,64,22.19Z"/><path class="cls-1" d="M20.84,5.68,21,5.6a.71.71,0,0,1,.37.46l-.09.13Z"/><path class="cls-2" d="M63.93,25.05a.43.43,0,0,1-.18.37c-.06-.16-.24-.25-.16-.46C63.71,25,63.84,24.93,63.93,25.05Z"/><path class="cls-2" d="M56.73,3.74l0-.22c0-.17.17-.23.26-.34h0c.18-.05.15.24.32.21l-.22.3C56.92,3.6,56.84,3.79,56.73,3.74Z"/><path class="cls-2" d="M63.55,26.51l-.24-.13a.63.63,0,0,0,0-.45l.24,0A1.44,1.44,0,0,1,63.55,26.51Z"/><path class="cls-2" d="M29.23,47.23l.16,0c.06.23-.17.35-.22.55l-.17,0C29,47.55,29,47.34,29.23,47.23Z"/><path class="cls-2" d="M49.6,0H47.89L48,.18c0,.17-.26.34-.06.59l.28-.5c.37,0,.31.14.2.39-.25.58-.47,1.18-.7,1.78.07.11.12.12.17,0,.22-.5.46-1,.65-1.52s.4-.68.9-.47l-.11.38h0c-.12.26-.23.52-.35.77s-.06.36.2.39a.29.29,0,0,0,0-.09c0-.4.37-.67.4-1.07.26-.15.22-.48.39-.69A.11.11,0,0,0,50,0Z"/><path class="cls-2" d="M46.43,0c-.09.17-.23.32-.21.52s.09.15.2.09a3.35,3.35,0,0,0,.2-.61Z"/><path class="cls-2" d="M45.88,0a.51.51,0,0,1,0,.34c.06.08.11.09.15,0s.08-.22.13-.33Z"/><path class="cls-2" d="M44.78,0a1.06,1.06,0,0,0,0,.47c0-.16.13-.31.18-.47Z"/><path class="cls-2" d="M19.51,37.11l-.31,0,.59-.38C19.78,37,19.63,37.06,19.51,37.11Z"/><path class="cls-1" d="M16.23,34.42v0c0,.13-.07.28-.26.24,0,0-.08-.08-.07-.11S16.12,34.46,16.23,34.42Z"/><path class="cls-2" d="M62.36,26.5c.1-.06.23,0,.29-.16l.33,0,0,.17C62.76,26.51,62.55,26.73,62.36,26.5Z"/><path class="cls-2" d="M54.41,48a1.67,1.67,0,0,0-.45-.51l-.19-.2-.18,0,.35.54h0A.91.91,0,0,0,54,48Z"/><path class="cls-1" d="M24,46.15c0-.17,0-.38.28-.44a.84.84,0,0,1-.21.58Z"/><path class="cls-2" d="M66.55,22.46c-.1,0-.24,0-.28.17s-.2,0-.3,0l0-.14A.47.47,0,0,1,66.55,22.46Z"/><path class="cls-2" d="M66.44,30.46c.21-.07.44-.18.59.1Z"/><path class="cls-2" d="M67.65,30.56l0,.11c-.17,0-.28-.07-.41-.15l.08-.1A.3.3,0,0,1,67.65,30.56Z"/><path class="cls-2" d="M53.77,44l0-.15c.16.05.21.2.29.32l-.12,0Z"/><path class="cls-2" d="M57,3.18a.56.56,0,0,1-.26.34l-.09-.11C56.7,3.29,56.78,3.16,57,3.18Z"/><path class="cls-2" d="M56.73,3.74c.11,0,.14-.42.31-.05l-.23.22Z"/><path class="cls-2" d="M59.36.38c-.06.19-.15.34-.36.37C59.11.63,59.1.37,59.36.38Z"/><path class="cls-2" d="M59.57.26a.25.25,0,0,1-.22.13.19.19,0,0,1,.09-.25C59.51.11,59.55.2,59.57.26Z"/><path class="cls-2" d="M26.57,1.45l-.16.05,0,0h0a.22.22,0,0,1,.11-.25A.23.23,0,0,1,26.57,1.45Z"/><path class="cls-2" d="M13.3,10.43c0,.05,0,.09,0,.13a.26.26,0,0,1-.24-.13l.06-.08Z"/><path class="cls-1" d="M15.25,18.21l-.13,0S15.2,18.16,15.25,18.21Z"/><path class="cls-2" d="M14.83,26.11l.15,0C14.92,26.2,14.87,26.17,14.83,26.11Z"/><path class="cls-2" d="M20.28,5.11a.08.08,0,0,1,0,0l-.08,0Z"/><path class="cls-2" d="M58.34,9.68l.14-.09s0,0,0,0l-.14.09Z"/><path class="cls-2" d="M58.37,9.71a.11.11,0,0,1-.13.09l0,0,.14-.09Z"/><path class="cls-2" d="M49.51,1.83h-.16S49.45,1.64,49.51,1.83Z"/><path class="cls-1" d="M26.26,46.91c0-.08,0-.17.07-.22l.07,0-.09.21Z"/><path class="cls-1" d="M13.5,29.27h0Z"/><path class="cls-1" d="M20,41l.08-.07Z"/><path class="cls-1" d="M54.47,42.54l.08-.1,0,.12h-.11Z"/><path class="cls-1" d="M62.51,19.75a.17.17,0,0,1,.1,0Z"/><path class="cls-1" d="M60.5,11.69l-.09.11-.07-.05.1-.11S60.5,11.65,60.5,11.69Z"/><path class="cls-2" d="M55.54,44.9l-.13,0s0,0,0-.08l0-.06Z"/><path class="cls-1" d="M21.68,4.32a.05.05,0,0,1,.05,0S21.68,4.35,21.68,4.32Z"/><path class="cls-1" d="M19.32,44.34h-.08S19.28,44.27,19.32,44.34Z"/><path class="cls-2" d="M55.32,44.21l.1-.12Z"/><path class="cls-2" d="M63.7,25.66l.11,0C63.78,25.69,63.74,25.7,63.7,25.66Z"/><path class="cls-1" d="M25.48,3.55l-.06-.11Z"/><path class="cls-2" d="M62.89,25.77l.11,0s0,.06,0,.09Z"/><path class="cls-1" d="M14.12,15.41s0,0,0,0h0Z"/><path class="cls-2" d="M67.05,30.58a.08.08,0,0,1,.08,0C67.12,30.65,67.09,30.64,67.05,30.58Z"/><path class="cls-1" d="M60.56,11.54l0,.12-.08,0-.06,0Z"/><path class="cls-1" d="M16.83,34.37a.19.19,0,0,1,.19-.1s0,.06,0,.06l-.15.09Z"/><path class="cls-2" d="M25.07,0a.41.41,0,0,0,0,.11.17.17,0,0,1,0,.05l0-.06A.31.31,0,0,0,25,0h-.6L25,1.12c.17-.1.37-.19.34-.35v0a.57.57,0,0,0,.34.28l.24.07h0c.31.38.28-.1.41-.16C26.18.63,26,.31,25.87,0Z"/><path class="cls-1" d="M63.07,24.34s-.06-.06,0-.07.07-.05.12,0Z"/><path class="cls-2" d="M59,1.17l-.1.08c0-.11.07-.05.09-.09Z"/><path class="cls-2" d="M12.89,29.76l.34,0c-.12.1-.25.19-.4.08A.09.09,0,0,1,12.89,29.76Z"/><path class="cls-2" d="M53.13,2.38c0,.07.29.12.3.19s-.28.32-.41.43h0c-.05.06,0,.16-.07.22h0c-.05.07-.11.09-.17,0s-.24-.06-.29-.09c-.19-.32.4-.45.36-.72h0A.2.2,0,0,1,53.13,2.38Z"/><path class="cls-1" d="M31.67,0l6.56,25,4.82-8.28S38.43,9.09,34,0Z"/><path class="cls-1" d="M44.27,48,38.18,24.83l-4.82,8.28s4,6.62,8.2,14.89Z"/><path class="cls-1" d="M.1,35,38.27,24.88,30,20.06S13.54,30.09.1,35Z"/><path class="cls-1" d="M76.3,14.86,38.13,24.92l8.27,4.83S62.86,19.72,76.3,14.86Z"/><polygon class="cls-1" points="30.15 20.14 21.31 14.98 30.2 17.33 30.15 20.14"/><path class="cls-1" d="M22.77,16.12l6.88,4-1.88,1.11-5-5.13M21.31,15l6.42,6.59,2.42-1.43L21.31,15Z"/><polygon class="cls-1" points="42.97 16.84 48.13 7.98 45.78 16.89 42.97 16.84"/><path class="cls-1" d="M47,9.44l-4,6.89-1.11-1.88,5.13-5M48.13,8l-6.58,6.43L43,16.83,48.13,8Z"/><polygon class="cls-1" points="46.33 29.63 55.17 34.79 46.28 32.44 46.33 29.63"/><path class="cls-1" d="M48.72,28.52l5,5.13-6.89-4,1.89-1.11m0-.31-2.42,1.43,8.84,5.16-6.42-6.59Z"/><polygon class="cls-1" points="33.46 32.95 28.31 41.81 30.66 32.9 33.46 32.95"/><path class="cls-1" d="M33.46,33.46l1.11,1.88-5.12,5,4-6.89m0-.5L28.3,41.81l6.58-6.43L33.46,33Z"/></svg>