<?xml version="1.0" encoding="utf-8"?>
<!-- Generator: Adobe Illustrator 23.0.3, SVG Export Plug-In . SVG Version: 6.00 Build 0)  -->
<svg version="1.1" id="Layer_1" xmlns="http://www.w3.org/2000/svg" xmlns:xlink="http://www.w3.org/1999/xlink" x="0px" y="0px"
	 viewBox="0 0 270 48" style="enable-background:new 0 0 270 48;" xml:space="preserve">
<style type="text/css">
	.st0{fill:#FFFFFF;}
	.st1{fill:#A8529D;}
	.st2{fill:#393939;}
	.st3{fill:#404041;}
	.st4{fill:#A8529C;}
	.st5{fill:#EDEDED;}
	.st6{fill:#DDC30A;}
	.st7{clip-path:url(#SVGID_2_);}
	.st8{fill:#A8519D;}
	.st9{fill:#F2C900;}
	.st10{clip-path:url(#SVGID_4_);}
	.st11{clip-path:url(#SVGID_6_);}
</style>
<path class="st0" d="M89.2,32.5v-1.5c-1.1,1.3-2.3,1.7-4.1,1.7c-1.6,0-3.1-0.5-4-1.5c-1.6-1.6-1.7-4.2-1.7-7c0-2.8,0.1-5.3,1.7-6.9
	c0.9-0.9,2.3-1.5,4-1.5c1.7,0,2.9,0.4,4,1.6V10h4.1v22.5H89.2z M86.3,19.5c-2.5,0-2.8,2.1-2.8,4.7s0.3,4.7,2.8,4.7
	c2.5,0,2.8-2.1,2.8-4.7S88.7,19.5,86.3,19.5z"/>
<path class="st0" d="M99.3,25.5c0,2.2,1.3,3.7,3.6,3.7c1.8,0,2.7-0.5,3.7-1.5l2.5,2.4c-1.7,1.7-3.3,2.6-6.3,2.6
	c-3.9,0-7.6-1.8-7.6-8.4c0-5.4,2.9-8.4,7.2-8.4c4.6,0,7.2,3.3,7.2,8v1.7H99.3z M105.2,20.9c-0.4-1-1.4-1.7-2.8-1.7s-2.3,0.7-2.8,1.7
	c-0.3,0.6-0.3,1-0.4,1.8h6.3C105.5,22,105.5,21.5,105.2,20.9z"/>
<path class="st0" d="M123.4,31.2c-0.9,0.9-2.4,1.5-4,1.5c-1.7,0-2.9-0.4-4-1.6v7.5h-4.1V16h4v1.6c1.1-1.3,2.3-1.7,4.1-1.7
	c1.6,0,3.1,0.5,4,1.5c1.6,1.6,1.7,4.2,1.7,6.9S125,29.6,123.4,31.2z M118.3,19.5c-2.5,0-2.8,2.1-2.8,4.7s0.3,4.7,2.8,4.7
	c2.5,0,2.8-2.1,2.8-4.7S120.7,19.5,118.3,19.5z"/>
<path class="st0" d="M146.9,32.5v-10c0-2.2-1.4-3-2.7-3c-1.3,0-2.8,0.8-2.8,2.9v10.1h-4.1v-10c0-2.2-1.4-3-2.7-3s-2.8,0.8-2.8,3v10
	h-4.1V16h4v1.5c1.1-1.1,2.6-1.7,4.1-1.7c1.8,0,3.3,0.7,4.4,2.1c1.4-1.5,2.9-2.1,4.9-2.1c1.6,0,3.1,0.5,4,1.5
	c1.3,1.3,1.8,2.9,1.8,4.7v10.5H146.9z"/>
<path class="st0" d="M162.6,32.5v-1.4c-1.1,1.1-2.2,1.6-4,1.6c-1.9,0-3.3-0.5-4.2-1.5c-0.9-0.9-1.4-2.2-1.4-3.7
	c0-2.6,1.8-4.8,5.7-4.8h3.8v-0.8c0-1.8-0.9-2.6-3.1-2.6c-1.5,0-2.3,0.4-3.2,1.4l-2.6-2.6c1.6-1.8,3.2-2.3,5.9-2.3c4.6,0,7,2,7,5.8
	v10.8H162.6z M162.6,25.5h-3.1c-1.6,0-2.4,0.7-2.4,1.9c0,1.1,0.8,1.9,2.5,1.9c1,0,1.7-0.1,2.4-0.8c0.5-0.4,0.6-1,0.6-2.1V25.5z"/>
<path class="st0" d="M181.3,31.2c-0.9,0.9-2.4,1.5-4,1.5c-1.7,0-2.9-0.4-4-1.6v7.5h-4.1V16h4v1.6c1.1-1.3,2.3-1.7,4.1-1.7
	c1.6,0,3.1,0.5,4,1.5c1.6,1.6,1.7,4.2,1.7,6.9S182.9,29.6,181.3,31.2z M176.2,19.5c-2.5,0-2.8,2.1-2.8,4.7s0.3,4.7,2.8,4.7
	c2.5,0,2.8-2.1,2.8-4.7S178.6,19.5,176.2,19.5z"/>
<path class="st0" d="M19.4,40.8c0.1-0.3,0.4-0.3,0.6-0.6c-0.3,0.1-0.5,0.2-0.6-0.2c0,0-0.1,0-0.2,0c-0.1,0-0.3,0.3-0.4,0
	c-0.1-0.2,0.2-0.2,0.3-0.3c0.1-0.1,0.2-0.1,0.2-0.3c-0.4,0.1-0.8-0.2-1.2,0.2c-0.1,0-0.2,0-0.3,0c-0.3,0-0.5,0.1-0.6,0.4
	c0,0-0.1,0.1-0.1,0.1c-0.1,0,0,0,0,0c-0.3-0.1-0.6,0.1-0.8,0.3c-0.3,0.3-0.7,0.5-1,0.7C15.1,41,15,41,15,40.9
	c1.1-0.8,2.3-1.6,3.5-2.5c-0.4-0.1-0.6,0-0.6-0.4c0-0.3-0.4-0.6-0.6-0.9c-0.1-0.1-0.2-0.1-0.4,0c-0.2-0.2-0.4,0.1-0.6,0
	c-0.1,0-0.2,0.1-0.3,0.1c-0.1,0.1-0.2,0.1-0.2-0.1c0.3-0.2,0.5-0.4,0.8-0.5c0.2-0.1,0.5-0.2,0.4-0.4c0-0.3-0.3-0.3-0.6-0.3
	c-0.1-0.1-0.2-0.2-0.1-0.2c0.3-0.2-0.1-0.2-0.1-0.3c-0.2-0.3,0.1-0.5,0.2-0.7c0.1-0.1,0.2-0.2,0.3-0.3c0-0.1,0-0.1-0.1,0
	c-0.2,0-0.4,0.1-0.6,0.1l0,0c0-0.2,0-0.2-0.2-0.2c-0.6,0.2-1.2,0.4-1.7,0.6c-0.5,0.2-1,0.3-1.4,0.5c-0.2,0.1-0.4,0.1-0.5-0.1
	c0.6-0.3,1.3-0.5,2-0.8c0.6-0.2,1.1-0.5,1.7-0.7c0.2-0.1,0.5-0.2,0.9-0.3c-0.5-0.1-0.8-0.3-1.1-0.2c-0.1,0-0.1-0.1,0-0.2
	c0.3-0.1,0.6-0.3,0.9-0.4c0.3-0.1,0.5-0.1,0.5,0.3c0,0.3,0.1,0.4,0.4,0.2c0.1-0.1,0.3-0.1,0.4,0.1c0.1,0.2-0.2,0.2-0.3,0.2
	c-0.1,0-0.2,0.1-0.2,0.2c0.2,0.2,0.4-0.1,0.6,0c0,0.2-0.1,0.1-0.2,0.2c-0.4,0.3-0.6,0.6-0.3,1c0,0,0,0.1,0,0.1c0,0.7,0,0.7,0.8,0.6
	c-0.6,0.4-0.5,0.7-0.1,1c0.1,0.1,0.4,0.3,0.3,0.6c0,0.2,0.1,0.2,0.3,0.1c0.1-0.1,0.3-0.1,0.4-0.2c0.1-0.1,0.2-0.1,0.3,0
	c0,0.1-0.1,0.1-0.1,0.1c-0.5,0.2-0.3,0.6-0.2,0.9c0.1,0.2,0.2,0.2,0.3,0c0.1-0.1,0.2-0.3,0.6-0.3c-0.5,0.7-0.1,1.2,0.3,1.7
	c0.5,0.7,0.9-0.2,1.4-0.2c-0.6,0.4-1,1.2-1.7,1.5c0,0-0.1,0-0.1,0.1c-0.1,0-0.1,0.1-0.2,0.1C19.6,41.2,19.4,41.2,19.4,40.8z"/>
<path class="st0" d="M26.6,48c0.1-0.2,0.1-0.3,0-0.5c-0.1-0.1-0.1-0.2,0-0.2c0.4-0.2,0.5-0.6,0.8-1c0.1,0.1,0.1,0.1,0,0.2
	c0.1,0.1-0.3,0.3,0,0.4c0.1,0,0.1,0.1,0.1,0.2c0,0.3,0.4,0.4,0.4,0.8c0,0,0,0,0.1,0c0.3-0.2,0.4-0.6,0.6-0.9
	c0.1-0.2,0.1-0.4,0.3-0.3c0.2,0.1,0,0.4,0,0.5c-0.2,0.3-0.1,0.5-0.2,0.9c0.2-0.1,0.3-0.1,0.4-0.2c0.1,0,0.1,0,0.2,0
	c0,0.1,0.1,0.2,0.1,0.2l-2,0c0,0,0-0.1-0.1-0.1c-0.1-0.1-0.2,0-0.3,0.1L26.6,48z"/>
<path class="st0" d="M15.8,16c-0.2,0.1-0.4-0.1-0.6-0.2c-0.1,0-0.3-0.2-0.4-0.1c-0.2,0.2-0.3,0.4-0.4,0.7c-0.1,0.2,0.2,0.2,0.2,0.4
	c0,0.2-0.3-0.1-0.4,0.2c0,0.2,0.3,0.2,0.3,0.3c0,0.2-0.4-0.1-0.4,0.3c0.1,0.4,0.4,0.5,0.6,0.5c0,0.1,0,0.1-0.1,0.2
	c0,0.1-0.2,0-0.2,0.2c0,0.1,0,0.1-0.1,0.2c-0.1,0-0.2,0-0.3-0.1c-0.1,0-0.2,0-0.2,0.1c-0.1,0.2-0.6,0.9-0.7,0.9c0,0-0.1,0-0.1,0
	c-0.1,0-0.1-0.1-0.1-0.2c0.1-0.1,0.1-0.3,0.2-0.3c0.6-0.3,0.4-1,0.6-1.5c0.2-0.6,0.2-1.3,0.7-1.8c0.1-0.1,0-0.2-0.1-0.3
	c-0.2-0.2-0.4-0.4-0.5-0.7c0,0,0,0,0,0c0,0,0.1,0,0.1,0c0.1,0,0.3,0.1,0.4,0.1c0.2,0.1,0.4,0.1,0.4-0.2c0-0.2,0.3-0.4,0.1-0.7
	c0-0.1,0.1-0.1,0.2-0.1c0.1,0,0.3,0.1,0.3-0.1c0-0.2-0.2-0.2-0.2-0.3c-0.2-0.2-0.5-0.2-0.7-0.5c0-0.1,0-0.1,0.1-0.1
	c0.2,0.1,0.4,0.2,0.5,0.3c0.4,0.3,0.6,0,0.7-0.3c0.2-0.5,0.1-0.7-0.4-0.9c-0.7-0.4-1.4-0.8-2.1-1.3c0,0,0-0.1,0-0.1
	c0.8,0.5,1.7,0.9,2.5,1.4c0.3,0.2,0.5,0.1,0.5-0.2c0-0.2,0.1-0.3,0.3-0.4c0.2,0,0.1-0.2,0.2-0.3c0.5-0.6,0.8-1.4,1.5-1.9
	c0,0,0.1,0,0.2,0c-0.3,0.4-0.5,0.7-0.8,1c-0.2,0.2-0.3,0.4-0.1,0.5c0.3,0.3,0.1,0.5-0.1,0.6c-0.4,0.2-0.8,0.6-0.9,0.9
	c-0.2,0.5-0.7,0.7-0.9,1.3c-0.1,0.3,0.2,0.4,0.2,0.6c-0.3,0-0.7,0.1-0.5,0.6c0.1,0.1,0,0.1-0.1,0.2c-0.5,0.4-0.5,0.4,0,0.8
	c0.1,0.1,0.2,0.3,0.4,0.3C15.8,15.9,15.9,15.9,15.8,16z"/>
<path class="st0" d="M29,0c0,0.1,0.1,0.3,0.1,0.4c0.2,0.6,0.2,0.7-0.3,0.9c0,0.1,0.1,0.3,0,0.4c-0.2,0-0.2-0.2-0.4-0.3
	c-0.3,0.1-0.6,0.2-0.9,0.3c-0.6,0.3-0.7,0.3-1-0.4c0,0-0.1,0-0.1,0l-0.1,0.1c0-0.1,0.1-0.2,0.1-0.3c0-0.1,0-0.2-0.1-0.3
	c-0.1,0-0.2,0.2-0.4,0.1c-0.1,0-0.5-0.3-0.6-0.2c-0.1,0.2,0.3,0.6,0.3,0.8c0,0,0,0.1,0.1,0.1c0,0.1,0.1,0.1,0.1,0.2c0,0,0,0,0.1,0
	c0,0,0.1,0,0.1,0c0.3,0.1,0,1,0.7,0.6c0,0,0,0.1,0,0.1c0.2,0.3,0.3,0.6,0.5,0.9c0.1,0.1,0.2,0,0.2-0.1c-0.1-0.2-0.2-0.3-0.3-0.5
	c-0.1-0.2-0.3-0.4,0-0.5c0.3-0.2,0.5-0.5,0.9-0.3c0.5,0.2,1.1,0.5,1.1,1.2c0,0.1,0,0.2,0.2,0.3c0.2-0.2,0-0.3,0-0.5
	c-0.1-0.4-0.3-0.7-0.1-1.2c0-0.1,0-0.2,0.1-0.2c0.1,0,0.2,0.1,0.2,0.2c0.2,0.3,0.2,0.7,0.4,1c0.1,0,0.1,0,0.2,0
	c-0.1-0.4-0.2-0.9-0.4-1.3c-0.1-0.3,0-0.3,0.2-0.3c0.3,0,0.7-0.1,0.7,0.4c0,0.1,0,0.4,0.2,0.3c0.2-0.1,0.1-0.3,0-0.4
	c0,0-0.1-0.1-0.1-0.1c-0.1-0.2,0-0.3,0.1-0.4c0.1-0.2,0.2,0,0.3,0c0.1,0,0.3,0.1,0.4,0c0.1-0.2,0-0.3-0.1-0.4
	c-0.1-0.1-0.2-0.1-0.3,0c-0.2,0.2-0.5,0-0.8,0.2c-0.2,0.1-0.5,0.1-0.8,0.2c-0.1,0.1-0.2,0-0.2-0.1c-0.1-0.3-0.2-0.5-0.3-0.8H29z"/>
<path class="st0" d="M61.1,38.9c-0.3-0.2-0.5-0.3-0.8-0.5c-0.1-0.1-0.3-0.1-0.4,0c-0.1,0.1-0.1,0.3,0.1,0.3c0.1,0.1,0.2,0.1,0,0.2
	c-0.3,0.2-0.1,0.4,0.1,0.6c-0.2-0.1-0.4-0.1-0.5-0.2c-0.1,0-0.2,0-0.3,0.1c-0.1,0.1,0,0.2,0.1,0.2c0.3,0.2,0,0.4-0.1,0.4
	c-0.6-0.1-0.6,0.4-0.8,0.7c-0.1,0.1-0.1,0.2-0.2,0.3c-0.5,0.2-0.4,0.4-0.1,0.8c0.3,0.3-0.2,0.2-0.3,0.3c-0.3,0.4-0.5,0.2-0.7-0.1
	c0.1-0.1,0.2,0,0.3,0c0.2,0.1,0.3-0.1,0.1-0.2c-0.2-0.2-0.2-0.4-0.3-0.6c-0.2-0.4,0-0.6,0.4-0.5c0.3,0,0.5,0,0.3-0.4
	c-0.1-0.1,0-0.3,0.1-0.3c0.5-0.1,0.2-0.3,0-0.5c0.7-0.1,0.8-0.2,0.9-1.3c0.4,0.2,0.5,0,0.6-0.4c0.1-0.4,0.3-0.7-0.1-1
	c0,0,0.1-0.1,0.1-0.2c0.1-0.1,0.2-0.1,0.2-0.3c0-0.1-0.1-0.2-0.1-0.3c0,0,0-0.1,0.1-0.1c0.6,0.2,1.2,0.5,1.7,0.8
	c0.1,0.1,0.1,0.2,0,0.2c-0.2-0.1-0.3-0.1-0.5-0.2c-0.1,0-0.4-0.1-0.2,0.2c0,0.1,0,0.2-0.1,0.2c-0.4-0.1-0.4,0.3-0.6,0.4
	c-0.1,0,0,0.2,0.1,0.2c0.3,0.2,0.5,0.3,0.8,0.5C61.2,38.7,61.2,38.8,61.1,38.9z"/>
<path class="st4" d="M62,15.6c0.2-0.2,0.4-0.2,0.6-0.3c0.2,0,0.4-0.3,0.3-0.3c-0.5-0.3-0.2-1.2-0.9-1.2c-0.1-0.3,0.5-0.1,0.2-0.6
	c-0.2-0.4-0.4-0.4-0.8-0.2c0.2-0.4,0.2-0.7,0.1-1.1c-0.1-0.1-0.1-0.2,0-0.3c0.4-0.4,0.9-0.5,1.3-0.8c0.1-0.1,0.3-0.2,0.4,0
	c0.1,0.2-0.1,0.2-0.2,0.3c-0.5,0.1-0.8,0.6-1.3,0.6c0.4,0.6,0.5,0.6,1.1,0.3c0.7-0.4,1.4-0.7,2.1-1.1c0.6-0.3,1.2-0.6,1.8-1
	c0.1-0.1,0.2-0.1,0.3-0.1c0.1,0,0.2-0.1,0.2,0c0.1,0.1,0,0.2-0.1,0.2c-0.9,0.3-1.7,0.9-2.5,1.3c-0.7,0.3-1.2,0.7-1.9,1
	c-0.4,0.1-0.3,0.4,0,0.6c0,0,0.1,0,0.1,0.1c0.3,0.2,0.6,0.4,0.1,0.7c-0.1,0.1-0.2,0.2-0.2,0.4c0.1,0.2,0.2,0.1,0.4,0.1
	c0.1,0,0.2,0,0.2,0.1c0.1,0.1,0,0.2-0.1,0.3c-0.3,0.2-0.3,0.3,0.1,0.4c0.3,0.1,0.3,0.3,0,0.5c-0.2,0.2-0.5,0.1-0.7,0.3
	C62.1,15.8,62.1,15.8,62,15.6z"/>
<path class="st0" d="M13,25.1c-1,0.1-2,0.1-3,0c-0.1-0.3,0.3-0.3,0.3-0.5c0.6,0,1.3-0.1,1.9,0.1c0.2,0,0.2-0.1,0.3-0.2
	c0-0.2-0.1-0.2-0.2-0.2c-0.5,0-0.9,0-1.4-0.1c-0.6,0-1.2,0-1.7-0.1c-0.1,0-0.1-0.1,0-0.2c0.9-0.1,1.7,0,2.6,0.1c0.7,0,0.7,0,0.8-0.7
	c0.1-0.7,0-1.3,0.1-2c0.1-0.3,0-0.5-0.4-0.5c-0.5-0.1-1.1-0.2-1.6-0.3c0-0.1,0.1-0.1,0.1-0.1c0.5,0,1,0.1,1.4,0.2
	c0.5,0.1,0.7,0,0.7-0.5c0-0.1,0-0.3,0.3-0.3c0,0.4-0.1,0.8-0.2,1.2c0,0.1-0.1,0.2-0.1,0.3c-0.2,1-0.1,1.1,1.1,1.2
	c0.2,0,0.3,0,0.5,0.1c0,0.1,0,0.1-0.1,0.1c0,0-0.1,0-0.1,0c-0.5,0-1-0.2-1.5-0.1c0,0.7-0.3,1.3,0.1,2c0,0,0,0.1,0,0.2
	C13.1,24.9,13.1,25,13,25.1z"/>
<path class="st4" d="M58.7,9.7c0.4-0.2,0.2-0.4,0-0.7l0,0c0.6-0.2,1.1-0.5,1.6-0.8c0.8-0.6,1.6-1.2,2.4-1.8c0.1,0.2,0.1,0.2-0.1,0.3
	c-0.7,0.5-1.3,1-2,1.5c-0.1,0.1-0.4,0.2-0.3,0.4c0.1,0.2,0.3,0,0.5-0.1c0.8-0.6,1.5-1.1,2.3-1.7c0.5-0.4,1-0.7,1.6-1.1
	c0,0.4-0.3,0.5-0.5,0.6c-1.1,0.8-2.2,1.5-3.3,2.3c-0.2,0.2-0.4,0.4-0.7,0.5c0,0-0.1,0.1-0.1,0.1c0.2,0.7-0.5,0.6-0.8,0.9
	c-0.1,0-0.2,0-0.2,0C59.2,10,59.1,10,59,10c-0.1,0-0.1-0.1-0.2-0.1C58.8,9.8,58.8,9.8,58.7,9.7z"/>
<path class="st4" d="M14,14.7c0.1,0.2,0.2,0.5,0.4,0.7c-0.1,0-0.1,0-0.2,0c0,0,0,0,0,0c-1.9-0.8-3.7-1.5-5.6-2.3
	c-0.1,0-0.2-0.1-0.3-0.1C8,13,7.8,12.8,7.9,12.6c0.1-0.2,0.3-0.2,0.5-0.1c1.4,0.6,2.7,1.1,4.1,1.6c0.4,0.1,0.7,0.1,1.1,0.3
	C13.8,14.5,13.9,14.6,14,14.7z"/>
<path class="st0" d="M64.2,31.3c-0.4-0.1-0.8-0.1-1.1-0.2c-0.3-0.1-0.4,0-0.5,0.2c0,0.2-0.1,0.3-0.1,0.5c-0.1,0.3-0.1,0.6,0.4,0.7
	c0.8,0.2,1.6,0.5,2.4,0.8c0,0.1,0,0.1,0,0.2c-0.7-0.1-1.3-0.3-1.9-0.5c-0.3-0.1-0.4-0.1-0.5,0.3c-0.1,0.4,0,0.8-0.1,1.2
	c0,0.2,0.1,0.1,0.2,0.2c0.4,0.2,0.9,0.3,1.3,0.6c-0.1,0.1-0.2,0.1-0.3,0.1c-0.5-0.1-0.9-0.4-1.4-0.5c-0.2,0-0.3-0.2-0.4,0
	c-0.1,0.1-0.2,0.3,0,0.5c0.1,0.1,0.1,0.4-0.2,0.4c-0.1,0-0.2,0.1-0.2-0.1c0.1,0,0.3-0.1,0.2-0.2c-0.3-0.6,0.3-1,0.4-1.5
	c0-0.1,0.1-0.2,0.2-0.4c0.2-0.4,0.2-0.8-0.4-0.9c-0.1,0-0.2-0.1-0.4-0.2c-0.1-0.1,0-0.2,0.1-0.3c0.2-0.1,0.4,0.2,0.5,0
	c0.1-0.2,0.2-0.5-0.1-0.6c0,0-0.1-0.1,0-0.1c0,0,0.1-0.1,0.1-0.1c0.4,0.1,0.2-0.7,0.7-0.5c0.4,0.1,0.8,0.2,1.2,0.2
	C64.2,31.1,64.3,31.2,64.2,31.3z"/>
<path class="st0" d="M23.8,5c-0.1-0.1-0.2-0.2-0.3-0.4c-0.1-0.1-0.2-0.3-0.3-0.2c-0.2,0.1,0,0.2,0.1,0.3c0,0.1,0.1,0.1,0,0.2
	c-0.3-0.3-0.7-0.2-1-0.5c-0.1-0.2-0.2,0-0.3,0.1c-0.2,0.2-0.3,0.5-0.1,0.8C22,5.6,22.4,5.7,22.4,6c0,0.1,0,0.2-0.1,0.2
	c-0.2-0.3-0.4-0.7-0.7-1c-0.3-0.3-0.1-0.6,0.2-0.9C21.9,4.2,22,4,22.2,4c0.1,0.1,0.1,0.2,0.2,0.2c0.1,0.1,0.1,0.4,0.4,0.3
	c0.2-0.1,0.2-0.2,0.1-0.4c0-0.1,0-0.2,0.1-0.1c0.5,0.3,0.7-0.5,1.2-0.3c0.2,0.1,0.7-0.3,0.7-0.7c0-0.1,0.1-0.1,0.1-0.1
	c0.3,0.2,0.4-0.1,0.6-0.3c0.2-0.2,0-0.3-0.1-0.5c-0.1-0.3-0.3-0.7-0.5-0.9c0-0.2,0-0.3,0.2-0.4c0.4,0.2,0.3,0.7,0.6,1l0,0
	c0.1,0,0.1,0.1,0.1,0.2l0,0c0,0.4,0.3,0.8,0.3,1.2c0,0-0.1,0-0.1,0c-0.3-0.3-0.6,0-0.8,0c-0.1,0,0.1,0.2,0.1,0.3
	c-0.1,0.1-0.1,0.1-0.2,0c-0.1-0.1-0.2-0.1-0.3,0c-0.1,0.1,0,0.2,0,0.3C25,3.8,25,4,25.1,4.1c0,0-0.1,0-0.1,0
	c-0.2-0.1-0.3-0.4-0.5-0.6c-0.2,0.3,0.2,0.3,0.1,0.6c-0.2-0.1-0.4-0.3-0.5,0.1c-0.1,0.2-0.3,0.1-0.5,0.1c-0.1,0.3,0.2,0.3,0.2,0.5
	C23.9,4.9,23.8,5,23.8,5z"/>
<path class="st0" d="M66,22.7c-0.4,0.1-0.7,0.1-1.1,0.2l0,0l0,0l0,0l0,0l0,0c-0.3,0-0.5,0-0.8,0c-0.5,0.1-0.9-0.2-1.3-0.5
	c0.1-0.2,0.2-0.1,0.3-0.1c0.1,0,0.3,0,0.3-0.2c0-0.1-0.1-0.3-0.3-0.2c-0.1,0-0.2,0.1-0.2,0c-0.1-0.2,0.1-0.1,0.2-0.2
	c0.3-0.1,0.3-0.3,0.1-0.5c-0.1-0.1-0.2-0.1-0.1-0.2c0.3-0.4-0.2-0.2-0.2-0.3c-0.1-0.1-0.1-0.1,0-0.2c0.6,0,0.4-0.4,0.2-0.6
	c-0.1-0.2-0.3-0.3-0.3-0.5c0.5-0.1,1-0.2,1.5-0.4c0.1,0.2,0.5-0.1,0.5,0.2c-0.3,0.1-0.6,0.2-0.9,0.2c-0.1,0-0.6,0.1-0.2,0.5
	c0.1,0.1,0.2,0.2,0,0.3c-0.2,0.1-0.3,0.1-0.3,0.3c0.1,0.3,0.3,0,0.5,0.1c0,0.2-0.2,0.1-0.3,0.2c-0.1,0.2,0,0.4,0,0.6
	c0.1,0.2,0.2,0,0.3,0c0.1,0,0.2,0,0.3,0.1c0,0,0,0.1,0,0.1c-0.3,0.1-0.2,0.2-0.1,0.3c0,0.1,0,0.2-0.1,0.3c-0.1,0.1-0.5,0.1-0.4,0.4
	c0.1,0.3,0.4,0.1,0.6,0.1c0.6,0,1.2-0.2,1.9-0.1C66.1,22.6,66,22.6,66,22.7z"/>
<path class="st4" d="M23.9,48c0.1-0.2,0.2-0.4,0.3-0.6c0.1-0.2,0.2-0.5,0.4-0.6c0.2,0.1,0.2,0.3,0.2,0.4c0,0,0,0.1,0,0.1
	c0,0,0,0.1,0,0.1c0,0-0.1,0.1,0,0.1c0,0,0-0.1,0.1-0.1c0-0.1,0.1-0.1,0.2-0.1c0.1,0,0.1,0,0.2,0.1c-0.1,0.3-0.1,0.5-0.4,0.6L23.9,48
	z"/>
<path class="st4" d="M20.3,48c0.1-0.1,0.1-0.1,0.2-0.2c0.4-0.5,0.8-1,1.1-1.6c0.1-0.2,0.3-0.4,0.5-0.5c0.1-0.1,0.3-0.1,0.3,0.1
	c-0.5,0.8-1.1,1.5-1.6,2.2L20.3,48z"/>
<path class="st4" d="M12.2,30.3c-0.5,0.1-0.9,0.2-1.4,0.4c-0.1,0-0.3,0-0.2,0.2c0,0.1,0.2,0.2,0.3,0.2c0.3,0,0.5,0,0.8-0.1l0,0
	c-0.5,0.3-1.1,0.4-1.7,0.5c-0.1,0-0.2,0-0.3,0c-0.2,0.1-0.4,0.2-0.4,0c-0.1-0.2-0.2-0.5,0-0.7c0.4-0.3,0.8-0.4,1.2-0.5
	c0.1,0,0.2,0,0.3,0c0.4-0.8,1.3-0.5,1.9-0.7c0.1,0,0.2-0.1,0.3-0.1c0,0,0.1,0.1,0.1,0.1c0,0.1-0.1,0.2-0.1,0.3c0,0-0.1,0.1-0.1,0.1
	C12.7,30.1,12.4,30.2,12.2,30.3z"/>
<path class="st4" d="M65.9,25c1-0.1,2-0.1,3-0.1c0.6,0,1.2,0.2,1.7,0.2c0.2,0,0.3,0.1,0.4,0.2c-0.2,0.2-0.5,0.1-0.7,0.1
	c-1,0-2,0-3,0c-0.4,0-0.7,0.3-1.1,0.2c-0.5-0.1-1.1,0.1-1.7-0.1c0.1-0.4,0.6-0.3,0.9-0.4C65.5,25,65.7,25.1,65.9,25z"/>
<path class="st4" d="M10.4,24.7c0.1,0.3-0.3,0.3-0.3,0.5c-0.4,0.2-0.9,0.1-1.3,0.1c-0.9,0-1.9,0-2.8,0c-0.2,0-0.5,0-0.4-0.3
	c0-0.3,0.3-0.3,0.5-0.3c1.4,0,2.8,0,4.2,0C10.2,24.6,10.3,24.7,10.4,24.7z"/>
<path class="st0" d="M13,29.4L13,29.4c-0.1-0.4-0.2-0.9-0.2-1.4c0-0.2-0.1-0.3-0.3-0.3c-1.1,0.1-2.1,0.2-3.2,0.3
	c-0.1-0.1-0.1-0.2,0-0.2c1.1-0.1,2.1-0.2,3.2-0.3c0.2,0,0.3-0.1,0.3-0.3c0-0.1,0-0.3,0-0.4c0-0.4-0.2-0.5-0.5-0.5
	c-1,0.1-1.9,0.1-2.9,0.1c-0.1-0.1,0-0.2,0-0.2c0.8,0,1.7-0.1,2.5-0.1c0.5,0,0.9-0.2,1.4,0c0.1,0,0.1,0.1,0,0.1
	c-0.2,0-0.4,0.1-0.3,0.4c0.1,0.3,0.1,0.6,0.1,0.8c0,0.3,0.1,0.5,0.3,0.7c-0.3,0.2-0.3,0.5-0.2,0.8c0,0.1,0.1,0.2,0.1,0.3
	C13.2,29.3,13.1,29.4,13,29.4z"/>
<path class="st0" d="M54.1,5.9c0.5,0.3,0.7-0.2,0.9-0.5c0.2-0.2,0.3-0.5,0.6-0.6c0,0,0.1,0,0.1,0c0,0,0,0.1,0,0.1c0,0,0.2,0,0.2,0
	c0,0-0.2,0.2-0.2,0.2c-0.2,0.3-0.3,0.5-0.5,0.7c-0.3,0.4-0.7,0.7-1,1.1C54,7.2,54,7.4,54.2,7.5c0.3,0.1,0.4,0.3,0.7,0.4
	C55.1,8,55.3,8,55.5,7.8c0.2-0.2,0.4-0.6,0.8-0.5c0,0,0,0,0,0.1c0,0,0,0,0,0c0,0.1-0.1,0.1-0.1,0.2c-0.1,0.2-0.3,0.3-0.4,0.5
	c-0.2,0.2-0.3,0.6-0.7,0.4c-0.1,0-0.3,0.2-0.5,0.3c0.4-0.5,0.1-0.9-0.3-1c-0.2-0.1-0.4-0.2-0.6-0.3c-0.5-0.2-0.1-0.5-0.1-0.5
	c0.3-0.2,0.3-0.5,0.1-0.8c0,0,0,0,0-0.1c0,0,0-0.1,0-0.1C53.9,6,54,5.9,54.1,5.9z"/>
<path class="st0" d="M38.1,0c0,0.3,0,0.5,0,0.8c0,0.2,0,0.4,0.3,0.4c0.9,0.1,1.9,0,2.8,0.2c0.1,0,0.2,0,0.3-0.1c0,0,0.1,0,0.1,0.1
	c0,0.6-0.6,0.3-0.7,0.2c-0.6-0.2-0.8,0-0.8,0.6c0,0.1-0.1,0.2-0.1,0.3c0,0.2-0.2,0.1-0.3,0.1c-0.2,0-0.1-0.1-0.1-0.2
	c-0.1-0.2,0.1-0.5,0-0.7c0-0.1,0.1-0.4-0.2-0.3c-0.2,0-0.4,0-0.5,0.3c0,0.2,0.2,0.5-0.2,0.5c-0.2,0-0.1-0.4-0.1-0.5
	c0-0.4-0.2-0.4-0.4-0.4C38.1,1.4,38,1.3,38,1c0-0.3,0-0.7,0-1L38.1,0z"/>
<path class="st0" d="M65.9,25c-0.3,0.2-0.7,0.2-1,0.3c-0.1,0-0.3,0-0.3,0.2c-0.2,0.1-0.5-0.1-0.7,0.1c0,0-0.1,0-0.1,0
	c-0.1,0.1-0.1,0.2-0.2,0.2c-0.1,0.1-0.1,0.1-0.2,0c-0.1,0-0.2-0.1-0.3-0.1c0,0-0.1-0.1-0.1-0.1c-0.1-0.2,0-0.3,0.1-0.4
	c0.1,0,0.3,0,0.3-0.1c0.1-0.1-0.1-0.2-0.2-0.3c-0.3-0.3-0.4-0.8-1-0.8c0,0,0-0.1,0-0.1c0.2-0.1,0.4-0.1,0.4-0.5
	c0-0.4,0.5-0.5,0.8-0.5c0.2,0,0.4,0,0.6,0c0,0.1,0,0.1,0,0.2c-0.2,0.1-0.4,0.1-0.6,0.1c-0.2,0-0.5,0-0.4,0.3c0,0.2,0.3,0.2,0.5,0.2
	c0.2,0,0.5-0.1,0.7,0c0,0.1-0.1,0.1,0,0.1c-0.1,0.1-0.2,0.1-0.3,0.1c-0.3-0.1-0.6,0-0.8,0.3c-0.1,0-0.1,0-0.1,0.1
	c0.3,0.1,0.6,0.2,0.5,0.6c0.1,0.2,0.2,0.2,0.3,0.1C64.6,24.9,65.2,25,65.9,25z"/>
<path class="st4" d="M64.6,19.1c-0.1-0.2-0.4,0-0.5-0.2c1.6-0.4,3.1-0.8,4.7-1.1c0.4-0.1,0.7-0.1,1.1-0.3c0.2-0.1,0.3-0.1,0.4,0.1
	c0,0.2-0.1,0.3-0.3,0.3c-1,0.1-1.9,0.4-2.8,0.6C66.2,18.7,65.4,19,64.6,19.1z"/>
<path class="st4" d="M64.7,30.3c-0.3-0.3-0.7-0.2-1-0.4c0.2-0.3,0.5-0.1,0.8,0c0.3,0,0-0.1,0-0.1c0-0.1,0.1-0.1,0.2-0.1
	c0.8-0.1,1.5,0.1,2.3,0.3c1,0.2,2.1,0.4,3.1,0.6c0.1,0,0.3,0,0.3,0.2c0,0.2-0.2,0.1-0.3,0c-0.8-0.2-1.7-0.3-2.5-0.5
	c-0.2,0-0.3,0-0.2,0.2c0,0,0,0.1-0.1,0.1c0,0-0.1,0-0.1,0l0,0l0,0l0,0c-0.2-0.2-0.4-0.1-0.6-0.1C65.9,30.4,65.3,30.1,64.7,30.3
	L64.7,30.3z"/>
<path class="st0" d="M20,41.9c0.1-0.2,0.2-0.3,0.4-0.5c0.2-0.2,0.5-0.3,0.6-0.1c0.3,0.5,0.5,0.1,0.8-0.1c0.3-0.3,0.5-0.6,1-0.8
	c-1,1.4-1.9,2.8-3.3,3.7c0.1-0.4,0.3-0.6,0.6-0.8c0.4-0.3,0.6-0.6,1-1c0.1-0.1,0.1-0.2,0-0.4c-0.1-0.1-0.2-0.1-0.3,0
	c-0.1,0.1-0.3,0.2-0.4,0.4c-0.2,0.1-0.3,0-0.4-0.1c0-0.3,0.3-0.3,0.4-0.4c0.1-0.1,0-0.1,0.1-0.1c-0.1,0.1-0.2,0.2-0.4,0.2
	C20,42,20,42,20,41.9C20,41.9,20,41.9,20,41.9z"/>
<path class="st0" d="M64.8,29.6c-0.1,0-0.1,0.1-0.2,0.1c-0.3,0.3-0.8,0-1.1,0.1c-0.2,0.1-0.4,0-0.5-0.3c0-0.3-0.2-0.4-0.5-0.4
	c-0.1,0-0.1-0.1,0-0.2c0.2,0,0.4,0.1,0.4-0.3c0-0.4,0.1-0.8,0.2-1.2c0.1-0.3-0.1-0.4-0.3-0.4c0,0-0.1-0.1,0-0.1c0.2,0,0.3,0,0.5-0.1
	c0-0.2-0.3-0.2-0.4-0.4c0-0.1,0-0.1,0-0.2c0.1,0,0.2,0,0.3,0c0.1,0,0.2,0,0.2,0.1c0.3,0.1,0.3,0.4,0.6,0.7c-0.5,0.1-0.6,0.2-0.4,0.7
	c0.1,0.2,0,0.7-0.2,0.9c-0.3,0.4,0,0.5,0.2,0.5C64,29.4,64.4,29.5,64.8,29.6z"/>
<path class="st4" d="M12.3,35.3c0.5,0.1,0.9-0.2,1.3-0.3c0.2,0,0.4-0.1,0.6-0.1c-0.9,0.4-1.7,0.8-2.6,1.1c-0.4,0.2-0.8,0.3-1.3,0.5
	c-0.5,0.3-1.1,0.1-1.6,0.4c-0.3,0.1-0.5,0.4-0.9,0.2c0.3-0.4,0.8-0.4,1.1-0.6c0.8-0.4,1.7-0.7,2.6-1C11.8,35.4,12.1,35.5,12.3,35.3z
	"/>
<path class="st0" d="M55.9,8.2c-0.1-0.1-0.4-0.1-0.1-0.3c0.2-0.1,0.2-0.2,0.4-0.3c0-0.1,0.2-0.1,0.2-0.2l0,0
	c0.1-0.1,0.1-0.2,0.1-0.3l0,0c0.2,0.2,0.6,0.2,0.6,0.6c0.2-0.1,0.3-0.3,0.4-0.4c0.1,0,0.1,0.1,0.1,0.2c-0.1,0.2-0.4,0.3-0.2,0.6
	c0.1,0.2,0.2,0.6,0.6,0.4c0,0,0,0,0,0c0.2,0,0.3-0.1,0.5-0.3c0.1-0.1,0.1-0.1,0.2-0.1c0.5-0.2,0.8-0.8,1.3-1c0.1,0,0.1,0.1,0.1,0.2
	c-0.3,0.3-0.8,0.5-1.1,0.9c-0.2,0.2-0.6,0.3-0.4,0.8l0,0c-0.3,0.2-0.6,0.1-0.9,0.3c-0.1,0.1-0.2-0.1-0.2-0.2
	c0.3-0.6-0.5-0.6-0.5-1.1c0-0.1-0.1,0-0.2,0.1c-0.1,0.1-0.2,0.2-0.4,0.3c-0.1-0.1-0.1-0.1,0-0.2c0.1-0.2,0.3-0.4,0.3-0.7
	C56.4,7.7,56.2,8,55.9,8.2z"/>
<path class="st4" d="M64.2,31.3c0-0.1-0.1-0.2-0.1-0.3c0-0.1,0-0.1-0.1-0.2c0-0.1,0-0.3-0.1-0.4c-0.1-0.1-0.1-0.2,0.1-0.2
	c0.3,0.1,0.5,0,0.8,0l0,0c0.4,0.3,0.8,0.2,1.3,0.3c0.9,0.2,1.7,0.4,2.6,0.6c-1.4-0.1-2.7-0.5-4.1-0.7c0.2,0.6,0.6,1,1.2,1
	c0.1,0,0.3,0,0.4,0.3C65.4,31.8,64.8,31.6,64.2,31.3z"/>
<path class="st4" d="M28.1,0c0.1,0.2,0.2,0.3,0.2,0.5c0.2,0.3,0.1,0.6,0.4,0.9C29,1.5,29,1.7,29,2c-0.2-0.1-0.5-0.2-0.5-0.5
	c-0.1-0.5-0.3-1-0.5-1.5H28.1z"/>
<path class="st4" d="M15,40.9c0.1,0.1,0.1,0.1,0.2,0.2c-0.2,0.5-0.8,0.7-1.2,0.9c-0.7,0.5-1.4,1-2.1,1.5c-0.1,0.1-0.2,0.1-0.3,0.2
	c-0.1,0.1-0.2,0.1-0.3,0c-0.1-0.2,0-0.3,0.1-0.3C12.6,42.5,13.7,41.7,15,40.9C14.9,40.9,15,40.9,15,40.9z"/>
<path class="st0" d="M14.6,30.8C14.7,30.8,14.7,30.8,14.6,30.8c0.2-0.2,0.6,0,0.5-0.3c-0.1-0.4-0.4,0-0.6,0
	c-0.1-0.1-0.1-0.1-0.1-0.2c0.2-0.1,0.4-0.1,0.6-0.1c0.2-0.1,0.5-0.2,0.4,0.3c0,0.2,0.2,0.4,0.5,0.4c-0.1,0.2-0.4,0.3-0.3,0.6
	c0.1,0.2-0.2,0.2-0.3,0.3c-1.1,0.4-2.1,0.7-3.3,0.9c-0.1-0.1-0.1-0.1,0-0.2c0.5-0.3,1.1-0.3,1.7-0.5c0.4-0.1,0.8-0.2,1.3-0.4
	c0.2,0,0.3-0.1,0.3-0.3C15.2,30.8,15,31,14.9,31c0,0-0.1,0-0.2,0C14.7,30.9,14.6,30.9,14.6,30.8z"/>
<path class="st0" d="M58.9,9.8c0.1,0,0.1,0.1,0.2,0.1c0.1,0.1,0.2,0.1,0.3,0c0.1,0,0.1,0.1,0.2,0.1c-0.1,0.2-0.3,0.2-0.4,0.3
	c-0.2,0.3-0.1,0.4,0.1,0.6c0.3,0.2,1.6-0.4,1.9-0.6c0,0.4-1.6,0.9-1.3,1.3c0.1,0.2,0.4,0,0.6,0c0,0,0.1,0,0.1,0
	c-0.1,0.2-0.5,0.1-0.5,0.4c0,0.1,0.2,0,0.2,0.2c-0.2,0.1-0.3,0.5-0.5,0c-0.1-0.2-0.3-0.5-0.7-0.3c-0.2,0.1-0.5,0.2-0.7,0.3
	c-0.1,0-0.2-0.1-0.1-0.2c0.2-0.2,0.4-0.3,0.6-0.5c0.2-0.1,0.3-0.3,0.2-0.6c-0.2-0.3-0.4-0.2-0.6-0.1c0.1-0.3,0.4-0.5,0.3-0.8
	C58.4,10,58.5,10,58.9,9.8z"/>
<path class="st0" d="M42,0c-0.2,0.1-0.3,0.4-0.3,1c0,0.1,0,0.3-0.1,0.4c0,0-0.1,0-0.1-0.1c0.1-0.4,0.1-0.8,0.2-1.3L42,0z"/>
<path class="st0" d="M43.4,0c0.2,0,0.3,0.1,0.5,0c0.3,0,0.4,0.2,0.4,0.5c-0.2-0.1-0.4-0.3-0.7-0.1c-0.1,0.1-0.2-0.1-0.2-0.2
	c0-0.2-0.2-0.2-0.3-0.2C43,0,42.9,0,42.8,0L43.4,0z"/>
<path class="st0" d="M22.3,6.2c0-0.1,0-0.2,0.1-0.2c0.2,0.3,0.5,0.5,0.6,0.8c0.1,0.5-0.4,0.4-0.6,0.6C22,8,21.4,8.4,21,8.9
	c-0.2,0.3-0.5,0.5-0.8,0.8c-0.2,0.2-0.3,0.1-0.4,0c-0.2-0.2-0.4-0.2-0.5-0.5c0.1-0.1,0.1-0.1,0.2,0c0.1,0.1,0.2,0.1,0.3,0.2
	c0.3,0.3,0.4,0.2,0.5-0.1c0-0.2,0.3-0.2,0.4-0.3c0.5-0.4,0.9-0.9,1.4-1.4c0.2-0.2,0.1-0.3,0-0.4c-0.3-0.3-0.5-0.6-0.8-0.9
	c0-0.1,0-0.1,0.1-0.1C21.7,6.4,22,6.7,22.3,7c0.1,0.1,0.2,0.2,0.3,0.1c0.1-0.1,0.2-0.2,0.1-0.4C22.6,6.5,22.5,6.4,22.3,6.2z"/>
<path class="st4" d="M56.9,3.2c0.4-0.7,1-1.3,1.5-1.9c0.2-0.2,0.3-0.4,0.5-0.5c0.1,0.1,0.1,0.1,0,0.2c0,0,0,0,0,0
	c0.1-0.2,0.2-0.4,0.4-0.5c0.1-0.1,0.2-0.2,0.3,0.1c-0.8,1-1.7,1.9-2.5,2.9C57,3.5,57.1,3.2,56.9,3.2z"/>
<path class="st0" d="M13,29.4c0.1,0,0.1-0.1,0.2-0.1c0.1,0,0.1,0,0.2,0c0,0,0.1,0,0.1,0c0.4-0.1,0.9-0.3,1.3-0.3
	c0.1,0,0.4-0.1,0.3,0.2c0,0.2,0.1,0.4-0.3,0.5c-0.3,0-0.6,0.1-0.9,0.2c-0.6,0.1-1.1,0.6-1.7,0.5c0.1-0.3,0.5-0.2,0.6-0.5
	c0.1,0,0.2,0,0.3,0c-0.1,0-0.2,0.1-0.3,0C13,29.6,13,29.5,13,29.4z"/>
<path class="st4" d="M14.5,12.8c0,0-0.1,0.1-0.1,0.1c-0.6-0.1-1.1-0.4-1.5-0.7c-1-0.6-2-1-3.1-1.6c-0.2-0.1-0.3-0.3-0.5-0.3
	c-0.1,0-0.3,0-0.2-0.2c0.1-0.1,0.2,0,0.3,0c0.5,0.2,0.9,0.5,1.3,0.7C12,11.6,13.3,12.1,14.5,12.8z"/>
<path class="st0" d="M52.9,3.6c-0.1,0.1-0.1,0.2-0.2,0.2c-0.1,0-0.1,0-0.1,0c0-0.1,0-0.2,0-0.2c-0.1-0.1-0.2,0-0.2,0.1
	C52.2,4,52,3.9,51.8,3.6c-0.2-0.3-0.6-0.3-0.7-0.6l0,0c0.2,0,0.3-0.2,0.4-0.2c0,0.1,0,0.1,0,0.1c-0.1,0.3,0.1,0.4,0.3,0.4
	C52,3.4,52,3.2,52.1,3.1c0.6-0.9,1.1-1.8,1.8-2.7l0,0l0,0c-0.1,0.5-0.6,0.9-0.7,1.4c0,0,0,0,0,0.1c0,0.1-0.1,0.2-0.1,0.2
	c0,0,0,0.1-0.1,0.1c-0.1,0.1-0.1,0.1-0.2,0.2c0,0,0,0.1-0.1,0.1c-0.1,0.2-0.2,0.1-0.2,0.2c0,0-0.2,0.4,0,0.4c0,0,0,0,0,0
	c0.1,0,0.1,0,0.2,0.1c0.1,0.1,0.1,0.2,0.1,0.2C53,3.5,53,3.6,52.9,3.6z"/>
<path class="st4" d="M13.3,32.5c-0.3,0.5-0.8,0.4-1.1,0.5c-1.6,0.5-3.2,0.8-4.7,1.5c-0.1,0.1-0.4,0.1-0.4,0
	c-0.1-0.2,0.2-0.2,0.3-0.2c1-0.3,2.1-0.7,3.1-1C11.4,33,12.3,32.7,13.3,32.5z"/>
<path class="st4" d="M11.4,32.7c-0.7,0.3-1.5,0.5-2.3,0.8c-0.6,0.2-1.3,0.4-1.9,0.6C7,34,6.8,34.1,6.8,33.9c0-0.2,0.2-0.2,0.3-0.2
	c1.4-0.5,2.9-0.9,4.4-1.3C11.5,32.5,11.4,32.6,11.4,32.7z"/>
<path class="st4" d="M63.2,17.8c0.7,0.1,1.3-0.4,1.9-0.5c0.5-0.1,0.9-0.3,1.4-0.2c-1.4,0.7-2.8,1.1-4.3,1.4c-0.1-0.2,0-0.3,0.2-0.5
	C62.6,17.9,62.9,18,63.2,17.8z"/>
<path class="st0" d="M54.6,42.6c0.4,0.1,0.6,0.4,0.8,0.7c0.1,0.1,0.1,0.2,0.2,0.2c0.1,0,0-0.2,0-0.2c0.4-0.7-0.5-0.8-0.6-1.3
	c0,0,0-0.1,0.1-0.1c0.4,0.3,0.7,0.8,1.1,1.2c0.1,0.1,0.1,0.2,0.1,0.2c-0.5,0.1-0.5,0.8-1,1c0,0-0.1,0.1-0.1,0.1c0,0,0,0,0,0
	c-0.2,0.1-0.4,0.4-0.6,0c0.6-0.5,0.5-1.1,0-1.6C54.6,42.6,54.6,42.6,54.6,42.6L54.6,42.6z"/>
<path class="st4" d="M62.2,9.6c1.1-0.7,2.3-1.5,3.4-2.2c0.1-0.1,0.2-0.2,0.3,0c0.1,0.2,0,0.2-0.2,0.3c-0.4,0.3-0.9,0.6-1.3,0.8
	c-0.7,0.4-1.2,0.9-2,1.1C62.3,9.7,62.2,9.8,62.2,9.6z"/>
<path class="st4" d="M9.3,26.2c0.2,0.1,0,0.2,0,0.2c-0.2,0.1-0.4,0.1-0.6,0.1c-0.9-0.1-1.8,0.1-2.7,0.1c-0.1,0-0.3,0.1-0.4-0.2
	C6.8,26.3,8.1,26.1,9.3,26.2z"/>
<path class="st4" d="M9.3,24c0,0.1,0,0.1,0,0.2c-1.3,0.1-2.5,0-3.7-0.2c0.7-0.2,1.5-0.1,2.2-0.1C8.3,23.9,8.8,23.8,9.3,24z"/>
<path class="st0" d="M60,36.2c0,0.1,0,0.1,0,0.2c-0.2,0,0.3,0.2,0.2,0.1c0.1,0.1-0.2-0.1-0.1,0.1c0,0.3-0.2,0.2-0.3,0.2
	c-0.7-0.4-1.4-0.8-2-1.2c-0.1-0.1-0.3-0.1-0.2-0.3c0.1-0.2,0.3-0.1,0.4,0c0.3,0.1,0.5,0.3,0.8,0.4c0.2,0.1,0.4,0.5,0.5,0
	c0-0.1,0.2,0,0.3,0C59.6,36,59.9,36,60,36.2z"/>
<path class="st4" d="M63,10.2c0.2-0.4,0.6-0.5,1-0.7c0.8-0.5,1.5-1,2.4-1.4C66.2,8.5,63.7,10,63,10.2L63,10.2L63,10.2z"/>
<path class="st0" d="M62.5,19.2c0.2,0.1,0.3,0.3,0.3,0.5c-0.1,0-0.1,0-0.2,0l0,0l0,0c-0.6,0.4-1.2-0.1-1.9,0c-0.3,0.1-0.6,0.3-1.1,0
	C60.7,19.7,61.6,19.3,62.5,19.2z"/>
<path class="st0" d="M62.4,18.1c-0.1,0.1-0.1,0.3-0.2,0.4c-0.8,0.3-1.7,0.5-2.6,0.7c0.4-0.2,0.8-0.3,1.1-0.6c0.4-0.4,1-0.6,1.6-0.6
	C62.4,18,62.4,18,62.4,18.1z"/>
<path class="st4" d="M65.2,35.7c1,0.4,2,0.7,3,1.1c0.1,0,0.1,0,0.2,0.1c0.1,0.1,0.3,0,0.2,0.2c-0.1,0.2-0.2,0.1-0.4,0.1
	c-0.5-0.2-1-0.4-1.5-0.7c-0.5-0.2-1.1-0.3-1.5-0.7C65.1,35.8,65.1,35.8,65.2,35.7z"/>
<path class="st4" d="M9.3,27.8c0,0.1,0,0.2,0,0.2c-1.1,0.2-2.2,0.2-3.3,0.4c-0.1,0-0.2,0-0.3-0.1c0-0.1,0.1-0.2,0.2-0.2
	c0.5-0.1,1-0.1,1.4-0.2C8,27.9,8.7,27.9,9.3,27.8z"/>
<path class="st0" d="M24.8,47.4c0-0.2-0.1-0.4-0.1-0.6c0-0.2-0.1-0.3-0.2-0.3c0-0.2,0.2-0.3,0.3-0.4c0-0.2,0.2-0.3,0.3-0.4
	c0.2-0.1,0.2,0.1,0.2,0.2c0,0.1-0.1,0.3,0,0.4c0,0,0,0.1,0,0.1c0.1,0.7,0.1,0.7,0.9,0.5c0,0,0,0,0.1,0c-0.1,0.4-0.3,0.5-0.7,0.3
	c-0.2-0.1-0.3,0-0.5,0.1c-0.1,0-0.1,0-0.2,0c-0.1,0-0.1-0.1-0.1-0.1l0,0c0,0,0,0,0,0C24.9,47.3,24.8,47.4,24.8,47.4z"/>
<path class="st4" d="M60.2,7.4c0-0.1,0-0.1-0.1-0.2c0.7-0.7,1.4-1.2,2.1-1.8c0.1-0.1,0.2-0.1,0.3-0.2c0.1-0.1,0.2-0.4,0.4-0.2
	c0.1,0.2-0.1,0.3-0.2,0.3C61.9,6.1,61.1,6.8,60.2,7.4z"/>
<path class="st0" d="M54.1,44.2c0,0,0.1,0.1,0.1,0.1c0.1,0.1,0.4,0.2,0.3,0.4c-0.2,0.5-0.7,0.6-1.1,1c-0.3,0.3-0.4,0.5-0.1,0.9
	c0.2,0.2,0.4,0.4,0.5,0.7c-0.1,0.1-0.1,0.1-0.2,0c-0.2-0.3-0.4-0.7-0.7-1c-0.1-0.1-0.3-0.3-0.1-0.4c0.4-0.3,0.6-0.9,1.2-1
	c0.1,0,0.3-0.1,0.1-0.2c-0.2-0.1,0-0.3-0.1-0.5C54,44.1,54,44.1,54.1,44.2z"/>
<path class="st0" d="M54.1,5.9C54,6,54,6,54,6.1c0,0.1,0,0.1-0.1,0.2l0,0c-0.6-0.1-0.2-0.5-0.2-0.7c0-0.3,0.2-0.7-0.2-0.9
	c-0.3-0.2-0.6-0.4-0.9,0.1c0.1-0.3-0.3-0.6,0.1-0.9c0,0,0,0,0.1,0c0.4,0.3,0.8,0.6,1.2,0.9c0.3,0.2,0.3,0.4,0.1,0.6
	C53.8,5.5,53.9,5.7,54.1,5.9z"/>
<path class="st4" d="M54.3,0c-0.1,0.1-0.2,0.3-0.3,0.4c0,0,0,0-0.1,0C53.9,0.2,54,0.1,54,0L54.3,0z"/>
<path class="st0" d="M22.5,45.8c-0.1,0-0.2-0.1-0.3-0.1c0.1-0.3,0.4-0.5,0.2-0.8c-0.1-0.2-0.4-0.3-0.6-0.3c-0.1,0-0.4,0.1-0.4-0.2
	c0-0.1-0.1-0.3,0-0.4c0.2-0.1,0.4,0,0.5,0c0.3,0.1,0.5,0.3,0.8,0.4c0.1,0,0.2,0.5,0.1,0.7C22.6,45.4,22.6,45.6,22.5,45.8z"/>
<path class="st0" d="M50.5,47.7c-0.4-0.4,0.1-0.7,0-1.1c0-0.1,0.1-0.1,0.2-0.1c0.2,0,0.3,0.1,0.5-0.1c0.2-0.2,0.3,0.2,0.4,0.4
	c0,0.1,0,0.1,0,0.2c-0.1,0-0.1,0-0.2-0.1c-0.1,0.4-0.7,0.4-0.7,0.9C50.7,47.9,50.6,48,50.5,47.7z"/>
<path class="st4" d="M19.2,3.8c-0.9-0.8-1.7-1.7-2.3-2.6c0.9,0.7,1.6,1.6,2.4,2.4C19.4,3.7,19.4,3.8,19.2,3.8z"/>
<path class="st4" d="M23.1,48c0.1-0.1,0.1-0.2,0.2-0.3c0,0,0,0,0,0c0,0,0,0,0,0c0.3-0.3,0.5-0.7,0.7-1.1c0.1-0.2,0.2-0.3,0.5-0.2
	c0.2,0,0.3-0.2,0.3-0.4c-0.3,0-0.4-0.1-0.4-0.4c0-0.2-0.1-0.2-0.3-0.2c-0.2,0-0.3,0.2-0.5,0.1c-0.1,0-0.2,0-0.2,0.2
	c0,0.1,0,0.3,0,0.3c0.1,0.1,0.2-0.1,0.3-0.1c0.1-0.1,0.2,0,0.2,0.1c0.1,0,0.1-0.1,0.1-0.1c0,0.1,0,0.1,0,0.2c0,0,0,0.1,0,0.1
	c-0.3,0.4-0.7,0.8-0.9,1.3c0,0,0,0,0,0c0,0,0,0,0,0c-0.2,0.1-0.2,0.2-0.3,0.4H23.1z"/>
<path class="st4" d="M13.1,10.4c-0.5,0-0.8-0.4-1.2-0.6c-0.7-0.4-1.4-0.8-2-1.3C11,9,12.1,9.6,13.1,10.4
	C13.1,10.4,13.1,10.4,13.1,10.4z"/>
<path class="st0" d="M62.4,18.1c-0.1,0-0.1-0.1-0.2-0.1c0.4-0.2,0.3-0.5-0.1-0.8c-0.1,0-0.2,0-0.2-0.1c0-0.2,0.4-0.1,0.3-0.3
	c-0.1-0.3-0.2-0.1-0.4-0.1c-0.1,0-0.1-0.1-0.2-0.2c0-0.1,0.1-0.1,0.1-0.1c0.4-0.3,0.6-0.3,0.7,0.3c0,0.3,0.3,0.6,0.3,0.9
	c0,0.2,0.2,0.2,0.4,0.2C63,18.1,62.7,18.1,62.4,18.1z"/>
<path class="st4" d="M19.3,44.3c-0.1,0.3-0.3,0.5-0.6,0.7c-0.5,0.4-0.9,0.9-1.3,1.3c-0.1,0.1-0.2,0.2-0.3,0.1c-0.1-0.1,0-0.2,0-0.2
	c0.6-0.6,1.2-1.2,1.8-1.9C19.1,44.4,19.2,44.4,19.3,44.3L19.3,44.3L19.3,44.3z"/>
<path class="st0" d="M49.1,48c-0.1-0.3-0.3-0.5-0.4-0.7c-0.1-0.2-0.2-0.4-0.3-0.7c0-0.1-0.1-0.2,0-0.3c0.2,0.5,0.5,1,0.7,1.4
	c0,0.1,0.1,0.2,0.1,0.3L49.1,48z"/>
<path class="st0" d="M49.7,48C49.8,48,49.8,48,49.7,48c0.1-0.1,0.1,0,0.1,0L49.7,48z"/>
<path class="st4" d="M22.2,4c-0.1,0.2-0.2,0.3-0.5,0.4l0,0c0,0,0,0,0,0c-0.1-0.2-0.3-0.3-0.2-0.6c0.1-0.1-0.1-0.2-0.2-0.2
	c-0.3-0.3-0.5-0.6-0.6-1C21.3,2.9,21.7,3.5,22.2,4z"/>
<path class="st4" d="M50.1,48c0.1-0.2,0.1-0.4,0.4-0.3c0.1,0.1,0.2,0.1,0.3,0.1c0,0.1,0,0.1,0.1,0.2H50.1z"/>
<path class="st4" d="M10.9,20.5c0,0-0.1,0.1-0.1,0.1c-0.8,0-1.7-0.1-2.5-0.4c0.3-0.3,0.6-0.1,0.8,0C9.7,20.3,10.4,20.2,10.9,20.5z"
	/>
<path class="st0" d="M25.4,46.3c-0.2,0.1-0.2-0.1-0.2-0.2c0-0.1,0.2-0.3,0-0.4c0.1-0.6,0.6-0.8,1.1-1C26.1,45.3,25.7,45.8,25.4,46.3
	z"/>
<path class="st0" d="M13,25.1c0-0.1-0.1-0.2,0.1-0.3c0.1,0.1,0.2,0.2,0.3,0.1c0.8-0.1,1.7,0.1,2.5,0c0.1,0,0.2,0,0.2,0.2
	C15.1,25.2,14.1,25.2,13,25.1z"/>
<path class="st0" d="M19.4,40.8c0.1,0.2,0.3,0.3,0.5,0.3c-0.2,0.5-0.9,0.5-1.2,0.9c-0.1,0.1-0.2,0.1-0.2-0.1c0-0.2-0.1-0.4,0.1-0.5
	C18.8,41.3,19.1,41.1,19.4,40.8z"/>
<path class="st4" d="M66.6,22.5c0.7-0.2,1.4-0.2,2.2-0.2c0.1,0,0.2,0,0.2,0.1c0,0.2-0.2,0.1-0.3,0.1c-0.8,0.1-1.6,0.2-2.4,0.1
	C66.3,22.4,66.4,22.5,66.6,22.5z"/>
<path class="st0" d="M63,25.3c0,0.1,0,0.3-0.1,0.4c0,0-0.1,0.1-0.1,0c-0.6,0-1.2,0.2-1.8-0.3C61.8,25.2,62.4,25.3,63,25.3z"/>
<path class="st0" d="M55.5,4.8c0.4-0.5,0.7-0.9,1.1-1.4c0.1,0,0.1,0,0.2,0.1c0,0.1,0,0.1,0.1,0.2c0,0.1,0,0.2,0,0.2
	c-0.3,0.4-0.7,0.8-1.1,1.1c0,0,0,0-0.1,0C55.6,4.9,55.6,4.9,55.5,4.8C55.5,4.8,55.5,4.8,55.5,4.8z"/>
<path class="st4" d="M56.5,7.1L56.5,7.1c-0.1-0.1,0-0.2,0-0.3c0.6-0.5,1.1-1.1,1.7-1.6C57.8,5.9,57.2,6.6,56.5,7.1z"/>
<path class="st0" d="M20,41.9C20,41.9,20,41.9,20,41.9c0.2,0.2-0.2,0.3,0,0.4c0.1,0.1,0.2,0.1,0.3,0.2c-0.2,0.3-0.4,0.6-0.8,0.2
	c0,0-0.2,0-0.2,0c-0.1,0-0.3,0-0.3-0.2c0-0.1,0.2-0.3,0.3-0.3C19.6,42.3,19.8,41.9,20,41.9z"/>
<path class="st0" d="M45.5,48c0-0.2,0.1-0.4,0.2-0.6c0.2,0.2,0.3,0.4,0.4,0.6L45.5,48z"/>
<path class="st4" d="M63,10.2C63,10.2,63,10.2,63,10.2c-0.2,0.5-0.6,0.5-0.9,0.7c-0.5,0.3-0.9,0.7-1.4,0.8c0,0,0,0,0-0.1
	c0,0,0,0,0,0C61.3,11,62.1,10.5,63,10.2z"/>
<path class="st4" d="M62.2,9.6c0.1,0,0.1,0.1,0.2,0.1c-0.6,0.5-1.3,0.9-2.1,1.3C60.8,10.3,61.6,10,62.2,9.6z"/>
<path class="st0" d="M58.9,9.8c-0.1,0.1-0.4,0.2-0.3,0.5c-0.2,0.1-0.5,0.2-0.6,0.4c-0.1,0.2-0.4,0.1-0.6,0c0.3-0.5,0.9-0.7,1.3-1.1
	C58.8,9.7,58.8,9.8,58.9,9.8z"/>
<path class="st0" d="M14.7,18.2c0,0,0.1-0.1,0.1-0.1c0.1,0,0.3,0.1,0.4,0.1c0,0,0.1,0,0.1,0c0,0,0.1,0,0.1,0.1
	c0.1,0.1,0.3,0,0.2,0.2c0,0.2-0.3,0-0.3,0.1c0,0.2,0.3,0.1,0.3,0.3c-0.5,0.1-0.8-0.1-1.2-0.3c0-0.1,0-0.1,0.1-0.2
	c0.1-0.1-0.5-0.2-0.2-0.1C14.2,18.3,14.6,18.4,14.7,18.2z"/>
<path class="st0" d="M14.5,30.2c0,0.1,0.1,0.1,0.1,0.2c-0.8,0.2-1.6,0.3-2.4,0.5c-0.2,0-0.3,0.1-0.5,0l0,0
	C12.6,30.6,13.5,30.5,14.5,30.2z"/>
<path class="st0" d="M54.5,42.5c-0.5-0.4-0.7-0.9-1.2-1.3c-0.1-0.1-0.2-0.2-0.1-0.3c0.1-0.1,0.2,0.1,0.2,0.1
	c0.3,0.5,0.9,0.8,1.2,1.4C54.5,42.5,54.5,42.5,54.5,42.5z"/>
<path class="st0" d="M47.7,2.4c0.1,0,0.1,0,0.2,0c-0.3,0.7-0.5,1.4-0.8,2c0,0-0.1,0-0.1,0C47.1,3.7,47.4,3.1,47.7,2.4z"/>
<path class="st0" d="M49.2,1.9c0.1,0,0.1,0,0.2,0c0.1,0,0.1,0,0.2,0c0.1,0.6,0.4,0.1,0.5,0.1c0.3,0.6-0.3,0.8-0.4,1.2
	c-0.1,0.1-0.2,0.1-0.2-0.1c0-0.1,0.1-0.1,0.1-0.2c0.2-0.3,0.4-0.6-0.2-0.7C49.3,2.1,49.2,2,49.2,1.9C49.2,2,49.1,1.9,49.2,1.9
	C49.2,1.9,49.2,1.9,49.2,1.9z"/>
<path class="st4" d="M12.4,31.6c-0.5,0.1-0.9,0.2-1.4,0.3c-0.1,0-0.2,0-0.2-0.1c0-0.1,0-0.1,0.1-0.1c0.5-0.1,1-0.4,1.5-0.3
	C12.4,31.5,12.4,31.6,12.4,31.6z"/>
<path class="st4" d="M64.2,23.8c-0.1-0.1,0-0.1,0-0.1c0.4-0.2,0.8-0.1,1.3-0.1c0.1,0,0.2,0,0.2,0.1c0,0.1-0.1,0.1-0.2,0.1
	C65.1,23.9,64.6,24,64.2,23.8z"/>
<path class="st4" d="M64.1,23.2c0-0.1,0-0.1,0-0.2c0.2-0.1,0.5,0,0.6-0.2l0,0c0,0,0.1,0,0.2,0l0,0c0.1,0.2,0.3,0.1,0.4,0.1
	c0.1,0,0.2,0,0.2,0.2c0,0.2-0.1,0.1-0.2,0.1C64.9,23.2,64.5,23.4,64.1,23.2z"/>
<path class="st4" d="M67.7,34.2c0.1,0,0.1,0,0.2-0.1c0.6,0,1,0.3,1.5,0.5C68.8,34.7,68.2,34.5,67.7,34.2z"/>
<path class="st4" d="M53.8,1.8c0.4,0,0.4-0.5,0.7-0.7c0.2-0.2,0.3-0.6,0.5-0.5c0.2,0.2-0.1,0.4-0.2,0.6c-0.2,0.3-0.4,0.6-0.6,0.9
	c-0.1,0.1-0.2,0-0.3-0.1C53.7,2,53.7,1.9,53.8,1.8C53.8,1.8,53.8,1.8,53.8,1.8z"/>
<path class="st0" d="M13.5,32.6c0.7-0.5,1.5-0.7,2.3-0.7C15.1,32.1,14.3,32.3,13.5,32.6z"/>
<path class="st0" d="M27.4,46.5c0-0.1,0-0.1,0-0.2c0-0.5,0.4-0.8,0.5-1.2c0-0.1,0.1-0.2,0.2-0.1c0.1,0,0.1,0.2,0,0.3
	C27.9,45.7,27.7,46.2,27.4,46.5z"/>
<path class="st0" d="M61.6,32.2c0.1,0.1-0.1,0.2-0.1,0.3c-0.3,0-0.6-0.1-0.8-0.3c-0.1,0-0.2-0.1-0.2-0.2c0-0.1,0.1-0.1,0.2-0.1
	C61.1,31.9,61.4,32,61.6,32.2z"/>
<path class="st0" d="M16.3,35.4c0.1,0,0.3,0,0.5,0c-0.2,0.1-0.5,0.2-0.2,0.5c-0.5,0.1-0.8,0.6-1.4,0.5c0.2-0.3,0.5-0.4,0.7-0.5
	C16.1,35.9,16.3,35.7,16.3,35.4z"/>
<path class="st0" d="M48.5,46.3c0,0.1,0,0.2,0,0.3c-0.3-0.5-0.5-1-0.7-1.5C48.2,45.4,48.3,45.8,48.5,46.3z"/>
<path class="st0" d="M15.8,16c0-0.1,0-0.1,0-0.2c0.6,0.3,1.2,0.4,1.7,0.8C16.9,16.5,16.3,16.3,15.8,16z"/>
<path class="st4" d="M64.1,21.6c0,0,0-0.1,0-0.1c0.3-0.2,0.6-0.2,1-0.2c0.1,0,0.3,0,0.3,0.2c0,0.2-0.1,0.2-0.2,0.2
	C64.8,21.6,64.4,21.6,64.1,21.6z"/>
<path class="st0" d="M58.2,12.2c0,0.1,0.1,0.1,0.1,0.2c-0.3,0.3-0.7,0.5-1.1,0.7c-0.1,0-0.2,0.1-0.2,0c-0.1-0.1,0-0.2,0.1-0.2
	C57.5,12.7,57.8,12.4,58.2,12.2z"/>
<path class="st4" d="M58.3,48c-0.9-1.1-1.8-2.1-2.7-3.1c0,0-0.1,0-0.1,0c0,0-0.1,0-0.1,0c0,0,0,0,0,0c0,0,0,0,0-0.1
	c-0.1-0.2-0.3-0.3-0.1-0.5c-0.2-0.1-0.4,0.3-0.6,0c-0.2,0.1-0.3,0-0.5,0c0,0.2,0.3,0.2,0.3,0.4c0.3-0.1,0.3,0.3,0.5,0.3c0,0,0,0,0,0
	c0,0,0,0,0,0c0.1,0.2,0.2,0.4,0.4,0.5c0.1,0.1,0.2,0.4,0.4,0.3c0.3-0.1,0.4,0.1,0.5,0.3c0.6,0.6,1.2,1.3,1.7,1.9H58.3z M55.2,44.9
	C55.2,44.9,55.2,44.9,55.2,44.9C55.2,44.9,55.2,44.9,55.2,44.9C55.2,44.9,55.2,44.9,55.2,44.9z"/>
<path class="st0" d="M14.6,22.7c0,0,0-0.1,0.1-0.1c0.5-0.2,1,0.1,1.5,0.1c0.1,0,0.2,0.1,0.1,0.2c0,0.1-0.1,0.1-0.2,0.1
	C15.5,22.8,15,22.8,14.6,22.7z"/>
<path class="st0" d="M62,15.6c0.2,0.1,0.4,0,0.5,0c-0.5,0.2-1,0.4-1.6,0.5C61.2,15.8,61.6,15.7,62,15.6z"/>
<path class="st4" d="M17,40.1L17,40.1c0.2-0.4,0.6-0.4,0.8-0.6c0.1,0,0.2,0.1,0.3,0.2c-0.3,0.2-0.6,0.5-0.8,0.7
	c-0.1,0.1-0.2,0.1-0.3,0C16.8,40.3,16.9,40.2,17,40.1z"/>
<path class="st4" d="M67.7,30.6c0.6,0,1.2,0.1,1.7,0.3c-0.6,0.1-1.2-0.1-1.7-0.2C67.6,30.6,67.6,30.6,67.7,30.6z"/>
<path class="st0" d="M55.2,41.8c0,0-0.1,0.1-0.1,0.1c-0.3-0.2-0.6-0.5-0.9-0.8c-0.1-0.1-0.1-0.1-0.1-0.2c0.1-0.1,0.2,0,0.3,0
	C54.7,41.2,54.9,41.5,55.2,41.8z"/>
<path class="st4" d="M63.9,30.2c-0.1,0.1-0.1,0.2,0,0.2c0.4,0.1,0.1,0.3,0,0.4c-0.3-0.2-0.6-0.5-0.9-0.6c0-0.1,0.1-0.2,0.2-0.2
	C63.4,30,63.7,30.2,63.9,30.2z"/>
<path class="st0" d="M12.4,31.6c0-0.1,0-0.2,0-0.3c0.5-0.1,0.9-0.4,1.5-0.3c0,0,0,0,0,0.1c0,0,0,0,0,0
	C13.4,31.4,12.8,31.4,12.4,31.6z"/>
<path class="st0" d="M25.2,3.4c0.1,0,0.1,0,0.2,0c0,0,0,0,0,0.1c0,0,0.1,0.1,0.1,0.1c0.3,0.3,0.6,0.6,0.6,1.2
	C25.6,4.4,25.5,3.8,25.2,3.4z"/>
<path class="st0" d="M29.2,47.2c0-0.4,0.3-0.8,0.4-1.2c0-0.1,0.1-0.1,0.2-0.1c0.1,0,0.1,0.1,0.1,0.2c-0.1,0.4-0.2,0.7-0.5,1
	C29.3,47.3,29.3,47.3,29.2,47.2z"/>
<path class="st0" d="M47.4,48c-0.1-0.2-0.2-0.4-0.3-0.6c0-0.1-0.1-0.2,0.1-0.3c0.1,0,0.2,0.1,0.2,0.2c0,0.3,0.2,0.5,0.3,0.7L47.4,48
	z"/>
<path class="st0" d="M30.1,2.7c0.1,0,0.1,0,0.2,0c0.2,0.3,0.2,0.7,0.4,1.1c0,0.1,0,0.2-0.1,0.2c-0.1,0-0.2,0-0.2-0.1
	C30.3,3.5,30,3.2,30.1,2.7z"/>
<path class="st0" d="M62.6,20.4c0,0.1,0,0.1,0,0.2c-0.3,0.1-0.7,0.2-1,0.3c-0.1,0-0.2,0-0.2-0.1c0-0.2,0.1-0.2,0.2-0.2
	C61.9,20.5,62.2,20.4,62.6,20.4z"/>
<path class="st0" d="M29.4,3.4c0-0.2-0.1-0.4,0-0.5c0.1,0.5,0.6,0.9,0.4,1.4C29.5,4.1,29.6,3.7,29.4,3.4z"/>
<path class="st0" d="M27.4,3.4c0.1,0,0.1-0.1,0.2-0.1c0.1,0.4,0.6,0.6,0.4,1.2C27.7,4.1,27.6,3.7,27.4,3.4z"/>
<path class="st0" d="M63.2,30.1c0,0.1-0.1,0.2-0.2,0.2c-0.4,0-0.8-0.1-1.1-0.3C62.3,30,62.7,30,63.2,30.1z"/>
<path class="st0" d="M53.3,1.8c0.3,0,0.3-0.3,0.5-0.4c0.1,0,0.1,0,0.2,0c-0.1,0.1-0.1,0.2-0.2,0.3l0,0c-0.1,0.1,0,0.1,0,0.2
	c0,0.1,0,0.1-0.1,0.2c0,0.1,0,0.2-0.1,0.2c0,0.1-0.1,0.1-0.1,0.1c-0.1,0.1-0.2,0.1-0.3,0.1c-0.1-0.1-0.1-0.1-0.1-0.2
	c0-0.1,0-0.1,0.1-0.2l0,0C53.2,2.1,53.2,1.9,53.3,1.8L53.3,1.8z"/>
<path class="st0" d="M26.7,45.9c0.2-0.4,0.4-0.8,0.6-1.2c0-0.1,0.1-0.2,0.2-0.1c0.1,0.1,0,0.1,0,0.2c-0.2,0.4-0.4,0.7-0.7,1.1
	C26.8,46,26.8,46,26.7,45.9z"/>
<path class="st4" d="M31.5,0c0,0.2,0.1,0.3,0.1,0.5c-0.1,0-0.2,0-0.3,0c0-0.2,0-0.3,0-0.5L31.5,0z"/>
<path class="st4" d="M19.2,3.8c0-0.1,0.1-0.1,0.1-0.2c0.3,0.4,0.7,0.8,1,1.2c0,0.1-0.1,0.1-0.2,0C19.8,4.5,19.4,4.3,19.2,3.8z"/>
<path class="st4" d="M52.2,48c-0.2-0.3-0.5-0.6-0.5-1c0-0.1,0-0.1,0-0.2c0.4,0.3,0.5,0.8,0.8,1.2H52.2z"/>
<path class="st4" d="M60.2,12.4c-0.1-0.1-0.1-0.1-0.2-0.2c0.4,0.1,0.7-0.2,1-0.4c0.2-0.1,0.4-0.2,0.6-0.3c0,0.1,0,0.2,0,0.3
	c-0.3,0-0.6,0.2-0.8,0.4C60.6,12.3,60.4,12.4,60.2,12.4z"/>
<path class="st4" d="M58.8,8.2c0,0-0.1,0-0.1,0c-0.2,0.1-0.3,0.4-0.6,0.3c0,0,0,0,0,0c0-0.4,0.4-0.5,0.6-0.7c0,0,0.2,0,0.2,0
	C59,7.9,58.9,8,58.8,8.2z"/>
<path class="st0" d="M46.2,0.5c0.1,0,0.1,0.1,0.2,0.1c-0.2,0.4-0.2,0.9-0.5,1.3C45.8,1.4,46.2,1,46.2,0.5z"/>
<path class="st4" d="M65.2,35.7c0,0,0,0.1,0,0.1c-0.5,0-0.9-0.3-1.4-0.5c0.1,0,0.2,0,0.3-0.1C64.5,35.4,64.8,35.6,65.2,35.7z"/>
<path class="st4" d="M14.7,38c-0.2,0.1-0.3,0.2-0.5,0.3c-0.1,0-0.2,0.1-0.3,0C13.9,38,14,38,14.1,38c0.3,0,0.5-0.3,0.8-0.4
	c0.1-0.1,0.3-0.2,0.5-0.2C15.3,37.9,14.9,37.8,14.7,38z"/>
<path class="st0" d="M53.8,44c-0.3-0.2-0.5-0.5-0.7-0.9c0.5,0.1,0.6,0.5,0.8,0.8C53.9,43.9,53.9,44,53.8,44z"/>
<path class="st0" d="M62.8,27c0,0,0,0.1,0,0.1c-0.4,0-0.7,0.1-1.2-0.2C62.1,26.8,62.5,26.9,62.8,27z"/>
<path class="st4" d="M15.8,33.1c0,0.1,0,0.1,0,0.2c-0.3,0.3-0.7,0.3-1,0.4C15,33.3,15.4,33.2,15.8,33.1z"/>
<path class="st0" d="M49.4,3.1c0.1,0,0.1,0.1,0.2,0.1c-0.1,0.3-0.2,0.7-0.6,0.9C49.1,3.7,49.2,3.4,49.4,3.1z"/>
<path class="st4" d="M13.3,26.2c0,0,0-0.1,0-0.1c0.5,0,1.1-0.1,1.6-0.1c0,0.1,0,0.1-0.1,0.1C14.3,26.2,13.8,26.2,13.3,26.2z"/>
<path class="st0" d="M62.2,24.1c0,0,0,0.1,0,0.1c-0.2,0.1-0.5,0-0.8,0.1c-0.1,0-0.2,0-0.2-0.1c0-0.1,0.1-0.1,0.2-0.1
	C61.7,24,62,23.9,62.2,24.1z"/>
<path class="st4" d="M20.1,4.8c0.1,0,0.1,0,0.2,0C20.6,5,20.8,5.3,21,5.6c0,0.1-0.1,0.1-0.2,0.1c-0.2-0.2-0.4-0.4-0.5-0.5
	c0,0,0,0,0,0C20.2,5,20.2,4.9,20.1,4.8z"/>
<path class="st0" d="M23.8,5c0-0.1,0-0.1,0.1-0.2c0.3,0.3,0.4,0.6,0.5,1C24.2,5.5,23.8,5.4,23.8,5z"/>
<path class="st4" d="M63.5,29.8c0.3-0.3,0.7,0,1.1-0.1c0.1,0.1,0.3,0.1,0.4,0.2c-0.5,0.2-0.9-0.2-1.3,0
	C63.6,29.9,63.6,29.9,63.5,29.8z"/>
<path class="st4" d="M15.9,37.4c0.1,0,0.3,0.1,0.2,0.1c-0.4,0.2-0.6,0.6-1.1,0.5c0,0,0-0.1,0-0.1c0.2-0.3,0.5-0.3,0.7-0.5
	C15.8,37.4,15.9,37.3,15.9,37.4z"/>
<path class="st0" d="M51.1,3c-0.2,0.1-0.4-0.1-0.7,0c-0.1-0.4,0.2-0.6,0.5-0.8C50.7,2.6,50.9,2.8,51.1,3L51.1,3z"/>
<path class="st4" d="M54.7,0c0,0.1-0.1,0.1-0.1,0.2c-0.3,0.4-0.7,0.9-0.8,1.3c0.1,0,0.1,0,0.2,0c0.2-0.3,0.7-0.8,0.8-1.3
	c0-0.1,0.1-0.1,0.1-0.2L54.7,0z"/>
<path class="st0" d="M25,4.1c0,0,0.1,0,0.1,0c0.2,0.2,0.5,0.4,0.5,0.7c0,0-0.1,0.1-0.1,0.1C25.2,4.7,25.1,4.4,25,4.1z"/>
<path class="st0" d="M14.8,26.1c0,0,0-0.1,0.1-0.1c0.4,0,0.8,0,1.3,0c-0.4,0.2-0.8,0.2-1.2,0.2C14.9,26.2,14.9,26.2,14.8,26.1
	L14.8,26.1z"/>
<path class="st0" d="M56.5,8.2c0,0.1,0,0.1,0,0.2c-0.2,0.3-0.4,0.5-0.8,0.7C55.9,8.7,56.2,8.5,56.5,8.2z"/>
<path class="st0" d="M41.7,47.7c0,0-0.1,0-0.1,0c-0.1-0.3-0.1-0.7-0.1-1.1C41.7,47,41.7,47.3,41.7,47.7z"/>
<path class="st0" d="M62.4,26.5c-0.2,0-0.5,0.1-0.8-0.2c0.4-0.1,0.7,0,1,0C62.6,26.6,62.5,26.5,62.4,26.5z"/>
<path class="st4" d="M61.5,35.6c0.1,0,0.2,0.1,0.2,0.1c-0.2,0.2-0.1,0.5-0.4,0.8C61.4,36.2,61.1,35.9,61.5,35.6z"/>
<path class="st0" d="M19.5,9.2c-0.1,0-0.1,0-0.2,0c-0.2-0.1-0.4-0.3-0.5-0.4c0,0,0.1-0.1,0.1-0.1c0.2,0,0.4,0.2,0.6,0.4
	C19.5,9.1,19.5,9.2,19.5,9.2z"/>
<path class="st4" d="M59.8,0.5c-0.5-0.1-0.5,0.5-0.8,0.6l0,0C59,1,59,0.9,59,0.8l0,0c0.1-0.1,0.2-0.2,0.4-0.4l0,0
	c0.1-0.1,0.1-0.1,0.2-0.1C59.7,0.3,59.9,0.3,59.8,0.5z"/>
<path class="st4" d="M16.3,37c0.1-0.1,0.3-0.1,0.4-0.2c0.2-0.1,0.2,0.1,0.2,0.2c-0.1,0.1-0.2,0.2-0.3,0.2
	C16.4,37.4,16.3,37.3,16.3,37z"/>
<path class="st4" d="M13.8,31.2c0,0,0-0.1,0-0.1c0.2-0.3,0.6-0.1,0.8-0.3c0,0.1,0.1,0.1,0.1,0.2C14.5,31.1,14.2,31.2,13.8,31.2z"/>
<path class="st4" d="M53.5,2.4C53.5,2.4,53.5,2.4,53.5,2.4c0.1-0.2,0.1-0.3,0.1-0.4c0,0,0,0,0-0.1c0-0.1,0.1-0.1,0.1,0
	c0,0.1,0.1,0.2,0.2,0.2c-0.2,0.2-0.3,0.5-0.6,0.6c-0.1,0-0.1,0-0.1-0.1C53.3,2.6,53.4,2.5,53.5,2.4z"/>
<path class="st0" d="M26.2,3.1C26.2,3.1,26.2,3.1,26.2,3.1c0.3,0.1,0.4,0.3,0.4,0.6c0,0-0.1,0.1-0.1,0C26.3,3.6,26.2,3.3,26.2,3.1z"
	/>
<path class="st0" d="M15.9,37.4C15.9,37.4,15.9,37.4,15.9,37.4c-0.2,0.1-0.4,0.2-0.5,0.1c-0.2,0-0.4,0.1-0.6,0.2
	c0.3-0.2,0.6-0.4,1-0.5c0.1,0,0.1,0,0.2,0.1C16,37.3,16,37.3,15.9,37.4z"/>
<path class="st4" d="M15.4,37.5c0.1,0,0.3,0,0.4-0.1c-0.2,0.2-0.5,0.3-0.8,0.5c-0.1,0-0.2,0-0.4,0C14.9,37.8,15.2,37.7,15.4,37.5z"
	/>
<path class="st0" d="M62.5,29c0,0.1,0,0.1,0,0.2c-0.2,0-0.5-0.1-0.7-0.1C62.1,28.9,62.3,28.9,62.5,29z"/>
<path class="st0" d="M11.4,32.7c0-0.1,0-0.2,0.1-0.3c0.2-0.2,0.4-0.1,0.6-0.1c0,0.1,0,0.1,0,0.2C11.9,32.7,11.6,32.6,11.4,32.7z"/>
<path class="st0" d="M26.7,45.9c0,0,0.1,0,0.1,0c-0.1,0.3-0.2,0.6-0.5,0.8c0,0-0.1,0-0.1,0C26.4,46.4,26.5,46.1,26.7,45.9z"/>
<path class="st4" d="M52.9,3.6c0-0.1,0-0.1,0-0.2c0-0.1,0-0.1,0-0.2c0,0,0-0.1,0-0.1c0-0.1,0-0.1,0.1-0.2c0,0,0.1-0.1,0.1-0.1
	c0.1-0.1,0.2-0.2,0.3-0.2c0,0,0.1,0,0.1,0.1C53.4,3.1,53.2,3.4,52.9,3.6z"/>
<path class="st0" d="M45.8,0.3c0,0,0.1,0,0.1,0c0,0.3,0,0.5-0.2,0.8C45.6,0.8,45.7,0.6,45.8,0.3z"/>
<path class="st0" d="M27.6,47.1c0-0.1-0.1-0.1-0.1-0.2c0-0.2,0.1-0.5,0.3-0.5c0.2-0.1,0.2,0.2,0.1,0.3c0,0.1-0.1,0.1-0.1,0.2
	C27.7,47,27.6,47.1,27.6,47.1z"/>
<path class="st4" d="M57.7,7.5c0-0.1-0.1-0.1-0.1-0.2C57.7,7.2,57.9,7,58,7c0,0,0.1,0.1,0.1,0.1C58.1,7.3,57.9,7.4,57.7,7.5z"/>
<path class="st4" d="M64,22.2c0-0.1,0-0.2,0.1-0.3c0.2,0,0.4,0,0.4,0.2C64.4,22.4,64.1,22.2,64,22.2z"/>
<path class="st0" d="M20.8,5.7c0.1,0,0.1-0.1,0.2-0.1c0.2,0.1,0.3,0.3,0.4,0.5c0,0-0.1,0.1-0.1,0.1C21.1,6,21,5.9,20.8,5.7z"/>
<path class="st4" d="M63.9,25c0,0.1,0,0.3-0.2,0.4c-0.1-0.2-0.2-0.3-0.2-0.5C63.7,25,63.8,24.9,63.9,25z"/>
<path class="st4" d="M56.7,3.7c0-0.1,0-0.1,0-0.2c0-0.2,0.2-0.2,0.3-0.3l0,0c0.2,0,0.1,0.2,0.3,0.2c-0.1,0.1-0.1,0.2-0.2,0.3
	C56.9,3.6,56.8,3.8,56.7,3.7z"/>
<path class="st4" d="M63.6,26.5c-0.1,0-0.2-0.1-0.2-0.1c0.1-0.1,0.1-0.3,0-0.4c0.1,0,0.2,0,0.2,0C63.6,26.1,63.6,26.3,63.6,26.5z"/>
<path class="st4" d="M29.2,47.2c0.1,0,0.1,0,0.2,0c0.1,0.2-0.2,0.4-0.2,0.5c-0.1,0-0.1,0-0.2,0C29,47.5,29,47.3,29.2,47.2z"/>
<path class="st4" d="M49.6,0c0,0-0.1,0-0.1,0h-1.6c0,0,0.1,0.1,0.1,0.2c0,0.2-0.3,0.3-0.1,0.6c0.1-0.2,0.2-0.3,0.3-0.5
	c0.4,0,0.3,0.1,0.2,0.4c-0.3,0.6-0.5,1.2-0.7,1.8c0.1,0.1,0.1,0.1,0.2,0c0.2-0.5,0.5-1,0.7-1.5c0.2-0.4,0.4-0.7,0.9-0.5
	c0,0.1-0.1,0.2-0.1,0.4c0,0,0,0,0,0c0,0,0,0,0,0c-0.1,0.3-0.2,0.5-0.3,0.8c-0.1,0.2-0.1,0.4,0.2,0.4c0,0,0-0.1,0-0.1
	c0-0.4,0.4-0.7,0.4-1.1c0.3-0.2,0.2-0.5,0.4-0.7c0,0,0-0.1,0-0.1L49.6,0z"/>
<path class="st4" d="M46.4,0c-0.1,0.2-0.2,0.3-0.2,0.5c0.1,0.1,0.1,0.1,0.2,0.1c0.1-0.2,0.2-0.4,0.2-0.6H46.4z"/>
<path class="st4" d="M45.9,0c0,0.1,0,0.2,0,0.3c0.1,0.1,0.1,0.1,0.1,0c0-0.1,0.1-0.2,0.1-0.3H45.9z"/>
<path class="st4" d="M44.8,0c0,0.2-0.1,0.3,0,0.5c0.1-0.2,0.1-0.3,0.2-0.5H44.8z"/>
<path class="st4" d="M19.5,37.1c-0.1,0-0.2,0-0.3,0c0.2-0.1,0.4-0.2,0.6-0.4C19.8,37,19.6,37.1,19.5,37.1z"/>
<path class="st0" d="M16.2,34.4L16.2,34.4c0,0.1-0.1,0.3-0.2,0.3c0,0-0.1-0.1-0.1-0.1C15.9,34.4,16.1,34.5,16.2,34.4z"/>
<path class="st4" d="M62.4,26.5c0.1-0.1,0.2,0,0.3-0.2c0.1,0,0.2,0,0.3,0c0,0.1,0,0.1,0,0.2C62.8,26.5,62.5,26.7,62.4,26.5z"/>
<path class="st4" d="M54.4,48c-0.1-0.2-0.3-0.4-0.4-0.5c-0.1-0.1-0.1-0.1-0.2-0.2c-0.1,0-0.1,0-0.2,0c0.1,0.2,0.2,0.4,0.3,0.5v0
	c0,0,0,0.1,0.1,0.1L54.4,48z"/>
<path class="st0" d="M24,46.2c0-0.2,0-0.4,0.3-0.4c0,0.2-0.1,0.4-0.2,0.6C24,46.2,24,46.2,24,46.2z"/>
<path class="st4" d="M66.6,22.5c-0.1,0-0.2,0-0.3,0.2c-0.1,0.1-0.2,0-0.3,0c0,0,0-0.1,0-0.1C66.2,22.4,66.4,22.4,66.6,22.5z"/>
<path class="st4" d="M66.4,30.5c0.2-0.1,0.4-0.2,0.6,0.1C66.8,30.5,66.6,30.5,66.4,30.5z"/>
<path class="st4" d="M67.7,30.6c0,0,0,0.1,0,0.1c-0.2,0-0.3-0.1-0.4-0.1c0,0,0.1-0.1,0.1-0.1C67.5,30.4,67.6,30.4,67.7,30.6z"/>
<path class="st4" d="M53.8,44c0,0,0-0.1,0-0.1c0.2,0.1,0.2,0.2,0.3,0.3c0,0-0.1,0-0.1,0C53.9,44.1,53.8,44,53.8,44z"/>
<path class="st4" d="M57,3.2c0,0.2-0.1,0.3-0.3,0.3c0,0-0.1-0.1-0.1-0.1C56.7,3.3,56.8,3.2,57,3.2z"/>
<path class="st4" d="M56.7,3.7c0.1,0,0.1-0.4,0.3-0.1c-0.1,0.1-0.1,0.1-0.2,0.2C56.8,3.9,56.8,3.8,56.7,3.7z"/>
<path class="st4" d="M59.4,0.4c-0.1,0.2-0.1,0.3-0.4,0.4C59.1,0.6,59.1,0.4,59.4,0.4z"/>
<path class="st4" d="M59.6,0.3c-0.1,0.1-0.1,0.1-0.2,0.1c0-0.1,0-0.2,0.1-0.2C59.5,0.1,59.5,0.2,59.6,0.3z"/>
<path class="st4" d="M26.6,1.5c-0.1,0-0.1,0-0.2,0l0,0l0,0c0-0.1,0-0.2,0.1-0.3C26.5,1.3,26.6,1.4,26.6,1.5z"/>
<path class="st4" d="M13.3,10.4c0,0,0,0.1,0,0.1c-0.1,0-0.2,0-0.2-0.1c0,0,0-0.1,0.1-0.1C13.2,10.4,13.2,10.4,13.3,10.4z"/>
<path class="st0" d="M15.3,18.2c0,0-0.1,0-0.1,0C15.2,18.2,15.2,18.2,15.3,18.2z"/>
<path class="st4" d="M14.8,26.1c0.1,0,0.1,0,0.2,0C14.9,26.2,14.9,26.2,14.8,26.1z"/>
<path class="st4" d="M20.3,5.1C20.3,5.1,20.3,5.1,20.3,5.1C20.3,5.2,20.2,5.1,20.3,5.1C20.2,5.1,20.3,5.1,20.3,5.1z"/>
<path class="st4" d="M58.3,9.7c0,0,0.1-0.1,0.1-0.1c0,0,0,0,0,0C58.5,9.6,58.4,9.7,58.3,9.7L58.3,9.7z"/>
<path class="st4" d="M58.4,9.7c0,0.1-0.1,0.1-0.1,0.1c0,0,0,0,0,0C58.2,9.7,58.3,9.7,58.4,9.7L58.4,9.7z"/>
<path class="st4" d="M49.5,1.8c-0.1,0-0.1,0-0.2,0C49.4,1.8,49.5,1.6,49.5,1.8z"/>
<path class="st0" d="M26.3,46.9c0-0.1,0-0.2,0.1-0.2c0,0,0,0,0.1,0C26.4,46.8,26.3,46.9,26.3,46.9C26.3,46.9,26.3,46.9,26.3,46.9z"
	/>
<path class="st0" d="M13.5,29.3c0,0-0.1,0-0.1,0C13.4,29.3,13.5,29.3,13.5,29.3z"/>
<path class="st0" d="M20,41C20.1,41,20.1,41,20,41C20.1,41,20.1,41,20,41z"/>
<path class="st0" d="M54.5,42.5c0,0,0.1-0.1,0.1-0.1c0,0,0,0.1,0,0.1l0,0C54.5,42.5,54.5,42.5,54.5,42.5z"/>
<path class="st0" d="M62.5,19.8C62.5,19.7,62.6,19.7,62.5,19.8C62.6,19.7,62.5,19.8,62.5,19.8z"/>
<path class="st0" d="M60.5,11.7c0,0-0.1,0.1-0.1,0.1c0,0,0,0-0.1,0C60.4,11.7,60.4,11.7,60.5,11.7C60.5,11.6,60.5,11.7,60.5,11.7z"
	/>
<path class="st4" d="M55.5,44.9c0,0-0.1,0-0.1,0c0,0,0,0,0-0.1c0,0,0,0,0-0.1C55.5,44.8,55.5,44.9,55.5,44.9z"/>
<path class="st0" d="M21.7,4.3C21.7,4.3,21.7,4.3,21.7,4.3C21.7,4.4,21.7,4.4,21.7,4.3z"/>
<path class="st0" d="M19.3,44.3L19.3,44.3L19.3,44.3C19.3,44.3,19.3,44.3,19.3,44.3z"/>
<path class="st4" d="M55.3,44.2c0,0,0.1-0.1,0.1-0.1C55.4,44.1,55.4,44.2,55.3,44.2z"/>
<path class="st4" d="M63.7,25.7c0,0,0.1,0,0.1,0C63.8,25.7,63.7,25.7,63.7,25.7z"/>
<path class="st0" d="M25.5,3.6c0,0,0-0.1-0.1-0.1C25.4,3.5,25.5,3.5,25.5,3.6z"/>
<path class="st4" d="M62.9,25.8c0,0,0.1,0,0.1,0c0,0,0,0.1,0,0.1C63,25.8,62.9,25.8,62.9,25.8z"/>
<path class="st0" d="M14.1,15.4C14.1,15.4,14.2,15.4,14.1,15.4L14.1,15.4L14.1,15.4z"/>
<path class="st4" d="M67.1,30.6C67.1,30.6,67.1,30.6,67.1,30.6C67.1,30.6,67.1,30.6,67.1,30.6z"/>
<path class="st0" d="M60.6,11.5c0,0,0,0.1,0,0.1c0,0,0,0-0.1,0c0,0,0,0-0.1-0.1C60.5,11.6,60.5,11.6,60.6,11.5z"/>
<path class="st0" d="M16.8,34.4c0-0.1,0.1-0.1,0.2-0.1c0,0,0,0.1,0,0.1C17,34.4,16.9,34.4,16.8,34.4C16.9,34.4,16.9,34.4,16.8,34.4z
	"/>
<path class="st4" d="M25.1,0c0,0,0,0.1,0,0.1c0,0,0,0,0,0.1C25.1,0.1,25.1,0.1,25.1,0C25,0.1,25,0,25.1,0l-0.7,0
	c0.2,0.4,0.4,0.7,0.6,1.1c0.2-0.1,0.4-0.2,0.3-0.3c0,0,0,0,0,0C25.4,0.9,25.5,1,25.7,1c0.1,0,0.2,0,0.2,0.1c0,0,0,0,0,0l0,0
	c0.3,0.4,0.3-0.1,0.4-0.2C26.2,0.6,26,0.3,25.9,0H25.1z"/>
<path class="st0" d="M63.1,24.3C63.1,24.3,63,24.3,63.1,24.3C63,24.2,63.1,24.2,63.1,24.3C63.1,24.3,63.1,24.3,63.1,24.3z"/>
<path class="st4" d="M58.9,1.2c0,0-0.1,0.1-0.1,0.1C58.8,1.1,58.9,1.2,58.9,1.2L58.9,1.2z"/>
<path class="st4" d="M12.9,29.8c0.1,0,0.2,0,0.3,0C13.1,29.8,13,29.9,12.9,29.8C12.8,29.8,12.9,29.8,12.9,29.8z"/>
<path class="st4" d="M53.1,2.4c0,0.1,0.3,0.1,0.3,0.2C53.5,2.8,53.1,2.9,53,3l0,0c0,0.1,0,0.2-0.1,0.2l0,0c-0.1,0.1-0.1,0.1-0.2,0
	c0,0-0.2-0.1-0.3-0.1c-0.2-0.3,0.4-0.5,0.4-0.7l0,0C52.9,2.3,53,2.3,53.1,2.4z"/>
<g>
	<path class="st0" d="M31.7,0c3,11.2,6.6,25,6.6,25l4.8-8.3c0,0-4.6-7.6-9.1-16.7L31.7,0z"/>
	<path class="st0" d="M44.3,48c-2.9-10.8-6.1-23.2-6.1-23.2l-4.8,8.3c0,0,4,6.6,8.2,14.9L44.3,48z"/>
	<path class="st0" d="M0.1,34.9c6.3-1.7,38.2-10.1,38.2-10.1L30,20.1C30,20.1,13.5,30.1,0.1,34.9z"/>
	<path class="st0" d="M76.3,14.9C70,16.5,38.1,24.9,38.1,24.9l8.3,4.8C46.4,29.7,62.9,19.7,76.3,14.9z"/>
	<polygon class="st0" points="30.2,20.1 21.3,15 30.2,17.3 	"/>
	<g>
		<path class="st0" d="M22.8,16.1l6.9,4l-1.9,1.1L22.8,16.1 M21.3,15l6.4,6.6l2.4-1.4L21.3,15L21.3,15z"/>
	</g>
	<polygon class="st0" points="43,16.8 48.1,8 45.8,16.9 	"/>
	<g>
		<path class="st0" d="M47,9.4l-4,6.9l-1.1-1.9L47,9.4 M48.1,8l-6.6,6.4l1.4,2.4L48.1,8L48.1,8z"/>
	</g>
	<polygon class="st0" points="46.3,29.6 55.2,34.8 46.3,32.4 	"/>
	<g>
		<path class="st0" d="M48.7,28.5l5,5.1l-6.9-4L48.7,28.5 M48.8,28.2l-2.4,1.4l8.8,5.2L48.8,28.2L48.8,28.2z"/>
	</g>
	<polygon class="st0" points="33.5,33 28.3,41.8 30.7,32.9 	"/>
	<g>
		<path class="st0" d="M33.5,33.5l1.1,1.9l-5.1,5L33.5,33.5 M33.5,33l-5.2,8.9l6.6-6.4L33.5,33L33.5,33z"/>
	</g>
</g>
<g>
	<path class="st0" d="M201.4,31.7c-0.9,1-2.4,1.5-4,1.5c-1.7,0-3-0.4-4-1.7v7.6h-4.2V16.4h4V18c1.2-1.3,2.4-1.8,4.2-1.8
		c1.6,0,3.1,0.5,4,1.5c1.6,1.6,1.7,4.2,1.7,7C203.2,27.5,203,30.1,201.4,31.7z M196.2,20c-2.5,0-2.8,2.1-2.8,4.8
		c0,2.7,0.3,4.8,2.8,4.8s2.8-2.1,2.8-4.8C199,22,198.7,20,196.2,20z"/>
	<path class="st0" d="M217.2,31.2c-1.1,1.1-2.7,2-5.2,2c-2.5,0-4.1-1-5.1-2c-1.5-1.6-1.9-3.5-1.9-6.5c0-3,0.4-4.9,1.9-6.5
		c1.1-1.1,2.7-2,5.1-2c2.5,0,4.1,0.9,5.2,2c1.5,1.6,1.9,3.5,1.9,6.5C219.1,27.7,218.8,29.6,217.2,31.2z M214,20.7
		c-0.5-0.5-1.1-0.7-1.9-0.7c-0.8,0-1.4,0.3-1.9,0.7c-0.9,0.8-1,2.3-1,4c0,1.7,0.1,3.2,1,4.1c0.5,0.5,1.1,0.7,1.9,0.7
		c0.8,0,1.5-0.3,1.9-0.7c0.9-0.8,1-2.3,1-4.1C215,23,214.9,21.5,214,20.7z"/>
	<path class="st0" d="M230.6,20.9c-0.6-0.6-1.2-1-2.2-1c-1.3,0-2.7,1-2.7,3.1v10h-4.2V16.4h4.1V18c0.8-1,2.4-1.8,4.2-1.8
		c1.6,0,2.8,0.4,3.9,1.6L230.6,20.9z"/>
	<path class="st0" d="M241,33.1c-3.4,0-4.8-2.4-4.8-4.8v-8.2h-1.8v-3.2h1.8V12h4.2v4.9h2.9v3.2h-2.9v8c0,1,0.4,1.5,1.4,1.5h1.5v3.5
		H241z"/>
	<path class="st0" d="M254.3,33.1v-1.4c-1.1,1.1-2.2,1.6-4.1,1.6c-1.9,0-3.3-0.5-4.2-1.5c-0.9-0.9-1.4-2.3-1.4-3.7
		c0-2.7,1.8-4.8,5.8-4.8h3.9v-0.8c0-1.8-0.9-2.6-3.1-2.6c-1.5,0-2.3,0.4-3.2,1.4l-2.6-2.6c1.6-1.8,3.2-2.4,6-2.4
		c4.7,0,7.1,2,7.1,5.9v11H254.3z M254.2,26h-3.2c-1.7,0-2.5,0.7-2.5,1.9c0,1.2,0.8,1.9,2.5,1.9c1,0,1.8-0.1,2.5-0.8
		c0.5-0.4,0.6-1.1,0.6-2.1V26z"/>
	<path class="st0" d="M266,33.1c-3.4,0-4.9-2.4-4.9-4.8v-18h4.2V28c0,1,0.4,1.5,1.5,1.5h1.6v3.5H266z"/>
</g>
</svg>
