<?xml version="1.0" encoding="utf-8"?>
<!-- Generator: Adobe Illustrator 25.4.1, SVG Export Plug-In . SVG Version: 6.00 Build 0)  -->
<svg version="1.1" id="Layer_1" xmlns="http://www.w3.org/2000/svg" xmlns:xlink="http://www.w3.org/1999/xlink" x="0px" y="0px"
	 viewBox="0 0 16 19" style="enable-background:new 0 0 16 19;" xml:space="preserve">
<style type="text/css">
	.st0{fill:#9E599A;}
</style>
<path class="st0" d="M15.6,16.2l-4.5-5.1C12.3,9.9,13,8.3,13,6.5C13,2.9,10.1,0,6.5,0S0,2.9,0,6.5S2.9,13,6.5,13
	c0.9,0,1.8-0.2,2.5-0.5l4.7,5.4c0.2,0.3,0.6,0.4,0.9,0.4c0.3,0,0.6-0.1,0.8-0.3C16,17.5,16,16.7,15.6,16.2z M2,6.5C2,4,4,2,6.5,2
	S11,4,11,6.5S9,11,6.5,11S2,9,2,6.5z"/>
</svg>
